<svg enable-background="new 0 0 750 300" height="300" viewBox="0 0 750 300" width="750" xmlns="http://www.w3.org/2000/svg"><path d="m419.564 32.819c4.193-1.066-2.304-.309 2.731-.909-.55.476-1.353.913-2.731.909z" fill="#0055b8"/><path d="m392.494 57.057c3.396-.682 7.064-1.08 10.889-1.323 3.823-.244 7.804-.349 11.825-.311 8.043.018 16.246.139 23.695-.689 1.75-.103-.446 1.244 3.489.963 7.222-.848 16.525-.96 26.221-.666 9.692.52 19.777 1.342 28.563 2.402l-1.069.307c3.345.429 7.449-.554 10.996-.206.022.238-1.141.28-.325.653.901-.678 6.421-.01 7.933-.469 1.399.351 1.256.915 3.062 1.326 0 0 .511-.18 1.021-.359.512-.168 1.022-.334 1.022-.334 5.676-1.523 13.71 1.162 21.436.74-.378.158-1.146.252-.537.482 6.192.012 13.156.495 20.302 1.068 7.14.799 14.463 1.618 21.375 2.393-.56.198-1.083.642-.289 1.1.713-.751 4.981-.278 8.688.151.816.577 2.409.632 4.339.691.966.029 2.015.061 3.094.16 1.077.135 2.183.338 3.261.672l-.38.12c3.241-.296 4.726 1.467 7.375.868l2.003 1.094c.731-.484 1.883-.095 3.185.4 1.302.518 2.751 1.195 4.089 1.183l-.072-.274c2.506.282 3.769 1.211 6.093 1.543l.211.193c5.434.879 8.523 2.582 8.451 1.541 1.847 1.302-5.255-1.096-2.349.859 2.225.508 4.458 1.018 6.698 1.529 2.239.546 4.49 1.021 6.729 1.733 2.243.679 4.491 1.357 6.741 2.038 1.123.357 2.252.668 3.373 1.071l3.365 1.235 6.729 2.511c2.229.974 4.46 1.948 6.687 2.921 2.232.914 4.436 2.086 6.64 3.201 1.102.559 2.202 1.117 3.301 1.676 1.101.538 2.181 1.248 3.271 1.861 1.921 1.535 3.159 2.385 3.551 3 .888.355 2.495 1.486 4.103 2.467 1.604 1.01 3.205 1.92 4.002 2.346-.57-.428 1.009 1.328 1.893 2.076 3.005 2.688 3.517 1.816 6.751 5.208-1.369-.976-1.878-1.097-1.508-.36 1.498.849 3.103 2.539 4.79 4.219.844.844 1.641 1.949 2.465 2.922.404.516.828.965 1.212 1.525.386.557.768 1.109 1.144 1.652-.505-.569-1.24-1.571-1.214-1.152.853 1.064 1.672 2.111 2.398 3.301.351.631.69 1.266 1.021 1.896.33.637.669 1.238.941 1.969.285.7.568 1.393.851 2.082.289.674.493 1.487.747 2.211l.366 1.114.303 1.202.316 1.198.251 1.28s-.164-.621-.339-1.203c-.205-.545-.411-1.09-.411-1.09.644 3.193.689 4.882.753 5.791.042.465.068.749.099.986.033.239.074.421.086.705 0-.04.001-.099.001-.155.093.313.187.755.193 1.678.023.467-.035 1.019-.085 1.733-.022.359-.101.723-.16 1.143-.073.406-.123.887-.251 1.338.329-2.42.062-1.652.029-2.123-.06.568-.099 1.191-.194 1.795-.109.6-.222 1.217-.336 1.85-.14.611-.313 1.207-.478 1.83-.087.307-.167.633-.263.934-.104.289-.21.582-.314.875-.215.588-.434 1.184-.653 1.787-.245.557-.504 1.1-.76 1.654-.263.543-.509 1.133-.791 1.643l-.859 1.498-.863 1.494c-.305.443-.608.883-.91 1.322-.611.85-1.185 1.791-1.792 2.514-.602.75-1.184 1.475-1.737 2.164-.277.348-.547.686-.809 1.014-.269.299-.528.588-.777.867.226-.32.125-.389.125-.389-1.104 1.141-2.203 2.4-3.365 3.428-1.161 1.027-2.336 2.068-3.524 3.119-2.423 1.857-4.877 3.902-7.437 5.758-.956.516-.853.084-1.125-.033-.138-.059-.367-.037-.871.219-.252.127-.57.314-.981.58-.414.234-.921.537-1.543.932.168.488-1.939 1.852-3.704 3.033-1.76 1.189-3.201 1.988-1.632 1.869-2.176.994-4.973 2.385-7.605 3.51-2.635 1.104-5.079 2.193-6.51 3.033 1.912-1.299-2.245-.4 1.355-2.121 0 0-.699.141-1.397.279-.697.154-1.4.232-1.4.232.369-.572 2.822-1.068 1.9-1.246-1.796.883-7.053 3.311-8.688 3.793-1.649 1.041-3.236 2.014-5.085 3.1-1.85 1.057-3.969 2.174-6.706 3.141 1.275-.617.885-.83.396-.939-.49-.139-1.083-.217-.214-.57l-7.519 4.408c-1.823.592-.452-.766-3.079.307.153.27-.991.756-1.778 1.199-.702.043-7.617 2.219-8.476 1.311-.839-.221 2.973-.986.919-.867-3.377.883-3.511 1.285-6.902 2.031l-.076-.135c-2.243.32-6.574 1.902-4.113 1.988 1.562-.305-.624-.539 1.701-.717-1.546.961-5.48 2.076-8.881 2.709 1.152-.387.998-.658 1.448-1.057-4.526 1.703-9.357 2.865-14.45 4.162-.059.543 1.869-1.311 2.63-1.168-3.281.281-6.653.953-9.888 1.689-3.235.705-6.335 1.363-9.076 1.219.89-.205.501.688.435.551-3.158.326-3.035-.461-5.081.074-.221-.424-2.582.463-4.695.859-1.086.459-.557-.152 1.282-.426-1.468.365-5.148 1.104-9.319 1.729-4.17.543-8.829 1.002-12.245 1.002.142.285-4.164 1.498-5.732 1.615l.599-.756c-1.44-.27-5.252.449-5.526-.115-1.667.543 1.556.131 4.628-.297 3.072-.5 5.996-1.01 3.739-.465-.594-.234-2.166.195-3.471.553-1.305.338-2.342.588-1.864.082-3.146.254-6.188 1.258-9.205.82.87.051 2.535-1.15-.004-.916-4.479.447-1.268.426-4.899.92l-2.274.449c-.137.705-4.006.174-2.329.832-.56-.531-6.506.668-6.061-.479l.612-.918c-1.934.16-3.159 1.092-4.674 1.557-.259-.068-.769-.221-.673-.369-.297 1.373-4.625.115-6.917 1.277-4.063-.215-10.324.307-12.247-.455-3.122.5-5.969 1.066-9.53.881.711-.15 1.678-.217 1.879-.514-2.238-.334-2.787.037-4.832.316.229-.107-.891-.271-2.377-.467-1.485-.221-3.339-.471-4.582-.699-3.098.434-2.03 1.156-2.342 1.605-2.837-1.314-8.758.945-12.311-.238 1.077-.193 4.528-.699 1.944-1.012-2.841-1.334-5.709 1.09-10.29.389l1.12 1.119c-2.039-.705-6.731.588-6.265-.539-1.532.385-5.396-.416-4.891.672-3.753-.496-8.32-.383-12.526-.432-4.206-.105-8.05-.328-10.349-1.363-1.078.152-3.767-.105-3.219.467 1.784.652 2.502-.363 3.166.064-.968.008-1.178.299-1.283.445-2.332-.311-4.168-.439-1.957-1.281-5.188-.836-5.373 1.756-11.984 1.033.304-.434-.196-.627-2.132-.646l-3.677.596c-4.273-.379-2.42-1.135-2.517-1.9-2.285.023-5.076-.143-6.125.375l-2.762-1.084c2.019.775-1.886.391-2.959.477l1.073-.113c-.412-.352-3.06-.332-4.4-.328.316.492 3.009.865 4.477 1.104-1.168.254-2.985.051-4.54.34.524-.711-3.716-.785-5.528-.986-2.078-.303-2.361.506-2.967.441-.049-.391-3.398-.299-1.766-.729.712-.076 1.616.486 2.797.225-1.366-.379-1.195-1.041-4.058-.746-2.148.225.526 1.508-3.532.762 1.069-.111 1.27-.396 2.108-.607l-3.808-.676-.177.664c-.512-.219-.155-.246-.386-.357-1.152.613-5.825-.309-6.705.416-1.924-.104-4.043-.838-5.877-1.082l.356-.027c-2.237-.609-5.225-.59-7.12-.379l.102-.137c-1.223-.195-4.119-.424-5.672-.201-3.077-.869-.965-2.678-4.415-2.221-3.138-.34-4.955.674-3.707 1.252-5.626-1.166-12.072-1.035-17.266-2.807-.823.154-.316.414-1.997.289-4.133-.84-8.512-1.383-12.674-2.025-4.161-.703-8.103-1.611-11.362-2.922 2.407.197.191-.646.161-1.039-2.007.205-2.349-1.105-3.108-.213.165.65-.045.906 2.27 1.621-2.477-.291-5.586-.971-8.417-1.664-2.83-.697-5.379-1.441-6.729-2.047 1.35.596.277.555-.806.453.409-.875-3.208-2.008-5.975-2.414l-.421.488-1.751-1.096c-1.064-.113-1.247.961-3.928-.424-.13-.275-.272-.559-.759-.881-2.861-.426-6.929-.787-9.961-2.35l-2.441-1.756c-1.315-.375-3.571-.65-1.282.424-5.201-2.311-8.543-3.885-10.128-5.266-9.14-1.928-22.208-8.09-32.301-16.363l.381-.184c-1.326-1.236-1.712-1.332-1.996-1.371-.285-.023-.472.053-1.383-.914.944.365-1.871-2.646.331-1.279-.934-.955-1.72-1.633-2.406-2.211-.679-.621-1.269-1.082-1.822-1.484-.558-.396-1.071-.76-1.608-1.141-.528-.451-1.073-.949-1.688-1.604-.505.088 2.03 1.918 1.393 2.033-.229-.16-1.5-1.715-2.792-3.307-.635-.867-1.28-1.727-1.817-2.371-.542-.607-.948-1.189-1.153-1.201-.79-1.68.096-1.102.665-.662 0 0-.562-.75-1.125-1.498-.283-.373-.565-.746-.766-1.09-.205-.328-.341-.545-.341-.545-.543-1.361-.414-1.449.033-.939.224.256.529.66.871 1.133.353.416.751.885 1.149 1.354.779.98 1.593 1.734 2.043 2.012.451.279.542.057-.057-1.127 0 0-.125-.156-.311-.393-.188-.236-.44-.537-.675-.908-.478-.707-.956-1.416-.956-1.416-.756-1.77.557-.025 1.469 1.164.479.531.856.949.815.812-.032-.162-.525-.752-1.639-2.668-.266-.35-.531-.682-.79-.99-.259-.311-.485-.664-.713-.947-.447-.59-.853-1.029-1.132-1.309-.271-.297-.443-.373-.454-.127-.007.236.131.85.542 1.709-1.67-3.199-2.282-4.574-2.812-5.559-.25-.543-.506-.877-.755-1.66-.125-.393-.271-.799-.41-1.432-.067-.33-.136-.697-.205-1.107-.036-.189-.062-.5-.09-.77-.013-.141-.027-.287-.04-.434-.014-.162-.024-.523-.025-.785.118.625.344 1.836.571 3.043-.058-.127-.118-.258-.179-.393-.041-.1-.083-.205-.127-.312-.081-.205-.149-.404-.225-.627-.14-.438-.277-.924-.397-1.473-.241-1.094-.428-2.454-.471-4.006.062-1.437.073-.76.168.763.048.764.171 1.749.366 2.755.101.506.221 1.012.367 1.506.07.246.151.494.237.738l.141.373c.049.127.14.336.21.488-.184-.98-.368-1.961-.534-2.846 0 .188.003.377.01.562.007.211.015.236.023.361.017.201.034.4.051.596.034.414.085.639.127.939.085.566.174 1.008.256 1.279.157.586.238.715.193.121l-.117-.777-.093-.865c-.03-.289-.064-.553-.082-.92-.018-.363-.047-.586-.042-1.275l.441 2.348-.159-.385-.104-.291-.179-.561c-.11-.369-.204-.744-.292-1.121-.166-.76-.299-1.54-.385-2.335-.18-1.591-.188-3.214-.073-4.693.237-2.97.857-5.423 1.586-7.263-.482 1.223-.747 1.934-.883 2.171-.139.229-.15-.026-.069-.589.074-.586.27-1.375.514-2.287.258-.844.567-1.801.893-2.547 1.216-2.299.917-1.289.716-.697-.099.311-.169.559-.012.323.163-.204.531-1.007 1.381-2.437.364-1.441 3.53-6.562.618-2.629.465-1.486 1.429-2.781 2.485-4.035 1.059-1.26 2.214-2.453 3.124-3.984 1.37-.631-3.334 5.966.774 1.741-.409.005.774-1.593 1.782-2.968 1.008-1.35 1.83-2.566.619-2.01 1.668-1.389 1.961-.93.879.595 2.383-1.796 5.386-6.333 6.434-5.501l.67-1.395c.787-.314 1.871-.991 3.152-1.454 2.07-1.586 6.576-5.739 6.565-4.443.648-.604 5.47-3.546 3.499-3.188-3.071 1.361-3.349 2.802-5.182 2.794 1.125-.256 2.196-.99 3.199-1.844 1.006-.824 1.943-1.762 2.788-2.451l.348.273c1.007-.81 3.404-2.11 3.987-2.988-.762.735-.305.78.53.428l1-1.305c4.17-2.72 1.149.629 5.227-1.797l-3.05 2.227c.669-.505 2.146-.595 4.084-1.874.685-1.05 2.031-2.53 2.631-3.364 2.291-1.463 1.123.154 3.337-1.621l-2.904 2.275c-.429.439 2.136-.006 5.234-1.523 1.954-1.207 4.943-3.533 1.771-2.422 1.56-.746 3.786-1.382 2.6-.337 3.511-1.874-.542-.479 2.467-2.278 1.296-.139 5.251-1.297 7.66-1.662l-3.079 2.445 2.116-.902c-2.654 2.031 1.458.049-.001 1.62 1.461-.476 3.181-1.558 4.561-2.367-4.382.312 4.557-3.942 3.201-4.749 5.795-2.7 3.932 1.729 9.821-2.686-1.026.032 1.748-2.062-1.891-.285 3.636-1.226 2.347-2.274 6.674-3.328-3.121 1.707 3.516.092-.99 2.567.264-.552-2.582.638-3.271 1.022 1.535-.055-.191 1.453 3.512.048 2.253-.96 5.355-2.11 4.844-2.641-.154-.726-3.449 1.341-2.063.045 4.492-1.919 5.343-1.011 7.102-3.016-2.846 1.104-3.625.579-3.613.04l3.291-1.485-.601.73c5.356-1.488 1.499-1.492 6.671-3.111l2.5.184c-1.164 1.256-7.539 2.167-6.506 3.266 3.354-1.129 4.416-2.178 7.604-2.891-.693.357-1.653.717-2.339 1.074 1.21-.342 2.541 1.062 7.244-1.562 2.44-1.224.618-.708.639-1.255 5.38-1.918 6.958-2.915 10.427-4.089-.644 1.229 6.153-1.768 2.385.438-1.807-.059-9.61 2.41-11.443 4.033 2.053.584-4.248 1.191-5.305 2.807 4.319-1.381 4.197-.107 4.951.447 1.202-.332 2.339-1.039 3.044-1.391.455-.901-1.112-.385-1.259-1.115 4.836-1.326 9.455-3.188 12.068-4.692 1.639-.118 1.18.772-.725 1.417 5.726-1.957 11.874-3.639 17.352-4.944-3.612-.227 6.072-1.972 3.598-2.307-2.944.54-5.515.379-3.934-.608 1.834-.432-.026.545.755.588 2.291-1.305 3.688.053 5.913-1.621-5.23 1.848-.928 1.754-1.834 2.966 3.755-1.577-.122.708 3.63-.312 3.74-1.526 8.354-3.204 12.544-4.47 5.328-.482 13.371-3.363 18.085-4.535 2.496-.111.883 1.358 3.569.906 3.144-.771-2.393-.598 2.287-1.221l-.438.32c1.398-.602 8.576-1.266 9.871-3.119l-1.375 1.491c.876-.094 1.664-.545 2.376-.835.058.371 1.085.482-.314 1.056 2.914.128 6.024-1.498 9.146-2.221l-2.044-.241c5.317-1.729 8.932-1.842 14.098-3.176l-.125.705 3.062-1.062c-.723.819 2.122.623 3.723-.255l-7.921 3.35c-2.242.078 2.389-1.33.962-1.695-1.215-.324-5.994.875-6.734 1.701 1.836-.333 1.914-.488 3.327-1.039.649.811-2.136 1.357-3.479 2.294.96-.255 2.338-.261 2.529-.601-1.864.852-3.759 1.36-6.897 2.076 2.104-.839-1.187-.324-.396-.77-.207.885-3.195 1.785-7.088 2.441-2.817-.307-7.25 2.268-11.756 3.08 1.777-1.278 4.071-2.48 6.786-3.445-2.846.237-3.139.734-5.99.988-1.334.949-2.256 2.133-5.913 3.39l-.234-.566c-3.315 1.107-3.264 2.026-7.514 2.901-3.643.74-7.333 1.593-10.805 2.449-3.472.871-6.728 1.688-9.501 2.384l-.244-.556c-3.003 2.113-10.236 3.275-14.346 5.025-7.089 1.418-15.263 5.047-18.941 5.131-12.388 4.342-23.193 8.38-36.002 12.97l2.077-1.701c-2.236 1.518-1.536.057-3.776 1.041 2.65-.266-3.039 2.076-4.565 3.271-5.755 1.513-12.972 5.342-17.911 8.219l-.26-.518c-4.942 3.412-11.075 5.266-17.348 8.414-.744.143-1.945.17-3.795 1.268-3.247 2.885-5.03 3.766-9.839 7.454-1.781 1.146-4.119 2.65-6.463 4.159-2.332 1.566-4.669 3.152-6.457 4.43-2.054 1.898-4.082 3.9-6.082 5.992-1.996 2.1-3.96 4.324-5.804 6.816-1.832 2.484-3.599 5.252-4.873 8.423-.622 1.567-1.117 3.259-1.277 4.749-.085.742-.096 1.412-.048 2.005.034.286.066.572.125.819.029.121.058.24.088.34.015.054.03.089.042.129l.014.035c-.011-.03-.028-.07-.045-.101l.536 2.853c.002-.047.003-.098.003-.145l-.002-.074-.001-.018v-.01c.167-.035-.229.037-.18.029l.077-.004c.146-.02.101-.002.109.008l.004.029c.007.047-.004.055.017.16.032.178.044.336.08.531.104.418.153.828.304 1.283.225.895.583 1.791.915 2.684.758 1.742 1.622 3.428 2.602 4.934.502.73.96 1.543 1.497 2.211l1.586 2.047c.535.666 1.11 1.242 1.664 1.865.564.596 1.105 1.256 1.699 1.77l.772 1.582c12.818 11.242 29.819 20.195 41.746 24.201l-1.259.75c.923.473 1.917.908 2.875 1.271.959.354 1.89.578 2.672.746 1.566.318 2.557.27 2.115-.336 1.863.834 4.208 1.604 6.392 2.199 2.184.613 4.188 1.25 5.35 2.131 3.831 1.457 4.752.873 7.974 1.576 7.696 2.637 10.586 3.119 17.906 4.615l-1.81-.504c-.815.084-.916.59.901 1.1 2.743.383 10.037 2.42 7.382.43 7.773 2.529 18.271 2.746 25.853 5.105-.632-.494 1.297-.297 2.111-.459 3.441.479 6.963 1.184 10.314 1.777 3.351.619 6.537.938 9.291.936 1.087.328-1.764.488 1.042.854 1.664.035.044-.525 2.101-.514 2.795.119 5.602.439 8.402.74 2.801.289 5.594.658 8.354 1.043 2.76.381 5.489.76 8.161 1.129 2.673.342 5.293.539 7.833.676 4.519.113 9.086.303 13.664.539 4.58.18 9.172.357 13.74.537 9.136.498 18.182.664 26.84.875l-.197.293c1.451-.246 3.026-.271 4.646-.199 1.62.043 3.284.186 4.912.309 3.256.248 6.366.422 8.682-.412 1.37.295 5.235.178 4.221.744 2.305-.398 5.549-.125 9.022-.008 3.493.129 7.245.229 10.586-.312-.612-.02-.967.041-1.677.178 6.751.564 12.713-.279 19.826.055-.721.148-2.035.277-2.249.582 2.755.492 6.511-1.443 8.023-.051 1.576-.059 1.12-.754.155-.684 3.894.021 7.854-.025 11.856-.18 4.004-.211 8.049-.484 12.113-.787 8.13-.523 16.329-1.496 24.429-2.238 5.812.029 6 .555 5.878.941-.122.375-.554.539 4.013-.438.757.203.532-.6.66-.314 3.533-.742 5.558 1.068 7.996.082-1.034-.783 1.626-.652 1.687-1.195 3.556-.02 5.691-.031 7.639-.043 1.946-.051 3.702-.236 6.49-.914l-.407.514c6.525-2.02 14.14-2.588 19.611-4.904 18.039-3.084 35.662-7.102 53.014-12.738 8.655-2.975 17.279-6.068 25.759-10.213 8.478-4.082 16.892-8.836 24.902-15.307 3.928-3.256 7.794-6.859 11.15-11.447l1.236-1.742c.417-.57.757-1.25 1.142-1.865.371-.631.767-1.238 1.07-1.93.314-.678.678-1.322.959-2.012.258-.701.566-1.379.795-2.07l.312-1.031c.052-.17.111-.342.157-.51l.104-.492c.062-.32.167-.66.208-.955.034-.289.086-.582.128-.854 0-.207.049-.5.042-.626-.004-.053.005-.146.007-.165v.009l.095-.004.222-.029c.148-.024.296-.061.444-.11l.223-.082.11-.047.056-.026c.263-.095-2.17.746-1.14.403l.002.026c.011.14.026.279.047.414l.024-3.6c-.015.081-.026.166-.036.251l-.014.13-.006.064c1.812.706.46.172.845.321-.2-.102-.4-.183-.602-.24l-.252-.058.002.007c.005.02.001-.018-.002-.051-.016-.137.007-.217-.012-.398-.044-.374-.044-.746-.149-1.236-.038-.23-.07-.463-.104-.699l-.192-.758-.181-.771c-.051-.259-.169-.521-.249-.781l-.526-1.585-.673-1.547c-.399-1.072-.997-1.998-1.507-2.995-.493-1.027-1.141-1.868-1.723-2.791l-.892-1.365-.97-1.234c-.651-.815-1.288-1.661-1.948-2.459l-2.063-2.213c-5.549-5.819-11.614-10.137-17.738-14.03-12.339-7.495-25.145-12.809-38.184-17.439-8.079-3.916-8.721-3.924-17.77-5.952.38-.093.944.016.351-.335-.255.453-1.839-.023-3.485-.377-1.646-.368-3.342-.754-3.799-.382-3.248-.784-6.434-1.552-9.592-2.313-3.169-.609-6.311-1.213-9.465-1.818-6.303-1.291-12.679-2.129-19.395-3.238 2.129.238 3.224-.402.695-.746l-2.659.211-.423-.352c-1.733-.153-3.634.113-1.859.666-33.793-3.895-67.087-8.093-100.297-8.769-3.938-.303-8.715-.504-13.577-.496-4.863.072-9.812.146-14.1.21-12.694-.87-24.771-1.175-36.898-1.39-6.063-.142-12.141.045-18.313.21-6.173.192-12.443.484-18.895.909-.011.008 3.338-2.676 13.995-3.586z" fill="#0055b8"/><path d="m414.513 33.963c-.925-.312-3.881.022-1.566-1.122.314.405 1.85.615 1.566 1.122z" fill="#0055b8"/><path d="m335.794 47.376c-.095.173-1.131.104-1.385.094.963-.311 1.843-.962 2.631-.912-.982.296-.816.493-1.246.818z" fill="#0055b8"/><path d="m315.756 52.757c.272-.543 4.529-2.132 7.051-2.909z" fill="#0055b8"/><path d="m296.998 56.706c-1.634.148-1.207-.197.958-.885.175.182-.532.531-.958.885z" fill="#0055b8"/><path d="m295.751 58.134c-1.544.514-2.334.494-3.104.499.083.346 3.564-1.399 3.104-.499z" fill="#0055b8"/><path d="m255.334 71.629c-.962.421-3.016 1.68-3.959 1.584 1.036-.111 4.645-2.541 3.959-1.584z" fill="#0055b8"/><path d="m236.775 80.65c-.602.266-.856.308-1.538.768-1.125.344.001-.542.926-1.039z" fill="#0055b8"/><path d="m456.956 221.309-2.059.23.301-.439z" fill="#0055b8"/><path d="m608.275 209.506c2.028-.65 1.437.154 1.781.158-1.843.385.66-.67-1.781-.158z" fill="#0055b8"/><path d="m688.678 179.643-.602.367.077-.994z" fill="#0055b8"/><path d="m671.691 190.684c0 7.098-5.807 12.904-12.903 12.904h-428.802c-7.097 0-12.903-5.807-12.903-12.904v-108.243c0-7.098 5.807-12.904 12.903-12.904h428.802c7.097 0 12.903 5.807 12.903 12.904z" fill="#24b34c"/><path d="m309.058 156.531h-7.205c-.807 0-1.471-.188-1.994-.564-.522-.375-.885-.857-1.086-1.443l-2.365-6.985h-15.235l-2.365 6.985c-.183.514-.541.977-1.072 1.389-.532.412-1.183.619-1.953.619h-7.26l15.51-40.068h9.515zm-25.74-15.318h10.945l-3.685-10.973c-.238-.696-.518-1.517-.838-2.461-.321-.944-.638-1.967-.949-3.066-.293 1.118-.596 2.154-.907 3.107-.312.953-.605 1.778-.88 2.475z" fill="#fff"/><path d="m348.658 136.483c0 2.897-.5 5.569-1.499 8.017-1 2.447-2.406 4.565-4.221 6.353-1.815 1.787-4.001 3.181-6.559 4.179-2.558 1-5.395 1.5-8.511 1.5h-15.565v-40.068h15.565c3.116 0 5.954.504 8.511 1.513 2.557 1.008 4.744 2.401 6.559 4.18s3.222 3.892 4.221 6.339c.999 2.446 1.499 5.109 1.499 7.987zm-9.515 0c0-1.979-.257-3.768-.77-5.362-.514-1.595-1.251-2.946-2.214-4.056s-2.141-1.962-3.534-2.558c-1.394-.596-2.979-.895-4.757-.895h-6.215v25.768h6.215c1.778 0 3.364-.298 4.757-.894s2.571-1.448 3.534-2.558c.962-1.108 1.7-2.461 2.214-4.056.513-1.594.77-3.39.77-5.389z" fill="#fff"/><path d="m389.467 136.483c0 2.897-.499 5.569-1.498 8.017-1 2.447-2.406 4.565-4.221 6.353-1.815 1.787-4.002 3.181-6.559 4.179-2.558 1-5.396 1.5-8.512 1.5h-15.565v-40.068h15.565c3.116 0 5.954.504 8.512 1.513 2.557 1.008 4.743 2.401 6.559 4.18 1.814 1.778 3.221 3.892 4.221 6.339.999 2.446 1.498 5.109 1.498 7.987zm-9.514 0c0-1.979-.258-3.768-.771-5.362-.514-1.595-1.251-2.946-2.214-4.056s-2.141-1.962-3.534-2.558c-1.394-.596-2.979-.895-4.757-.895h-6.215v25.768h6.215c1.778 0 3.364-.298 4.757-.894s2.571-1.448 3.534-2.558c.963-1.108 1.7-2.461 2.214-4.056.513-1.594.771-3.39.771-5.389z" fill="#fff"/><path d="m433.631 116.463v7.37h-11.274v32.698h-9.295v-32.698h-11.275v-7.37z" fill="#fff"/><path d="m475.376 136.483c0 2.897-.499 5.593-1.498 8.085-1 2.494-2.406 4.662-4.222 6.504-1.815 1.842-4.001 3.285-6.559 4.33-2.558 1.047-5.395 1.568-8.512 1.568-3.116 0-5.958-.521-8.524-1.568-2.567-1.045-4.763-2.488-6.587-4.33s-3.235-4.01-4.234-6.504c-1-2.492-1.499-5.188-1.499-8.085 0-2.896.499-5.591 1.499-8.085.999-2.493 2.41-4.656 4.234-6.489s4.02-3.272 6.587-4.318c2.566-1.045 5.408-1.567 8.524-1.567 3.117 0 5.954.527 8.512 1.582 2.558 1.054 4.743 2.498 6.559 4.331s3.222 3.997 4.222 6.489c.999 2.493 1.498 5.179 1.498 8.057zm-9.515 0c0-1.979-.257-3.763-.771-5.349-.513-1.585-1.251-2.929-2.213-4.028-.963-1.101-2.142-1.943-3.534-2.53-1.394-.587-2.979-.88-4.758-.88-1.797 0-3.396.293-4.799.88-1.402.587-2.585 1.43-3.547 2.53-.963 1.1-1.701 2.443-2.214 4.028-.514 1.586-.771 3.369-.771 5.349 0 1.999.257 3.791.771 5.377.513 1.586 1.251 2.929 2.214 4.028.962 1.1 2.145 1.938 3.547 2.517 1.403.577 3.002.866 4.799.866 1.778 0 3.364-.289 4.758-.866 1.393-.578 2.571-1.417 3.534-2.517.962-1.1 1.7-2.442 2.213-4.028.514-1.586.771-3.378.771-5.377z" fill="#fff"/><path d="m517.367 146.164c.22 0 .439.041.66.123.22.083.431.226.632.427l3.686 3.877c-1.613 2.109-3.635 3.699-6.063 4.771-2.43 1.072-5.304 1.609-8.622 1.609-3.043 0-5.771-.518-8.181-1.553-2.411-1.037-4.455-2.467-6.133-4.291s-2.966-3.988-3.863-6.49c-.898-2.503-1.348-5.221-1.348-8.154 0-2.987.513-5.733 1.54-8.236 1.026-2.502 2.461-4.661 4.304-6.476 1.842-1.815 4.047-3.227 6.613-4.235s5.399-1.513 8.498-1.513c1.503 0 2.919.134 4.248.399s2.571.632 3.727 1.1 2.218 1.027 3.19 1.678c.971.65 1.833 1.37 2.585 2.158l-3.136 4.208c-.201.257-.439.49-.715.701-.274.211-.66.316-1.154.316-.33 0-.643-.073-.936-.221-.293-.146-.604-.325-.935-.536-.33-.21-.692-.439-1.087-.688-.395-.247-.861-.477-1.402-.688-.541-.21-1.173-.389-1.897-.536-.725-.146-1.572-.22-2.544-.22-1.687 0-3.227.298-4.62.894s-2.589 1.448-3.588 2.558c-1 1.109-1.779 2.452-2.338 4.028-.56 1.577-.839 3.347-.839 5.308 0 2.054.279 3.878.839 5.473.559 1.595 1.32 2.938 2.282 4.029.963 1.091 2.086 1.92 3.369 2.488s2.658.853 4.125.853c.843 0 1.613-.041 2.31-.124.697-.082 1.343-.224 1.939-.426.595-.201 1.164-.463 1.705-.784.54-.32 1.086-.719 1.636-1.196.22-.183.458-.334.715-.453s.523-.178.798-.178z" fill="#fff"/><path d="m563.869 156.531h-7.205c-.807 0-1.471-.188-1.993-.564-.522-.375-.885-.857-1.087-1.443l-2.364-6.985h-15.235l-2.365 6.985c-.184.514-.541.977-1.072 1.389-.532.412-1.183.619-1.952.619h-7.261l15.511-40.068h9.515zm-25.74-15.318h10.945l-3.685-10.973c-.239-.696-.519-1.517-.839-2.461-.321-.944-.638-1.967-.949-3.066-.293 1.118-.596 2.154-.907 3.107s-.605 1.778-.88 2.475z" fill="#fff"/><path d="m576.409 141.708v14.823h-9.295v-40.068h13.035c2.896 0 5.367.298 7.411.894s3.713 1.426 5.005 2.489c1.293 1.063 2.232 2.319 2.819 3.767.586 1.449.88 3.025.88 4.73 0 1.302-.175 2.53-.522 3.685-.349 1.155-.866 2.224-1.554 3.204-.688.981-1.531 1.856-2.53 2.626-.999.771-2.149 1.403-3.451 1.897.623.312 1.205.697 1.746 1.155.541.459 1.013 1.018 1.416 1.678l8.525 13.943h-8.415c-1.559 0-2.677-.588-3.355-1.76l-6.654-11.633c-.294-.513-.638-.88-1.031-1.1-.395-.221-.949-.33-1.664-.33zm0-6.408h3.74c1.265 0 2.342-.16 3.231-.48.889-.321 1.617-.766 2.187-1.334.567-.568.98-1.232 1.237-1.994.256-.76.385-1.581.385-2.461 0-1.76-.573-3.135-1.719-4.125s-2.92-1.485-5.321-1.485h-3.74z" fill="#fff"/><path d="m631.134 116.463v7.37h-11.274v32.698h-9.295v-32.698h-11.275v-7.37z" fill="#fff"/><path d="m315.022 253.906c.234 0 .437.09.608.271l1.696 1.84c-.938 1.162-2.093 2.055-3.464 2.672-1.371.619-3.016.928-4.936.928-1.718 0-3.262-.293-4.632-.879-1.371-.588-2.542-1.402-3.512-2.449-.971-1.045-1.715-2.293-2.232-3.744-.518-1.449-.776-3.033-.776-4.752 0-1.738.288-3.33.864-4.775s1.387-2.689 2.432-3.736c1.045-1.045 2.296-1.857 3.752-2.439s3.064-.871 4.824-.871c1.717 0 3.219.273 4.504.822 1.285.551 2.386 1.279 3.304 2.186l-1.44 2c-.085.127-.195.24-.328.336s-.317.143-.552.143c-.246 0-.496-.096-.752-.287s-.582-.4-.976-.625c-.395-.223-.894-.432-1.496-.623s-1.368-.287-2.296-.287c-1.088 0-2.088.189-3 .566-.912.379-1.696.92-2.352 1.625-.656.703-1.168 1.561-1.536 2.568-.368 1.008-.552 2.141-.552 3.398 0 1.303.184 2.459.552 3.473s.867 1.867 1.496 2.561 1.371 1.225 2.224 1.592 1.771.553 2.752.553c.586 0 1.117-.033 1.592-.098.475-.062.912-.164 1.312-.303s.779-.318 1.136-.537.712-.488 1.064-.807c.106-.098.218-.174.336-.232.117-.06.245-.09.384-.09z" fill="#0055b8"/><path d="m320.349 259.361v-23.775h3.952v9.137c.64-.609 1.344-1.1 2.112-1.473s1.669-.561 2.704-.561c.896 0 1.69.152 2.384.457.693.303 1.272.73 1.736 1.279s.816 1.205 1.056 1.969c.24.762.36 1.602.36 2.52v10.447h-3.952v-10.447c0-1.002-.232-1.779-.696-2.328s-1.16-.824-2.088-.824c-.683 0-1.323.154-1.92.465-.597.309-1.163.73-1.696 1.264v11.871h-3.952z" fill="#0055b8"/><path d="m345.549 242.689c1.227 0 2.338.197 3.336.592.997.395 1.848.955 2.552 1.68.704.727 1.248 1.611 1.632 2.656.384 1.047.576 2.215.576 3.504 0 1.303-.192 2.475-.576 3.521-.384 1.045-.928 1.936-1.632 2.672s-1.555 1.301-2.552 1.695c-.998.395-2.109.592-3.336.592s-2.342-.197-3.344-.592-1.858-.959-2.568-1.695-1.259-1.627-1.648-2.672c-.39-1.047-.584-2.219-.584-3.521 0-1.289.194-2.457.584-3.504.389-1.045.938-1.93 1.648-2.656.709-.725 1.565-1.285 2.568-1.68s2.117-.592 3.344-.592zm0 13.873c1.365 0 2.376-.459 3.032-1.377.656-.916.984-2.262.984-4.031 0-1.771-.328-3.121-.984-4.049s-1.667-1.393-3.032-1.393c-1.387 0-2.411.467-3.072 1.4-.661.934-.992 2.281-.992 4.041s.331 3.102.992 4.023c.662.924 1.686 1.386 3.072 1.386z" fill="#0055b8"/><path d="m363.741 242.689c1.227 0 2.338.197 3.336.592.997.395 1.848.955 2.552 1.68.704.727 1.248 1.611 1.632 2.656.384 1.047.576 2.215.576 3.504 0 1.303-.192 2.475-.576 3.521-.384 1.045-.928 1.936-1.632 2.672s-1.555 1.301-2.552 1.695c-.998.395-2.109.592-3.336.592s-2.342-.197-3.344-.592-1.858-.959-2.568-1.695-1.259-1.627-1.648-2.672c-.39-1.047-.584-2.219-.584-3.521 0-1.289.194-2.457.584-3.504.389-1.045.938-1.93 1.648-2.656.709-.725 1.565-1.285 2.568-1.68s2.117-.592 3.344-.592zm0 13.873c1.365 0 2.376-.459 3.032-1.377.656-.916.984-2.262.984-4.031 0-1.771-.328-3.121-.984-4.049s-1.667-1.393-3.032-1.393c-1.387 0-2.411.467-3.072 1.4-.661.934-.992 2.281-.992 4.041s.331 3.102.992 4.023c.662.924 1.685 1.386 3.072 1.386z" fill="#0055b8"/><path d="m384.669 246.146c-.106.17-.219.291-.336.359-.118.07-.267.104-.448.104-.191 0-.397-.053-.615-.16-.219-.105-.473-.227-.761-.359s-.616-.254-.983-.359c-.368-.107-.803-.16-1.305-.16-.778 0-1.392.164-1.84.496-.447.33-.672.762-.672 1.295 0 .352.115.648.344.889.229.24.533.451.912.631.379.182.809.346 1.288.488.479.145.971.303 1.472.473.502.17.992.365 1.473.584.479.219.909.496 1.287.832.379.336.684.738.912 1.207.23.471.345 1.035.345 1.697 0 .789-.144 1.518-.433 2.184-.287.666-.709 1.242-1.264 1.729-.555.484-1.24.863-2.057 1.135-.815.273-1.752.408-2.807.408-.566 0-1.118-.051-1.656-.152-.539-.1-1.057-.242-1.552-.424-.496-.18-.955-.395-1.376-.639-.422-.246-.792-.512-1.112-.801l.912-1.504c.117-.182.256-.32.416-.416s.362-.145.608-.145c.245 0 .478.07.696.209s.472.287.76.447.627.311 1.016.449c.39.139.883.207 1.48.207.469 0 .872-.057 1.208-.168s.613-.258.832-.439c.218-.182.378-.393.479-.633s.152-.488.152-.744c0-.383-.115-.697-.344-.943s-.533-.459-.912-.641-.811-.344-1.296-.488c-.485-.143-.981-.301-1.488-.471-.507-.172-1.003-.371-1.487-.6-.486-.23-.918-.521-1.296-.873-.379-.352-.683-.783-.912-1.295-.229-.514-.344-1.131-.344-1.857 0-.672.133-1.311.4-1.92.267-.607.659-1.139 1.176-1.592s1.162-.816 1.936-1.088 1.667-.408 2.681-.408c1.13 0 2.159.188 3.088.561.928.373 1.701.863 2.319 1.473z" fill="#0055b8"/><path d="m395.693 242.689c1.034 0 1.986.166 2.855.496s1.618.814 2.248 1.449c.629.635 1.12 1.412 1.472 2.336.353.922.528 1.975.528 3.158 0 .299-.014.547-.04.744-.026.199-.075.354-.144.465-.07.111-.163.191-.28.24-.117.047-.267.072-.448.072h-10.144c.117 1.686.571 2.922 1.361 3.711.789.789 1.834 1.184 3.136 1.184.64 0 1.191-.074 1.655-.223.464-.15.869-.314 1.216-.496s.651-.348.912-.496c.262-.15.515-.225.761-.225.159 0 .298.033.416.096.117.064.218.156.304.273l1.152 1.439c-.438.512-.929.941-1.473 1.287-.544.348-1.111.625-1.704.832-.592.209-1.194.355-1.808.441-.613.084-1.208.127-1.784.127-1.142 0-2.203-.189-3.184-.568-.982-.377-1.835-.938-2.561-1.68-.725-.74-1.296-1.658-1.712-2.752s-.624-2.359-.624-3.799c0-1.121.182-2.174.544-3.16s.883-1.846 1.56-2.576c.678-.73 1.505-1.311 2.48-1.736.978-.426 2.08-.639 3.306-.639zm.08 2.832c-1.152 0-2.055.326-2.705.977s-1.066 1.574-1.248 2.768h7.425c0-.512-.069-.994-.208-1.447s-.353-.852-.641-1.193c-.288-.34-.65-.609-1.088-.807s-.949-.298-1.535-.298z" fill="#0055b8"/><path d="m422.7 250.369v8.992h-4.304v-8.992l-8.433-14.143h3.792c.374 0 .67.09.889.271.218.182.402.41.552.688l4.24 7.729c.245.459.458.893.64 1.305.182.41.347.812.496 1.207.139-.404.296-.812.472-1.225.176-.41.387-.84.632-1.287l4.208-7.729c.117-.234.294-.453.528-.656.234-.201.533-.303.896-.303h3.808z" fill="#0055b8"/><path d="m437.58 242.689c1.227 0 2.339.197 3.336.592s1.848.955 2.552 1.68c.704.727 1.248 1.611 1.632 2.656.385 1.047.576 2.215.576 3.504 0 1.303-.191 2.475-.576 3.521-.384 1.045-.928 1.936-1.632 2.672s-1.555 1.301-2.552 1.695-2.109.592-3.336.592-2.342-.197-3.344-.592c-1.003-.395-1.859-.959-2.568-1.695-.71-.736-1.259-1.627-1.648-2.672-.389-1.047-.584-2.219-.584-3.521 0-1.289.195-2.457.584-3.504.39-1.045.938-1.93 1.648-2.656.709-.725 1.565-1.285 2.568-1.68 1.002-.394 2.118-.592 3.344-.592zm0 13.873c1.365 0 2.376-.459 3.032-1.377.655-.916.983-2.262.983-4.031 0-1.771-.328-3.121-.983-4.049-.656-.928-1.667-1.393-3.032-1.393-1.387 0-2.411.467-3.072 1.4s-.992 2.281-.992 4.041.331 3.102.992 4.023 1.685 1.386 3.072 1.386z" fill="#0055b8"/><path d="m452.379 242.945v10.432c0 1.004.232 1.779.696 2.328.464.551 1.16.824 2.088.824.683 0 1.323-.152 1.92-.455.598-.305 1.163-.723 1.696-1.256v-11.873h3.952v16.416h-2.416c-.512 0-.848-.24-1.008-.719l-.272-1.312c-.341.342-.693.652-1.056.936-.363.283-.75.523-1.16.721-.411.197-.854.352-1.328.463-.475.113-.983.168-1.528.168-.896 0-1.688-.152-2.376-.455-.688-.305-1.267-.734-1.735-1.289-.47-.555-.824-1.213-1.064-1.975-.239-.764-.359-1.604-.359-2.521v-10.432h3.95z" fill="#0055b8"/><path d="m466.955 259.361v-16.416h2.319c.405 0 .688.076.849.225s.267.406.319.768l.24 1.984c.587-1.014 1.274-1.812 2.064-2.4.789-.586 1.674-.879 2.655-.879.811 0 1.483.186 2.017.559l-.512 2.961c-.032.191-.102.328-.208.408-.107.08-.251.119-.433.119-.16 0-.379-.037-.656-.111s-.646-.113-1.104-.113c-.821 0-1.525.229-2.112.682s-1.082 1.117-1.487 1.992v10.223h-3.951z" fill="#0055b8"/><path d="m490.875 251.219v8.143h-4.304v-23.135h7.535c1.547 0 2.886.182 4.017.543 1.13.363 2.063.869 2.8 1.52.736.652 1.28 1.43 1.632 2.336.353.908.528 1.9.528 2.977 0 1.121-.187 2.146-.561 3.08-.373.934-.934 1.736-1.68 2.408-.747.672-1.68 1.195-2.8 1.568s-2.433.561-3.937.561h-3.23zm0-3.362h3.231c.79 0 1.478-.098 2.064-.295s1.072-.48 1.456-.85c.384-.367.672-.814.864-1.344.191-.527.288-1.117.288-1.768 0-.619-.097-1.178-.288-1.68-.192-.502-.48-.928-.864-1.279-.384-.354-.87-.621-1.456-.809-.587-.188-1.274-.279-2.064-.279h-3.231z" fill="#0055b8"/><path d="m518.267 259.361h-1.775c-.374 0-.667-.055-.88-.168-.214-.111-.374-.338-.48-.68l-.352-1.168c-.416.373-.824.701-1.225.984-.399.283-.813.52-1.239.711-.427.193-.881.336-1.36.434-.48.096-1.014.143-1.6.143-.694 0-1.334-.094-1.921-.279-.586-.188-1.09-.469-1.512-.844-.421-.375-.749-.84-.983-1.396-.235-.557-.353-1.203-.353-1.943 0-.619.163-1.232.488-1.838.325-.604.866-1.15 1.624-1.637.757-.486 1.765-.891 3.023-1.213 1.259-.32 2.821-.48 4.688-.48v-.967c0-1.107-.232-1.928-.696-2.459-.464-.533-1.139-.799-2.023-.799-.641 0-1.174.074-1.601.225-.427.148-.797.316-1.111.504-.315.186-.606.354-.872.504-.268.148-.561.225-.881.225-.267 0-.495-.07-.688-.209s-.347-.309-.464-.512l-.72-1.264c1.888-1.729 4.165-2.592 6.832-2.592.96 0 1.815.156 2.567.471s1.39.752 1.912 1.312.92 1.23 1.192 2.008c.271.779.407 1.633.407 2.561v10.366zm-7.68-2.463c.405 0 .778-.037 1.12-.111.341-.072.664-.184.968-.33.305-.146.598-.328.88-.543.283-.215.568-.471.856-.764v-2.748c-1.152 0-2.115.072-2.888.217s-1.396.33-1.864.557c-.47.225-.803.488-1 .789s-.296.629-.296.982c0 .699.205 1.199.616 1.5s.947.451 1.608.451z" fill="#0055b8"/><path d="m533.691 246.418c-.118.148-.232.266-.345.352-.111.086-.274.129-.487.129-.203 0-.4-.062-.593-.186-.191-.121-.421-.26-.688-.416-.267-.154-.584-.293-.952-.416-.368-.121-.824-.184-1.368-.184-.693 0-1.302.127-1.824.377s-.957.609-1.304 1.08c-.347.469-.605 1.037-.776 1.703-.17.668-.256 1.422-.256 2.264 0 .875.094 1.654.28 2.336.187.684.456 1.256.808 1.721.353.465.779.816 1.28 1.057s1.066.359 1.696.359c.629 0 1.139-.078 1.528-.232s.717-.324.983-.512c.267-.186.499-.357.696-.512s.418-.232.664-.232c.319 0 .56.123.72.369l1.136 1.439c-.438.512-.912.941-1.424 1.287-.512.348-1.043.625-1.592.832-.55.209-1.117.355-1.704.441-.587.084-1.168.127-1.744.127-1.014 0-1.968-.189-2.864-.568-.896-.377-1.677-.93-2.344-1.656-.667-.725-1.194-1.613-1.584-2.664-.39-1.049-.584-2.248-.584-3.592 0-1.205.174-2.322.521-3.352.346-1.029.855-1.92 1.527-2.672s1.504-1.342 2.496-1.768c.992-.428 2.134-.641 3.424-.641 1.227 0 2.302.197 3.225.592.922.395 1.752.961 2.488 1.697z" fill="#0055b8"/><path d="m541.419 235.586v13.615h.735c.267 0 .475-.037.624-.111s.31-.213.48-.416l4.08-5.039c.181-.215.373-.383.576-.506.202-.121.469-.184.8-.184h3.616l-5.104 6.096c-.182.225-.368.43-.56.617-.192.186-.4.35-.624.488.224.16.421.346.592.559.17.215.341.443.512.689l5.472 7.967h-3.567c-.31 0-.571-.053-.784-.16-.214-.105-.405-.287-.576-.543l-4.176-6.225c-.16-.244-.32-.404-.48-.48-.159-.074-.399-.111-.72-.111h-.896v7.52h-3.952v-23.775h3.952z" fill="#0055b8"/><path d="m567.931 259.361h-1.775c-.374 0-.667-.055-.88-.168-.214-.111-.374-.338-.48-.68l-.352-1.168c-.416.373-.824.701-1.225.984-.399.283-.813.52-1.239.711-.427.193-.881.336-1.36.434-.48.096-1.014.143-1.6.143-.694 0-1.334-.094-1.921-.279-.586-.188-1.09-.469-1.512-.844-.421-.375-.749-.84-.983-1.396-.235-.557-.353-1.203-.353-1.943 0-.619.163-1.232.488-1.838.325-.604.866-1.15 1.624-1.637.757-.486 1.765-.891 3.023-1.213 1.259-.32 2.821-.48 4.688-.48v-.967c0-1.107-.232-1.928-.696-2.459-.464-.533-1.139-.799-2.023-.799-.641 0-1.174.074-1.601.225-.427.148-.797.316-1.111.504-.315.186-.606.354-.872.504-.268.148-.561.225-.881.225-.267 0-.495-.07-.688-.209s-.347-.309-.464-.512l-.72-1.264c1.888-1.729 4.165-2.592 6.832-2.592.96 0 1.815.156 2.567.471s1.39.752 1.912 1.312.92 1.23 1.192 2.008c.271.779.407 1.633.407 2.561v10.366zm-7.68-2.463c.405 0 .778-.037 1.12-.111.341-.072.664-.184.968-.33.305-.146.598-.328.88-.543.283-.215.568-.471.856-.764v-2.748c-1.152 0-2.115.072-2.888.217s-1.396.33-1.864.557c-.47.225-.803.488-1 .789s-.296.629-.296.982c0 .699.205 1.199.616 1.5s.947.451 1.608.451z" fill="#0055b8"/><path d="m577.499 242.658c.704 0 1.365.072 1.984.215.618.145 1.184.355 1.695.633h4.721v1.473c0 .244-.064.438-.192.576s-.347.234-.656.287l-1.472.271c.106.277.189.57.248.881.059.309.088.635.088.977 0 .811-.163 1.543-.488 2.199s-.773 1.213-1.344 1.672-1.248.814-2.032 1.064-1.635.375-2.552.375c-.619 0-1.222-.059-1.808-.176-.513.312-.769.662-.769 1.047 0 .334.152.578.456.734s.704.266 1.2.33 1.059.098 1.688.098c.63 0 1.275.025 1.937.08.661.053 1.307.146 1.936.281.63.133 1.192.344 1.688.633s.896.684 1.2 1.18c.304.498.456 1.139.456 1.918 0 .729-.179 1.436-.536 2.119-.357.686-.875 1.295-1.552 1.83-.678.535-1.507.967-2.488 1.293s-2.102.49-3.36.49c-1.248 0-2.331-.121-3.248-.361s-1.678-.559-2.28-.959-1.053-.861-1.352-1.385-.448-1.066-.448-1.631c0-.77.234-1.414.704-1.938.47-.521 1.12-.938 1.952-1.248-.405-.223-.73-.521-.976-.895-.246-.375-.368-.859-.368-1.457 0-.244.042-.498.128-.76.085-.262.216-.52.392-.775s.397-.5.664-.729.581-.436.944-.615c-.832-.449-1.485-1.047-1.96-1.793s-.712-1.621-.712-2.623c0-.811.162-1.545.487-2.201s.779-1.215 1.36-1.68 1.27-.818 2.064-1.064c.795-.243 1.663-.366 2.601-.366zm4.336 17.393c0-.326-.096-.594-.288-.801-.191-.207-.453-.367-.784-.48-.33-.115-.717-.199-1.159-.254-.443-.055-.912-.082-1.408-.082s-1.008 0-1.536 0-1.038-.059-1.528-.176c-.448.246-.808.535-1.08.871-.271.336-.408.723-.408 1.16 0 .289.072.559.217.809.144.25.373.467.688.648s.723.322 1.225.424c.501.102 1.114.152 1.84.152.735 0 1.37-.059 1.903-.172.533-.115.974-.271 1.32-.475.347-.201.6-.441.76-.719s.238-.579.238-.905zm-4.336-9.297c.49 0 .917-.066 1.28-.199.362-.135.664-.318.903-.553.24-.234.422-.518.544-.848.123-.33.185-.693.185-1.088 0-.811-.243-1.453-.729-1.928s-1.213-.713-2.184-.713-1.699.238-2.184.713c-.486.475-.729 1.117-.729 1.928 0 .383.062.74.185 1.072.122.33.304.615.544.855.239.24.544.426.911.561.37.134.794.2 1.274.2z" fill="#0055b8"/><path d="m595.163 242.689c1.034 0 1.986.166 2.855.496s1.618.814 2.248 1.449c.629.635 1.12 1.412 1.472 2.336.353.922.528 1.975.528 3.158 0 .299-.014.547-.04.744-.026.199-.075.354-.144.465-.07.111-.163.191-.28.24-.117.047-.267.072-.448.072h-10.144c.117 1.686.57 2.922 1.359 3.711s1.835 1.184 3.137 1.184c.64 0 1.191-.074 1.655-.223.464-.15.869-.314 1.216-.496s.651-.348.912-.496c.262-.15.515-.225.761-.225.159 0 .298.033.416.096.117.064.218.156.304.273l1.152 1.439c-.438.512-.929.941-1.473 1.287-.544.348-1.111.625-1.704.832-.592.209-1.194.355-1.808.441-.613.084-1.208.127-1.784.127-1.142 0-2.203-.189-3.184-.568-.981-.377-1.835-.938-2.561-1.68-.726-.74-1.296-1.658-1.712-2.752s-.624-2.359-.624-3.799c0-1.121.182-2.174.544-3.16s.883-1.846 1.561-2.576c.677-.73 1.504-1.311 2.479-1.736.979-.426 2.08-.639 3.307-.639zm.079 2.832c-1.151 0-2.053.326-2.703.977-.651.65-1.067 1.574-1.248 2.768h7.424c0-.512-.069-.994-.208-1.447s-.353-.852-.641-1.193c-.288-.34-.65-.609-1.088-.807s-.949-.298-1.536-.298z" fill="#0055b8"/><path d="m297.983 266.59h305.345v3h-305.345z" fill="#0055b8"/><circle cx="141.65" cy="135.945" fill="#fff" r="106.547"/><path d="m141.65 25.903c-60.775 0-110.042 49.268-110.042 110.042 0 60.773 49.267 110.043 110.042 110.043s110.042-49.27 110.042-110.043c0-60.774-49.267-110.042-110.042-110.042zm72.152 182.195c-19.271 19.273-44.896 29.887-72.152 29.887-27.255 0-52.879-10.613-72.152-29.887s-29.887-44.895-29.887-72.152c0-27.256 10.614-52.88 29.887-72.152s44.897-29.886 72.152-29.886c27.256 0 52.88 10.613 72.152 29.886 19.273 19.272 29.887 44.896 29.887 72.152 0 27.257-10.614 52.878-29.887 72.152z" fill="#0055b8"/><path d="m141.65 42.577c-51.565 0-93.368 41.802-93.368 93.368 0 51.568 41.802 93.369 93.368 93.369 51.567 0 93.37-41.801 93.37-93.369 0-51.566-41.803-93.368-93.37-93.368zm62.722 156.089c-16.753 16.754-39.028 25.979-62.721 25.979s-45.968-9.225-62.721-25.979-25.98-39.027-25.98-62.721c0-23.692 9.226-45.967 25.979-62.721 16.753-16.753 39.028-25.979 62.721-25.979s45.968 9.227 62.721 25.979c16.753 16.754 25.981 39.028 25.981 62.721.001 23.694-9.227 45.967-25.98 62.721z" fill="#0055b8"/><path d="m141.65 50.357c-47.268 0-85.589 38.318-85.589 85.588s38.321 85.588 85.589 85.588c47.27 0 85.589-38.318 85.589-85.588s-38.319-85.588-85.589-85.588zm57.22 142.807c-15.283 15.285-35.604 23.703-57.219 23.703-21.614 0-41.937-8.418-57.219-23.703-15.283-15.283-23.701-35.605-23.701-57.219s8.418-41.936 23.701-57.219 35.605-23.701 57.219-23.701c21.616 0 41.937 8.418 57.219 23.701 15.285 15.283 23.701 35.605 23.701 57.219s-8.417 41.936-23.701 57.219z" fill="#0055b8"/><path d="m140.77 68.73-2.488 7.387-7.574.159 6.037 4.724-2.194 7.483 6.219-4.465 6.22 4.465-2.194-7.483 6.037-4.724-7.573-.159z" fill="#0055b8"/><path d="m119.985 70.446-1.918 5.693-5.839.123 4.654 3.64-1.69 5.769 4.793-3.442 4.793 3.442-1.692-5.769 4.654-3.64-5.839-.123z" fill="#0055b8"/><path d="m161.556 70.446-1.918 5.693-5.837.123 4.652 3.64-1.691 5.769 4.794-3.442 4.793 3.442-1.69-5.769 4.653-3.64-5.837-.123z" fill="#0055b8"/><path d="m143.26 189.492-2.49-7.385-2.488 7.385-7.574.16 6.037 4.725-2.194 7.484 6.219-4.468 6.22 4.468-2.194-7.484 6.037-4.725z" fill="#0055b8"/><path d="m121.901 189.516-1.916-5.694-1.918 5.694-5.839.123 4.654 3.64-1.69 5.77 4.793-3.444 4.793 3.444-1.692-5.77 4.654-3.64z" fill="#0055b8"/><path d="m163.475 189.516-1.919-5.694-1.918 5.694-5.837.123 4.652 3.64-1.691 5.77 4.794-3.444 4.793 3.444-1.69-5.77 4.653-3.64z" fill="#0055b8"/><path d="m93.368 160.572c0-1.33-.552-3.008-1.89-3.008-1.614 0-2.26 1.805-2.26 6.266 0 4.311.368 7.02 2.283 7.02.783 0 2.052-.93 2.052-2.859v-1.83h-2.19v-2.656h5.373v9.65h-2.444v-1.655h-.046c-.785 1.404-1.915 2.004-3.459 2.004-4.081 0-4.889-3.307-4.889-9.498 0-6.018 1.292-9.1 5.535-9.1 3.643 0 5.12 2.031 5.12 5.666z" fill="#0055b8"/><path d="m101.993 155.258v12.482c0 1.779.391 3.109 1.938 3.109 1.543 0 1.936-1.33 1.936-3.109v-12.482h3.321v12.482c0 4.561-2.561 5.764-5.257 5.764-2.7 0-5.259-.977-5.259-5.764v-12.482z" fill="#0055b8"/><path d="m114.49 155.258h4.104l4.358 17.896h-3.458l-.762-3.785h-4.381l-.76 3.785h-3.459zm.438 11.154h3.229l-1.591-8.047h-.044z" fill="#0055b8"/><path d="m124.105 155.258h6.133c2.721 0 4.381 1.555 4.381 4.611 0 2.381-.875 3.984-2.744 4.41v.053c2.262.324 2.607 1.678 2.653 5.463.023 1.881.116 2.857.737 3.209v.15h-3.597c-.322-.502-.392-1.178-.415-1.879l-.093-3.438c-.046-1.4-.623-2.252-1.959-2.252h-1.776v7.568h-3.321v-17.895zm3.322 7.818h1.383c1.591 0 2.49-.75 2.49-2.68 0-1.654-.806-2.482-2.305-2.482h-1.568z" fill="#0055b8"/><path d="m140.132 155.258h4.104l4.358 17.896h-3.46l-.76-3.785h-4.382l-.762 3.785h-3.458zm.438 11.154h3.229l-1.591-8.047h-.046z" fill="#0055b8"/><path d="m153.574 155.258 4.013 12.258h.046v-12.258h3.043v17.896h-3.782l-4.058-12.533h-.046v12.533h-3.045v-17.896z" fill="#0055b8"/><path d="m172.621 155.258v2.957h-3.597v14.939h-3.321v-14.939h-3.597v-2.957z" fill="#0055b8"/><path d="m183.251 155.258v2.957h-5.88v4.211h5.535v2.957h-5.535v4.814h6.111v2.957h-9.431v-17.896z" fill="#0055b8"/><path d="m194.343 155.258v2.957h-5.88v4.211h5.535v2.957h-5.535v4.814h6.111v2.957h-9.431v-17.896z" fill="#0055b8"/><path d="m200.081 155.529-1.452 1.855.015.043 2.137-.467v1.477l-2.151-.41-.013.045 1.465 1.797-1.196.76-.765-2.266-.028.016-.78 2.25-1.155-.76 1.438-1.828v-.027l-2.112.424v-1.477l2.085.453.013-.029-1.424-1.842 1.194-.746.753 2.236h.026l.767-2.236z" fill="#0055b8"/><path d="m206.186 155.529-1.454 1.855.015.043 2.136-.467v1.477l-2.151-.41-.013.045 1.467 1.797-1.198.76-.767-2.266-.026.016-.78 2.25-1.157-.76 1.439-1.828v-.027l-2.11.424v-1.477l2.083.453.013-.029-1.426-1.842 1.196-.746.753 2.236h.026l.767-2.236z" fill="#0055b8"/><path d="m87.595 132.809h4.41l2.102 11.285h.042l2.121-11.285h4.388v15.988h-2.718v-12.764h-.043l-2.615 12.764h-2.308l-2.617-12.764h-.04v12.764h-2.721v-15.988z" fill="#0055b8"/><path d="m107.478 132.494c4.451 0 5.008 3.449 5.008 8.309s-.557 8.307-5.008 8.307c-4.449 0-5.006-3.447-5.006-8.307s.556-8.309 5.006-8.309zm0 14.242c1.751 0 2.041-1.635 2.041-5.934 0-4.277-.289-5.934-2.041-5.934-1.75 0-2.039 1.656-2.039 5.934 0 4.3.289 5.934 2.039 5.934z" fill="#0055b8"/><path d="m117.657 132.809 3.585 10.951h.04v-10.951h2.721v15.988h-3.378l-3.626-11.196h-.042v11.196h-2.72v-15.988z" fill="#0055b8"/><path d="m134.285 132.809v2.642h-5.254v3.763h4.945v2.643h-4.945v4.299h5.46v2.643h-8.428v-15.988h8.222z" fill="#0055b8"/><path d="m138.343 132.809 1.937 6.18h.043l2.059-6.18h3.215l-3.812 9.695v6.293h-2.967v-6.293l-3.812-9.695z" fill="#0055b8"/><path d="m150.85 141.004v2.643h-5.81v-2.643z" fill="#0055b8"/><path d="m152.786 132.809h4.965c2.432 0 4.184.985 4.184 4.053 0 1.725-.763 3.045-2.226 3.493v.045c1.627.247 2.678 1.591 2.678 3.718 0 2.508-1.133 4.68-4.595 4.68h-5.006zm2.967 6.56h.844c1.628 0 2.371-.604 2.371-2.104 0-1.523-.681-2.083-2.145-2.083h-1.071v4.187zm0 7.055h1.153c1.423 0 2.391-.561 2.391-2.418 0-1.859-.968-2.396-2.267-2.396h-1.277z" fill="#0055b8"/><path d="m167.106 132.809h3.668l3.893 15.988h-3.09l-.679-3.381h-3.914l-.681 3.381h-3.091zm.392 9.964h2.885l-1.421-7.188h-.043z" fill="#0055b8"/><path d="m181.982 138.205c0-2.328-.433-3.336-1.771-3.336-1.505 0-1.855 1.635-1.855 6.156 0 4.838.62 5.711 1.896 5.711 1.071 0 1.854-.604 1.854-4.053h2.966c0 3.449-.782 6.426-4.676 6.426-4.451 0-5.006-3.447-5.006-8.307s.555-8.309 5.006-8.309c4.243 0 4.553 3.383 4.553 5.711h-2.967z" fill="#0055b8"/><path d="m189.729 132.809v6.404h.042l3.749-6.404h3.215l-3.997 6.852 4.449 9.137h-3.337l-3.028-6.561-1.092 1.812v4.748h-2.966v-15.988z" fill="#0055b8"/><path d="m98.566 103.344c0-2.354-.646-3.75-2.469-3.75-2.886 0-3.342 3.314-3.342 7.85v1.525h.076c.91-1.613 2.696-2.659 5.051-2.659 4.786 0 6.571 4.099 6.571 9.638 0 7.063-2.696 11.031-8.697 11.031-7.519 0-8.469-6.89-8.469-14.434 0-8.721.152-17.049 9.038-17.049 3.876 0 7.407 1.874 7.484 7.848zm-2.545 19.536c2.658 0 2.962-2.616 2.962-6.105 0-4.187-.834-5.843-2.962-5.843-2.165 0-3 1.656-3 5.843.038 3.532.456 6.105 3 6.105z" fill="#0055b8"/><path d="m114.098 95.496c6.495 0 8.431 4.055 8.431 14.999 0 8.591-.418 16.483-8.431 16.483-6.495 0-8.431-4.056-8.431-15 0-8.546.418-16.482 8.431-16.482zm-2.962 17.834c0 7.762.608 9.55 2.962 9.55 2.394 0 2.962-2.442 2.962-10.379v-3.357c0-7.761-.608-9.55-2.962-9.55-2.393 0-2.962 2.442-2.962 10.379z" fill="#0055b8"/><path d="m135.593 111.193v5.146h-10.709v-5.146z" fill="#0055b8"/><path d="m139.428 95.234h8.963c7.595 0 8.963 5.974 8.963 15.131 0 11.032-2.05 16.003-9.305 16.003h-8.621zm5.469 26.512h2.432c3.797 0 4.557-2.748 4.557-11.206 0-7.065-.494-10.685-4.672-10.685h-2.316v21.891z" fill="#0055b8"/><path d="m164.948 95.234h6.761l7.179 31.134h-5.697l-1.254-6.585h-7.215l-1.254 6.585h-5.697zm.724 19.405h5.317l-2.622-13.997h-.076z" fill="#0055b8"/><path d="m183.064 95.234 3.571 12.034h.076l3.798-12.034h5.923l-7.025 18.881v12.253h-5.47v-12.253l-7.025-18.881z" fill="#0055b8"/><g fill="#fff"><path d="m315.022 601.889c.234 0 .437.09.608.271l1.696 1.84c-.938 1.162-2.093 2.055-3.464 2.672-1.371.619-3.016.928-4.936.928-1.718 0-3.262-.293-4.632-.879-1.371-.588-2.542-1.402-3.512-2.449-.971-1.045-1.715-2.293-2.232-3.744-.518-1.449-.776-3.033-.776-4.752 0-1.738.288-3.33.864-4.775s1.387-2.689 2.432-3.736c1.045-1.045 2.296-1.857 3.752-2.439s3.064-.871 4.824-.871c1.717 0 3.219.273 4.504.822 1.285.551 2.386 1.279 3.304 2.186l-1.44 2c-.085.127-.195.24-.328.336s-.317.143-.552.143c-.246 0-.496-.096-.752-.287s-.582-.4-.976-.625c-.395-.223-.894-.432-1.496-.623s-1.368-.287-2.296-.287c-1.088 0-2.088.189-3 .566-.912.379-1.696.92-2.352 1.625-.656.703-1.168 1.561-1.536 2.568-.368 1.008-.552 2.141-.552 3.398 0 1.303.184 2.459.552 3.473s.867 1.867 1.496 2.561 1.371 1.225 2.224 1.592 1.771.553 2.752.553c.586 0 1.117-.033 1.592-.098.475-.062.912-.164 1.312-.303s.779-.318 1.136-.537.712-.488 1.064-.807c.106-.098.218-.174.336-.232.117-.061.245-.09.384-.09z"/><path d="m320.349 607.344v-23.775h3.952v9.137c.64-.609 1.344-1.1 2.112-1.473s1.669-.561 2.704-.561c.896 0 1.69.152 2.384.457.693.303 1.272.73 1.736 1.279s.816 1.205 1.056 1.969c.24.762.36 1.602.36 2.52v10.447h-3.952v-10.447c0-1.002-.232-1.779-.696-2.328s-1.16-.824-2.088-.824c-.683 0-1.323.154-1.92.465-.597.309-1.163.73-1.696 1.264v11.871h-3.952z"/><path d="m345.549 590.672c1.227 0 2.338.197 3.336.592.997.395 1.848.955 2.552 1.68.704.727 1.248 1.611 1.632 2.656.384 1.047.576 2.215.576 3.504 0 1.303-.192 2.475-.576 3.521-.384 1.045-.928 1.936-1.632 2.672s-1.555 1.301-2.552 1.695c-.998.395-2.109.592-3.336.592s-2.342-.197-3.344-.592-1.858-.959-2.568-1.695-1.259-1.627-1.648-2.672c-.39-1.047-.584-2.219-.584-3.521 0-1.289.194-2.457.584-3.504.389-1.045.938-1.93 1.648-2.656.709-.725 1.565-1.285 2.568-1.68s2.117-.592 3.344-.592zm0 13.873c1.365 0 2.376-.459 3.032-1.377.656-.916.984-2.262.984-4.031 0-1.771-.328-3.121-.984-4.049s-1.667-1.393-3.032-1.393c-1.387 0-2.411.467-3.072 1.4-.661.934-.992 2.281-.992 4.041s.331 3.102.992 4.023c.662.923 1.686 1.386 3.072 1.386z"/><path d="m363.741 590.672c1.227 0 2.338.197 3.336.592.997.395 1.848.955 2.552 1.68.704.727 1.248 1.611 1.632 2.656.384 1.047.576 2.215.576 3.504 0 1.303-.192 2.475-.576 3.521-.384 1.045-.928 1.936-1.632 2.672s-1.555 1.301-2.552 1.695c-.998.395-2.109.592-3.336.592s-2.342-.197-3.344-.592-1.858-.959-2.568-1.695-1.259-1.627-1.648-2.672c-.39-1.047-.584-2.219-.584-3.521 0-1.289.194-2.457.584-3.504.389-1.045.938-1.93 1.648-2.656.709-.725 1.565-1.285 2.568-1.68s2.117-.592 3.344-.592zm0 13.873c1.365 0 2.376-.459 3.032-1.377.656-.916.984-2.262.984-4.031 0-1.771-.328-3.121-.984-4.049s-1.667-1.393-3.032-1.393c-1.387 0-2.411.467-3.072 1.4-.661.934-.992 2.281-.992 4.041s.331 3.102.992 4.023c.662.923 1.685 1.386 3.072 1.386z"/><path d="m384.669 594.129c-.106.17-.219.291-.336.359-.118.07-.267.104-.448.104-.191 0-.397-.053-.615-.16-.219-.105-.473-.227-.761-.359s-.616-.254-.983-.359c-.368-.107-.803-.16-1.305-.16-.778 0-1.392.164-1.84.496-.447.33-.672.762-.672 1.295 0 .352.115.648.344.889.229.24.533.451.912.631.379.182.809.346 1.288.488.479.145.971.303 1.472.473.502.17.992.365 1.473.584.479.219.909.496 1.287.832.379.336.684.738.912 1.207.23.471.345 1.035.345 1.697 0 .789-.144 1.518-.433 2.184-.287.666-.709 1.242-1.264 1.729-.555.484-1.24.863-2.057 1.135-.815.273-1.752.408-2.807.408-.566 0-1.118-.051-1.656-.152-.539-.1-1.057-.242-1.552-.424-.496-.18-.955-.395-1.376-.639-.422-.246-.792-.512-1.112-.801l.912-1.504c.117-.182.256-.32.416-.416s.362-.145.608-.145c.245 0 .478.07.696.209s.472.287.76.447.627.311 1.016.449c.39.139.883.207 1.48.207.469 0 .872-.057 1.208-.168s.613-.258.832-.439c.218-.182.378-.393.479-.633s.152-.488.152-.744c0-.383-.115-.697-.344-.943s-.533-.459-.912-.641-.811-.344-1.296-.488c-.485-.143-.981-.301-1.488-.471-.507-.172-1.003-.371-1.487-.6-.486-.23-.918-.521-1.296-.873-.379-.352-.683-.783-.912-1.295-.229-.514-.344-1.131-.344-1.857 0-.672.133-1.311.4-1.92.267-.607.659-1.139 1.176-1.592s1.162-.816 1.936-1.088 1.667-.408 2.681-.408c1.13 0 2.159.188 3.088.561.928.373 1.701.863 2.319 1.473z"/><path d="m395.693 590.672c1.034 0 1.986.166 2.855.496s1.618.814 2.248 1.449c.629.635 1.12 1.412 1.472 2.336.353.922.528 1.975.528 3.158 0 .299-.014.547-.04.744-.026.199-.075.354-.144.465-.07.111-.163.191-.28.24-.117.047-.267.072-.448.072h-10.144c.117 1.686.571 2.922 1.361 3.711.789.789 1.834 1.184 3.136 1.184.64 0 1.191-.074 1.655-.223.464-.15.869-.314 1.216-.496s.651-.348.912-.496c.262-.15.515-.225.761-.225.159 0 .298.033.416.096.117.064.218.156.304.273l1.152 1.439c-.438.512-.929.941-1.473 1.287-.544.348-1.111.625-1.704.832-.592.209-1.194.355-1.808.441-.613.084-1.208.127-1.784.127-1.142 0-2.203-.189-3.184-.568-.982-.377-1.835-.938-2.561-1.68-.725-.74-1.296-1.658-1.712-2.752s-.624-2.359-.624-3.799c0-1.121.182-2.174.544-3.16s.883-1.846 1.56-2.576c.678-.73 1.505-1.311 2.48-1.736.978-.426 2.08-.639 3.306-.639zm.08 2.832c-1.152 0-2.055.326-2.705.977s-1.066 1.574-1.248 2.768h7.425c0-.512-.069-.994-.208-1.447s-.353-.852-.641-1.193c-.288-.34-.65-.609-1.088-.807s-.949-.298-1.535-.298z"/><path d="m422.7 598.352v8.992h-4.304v-8.992l-8.433-14.143h3.792c.374 0 .67.09.889.271.218.182.402.41.552.688l4.24 7.729c.245.459.458.893.64 1.305.182.41.347.812.496 1.207.139-.404.296-.812.472-1.225.176-.41.387-.84.632-1.287l4.208-7.729c.117-.234.294-.453.528-.656.234-.201.533-.303.896-.303h3.808z"/><path d="m437.58 590.672c1.227 0 2.339.197 3.336.592s1.848.955 2.552 1.68c.704.727 1.248 1.611 1.632 2.656.385 1.047.576 2.215.576 3.504 0 1.303-.191 2.475-.576 3.521-.384 1.045-.928 1.936-1.632 2.672s-1.555 1.301-2.552 1.695-2.109.592-3.336.592-2.342-.197-3.344-.592c-1.003-.395-1.859-.959-2.568-1.695-.71-.736-1.259-1.627-1.648-2.672-.389-1.047-.584-2.219-.584-3.521 0-1.289.195-2.457.584-3.504.39-1.045.938-1.93 1.648-2.656.709-.725 1.565-1.285 2.568-1.68 1.002-.395 2.118-.592 3.344-.592zm0 13.873c1.365 0 2.376-.459 3.032-1.377.655-.916.983-2.262.983-4.031 0-1.771-.328-3.121-.983-4.049-.656-.928-1.667-1.393-3.032-1.393-1.387 0-2.411.467-3.072 1.4s-.992 2.281-.992 4.041.331 3.102.992 4.023 1.685 1.386 3.072 1.386z"/><path d="m452.379 590.928v10.432c0 1.004.232 1.779.696 2.328.464.551 1.16.824 2.088.824.683 0 1.323-.152 1.92-.455.598-.305 1.163-.723 1.696-1.256v-11.873h3.952v16.416h-2.416c-.512 0-.848-.24-1.008-.719l-.272-1.312c-.341.342-.693.652-1.056.936-.363.283-.75.523-1.16.721-.411.197-.854.352-1.328.463-.475.113-.983.168-1.528.168-.896 0-1.688-.152-2.376-.455-.688-.305-1.267-.734-1.735-1.289-.47-.555-.824-1.213-1.064-1.975-.239-.764-.359-1.604-.359-2.521v-10.432h3.95z"/><path d="m466.955 607.344v-16.416h2.319c.405 0 .688.076.849.225s.267.406.319.768l.24 1.984c.587-1.014 1.274-1.812 2.064-2.4.789-.586 1.674-.879 2.655-.879.811 0 1.483.186 2.017.559l-.512 2.961c-.032.191-.102.328-.208.408-.107.08-.251.119-.433.119-.16 0-.379-.037-.656-.111s-.646-.113-1.104-.113c-.821 0-1.525.229-2.112.682s-1.082 1.117-1.487 1.992v10.223h-3.951z"/><path d="m490.875 599.201v8.143h-4.304v-23.135h7.535c1.547 0 2.886.182 4.017.543 1.13.363 2.063.869 2.8 1.52.736.652 1.28 1.43 1.632 2.336.353.908.528 1.9.528 2.977 0 1.121-.187 2.146-.561 3.08-.373.934-.934 1.736-1.68 2.408-.747.672-1.68 1.195-2.8 1.568s-2.433.561-3.937.561h-3.23zm0-3.361h3.231c.79 0 1.478-.098 2.064-.295s1.072-.48 1.456-.85c.384-.367.672-.814.864-1.344.191-.527.288-1.117.288-1.768 0-.619-.097-1.178-.288-1.68-.192-.502-.48-.928-.864-1.279-.384-.354-.87-.621-1.456-.809-.587-.188-1.274-.279-2.064-.279h-3.231z"/><path d="m518.267 607.344h-1.775c-.374 0-.667-.055-.88-.168-.214-.111-.374-.338-.48-.68l-.352-1.168c-.416.373-.824.701-1.225.984-.399.283-.813.52-1.239.711-.427.193-.881.336-1.36.434-.48.096-1.014.143-1.6.143-.694 0-1.334-.094-1.921-.279-.586-.188-1.09-.469-1.512-.844-.421-.375-.749-.84-.983-1.396-.235-.557-.353-1.203-.353-1.943 0-.619.163-1.232.488-1.838.325-.604.866-1.15 1.624-1.637.757-.486 1.765-.891 3.023-1.213 1.259-.32 2.821-.48 4.688-.48v-.967c0-1.107-.232-1.928-.696-2.459-.464-.533-1.139-.799-2.023-.799-.641 0-1.174.074-1.601.225-.427.148-.797.316-1.111.504-.315.186-.606.354-.872.504-.268.148-.561.225-.881.225-.267 0-.495-.07-.688-.209s-.347-.309-.464-.512l-.72-1.264c1.888-1.729 4.165-2.592 6.832-2.592.96 0 1.815.156 2.567.471s1.39.752 1.912 1.312.92 1.23 1.192 2.008c.271.779.407 1.633.407 2.561v10.366zm-7.68-2.463c.405 0 .778-.037 1.12-.111.341-.072.664-.184.968-.33.305-.146.598-.328.88-.543.283-.215.568-.471.856-.764v-2.748c-1.152 0-2.115.072-2.888.217s-1.396.33-1.864.557c-.47.225-.803.488-1 .789s-.296.629-.296.982c0 .699.205 1.199.616 1.5.411.3.947.451 1.608.451z"/><path d="m533.691 594.4c-.118.148-.232.266-.345.352-.111.086-.274.129-.487.129-.203 0-.4-.062-.593-.186-.191-.121-.421-.26-.688-.416-.267-.154-.584-.293-.952-.416-.368-.121-.824-.184-1.368-.184-.693 0-1.302.127-1.824.377s-.957.609-1.304 1.08c-.347.469-.605 1.037-.776 1.703-.17.668-.256 1.422-.256 2.264 0 .875.094 1.654.28 2.336.187.684.456 1.256.808 1.721.353.465.779.816 1.28 1.057s1.066.359 1.696.359c.629 0 1.139-.078 1.528-.232s.717-.324.983-.512c.267-.186.499-.357.696-.512s.418-.232.664-.232c.319 0 .56.123.72.369l1.136 1.439c-.438.512-.912.941-1.424 1.287-.512.348-1.043.625-1.592.832-.55.209-1.117.355-1.704.441-.587.084-1.168.127-1.744.127-1.014 0-1.968-.189-2.864-.568-.896-.377-1.677-.93-2.344-1.656-.667-.725-1.194-1.613-1.584-2.664-.39-1.049-.584-2.248-.584-3.592 0-1.205.174-2.322.521-3.352.346-1.029.855-1.92 1.527-2.672s1.504-1.342 2.496-1.768c.992-.428 2.134-.641 3.424-.641 1.227 0 2.302.197 3.225.592.922.395 1.752.961 2.488 1.697z"/><path d="m541.419 583.568v13.615h.735c.267 0 .475-.037.624-.111s.31-.213.48-.416l4.08-5.039c.181-.215.373-.383.576-.506.202-.121.469-.184.8-.184h3.616l-5.104 6.096c-.182.225-.368.43-.56.617-.192.186-.4.35-.624.488.224.16.421.346.592.559.17.215.341.443.512.689l5.472 7.967h-3.567c-.31 0-.571-.053-.784-.16-.214-.105-.405-.287-.576-.543l-4.176-6.225c-.16-.244-.32-.404-.48-.48-.159-.074-.399-.111-.72-.111h-.896v7.52h-3.952v-23.775h3.952z"/><path d="m567.931 607.344h-1.775c-.374 0-.667-.055-.88-.168-.214-.111-.374-.338-.48-.68l-.352-1.168c-.416.373-.824.701-1.225.984-.399.283-.813.52-1.239.711-.427.193-.881.336-1.36.434-.48.096-1.014.143-1.6.143-.694 0-1.334-.094-1.921-.279-.586-.188-1.09-.469-1.512-.844-.421-.375-.749-.84-.983-1.396-.235-.557-.353-1.203-.353-1.943 0-.619.163-1.232.488-1.838.325-.604.866-1.15 1.624-1.637.757-.486 1.765-.891 3.023-1.213 1.259-.32 2.821-.48 4.688-.48v-.967c0-1.107-.232-1.928-.696-2.459-.464-.533-1.139-.799-2.023-.799-.641 0-1.174.074-1.601.225-.427.148-.797.316-1.111.504-.315.186-.606.354-.872.504-.268.148-.561.225-.881.225-.267 0-.495-.07-.688-.209s-.347-.309-.464-.512l-.72-1.264c1.888-1.729 4.165-2.592 6.832-2.592.96 0 1.815.156 2.567.471s1.39.752 1.912 1.312.92 1.23 1.192 2.008c.271.779.407 1.633.407 2.561v10.366zm-7.68-2.463c.405 0 .778-.037 1.12-.111.341-.072.664-.184.968-.33.305-.146.598-.328.88-.543.283-.215.568-.471.856-.764v-2.748c-1.152 0-2.115.072-2.888.217s-1.396.33-1.864.557c-.47.225-.803.488-1 .789s-.296.629-.296.982c0 .699.205 1.199.616 1.5.411.3.947.451 1.608.451z"/><path d="m577.499 590.641c.704 0 1.365.072 1.984.215.618.145 1.184.355 1.695.633h4.721v1.473c0 .244-.064.438-.192.576s-.347.234-.656.287l-1.472.271c.106.277.189.57.248.881.059.309.088.635.088.977 0 .811-.163 1.543-.488 2.199s-.773 1.213-1.344 1.672-1.248.814-2.032 1.064-1.635.375-2.552.375c-.619 0-1.222-.059-1.808-.176-.513.312-.769.662-.769 1.047 0 .334.152.578.456.734s.704.266 1.2.33 1.059.098 1.688.098c.63 0 1.275.025 1.937.08.661.053 1.307.146 1.936.281.63.133 1.192.344 1.688.633s.896.684 1.2 1.18c.304.498.456 1.139.456 1.918 0 .729-.179 1.436-.536 2.119-.357.686-.875 1.295-1.552 1.83-.678.535-1.507.967-2.488 1.293s-2.102.49-3.36.49c-1.248 0-2.331-.121-3.248-.361s-1.678-.559-2.28-.959-1.053-.861-1.352-1.385-.448-1.066-.448-1.631c0-.77.234-1.414.704-1.938.47-.521 1.12-.938 1.952-1.248-.405-.223-.73-.521-.976-.895-.246-.375-.368-.859-.368-1.457 0-.244.042-.498.128-.76.085-.262.216-.52.392-.775s.397-.5.664-.729.581-.436.944-.615c-.832-.449-1.485-1.047-1.96-1.793s-.712-1.621-.712-2.623c0-.811.162-1.545.487-2.201s.779-1.215 1.36-1.68 1.27-.818 2.064-1.064c.795-.243 1.663-.366 2.601-.366zm4.336 17.392c0-.326-.096-.594-.288-.801-.191-.207-.453-.367-.784-.48-.33-.115-.717-.199-1.159-.254-.443-.055-.912-.082-1.408-.082s-1.008 0-1.536 0-1.038-.059-1.528-.176c-.448.246-.808.535-1.08.871-.271.336-.408.723-.408 1.16 0 .289.072.559.217.809.144.25.373.467.688.648s.723.322 1.225.424c.501.102 1.114.152 1.84.152.735 0 1.37-.059 1.903-.172.533-.115.974-.271 1.32-.475.347-.201.6-.441.76-.719s.238-.579.238-.905zm-4.336-9.297c.49 0 .917-.066 1.28-.199.362-.135.664-.318.903-.553.24-.234.422-.518.544-.848.123-.33.185-.693.185-1.088 0-.811-.243-1.453-.729-1.928s-1.213-.713-2.184-.713-1.699.238-2.184.713c-.486.475-.729 1.117-.729 1.928 0 .383.062.74.185 1.072.122.33.304.615.544.855.239.24.544.426.911.561.37.134.794.2 1.274.2z"/><path d="m595.163 590.672c1.034 0 1.986.166 2.855.496s1.618.814 2.248 1.449c.629.635 1.12 1.412 1.472 2.336.353.922.528 1.975.528 3.158 0 .299-.014.547-.04.744-.026.199-.075.354-.144.465-.07.111-.163.191-.28.24-.117.047-.267.072-.448.072h-10.144c.117 1.686.57 2.922 1.359 3.711s1.835 1.184 3.137 1.184c.64 0 1.191-.074 1.655-.223.464-.15.869-.314 1.216-.496s.651-.348.912-.496c.262-.15.515-.225.761-.225.159 0 .298.033.416.096.117.064.218.156.304.273l1.152 1.439c-.438.512-.929.941-1.473 1.287-.544.348-1.111.625-1.704.832-.592.209-1.194.355-1.808.441-.613.084-1.208.127-1.784.127-1.142 0-2.203-.189-3.184-.568-.981-.377-1.835-.938-2.561-1.68-.726-.74-1.296-1.658-1.712-2.752s-.624-2.359-.624-3.799c0-1.121.182-2.174.544-3.16s.883-1.846 1.561-2.576c.677-.73 1.504-1.311 2.479-1.736.979-.426 2.08-.639 3.307-.639zm.079 2.832c-1.151 0-2.053.326-2.703.977-.651.65-1.067 1.574-1.248 2.768h7.424c0-.512-.069-.994-.208-1.447s-.353-.852-.641-1.193c-.288-.34-.65-.609-1.088-.807s-.949-.298-1.536-.298z"/><path d="m297.983 614.572h305.345v3h-305.345z"/><path d="m332.555 395.434c-1.22.172-2.339-.115-3.842.741-.782-.043 1.079-1.02-.755-.588-1.581.987.99 1.148 3.934.608.064.009.116.019.164.029-.146-.207-.091-.447.499-.79z"/><path d="m251.375 421.195c.944.096 2.998-1.163 3.959-1.584.686-.957-2.923 1.473-3.959 1.584z"/><path d="m267.706 415.225c-.283.072-.77.27-1.605.678.687-.232 1.198-.458 1.605-.678z"/><path d="m332.555 395.434c.639-.091 1.306-.305 2.07-.88-1.017.359-1.666.643-2.07.88z"/><path d="m332.055 396.225c.051.073.122.144.208.212.081-.088.028-.161-.208-.212z"/><path d="m398.943 384.832c.317-.063.554-.144.625-.271-.207.095-.415.184-.625.271z"/><path d="m409.928 380.956c.341-.111.669-.246.957-.404z"/><path d="m315.756 400.739 7.051-2.909c-2.522.777-6.778 2.366-7.051 2.909z"/><path d="m419.564 380.802c1.378.004 2.181-.434 2.731-.909-5.034.6 1.463-.158-2.731.909z"/><path d="m414.513 381.945c.284-.507-1.252-.717-1.566-1.122-2.315 1.145.641.811 1.566 1.122z"/><path d="m236.875 429.525c-1.064.521-2.061.913-2.9 1.188 1.188 2.058 2.306 4.161 3.358 6.303 3.223-1.393 6.27-2.788 8.958-4.644l.26.518c4.939-2.877 12.156-6.706 17.911-8.219 1.527-1.195 7.215-3.537 4.565-3.271 2.24-.984 1.54.477 3.776-1.041l-2.077 1.701c12.809-4.59 23.614-8.628 36.002-12.97 3.679-.084 11.852-3.713 18.941-5.131 4.11-1.75 11.342-2.912 14.346-5.025l.244.556c2.773-.696 6.029-1.513 9.501-2.384 3.471-.856 7.162-1.709 10.805-2.449 4.25-.875 4.199-1.794 7.514-2.901l.234.566c3.657-1.257 4.579-2.44 5.913-3.39 2.851-.254 3.144-.751 5.99-.988-2.715.965-5.009 2.167-6.786 3.445 4.506-.812 8.938-3.387 11.756-3.08 3.649-.615 6.504-1.445 7.017-2.275.343.132 2.171-.075.468.604 2.79-.636 4.596-1.11 6.272-1.806-.535.108-1.302.17-1.904.33 1.344-.937 4.129-1.483 3.479-2.294-1.413.551-1.491.706-3.327 1.039.74-.826 5.52-2.025 6.734-1.701 1.427.365-3.204 1.773-.962 1.695l6.964-2.945c-1.552.511-3.358.522-2.766-.149l-3.062 1.062.125-.705c-5.166 1.334-8.78 1.447-14.098 3.176l2.044.241c-3.122.723-6.232 2.349-9.146 2.221 1.399-.573.372-.685.314-1.056-.712.29-1.5.741-2.376.835l1.375-1.491c-1.295 1.854-8.473 2.518-9.871 3.119l.438-.32c-4.68.623.857.449-2.287 1.221-2.687.452-1.073-1.018-3.569-.906-4.714 1.172-12.757 4.053-18.085 4.535-4.189 1.266-8.804 2.943-12.544 4.47-3.752 1.021.125-1.265-3.63.312.383-.513-.164-.792-.528-1.083-.544.591-7.03 1.873-3.969 2.065-5.478 1.306-11.626 2.987-17.352 4.944 1.905-.645 2.364-1.535.725-1.417-2.614 1.505-7.232 3.366-12.068 4.692.147.73 1.714.214 1.259 1.115-.705.352-1.842 1.059-3.044 1.391-.754-.555-.631-1.828-4.951-.447 1.057-1.615 7.357-2.223 5.305-2.807 1.833-1.623 9.637-4.092 11.443-4.033 3.768-2.206-3.029.79-2.385-.438-3.469 1.174-5.047 2.171-10.427 4.089-.021.547 1.802.031-.639 1.255-4.703 2.624-6.034 1.22-7.244 1.562.687-.357 1.646-.717 2.339-1.074-3.188.713-4.249 1.762-7.604 2.891-1.033-1.099 5.343-2.01 6.506-3.266l-2.5-.184c-5.172 1.619-1.315 1.623-6.671 3.111l.601-.73-3.291 1.485c-.012.539.767 1.064 3.613-.04-1.759 2.005-2.61 1.097-7.102 3.016-1.386 1.296 1.909-.771 2.063-.045.511.53-2.591 1.681-4.844 2.641-3.703 1.405-1.978-.103-3.512-.048.689-.385 3.535-1.574 3.271-1.022 4.506-2.476-2.131-.86.99-2.567-3.508.854-3.326 1.706-5.069 2.65.949-.242-.505.987.286.963-5.889 4.415-4.026-.015-9.821 2.686 1.356.807-7.583 5.061-3.201 4.749-1.379.81-3.1 1.892-4.561 2.367 1.459-1.571-2.653.411.001-1.62l-2.116.902 3.079-2.445c-2.408.365-6.364 1.523-7.66 1.662-3.009 1.799 1.044.404-2.467 2.278 1.186-1.045-1.04-.409-2.6.337 3.174-1.114.185 1.212-1.769 2.419z"/><path d="m293.037 406.611c.665-.01 1.426-.066 2.714-.495.37-.722-1.802.26-2.714.495z"/><path d="m293.037 406.611c-.132.002-.262.003-.39.004.017.069.167.054.39-.004z"/><path d="m296.998 404.688c.426-.354 1.133-.703.958-.885-2.165.688-2.593 1.034-.958.885z"/><path d="m715.055 487.638c0-.003 0-.006 0-.009-.264.092-.367.131 0 .009z"/><path d="m466.354 561.051c.075.006.147.008.223.014.491-.053.978-.114 1.454-.191-.613-.02-.968.04-1.677.177z"/><path d="m524.671 567.528c.057.026.114.053.195.085-.039-.037-.108-.063-.195-.085z"/><path d="m715.081 484.949c.003.01.003.005.002-.006l-.004-.001z"/><path d="m280.17 545.691c-.127.013-.229.039-.316.071.671.137 1.371.278 2.126.433z"/><path d="m540.837 565.87c.103-.008.213-.017.333-.028-.037-.003-.076-.004-.11-.008-.075.012-.149.024-.223.036z"/><path d="m718.387 487.964c-.007-.923-.101-1.364-.193-1.678 0 .057-.001.115-.001.155-.012-.284-.053-.466-.086-.705-.03-.237-.057-.521-.099-.986-.063-.909-.109-2.598-.753-5.791 0 0 .206.545.411 1.09.175.582.339 1.203.339 1.203l-.251-1.28-.316-1.198-.303-1.202-.366-1.114c-.254-.724-.458-1.537-.747-2.211-.282-.689-.565-1.382-.851-2.082-.272-.73-.611-1.332-.941-1.969-.331-.631-.671-1.266-1.021-1.896-.727-1.189-1.546-2.236-2.398-3.301-.026-.419.709.583 1.214 1.152-.376-.543-.758-1.096-1.144-1.652-.384-.561-.808-1.01-1.212-1.525-.824-.973-1.621-2.078-2.465-2.922-1.688-1.68-3.292-3.37-4.79-4.219-.37-.736.139-.615 1.508.36-3.234-3.392-3.746-2.521-6.751-5.208-.884-.748-2.463-2.504-1.893-2.076-.797-.426-2.397-1.336-4.002-2.346-1.607-.98-3.215-2.111-4.103-2.467-.392-.615-1.63-1.465-3.551-3-1.09-.613-2.17-1.323-3.271-1.861-1.099-.559-2.199-1.117-3.301-1.676-2.204-1.115-4.407-2.287-6.64-3.201-2.227-.973-4.457-1.947-6.687-2.921l-6.729-2.511-3.365-1.235c-1.121-.403-2.25-.714-3.373-1.071-2.25-.681-4.498-1.359-6.741-2.038-2.238-.712-4.489-1.188-6.729-1.733-2.24-.512-4.474-1.021-6.698-1.529-2.906-1.955 4.195.442 2.349-.859.072 1.041-3.018-.662-8.451-1.541l-.211-.193c-2.324-.332-3.587-1.261-6.093-1.543l.072.274c-1.338.013-2.787-.665-4.089-1.183-1.302-.495-2.453-.885-3.185-.4l-2.003-1.094c-2.649.599-4.134-1.164-7.375-.868l.38-.12c-1.078-.334-2.184-.537-3.261-.672-1.079-.1-2.128-.131-3.094-.16-1.93-.06-3.522-.114-4.339-.691-3.706-.43-7.975-.902-8.688-.151-.794-.458-.271-.901.289-1.1-6.912-.774-14.235-1.594-21.375-2.393-7.146-.573-14.109-1.057-20.302-1.068-.608-.23.159-.324.537-.482-7.726.422-15.76-2.264-21.436-.74 0 0-.511.166-1.022.334-.51.18-1.021.359-1.021.359-1.807-.411-1.663-.976-3.062-1.326-1.512.459-7.031-.209-7.933.469-.815-.373.348-.415.325-.653-3.547-.348-7.651.635-10.996.206l1.069-.307c-8.786-1.061-18.871-1.883-28.563-2.402-9.695-.294-18.999-.182-26.221.666-3.936.281-1.739-1.065-3.489-.963-7.449.828-15.652.707-23.695.689-4.021-.038-8.002.066-11.825.311-3.824.243-7.493.642-10.889 1.323-10.657.91-14.006 3.595-14.006 3.595 6.451-.425 12.722-.717 18.895-.909 6.173-.165 12.25-.352 18.313-.21 12.127.215 24.204.52 36.898 1.39 4.287-.063 9.236-.138 14.1-.21 4.862-.008 9.639.193 13.577.496 33.21.676 66.504 4.874 100.297 8.769-1.774-.553.126-.819 1.859-.666l.423.352 2.659-.211c2.528.344 1.434.984-.695.746 6.716 1.109 13.092 1.947 19.395 3.238 3.154.605 6.296 1.209 9.465 1.818 3.158.762 6.344 1.529 9.592 2.313.457-.372 2.153.014 3.799.382 1.646.354 3.23.83 3.485.377.594.351.029.242-.351.335 9.049 2.028 9.69 2.036 17.77 5.952 13.039 4.631 25.845 9.944 38.184 17.439 6.124 3.894 12.189 8.211 17.738 14.03l2.063 2.213c.66.798 1.297 1.644 1.948 2.459l.97 1.234.892 1.365c.582.923 1.229 1.764 1.723 2.791.51.997 1.107 1.923 1.507 2.995l.673 1.547.526 1.585c.08.261.198.522.249.781l.181.771.192.758c.033.236.065.469.104.699.105.49.105.862.149 1.236.019.182-.004.262.012.398.001.017.003.034.004.045l.058.013-.018 2.569-.062.003v-.009c-.001.014-.005.062-.006.109.021-.008.045-.017.067-.024l-.003.469c-.021-.135-.036-.274-.047-.414l-.002-.026c-.007.002-.01.003-.016.005-.001.017-.002.034-.001.047.007.126-.042.419-.042.626-.042.271-.094.564-.128.854-.041.295-.146.635-.208.955l-.104.492c-.046.168-.105.34-.157.51l-.312 1.031c-.229.691-.537 1.369-.795 2.07-.281.689-.645 1.334-.959 2.012-.304.691-.699 1.299-1.07 1.93-.385.615-.725 1.295-1.142 1.865l-1.236 1.742c-3.356 4.588-7.223 8.191-11.15 11.447-8.011 6.471-16.425 11.225-24.902 15.307-8.479 4.145-17.104 7.238-25.759 10.213-17.352 5.637-34.975 9.654-53.014 12.738-5.472 2.316-13.086 2.885-19.611 4.904l.407-.514c-2.788.678-4.544.863-6.49.914-1.947.012-4.083.023-7.639.043-.061.543-2.721.412-1.687 1.195-2.438.986-4.463-.824-7.996-.082-.128-.285.097.518-.66.314-4.566.977-4.135.812-4.013.438.122-.387-.066-.912-5.878-.941-8.1.742-16.299 1.715-24.429 2.238-4.064.303-8.109.576-12.113.787-4.002.154-7.963.201-11.856.18.965-.07 1.421.625-.155.684-1.513-1.393-5.269.543-8.023.051.214-.305 1.528-.434 2.249-.582-7.034-.33-12.945.486-19.604-.041-2.953.317-6.137.231-9.132.121-3.474-.117-6.718-.391-9.022.008 1.015-.566-2.851-.449-4.221-.744-2.315.834-5.426.66-8.682.412-1.628-.123-3.292-.266-4.912-.309-1.619-.072-3.194-.047-4.646.199l.197-.293c-8.658-.211-17.704-.377-26.84-.875-4.568-.18-9.16-.357-13.74-.537-4.577-.236-9.145-.426-13.664-.539-2.541-.137-5.16-.334-7.833-.676-2.672-.369-5.401-.748-8.161-1.129-2.76-.385-5.552-.754-8.354-1.043-2.8-.301-5.607-.621-8.402-.74-2.056-.012-.437.549-2.101.514-2.807-.365.044-.525-1.042-.854-2.754.002-5.94-.316-9.291-.936-3.351-.594-6.874-1.299-10.314-1.777-.814.162-2.743-.035-2.111.459-7.583-2.359-18.08-2.576-25.853-5.105 2.655 1.99-4.639-.047-7.382-.43-1.534-.431-1.693-.854-1.217-1.028-5.832-1.185-8.878-1.818-15.78-4.183-3.222-.703-4.143-.119-7.974-1.576-1.162-.881-3.166-1.518-5.35-2.131-2.185-.596-4.529-1.365-6.392-2.199.441.605-.549.654-2.115.336-.782-.168-1.712-.393-2.672-.746-.958-.363-1.953-.799-2.875-1.271l1.259-.75c-.504-.169-1.03-.36-1.552-.547-1.147 2.225-2.369 4.405-3.665 6.535.353.084.71.174 1.052.246 1.585 1.381 4.927 2.955 10.128 5.266-2.289-1.074-.033-.799 1.282-.424l2.441 1.756c3.032 1.562 7.1 1.924 9.961 2.35.487.322.629.605.759.881 2.681 1.385 2.863.311 3.928.424l1.751 1.096.421-.488c2.767.406 6.384 1.539 5.975 2.414 1.083.102 2.156.143.806-.453 1.349.605 3.898 1.35 6.729 2.047 2.831.693 5.94 1.373 8.417 1.664-2.315-.715-2.104-.971-2.27-1.621.759-.893 1.101.418 3.108.213.03.393 2.246 1.236-.161 1.039 3.259 1.311 7.201 2.219 11.362 2.922 4.163.643 8.541 1.186 12.674 2.025 1.681.125 1.173-.135 1.997-.289 5.194 1.771 11.64 1.641 17.266 2.807-1.248-.578.569-1.592 3.707-1.252 3.449-.457 1.337 1.352 4.415 2.221 1.553-.223 4.449.006 5.672.201l-.102.137c1.896-.211 4.883-.23 7.12.379l-.356.027c1.834.244 3.953.979 5.877 1.082.88-.725 5.553.197 6.705-.416.231.111-.125.139.386.357l.177-.664 3.808.676c-.838.211-1.039.496-2.108.607 4.058.746 1.383-.537 3.532-.762 2.862-.295 2.691.367 4.058.746-1.181.262-2.084-.301-2.797-.225-1.632.43 1.717.338 1.766.729.605.064.889-.744 2.967-.441 1.812.201 6.053.275 5.528.986 1.555-.289 3.372-.086 4.54-.34-1.468-.238-4.16-.611-4.477-1.104 1.341-.004 3.988-.023 4.4.328l-1.073.113c1.073-.086 4.978.299 2.959-.477l2.762 1.084c1.049-.518 3.84-.352 6.125-.375.097.766-1.757 1.521 2.517 1.9l3.677-.596c1.936.02 2.436.213 2.132.646 6.611.723 6.797-1.869 11.984-1.033-2.211.842-.375.971 1.957 1.281.105-.146.315-.438 1.283-.445-.664-.428-1.382.588-3.166-.064-.548-.572 2.141-.314 3.219-.467 2.299 1.035 6.143 1.258 10.349 1.363 4.206.049 8.773-.064 12.526.432-.505-1.088 3.358-.287 4.891-.672-.467 1.127 4.226-.166 6.265.539l-1.12-1.119c4.581.701 7.449-1.723 10.29-.389 2.584.312-.867.818-1.944 1.012 3.553 1.184 9.474-1.076 12.311.238.312-.449-.756-1.172 2.342-1.605 1.243.229 3.097.479 4.582.699 1.486.195 2.606.359 2.377.467 2.045-.279 2.594-.65 4.832-.316-.201.297-1.168.363-1.879.514 3.562.186 6.408-.381 9.53-.881 1.923.762 8.184.24 12.247.455 2.292-1.162 6.62.096 6.917-1.277-.096.148.414.301.673.369 1.515-.465 2.74-1.396 4.674-1.557l-.612.918c-.414 1.067 4.702.104 5.865.394-1.104-.522 2.395-.076 2.524-.747l2.274-.449c3.632-.494.421-.473 4.899-.92 2.539-.234.874.967.004.916 2.132.31 4.278-.101 6.464-.458-.79.06-1.049.012-.291-.235.053.109.239.169.514.199.833-.135 1.672-.258 2.519-.326-.021.021-.022.034-.037.053-.911.12-1.748.223-2.371.281.569.043 1.443-.021 2.333-.081.093.058.359.03.731-.044.723-.039 1.394-.05 1.838.033l-.599.756c1.568-.117 5.874-1.33 5.732-1.615 3.416 0 8.075-.459 12.245-1.002 3.298-.494 6.271-1.057 8.104-1.452-.781.254-.85.48-.066.149 2.113-.396 4.475-1.283 4.695-.859 2.046-.535 1.923.252 5.081-.074.052.106.291-.407-.024-.544 2.64.064 5.59-.555 8.666-1.226 3.118-.71 6.363-1.352 9.533-1.649-.517.156-1.223.673-1.712.984 4.884-1.239 9.529-2.379 13.887-4.019-.45.398-.296.67-1.448 1.057 3.4-.633 7.335-1.748 8.881-2.709-2.325.178-.139.412-1.701.717-2.461-.086 1.87-1.668 4.113-1.988l.076.135c3.392-.746 3.525-1.148 6.902-2.031 2.054-.119-1.758.646-.919.867.858.908 7.773-1.268 8.476-1.311.787-.443 1.932-.93 1.778-1.199 2.627-1.072 1.256.285 3.079-.307l7.104-4.165c-.111.159.279.229.629.327.489.109.88.322-.396.939 2.737-.967 4.856-2.084 6.706-3.141 1.849-1.086 3.436-2.059 5.085-3.1 1.636-.482 6.893-2.91 8.688-3.793.922.178-1.531.674-1.9 1.246 0 0 .703-.078 1.4-.232.698-.139 1.397-.279 1.397-.279-3.601 1.721.557.822-1.355 2.121 1.431-.84 3.875-1.93 6.51-3.033 2.633-1.125 5.43-2.516 7.605-3.51-1.569.119-.128-.68 1.632-1.869 1.765-1.182 3.872-2.545 3.704-3.033.622-.395 1.129-.697 1.543-.932.411-.266.729-.453.981-.58.504-.256.733-.277.871-.219.272.117.169.549 1.125.033 2.56-1.855 5.014-3.9 7.437-5.758 1.188-1.051 2.363-2.092 3.524-3.119 1.162-1.027 2.261-2.287 3.365-3.428 0 0 .101.068-.125.389.249-.279.509-.568.777-.867.262-.328.531-.666.809-1.014.554-.689 1.136-1.414 1.737-2.164.607-.723 1.181-1.664 1.792-2.514.302-.439.605-.879.91-1.322l.863-1.494.859-1.498c.282-.51.528-1.1.791-1.643.256-.555.515-1.098.76-1.654.22-.604.438-1.199.653-1.787.104-.293.21-.586.314-.875.096-.301.176-.627.263-.934.164-.623.338-1.219.478-1.83.114-.633.227-1.25.336-1.85.096-.604.135-1.227.194-1.795.032.471.3-.297-.029 2.123.128-.451.178-.932.251-1.338.06-.42.138-.783.16-1.143.052-.716.11-1.267.087-1.734zm-169.984 76.848c-.461.073-1.013.163-1.614.262.609-.147 1.182-.256 1.614-.262zm166.685-79.893.006-.064.014-.13c.01-.085.021-.17.036-.251l-.003.466c-.02-.008-.034-.013-.053-.021zm.243.081c.201.058.401.139.602.24-.372-.145.873.348-.687-.26zm.879 2.229-.056.026-.11.047-.223.082c-.079.026-.158.04-.237.059.379-.131.735-.253.626-.214z"/><path d="m688.076 527.992.602-.367-.525-.627z"/><path d="m597.728 559.218c-.189.049-.373.095-.563.144-.022.194.218.076.563-.144z"/><path d="m235.238 429.4c.681-.46.936-.502 1.538-.768l-.612-.271c-.925.497-2.051 1.383-.926 1.039z"/><path d="m454.897 569.521 2.059-.23-1.758-.209z"/><path d="m233.372 429.693 1.174-.92c-.631.506-.983.731-1.223.837.016.028.032.055.049.083z"/><path d="m608.275 557.488c2.44-.512-.062.543 1.781.158-.344-.003.248-.808-1.781-.158z"/><path d="m335.794 395.358c.43-.325.264-.521 1.246-.818-.788-.05-1.668.602-2.631.912.254.01 1.29.079 1.385-.094z"/></g><path d="m658.788 417.52h-428.802c-1.542 0-3.015.288-4.389.79 14.159 18.088 22.601 40.866 22.601 65.618 0 25.185-8.744 48.324-23.354 66.561 1.578.692 3.316 1.082 5.142 1.082h428.802c7.097 0 12.903-5.807 12.903-12.903v-108.245c0-7.097-5.806-12.903-12.903-12.903z" fill="#24b34c"/><g fill="#fff"><path d="m141.65 373.886c-60.775 0-110.042 49.268-110.042 110.042 0 60.773 49.267 110.043 110.042 110.043s110.042-49.27 110.042-110.043c0-60.775-49.267-110.042-110.042-110.042zm72.152 182.194c-19.271 19.273-44.896 29.887-72.152 29.887-27.255 0-52.879-10.613-72.152-29.887s-29.887-44.895-29.887-72.152c0-27.256 10.614-52.88 29.887-72.152s44.897-29.886 72.152-29.886c27.256 0 52.88 10.613 72.152 29.886 19.273 19.272 29.887 44.896 29.887 72.152 0 27.258-10.614 52.879-29.887 72.152z"/><path d="m141.65 390.56c-51.565 0-93.368 41.802-93.368 93.368 0 51.568 41.802 93.369 93.368 93.369 51.567 0 93.37-41.801 93.37-93.369 0-51.567-41.803-93.368-93.37-93.368zm62.722 156.088c-16.753 16.754-39.028 25.979-62.721 25.979s-45.968-9.225-62.721-25.979-25.98-39.027-25.98-62.72c0-23.692 9.226-45.967 25.979-62.721 16.753-16.753 39.028-25.979 62.721-25.979s45.968 9.227 62.721 25.979c16.753 16.754 25.981 39.028 25.981 62.721.001 23.693-9.227 45.967-25.98 62.72z"/><path d="m141.65 398.34c-47.268 0-85.589 38.318-85.589 85.588s38.321 85.588 85.589 85.588c47.27 0 85.589-38.318 85.589-85.588s-38.319-85.588-85.589-85.588zm57.22 142.806c-15.283 15.285-35.604 23.703-57.219 23.703-21.614 0-41.937-8.418-57.219-23.703-15.283-15.283-23.701-35.605-23.701-57.219s8.418-41.936 23.701-57.219 35.605-23.701 57.219-23.701c21.616 0 41.937 8.418 57.219 23.701 15.285 15.283 23.701 35.605 23.701 57.219s-8.417 41.936-23.701 57.219z"/><path d="m140.77 416.713-2.488 7.387-7.574.159 6.037 4.723-2.194 7.484 6.219-4.466 6.22 4.466-2.194-7.484 6.037-4.723-7.573-.159z"/><path d="m119.985 418.429-1.918 5.692-5.839.123 4.654 3.641-1.69 5.768 4.793-3.442 4.793 3.442-1.692-5.768 4.654-3.641-5.839-.123z"/><path d="m161.556 418.429-1.918 5.692-5.837.123 4.652 3.641-1.691 5.768 4.794-3.442 4.793 3.442-1.69-5.768 4.653-3.641-5.837-.123z"/><path d="m143.26 537.475-2.49-7.385-2.488 7.385-7.574.16 6.037 4.724-2.194 7.485 6.219-4.469 6.22 4.469-2.194-7.485 6.037-4.724z"/><path d="m121.901 537.498-1.916-5.693-1.918 5.693-5.839.123 4.654 3.641-1.69 5.769 4.793-3.443 4.793 3.443-1.692-5.769 4.654-3.641z"/><path d="m163.475 537.498-1.919-5.693-1.918 5.693-5.837.123 4.652 3.641-1.691 5.769 4.794-3.443 4.793 3.443-1.69-5.769 4.653-3.641z"/><path d="m93.368 508.555c0-1.33-.552-3.008-1.89-3.008-1.614 0-2.26 1.805-2.26 6.266 0 4.311.368 7.02 2.283 7.02.783 0 2.052-.93 2.052-2.859v-1.83h-2.19v-2.656h5.373v9.65h-2.444v-1.654h-.046c-.785 1.404-1.915 2.004-3.459 2.004-4.081 0-4.889-3.307-4.889-9.498 0-6.018 1.292-9.1 5.535-9.1 3.643 0 5.12 2.031 5.12 5.666h-3.185z"/><path d="m101.993 503.24v12.482c0 1.779.391 3.109 1.938 3.109 1.543 0 1.936-1.33 1.936-3.109v-12.482h3.321v12.482c0 4.561-2.561 5.764-5.257 5.764-2.7 0-5.259-.977-5.259-5.764v-12.482z"/><path d="m114.49 503.24h4.104l4.358 17.896h-3.458l-.762-3.785h-4.381l-.76 3.785h-3.459zm.438 11.155h3.229l-1.591-8.047h-.044z"/><path d="m124.105 503.24h6.133c2.721 0 4.381 1.555 4.381 4.611 0 2.381-.875 3.984-2.744 4.41v.053c2.262.324 2.607 1.678 2.653 5.463.023 1.881.116 2.857.737 3.209v.15h-3.597c-.322-.502-.392-1.178-.415-1.879l-.093-3.438c-.046-1.4-.623-2.252-1.959-2.252h-1.776v7.568h-3.321v-17.895zm3.322 7.819h1.383c1.591 0 2.49-.75 2.49-2.68 0-1.654-.806-2.482-2.305-2.482h-1.568z"/><path d="m140.132 503.24h4.104l4.358 17.896h-3.46l-.76-3.785h-4.382l-.762 3.785h-3.458zm.438 11.155h3.229l-1.591-8.047h-.046z"/><path d="m153.574 503.24 4.013 12.258h.046v-12.258h3.043v17.896h-3.782l-4.058-12.533h-.046v12.533h-3.045v-17.896z"/><path d="m172.621 503.24v2.957h-3.597v14.939h-3.321v-14.939h-3.597v-2.957z"/><path d="m183.251 503.24v2.957h-5.88v4.211h5.535v2.957h-5.535v4.814h6.111v2.957h-9.431v-17.896z"/><path d="m194.343 503.24v2.957h-5.88v4.211h5.535v2.957h-5.535v4.814h6.111v2.957h-9.431v-17.896z"/><path d="m200.081 503.512-1.452 1.855.015.043 2.137-.467v1.477l-2.151-.41-.013.045 1.465 1.797-1.196.76-.765-2.266-.028.016-.78 2.25-1.155-.76 1.438-1.828v-.027l-2.112.424v-1.477l2.085.453.013-.029-1.424-1.842 1.194-.746.753 2.236h.026l.767-2.236z"/><path d="m206.186 503.512-1.454 1.855.015.043 2.136-.467v1.477l-2.151-.41-.013.045 1.467 1.797-1.198.76-.767-2.266-.026.016-.78 2.25-1.157-.76 1.439-1.828v-.027l-2.11.424v-1.477l2.083.453.013-.029-1.426-1.842 1.196-.746.753 2.236h.026l.767-2.236z"/><path d="m87.595 480.791h4.41l2.102 11.285h.042l2.121-11.285h4.388v15.988h-2.718v-12.764h-.043l-2.615 12.764h-2.308l-2.617-12.764h-.04v12.764h-2.721v-15.988z"/><path d="m107.478 480.477c4.451 0 5.008 3.449 5.008 8.309s-.557 8.307-5.008 8.307c-4.449 0-5.006-3.447-5.006-8.307s.556-8.309 5.006-8.309zm0 14.242c1.751 0 2.041-1.635 2.041-5.934 0-4.277-.289-5.934-2.041-5.934-1.75 0-2.039 1.656-2.039 5.934 0 4.299.289 5.934 2.039 5.934z"/><path d="m117.657 480.791 3.585 10.951h.04v-10.951h2.721v15.988h-3.378l-3.626-11.196h-.042v11.196h-2.72v-15.988z"/><path d="m134.285 480.791v2.642h-5.254v3.763h4.945v2.643h-4.945v4.299h5.46v2.643h-8.428v-15.988h8.222z"/><path d="m138.343 480.791 1.937 6.18h.043l2.059-6.18h3.215l-3.812 9.695v6.293h-2.967v-6.293l-3.812-9.695z"/><path d="m150.85 488.986v2.643h-5.81v-2.643z"/><path d="m152.786 480.791h4.965c2.432 0 4.184.985 4.184 4.053 0 1.725-.763 3.045-2.226 3.493v.045c1.627.247 2.678 1.591 2.678 3.718 0 2.508-1.133 4.68-4.595 4.68h-5.006zm2.967 6.561h.844c1.628 0 2.371-.604 2.371-2.104 0-1.523-.681-2.083-2.145-2.083h-1.071v4.187zm0 7.054h1.153c1.423 0 2.391-.561 2.391-2.418 0-1.859-.968-2.396-2.267-2.396h-1.277z"/><path d="m167.106 480.791h3.668l3.893 15.988h-3.09l-.679-3.381h-3.914l-.681 3.381h-3.091zm.392 9.965h2.885l-1.421-7.188h-.043z"/><path d="m181.982 486.188c0-2.328-.433-3.336-1.771-3.336-1.505 0-1.855 1.635-1.855 6.156 0 4.838.62 5.711 1.896 5.711 1.071 0 1.854-.604 1.854-4.053h2.966c0 3.449-.782 6.426-4.676 6.426-4.451 0-5.006-3.447-5.006-8.307s.555-8.309 5.006-8.309c4.243 0 4.553 3.383 4.553 5.711h-2.967z"/><path d="m189.729 480.791v6.404h.042l3.749-6.404h3.215l-3.997 6.852 4.449 9.137h-3.337l-3.028-6.561-1.092 1.812v4.748h-2.966v-15.988z"/><path d="m98.566 451.326c0-2.354-.646-3.75-2.469-3.75-2.886 0-3.342 3.314-3.342 7.85v1.525h.076c.91-1.613 2.696-2.659 5.051-2.659 4.786 0 6.571 4.099 6.571 9.638 0 7.063-2.696 11.031-8.697 11.031-7.519 0-8.469-6.89-8.469-14.434 0-8.721.152-17.049 9.038-17.049 3.876 0 7.407 1.874 7.484 7.848zm-2.545 19.536c2.658 0 2.962-2.616 2.962-6.105 0-4.187-.834-5.843-2.962-5.843-2.165 0-3 1.656-3 5.843.038 3.532.456 6.105 3 6.105z"/><path d="m114.098 443.479c6.495 0 8.431 4.055 8.431 14.999 0 8.591-.418 16.483-8.431 16.483-6.495 0-8.431-4.056-8.431-15 0-8.547.418-16.482 8.431-16.482zm-2.962 17.833c0 7.762.608 9.55 2.962 9.55 2.394 0 2.962-2.442 2.962-10.379v-3.357c0-7.761-.608-9.55-2.962-9.55-2.393 0-2.962 2.442-2.962 10.379z"/><path d="m135.593 459.176v5.146h-10.709v-5.146z"/><path d="m139.428 443.217h8.963c7.595 0 8.963 5.974 8.963 15.131 0 11.032-2.05 16.003-9.305 16.003h-8.621zm5.469 26.512h2.432c3.797 0 4.557-2.748 4.557-11.206 0-7.065-.494-10.685-4.672-10.685h-2.316v21.891z"/><path d="m164.948 443.217h6.761l7.179 31.134h-5.697l-1.254-6.585h-7.215l-1.254 6.585h-5.697zm.724 19.404h5.317l-2.622-13.997h-.076z"/><path d="m183.064 443.217 3.571 12.034h.076l3.798-12.034h5.923l-7.025 18.881v12.253h-5.47v-12.253l-7.025-18.881z"/><path d="m309.058 504.514h-7.205c-.807 0-1.471-.188-1.994-.564-.522-.375-.885-.857-1.086-1.443l-2.365-6.984h-15.235l-2.365 6.984c-.183.514-.541.977-1.072 1.389-.532.412-1.183.619-1.953.619h-7.26l15.51-40.068h9.515zm-25.74-15.319h10.945l-3.685-10.973c-.238-.695-.518-1.516-.838-2.461-.321-.943-.638-1.967-.949-3.066-.293 1.119-.596 2.154-.907 3.107-.312.953-.605 1.779-.88 2.475z"/><path d="m348.658 484.465c0 2.898-.5 5.57-1.499 8.018-1 2.447-2.406 4.564-4.221 6.352s-4.001 3.182-6.559 4.18c-2.558 1-5.395 1.5-8.511 1.5h-15.565v-40.068h15.565c3.116 0 5.954.504 8.511 1.514 2.557 1.008 4.744 2.4 6.559 4.18 1.815 1.777 3.222 3.891 4.221 6.338.999 2.445 1.499 5.109 1.499 7.986zm-9.515 0c0-1.979-.257-3.768-.77-5.361-.514-1.596-1.251-2.947-2.214-4.057s-2.141-1.961-3.534-2.557c-1.394-.596-2.979-.895-4.757-.895h-6.215v25.768h6.215c1.778 0 3.364-.299 4.757-.895s2.571-1.447 3.534-2.557 1.7-2.461 2.214-4.057c.513-1.594.77-3.389.77-5.389z"/><path d="m389.467 484.465c0 2.898-.499 5.57-1.498 8.018-1 2.447-2.406 4.564-4.221 6.352-1.815 1.787-4.002 3.182-6.559 4.18-2.558 1-5.396 1.5-8.512 1.5h-15.565v-40.068h15.565c3.116 0 5.954.504 8.512 1.514 2.557 1.008 4.743 2.4 6.559 4.18 1.814 1.777 3.221 3.891 4.221 6.338.999 2.445 1.498 5.109 1.498 7.986zm-9.514 0c0-1.979-.258-3.768-.771-5.361-.514-1.596-1.251-2.947-2.214-4.057s-2.141-1.961-3.534-2.557c-1.394-.596-2.979-.895-4.757-.895h-6.215v25.768h6.215c1.778 0 3.364-.299 4.757-.895s2.571-1.447 3.534-2.557 1.7-2.461 2.214-4.057c.513-1.594.771-3.389.771-5.389z"/><path d="m433.631 464.445v7.371h-11.274v32.697h-9.295v-32.697h-11.275v-7.371z"/><path d="m475.376 484.465c0 2.898-.499 5.594-1.498 8.086-1 2.494-2.406 4.662-4.222 6.504s-4.001 3.285-6.559 4.33c-2.558 1.047-5.395 1.568-8.512 1.568-3.116 0-5.958-.521-8.524-1.568-2.567-1.045-4.763-2.488-6.587-4.33s-3.235-4.01-4.234-6.504c-1-2.492-1.499-5.188-1.499-8.086 0-2.896.499-5.59 1.499-8.084.999-2.494 2.41-4.656 4.234-6.49 1.824-1.832 4.02-3.271 6.587-4.318 2.566-1.045 5.408-1.566 8.524-1.566 3.117 0 5.954.527 8.512 1.582 2.558 1.053 4.743 2.498 6.559 4.33 1.815 1.834 3.222 3.998 4.222 6.49.999 2.493 1.498 5.179 1.498 8.056zm-9.515 0c0-1.979-.257-3.762-.771-5.348-.513-1.586-1.251-2.93-2.213-4.029-.963-1.1-2.142-1.943-3.534-2.529-1.394-.588-2.979-.881-4.758-.881-1.797 0-3.396.293-4.799.881-1.402.586-2.585 1.43-3.547 2.529-.963 1.1-1.701 2.443-2.214 4.029-.514 1.586-.771 3.369-.771 5.348 0 2 .257 3.791.771 5.377.513 1.586 1.251 2.93 2.214 4.029.962 1.1 2.145 1.938 3.547 2.516 1.403.578 3.002.867 4.799.867 1.778 0 3.364-.289 4.758-.867 1.393-.578 2.571-1.416 3.534-2.516.962-1.1 1.7-2.443 2.213-4.029.514-1.586.771-3.377.771-5.377z"/><path d="m517.367 494.146c.22 0 .439.041.66.123.22.082.431.225.632.426l3.686 3.877c-1.613 2.109-3.635 3.699-6.063 4.771-2.43 1.072-5.304 1.609-8.622 1.609-3.043 0-5.771-.518-8.181-1.553-2.411-1.037-4.455-2.467-6.133-4.291s-2.966-3.988-3.863-6.49c-.898-2.502-1.348-5.221-1.348-8.154 0-2.986.513-5.732 1.54-8.236 1.026-2.502 2.461-4.66 4.304-6.475 1.842-1.816 4.047-3.227 6.613-4.236 2.566-1.008 5.399-1.512 8.498-1.512 1.503 0 2.919.133 4.248.398s2.571.633 3.727 1.1c1.155.469 2.218 1.027 3.19 1.678.971.65 1.833 1.371 2.585 2.158l-3.136 4.209c-.201.256-.439.49-.715.701-.274.211-.66.316-1.154.316-.33 0-.643-.074-.936-.221s-.604-.326-.935-.537c-.33-.209-.692-.439-1.087-.688-.395-.246-.861-.477-1.402-.688-.541-.209-1.173-.389-1.897-.535s-1.572-.221-2.544-.221c-1.687 0-3.227.299-4.62.895s-2.589 1.447-3.588 2.557c-1 1.109-1.779 2.453-2.338 4.029-.56 1.576-.839 3.346-.839 5.307 0 2.055.279 3.879.839 5.473.559 1.596 1.32 2.939 2.282 4.029.963 1.092 2.086 1.92 3.369 2.488s2.658.854 4.125.854c.843 0 1.613-.041 2.31-.125.697-.082 1.343-.223 1.939-.426.595-.201 1.164-.463 1.705-.783.54-.32 1.086-.719 1.636-1.197.22-.182.458-.334.715-.453s.523-.177.798-.177z"/><path d="m563.869 504.514h-7.205c-.807 0-1.471-.188-1.993-.564-.522-.375-.885-.857-1.087-1.443l-2.364-6.984h-15.235l-2.365 6.984c-.184.514-.541.977-1.072 1.389-.532.412-1.183.619-1.952.619h-7.261l15.511-40.068h9.515zm-25.74-15.319h10.945l-3.685-10.973c-.239-.695-.519-1.516-.839-2.461-.321-.943-.638-1.967-.949-3.066-.293 1.119-.596 2.154-.907 3.107s-.605 1.779-.88 2.475z"/><path d="m576.409 489.691v14.822h-9.295v-40.068h13.035c2.896 0 5.367.299 7.411.895s3.713 1.426 5.005 2.488c1.293 1.064 2.232 2.32 2.819 3.768.586 1.449.88 3.025.88 4.73 0 1.301-.175 2.529-.522 3.684-.349 1.156-.866 2.225-1.554 3.205s-1.531 1.855-2.53 2.625c-.999.771-2.149 1.404-3.451 1.898.623.312 1.205.697 1.746 1.154.541.459 1.013 1.018 1.416 1.678l8.525 13.943h-8.415c-1.559 0-2.677-.588-3.355-1.76l-6.654-11.633c-.294-.514-.638-.881-1.031-1.1-.395-.221-.949-.33-1.664-.33h-2.366zm0-6.408h3.74c1.265 0 2.342-.16 3.231-.48.889-.322 1.617-.766 2.187-1.334.567-.568.98-1.232 1.237-1.994.256-.76.385-1.582.385-2.461 0-1.76-.573-3.135-1.719-4.125s-2.92-1.486-5.321-1.486h-3.74z"/><path d="m631.134 464.445v7.371h-11.274v32.697h-9.295v-32.697h-11.275v-7.371z"/></g></svg>