<svg xmlns="http://www.w3.org/2000/svg" xmlns:xlink="http://www.w3.org/1999/xlink" width="900" zoomAndPan="magnify" viewBox="0 0 675 37.5" height="50" preserveAspectRatio="xMidYMid meet" version="1.0"><defs><g><g id="id1"/></g></defs><g fill="rgb(100%, 100%, 100%)" fill-opacity="1"><g transform="translate(6.984992, 25.312459)"><g><path d="M 13.953125 -5.5625 C 13.953125 -4.425781 13.664062 -3.414062 13.09375 -2.53125 C 12.519531 -1.65625 11.6875 -0.972656 10.59375 -0.484375 C 9.507812 0.00390625 8.238281 0.25 6.78125 0.25 C 5.5625 0.25 4.535156 0.164062 3.703125 0 C 2.878906 -0.175781 2.019531 -0.476562 1.125 -0.90625 L 1.125 -5.3125 C 2.070312 -4.820312 3.050781 -4.441406 4.0625 -4.171875 C 5.082031 -3.898438 6.019531 -3.765625 6.875 -3.765625 C 7.613281 -3.765625 8.148438 -3.890625 8.484375 -4.140625 C 8.828125 -4.398438 9 -4.734375 9 -5.140625 C 9 -5.390625 8.929688 -5.609375 8.796875 -5.796875 C 8.660156 -5.984375 8.4375 -6.171875 8.125 -6.359375 C 7.820312 -6.554688 7.015625 -6.953125 5.703125 -7.546875 C 4.503906 -8.085938 3.601562 -8.613281 3 -9.125 C 2.40625 -9.632812 1.960938 -10.21875 1.671875 -10.875 C 1.390625 -11.53125 1.25 -12.3125 1.25 -13.21875 C 1.25 -14.90625 1.863281 -16.21875 3.09375 -17.15625 C 4.320312 -18.101562 6.007812 -18.578125 8.15625 -18.578125 C 10.050781 -18.578125 11.984375 -18.140625 13.953125 -17.265625 L 12.4375 -13.4375 C 10.726562 -14.226562 9.25 -14.625 8 -14.625 C 7.363281 -14.625 6.894531 -14.507812 6.59375 -14.28125 C 6.300781 -14.050781 6.15625 -13.769531 6.15625 -13.4375 C 6.15625 -13.082031 6.34375 -12.757812 6.71875 -12.46875 C 7.09375 -12.1875 8.101562 -11.671875 9.75 -10.921875 C 11.320312 -10.210938 12.414062 -9.453125 13.03125 -8.640625 C 13.644531 -7.828125 13.953125 -6.800781 13.953125 -5.5625 Z M 13.953125 -5.5625 "/></g></g></g><g fill="rgb(100%, 100%, 100%)" fill-opacity="1"><g transform="translate(21.788956, 25.312459)"><g><path d="M 6.609375 0 L 1.71875 0 L 1.71875 -14.1875 L 6.609375 -14.1875 Z M 1.59375 -17.71875 C 1.59375 -18.457031 1.796875 -19.003906 2.203125 -19.359375 C 2.609375 -19.722656 3.269531 -19.90625 4.1875 -19.90625 C 5.09375 -19.90625 5.753906 -19.71875 6.171875 -19.34375 C 6.585938 -18.976562 6.796875 -18.4375 6.796875 -17.71875 C 6.796875 -16.289062 5.925781 -15.578125 4.1875 -15.578125 C 2.457031 -15.578125 1.59375 -16.289062 1.59375 -17.71875 Z M 1.59375 -17.71875 "/></g></g></g><g fill="rgb(100%, 100%, 100%)" fill-opacity="1"><g transform="translate(30.130275, 25.312459)"><g><path d="M 19.109375 0 L 19.109375 -7.71875 C 19.109375 -8.675781 18.976562 -9.394531 18.71875 -9.875 C 18.457031 -10.351562 18.039062 -10.59375 17.46875 -10.59375 C 16.71875 -10.59375 16.164062 -10.269531 15.8125 -9.625 C 15.46875 -8.988281 15.296875 -7.984375 15.296875 -6.609375 L 15.296875 0 L 10.390625 0 L 10.390625 -7.71875 C 10.390625 -8.675781 10.265625 -9.394531 10.015625 -9.875 C 9.765625 -10.351562 9.359375 -10.59375 8.796875 -10.59375 C 8.023438 -10.59375 7.460938 -10.25 7.109375 -9.5625 C 6.765625 -8.882812 6.59375 -7.769531 6.59375 -6.21875 L 6.59375 0 L 1.6875 0 L 1.6875 -14.1875 L 5.390625 -14.1875 L 6 -12.4375 L 6.28125 -12.4375 C 6.664062 -13.09375 7.210938 -13.585938 7.921875 -13.921875 C 8.640625 -14.265625 9.453125 -14.4375 10.359375 -14.4375 C 12.398438 -14.4375 13.835938 -13.816406 14.671875 -12.578125 L 15.0625 -12.578125 C 15.457031 -13.160156 16.007812 -13.613281 16.71875 -13.9375 C 17.4375 -14.269531 18.226562 -14.4375 19.09375 -14.4375 C 20.769531 -14.4375 22.007812 -14.003906 22.8125 -13.140625 C 23.613281 -12.285156 24.015625 -10.984375 24.015625 -9.234375 L 24.015625 0 Z M 19.109375 0 "/></g></g></g><g fill="rgb(100%, 100%, 100%)" fill-opacity="1"><g transform="translate(55.780459, 25.312459)"><g><path d="M 10.203125 0.25 C 9.484375 0.25 8.835938 0.128906 8.265625 -0.109375 C 7.703125 -0.347656 7.144531 -0.773438 6.59375 -1.390625 L 6.359375 -1.390625 C 6.515625 -0.398438 6.59375 0.21875 6.59375 0.46875 L 6.59375 6.15625 L 1.6875 6.15625 L 1.6875 -14.1875 L 5.671875 -14.1875 L 6.359375 -12.390625 L 6.59375 -12.390625 C 7.5 -13.753906 8.753906 -14.4375 10.359375 -14.4375 C 11.929688 -14.4375 13.160156 -13.785156 14.046875 -12.484375 C 14.941406 -11.179688 15.390625 -9.394531 15.390625 -7.125 C 15.390625 -4.84375 14.925781 -3.039062 14 -1.71875 C 13.070312 -0.40625 11.804688 0.25 10.203125 0.25 Z M 8.5625 -10.59375 C 7.84375 -10.59375 7.335938 -10.335938 7.046875 -9.828125 C 6.765625 -9.316406 6.613281 -8.554688 6.59375 -7.546875 L 6.59375 -7.15625 C 6.59375 -5.9375 6.753906 -5.054688 7.078125 -4.515625 C 7.398438 -3.972656 7.914062 -3.703125 8.625 -3.703125 C 9.25 -3.703125 9.703125 -3.96875 9.984375 -4.5 C 10.265625 -5.039062 10.40625 -5.929688 10.40625 -7.171875 C 10.40625 -8.390625 10.265625 -9.265625 9.984375 -9.796875 C 9.703125 -10.328125 9.226562 -10.59375 8.5625 -10.59375 Z M 8.5625 -10.59375 "/></g></g></g><g fill="rgb(100%, 100%, 100%)" fill-opacity="1"><g transform="translate(72.275231, 25.312459)"><g><path d="M 6.59375 0 L 1.6875 0 L 1.6875 -19.5 L 6.59375 -19.5 Z M 6.59375 0 "/></g></g></g><g fill="rgb(100%, 100%, 100%)" fill-opacity="1"><g transform="translate(80.566452, 25.312459)"><g><path d="M 8.546875 0.25 C 6.179688 0.25 4.34375 -0.375 3.03125 -1.625 C 1.726562 -2.882812 1.078125 -4.675781 1.078125 -7 C 1.078125 -9.394531 1.679688 -11.234375 2.890625 -12.515625 C 4.097656 -13.796875 5.828125 -14.4375 8.078125 -14.4375 C 10.210938 -14.4375 11.863281 -13.878906 13.03125 -12.765625 C 14.195312 -11.648438 14.78125 -10.046875 14.78125 -7.953125 L 14.78125 -5.78125 L 6.03125 -5.78125 C 6.0625 -4.976562 6.347656 -4.351562 6.890625 -3.90625 C 7.441406 -3.457031 8.1875 -3.234375 9.125 -3.234375 C 9.988281 -3.234375 10.78125 -3.3125 11.5 -3.46875 C 12.226562 -3.632812 13.015625 -3.914062 13.859375 -4.3125 L 13.859375 -0.796875 C 13.085938 -0.398438 12.289062 -0.128906 11.46875 0.015625 C 10.65625 0.171875 9.679688 0.25 8.546875 0.25 Z M 8.25 -11.109375 C 7.675781 -11.109375 7.191406 -10.925781 6.796875 -10.5625 C 6.410156 -10.195312 6.1875 -9.628906 6.125 -8.859375 L 10.328125 -8.859375 C 10.316406 -9.546875 10.125 -10.09375 9.75 -10.5 C 9.375 -10.90625 8.875 -11.109375 8.25 -11.109375 Z M 8.25 -11.109375 "/></g></g></g><g fill="rgb(100%, 100%, 100%)" fill-opacity="1"><g transform="translate(96.422474, 25.312459)"><g><path d="M 12.65625 -4.359375 C 12.65625 -2.835938 12.132812 -1.6875 11.09375 -0.90625 C 10.0625 -0.132812 8.578125 0.25 6.640625 0.25 C 5.585938 0.25 4.671875 0.191406 3.890625 0.078125 C 3.117188 -0.0351562 2.328125 -0.238281 1.515625 -0.53125 L 1.515625 -4.453125 C 2.273438 -4.117188 3.109375 -3.84375 4.015625 -3.625 C 4.921875 -3.414062 5.726562 -3.3125 6.4375 -3.3125 C 7.5 -3.3125 8.03125 -3.550781 8.03125 -4.03125 C 8.03125 -4.28125 7.878906 -4.503906 7.578125 -4.703125 C 7.285156 -4.898438 6.425781 -5.28125 5 -5.84375 C 3.695312 -6.382812 2.785156 -6.992188 2.265625 -7.671875 C 1.742188 -8.347656 1.484375 -9.210938 1.484375 -10.265625 C 1.484375 -11.578125 1.992188 -12.597656 3.015625 -13.328125 C 4.035156 -14.066406 5.476562 -14.4375 7.34375 -14.4375 C 8.28125 -14.4375 9.160156 -14.332031 9.984375 -14.125 C 10.804688 -13.925781 11.660156 -13.628906 12.546875 -13.234375 L 11.21875 -10.078125 C 10.5625 -10.367188 9.867188 -10.617188 9.140625 -10.828125 C 8.421875 -11.035156 7.828125 -11.140625 7.359375 -11.140625 C 6.554688 -11.140625 6.15625 -10.941406 6.15625 -10.546875 C 6.15625 -10.304688 6.296875 -10.097656 6.578125 -9.921875 C 6.859375 -9.753906 7.664062 -9.40625 9 -8.875 C 10 -8.46875 10.742188 -8.066406 11.234375 -7.671875 C 11.722656 -7.285156 12.082031 -6.828125 12.3125 -6.296875 C 12.539062 -5.765625 12.65625 -5.117188 12.65625 -4.359375 Z M 12.65625 -4.359375 "/></g></g></g><g fill="rgb(100%, 100%, 100%)" fill-opacity="1"><g transform="translate(110.099232, 25.312459)"><g/></g></g><g fill="rgb(100%, 100%, 100%)" fill-opacity="1"><g transform="translate(116.762268, 25.312459)"><g><path d="M 12.265625 -18.3125 L 17.796875 -18.3125 L 11.796875 0 L 5.96875 0 L 0 -18.3125 L 5.5625 -18.3125 L 8.0625 -9.03125 C 8.570312 -6.96875 8.851562 -5.53125 8.90625 -4.71875 C 8.96875 -5.300781 9.082031 -6.03125 9.25 -6.90625 C 9.425781 -7.789062 9.582031 -8.484375 9.71875 -8.984375 Z M 12.265625 -18.3125 "/></g></g></g><g fill="rgb(100%, 100%, 100%)" fill-opacity="1"><g transform="translate(134.559589, 25.312459)"><g><path d="M 6.609375 0 L 1.71875 0 L 1.71875 -14.1875 L 6.609375 -14.1875 Z M 1.59375 -17.71875 C 1.59375 -18.457031 1.796875 -19.003906 2.203125 -19.359375 C 2.609375 -19.722656 3.269531 -19.90625 4.1875 -19.90625 C 5.09375 -19.90625 5.753906 -19.71875 6.171875 -19.34375 C 6.585938 -18.976562 6.796875 -18.4375 6.796875 -17.71875 C 6.796875 -16.289062 5.925781 -15.578125 4.1875 -15.578125 C 2.457031 -15.578125 1.59375 -16.289062 1.59375 -17.71875 Z M 1.59375 -17.71875 "/></g></g></g><g fill="rgb(100%, 100%, 100%)" fill-opacity="1"><g transform="translate(142.900908, 25.312459)"><g><path d="M 8.640625 -3.625 C 9.304688 -3.625 10.097656 -3.785156 11.015625 -4.109375 L 11.015625 -0.53125 C 10.347656 -0.25 9.71875 -0.0507812 9.125 0.0625 C 8.53125 0.1875 7.832031 0.25 7.03125 0.25 C 5.382812 0.25 4.195312 -0.148438 3.46875 -0.953125 C 2.738281 -1.765625 2.375 -3.003906 2.375 -4.671875 L 2.375 -10.515625 L 0.65625 -10.515625 L 0.65625 -12.515625 L 2.84375 -14.0625 L 4.109375 -17.03125 L 7.3125 -17.03125 L 7.3125 -14.1875 L 10.796875 -14.1875 L 10.796875 -10.515625 L 7.3125 -10.515625 L 7.3125 -5 C 7.3125 -4.082031 7.753906 -3.625 8.640625 -3.625 Z M 8.640625 -3.625 "/></g></g></g><g fill="rgb(100%, 100%, 100%)" fill-opacity="1"><g transform="translate(154.698991, 25.312459)"><g><path d="M 10.953125 0 L 10.015625 -1.875 L 9.90625 -1.875 C 9.25 -1.0625 8.578125 -0.503906 7.890625 -0.203125 C 7.203125 0.0976562 6.316406 0.25 5.234375 0.25 C 3.898438 0.25 2.847656 -0.148438 2.078125 -0.953125 C 1.304688 -1.753906 0.921875 -2.878906 0.921875 -4.328125 C 0.921875 -5.847656 1.445312 -6.972656 2.5 -7.703125 C 3.550781 -8.441406 5.078125 -8.859375 7.078125 -8.953125 L 9.453125 -9.03125 L 9.453125 -9.234375 C 9.453125 -10.398438 8.875 -10.984375 7.71875 -10.984375 C 6.675781 -10.984375 5.359375 -10.632812 3.765625 -9.9375 L 2.359375 -13.171875 C 4.003906 -14.015625 6.09375 -14.4375 8.625 -14.4375 C 10.4375 -14.4375 11.84375 -13.984375 12.84375 -13.078125 C 13.84375 -12.179688 14.34375 -10.925781 14.34375 -9.3125 L 14.34375 0 Z M 7.3125 -3.203125 C 7.90625 -3.203125 8.410156 -3.390625 8.828125 -3.765625 C 9.253906 -4.140625 9.46875 -4.628906 9.46875 -5.234375 L 9.46875 -6.34375 L 8.34375 -6.28125 C 6.726562 -6.226562 5.921875 -5.640625 5.921875 -4.515625 C 5.921875 -3.640625 6.382812 -3.203125 7.3125 -3.203125 Z M 7.3125 -3.203125 "/></g></g></g><g fill="rgb(100%, 100%, 100%)" fill-opacity="1"><g transform="translate(170.680257, 25.312459)"><g><path d="M 19.109375 0 L 19.109375 -7.71875 C 19.109375 -8.675781 18.976562 -9.394531 18.71875 -9.875 C 18.457031 -10.351562 18.039062 -10.59375 17.46875 -10.59375 C 16.71875 -10.59375 16.164062 -10.269531 15.8125 -9.625 C 15.46875 -8.988281 15.296875 -7.984375 15.296875 -6.609375 L 15.296875 0 L 10.390625 0 L 10.390625 -7.71875 C 10.390625 -8.675781 10.265625 -9.394531 10.015625 -9.875 C 9.765625 -10.351562 9.359375 -10.59375 8.796875 -10.59375 C 8.023438 -10.59375 7.460938 -10.25 7.109375 -9.5625 C 6.765625 -8.882812 6.59375 -7.769531 6.59375 -6.21875 L 6.59375 0 L 1.6875 0 L 1.6875 -14.1875 L 5.390625 -14.1875 L 6 -12.4375 L 6.28125 -12.4375 C 6.664062 -13.09375 7.210938 -13.585938 7.921875 -13.921875 C 8.640625 -14.265625 9.453125 -14.4375 10.359375 -14.4375 C 12.398438 -14.4375 13.835938 -13.816406 14.671875 -12.578125 L 15.0625 -12.578125 C 15.457031 -13.160156 16.007812 -13.613281 16.71875 -13.9375 C 17.4375 -14.269531 18.226562 -14.4375 19.09375 -14.4375 C 20.769531 -14.4375 22.007812 -14.003906 22.8125 -13.140625 C 23.613281 -12.285156 24.015625 -10.984375 24.015625 -9.234375 L 24.015625 0 Z M 19.109375 0 "/></g></g></g><g fill="rgb(100%, 100%, 100%)" fill-opacity="1"><g transform="translate(196.330441, 25.312459)"><g><path d="M 6.609375 0 L 1.71875 0 L 1.71875 -14.1875 L 6.609375 -14.1875 Z M 1.59375 -17.71875 C 1.59375 -18.457031 1.796875 -19.003906 2.203125 -19.359375 C 2.609375 -19.722656 3.269531 -19.90625 4.1875 -19.90625 C 5.09375 -19.90625 5.753906 -19.71875 6.171875 -19.34375 C 6.585938 -18.976562 6.796875 -18.4375 6.796875 -17.71875 C 6.796875 -16.289062 5.925781 -15.578125 4.1875 -15.578125 C 2.457031 -15.578125 1.59375 -16.289062 1.59375 -17.71875 Z M 1.59375 -17.71875 "/></g></g></g><g fill="rgb(100%, 100%, 100%)" fill-opacity="1"><g transform="translate(204.671761, 25.312459)"><g><path d="M 10.640625 0 L 10.640625 -7.734375 C 10.640625 -8.679688 10.503906 -9.394531 10.234375 -9.875 C 9.960938 -10.351562 9.53125 -10.59375 8.9375 -10.59375 C 8.101562 -10.59375 7.503906 -10.265625 7.140625 -9.609375 C 6.773438 -8.953125 6.59375 -7.820312 6.59375 -6.21875 L 6.59375 0 L 1.6875 0 L 1.6875 -14.1875 L 5.390625 -14.1875 L 6 -12.4375 L 6.28125 -12.4375 C 6.707031 -13.101562 7.285156 -13.601562 8.015625 -13.9375 C 8.753906 -14.269531 9.609375 -14.4375 10.578125 -14.4375 C 12.140625 -14.4375 13.359375 -13.984375 14.234375 -13.078125 C 15.109375 -12.171875 15.546875 -10.890625 15.546875 -9.234375 L 15.546875 0 Z M 10.640625 0 "/></g></g></g><g fill="rgb(100%, 100%, 100%)" fill-opacity="1"><g transform="translate(221.85538, 25.312459)"><g><path d="M 10.953125 0 L 10.015625 -1.875 L 9.90625 -1.875 C 9.25 -1.0625 8.578125 -0.503906 7.890625 -0.203125 C 7.203125 0.0976562 6.316406 0.25 5.234375 0.25 C 3.898438 0.25 2.847656 -0.148438 2.078125 -0.953125 C 1.304688 -1.753906 0.921875 -2.878906 0.921875 -4.328125 C 0.921875 -5.847656 1.445312 -6.972656 2.5 -7.703125 C 3.550781 -8.441406 5.078125 -8.859375 7.078125 -8.953125 L 9.453125 -9.03125 L 9.453125 -9.234375 C 9.453125 -10.398438 8.875 -10.984375 7.71875 -10.984375 C 6.675781 -10.984375 5.359375 -10.632812 3.765625 -9.9375 L 2.359375 -13.171875 C 4.003906 -14.015625 6.09375 -14.4375 8.625 -14.4375 C 10.4375 -14.4375 11.84375 -13.984375 12.84375 -13.078125 C 13.84375 -12.179688 14.34375 -10.925781 14.34375 -9.3125 L 14.34375 0 Z M 7.3125 -3.203125 C 7.90625 -3.203125 8.410156 -3.390625 8.828125 -3.765625 C 9.253906 -4.140625 9.46875 -4.628906 9.46875 -5.234375 L 9.46875 -6.34375 L 8.34375 -6.28125 C 6.726562 -6.226562 5.921875 -5.640625 5.921875 -4.515625 C 5.921875 -3.640625 6.382812 -3.203125 7.3125 -3.203125 Z M 7.3125 -3.203125 "/></g></g></g><g fill="rgb(100%, 100%, 100%)" fill-opacity="1"><g transform="translate(237.836647, 25.312459)"><g/></g></g><g fill="rgb(100%, 100%, 100%)" fill-opacity="1"><g transform="translate(244.499683, 25.312459)"><g><path d="M 6.09375 0.25 C 5.082031 0.25 4.195312 -0.0351562 3.4375 -0.609375 C 2.6875 -1.191406 2.101562 -2.039062 1.6875 -3.15625 C 1.28125 -4.269531 1.078125 -5.578125 1.078125 -7.078125 C 1.078125 -9.378906 1.539062 -11.179688 2.46875 -12.484375 C 3.394531 -13.785156 4.664062 -14.4375 6.28125 -14.4375 C 7.082031 -14.4375 7.78125 -14.273438 8.375 -13.953125 C 8.96875 -13.640625 9.515625 -13.109375 10.015625 -12.359375 L 10.109375 -12.359375 C 9.953125 -13.472656 9.875 -14.585938 9.875 -15.703125 L 9.875 -19.5 L 14.8125 -19.5 L 14.8125 0 L 11.109375 0 L 10.0625 -1.796875 L 9.875 -1.796875 C 9.03125 -0.429688 7.769531 0.25 6.09375 0.25 Z M 8.109375 -3.625 C 8.890625 -3.625 9.441406 -3.867188 9.765625 -4.359375 C 10.085938 -4.847656 10.257812 -5.609375 10.28125 -6.640625 L 10.28125 -7.03125 C 10.28125 -8.28125 10.097656 -9.171875 9.734375 -9.703125 C 9.378906 -10.234375 8.820312 -10.5 8.0625 -10.5 C 7.414062 -10.5 6.914062 -10.195312 6.5625 -9.59375 C 6.207031 -8.988281 6.03125 -8.125 6.03125 -7 C 6.03125 -5.894531 6.207031 -5.054688 6.5625 -4.484375 C 6.925781 -3.910156 7.441406 -3.625 8.109375 -3.625 Z M 8.109375 -3.625 "/></g></g></g><g fill="rgb(100%, 100%, 100%)" fill-opacity="1"><g transform="translate(260.994444, 25.312459)"><g><path d="M 8.546875 0.25 C 6.179688 0.25 4.34375 -0.375 3.03125 -1.625 C 1.726562 -2.882812 1.078125 -4.675781 1.078125 -7 C 1.078125 -9.394531 1.679688 -11.234375 2.890625 -12.515625 C 4.097656 -13.796875 5.828125 -14.4375 8.078125 -14.4375 C 10.210938 -14.4375 11.863281 -13.878906 13.03125 -12.765625 C 14.195312 -11.648438 14.78125 -10.046875 14.78125 -7.953125 L 14.78125 -5.78125 L 6.03125 -5.78125 C 6.0625 -4.976562 6.347656 -4.351562 6.890625 -3.90625 C 7.441406 -3.457031 8.1875 -3.234375 9.125 -3.234375 C 9.988281 -3.234375 10.78125 -3.3125 11.5 -3.46875 C 12.226562 -3.632812 13.015625 -3.914062 13.859375 -4.3125 L 13.859375 -0.796875 C 13.085938 -0.398438 12.289062 -0.128906 11.46875 0.015625 C 10.65625 0.171875 9.679688 0.25 8.546875 0.25 Z M 8.25 -11.109375 C 7.675781 -11.109375 7.191406 -10.925781 6.796875 -10.5625 C 6.410156 -10.195312 6.1875 -9.628906 6.125 -8.859375 L 10.328125 -8.859375 C 10.316406 -9.546875 10.125 -10.09375 9.75 -10.5 C 9.375 -10.90625 8.875 -11.109375 8.25 -11.109375 Z M 8.25 -11.109375 "/></g></g></g><g fill="rgb(100%, 100%, 100%)" fill-opacity="1"><g transform="translate(276.850465, 25.312459)"><g/></g></g><g fill="rgb(100%, 100%, 100%)" fill-opacity="1"><g transform="translate(283.513501, 25.312459)"><g><path d="M 0.875 -7.734375 C 0.875 -10.296875 1.238281 -12.367188 1.96875 -13.953125 C 2.695312 -15.535156 3.773438 -16.703125 5.203125 -17.453125 C 6.628906 -18.203125 8.382812 -18.578125 10.46875 -18.578125 C 11.21875 -18.578125 12.085938 -18.503906 13.078125 -18.359375 L 13.078125 -14.5 C 12.242188 -14.65625 11.335938 -14.734375 10.359375 -14.734375 C 8.703125 -14.734375 7.46875 -14.367188 6.65625 -13.640625 C 5.851562 -12.910156 5.414062 -11.722656 5.34375 -10.078125 L 5.484375 -10.078125 C 6.234375 -11.503906 7.441406 -12.21875 9.109375 -12.21875 C 10.734375 -12.21875 11.992188 -11.691406 12.890625 -10.640625 C 13.796875 -9.585938 14.25 -8.128906 14.25 -6.265625 C 14.25 -4.253906 13.679688 -2.664062 12.546875 -1.5 C 11.410156 -0.332031 9.820312 0.25 7.78125 0.25 C 5.613281 0.25 3.921875 -0.445312 2.703125 -1.84375 C 1.484375 -3.25 0.875 -5.210938 0.875 -7.734375 Z M 7.671875 -3.671875 C 8.191406 -3.671875 8.617188 -3.867188 8.953125 -4.265625 C 9.285156 -4.660156 9.453125 -5.289062 9.453125 -6.15625 C 9.453125 -7.644531 8.875 -8.390625 7.71875 -8.390625 C 7.144531 -8.390625 6.679688 -8.195312 6.328125 -7.8125 C 5.972656 -7.425781 5.796875 -6.960938 5.796875 -6.421875 C 5.796875 -5.617188 5.96875 -4.957031 6.3125 -4.4375 C 6.65625 -3.925781 7.109375 -3.671875 7.671875 -3.671875 Z M 7.671875 -3.671875 "/></g></g></g><g fill="rgb(100%, 100%, 100%)" fill-opacity="1"><g transform="translate(298.542906, 25.312459)"><g/></g></g><g fill="rgb(100%, 100%, 100%)" fill-opacity="1"><g transform="translate(305.205942, 25.312459)"><g><path d="M 1.984375 0 L 1.984375 -18.3125 L 6.953125 -18.3125 L 6.953125 0 Z M 1.984375 0 "/></g></g></g><g fill="rgb(100%, 100%, 100%)" fill-opacity="1"><g transform="translate(314.135924, 25.312459)"><g><path d="M 10.640625 0 L 10.640625 -7.734375 C 10.640625 -8.679688 10.503906 -9.394531 10.234375 -9.875 C 9.960938 -10.351562 9.53125 -10.59375 8.9375 -10.59375 C 8.101562 -10.59375 7.503906 -10.265625 7.140625 -9.609375 C 6.773438 -8.953125 6.59375 -7.820312 6.59375 -6.21875 L 6.59375 0 L 1.6875 0 L 1.6875 -14.1875 L 5.390625 -14.1875 L 6 -12.4375 L 6.28125 -12.4375 C 6.707031 -13.101562 7.285156 -13.601562 8.015625 -13.9375 C 8.753906 -14.269531 9.609375 -14.4375 10.578125 -14.4375 C 12.140625 -14.4375 13.359375 -13.984375 14.234375 -13.078125 C 15.109375 -12.171875 15.546875 -10.890625 15.546875 -9.234375 L 15.546875 0 Z M 10.640625 0 "/></g></g></g><g fill="rgb(100%, 100%, 100%)" fill-opacity="1"><g transform="translate(331.319544, 25.312459)"><g><path d="M 15.078125 -14.1875 L 15.078125 -11.828125 L 13.140625 -11.109375 C 13.410156 -10.628906 13.546875 -10.066406 13.546875 -9.421875 C 13.546875 -7.890625 13.007812 -6.703125 11.9375 -5.859375 C 10.863281 -5.015625 9.257812 -4.59375 7.125 -4.59375 C 6.601562 -4.59375 6.1875 -4.628906 5.875 -4.703125 C 5.757812 -4.484375 5.703125 -4.273438 5.703125 -4.078125 C 5.703125 -3.835938 5.894531 -3.648438 6.28125 -3.515625 C 6.675781 -3.390625 7.191406 -3.328125 7.828125 -3.328125 L 10.1875 -3.328125 C 13.363281 -3.328125 14.953125 -1.988281 14.953125 0.6875 C 14.953125 2.414062 14.210938 3.757812 12.734375 4.71875 C 11.265625 5.675781 9.203125 6.15625 6.546875 6.15625 C 4.523438 6.15625 2.96875 5.816406 1.875 5.140625 C 0.789062 4.472656 0.25 3.507812 0.25 2.25 C 0.25 0.5625 1.300781 -0.53125 3.40625 -1.03125 C 2.96875 -1.207031 2.585938 -1.5 2.265625 -1.90625 C 1.953125 -2.320312 1.796875 -2.726562 1.796875 -3.125 C 1.796875 -3.570312 1.914062 -3.960938 2.15625 -4.296875 C 2.394531 -4.640625 2.898438 -5.046875 3.671875 -5.515625 C 2.929688 -5.835938 2.347656 -6.34375 1.921875 -7.03125 C 1.503906 -7.726562 1.296875 -8.578125 1.296875 -9.578125 C 1.296875 -11.117188 1.820312 -12.3125 2.875 -13.15625 C 3.925781 -14.007812 5.429688 -14.4375 7.390625 -14.4375 C 7.648438 -14.4375 8.097656 -14.40625 8.734375 -14.34375 C 9.367188 -14.289062 9.835938 -14.238281 10.140625 -14.1875 Z M 4.390625 1.765625 C 4.390625 2.171875 4.601562 2.492188 5.03125 2.734375 C 5.46875 2.984375 6.050781 3.109375 6.78125 3.109375 C 7.96875 3.109375 8.914062 2.957031 9.625 2.65625 C 10.34375 2.363281 10.703125 1.984375 10.703125 1.515625 C 10.703125 1.140625 10.484375 0.875 10.046875 0.71875 C 9.609375 0.5625 8.988281 0.484375 8.1875 0.484375 L 6.265625 0.484375 C 5.734375 0.484375 5.285156 0.609375 4.921875 0.859375 C 4.566406 1.109375 4.390625 1.410156 4.390625 1.765625 Z M 5.921875 -9.546875 C 5.921875 -8.085938 6.425781 -7.359375 7.4375 -7.359375 C 7.90625 -7.359375 8.265625 -7.535156 8.515625 -7.890625 C 8.773438 -8.253906 8.90625 -8.796875 8.90625 -9.515625 C 8.90625 -10.984375 8.414062 -11.71875 7.4375 -11.71875 C 6.425781 -11.71875 5.921875 -10.992188 5.921875 -9.546875 Z M 5.921875 -9.546875 "/></g></g></g><g fill="rgb(100%, 100%, 100%)" fill-opacity="1"><g transform="translate(346.862442, 25.312459)"><g><path d="M 10.265625 -14.4375 C 10.691406 -14.4375 11.09375 -14.40625 11.46875 -14.34375 L 11.75 -14.296875 L 11.3125 -9.671875 C 10.914062 -9.773438 10.359375 -9.828125 9.640625 -9.828125 C 8.578125 -9.828125 7.800781 -9.582031 7.3125 -9.09375 C 6.832031 -8.601562 6.59375 -7.898438 6.59375 -6.984375 L 6.59375 0 L 1.6875 0 L 1.6875 -14.1875 L 5.34375 -14.1875 L 6.09375 -11.921875 L 6.34375 -11.921875 C 6.75 -12.671875 7.316406 -13.273438 8.046875 -13.734375 C 8.773438 -14.203125 9.515625 -14.4375 10.265625 -14.4375 Z M 10.265625 -14.4375 "/></g></g></g><g fill="rgb(100%, 100%, 100%)" fill-opacity="1"><g transform="translate(358.898478, 25.312459)"><g><path d="M 8.546875 0.25 C 6.179688 0.25 4.34375 -0.375 3.03125 -1.625 C 1.726562 -2.882812 1.078125 -4.675781 1.078125 -7 C 1.078125 -9.394531 1.679688 -11.234375 2.890625 -12.515625 C 4.097656 -13.796875 5.828125 -14.4375 8.078125 -14.4375 C 10.210938 -14.4375 11.863281 -13.878906 13.03125 -12.765625 C 14.195312 -11.648438 14.78125 -10.046875 14.78125 -7.953125 L 14.78125 -5.78125 L 6.03125 -5.78125 C 6.0625 -4.976562 6.347656 -4.351562 6.890625 -3.90625 C 7.441406 -3.457031 8.1875 -3.234375 9.125 -3.234375 C 9.988281 -3.234375 10.78125 -3.3125 11.5 -3.46875 C 12.226562 -3.632812 13.015625 -3.914062 13.859375 -4.3125 L 13.859375 -0.796875 C 13.085938 -0.398438 12.289062 -0.128906 11.46875 0.015625 C 10.65625 0.171875 9.679688 0.25 8.546875 0.25 Z M 8.25 -11.109375 C 7.675781 -11.109375 7.191406 -10.925781 6.796875 -10.5625 C 6.410156 -10.195312 6.1875 -9.628906 6.125 -8.859375 L 10.328125 -8.859375 C 10.316406 -9.546875 10.125 -10.09375 9.75 -10.5 C 9.375 -10.90625 8.875 -11.109375 8.25 -11.109375 Z M 8.25 -11.109375 "/></g></g></g><g fill="rgb(100%, 100%, 100%)" fill-opacity="1"><g transform="translate(374.7545, 25.312459)"><g><path d="M 6.09375 0.25 C 5.082031 0.25 4.195312 -0.0351562 3.4375 -0.609375 C 2.6875 -1.191406 2.101562 -2.039062 1.6875 -3.15625 C 1.28125 -4.269531 1.078125 -5.578125 1.078125 -7.078125 C 1.078125 -9.378906 1.539062 -11.179688 2.46875 -12.484375 C 3.394531 -13.785156 4.664062 -14.4375 6.28125 -14.4375 C 7.082031 -14.4375 7.78125 -14.273438 8.375 -13.953125 C 8.96875 -13.640625 9.515625 -13.109375 10.015625 -12.359375 L 10.109375 -12.359375 C 9.953125 -13.472656 9.875 -14.585938 9.875 -15.703125 L 9.875 -19.5 L 14.8125 -19.5 L 14.8125 0 L 11.109375 0 L 10.0625 -1.796875 L 9.875 -1.796875 C 9.03125 -0.429688 7.769531 0.25 6.09375 0.25 Z M 8.109375 -3.625 C 8.890625 -3.625 9.441406 -3.867188 9.765625 -4.359375 C 10.085938 -4.847656 10.257812 -5.609375 10.28125 -6.640625 L 10.28125 -7.03125 C 10.28125 -8.28125 10.097656 -9.171875 9.734375 -9.703125 C 9.378906 -10.234375 8.820312 -10.5 8.0625 -10.5 C 7.414062 -10.5 6.914062 -10.195312 6.5625 -9.59375 C 6.207031 -8.988281 6.03125 -8.125 6.03125 -7 C 6.03125 -5.894531 6.207031 -5.054688 6.5625 -4.484375 C 6.925781 -3.910156 7.441406 -3.625 8.109375 -3.625 Z M 8.109375 -3.625 "/></g></g></g><g fill="rgb(100%, 100%, 100%)" fill-opacity="1"><g transform="translate(391.249283, 25.312459)"><g><path d="M 6.609375 0 L 1.71875 0 L 1.71875 -14.1875 L 6.609375 -14.1875 Z M 1.59375 -17.71875 C 1.59375 -18.457031 1.796875 -19.003906 2.203125 -19.359375 C 2.609375 -19.722656 3.269531 -19.90625 4.1875 -19.90625 C 5.09375 -19.90625 5.753906 -19.71875 6.171875 -19.34375 C 6.585938 -18.976562 6.796875 -18.4375 6.796875 -17.71875 C 6.796875 -16.289062 5.925781 -15.578125 4.1875 -15.578125 C 2.457031 -15.578125 1.59375 -16.289062 1.59375 -17.71875 Z M 1.59375 -17.71875 "/></g></g></g><g fill="rgb(100%, 100%, 100%)" fill-opacity="1"><g transform="translate(399.590625, 25.312459)"><g><path d="M 8.546875 0.25 C 6.179688 0.25 4.34375 -0.375 3.03125 -1.625 C 1.726562 -2.882812 1.078125 -4.675781 1.078125 -7 C 1.078125 -9.394531 1.679688 -11.234375 2.890625 -12.515625 C 4.097656 -13.796875 5.828125 -14.4375 8.078125 -14.4375 C 10.210938 -14.4375 11.863281 -13.878906 13.03125 -12.765625 C 14.195312 -11.648438 14.78125 -10.046875 14.78125 -7.953125 L 14.78125 -5.78125 L 6.03125 -5.78125 C 6.0625 -4.976562 6.347656 -4.351562 6.890625 -3.90625 C 7.441406 -3.457031 8.1875 -3.234375 9.125 -3.234375 C 9.988281 -3.234375 10.78125 -3.3125 11.5 -3.46875 C 12.226562 -3.632812 13.015625 -3.914062 13.859375 -4.3125 L 13.859375 -0.796875 C 13.085938 -0.398438 12.289062 -0.128906 11.46875 0.015625 C 10.65625 0.171875 9.679688 0.25 8.546875 0.25 Z M 8.25 -11.109375 C 7.675781 -11.109375 7.191406 -10.925781 6.796875 -10.5625 C 6.410156 -10.195312 6.1875 -9.628906 6.125 -8.859375 L 10.328125 -8.859375 C 10.316406 -9.546875 10.125 -10.09375 9.75 -10.5 C 9.375 -10.90625 8.875 -11.109375 8.25 -11.109375 Z M 8.25 -11.109375 "/></g></g></g><g fill="rgb(100%, 100%, 100%)" fill-opacity="1"><g transform="translate(415.446625, 25.312459)"><g><path d="M 10.640625 0 L 10.640625 -7.734375 C 10.640625 -8.679688 10.503906 -9.394531 10.234375 -9.875 C 9.960938 -10.351562 9.53125 -10.59375 8.9375 -10.59375 C 8.101562 -10.59375 7.503906 -10.265625 7.140625 -9.609375 C 6.773438 -8.953125 6.59375 -7.820312 6.59375 -6.21875 L 6.59375 0 L 1.6875 0 L 1.6875 -14.1875 L 5.390625 -14.1875 L 6 -12.4375 L 6.28125 -12.4375 C 6.707031 -13.101562 7.285156 -13.601562 8.015625 -13.9375 C 8.753906 -14.269531 9.609375 -14.4375 10.578125 -14.4375 C 12.140625 -14.4375 13.359375 -13.984375 14.234375 -13.078125 C 15.109375 -12.171875 15.546875 -10.890625 15.546875 -9.234375 L 15.546875 0 Z M 10.640625 0 "/></g></g></g><g fill="rgb(100%, 100%, 100%)" fill-opacity="1"><g transform="translate(432.630244, 25.312459)"><g><path d="M 8.640625 -3.625 C 9.304688 -3.625 10.097656 -3.785156 11.015625 -4.109375 L 11.015625 -0.53125 C 10.347656 -0.25 9.71875 -0.0507812 9.125 0.0625 C 8.53125 0.1875 7.832031 0.25 7.03125 0.25 C 5.382812 0.25 4.195312 -0.148438 3.46875 -0.953125 C 2.738281 -1.765625 2.375 -3.003906 2.375 -4.671875 L 2.375 -10.515625 L 0.65625 -10.515625 L 0.65625 -12.515625 L 2.84375 -14.0625 L 4.109375 -17.03125 L 7.3125 -17.03125 L 7.3125 -14.1875 L 10.796875 -14.1875 L 10.796875 -10.515625 L 7.3125 -10.515625 L 7.3125 -5 C 7.3125 -4.082031 7.753906 -3.625 8.640625 -3.625 Z M 8.640625 -3.625 "/></g></g></g><g fill="rgb(100%, 100%, 100%)" fill-opacity="1"><g transform="translate(444.428304, 25.312459)"><g><path d="M 8.546875 0.25 C 6.179688 0.25 4.34375 -0.375 3.03125 -1.625 C 1.726562 -2.882812 1.078125 -4.675781 1.078125 -7 C 1.078125 -9.394531 1.679688 -11.234375 2.890625 -12.515625 C 4.097656 -13.796875 5.828125 -14.4375 8.078125 -14.4375 C 10.210938 -14.4375 11.863281 -13.878906 13.03125 -12.765625 C 14.195312 -11.648438 14.78125 -10.046875 14.78125 -7.953125 L 14.78125 -5.78125 L 6.03125 -5.78125 C 6.0625 -4.976562 6.347656 -4.351562 6.890625 -3.90625 C 7.441406 -3.457031 8.1875 -3.234375 9.125 -3.234375 C 9.988281 -3.234375 10.78125 -3.3125 11.5 -3.46875 C 12.226562 -3.632812 13.015625 -3.914062 13.859375 -4.3125 L 13.859375 -0.796875 C 13.085938 -0.398438 12.289062 -0.128906 11.46875 0.015625 C 10.65625 0.171875 9.679688 0.25 8.546875 0.25 Z M 8.25 -11.109375 C 7.675781 -11.109375 7.191406 -10.925781 6.796875 -10.5625 C 6.410156 -10.195312 6.1875 -9.628906 6.125 -8.859375 L 10.328125 -8.859375 C 10.316406 -9.546875 10.125 -10.09375 9.75 -10.5 C 9.375 -10.90625 8.875 -11.109375 8.25 -11.109375 Z M 8.25 -11.109375 "/></g></g></g><g fill="rgb(100%, 100%, 100%)" fill-opacity="1"><g transform="translate(460.284303, 25.312459)"><g><path d="M 12.65625 -4.359375 C 12.65625 -2.835938 12.132812 -1.6875 11.09375 -0.90625 C 10.0625 -0.132812 8.578125 0.25 6.640625 0.25 C 5.585938 0.25 4.671875 0.191406 3.890625 0.078125 C 3.117188 -0.0351562 2.328125 -0.238281 1.515625 -0.53125 L 1.515625 -4.453125 C 2.273438 -4.117188 3.109375 -3.84375 4.015625 -3.625 C 4.921875 -3.414062 5.726562 -3.3125 6.4375 -3.3125 C 7.5 -3.3125 8.03125 -3.550781 8.03125 -4.03125 C 8.03125 -4.28125 7.878906 -4.503906 7.578125 -4.703125 C 7.285156 -4.898438 6.425781 -5.28125 5 -5.84375 C 3.695312 -6.382812 2.785156 -6.992188 2.265625 -7.671875 C 1.742188 -8.347656 1.484375 -9.210938 1.484375 -10.265625 C 1.484375 -11.578125 1.992188 -12.597656 3.015625 -13.328125 C 4.035156 -14.066406 5.476562 -14.4375 7.34375 -14.4375 C 8.28125 -14.4375 9.160156 -14.332031 9.984375 -14.125 C 10.804688 -13.925781 11.660156 -13.628906 12.546875 -13.234375 L 11.21875 -10.078125 C 10.5625 -10.367188 9.867188 -10.617188 9.140625 -10.828125 C 8.421875 -11.035156 7.828125 -11.140625 7.359375 -11.140625 C 6.554688 -11.140625 6.15625 -10.941406 6.15625 -10.546875 C 6.15625 -10.304688 6.296875 -10.097656 6.578125 -9.921875 C 6.859375 -9.753906 7.664062 -9.40625 9 -8.875 C 10 -8.46875 10.742188 -8.066406 11.234375 -7.671875 C 11.722656 -7.285156 12.082031 -6.828125 12.3125 -6.296875 C 12.539062 -5.765625 12.65625 -5.117188 12.65625 -4.359375 Z M 12.65625 -4.359375 "/></g></g></g><g fill="rgb(100%, 100%, 100%)" fill-opacity="1"><g transform="translate(473.961062, 25.312459)"><g/></g></g><g fill="rgb(100%, 100%, 100%)" fill-opacity="1"><g transform="translate(480.624098, 25.312459)"><g><path d="M 17.53125 -9.546875 C 17.53125 -6.484375 16.6875 -4.125 15 -2.46875 C 13.320312 -0.820312 10.957031 0 7.90625 0 L 1.984375 0 L 1.984375 -18.3125 L 8.3125 -18.3125 C 11.257812 -18.3125 13.53125 -17.5625 15.125 -16.0625 C 16.726562 -14.5625 17.53125 -12.390625 17.53125 -9.546875 Z M 12.390625 -9.375 C 12.390625 -11.050781 12.054688 -12.289062 11.390625 -13.09375 C 10.722656 -13.90625 9.71875 -14.3125 8.375 -14.3125 L 6.921875 -14.3125 L 6.921875 -4.0625 L 8.03125 -4.0625 C 9.53125 -4.0625 10.628906 -4.492188 11.328125 -5.359375 C 12.035156 -6.234375 12.390625 -7.570312 12.390625 -9.375 Z M 12.390625 -9.375 "/></g></g></g><g fill="rgb(100%, 100%, 100%)" fill-opacity="1"><g transform="translate(499.448439, 25.312459)"><g><path d="M 8.546875 0.25 C 6.179688 0.25 4.34375 -0.375 3.03125 -1.625 C 1.726562 -2.882812 1.078125 -4.675781 1.078125 -7 C 1.078125 -9.394531 1.679688 -11.234375 2.890625 -12.515625 C 4.097656 -13.796875 5.828125 -14.4375 8.078125 -14.4375 C 10.210938 -14.4375 11.863281 -13.878906 13.03125 -12.765625 C 14.195312 -11.648438 14.78125 -10.046875 14.78125 -7.953125 L 14.78125 -5.78125 L 6.03125 -5.78125 C 6.0625 -4.976562 6.347656 -4.351562 6.890625 -3.90625 C 7.441406 -3.457031 8.1875 -3.234375 9.125 -3.234375 C 9.988281 -3.234375 10.78125 -3.3125 11.5 -3.46875 C 12.226562 -3.632812 13.015625 -3.914062 13.859375 -4.3125 L 13.859375 -0.796875 C 13.085938 -0.398438 12.289062 -0.128906 11.46875 0.015625 C 10.65625 0.171875 9.679688 0.25 8.546875 0.25 Z M 8.25 -11.109375 C 7.675781 -11.109375 7.191406 -10.925781 6.796875 -10.5625 C 6.410156 -10.195312 6.1875 -9.628906 6.125 -8.859375 L 10.328125 -8.859375 C 10.316406 -9.546875 10.125 -10.09375 9.75 -10.5 C 9.375 -10.90625 8.875 -11.109375 8.25 -11.109375 Z M 8.25 -11.109375 "/></g></g></g><g fill="rgb(100%, 100%, 100%)" fill-opacity="1"><g transform="translate(515.304483, 25.312459)"><g><path d="M 10.265625 -14.4375 C 10.691406 -14.4375 11.09375 -14.40625 11.46875 -14.34375 L 11.75 -14.296875 L 11.3125 -9.671875 C 10.914062 -9.773438 10.359375 -9.828125 9.640625 -9.828125 C 8.578125 -9.828125 7.800781 -9.582031 7.3125 -9.09375 C 6.832031 -8.601562 6.59375 -7.898438 6.59375 -6.984375 L 6.59375 0 L 1.6875 0 L 1.6875 -14.1875 L 5.34375 -14.1875 L 6.09375 -11.921875 L 6.34375 -11.921875 C 6.75 -12.671875 7.316406 -13.273438 8.046875 -13.734375 C 8.773438 -14.203125 9.515625 -14.4375 10.265625 -14.4375 Z M 10.265625 -14.4375 "/></g></g></g><g fill="rgb(100%, 100%, 100%)" fill-opacity="1"><g transform="translate(527.34052, 25.312459)"><g><path d="M 10.265625 -14.4375 C 10.691406 -14.4375 11.09375 -14.40625 11.46875 -14.34375 L 11.75 -14.296875 L 11.3125 -9.671875 C 10.914062 -9.773438 10.359375 -9.828125 9.640625 -9.828125 C 8.578125 -9.828125 7.800781 -9.582031 7.3125 -9.09375 C 6.832031 -8.601562 6.59375 -7.898438 6.59375 -6.984375 L 6.59375 0 L 1.6875 0 L 1.6875 -14.1875 L 5.34375 -14.1875 L 6.09375 -11.921875 L 6.34375 -11.921875 C 6.75 -12.671875 7.316406 -13.273438 8.046875 -13.734375 C 8.773438 -14.203125 9.515625 -14.4375 10.265625 -14.4375 Z M 10.265625 -14.4375 "/></g></g></g><g fill="rgb(100%, 100%, 100%)" fill-opacity="1"><g transform="translate(539.376557, 25.312459)"><g><path d="M 8.546875 0.25 C 6.179688 0.25 4.34375 -0.375 3.03125 -1.625 C 1.726562 -2.882812 1.078125 -4.675781 1.078125 -7 C 1.078125 -9.394531 1.679688 -11.234375 2.890625 -12.515625 C 4.097656 -13.796875 5.828125 -14.4375 8.078125 -14.4375 C 10.210938 -14.4375 11.863281 -13.878906 13.03125 -12.765625 C 14.195312 -11.648438 14.78125 -10.046875 14.78125 -7.953125 L 14.78125 -5.78125 L 6.03125 -5.78125 C 6.0625 -4.976562 6.347656 -4.351562 6.890625 -3.90625 C 7.441406 -3.457031 8.1875 -3.234375 9.125 -3.234375 C 9.988281 -3.234375 10.78125 -3.3125 11.5 -3.46875 C 12.226562 -3.632812 13.015625 -3.914062 13.859375 -4.3125 L 13.859375 -0.796875 C 13.085938 -0.398438 12.289062 -0.128906 11.46875 0.015625 C 10.65625 0.171875 9.679688 0.25 8.546875 0.25 Z M 8.25 -11.109375 C 7.675781 -11.109375 7.191406 -10.925781 6.796875 -10.5625 C 6.410156 -10.195312 6.1875 -9.628906 6.125 -8.859375 L 10.328125 -8.859375 C 10.316406 -9.546875 10.125 -10.09375 9.75 -10.5 C 9.375 -10.90625 8.875 -11.109375 8.25 -11.109375 Z M 8.25 -11.109375 "/></g></g></g><g fill="rgb(100%, 100%, 100%)" fill-opacity="1"><g transform="translate(555.232557, 25.312459)"><g><path d="M 8.640625 -3.625 C 9.304688 -3.625 10.097656 -3.785156 11.015625 -4.109375 L 11.015625 -0.53125 C 10.347656 -0.25 9.71875 -0.0507812 9.125 0.0625 C 8.53125 0.1875 7.832031 0.25 7.03125 0.25 C 5.382812 0.25 4.195312 -0.148438 3.46875 -0.953125 C 2.738281 -1.765625 2.375 -3.003906 2.375 -4.671875 L 2.375 -10.515625 L 0.65625 -10.515625 L 0.65625 -12.515625 L 2.84375 -14.0625 L 4.109375 -17.03125 L 7.3125 -17.03125 L 7.3125 -14.1875 L 10.796875 -14.1875 L 10.796875 -10.515625 L 7.3125 -10.515625 L 7.3125 -5 C 7.3125 -4.082031 7.753906 -3.625 8.640625 -3.625 Z M 8.640625 -3.625 "/></g></g></g><g fill="rgb(100%, 100%, 100%)" fill-opacity="1"><g transform="translate(567.030662, 25.312459)"><g><path d="M 8.546875 0.25 C 6.179688 0.25 4.34375 -0.375 3.03125 -1.625 C 1.726562 -2.882812 1.078125 -4.675781 1.078125 -7 C 1.078125 -9.394531 1.679688 -11.234375 2.890625 -12.515625 C 4.097656 -13.796875 5.828125 -14.4375 8.078125 -14.4375 C 10.210938 -14.4375 11.863281 -13.878906 13.03125 -12.765625 C 14.195312 -11.648438 14.78125 -10.046875 14.78125 -7.953125 L 14.78125 -5.78125 L 6.03125 -5.78125 C 6.0625 -4.976562 6.347656 -4.351562 6.890625 -3.90625 C 7.441406 -3.457031 8.1875 -3.234375 9.125 -3.234375 C 9.988281 -3.234375 10.78125 -3.3125 11.5 -3.46875 C 12.226562 -3.632812 13.015625 -3.914062 13.859375 -4.3125 L 13.859375 -0.796875 C 13.085938 -0.398438 12.289062 -0.128906 11.46875 0.015625 C 10.65625 0.171875 9.679688 0.25 8.546875 0.25 Z M 8.25 -11.109375 C 7.675781 -11.109375 7.191406 -10.925781 6.796875 -10.5625 C 6.410156 -10.195312 6.1875 -9.628906 6.125 -8.859375 L 10.328125 -8.859375 C 10.316406 -9.546875 10.125 -10.09375 9.75 -10.5 C 9.375 -10.90625 8.875 -11.109375 8.25 -11.109375 Z M 8.25 -11.109375 "/></g></g></g><g fill="rgb(100%, 100%, 100%)" fill-opacity="1"><g transform="translate(582.886661, 25.312459)"><g/></g></g><g fill="rgb(100%, 100%, 100%)" fill-opacity="1"><g transform="translate(589.549697, 25.312459)"><g><path d="M 9.953125 0 L 6.21875 -13.1875 L 6.09375 -13.1875 C 6.269531 -10.945312 6.359375 -9.203125 6.359375 -7.953125 L 6.359375 0 L 1.984375 0 L 1.984375 -18.3125 L 8.5625 -18.3125 L 12.390625 -5.3125 L 12.484375 -5.3125 L 16.234375 -18.3125 L 22.84375 -18.3125 L 22.84375 0 L 18.296875 0 L 18.296875 -8.03125 C 18.296875 -8.445312 18.300781 -8.910156 18.3125 -9.421875 C 18.320312 -9.929688 18.378906 -11.179688 18.484375 -13.171875 L 18.359375 -13.171875 L 14.671875 0 Z M 9.953125 0 "/></g></g></g><g fill="rgb(100%, 100%, 100%)" fill-opacity="1"><g transform="translate(614.348215, 25.312459)"><g><path d="M 11.796875 0 L 11.1875 -1.765625 L 10.90625 -1.765625 C 10.488281 -1.117188 9.914062 -0.617188 9.1875 -0.265625 C 8.457031 0.078125 7.597656 0.25 6.609375 0.25 C 5.046875 0.25 3.832031 -0.203125 2.96875 -1.109375 C 2.101562 -2.015625 1.671875 -3.296875 1.671875 -4.953125 L 1.671875 -14.1875 L 6.5625 -14.1875 L 6.5625 -6.4375 C 6.5625 -5.507812 6.691406 -4.804688 6.953125 -4.328125 C 7.222656 -3.859375 7.65625 -3.625 8.25 -3.625 C 9.09375 -3.625 9.691406 -3.953125 10.046875 -4.609375 C 10.410156 -5.273438 10.59375 -6.398438 10.59375 -7.984375 L 10.59375 -14.1875 L 15.5 -14.1875 L 15.5 0 Z M 11.796875 0 "/></g></g></g><g fill="rgb(100%, 100%, 100%)" fill-opacity="1"><g transform="translate(631.531834, 25.312459)"><g><path d="M 6.609375 0 L 1.71875 0 L 1.71875 -14.1875 L 6.609375 -14.1875 Z M 1.59375 -17.71875 C 1.59375 -18.457031 1.796875 -19.003906 2.203125 -19.359375 C 2.609375 -19.722656 3.269531 -19.90625 4.1875 -19.90625 C 5.09375 -19.90625 5.753906 -19.71875 6.171875 -19.34375 C 6.585938 -18.976562 6.796875 -18.4375 6.796875 -17.71875 C 6.796875 -16.289062 5.925781 -15.578125 4.1875 -15.578125 C 2.457031 -15.578125 1.59375 -16.289062 1.59375 -17.71875 Z M 1.59375 -17.71875 "/></g></g></g><g fill="rgb(100%, 100%, 100%)" fill-opacity="1"><g transform="translate(639.873177, 25.312459)"><g><path d="M 8.640625 -3.625 C 9.304688 -3.625 10.097656 -3.785156 11.015625 -4.109375 L 11.015625 -0.53125 C 10.347656 -0.25 9.71875 -0.0507812 9.125 0.0625 C 8.53125 0.1875 7.832031 0.25 7.03125 0.25 C 5.382812 0.25 4.195312 -0.148438 3.46875 -0.953125 C 2.738281 -1.765625 2.375 -3.003906 2.375 -4.671875 L 2.375 -10.515625 L 0.65625 -10.515625 L 0.65625 -12.515625 L 2.84375 -14.0625 L 4.109375 -17.03125 L 7.3125 -17.03125 L 7.3125 -14.1875 L 10.796875 -14.1875 L 10.796875 -10.515625 L 7.3125 -10.515625 L 7.3125 -5 C 7.3125 -4.082031 7.753906 -3.625 8.640625 -3.625 Z M 8.640625 -3.625 "/></g></g></g><g fill="rgb(100%, 100%, 100%)" fill-opacity="1"><g transform="translate(651.671282, 25.312459)"><g><path d="M 15.25 -7.125 C 15.25 -4.800781 14.625 -2.988281 13.375 -1.6875 C 12.125 -0.394531 10.375 0.25 8.125 0.25 C 5.96875 0.25 4.253906 -0.410156 2.984375 -1.734375 C 1.710938 -3.066406 1.078125 -4.863281 1.078125 -7.125 C 1.078125 -9.4375 1.703125 -11.234375 2.953125 -12.515625 C 4.203125 -13.796875 5.953125 -14.4375 8.203125 -14.4375 C 9.597656 -14.4375 10.828125 -14.140625 11.890625 -13.546875 C 12.960938 -12.960938 13.789062 -12.113281 14.375 -11 C 14.957031 -9.894531 15.25 -8.601562 15.25 -7.125 Z M 6.046875 -7.125 C 6.046875 -5.90625 6.207031 -4.972656 6.53125 -4.328125 C 6.863281 -3.691406 7.414062 -3.375 8.1875 -3.375 C 8.945312 -3.375 9.484375 -3.691406 9.796875 -4.328125 C 10.109375 -4.972656 10.265625 -5.90625 10.265625 -7.125 C 10.265625 -8.332031 10.101562 -9.242188 9.78125 -9.859375 C 9.46875 -10.484375 8.925781 -10.796875 8.15625 -10.796875 C 7.40625 -10.796875 6.863281 -10.488281 6.53125 -9.875 C 6.207031 -9.257812 6.046875 -8.34375 6.046875 -7.125 Z M 6.046875 -7.125 "/></g></g></g></svg>