<svg xmlns="http://www.w3.org/2000/svg" xmlns:xlink="http://www.w3.org/1999/xlink" width="200" zoomAndPan="magnify" viewBox="0 0 150 30.000001" height="40" preserveAspectRatio="xMidYMid meet" version="1.0"><defs><g><g id="id1"/></g></defs><g fill="rgb(100%, 100%, 100%)" fill-opacity="1"><g transform="translate(20.020159, 12.338712)"><g><path d="M 5.265625 -2.09375 C 5.265625 -1.664062 5.15625 -1.285156 4.9375 -0.953125 C 4.71875 -0.617188 4.398438 -0.359375 3.984375 -0.171875 C 3.578125 0.00390625 3.101562 0.09375 2.5625 0.09375 C 2.09375 0.09375 1.703125 0.0625 1.390625 0 C 1.085938 -0.0625 0.765625 -0.175781 0.421875 -0.34375 L 0.421875 -2 C 0.773438 -1.820312 1.144531 -1.679688 1.53125 -1.578125 C 1.914062 -1.472656 2.269531 -1.421875 2.59375 -1.421875 C 2.875 -1.421875 3.078125 -1.46875 3.203125 -1.5625 C 3.328125 -1.65625 3.390625 -1.78125 3.390625 -1.9375 C 3.390625 -2.03125 3.363281 -2.113281 3.3125 -2.1875 C 3.257812 -2.257812 3.175781 -2.328125 3.0625 -2.390625 C 2.945312 -2.460938 2.644531 -2.613281 2.15625 -2.84375 C 1.695312 -3.050781 1.351562 -3.25 1.125 -3.4375 C 0.90625 -3.625 0.738281 -3.84375 0.625 -4.09375 C 0.519531 -4.34375 0.46875 -4.640625 0.46875 -4.984375 C 0.46875 -5.617188 0.695312 -6.113281 1.15625 -6.46875 C 1.625 -6.820312 2.265625 -7 3.078125 -7 C 3.785156 -7 4.515625 -6.832031 5.265625 -6.5 L 4.6875 -5.0625 C 4.039062 -5.363281 3.484375 -5.515625 3.015625 -5.515625 C 2.773438 -5.515625 2.597656 -5.46875 2.484375 -5.375 C 2.378906 -5.289062 2.328125 -5.1875 2.328125 -5.0625 C 2.328125 -4.925781 2.394531 -4.804688 2.53125 -4.703125 C 2.675781 -4.597656 3.054688 -4.40625 3.671875 -4.125 C 4.265625 -3.851562 4.675781 -3.5625 4.90625 -3.25 C 5.144531 -2.945312 5.265625 -2.5625 5.265625 -2.09375 Z M 5.265625 -2.09375 "/></g></g></g><g fill="rgb(100%, 100%, 100%)" fill-opacity="1"><g transform="translate(25.603284, 12.338712)"><g><path d="M 2.5 0 L 0.640625 0 L 0.640625 -5.34375 L 2.5 -5.34375 Z M 0.59375 -6.6875 C 0.59375 -6.957031 0.671875 -7.160156 0.828125 -7.296875 C 0.984375 -7.429688 1.234375 -7.5 1.578125 -7.5 C 1.921875 -7.5 2.171875 -7.429688 2.328125 -7.296875 C 2.484375 -7.160156 2.5625 -6.957031 2.5625 -6.6875 C 2.5625 -6.144531 2.234375 -5.875 1.578125 -5.875 C 0.921875 -5.875 0.59375 -6.144531 0.59375 -6.6875 Z M 0.59375 -6.6875 "/></g></g></g><g fill="rgb(100%, 100%, 100%)" fill-opacity="1"><g transform="translate(28.749106, 12.338712)"><g><path d="M 7.203125 0 L 7.203125 -2.90625 C 7.203125 -3.269531 7.148438 -3.539062 7.046875 -3.71875 C 6.953125 -3.90625 6.800781 -4 6.59375 -4 C 6.300781 -4 6.085938 -3.875 5.953125 -3.625 C 5.828125 -3.382812 5.765625 -3.007812 5.765625 -2.5 L 5.765625 0 L 3.921875 0 L 3.921875 -2.90625 C 3.921875 -3.269531 3.867188 -3.539062 3.765625 -3.71875 C 3.671875 -3.90625 3.519531 -4 3.3125 -4 C 3.019531 -4 2.804688 -3.867188 2.671875 -3.609375 C 2.546875 -3.347656 2.484375 -2.925781 2.484375 -2.34375 L 2.484375 0 L 0.640625 0 L 0.640625 -5.34375 L 2.03125 -5.34375 L 2.265625 -4.6875 L 2.375 -4.6875 C 2.507812 -4.9375 2.710938 -5.125 2.984375 -5.25 C 3.253906 -5.375 3.5625 -5.4375 3.90625 -5.4375 C 4.675781 -5.4375 5.21875 -5.203125 5.53125 -4.734375 L 5.671875 -4.734375 C 5.828125 -4.960938 6.035156 -5.132812 6.296875 -5.25 C 6.566406 -5.375 6.867188 -5.4375 7.203125 -5.4375 C 7.828125 -5.4375 8.289062 -5.273438 8.59375 -4.953125 C 8.894531 -4.628906 9.046875 -4.140625 9.046875 -3.484375 L 9.046875 0 Z M 7.203125 0 "/></g></g></g><g fill="rgb(100%, 100%, 100%)" fill-opacity="1"><g transform="translate(38.422745, 12.338712)"><g><path d="M 3.84375 0.09375 C 3.570312 0.09375 3.328125 0.0507812 3.109375 -0.03125 C 2.898438 -0.125 2.691406 -0.289062 2.484375 -0.53125 L 2.40625 -0.53125 C 2.457031 -0.15625 2.484375 0.078125 2.484375 0.171875 L 2.484375 2.328125 L 0.640625 2.328125 L 0.640625 -5.34375 L 2.140625 -5.34375 L 2.40625 -4.671875 L 2.484375 -4.671875 C 2.828125 -5.179688 3.300781 -5.4375 3.90625 -5.4375 C 4.5 -5.4375 4.960938 -5.191406 5.296875 -4.703125 C 5.628906 -4.210938 5.796875 -3.539062 5.796875 -2.6875 C 5.796875 -1.820312 5.617188 -1.140625 5.265625 -0.640625 C 4.921875 -0.148438 4.445312 0.09375 3.84375 0.09375 Z M 3.234375 -4 C 2.960938 -4 2.769531 -3.898438 2.65625 -3.703125 C 2.550781 -3.515625 2.492188 -3.226562 2.484375 -2.84375 L 2.484375 -2.703125 C 2.484375 -2.234375 2.546875 -1.894531 2.671875 -1.6875 C 2.796875 -1.488281 2.988281 -1.390625 3.25 -1.390625 C 3.488281 -1.390625 3.660156 -1.488281 3.765625 -1.6875 C 3.867188 -1.894531 3.921875 -2.234375 3.921875 -2.703125 C 3.921875 -3.160156 3.867188 -3.488281 3.765625 -3.6875 C 3.660156 -3.894531 3.484375 -4 3.234375 -4 Z M 3.234375 -4 "/></g></g></g><g fill="rgb(100%, 100%, 100%)" fill-opacity="1"><g transform="translate(44.643543, 12.338712)"><g><path d="M 2.484375 0 L 0.640625 0 L 0.640625 -7.34375 L 2.484375 -7.34375 Z M 2.484375 0 "/></g></g></g><g fill="rgb(100%, 100%, 100%)" fill-opacity="1"><g transform="translate(47.770472, 12.338712)"><g><path d="M 3.21875 0.09375 C 2.332031 0.09375 1.640625 -0.140625 1.140625 -0.609375 C 0.648438 -1.085938 0.40625 -1.765625 0.40625 -2.640625 C 0.40625 -3.546875 0.632812 -4.238281 1.09375 -4.71875 C 1.550781 -5.195312 2.203125 -5.4375 3.046875 -5.4375 C 3.847656 -5.4375 4.46875 -5.226562 4.90625 -4.8125 C 5.351562 -4.394531 5.578125 -3.789062 5.578125 -3 L 5.578125 -2.171875 L 2.265625 -2.171875 C 2.285156 -1.878906 2.394531 -1.644531 2.59375 -1.46875 C 2.800781 -1.300781 3.082031 -1.21875 3.4375 -1.21875 C 3.757812 -1.21875 4.054688 -1.25 4.328125 -1.3125 C 4.609375 -1.375 4.90625 -1.476562 5.21875 -1.625 L 5.21875 -0.296875 C 4.925781 -0.148438 4.625 -0.0507812 4.3125 0 C 4.007812 0.0625 3.644531 0.09375 3.21875 0.09375 Z M 3.109375 -4.1875 C 2.890625 -4.1875 2.707031 -4.117188 2.5625 -3.984375 C 2.414062 -3.847656 2.332031 -3.632812 2.3125 -3.34375 L 3.890625 -3.34375 C 3.890625 -3.59375 3.816406 -3.796875 3.671875 -3.953125 C 3.535156 -4.109375 3.347656 -4.1875 3.109375 -4.1875 Z M 3.109375 -4.1875 "/></g></g></g><g fill="rgb(100%, 100%, 100%)" fill-opacity="1"><g transform="translate(53.750368, 12.338712)"><g><path d="M 4.765625 -1.640625 C 4.765625 -1.066406 4.566406 -0.632812 4.171875 -0.34375 C 3.785156 -0.0507812 3.226562 0.09375 2.5 0.09375 C 2.101562 0.09375 1.757812 0.0703125 1.46875 0.03125 C 1.175781 -0.0078125 0.878906 -0.0859375 0.578125 -0.203125 L 0.578125 -1.6875 C 0.859375 -1.5625 1.171875 -1.457031 1.515625 -1.375 C 1.859375 -1.289062 2.160156 -1.25 2.421875 -1.25 C 2.828125 -1.25 3.03125 -1.335938 3.03125 -1.515625 C 3.03125 -1.609375 2.972656 -1.691406 2.859375 -1.765625 C 2.742188 -1.847656 2.421875 -1.992188 1.890625 -2.203125 C 1.390625 -2.398438 1.039062 -2.628906 0.84375 -2.890625 C 0.65625 -3.148438 0.5625 -3.476562 0.5625 -3.875 C 0.5625 -4.363281 0.753906 -4.742188 1.140625 -5.015625 C 1.523438 -5.296875 2.066406 -5.4375 2.765625 -5.4375 C 3.117188 -5.4375 3.453125 -5.398438 3.765625 -5.328125 C 4.078125 -5.253906 4.398438 -5.140625 4.734375 -4.984375 L 4.234375 -3.796875 C 3.984375 -3.910156 3.71875 -4.003906 3.4375 -4.078125 C 3.164062 -4.160156 2.945312 -4.203125 2.78125 -4.203125 C 2.476562 -4.203125 2.328125 -4.125 2.328125 -3.96875 C 2.328125 -3.882812 2.378906 -3.804688 2.484375 -3.734375 C 2.585938 -3.671875 2.890625 -3.539062 3.390625 -3.34375 C 3.765625 -3.1875 4.046875 -3.035156 4.234375 -2.890625 C 4.421875 -2.742188 4.554688 -2.570312 4.640625 -2.375 C 4.722656 -2.175781 4.765625 -1.929688 4.765625 -1.640625 Z M 4.765625 -1.640625 "/></g></g></g><g fill="rgb(100%, 100%, 100%)" fill-opacity="1"><g transform="translate(58.908382, 12.338712)"><g/></g></g><g fill="rgb(100%, 100%, 100%)" fill-opacity="1"><g transform="translate(61.421261, 12.338712)"><g><path d="M 4.625 -6.90625 L 6.703125 -6.90625 L 4.453125 0 L 2.25 0 L 0 -6.90625 L 2.09375 -6.90625 L 3.03125 -3.40625 C 3.226562 -2.625 3.335938 -2.082031 3.359375 -1.78125 C 3.378906 -2 3.421875 -2.273438 3.484375 -2.609375 C 3.554688 -2.941406 3.617188 -3.203125 3.671875 -3.390625 Z M 4.625 -6.90625 "/></g></g></g><g fill="rgb(100%, 100%, 100%)" fill-opacity="1"><g transform="translate(68.133298, 12.338712)"><g><path d="M 2.5 0 L 0.640625 0 L 0.640625 -5.34375 L 2.5 -5.34375 Z M 0.59375 -6.6875 C 0.59375 -6.957031 0.671875 -7.160156 0.828125 -7.296875 C 0.984375 -7.429688 1.234375 -7.5 1.578125 -7.5 C 1.921875 -7.5 2.171875 -7.429688 2.328125 -7.296875 C 2.484375 -7.160156 2.5625 -6.957031 2.5625 -6.6875 C 2.5625 -6.144531 2.234375 -5.875 1.578125 -5.875 C 0.921875 -5.875 0.59375 -6.144531 0.59375 -6.6875 Z M 0.59375 -6.6875 "/></g></g></g><g fill="rgb(100%, 100%, 100%)" fill-opacity="1"><g transform="translate(71.27912, 12.338712)"><g><path d="M 3.265625 -1.359375 C 3.503906 -1.359375 3.800781 -1.421875 4.15625 -1.546875 L 4.15625 -0.203125 C 3.90625 -0.0976562 3.664062 -0.0234375 3.4375 0.015625 C 3.21875 0.0664062 2.957031 0.09375 2.65625 0.09375 C 2.03125 0.09375 1.578125 -0.0546875 1.296875 -0.359375 C 1.023438 -0.660156 0.890625 -1.128906 0.890625 -1.765625 L 0.890625 -3.96875 L 0.25 -3.96875 L 0.25 -4.71875 L 1.078125 -5.296875 L 1.546875 -6.421875 L 2.765625 -6.421875 L 2.765625 -5.34375 L 4.078125 -5.34375 L 4.078125 -3.96875 L 2.765625 -3.96875 L 2.765625 -1.890625 C 2.765625 -1.535156 2.929688 -1.359375 3.265625 -1.359375 Z M 3.265625 -1.359375 "/></g></g></g><g fill="rgb(100%, 100%, 100%)" fill-opacity="1"><g transform="translate(75.728617, 12.338712)"><g><path d="M 4.125 0 L 3.765625 -0.703125 L 3.734375 -0.703125 C 3.484375 -0.398438 3.226562 -0.191406 2.96875 -0.078125 C 2.71875 0.0351562 2.382812 0.09375 1.96875 0.09375 C 1.46875 0.09375 1.070312 -0.0546875 0.78125 -0.359375 C 0.488281 -0.660156 0.34375 -1.085938 0.34375 -1.640625 C 0.34375 -2.203125 0.539062 -2.625 0.9375 -2.90625 C 1.34375 -3.1875 1.921875 -3.34375 2.671875 -3.375 L 3.5625 -3.40625 L 3.5625 -3.484375 C 3.5625 -3.921875 3.34375 -4.140625 2.90625 -4.140625 C 2.519531 -4.140625 2.023438 -4.007812 1.421875 -3.75 L 0.890625 -4.96875 C 1.515625 -5.28125 2.300781 -5.4375 3.25 -5.4375 C 3.9375 -5.4375 4.46875 -5.265625 4.84375 -4.921875 C 5.21875 -4.585938 5.40625 -4.117188 5.40625 -3.515625 L 5.40625 0 Z M 2.765625 -1.203125 C 2.984375 -1.203125 3.171875 -1.273438 3.328125 -1.421875 C 3.484375 -1.566406 3.5625 -1.75 3.5625 -1.96875 L 3.5625 -2.390625 L 3.140625 -2.375 C 2.535156 -2.351562 2.234375 -2.128906 2.234375 -1.703125 C 2.234375 -1.367188 2.410156 -1.203125 2.765625 -1.203125 Z M 2.765625 -1.203125 "/></g></g></g><g fill="rgb(100%, 100%, 100%)" fill-opacity="1"><g transform="translate(81.755747, 12.338712)"><g><path d="M 7.203125 0 L 7.203125 -2.90625 C 7.203125 -3.269531 7.148438 -3.539062 7.046875 -3.71875 C 6.953125 -3.90625 6.800781 -4 6.59375 -4 C 6.300781 -4 6.085938 -3.875 5.953125 -3.625 C 5.828125 -3.382812 5.765625 -3.007812 5.765625 -2.5 L 5.765625 0 L 3.921875 0 L 3.921875 -2.90625 C 3.921875 -3.269531 3.867188 -3.539062 3.765625 -3.71875 C 3.671875 -3.90625 3.519531 -4 3.3125 -4 C 3.019531 -4 2.804688 -3.867188 2.671875 -3.609375 C 2.546875 -3.347656 2.484375 -2.925781 2.484375 -2.34375 L 2.484375 0 L 0.640625 0 L 0.640625 -5.34375 L 2.03125 -5.34375 L 2.265625 -4.6875 L 2.375 -4.6875 C 2.507812 -4.9375 2.710938 -5.125 2.984375 -5.25 C 3.253906 -5.375 3.5625 -5.4375 3.90625 -5.4375 C 4.675781 -5.4375 5.21875 -5.203125 5.53125 -4.734375 L 5.671875 -4.734375 C 5.828125 -4.960938 6.035156 -5.132812 6.296875 -5.25 C 6.566406 -5.375 6.867188 -5.4375 7.203125 -5.4375 C 7.828125 -5.4375 8.289062 -5.273438 8.59375 -4.953125 C 8.894531 -4.628906 9.046875 -4.140625 9.046875 -3.484375 L 9.046875 0 Z M 7.203125 0 "/></g></g></g><g fill="rgb(100%, 100%, 100%)" fill-opacity="1"><g transform="translate(91.429386, 12.338712)"><g><path d="M 2.5 0 L 0.640625 0 L 0.640625 -5.34375 L 2.5 -5.34375 Z M 0.59375 -6.6875 C 0.59375 -6.957031 0.671875 -7.160156 0.828125 -7.296875 C 0.984375 -7.429688 1.234375 -7.5 1.578125 -7.5 C 1.921875 -7.5 2.171875 -7.429688 2.328125 -7.296875 C 2.484375 -7.160156 2.5625 -6.957031 2.5625 -6.6875 C 2.5625 -6.144531 2.234375 -5.875 1.578125 -5.875 C 0.921875 -5.875 0.59375 -6.144531 0.59375 -6.6875 Z M 0.59375 -6.6875 "/></g></g></g><g fill="rgb(100%, 100%, 100%)" fill-opacity="1"><g transform="translate(94.575208, 12.338712)"><g><path d="M 4.015625 0 L 4.015625 -2.921875 C 4.015625 -3.273438 3.960938 -3.539062 3.859375 -3.71875 C 3.753906 -3.90625 3.59375 -4 3.375 -4 C 3.0625 -4 2.832031 -3.875 2.6875 -3.625 C 2.550781 -3.375 2.484375 -2.945312 2.484375 -2.34375 L 2.484375 0 L 0.640625 0 L 0.640625 -5.34375 L 2.03125 -5.34375 L 2.265625 -4.6875 L 2.375 -4.6875 C 2.53125 -4.9375 2.742188 -5.125 3.015625 -5.25 C 3.296875 -5.375 3.617188 -5.4375 3.984375 -5.4375 C 4.578125 -5.4375 5.035156 -5.265625 5.359375 -4.921875 C 5.691406 -4.585938 5.859375 -4.109375 5.859375 -3.484375 L 5.859375 0 Z M 4.015625 0 "/></g></g></g><g fill="rgb(100%, 100%, 100%)" fill-opacity="1"><g transform="translate(101.055791, 12.338712)"><g><path d="M 4.125 0 L 3.765625 -0.703125 L 3.734375 -0.703125 C 3.484375 -0.398438 3.226562 -0.191406 2.96875 -0.078125 C 2.71875 0.0351562 2.382812 0.09375 1.96875 0.09375 C 1.46875 0.09375 1.070312 -0.0546875 0.78125 -0.359375 C 0.488281 -0.660156 0.34375 -1.085938 0.34375 -1.640625 C 0.34375 -2.203125 0.539062 -2.625 0.9375 -2.90625 C 1.34375 -3.1875 1.921875 -3.34375 2.671875 -3.375 L 3.5625 -3.40625 L 3.5625 -3.484375 C 3.5625 -3.921875 3.34375 -4.140625 2.90625 -4.140625 C 2.519531 -4.140625 2.023438 -4.007812 1.421875 -3.75 L 0.890625 -4.96875 C 1.515625 -5.28125 2.300781 -5.4375 3.25 -5.4375 C 3.9375 -5.4375 4.46875 -5.265625 4.84375 -4.921875 C 5.21875 -4.585938 5.40625 -4.117188 5.40625 -3.515625 L 5.40625 0 Z M 2.765625 -1.203125 C 2.984375 -1.203125 3.171875 -1.273438 3.328125 -1.421875 C 3.484375 -1.566406 3.5625 -1.75 3.5625 -1.96875 L 3.5625 -2.390625 L 3.140625 -2.375 C 2.535156 -2.351562 2.234375 -2.128906 2.234375 -1.703125 C 2.234375 -1.367188 2.410156 -1.203125 2.765625 -1.203125 Z M 2.765625 -1.203125 "/></g></g></g><g fill="rgb(100%, 100%, 100%)" fill-opacity="1"><g transform="translate(107.082921, 12.338712)"><g/></g></g><g fill="rgb(100%, 100%, 100%)" fill-opacity="1"><g transform="translate(109.5958, 12.338712)"><g><path d="M 2.296875 0.09375 C 1.921875 0.09375 1.585938 -0.015625 1.296875 -0.234375 C 1.015625 -0.453125 0.796875 -0.769531 0.640625 -1.1875 C 0.484375 -1.613281 0.40625 -2.109375 0.40625 -2.671875 C 0.40625 -3.535156 0.578125 -4.210938 0.921875 -4.703125 C 1.273438 -5.191406 1.757812 -5.4375 2.375 -5.4375 C 2.664062 -5.4375 2.925781 -5.378906 3.15625 -5.265625 C 3.382812 -5.148438 3.585938 -4.945312 3.765625 -4.65625 L 3.8125 -4.65625 C 3.75 -5.082031 3.71875 -5.503906 3.71875 -5.921875 L 3.71875 -7.34375 L 5.578125 -7.34375 L 5.578125 0 L 4.1875 0 L 3.796875 -0.671875 L 3.71875 -0.671875 C 3.40625 -0.160156 2.929688 0.09375 2.296875 0.09375 Z M 3.0625 -1.359375 C 3.351562 -1.359375 3.554688 -1.453125 3.671875 -1.640625 C 3.796875 -1.828125 3.863281 -2.113281 3.875 -2.5 L 3.875 -2.65625 C 3.875 -3.125 3.804688 -3.457031 3.671875 -3.65625 C 3.535156 -3.851562 3.320312 -3.953125 3.03125 -3.953125 C 2.789062 -3.953125 2.601562 -3.835938 2.46875 -3.609375 C 2.332031 -3.378906 2.265625 -3.054688 2.265625 -2.640625 C 2.265625 -2.222656 2.332031 -1.90625 2.46875 -1.6875 C 2.601562 -1.46875 2.800781 -1.359375 3.0625 -1.359375 Z M 3.0625 -1.359375 "/></g></g></g><g fill="rgb(100%, 100%, 100%)" fill-opacity="1"><g transform="translate(115.816598, 12.338712)"><g><path d="M 3.21875 0.09375 C 2.332031 0.09375 1.640625 -0.140625 1.140625 -0.609375 C 0.648438 -1.085938 0.40625 -1.765625 0.40625 -2.640625 C 0.40625 -3.546875 0.632812 -4.238281 1.09375 -4.71875 C 1.550781 -5.195312 2.203125 -5.4375 3.046875 -5.4375 C 3.847656 -5.4375 4.46875 -5.226562 4.90625 -4.8125 C 5.351562 -4.394531 5.578125 -3.789062 5.578125 -3 L 5.578125 -2.171875 L 2.265625 -2.171875 C 2.285156 -1.878906 2.394531 -1.644531 2.59375 -1.46875 C 2.800781 -1.300781 3.082031 -1.21875 3.4375 -1.21875 C 3.757812 -1.21875 4.054688 -1.25 4.328125 -1.3125 C 4.609375 -1.375 4.90625 -1.476562 5.21875 -1.625 L 5.21875 -0.296875 C 4.925781 -0.148438 4.625 -0.0507812 4.3125 0 C 4.007812 0.0625 3.644531 0.09375 3.21875 0.09375 Z M 3.109375 -4.1875 C 2.890625 -4.1875 2.707031 -4.117188 2.5625 -3.984375 C 2.414062 -3.847656 2.332031 -3.632812 2.3125 -3.34375 L 3.890625 -3.34375 C 3.890625 -3.59375 3.816406 -3.796875 3.671875 -3.953125 C 3.535156 -4.109375 3.347656 -4.1875 3.109375 -4.1875 Z M 3.109375 -4.1875 "/></g></g></g><g fill="rgb(100%, 100%, 100%)" fill-opacity="1"><g transform="translate(121.796494, 12.338712)"><g/></g></g><g fill="rgb(100%, 100%, 100%)" fill-opacity="1"><g transform="translate(124.309373, 12.338712)"><g><path d="M 0.328125 -2.921875 C 0.328125 -3.878906 0.460938 -4.65625 0.734375 -5.25 C 1.015625 -5.851562 1.421875 -6.296875 1.953125 -6.578125 C 2.492188 -6.859375 3.160156 -7 3.953125 -7 C 4.234375 -7 4.5625 -6.972656 4.9375 -6.921875 L 4.9375 -5.46875 C 4.613281 -5.519531 4.269531 -5.546875 3.90625 -5.546875 C 3.28125 -5.546875 2.8125 -5.410156 2.5 -5.140625 C 2.195312 -4.867188 2.035156 -4.421875 2.015625 -3.796875 L 2.0625 -3.796875 C 2.351562 -4.335938 2.8125 -4.609375 3.4375 -4.609375 C 4.050781 -4.609375 4.523438 -4.410156 4.859375 -4.015625 C 5.203125 -3.617188 5.375 -3.066406 5.375 -2.359375 C 5.375 -1.597656 5.15625 -1 4.71875 -0.5625 C 4.289062 -0.125 3.695312 0.09375 2.9375 0.09375 C 2.113281 0.09375 1.472656 -0.171875 1.015625 -0.703125 C 0.554688 -1.234375 0.328125 -1.972656 0.328125 -2.921875 Z M 2.890625 -1.390625 C 3.085938 -1.390625 3.25 -1.460938 3.375 -1.609375 C 3.5 -1.753906 3.5625 -1.992188 3.5625 -2.328125 C 3.5625 -2.890625 3.34375 -3.171875 2.90625 -3.171875 C 2.695312 -3.171875 2.523438 -3.097656 2.390625 -2.953125 C 2.253906 -2.804688 2.1875 -2.628906 2.1875 -2.421875 C 2.1875 -2.117188 2.25 -1.867188 2.375 -1.671875 C 2.507812 -1.484375 2.679688 -1.390625 2.890625 -1.390625 Z M 2.890625 -1.390625 "/></g></g></g><g fill="rgb(100%, 100%, 100%)" fill-opacity="1"><g transform="translate(6.581399, 23.225808)"><g><path d="M 0.75 0 L 0.75 -6.90625 L 2.625 -6.90625 L 2.625 0 Z M 0.75 0 "/></g></g></g><g fill="rgb(100%, 100%, 100%)" fill-opacity="1"><g transform="translate(9.949229, 23.225808)"><g><path d="M 4.015625 0 L 4.015625 -2.921875 C 4.015625 -3.273438 3.960938 -3.539062 3.859375 -3.71875 C 3.753906 -3.90625 3.59375 -4 3.375 -4 C 3.0625 -4 2.832031 -3.875 2.6875 -3.625 C 2.550781 -3.375 2.484375 -2.945312 2.484375 -2.34375 L 2.484375 0 L 0.640625 0 L 0.640625 -5.34375 L 2.03125 -5.34375 L 2.265625 -4.6875 L 2.375 -4.6875 C 2.53125 -4.9375 2.742188 -5.125 3.015625 -5.25 C 3.296875 -5.375 3.617188 -5.4375 3.984375 -5.4375 C 4.578125 -5.4375 5.035156 -5.265625 5.359375 -4.921875 C 5.691406 -4.585938 5.859375 -4.109375 5.859375 -3.484375 L 5.859375 0 Z M 4.015625 0 "/></g></g></g><g fill="rgb(100%, 100%, 100%)" fill-opacity="1"><g transform="translate(16.429811, 23.225808)"><g><path d="M 5.6875 -5.34375 L 5.6875 -4.453125 L 4.953125 -4.1875 C 5.054688 -4.007812 5.109375 -3.796875 5.109375 -3.546875 C 5.109375 -2.972656 4.90625 -2.523438 4.5 -2.203125 C 4.09375 -1.890625 3.488281 -1.734375 2.6875 -1.734375 C 2.488281 -1.734375 2.332031 -1.742188 2.21875 -1.765625 C 2.175781 -1.679688 2.15625 -1.609375 2.15625 -1.546875 C 2.15625 -1.453125 2.226562 -1.378906 2.375 -1.328125 C 2.519531 -1.273438 2.710938 -1.25 2.953125 -1.25 L 3.84375 -1.25 C 5.039062 -1.25 5.640625 -0.742188 5.640625 0.265625 C 5.640625 0.910156 5.359375 1.414062 4.796875 1.78125 C 4.242188 2.144531 3.46875 2.328125 2.46875 2.328125 C 1.707031 2.328125 1.117188 2.195312 0.703125 1.9375 C 0.296875 1.6875 0.09375 1.320312 0.09375 0.84375 C 0.09375 0.207031 0.488281 -0.203125 1.28125 -0.390625 C 1.113281 -0.453125 0.96875 -0.5625 0.84375 -0.71875 C 0.726562 -0.875 0.671875 -1.03125 0.671875 -1.1875 C 0.671875 -1.351562 0.71875 -1.5 0.8125 -1.625 C 0.90625 -1.75 1.097656 -1.898438 1.390625 -2.078125 C 1.109375 -2.203125 0.882812 -2.394531 0.71875 -2.65625 C 0.5625 -2.914062 0.484375 -3.234375 0.484375 -3.609375 C 0.484375 -4.191406 0.679688 -4.640625 1.078125 -4.953125 C 1.484375 -5.273438 2.050781 -5.4375 2.78125 -5.4375 C 2.882812 -5.4375 3.054688 -5.425781 3.296875 -5.40625 C 3.535156 -5.382812 3.710938 -5.363281 3.828125 -5.34375 Z M 1.65625 0.671875 C 1.65625 0.816406 1.734375 0.9375 1.890625 1.03125 C 2.054688 1.125 2.28125 1.171875 2.5625 1.171875 C 3 1.171875 3.351562 1.113281 3.625 1 C 3.894531 0.882812 4.03125 0.742188 4.03125 0.578125 C 4.03125 0.429688 3.945312 0.328125 3.78125 0.265625 C 3.625 0.210938 3.390625 0.1875 3.078125 0.1875 L 2.359375 0.1875 C 2.160156 0.1875 1.992188 0.234375 1.859375 0.328125 C 1.722656 0.421875 1.65625 0.535156 1.65625 0.671875 Z M 2.234375 -3.59375 C 2.234375 -3.050781 2.425781 -2.78125 2.8125 -2.78125 C 2.976562 -2.78125 3.109375 -2.847656 3.203125 -2.984375 C 3.304688 -3.117188 3.359375 -3.320312 3.359375 -3.59375 C 3.359375 -4.144531 3.175781 -4.421875 2.8125 -4.421875 C 2.425781 -4.421875 2.234375 -4.144531 2.234375 -3.59375 Z M 2.234375 -3.59375 "/></g></g></g><g fill="rgb(100%, 100%, 100%)" fill-opacity="1"><g transform="translate(22.291626, 23.225808)"><g><path d="M 3.875 -5.4375 C 4.03125 -5.4375 4.179688 -5.425781 4.328125 -5.40625 L 4.4375 -5.390625 L 4.265625 -3.640625 C 4.109375 -3.679688 3.898438 -3.703125 3.640625 -3.703125 C 3.234375 -3.703125 2.9375 -3.609375 2.75 -3.421875 C 2.570312 -3.242188 2.484375 -2.976562 2.484375 -2.625 L 2.484375 0 L 0.640625 0 L 0.640625 -5.34375 L 2.015625 -5.34375 L 2.296875 -4.5 L 2.390625 -4.5 C 2.546875 -4.78125 2.757812 -5.003906 3.03125 -5.171875 C 3.3125 -5.347656 3.59375 -5.4375 3.875 -5.4375 Z M 3.875 -5.4375 "/></g></g></g><g fill="rgb(100%, 100%, 100%)" fill-opacity="1"><g transform="translate(26.830874, 23.225808)"><g><path d="M 3.21875 0.09375 C 2.332031 0.09375 1.640625 -0.140625 1.140625 -0.609375 C 0.648438 -1.085938 0.40625 -1.765625 0.40625 -2.640625 C 0.40625 -3.546875 0.632812 -4.238281 1.09375 -4.71875 C 1.550781 -5.195312 2.203125 -5.4375 3.046875 -5.4375 C 3.847656 -5.4375 4.46875 -5.226562 4.90625 -4.8125 C 5.351562 -4.394531 5.578125 -3.789062 5.578125 -3 L 5.578125 -2.171875 L 2.265625 -2.171875 C 2.285156 -1.878906 2.394531 -1.644531 2.59375 -1.46875 C 2.800781 -1.300781 3.082031 -1.21875 3.4375 -1.21875 C 3.757812 -1.21875 4.054688 -1.25 4.328125 -1.3125 C 4.609375 -1.375 4.90625 -1.476562 5.21875 -1.625 L 5.21875 -0.296875 C 4.925781 -0.148438 4.625 -0.0507812 4.3125 0 C 4.007812 0.0625 3.644531 0.09375 3.21875 0.09375 Z M 3.109375 -4.1875 C 2.890625 -4.1875 2.707031 -4.117188 2.5625 -3.984375 C 2.414062 -3.847656 2.332031 -3.632812 2.3125 -3.34375 L 3.890625 -3.34375 C 3.890625 -3.59375 3.816406 -3.796875 3.671875 -3.953125 C 3.535156 -4.109375 3.347656 -4.1875 3.109375 -4.1875 Z M 3.109375 -4.1875 "/></g></g></g><g fill="rgb(100%, 100%, 100%)" fill-opacity="1"><g transform="translate(32.81077, 23.225808)"><g><path d="M 2.296875 0.09375 C 1.921875 0.09375 1.585938 -0.015625 1.296875 -0.234375 C 1.015625 -0.453125 0.796875 -0.769531 0.640625 -1.1875 C 0.484375 -1.613281 0.40625 -2.109375 0.40625 -2.671875 C 0.40625 -3.535156 0.578125 -4.210938 0.921875 -4.703125 C 1.273438 -5.191406 1.757812 -5.4375 2.375 -5.4375 C 2.664062 -5.4375 2.925781 -5.378906 3.15625 -5.265625 C 3.382812 -5.148438 3.585938 -4.945312 3.765625 -4.65625 L 3.8125 -4.65625 C 3.75 -5.082031 3.71875 -5.503906 3.71875 -5.921875 L 3.71875 -7.34375 L 5.578125 -7.34375 L 5.578125 0 L 4.1875 0 L 3.796875 -0.671875 L 3.71875 -0.671875 C 3.40625 -0.160156 2.929688 0.09375 2.296875 0.09375 Z M 3.0625 -1.359375 C 3.351562 -1.359375 3.554688 -1.453125 3.671875 -1.640625 C 3.796875 -1.828125 3.863281 -2.113281 3.875 -2.5 L 3.875 -2.65625 C 3.875 -3.125 3.804688 -3.457031 3.671875 -3.65625 C 3.535156 -3.851562 3.320312 -3.953125 3.03125 -3.953125 C 2.789062 -3.953125 2.601562 -3.835938 2.46875 -3.609375 C 2.332031 -3.378906 2.265625 -3.054688 2.265625 -2.640625 C 2.265625 -2.222656 2.332031 -1.90625 2.46875 -1.6875 C 2.601562 -1.46875 2.800781 -1.359375 3.0625 -1.359375 Z M 3.0625 -1.359375 "/></g></g></g><g fill="rgb(100%, 100%, 100%)" fill-opacity="1"><g transform="translate(39.031568, 23.225808)"><g><path d="M 2.5 0 L 0.640625 0 L 0.640625 -5.34375 L 2.5 -5.34375 Z M 0.59375 -6.6875 C 0.59375 -6.957031 0.671875 -7.160156 0.828125 -7.296875 C 0.984375 -7.429688 1.234375 -7.5 1.578125 -7.5 C 1.921875 -7.5 2.171875 -7.429688 2.328125 -7.296875 C 2.484375 -7.160156 2.5625 -6.957031 2.5625 -6.6875 C 2.5625 -6.144531 2.234375 -5.875 1.578125 -5.875 C 0.921875 -5.875 0.59375 -6.144531 0.59375 -6.6875 Z M 0.59375 -6.6875 "/></g></g></g><g fill="rgb(100%, 100%, 100%)" fill-opacity="1"><g transform="translate(42.17739, 23.225808)"><g><path d="M 3.21875 0.09375 C 2.332031 0.09375 1.640625 -0.140625 1.140625 -0.609375 C 0.648438 -1.085938 0.40625 -1.765625 0.40625 -2.640625 C 0.40625 -3.546875 0.632812 -4.238281 1.09375 -4.71875 C 1.550781 -5.195312 2.203125 -5.4375 3.046875 -5.4375 C 3.847656 -5.4375 4.46875 -5.226562 4.90625 -4.8125 C 5.351562 -4.394531 5.578125 -3.789062 5.578125 -3 L 5.578125 -2.171875 L 2.265625 -2.171875 C 2.285156 -1.878906 2.394531 -1.644531 2.59375 -1.46875 C 2.800781 -1.300781 3.082031 -1.21875 3.4375 -1.21875 C 3.757812 -1.21875 4.054688 -1.25 4.328125 -1.3125 C 4.609375 -1.375 4.90625 -1.476562 5.21875 -1.625 L 5.21875 -0.296875 C 4.925781 -0.148438 4.625 -0.0507812 4.3125 0 C 4.007812 0.0625 3.644531 0.09375 3.21875 0.09375 Z M 3.109375 -4.1875 C 2.890625 -4.1875 2.707031 -4.117188 2.5625 -3.984375 C 2.414062 -3.847656 2.332031 -3.632812 2.3125 -3.34375 L 3.890625 -3.34375 C 3.890625 -3.59375 3.816406 -3.796875 3.671875 -3.953125 C 3.535156 -4.109375 3.347656 -4.1875 3.109375 -4.1875 Z M 3.109375 -4.1875 "/></g></g></g><g fill="rgb(100%, 100%, 100%)" fill-opacity="1"><g transform="translate(48.157286, 23.225808)"><g><path d="M 4.015625 0 L 4.015625 -2.921875 C 4.015625 -3.273438 3.960938 -3.539062 3.859375 -3.71875 C 3.753906 -3.90625 3.59375 -4 3.375 -4 C 3.0625 -4 2.832031 -3.875 2.6875 -3.625 C 2.550781 -3.375 2.484375 -2.945312 2.484375 -2.34375 L 2.484375 0 L 0.640625 0 L 0.640625 -5.34375 L 2.03125 -5.34375 L 2.265625 -4.6875 L 2.375 -4.6875 C 2.53125 -4.9375 2.742188 -5.125 3.015625 -5.25 C 3.296875 -5.375 3.617188 -5.4375 3.984375 -5.4375 C 4.578125 -5.4375 5.035156 -5.265625 5.359375 -4.921875 C 5.691406 -4.585938 5.859375 -4.109375 5.859375 -3.484375 L 5.859375 0 Z M 4.015625 0 "/></g></g></g><g fill="rgb(100%, 100%, 100%)" fill-opacity="1"><g transform="translate(54.637868, 23.225808)"><g><path d="M 3.265625 -1.359375 C 3.503906 -1.359375 3.800781 -1.421875 4.15625 -1.546875 L 4.15625 -0.203125 C 3.90625 -0.0976562 3.664062 -0.0234375 3.4375 0.015625 C 3.21875 0.0664062 2.957031 0.09375 2.65625 0.09375 C 2.03125 0.09375 1.578125 -0.0546875 1.296875 -0.359375 C 1.023438 -0.660156 0.890625 -1.128906 0.890625 -1.765625 L 0.890625 -3.96875 L 0.25 -3.96875 L 0.25 -4.71875 L 1.078125 -5.296875 L 1.546875 -6.421875 L 2.765625 -6.421875 L 2.765625 -5.34375 L 4.078125 -5.34375 L 4.078125 -3.96875 L 2.765625 -3.96875 L 2.765625 -1.890625 C 2.765625 -1.535156 2.929688 -1.359375 3.265625 -1.359375 Z M 3.265625 -1.359375 "/></g></g></g><g fill="rgb(100%, 100%, 100%)" fill-opacity="1"><g transform="translate(59.087364, 23.225808)"><g><path d="M 3.21875 0.09375 C 2.332031 0.09375 1.640625 -0.140625 1.140625 -0.609375 C 0.648438 -1.085938 0.40625 -1.765625 0.40625 -2.640625 C 0.40625 -3.546875 0.632812 -4.238281 1.09375 -4.71875 C 1.550781 -5.195312 2.203125 -5.4375 3.046875 -5.4375 C 3.847656 -5.4375 4.46875 -5.226562 4.90625 -4.8125 C 5.351562 -4.394531 5.578125 -3.789062 5.578125 -3 L 5.578125 -2.171875 L 2.265625 -2.171875 C 2.285156 -1.878906 2.394531 -1.644531 2.59375 -1.46875 C 2.800781 -1.300781 3.082031 -1.21875 3.4375 -1.21875 C 3.757812 -1.21875 4.054688 -1.25 4.328125 -1.3125 C 4.609375 -1.375 4.90625 -1.476562 5.21875 -1.625 L 5.21875 -0.296875 C 4.925781 -0.148438 4.625 -0.0507812 4.3125 0 C 4.007812 0.0625 3.644531 0.09375 3.21875 0.09375 Z M 3.109375 -4.1875 C 2.890625 -4.1875 2.707031 -4.117188 2.5625 -3.984375 C 2.414062 -3.847656 2.332031 -3.632812 2.3125 -3.34375 L 3.890625 -3.34375 C 3.890625 -3.59375 3.816406 -3.796875 3.671875 -3.953125 C 3.535156 -4.109375 3.347656 -4.1875 3.109375 -4.1875 Z M 3.109375 -4.1875 "/></g></g></g><g fill="rgb(100%, 100%, 100%)" fill-opacity="1"><g transform="translate(65.06726, 23.225808)"><g><path d="M 4.765625 -1.640625 C 4.765625 -1.066406 4.566406 -0.632812 4.171875 -0.34375 C 3.785156 -0.0507812 3.226562 0.09375 2.5 0.09375 C 2.101562 0.09375 1.757812 0.0703125 1.46875 0.03125 C 1.175781 -0.0078125 0.878906 -0.0859375 0.578125 -0.203125 L 0.578125 -1.6875 C 0.859375 -1.5625 1.171875 -1.457031 1.515625 -1.375 C 1.859375 -1.289062 2.160156 -1.25 2.421875 -1.25 C 2.828125 -1.25 3.03125 -1.335938 3.03125 -1.515625 C 3.03125 -1.609375 2.972656 -1.691406 2.859375 -1.765625 C 2.742188 -1.847656 2.421875 -1.992188 1.890625 -2.203125 C 1.390625 -2.398438 1.039062 -2.628906 0.84375 -2.890625 C 0.65625 -3.148438 0.5625 -3.476562 0.5625 -3.875 C 0.5625 -4.363281 0.753906 -4.742188 1.140625 -5.015625 C 1.523438 -5.296875 2.066406 -5.4375 2.765625 -5.4375 C 3.117188 -5.4375 3.453125 -5.398438 3.765625 -5.328125 C 4.078125 -5.253906 4.398438 -5.140625 4.734375 -4.984375 L 4.234375 -3.796875 C 3.984375 -3.910156 3.71875 -4.003906 3.4375 -4.078125 C 3.164062 -4.160156 2.945312 -4.203125 2.78125 -4.203125 C 2.476562 -4.203125 2.328125 -4.125 2.328125 -3.96875 C 2.328125 -3.882812 2.378906 -3.804688 2.484375 -3.734375 C 2.585938 -3.671875 2.890625 -3.539062 3.390625 -3.34375 C 3.765625 -3.1875 4.046875 -3.035156 4.234375 -2.890625 C 4.421875 -2.742188 4.554688 -2.570312 4.640625 -2.375 C 4.722656 -2.175781 4.765625 -1.929688 4.765625 -1.640625 Z M 4.765625 -1.640625 "/></g></g></g><g fill="rgb(100%, 100%, 100%)" fill-opacity="1"><g transform="translate(70.225275, 23.225808)"><g/></g></g><g fill="rgb(100%, 100%, 100%)" fill-opacity="1"><g transform="translate(72.738154, 23.225808)"><g><path d="M 6.609375 -3.59375 C 6.609375 -2.445312 6.289062 -1.5625 5.65625 -0.9375 C 5.019531 -0.3125 4.128906 0 2.984375 0 L 0.75 0 L 0.75 -6.90625 L 3.140625 -6.90625 C 4.242188 -6.90625 5.097656 -6.617188 5.703125 -6.046875 C 6.304688 -5.484375 6.609375 -4.664062 6.609375 -3.59375 Z M 4.671875 -3.53125 C 4.671875 -4.164062 4.546875 -4.632812 4.296875 -4.9375 C 4.046875 -5.238281 3.664062 -5.390625 3.15625 -5.390625 L 2.609375 -5.390625 L 2.609375 -1.53125 L 3.03125 -1.53125 C 3.59375 -1.53125 4.003906 -1.691406 4.265625 -2.015625 C 4.535156 -2.347656 4.671875 -2.851562 4.671875 -3.53125 Z M 4.671875 -3.53125 "/></g></g></g><g fill="rgb(100%, 100%, 100%)" fill-opacity="1"><g transform="translate(79.837514, 23.225808)"><g><path d="M 3.21875 0.09375 C 2.332031 0.09375 1.640625 -0.140625 1.140625 -0.609375 C 0.648438 -1.085938 0.40625 -1.765625 0.40625 -2.640625 C 0.40625 -3.546875 0.632812 -4.238281 1.09375 -4.71875 C 1.550781 -5.195312 2.203125 -5.4375 3.046875 -5.4375 C 3.847656 -5.4375 4.46875 -5.226562 4.90625 -4.8125 C 5.351562 -4.394531 5.578125 -3.789062 5.578125 -3 L 5.578125 -2.171875 L 2.265625 -2.171875 C 2.285156 -1.878906 2.394531 -1.644531 2.59375 -1.46875 C 2.800781 -1.300781 3.082031 -1.21875 3.4375 -1.21875 C 3.757812 -1.21875 4.054688 -1.25 4.328125 -1.3125 C 4.609375 -1.375 4.90625 -1.476562 5.21875 -1.625 L 5.21875 -0.296875 C 4.925781 -0.148438 4.625 -0.0507812 4.3125 0 C 4.007812 0.0625 3.644531 0.09375 3.21875 0.09375 Z M 3.109375 -4.1875 C 2.890625 -4.1875 2.707031 -4.117188 2.5625 -3.984375 C 2.414062 -3.847656 2.332031 -3.632812 2.3125 -3.34375 L 3.890625 -3.34375 C 3.890625 -3.59375 3.816406 -3.796875 3.671875 -3.953125 C 3.535156 -4.109375 3.347656 -4.1875 3.109375 -4.1875 Z M 3.109375 -4.1875 "/></g></g></g><g fill="rgb(100%, 100%, 100%)" fill-opacity="1"><g transform="translate(85.81741, 23.225808)"><g><path d="M 3.875 -5.4375 C 4.03125 -5.4375 4.179688 -5.425781 4.328125 -5.40625 L 4.4375 -5.390625 L 4.265625 -3.640625 C 4.109375 -3.679688 3.898438 -3.703125 3.640625 -3.703125 C 3.234375 -3.703125 2.9375 -3.609375 2.75 -3.421875 C 2.570312 -3.242188 2.484375 -2.976562 2.484375 -2.625 L 2.484375 0 L 0.640625 0 L 0.640625 -5.34375 L 2.015625 -5.34375 L 2.296875 -4.5 L 2.390625 -4.5 C 2.546875 -4.78125 2.757812 -5.003906 3.03125 -5.171875 C 3.3125 -5.347656 3.59375 -5.4375 3.875 -5.4375 Z M 3.875 -5.4375 "/></g></g></g><g fill="rgb(100%, 100%, 100%)" fill-opacity="1"><g transform="translate(90.356658, 23.225808)"><g><path d="M 3.875 -5.4375 C 4.03125 -5.4375 4.179688 -5.425781 4.328125 -5.40625 L 4.4375 -5.390625 L 4.265625 -3.640625 C 4.109375 -3.679688 3.898438 -3.703125 3.640625 -3.703125 C 3.234375 -3.703125 2.9375 -3.609375 2.75 -3.421875 C 2.570312 -3.242188 2.484375 -2.976562 2.484375 -2.625 L 2.484375 0 L 0.640625 0 L 0.640625 -5.34375 L 2.015625 -5.34375 L 2.296875 -4.5 L 2.390625 -4.5 C 2.546875 -4.78125 2.757812 -5.003906 3.03125 -5.171875 C 3.3125 -5.347656 3.59375 -5.4375 3.875 -5.4375 Z M 3.875 -5.4375 "/></g></g></g><g fill="rgb(100%, 100%, 100%)" fill-opacity="1"><g transform="translate(94.895905, 23.225808)"><g><path d="M 3.21875 0.09375 C 2.332031 0.09375 1.640625 -0.140625 1.140625 -0.609375 C 0.648438 -1.085938 0.40625 -1.765625 0.40625 -2.640625 C 0.40625 -3.546875 0.632812 -4.238281 1.09375 -4.71875 C 1.550781 -5.195312 2.203125 -5.4375 3.046875 -5.4375 C 3.847656 -5.4375 4.46875 -5.226562 4.90625 -4.8125 C 5.351562 -4.394531 5.578125 -3.789062 5.578125 -3 L 5.578125 -2.171875 L 2.265625 -2.171875 C 2.285156 -1.878906 2.394531 -1.644531 2.59375 -1.46875 C 2.800781 -1.300781 3.082031 -1.21875 3.4375 -1.21875 C 3.757812 -1.21875 4.054688 -1.25 4.328125 -1.3125 C 4.609375 -1.375 4.90625 -1.476562 5.21875 -1.625 L 5.21875 -0.296875 C 4.925781 -0.148438 4.625 -0.0507812 4.3125 0 C 4.007812 0.0625 3.644531 0.09375 3.21875 0.09375 Z M 3.109375 -4.1875 C 2.890625 -4.1875 2.707031 -4.117188 2.5625 -3.984375 C 2.414062 -3.847656 2.332031 -3.632812 2.3125 -3.34375 L 3.890625 -3.34375 C 3.890625 -3.59375 3.816406 -3.796875 3.671875 -3.953125 C 3.535156 -4.109375 3.347656 -4.1875 3.109375 -4.1875 Z M 3.109375 -4.1875 "/></g></g></g><g fill="rgb(100%, 100%, 100%)" fill-opacity="1"><g transform="translate(100.875801, 23.225808)"><g><path d="M 3.265625 -1.359375 C 3.503906 -1.359375 3.800781 -1.421875 4.15625 -1.546875 L 4.15625 -0.203125 C 3.90625 -0.0976562 3.664062 -0.0234375 3.4375 0.015625 C 3.21875 0.0664062 2.957031 0.09375 2.65625 0.09375 C 2.03125 0.09375 1.578125 -0.0546875 1.296875 -0.359375 C 1.023438 -0.660156 0.890625 -1.128906 0.890625 -1.765625 L 0.890625 -3.96875 L 0.25 -3.96875 L 0.25 -4.71875 L 1.078125 -5.296875 L 1.546875 -6.421875 L 2.765625 -6.421875 L 2.765625 -5.34375 L 4.078125 -5.34375 L 4.078125 -3.96875 L 2.765625 -3.96875 L 2.765625 -1.890625 C 2.765625 -1.535156 2.929688 -1.359375 3.265625 -1.359375 Z M 3.265625 -1.359375 "/></g></g></g><g fill="rgb(100%, 100%, 100%)" fill-opacity="1"><g transform="translate(105.325297, 23.225808)"><g><path d="M 3.21875 0.09375 C 2.332031 0.09375 1.640625 -0.140625 1.140625 -0.609375 C 0.648438 -1.085938 0.40625 -1.765625 0.40625 -2.640625 C 0.40625 -3.546875 0.632812 -4.238281 1.09375 -4.71875 C 1.550781 -5.195312 2.203125 -5.4375 3.046875 -5.4375 C 3.847656 -5.4375 4.46875 -5.226562 4.90625 -4.8125 C 5.351562 -4.394531 5.578125 -3.789062 5.578125 -3 L 5.578125 -2.171875 L 2.265625 -2.171875 C 2.285156 -1.878906 2.394531 -1.644531 2.59375 -1.46875 C 2.800781 -1.300781 3.082031 -1.21875 3.4375 -1.21875 C 3.757812 -1.21875 4.054688 -1.25 4.328125 -1.3125 C 4.609375 -1.375 4.90625 -1.476562 5.21875 -1.625 L 5.21875 -0.296875 C 4.925781 -0.148438 4.625 -0.0507812 4.3125 0 C 4.007812 0.0625 3.644531 0.09375 3.21875 0.09375 Z M 3.109375 -4.1875 C 2.890625 -4.1875 2.707031 -4.117188 2.5625 -3.984375 C 2.414062 -3.847656 2.332031 -3.632812 2.3125 -3.34375 L 3.890625 -3.34375 C 3.890625 -3.59375 3.816406 -3.796875 3.671875 -3.953125 C 3.535156 -4.109375 3.347656 -4.1875 3.109375 -4.1875 Z M 3.109375 -4.1875 "/></g></g></g><g fill="rgb(100%, 100%, 100%)" fill-opacity="1"><g transform="translate(111.305193, 23.225808)"><g/></g></g><g fill="rgb(100%, 100%, 100%)" fill-opacity="1"><g transform="translate(113.818072, 23.225808)"><g><path d="M 3.75 0 L 2.34375 -4.96875 L 2.296875 -4.96875 C 2.367188 -4.125 2.40625 -3.46875 2.40625 -3 L 2.40625 0 L 0.75 0 L 0.75 -6.90625 L 3.234375 -6.90625 L 4.671875 -2 L 4.703125 -2 L 6.125 -6.90625 L 8.609375 -6.90625 L 8.609375 0 L 6.890625 0 L 6.890625 -3.03125 C 6.890625 -3.1875 6.890625 -3.359375 6.890625 -3.546875 C 6.898438 -3.742188 6.925781 -4.21875 6.96875 -4.96875 L 6.921875 -4.96875 L 5.53125 0 Z M 3.75 0 "/></g></g></g><g fill="rgb(100%, 100%, 100%)" fill-opacity="1"><g transform="translate(123.170516, 23.225808)"><g><path d="M 4.453125 0 L 4.21875 -0.671875 L 4.109375 -0.671875 C 3.953125 -0.421875 3.734375 -0.226562 3.453125 -0.09375 C 3.179688 0.03125 2.863281 0.09375 2.5 0.09375 C 1.90625 0.09375 1.441406 -0.078125 1.109375 -0.421875 C 0.785156 -0.765625 0.625 -1.242188 0.625 -1.859375 L 0.625 -5.34375 L 2.46875 -5.34375 L 2.46875 -2.421875 C 2.46875 -2.078125 2.515625 -1.8125 2.609375 -1.625 C 2.710938 -1.445312 2.878906 -1.359375 3.109375 -1.359375 C 3.429688 -1.359375 3.660156 -1.484375 3.796875 -1.734375 C 3.929688 -1.984375 4 -2.410156 4 -3.015625 L 4 -5.34375 L 5.84375 -5.34375 L 5.84375 0 Z M 4.453125 0 "/></g></g></g><g fill="rgb(100%, 100%, 100%)" fill-opacity="1"><g transform="translate(129.651098, 23.225808)"><g><path d="M 2.5 0 L 0.640625 0 L 0.640625 -5.34375 L 2.5 -5.34375 Z M 0.59375 -6.6875 C 0.59375 -6.957031 0.671875 -7.160156 0.828125 -7.296875 C 0.984375 -7.429688 1.234375 -7.5 1.578125 -7.5 C 1.921875 -7.5 2.171875 -7.429688 2.328125 -7.296875 C 2.484375 -7.160156 2.5625 -6.957031 2.5625 -6.6875 C 2.5625 -6.144531 2.234375 -5.875 1.578125 -5.875 C 0.921875 -5.875 0.59375 -6.144531 0.59375 -6.6875 Z M 0.59375 -6.6875 "/></g></g></g><g fill="rgb(100%, 100%, 100%)" fill-opacity="1"><g transform="translate(132.79692, 23.225808)"><g><path d="M 3.265625 -1.359375 C 3.503906 -1.359375 3.800781 -1.421875 4.15625 -1.546875 L 4.15625 -0.203125 C 3.90625 -0.0976562 3.664062 -0.0234375 3.4375 0.015625 C 3.21875 0.0664062 2.957031 0.09375 2.65625 0.09375 C 2.03125 0.09375 1.578125 -0.0546875 1.296875 -0.359375 C 1.023438 -0.660156 0.890625 -1.128906 0.890625 -1.765625 L 0.890625 -3.96875 L 0.25 -3.96875 L 0.25 -4.71875 L 1.078125 -5.296875 L 1.546875 -6.421875 L 2.765625 -6.421875 L 2.765625 -5.34375 L 4.078125 -5.34375 L 4.078125 -3.96875 L 2.765625 -3.96875 L 2.765625 -1.890625 C 2.765625 -1.535156 2.929688 -1.359375 3.265625 -1.359375 Z M 3.265625 -1.359375 "/></g></g></g><g fill="rgb(100%, 100%, 100%)" fill-opacity="1"><g transform="translate(137.246417, 23.225808)"><g><path d="M 5.75 -2.6875 C 5.75 -1.8125 5.507812 -1.128906 5.03125 -0.640625 C 4.5625 -0.148438 3.90625 0.09375 3.0625 0.09375 C 2.25 0.09375 1.601562 -0.15625 1.125 -0.65625 C 0.644531 -1.15625 0.40625 -1.832031 0.40625 -2.6875 C 0.40625 -3.5625 0.640625 -4.238281 1.109375 -4.71875 C 1.578125 -5.195312 2.238281 -5.4375 3.09375 -5.4375 C 3.613281 -5.4375 4.078125 -5.328125 4.484375 -5.109375 C 4.890625 -4.890625 5.203125 -4.566406 5.421875 -4.140625 C 5.640625 -3.722656 5.75 -3.238281 5.75 -2.6875 Z M 2.28125 -2.6875 C 2.28125 -2.226562 2.34375 -1.878906 2.46875 -1.640625 C 2.59375 -1.398438 2.796875 -1.28125 3.078125 -1.28125 C 3.367188 -1.28125 3.570312 -1.398438 3.6875 -1.640625 C 3.8125 -1.878906 3.875 -2.226562 3.875 -2.6875 C 3.875 -3.144531 3.8125 -3.488281 3.6875 -3.71875 C 3.570312 -3.957031 3.367188 -4.078125 3.078125 -4.078125 C 2.796875 -4.078125 2.59375 -3.957031 2.46875 -3.71875 C 2.34375 -3.488281 2.28125 -3.144531 2.28125 -2.6875 Z M 2.28125 -2.6875 "/></g></g></g></svg>