<svg xmlns="http://www.w3.org/2000/svg" xmlns:xlink="http://www.w3.org/1999/xlink" width="900" zoomAndPan="magnify" viewBox="0 0 675 74.999997" height="100" preserveAspectRatio="xMidYMid meet" version="1.0"><defs><g><g id="id1"/></g></defs><g fill="rgb(100%, 100%, 100%)" fill-opacity="1"><g transform="translate(2.578138, 68.100034)"><g><path d="M 14.140625 -5.640625 C 14.140625 -4.484375 13.847656 -3.457031 13.265625 -2.5625 C 12.679688 -1.675781 11.835938 -0.984375 10.734375 -0.484375 C 9.640625 0.00390625 8.351562 0.25 6.875 0.25 C 5.632812 0.25 4.59375 0.164062 3.75 0 C 2.914062 -0.175781 2.046875 -0.484375 1.140625 -0.921875 L 1.140625 -5.390625 C 2.097656 -4.890625 3.09375 -4.503906 4.125 -4.234375 C 5.15625 -3.960938 6.101562 -3.828125 6.96875 -3.828125 C 7.71875 -3.828125 8.265625 -3.953125 8.609375 -4.203125 C 8.953125 -4.460938 9.125 -4.796875 9.125 -5.203125 C 9.125 -5.460938 9.050781 -5.6875 8.90625 -5.875 C 8.769531 -6.0625 8.546875 -6.25 8.234375 -6.4375 C 7.929688 -6.632812 7.113281 -7.035156 5.78125 -7.640625 C 4.570312 -8.191406 3.660156 -8.722656 3.046875 -9.234375 C 2.441406 -9.753906 1.992188 -10.347656 1.703125 -11.015625 C 1.410156 -11.679688 1.265625 -12.472656 1.265625 -13.390625 C 1.265625 -15.097656 1.882812 -16.429688 3.125 -17.390625 C 4.375 -18.347656 6.085938 -18.828125 8.265625 -18.828125 C 10.179688 -18.828125 12.140625 -18.382812 14.140625 -17.5 L 12.609375 -13.625 C 10.867188 -14.414062 9.367188 -14.8125 8.109375 -14.8125 C 7.460938 -14.8125 6.988281 -14.695312 6.6875 -14.46875 C 6.394531 -14.238281 6.25 -13.957031 6.25 -13.625 C 6.25 -13.257812 6.4375 -12.929688 6.8125 -12.640625 C 7.1875 -12.359375 8.207031 -11.835938 9.875 -11.078125 C 11.476562 -10.347656 12.585938 -9.570312 13.203125 -8.75 C 13.828125 -7.925781 14.140625 -6.890625 14.140625 -5.640625 Z M 14.140625 -5.640625 "/></g></g></g><g fill="rgb(100%, 100%, 100%)" fill-opacity="1"><g transform="translate(17.579488, 68.100034)"><g><path d="M 6.703125 0 L 1.734375 0 L 1.734375 -14.390625 L 6.703125 -14.390625 Z M 1.609375 -17.96875 C 1.609375 -18.707031 1.816406 -19.257812 2.234375 -19.625 C 2.648438 -19.988281 3.316406 -20.171875 4.234375 -20.171875 C 5.160156 -20.171875 5.832031 -19.984375 6.25 -19.609375 C 6.675781 -19.242188 6.890625 -18.695312 6.890625 -17.96875 C 6.890625 -16.507812 6.003906 -15.78125 4.234375 -15.78125 C 2.484375 -15.78125 1.609375 -16.507812 1.609375 -17.96875 Z M 1.609375 -17.96875 "/></g></g></g><g fill="rgb(100%, 100%, 100%)" fill-opacity="1"><g transform="translate(26.032025, 68.100034)"><g><path d="M 19.375 0 L 19.375 -7.828125 C 19.375 -8.796875 19.238281 -9.519531 18.96875 -10 C 18.707031 -10.488281 18.285156 -10.734375 17.703125 -10.734375 C 16.941406 -10.734375 16.382812 -10.40625 16.03125 -9.75 C 15.675781 -9.101562 15.5 -8.085938 15.5 -6.703125 L 15.5 0 L 10.53125 0 L 10.53125 -7.828125 C 10.53125 -8.796875 10.398438 -9.519531 10.140625 -10 C 9.890625 -10.488281 9.476562 -10.734375 8.90625 -10.734375 C 8.132812 -10.734375 7.566406 -10.382812 7.203125 -9.6875 C 6.847656 -9 6.671875 -7.867188 6.671875 -6.296875 L 6.671875 0 L 1.71875 0 L 1.71875 -14.390625 L 5.453125 -14.390625 L 6.078125 -12.609375 L 6.375 -12.609375 C 6.75 -13.265625 7.296875 -13.765625 8.015625 -14.109375 C 8.742188 -14.460938 9.570312 -14.640625 10.5 -14.640625 C 12.570312 -14.640625 14.023438 -14.007812 14.859375 -12.75 L 15.265625 -12.75 C 15.671875 -13.34375 16.234375 -13.804688 16.953125 -14.140625 C 17.679688 -14.472656 18.476562 -14.640625 19.34375 -14.640625 C 21.050781 -14.640625 22.3125 -14.203125 23.125 -13.328125 C 23.9375 -12.453125 24.34375 -11.128906 24.34375 -9.359375 L 24.34375 0 Z M 19.375 0 "/></g></g></g><g fill="rgb(100%, 100%, 100%)" fill-opacity="1"><g transform="translate(52.02421, 68.100034)"><g><path d="M 10.34375 0.25 C 9.613281 0.25 8.960938 0.128906 8.390625 -0.109375 C 7.816406 -0.347656 7.242188 -0.78125 6.671875 -1.40625 L 6.453125 -1.40625 C 6.597656 -0.394531 6.671875 0.226562 6.671875 0.46875 L 6.671875 6.25 L 1.71875 6.25 L 1.71875 -14.390625 L 5.75 -14.390625 L 6.453125 -12.5625 L 6.671875 -12.5625 C 7.597656 -13.945312 8.875 -14.640625 10.5 -14.640625 C 12.09375 -14.640625 13.34375 -13.976562 14.25 -12.65625 C 15.15625 -11.332031 15.609375 -9.519531 15.609375 -7.21875 C 15.609375 -4.90625 15.132812 -3.082031 14.1875 -1.75 C 13.238281 -0.414062 11.957031 0.25 10.34375 0.25 Z M 8.6875 -10.734375 C 7.957031 -10.734375 7.445312 -10.472656 7.15625 -9.953125 C 6.863281 -9.429688 6.703125 -8.660156 6.671875 -7.640625 L 6.671875 -7.25 C 6.671875 -6.007812 6.835938 -5.113281 7.171875 -4.5625 C 7.503906 -4.019531 8.023438 -3.75 8.734375 -3.75 C 9.367188 -3.75 9.828125 -4.019531 10.109375 -4.5625 C 10.398438 -5.113281 10.546875 -6.019531 10.546875 -7.28125 C 10.546875 -8.507812 10.398438 -9.390625 10.109375 -9.921875 C 9.828125 -10.460938 9.351562 -10.734375 8.6875 -10.734375 Z M 8.6875 -10.734375 "/></g></g></g><g fill="rgb(100%, 100%, 100%)" fill-opacity="1"><g transform="translate(68.738911, 68.100034)"><g><path d="M 6.671875 0 L 1.71875 0 L 1.71875 -19.75 L 6.671875 -19.75 Z M 6.671875 0 "/></g></g></g><g fill="rgb(100%, 100%, 100%)" fill-opacity="1"><g transform="translate(77.140682, 68.100034)"><g><path d="M 8.65625 0.25 C 6.257812 0.25 4.398438 -0.382812 3.078125 -1.65625 C 1.753906 -2.925781 1.09375 -4.738281 1.09375 -7.09375 C 1.09375 -9.519531 1.707031 -11.382812 2.9375 -12.6875 C 4.164062 -13.988281 5.914062 -14.640625 8.1875 -14.640625 C 10.351562 -14.640625 12.023438 -14.070312 13.203125 -12.9375 C 14.390625 -11.8125 14.984375 -10.1875 14.984375 -8.0625 L 14.984375 -5.859375 L 6.109375 -5.859375 C 6.140625 -5.046875 6.429688 -4.410156 6.984375 -3.953125 C 7.546875 -3.503906 8.300781 -3.28125 9.25 -3.28125 C 10.125 -3.28125 10.925781 -3.359375 11.65625 -3.515625 C 12.394531 -3.679688 13.191406 -3.96875 14.046875 -4.375 L 14.046875 -0.796875 C 13.265625 -0.398438 12.457031 -0.128906 11.625 0.015625 C 10.800781 0.171875 9.8125 0.25 8.65625 0.25 Z M 8.359375 -11.265625 C 7.773438 -11.265625 7.285156 -11.078125 6.890625 -10.703125 C 6.503906 -10.335938 6.273438 -9.757812 6.203125 -8.96875 L 10.46875 -8.96875 C 10.457031 -9.664062 10.257812 -10.222656 9.875 -10.640625 C 9.5 -11.054688 8.992188 -11.265625 8.359375 -11.265625 Z M 8.359375 -11.265625 "/></g></g></g><g fill="rgb(100%, 100%, 100%)" fill-opacity="1"><g transform="translate(93.208117, 68.100034)"><g><path d="M 12.828125 -4.421875 C 12.828125 -2.878906 12.300781 -1.710938 11.25 -0.921875 C 10.195312 -0.140625 8.691406 0.25 6.734375 0.25 C 5.660156 0.25 4.726562 0.191406 3.9375 0.078125 C 3.15625 -0.0351562 2.351562 -0.242188 1.53125 -0.546875 L 1.53125 -4.515625 C 2.300781 -4.179688 3.144531 -3.90625 4.0625 -3.6875 C 4.988281 -3.46875 5.8125 -3.359375 6.53125 -3.359375 C 7.601562 -3.359375 8.140625 -3.601562 8.140625 -4.09375 C 8.140625 -4.34375 7.988281 -4.566406 7.6875 -4.765625 C 7.382812 -4.960938 6.507812 -5.347656 5.0625 -5.921875 C 3.738281 -6.460938 2.816406 -7.078125 2.296875 -7.765625 C 1.773438 -8.460938 1.515625 -9.335938 1.515625 -10.390625 C 1.515625 -11.734375 2.03125 -12.773438 3.0625 -13.515625 C 4.09375 -14.265625 5.550781 -14.640625 7.4375 -14.640625 C 8.382812 -14.640625 9.273438 -14.535156 10.109375 -14.328125 C 10.941406 -14.117188 11.804688 -13.816406 12.703125 -13.421875 L 11.359375 -10.21875 C 10.703125 -10.519531 10.003906 -10.769531 9.265625 -10.96875 C 8.523438 -11.175781 7.925781 -11.28125 7.46875 -11.28125 C 6.65625 -11.28125 6.25 -11.082031 6.25 -10.6875 C 6.25 -10.445312 6.390625 -10.238281 6.671875 -10.0625 C 6.953125 -9.882812 7.769531 -9.53125 9.125 -9 C 10.132812 -8.582031 10.882812 -8.175781 11.375 -7.78125 C 11.875 -7.382812 12.238281 -6.914062 12.46875 -6.375 C 12.707031 -5.84375 12.828125 -5.191406 12.828125 -4.421875 Z M 12.828125 -4.421875 "/></g></g></g><g fill="rgb(100%, 100%, 100%)" fill-opacity="1"><g transform="translate(107.067231, 68.100034)"><g/></g></g><g fill="rgb(100%, 100%, 100%)" fill-opacity="1"><g transform="translate(113.819108, 68.100034)"><g><path d="M 12.421875 -18.5625 L 18.046875 -18.5625 L 11.953125 0 L 6.0625 0 L 0 -18.5625 L 5.640625 -18.5625 L 8.15625 -9.15625 C 8.6875 -7.0625 8.976562 -5.601562 9.03125 -4.78125 C 9.082031 -5.375 9.195312 -6.113281 9.375 -7 C 9.5625 -7.894531 9.722656 -8.597656 9.859375 -9.109375 Z M 12.421875 -18.5625 "/></g></g></g><g fill="rgb(100%, 100%, 100%)" fill-opacity="1"><g transform="translate(131.853725, 68.100034)"><g><path d="M 6.703125 0 L 1.734375 0 L 1.734375 -14.390625 L 6.703125 -14.390625 Z M 1.609375 -17.96875 C 1.609375 -18.707031 1.816406 -19.257812 2.234375 -19.625 C 2.648438 -19.988281 3.316406 -20.171875 4.234375 -20.171875 C 5.160156 -20.171875 5.832031 -19.984375 6.25 -19.609375 C 6.675781 -19.242188 6.890625 -18.695312 6.890625 -17.96875 C 6.890625 -16.507812 6.003906 -15.78125 4.234375 -15.78125 C 2.484375 -15.78125 1.609375 -16.507812 1.609375 -17.96875 Z M 1.609375 -17.96875 "/></g></g></g><g fill="rgb(100%, 100%, 100%)" fill-opacity="1"><g transform="translate(140.306261, 68.100034)"><g><path d="M 8.765625 -3.671875 C 9.429688 -3.671875 10.226562 -3.835938 11.15625 -4.171875 L 11.15625 -0.546875 C 10.488281 -0.253906 9.851562 -0.0507812 9.25 0.0625 C 8.644531 0.1875 7.9375 0.25 7.125 0.25 C 5.457031 0.25 4.253906 -0.15625 3.515625 -0.96875 C 2.773438 -1.789062 2.40625 -3.046875 2.40625 -4.734375 L 2.40625 -10.671875 L 0.671875 -10.671875 L 0.671875 -12.6875 L 2.875 -14.25 L 4.171875 -17.265625 L 7.421875 -17.265625 L 7.421875 -14.390625 L 10.9375 -14.390625 L 10.9375 -10.671875 L 7.421875 -10.671875 L 7.421875 -5.0625 C 7.421875 -4.132812 7.867188 -3.671875 8.765625 -3.671875 Z M 8.765625 -3.671875 "/></g></g></g><g fill="rgb(100%, 100%, 100%)" fill-opacity="1"><g transform="translate(152.261651, 68.100034)"><g><path d="M 11.09375 0 L 10.140625 -1.90625 L 10.046875 -1.90625 C 9.378906 -1.070312 8.695312 -0.503906 8 -0.203125 C 7.300781 0.0976562 6.40625 0.25 5.3125 0.25 C 3.957031 0.25 2.890625 -0.15625 2.109375 -0.96875 C 1.328125 -1.78125 0.9375 -2.921875 0.9375 -4.390625 C 0.9375 -5.921875 1.46875 -7.0625 2.53125 -7.8125 C 3.601562 -8.5625 5.148438 -8.984375 7.171875 -9.078125 L 9.578125 -9.15625 L 9.578125 -9.359375 C 9.578125 -10.546875 8.992188 -11.140625 7.828125 -11.140625 C 6.773438 -11.140625 5.441406 -10.78125 3.828125 -10.0625 L 2.390625 -13.34375 C 4.066406 -14.207031 6.179688 -14.640625 8.734375 -14.640625 C 10.578125 -14.640625 12.003906 -14.179688 13.015625 -13.265625 C 14.023438 -12.347656 14.53125 -11.070312 14.53125 -9.4375 L 14.53125 0 Z M 7.421875 -3.25 C 8.015625 -3.25 8.523438 -3.4375 8.953125 -3.8125 C 9.378906 -4.195312 9.59375 -4.695312 9.59375 -5.3125 L 9.59375 -6.421875 L 8.453125 -6.375 C 6.816406 -6.3125 6 -5.710938 6 -4.578125 C 6 -3.691406 6.472656 -3.25 7.421875 -3.25 Z M 7.421875 -3.25 "/></g></g></g><g fill="rgb(100%, 100%, 100%)" fill-opacity="1"><g transform="translate(168.456001, 68.100034)"><g><path d="M 19.375 0 L 19.375 -7.828125 C 19.375 -8.796875 19.238281 -9.519531 18.96875 -10 C 18.707031 -10.488281 18.285156 -10.734375 17.703125 -10.734375 C 16.941406 -10.734375 16.382812 -10.40625 16.03125 -9.75 C 15.675781 -9.101562 15.5 -8.085938 15.5 -6.703125 L 15.5 0 L 10.53125 0 L 10.53125 -7.828125 C 10.53125 -8.796875 10.398438 -9.519531 10.140625 -10 C 9.890625 -10.488281 9.476562 -10.734375 8.90625 -10.734375 C 8.132812 -10.734375 7.566406 -10.382812 7.203125 -9.6875 C 6.847656 -9 6.671875 -7.867188 6.671875 -6.296875 L 6.671875 0 L 1.71875 0 L 1.71875 -14.390625 L 5.453125 -14.390625 L 6.078125 -12.609375 L 6.375 -12.609375 C 6.75 -13.265625 7.296875 -13.765625 8.015625 -14.109375 C 8.742188 -14.460938 9.570312 -14.640625 10.5 -14.640625 C 12.570312 -14.640625 14.023438 -14.007812 14.859375 -12.75 L 15.265625 -12.75 C 15.671875 -13.34375 16.234375 -13.804688 16.953125 -14.140625 C 17.679688 -14.472656 18.476562 -14.640625 19.34375 -14.640625 C 21.050781 -14.640625 22.3125 -14.203125 23.125 -13.328125 C 23.9375 -12.453125 24.34375 -11.128906 24.34375 -9.359375 L 24.34375 0 Z M 19.375 0 "/></g></g></g><g fill="rgb(100%, 100%, 100%)" fill-opacity="1"><g transform="translate(194.448186, 68.100034)"><g><path d="M 6.703125 0 L 1.734375 0 L 1.734375 -14.390625 L 6.703125 -14.390625 Z M 1.609375 -17.96875 C 1.609375 -18.707031 1.816406 -19.257812 2.234375 -19.625 C 2.648438 -19.988281 3.316406 -20.171875 4.234375 -20.171875 C 5.160156 -20.171875 5.832031 -19.984375 6.25 -19.609375 C 6.675781 -19.242188 6.890625 -18.695312 6.890625 -17.96875 C 6.890625 -16.507812 6.003906 -15.78125 4.234375 -15.78125 C 2.484375 -15.78125 1.609375 -16.507812 1.609375 -17.96875 Z M 1.609375 -17.96875 "/></g></g></g><g fill="rgb(100%, 100%, 100%)" fill-opacity="1"><g transform="translate(202.900723, 68.100034)"><g><path d="M 10.796875 0 L 10.796875 -7.84375 C 10.796875 -8.800781 10.65625 -9.519531 10.375 -10 C 10.101562 -10.488281 9.660156 -10.734375 9.046875 -10.734375 C 8.210938 -10.734375 7.609375 -10.398438 7.234375 -9.734375 C 6.859375 -9.066406 6.671875 -7.921875 6.671875 -6.296875 L 6.671875 0 L 1.71875 0 L 1.71875 -14.390625 L 5.453125 -14.390625 L 6.078125 -12.609375 L 6.375 -12.609375 C 6.800781 -13.285156 7.382812 -13.789062 8.125 -14.125 C 8.875 -14.46875 9.738281 -14.640625 10.71875 -14.640625 C 12.3125 -14.640625 13.546875 -14.175781 14.421875 -13.25 C 15.304688 -12.332031 15.75 -11.035156 15.75 -9.359375 L 15.75 0 Z M 10.796875 0 "/></g></g></g><g fill="rgb(100%, 100%, 100%)" fill-opacity="1"><g transform="translate(220.313457, 68.100034)"><g><path d="M 11.09375 0 L 10.140625 -1.90625 L 10.046875 -1.90625 C 9.378906 -1.070312 8.695312 -0.503906 8 -0.203125 C 7.300781 0.0976562 6.40625 0.25 5.3125 0.25 C 3.957031 0.25 2.890625 -0.15625 2.109375 -0.96875 C 1.328125 -1.78125 0.9375 -2.921875 0.9375 -4.390625 C 0.9375 -5.921875 1.46875 -7.0625 2.53125 -7.8125 C 3.601562 -8.5625 5.148438 -8.984375 7.171875 -9.078125 L 9.578125 -9.15625 L 9.578125 -9.359375 C 9.578125 -10.546875 8.992188 -11.140625 7.828125 -11.140625 C 6.773438 -11.140625 5.441406 -10.78125 3.828125 -10.0625 L 2.390625 -13.34375 C 4.066406 -14.207031 6.179688 -14.640625 8.734375 -14.640625 C 10.578125 -14.640625 12.003906 -14.179688 13.015625 -13.265625 C 14.023438 -12.347656 14.53125 -11.070312 14.53125 -9.4375 L 14.53125 0 Z M 7.421875 -3.25 C 8.015625 -3.25 8.523438 -3.4375 8.953125 -3.8125 C 9.378906 -4.195312 9.59375 -4.695312 9.59375 -5.3125 L 9.59375 -6.421875 L 8.453125 -6.375 C 6.816406 -6.3125 6 -5.710938 6 -4.578125 C 6 -3.691406 6.472656 -3.25 7.421875 -3.25 Z M 7.421875 -3.25 "/></g></g></g><g fill="rgb(100%, 100%, 100%)" fill-opacity="1"><g transform="translate(236.507806, 68.100034)"><g/></g></g><g fill="rgb(100%, 100%, 100%)" fill-opacity="1"><g transform="translate(243.259683, 68.100034)"><g><path d="M 6.1875 0.25 C 5.15625 0.25 4.253906 -0.0390625 3.484375 -0.625 C 2.722656 -1.207031 2.132812 -2.066406 1.71875 -3.203125 C 1.300781 -4.335938 1.09375 -5.660156 1.09375 -7.171875 C 1.09375 -9.503906 1.5625 -11.332031 2.5 -12.65625 C 3.4375 -13.976562 4.726562 -14.640625 6.375 -14.640625 C 7.175781 -14.640625 7.878906 -14.476562 8.484375 -14.15625 C 9.085938 -13.832031 9.640625 -13.289062 10.140625 -12.53125 L 10.25 -12.53125 C 10.082031 -13.65625 10 -14.78125 10 -15.90625 L 10 -19.75 L 15 -19.75 L 15 0 L 11.265625 0 L 10.1875 -1.8125 L 10 -1.8125 C 9.144531 -0.4375 7.875 0.25 6.1875 0.25 Z M 8.21875 -3.671875 C 9.007812 -3.671875 9.566406 -3.921875 9.890625 -4.421875 C 10.222656 -4.921875 10.398438 -5.691406 10.421875 -6.734375 L 10.421875 -7.125 C 10.421875 -8.394531 10.238281 -9.296875 9.875 -9.828125 C 9.507812 -10.367188 8.9375 -10.640625 8.15625 -10.640625 C 7.507812 -10.640625 7.003906 -10.332031 6.640625 -9.71875 C 6.285156 -9.101562 6.109375 -8.226562 6.109375 -7.09375 C 6.109375 -5.976562 6.289062 -5.128906 6.65625 -4.546875 C 7.019531 -3.960938 7.539062 -3.671875 8.21875 -3.671875 Z M 8.21875 -3.671875 "/></g></g></g><g fill="rgb(100%, 100%, 100%)" fill-opacity="1"><g transform="translate(259.974373, 68.100034)"><g><path d="M 8.65625 0.25 C 6.257812 0.25 4.398438 -0.382812 3.078125 -1.65625 C 1.753906 -2.925781 1.09375 -4.738281 1.09375 -7.09375 C 1.09375 -9.519531 1.707031 -11.382812 2.9375 -12.6875 C 4.164062 -13.988281 5.914062 -14.640625 8.1875 -14.640625 C 10.351562 -14.640625 12.023438 -14.070312 13.203125 -12.9375 C 14.390625 -11.8125 14.984375 -10.1875 14.984375 -8.0625 L 14.984375 -5.859375 L 6.109375 -5.859375 C 6.140625 -5.046875 6.429688 -4.410156 6.984375 -3.953125 C 7.546875 -3.503906 8.300781 -3.28125 9.25 -3.28125 C 10.125 -3.28125 10.925781 -3.359375 11.65625 -3.515625 C 12.394531 -3.679688 13.191406 -3.96875 14.046875 -4.375 L 14.046875 -0.796875 C 13.265625 -0.398438 12.457031 -0.128906 11.625 0.015625 C 10.800781 0.171875 9.8125 0.25 8.65625 0.25 Z M 8.359375 -11.265625 C 7.773438 -11.265625 7.285156 -11.078125 6.890625 -10.703125 C 6.503906 -10.335938 6.273438 -9.757812 6.203125 -8.96875 L 10.46875 -8.96875 C 10.457031 -9.664062 10.257812 -10.222656 9.875 -10.640625 C 9.5 -11.054688 8.992188 -11.265625 8.359375 -11.265625 Z M 8.359375 -11.265625 "/></g></g></g><g fill="rgb(100%, 100%, 100%)" fill-opacity="1"><g transform="translate(276.041807, 68.100034)"><g/></g></g><g fill="rgb(100%, 100%, 100%)" fill-opacity="1"><g transform="translate(282.793684, 68.100034)"><g><path d="M 0.890625 -7.84375 C 0.890625 -10.4375 1.257812 -12.535156 2 -14.140625 C 2.738281 -15.742188 3.828125 -16.925781 5.265625 -17.6875 C 6.710938 -18.445312 8.492188 -18.828125 10.609375 -18.828125 C 11.367188 -18.828125 12.25 -18.753906 13.25 -18.609375 L 13.25 -14.6875 C 12.40625 -14.851562 11.488281 -14.9375 10.5 -14.9375 C 8.820312 -14.9375 7.570312 -14.566406 6.75 -13.828125 C 5.925781 -13.085938 5.476562 -11.882812 5.40625 -10.21875 L 5.5625 -10.21875 C 6.320312 -11.65625 7.546875 -12.375 9.234375 -12.375 C 10.878906 -12.375 12.15625 -11.84375 13.0625 -10.78125 C 13.976562 -9.71875 14.4375 -8.238281 14.4375 -6.34375 C 14.4375 -4.300781 13.859375 -2.691406 12.703125 -1.515625 C 11.554688 -0.335938 9.953125 0.25 7.890625 0.25 C 5.691406 0.25 3.972656 -0.457031 2.734375 -1.875 C 1.503906 -3.300781 0.890625 -5.289062 0.890625 -7.84375 Z M 7.765625 -3.71875 C 8.296875 -3.71875 8.726562 -3.914062 9.0625 -4.3125 C 9.40625 -4.71875 9.578125 -5.363281 9.578125 -6.25 C 9.578125 -7.75 8.992188 -8.5 7.828125 -8.5 C 7.242188 -8.5 6.769531 -8.304688 6.40625 -7.921875 C 6.050781 -7.535156 5.875 -7.0625 5.875 -6.5 C 5.875 -5.6875 6.046875 -5.019531 6.390625 -4.5 C 6.742188 -3.976562 7.203125 -3.71875 7.765625 -3.71875 Z M 7.765625 -3.71875 "/></g></g></g><g fill="rgb(100%, 100%, 100%)" fill-opacity="1"><g transform="translate(298.023479, 68.100034)"><g/></g></g><g fill="rgb(100%, 100%, 100%)" fill-opacity="1"><g transform="translate(304.775356, 68.100034)"><g><path d="M 2 0 L 2 -18.5625 L 7.046875 -18.5625 L 7.046875 0 Z M 2 0 "/></g></g></g><g fill="rgb(100%, 100%, 100%)" fill-opacity="1"><g transform="translate(313.824404, 68.100034)"><g><path d="M 10.796875 0 L 10.796875 -7.84375 C 10.796875 -8.800781 10.65625 -9.519531 10.375 -10 C 10.101562 -10.488281 9.660156 -10.734375 9.046875 -10.734375 C 8.210938 -10.734375 7.609375 -10.398438 7.234375 -9.734375 C 6.859375 -9.066406 6.671875 -7.921875 6.671875 -6.296875 L 6.671875 0 L 1.71875 0 L 1.71875 -14.390625 L 5.453125 -14.390625 L 6.078125 -12.609375 L 6.375 -12.609375 C 6.800781 -13.285156 7.382812 -13.789062 8.125 -14.125 C 8.875 -14.46875 9.738281 -14.640625 10.71875 -14.640625 C 12.3125 -14.640625 13.546875 -14.175781 14.421875 -13.25 C 15.304688 -12.332031 15.75 -11.035156 15.75 -9.359375 L 15.75 0 Z M 10.796875 0 "/></g></g></g><g fill="rgb(100%, 100%, 100%)" fill-opacity="1"><g transform="translate(331.237138, 68.100034)"><g><path d="M 15.28125 -14.390625 L 15.28125 -11.984375 L 13.3125 -11.265625 C 13.582031 -10.773438 13.71875 -10.203125 13.71875 -9.546875 C 13.71875 -7.992188 13.175781 -6.789062 12.09375 -5.9375 C 11.007812 -5.082031 9.382812 -4.65625 7.21875 -4.65625 C 6.6875 -4.65625 6.265625 -4.691406 5.953125 -4.765625 C 5.835938 -4.546875 5.78125 -4.335938 5.78125 -4.140625 C 5.78125 -3.890625 5.976562 -3.695312 6.375 -3.5625 C 6.769531 -3.4375 7.289062 -3.375 7.9375 -3.375 L 10.328125 -3.375 C 13.546875 -3.375 15.15625 -2.015625 15.15625 0.703125 C 15.15625 2.453125 14.40625 3.8125 12.90625 4.78125 C 11.414062 5.757812 9.320312 6.25 6.625 6.25 C 4.582031 6.25 3.007812 5.90625 1.90625 5.21875 C 0.800781 4.539062 0.25 3.5625 0.25 2.28125 C 0.25 0.5625 1.316406 -0.546875 3.453125 -1.046875 C 3.015625 -1.234375 2.628906 -1.53125 2.296875 -1.9375 C 1.972656 -2.351562 1.8125 -2.765625 1.8125 -3.171875 C 1.8125 -3.617188 1.929688 -4.015625 2.171875 -4.359375 C 2.421875 -4.703125 2.9375 -5.113281 3.71875 -5.59375 C 2.976562 -5.914062 2.394531 -6.425781 1.96875 -7.125 C 1.539062 -7.832031 1.328125 -8.691406 1.328125 -9.703125 C 1.328125 -11.265625 1.859375 -12.476562 2.921875 -13.34375 C 3.984375 -14.207031 5.503906 -14.640625 7.484375 -14.640625 C 7.753906 -14.640625 8.207031 -14.609375 8.84375 -14.546875 C 9.488281 -14.484375 9.960938 -14.429688 10.265625 -14.390625 Z M 4.4375 1.796875 C 4.4375 2.203125 4.65625 2.53125 5.09375 2.78125 C 5.539062 3.03125 6.132812 3.15625 6.875 3.15625 C 8.070312 3.15625 9.03125 3.003906 9.75 2.703125 C 10.476562 2.398438 10.84375 2.007812 10.84375 1.53125 C 10.84375 1.15625 10.617188 0.890625 10.171875 0.734375 C 9.734375 0.578125 9.109375 0.5 8.296875 0.5 L 6.34375 0.5 C 5.8125 0.5 5.359375 0.625 4.984375 0.875 C 4.617188 1.125 4.4375 1.429688 4.4375 1.796875 Z M 6 -9.671875 C 6 -8.203125 6.515625 -7.46875 7.546875 -7.46875 C 8.015625 -7.46875 8.378906 -7.648438 8.640625 -8.015625 C 8.898438 -8.378906 9.03125 -8.925781 9.03125 -9.65625 C 9.03125 -11.144531 8.535156 -11.890625 7.546875 -11.890625 C 6.515625 -11.890625 6 -11.148438 6 -9.671875 Z M 6 -9.671875 "/></g></g></g><g fill="rgb(100%, 100%, 100%)" fill-opacity="1"><g transform="translate(346.987274, 68.100034)"><g><path d="M 10.390625 -14.640625 C 10.828125 -14.640625 11.238281 -14.601562 11.625 -14.53125 L 11.90625 -14.484375 L 11.46875 -9.796875 C 11.0625 -9.898438 10.5 -9.953125 9.78125 -9.953125 C 8.695312 -9.953125 7.90625 -9.703125 7.40625 -9.203125 C 6.914062 -8.710938 6.671875 -8.003906 6.671875 -7.078125 L 6.671875 0 L 1.71875 0 L 1.71875 -14.390625 L 5.40625 -14.390625 L 6.1875 -12.09375 L 6.421875 -12.09375 C 6.835938 -12.851562 7.414062 -13.46875 8.15625 -13.9375 C 8.894531 -14.40625 9.640625 -14.640625 10.390625 -14.640625 Z M 10.390625 -14.640625 "/></g></g></g><g fill="rgb(100%, 100%, 100%)" fill-opacity="1"><g transform="translate(359.183791, 68.100034)"><g><path d="M 8.65625 0.25 C 6.257812 0.25 4.398438 -0.382812 3.078125 -1.65625 C 1.753906 -2.925781 1.09375 -4.738281 1.09375 -7.09375 C 1.09375 -9.519531 1.707031 -11.382812 2.9375 -12.6875 C 4.164062 -13.988281 5.914062 -14.640625 8.1875 -14.640625 C 10.351562 -14.640625 12.023438 -14.070312 13.203125 -12.9375 C 14.390625 -11.8125 14.984375 -10.1875 14.984375 -8.0625 L 14.984375 -5.859375 L 6.109375 -5.859375 C 6.140625 -5.046875 6.429688 -4.410156 6.984375 -3.953125 C 7.546875 -3.503906 8.300781 -3.28125 9.25 -3.28125 C 10.125 -3.28125 10.925781 -3.359375 11.65625 -3.515625 C 12.394531 -3.679688 13.191406 -3.96875 14.046875 -4.375 L 14.046875 -0.796875 C 13.265625 -0.398438 12.457031 -0.128906 11.625 0.015625 C 10.800781 0.171875 9.8125 0.25 8.65625 0.25 Z M 8.359375 -11.265625 C 7.773438 -11.265625 7.285156 -11.078125 6.890625 -10.703125 C 6.503906 -10.335938 6.273438 -9.757812 6.203125 -8.96875 L 10.46875 -8.96875 C 10.457031 -9.664062 10.257812 -10.222656 9.875 -10.640625 C 9.5 -11.054688 8.992188 -11.265625 8.359375 -11.265625 Z M 8.359375 -11.265625 "/></g></g></g><g fill="rgb(100%, 100%, 100%)" fill-opacity="1"><g transform="translate(375.251225, 68.100034)"><g><path d="M 6.1875 0.25 C 5.15625 0.25 4.253906 -0.0390625 3.484375 -0.625 C 2.722656 -1.207031 2.132812 -2.066406 1.71875 -3.203125 C 1.300781 -4.335938 1.09375 -5.660156 1.09375 -7.171875 C 1.09375 -9.503906 1.5625 -11.332031 2.5 -12.65625 C 3.4375 -13.976562 4.726562 -14.640625 6.375 -14.640625 C 7.175781 -14.640625 7.878906 -14.476562 8.484375 -14.15625 C 9.085938 -13.832031 9.640625 -13.289062 10.140625 -12.53125 L 10.25 -12.53125 C 10.082031 -13.65625 10 -14.78125 10 -15.90625 L 10 -19.75 L 15 -19.75 L 15 0 L 11.265625 0 L 10.1875 -1.8125 L 10 -1.8125 C 9.144531 -0.4375 7.875 0.25 6.1875 0.25 Z M 8.21875 -3.671875 C 9.007812 -3.671875 9.566406 -3.921875 9.890625 -4.421875 C 10.222656 -4.921875 10.398438 -5.691406 10.421875 -6.734375 L 10.421875 -7.125 C 10.421875 -8.394531 10.238281 -9.296875 9.875 -9.828125 C 9.507812 -10.367188 8.9375 -10.640625 8.15625 -10.640625 C 7.507812 -10.640625 7.003906 -10.332031 6.640625 -9.71875 C 6.285156 -9.101562 6.109375 -8.226562 6.109375 -7.09375 C 6.109375 -5.976562 6.289062 -5.128906 6.65625 -4.546875 C 7.019531 -3.960938 7.539062 -3.671875 8.21875 -3.671875 Z M 8.21875 -3.671875 "/></g></g></g><g fill="rgb(100%, 100%, 100%)" fill-opacity="1"><g transform="translate(391.965938, 68.100034)"><g><path d="M 6.703125 0 L 1.734375 0 L 1.734375 -14.390625 L 6.703125 -14.390625 Z M 1.609375 -17.96875 C 1.609375 -18.707031 1.816406 -19.257812 2.234375 -19.625 C 2.648438 -19.988281 3.316406 -20.171875 4.234375 -20.171875 C 5.160156 -20.171875 5.832031 -19.984375 6.25 -19.609375 C 6.675781 -19.242188 6.890625 -18.695312 6.890625 -17.96875 C 6.890625 -16.507812 6.003906 -15.78125 4.234375 -15.78125 C 2.484375 -15.78125 1.609375 -16.507812 1.609375 -17.96875 Z M 1.609375 -17.96875 "/></g></g></g><g fill="rgb(100%, 100%, 100%)" fill-opacity="1"><g transform="translate(400.418497, 68.100034)"><g><path d="M 8.65625 0.25 C 6.257812 0.25 4.398438 -0.382812 3.078125 -1.65625 C 1.753906 -2.925781 1.09375 -4.738281 1.09375 -7.09375 C 1.09375 -9.519531 1.707031 -11.382812 2.9375 -12.6875 C 4.164062 -13.988281 5.914062 -14.640625 8.1875 -14.640625 C 10.351562 -14.640625 12.023438 -14.070312 13.203125 -12.9375 C 14.390625 -11.8125 14.984375 -10.1875 14.984375 -8.0625 L 14.984375 -5.859375 L 6.109375 -5.859375 C 6.140625 -5.046875 6.429688 -4.410156 6.984375 -3.953125 C 7.546875 -3.503906 8.300781 -3.28125 9.25 -3.28125 C 10.125 -3.28125 10.925781 -3.359375 11.65625 -3.515625 C 12.394531 -3.679688 13.191406 -3.96875 14.046875 -4.375 L 14.046875 -0.796875 C 13.265625 -0.398438 12.457031 -0.128906 11.625 0.015625 C 10.800781 0.171875 9.8125 0.25 8.65625 0.25 Z M 8.359375 -11.265625 C 7.773438 -11.265625 7.285156 -11.078125 6.890625 -10.703125 C 6.503906 -10.335938 6.273438 -9.757812 6.203125 -8.96875 L 10.46875 -8.96875 C 10.457031 -9.664062 10.257812 -10.222656 9.875 -10.640625 C 9.5 -11.054688 8.992188 -11.265625 8.359375 -11.265625 Z M 8.359375 -11.265625 "/></g></g></g><g fill="rgb(100%, 100%, 100%)" fill-opacity="1"><g transform="translate(416.48591, 68.100034)"><g><path d="M 10.796875 0 L 10.796875 -7.84375 C 10.796875 -8.800781 10.65625 -9.519531 10.375 -10 C 10.101562 -10.488281 9.660156 -10.734375 9.046875 -10.734375 C 8.210938 -10.734375 7.609375 -10.398438 7.234375 -9.734375 C 6.859375 -9.066406 6.671875 -7.921875 6.671875 -6.296875 L 6.671875 0 L 1.71875 0 L 1.71875 -14.390625 L 5.453125 -14.390625 L 6.078125 -12.609375 L 6.375 -12.609375 C 6.800781 -13.285156 7.382812 -13.789062 8.125 -14.125 C 8.875 -14.46875 9.738281 -14.640625 10.71875 -14.640625 C 12.3125 -14.640625 13.546875 -14.175781 14.421875 -13.25 C 15.304688 -12.332031 15.75 -11.035156 15.75 -9.359375 L 15.75 0 Z M 10.796875 0 "/></g></g></g><g fill="rgb(100%, 100%, 100%)" fill-opacity="1"><g transform="translate(433.898643, 68.100034)"><g><path d="M 8.765625 -3.671875 C 9.429688 -3.671875 10.226562 -3.835938 11.15625 -4.171875 L 11.15625 -0.546875 C 10.488281 -0.253906 9.851562 -0.0507812 9.25 0.0625 C 8.644531 0.1875 7.9375 0.25 7.125 0.25 C 5.457031 0.25 4.253906 -0.15625 3.515625 -0.96875 C 2.773438 -1.789062 2.40625 -3.046875 2.40625 -4.734375 L 2.40625 -10.671875 L 0.671875 -10.671875 L 0.671875 -12.6875 L 2.875 -14.25 L 4.171875 -17.265625 L 7.421875 -17.265625 L 7.421875 -14.390625 L 10.9375 -14.390625 L 10.9375 -10.671875 L 7.421875 -10.671875 L 7.421875 -5.0625 C 7.421875 -4.132812 7.867188 -3.671875 8.765625 -3.671875 Z M 8.765625 -3.671875 "/></g></g></g><g fill="rgb(100%, 100%, 100%)" fill-opacity="1"><g transform="translate(445.85401, 68.100034)"><g><path d="M 8.65625 0.25 C 6.257812 0.25 4.398438 -0.382812 3.078125 -1.65625 C 1.753906 -2.925781 1.09375 -4.738281 1.09375 -7.09375 C 1.09375 -9.519531 1.707031 -11.382812 2.9375 -12.6875 C 4.164062 -13.988281 5.914062 -14.640625 8.1875 -14.640625 C 10.351562 -14.640625 12.023438 -14.070312 13.203125 -12.9375 C 14.390625 -11.8125 14.984375 -10.1875 14.984375 -8.0625 L 14.984375 -5.859375 L 6.109375 -5.859375 C 6.140625 -5.046875 6.429688 -4.410156 6.984375 -3.953125 C 7.546875 -3.503906 8.300781 -3.28125 9.25 -3.28125 C 10.125 -3.28125 10.925781 -3.359375 11.65625 -3.515625 C 12.394531 -3.679688 13.191406 -3.96875 14.046875 -4.375 L 14.046875 -0.796875 C 13.265625 -0.398438 12.457031 -0.128906 11.625 0.015625 C 10.800781 0.171875 9.8125 0.25 8.65625 0.25 Z M 8.359375 -11.265625 C 7.773438 -11.265625 7.285156 -11.078125 6.890625 -10.703125 C 6.503906 -10.335938 6.273438 -9.757812 6.203125 -8.96875 L 10.46875 -8.96875 C 10.457031 -9.664062 10.257812 -10.222656 9.875 -10.640625 C 9.5 -11.054688 8.992188 -11.265625 8.359375 -11.265625 Z M 8.359375 -11.265625 "/></g></g></g><g fill="rgb(100%, 100%, 100%)" fill-opacity="1"><g transform="translate(461.921423, 68.100034)"><g><path d="M 12.828125 -4.421875 C 12.828125 -2.878906 12.300781 -1.710938 11.25 -0.921875 C 10.195312 -0.140625 8.691406 0.25 6.734375 0.25 C 5.660156 0.25 4.726562 0.191406 3.9375 0.078125 C 3.15625 -0.0351562 2.351562 -0.242188 1.53125 -0.546875 L 1.53125 -4.515625 C 2.300781 -4.179688 3.144531 -3.90625 4.0625 -3.6875 C 4.988281 -3.46875 5.8125 -3.359375 6.53125 -3.359375 C 7.601562 -3.359375 8.140625 -3.601562 8.140625 -4.09375 C 8.140625 -4.34375 7.988281 -4.566406 7.6875 -4.765625 C 7.382812 -4.960938 6.507812 -5.347656 5.0625 -5.921875 C 3.738281 -6.460938 2.816406 -7.078125 2.296875 -7.765625 C 1.773438 -8.460938 1.515625 -9.335938 1.515625 -10.390625 C 1.515625 -11.734375 2.03125 -12.773438 3.0625 -13.515625 C 4.09375 -14.265625 5.550781 -14.640625 7.4375 -14.640625 C 8.382812 -14.640625 9.273438 -14.535156 10.109375 -14.328125 C 10.941406 -14.117188 11.804688 -13.816406 12.703125 -13.421875 L 11.359375 -10.21875 C 10.703125 -10.519531 10.003906 -10.769531 9.265625 -10.96875 C 8.523438 -11.175781 7.925781 -11.28125 7.46875 -11.28125 C 6.65625 -11.28125 6.25 -11.082031 6.25 -10.6875 C 6.25 -10.445312 6.390625 -10.238281 6.671875 -10.0625 C 6.953125 -9.882812 7.769531 -9.53125 9.125 -9 C 10.132812 -8.582031 10.882812 -8.175781 11.375 -7.78125 C 11.875 -7.382812 12.238281 -6.914062 12.46875 -6.375 C 12.707031 -5.84375 12.828125 -5.191406 12.828125 -4.421875 Z M 12.828125 -4.421875 "/></g></g></g><g fill="rgb(100%, 100%, 100%)" fill-opacity="1"><g transform="translate(475.780537, 68.100034)"><g/></g></g><g fill="rgb(100%, 100%, 100%)" fill-opacity="1"><g transform="translate(482.532413, 68.100034)"><g><path d="M 17.765625 -9.671875 C 17.765625 -6.578125 16.910156 -4.191406 15.203125 -2.515625 C 13.492188 -0.835938 11.097656 0 8.015625 0 L 2 0 L 2 -18.5625 L 8.4375 -18.5625 C 11.414062 -18.5625 13.710938 -17.796875 15.328125 -16.265625 C 16.953125 -14.742188 17.765625 -12.546875 17.765625 -9.671875 Z M 12.5625 -9.5 C 12.5625 -11.195312 12.222656 -12.457031 11.546875 -13.28125 C 10.867188 -14.101562 9.847656 -14.515625 8.484375 -14.515625 L 7.015625 -14.515625 L 7.015625 -4.109375 L 8.140625 -4.109375 C 9.660156 -4.109375 10.773438 -4.550781 11.484375 -5.4375 C 12.203125 -6.320312 12.5625 -7.675781 12.5625 -9.5 Z M 12.5625 -9.5 "/></g></g></g><g fill="rgb(100%, 100%, 100%)" fill-opacity="1"><g transform="translate(501.607745, 68.100034)"><g><path d="M 8.65625 0.25 C 6.257812 0.25 4.398438 -0.382812 3.078125 -1.65625 C 1.753906 -2.925781 1.09375 -4.738281 1.09375 -7.09375 C 1.09375 -9.519531 1.707031 -11.382812 2.9375 -12.6875 C 4.164062 -13.988281 5.914062 -14.640625 8.1875 -14.640625 C 10.351562 -14.640625 12.023438 -14.070312 13.203125 -12.9375 C 14.390625 -11.8125 14.984375 -10.1875 14.984375 -8.0625 L 14.984375 -5.859375 L 6.109375 -5.859375 C 6.140625 -5.046875 6.429688 -4.410156 6.984375 -3.953125 C 7.546875 -3.503906 8.300781 -3.28125 9.25 -3.28125 C 10.125 -3.28125 10.925781 -3.359375 11.65625 -3.515625 C 12.394531 -3.679688 13.191406 -3.96875 14.046875 -4.375 L 14.046875 -0.796875 C 13.265625 -0.398438 12.457031 -0.128906 11.625 0.015625 C 10.800781 0.171875 9.8125 0.25 8.65625 0.25 Z M 8.359375 -11.265625 C 7.773438 -11.265625 7.285156 -11.078125 6.890625 -10.703125 C 6.503906 -10.335938 6.273438 -9.757812 6.203125 -8.96875 L 10.46875 -8.96875 C 10.457031 -9.664062 10.257812 -10.222656 9.875 -10.640625 C 9.5 -11.054688 8.992188 -11.265625 8.359375 -11.265625 Z M 8.359375 -11.265625 "/></g></g></g><g fill="rgb(100%, 100%, 100%)" fill-opacity="1"><g transform="translate(517.675202, 68.100034)"><g><path d="M 10.390625 -14.640625 C 10.828125 -14.640625 11.238281 -14.601562 11.625 -14.53125 L 11.90625 -14.484375 L 11.46875 -9.796875 C 11.0625 -9.898438 10.5 -9.953125 9.78125 -9.953125 C 8.695312 -9.953125 7.90625 -9.703125 7.40625 -9.203125 C 6.914062 -8.710938 6.671875 -8.003906 6.671875 -7.078125 L 6.671875 0 L 1.71875 0 L 1.71875 -14.390625 L 5.40625 -14.390625 L 6.1875 -12.09375 L 6.421875 -12.09375 C 6.835938 -12.851562 7.414062 -13.46875 8.15625 -13.9375 C 8.894531 -14.40625 9.640625 -14.640625 10.390625 -14.640625 Z M 10.390625 -14.640625 "/></g></g></g><g fill="rgb(100%, 100%, 100%)" fill-opacity="1"><g transform="translate(529.871719, 68.100034)"><g><path d="M 10.390625 -14.640625 C 10.828125 -14.640625 11.238281 -14.601562 11.625 -14.53125 L 11.90625 -14.484375 L 11.46875 -9.796875 C 11.0625 -9.898438 10.5 -9.953125 9.78125 -9.953125 C 8.695312 -9.953125 7.90625 -9.703125 7.40625 -9.203125 C 6.914062 -8.710938 6.671875 -8.003906 6.671875 -7.078125 L 6.671875 0 L 1.71875 0 L 1.71875 -14.390625 L 5.40625 -14.390625 L 6.1875 -12.09375 L 6.421875 -12.09375 C 6.835938 -12.851562 7.414062 -13.46875 8.15625 -13.9375 C 8.894531 -14.40625 9.640625 -14.640625 10.390625 -14.640625 Z M 10.390625 -14.640625 "/></g></g></g><g fill="rgb(100%, 100%, 100%)" fill-opacity="1"><g transform="translate(542.068236, 68.100034)"><g><path d="M 8.65625 0.25 C 6.257812 0.25 4.398438 -0.382812 3.078125 -1.65625 C 1.753906 -2.925781 1.09375 -4.738281 1.09375 -7.09375 C 1.09375 -9.519531 1.707031 -11.382812 2.9375 -12.6875 C 4.164062 -13.988281 5.914062 -14.640625 8.1875 -14.640625 C 10.351562 -14.640625 12.023438 -14.070312 13.203125 -12.9375 C 14.390625 -11.8125 14.984375 -10.1875 14.984375 -8.0625 L 14.984375 -5.859375 L 6.109375 -5.859375 C 6.140625 -5.046875 6.429688 -4.410156 6.984375 -3.953125 C 7.546875 -3.503906 8.300781 -3.28125 9.25 -3.28125 C 10.125 -3.28125 10.925781 -3.359375 11.65625 -3.515625 C 12.394531 -3.679688 13.191406 -3.96875 14.046875 -4.375 L 14.046875 -0.796875 C 13.265625 -0.398438 12.457031 -0.128906 11.625 0.015625 C 10.800781 0.171875 9.8125 0.25 8.65625 0.25 Z M 8.359375 -11.265625 C 7.773438 -11.265625 7.285156 -11.078125 6.890625 -10.703125 C 6.503906 -10.335938 6.273438 -9.757812 6.203125 -8.96875 L 10.46875 -8.96875 C 10.457031 -9.664062 10.257812 -10.222656 9.875 -10.640625 C 9.5 -11.054688 8.992188 -11.265625 8.359375 -11.265625 Z M 8.359375 -11.265625 "/></g></g></g><g fill="rgb(100%, 100%, 100%)" fill-opacity="1"><g transform="translate(558.135649, 68.100034)"><g><path d="M 8.765625 -3.671875 C 9.429688 -3.671875 10.226562 -3.835938 11.15625 -4.171875 L 11.15625 -0.546875 C 10.488281 -0.253906 9.851562 -0.0507812 9.25 0.0625 C 8.644531 0.1875 7.9375 0.25 7.125 0.25 C 5.457031 0.25 4.253906 -0.15625 3.515625 -0.96875 C 2.773438 -1.789062 2.40625 -3.046875 2.40625 -4.734375 L 2.40625 -10.671875 L 0.671875 -10.671875 L 0.671875 -12.6875 L 2.875 -14.25 L 4.171875 -17.265625 L 7.421875 -17.265625 L 7.421875 -14.390625 L 10.9375 -14.390625 L 10.9375 -10.671875 L 7.421875 -10.671875 L 7.421875 -5.0625 C 7.421875 -4.132812 7.867188 -3.671875 8.765625 -3.671875 Z M 8.765625 -3.671875 "/></g></g></g><g fill="rgb(100%, 100%, 100%)" fill-opacity="1"><g transform="translate(570.091061, 68.100034)"><g><path d="M 8.65625 0.25 C 6.257812 0.25 4.398438 -0.382812 3.078125 -1.65625 C 1.753906 -2.925781 1.09375 -4.738281 1.09375 -7.09375 C 1.09375 -9.519531 1.707031 -11.382812 2.9375 -12.6875 C 4.164062 -13.988281 5.914062 -14.640625 8.1875 -14.640625 C 10.351562 -14.640625 12.023438 -14.070312 13.203125 -12.9375 C 14.390625 -11.8125 14.984375 -10.1875 14.984375 -8.0625 L 14.984375 -5.859375 L 6.109375 -5.859375 C 6.140625 -5.046875 6.429688 -4.410156 6.984375 -3.953125 C 7.546875 -3.503906 8.300781 -3.28125 9.25 -3.28125 C 10.125 -3.28125 10.925781 -3.359375 11.65625 -3.515625 C 12.394531 -3.679688 13.191406 -3.96875 14.046875 -4.375 L 14.046875 -0.796875 C 13.265625 -0.398438 12.457031 -0.128906 11.625 0.015625 C 10.800781 0.171875 9.8125 0.25 8.65625 0.25 Z M 8.359375 -11.265625 C 7.773438 -11.265625 7.285156 -11.078125 6.890625 -10.703125 C 6.503906 -10.335938 6.273438 -9.757812 6.203125 -8.96875 L 10.46875 -8.96875 C 10.457031 -9.664062 10.257812 -10.222656 9.875 -10.640625 C 9.5 -11.054688 8.992188 -11.265625 8.359375 -11.265625 Z M 8.359375 -11.265625 "/></g></g></g><g fill="rgb(100%, 100%, 100%)" fill-opacity="1"><g transform="translate(586.158474, 68.100034)"><g/></g></g><g fill="rgb(100%, 100%, 100%)" fill-opacity="1"><g transform="translate(592.91035, 68.100034)"><g><path d="M 10.09375 0 L 6.296875 -13.375 L 6.1875 -13.375 C 6.363281 -11.09375 6.453125 -9.320312 6.453125 -8.0625 L 6.453125 0 L 2 0 L 2 -18.5625 L 8.6875 -18.5625 L 12.5625 -5.390625 L 12.65625 -5.390625 L 16.453125 -18.5625 L 23.140625 -18.5625 L 23.140625 0 L 18.53125 0 L 18.53125 -8.140625 C 18.53125 -8.554688 18.535156 -9.023438 18.546875 -9.546875 C 18.566406 -10.066406 18.625 -11.332031 18.71875 -13.34375 L 18.609375 -13.34375 L 14.859375 0 Z M 10.09375 0 "/></g></g></g><g fill="rgb(100%, 100%, 100%)" fill-opacity="1"><g transform="translate(618.039513, 68.100034)"><g><path d="M 11.953125 0 L 11.34375 -1.796875 L 11.046875 -1.796875 C 10.628906 -1.128906 10.050781 -0.617188 9.3125 -0.265625 C 8.570312 0.078125 7.703125 0.25 6.703125 0.25 C 5.117188 0.25 3.882812 -0.207031 3 -1.125 C 2.125 -2.039062 1.6875 -3.335938 1.6875 -5.015625 L 1.6875 -14.390625 L 6.65625 -14.390625 L 6.65625 -6.53125 C 6.65625 -5.582031 6.785156 -4.867188 7.046875 -4.390625 C 7.316406 -3.910156 7.753906 -3.671875 8.359375 -3.671875 C 9.222656 -3.671875 9.832031 -4.003906 10.1875 -4.671875 C 10.550781 -5.347656 10.734375 -6.488281 10.734375 -8.09375 L 10.734375 -14.390625 L 15.703125 -14.390625 L 15.703125 0 Z M 11.953125 0 "/></g></g></g><g fill="rgb(100%, 100%, 100%)" fill-opacity="1"><g transform="translate(635.452247, 68.100034)"><g><path d="M 6.703125 0 L 1.734375 0 L 1.734375 -14.390625 L 6.703125 -14.390625 Z M 1.609375 -17.96875 C 1.609375 -18.707031 1.816406 -19.257812 2.234375 -19.625 C 2.648438 -19.988281 3.316406 -20.171875 4.234375 -20.171875 C 5.160156 -20.171875 5.832031 -19.984375 6.25 -19.609375 C 6.675781 -19.242188 6.890625 -18.695312 6.890625 -17.96875 C 6.890625 -16.507812 6.003906 -15.78125 4.234375 -15.78125 C 2.484375 -15.78125 1.609375 -16.507812 1.609375 -17.96875 Z M 1.609375 -17.96875 "/></g></g></g><g fill="rgb(100%, 100%, 100%)" fill-opacity="1"><g transform="translate(643.904807, 68.100034)"><g><path d="M 8.765625 -3.671875 C 9.429688 -3.671875 10.226562 -3.835938 11.15625 -4.171875 L 11.15625 -0.546875 C 10.488281 -0.253906 9.851562 -0.0507812 9.25 0.0625 C 8.644531 0.1875 7.9375 0.25 7.125 0.25 C 5.457031 0.25 4.253906 -0.15625 3.515625 -0.96875 C 2.773438 -1.789062 2.40625 -3.046875 2.40625 -4.734375 L 2.40625 -10.671875 L 0.671875 -10.671875 L 0.671875 -12.6875 L 2.875 -14.25 L 4.171875 -17.265625 L 7.421875 -17.265625 L 7.421875 -14.390625 L 10.9375 -14.390625 L 10.9375 -10.671875 L 7.421875 -10.671875 L 7.421875 -5.0625 C 7.421875 -4.132812 7.867188 -3.671875 8.765625 -3.671875 Z M 8.765625 -3.671875 "/></g></g></g><g fill="rgb(100%, 100%, 100%)" fill-opacity="1"><g transform="translate(655.86022, 68.100034)"><g><path d="M 15.453125 -7.21875 C 15.453125 -4.863281 14.816406 -3.03125 13.546875 -1.71875 C 12.285156 -0.40625 10.515625 0.25 8.234375 0.25 C 6.054688 0.25 4.320312 -0.421875 3.03125 -1.765625 C 1.738281 -3.109375 1.09375 -4.925781 1.09375 -7.21875 C 1.09375 -9.5625 1.722656 -11.382812 2.984375 -12.6875 C 4.253906 -13.988281 6.03125 -14.640625 8.3125 -14.640625 C 9.726562 -14.640625 10.976562 -14.335938 12.0625 -13.734375 C 13.144531 -13.128906 13.976562 -12.265625 14.5625 -11.140625 C 15.15625 -10.023438 15.453125 -8.71875 15.453125 -7.21875 Z M 6.125 -7.21875 C 6.125 -5.988281 6.289062 -5.046875 6.625 -4.390625 C 6.957031 -3.742188 7.515625 -3.421875 8.296875 -3.421875 C 9.066406 -3.421875 9.609375 -3.742188 9.921875 -4.390625 C 10.234375 -5.046875 10.390625 -5.988281 10.390625 -7.21875 C 10.390625 -8.445312 10.226562 -9.375 9.90625 -10 C 9.59375 -10.625 9.046875 -10.9375 8.265625 -10.9375 C 7.503906 -10.9375 6.957031 -10.625 6.625 -10 C 6.289062 -9.382812 6.125 -8.457031 6.125 -7.21875 Z M 6.125 -7.21875 "/></g></g></g></svg>