<svg xmlns="http://www.w3.org/2000/svg" xmlns:xlink="http://www.w3.org/1999/xlink" width="300" zoomAndPan="magnify" viewBox="0 0 224.87999 37.5" height="50" preserveAspectRatio="xMidYMid meet" version="1.0"><defs><g><g id="id1"/></g></defs><g fill="rgb(100%, 100%, 100%)" fill-opacity="1"><g transform="translate(21.380681, 15.542763)"><g><path d="M 5.4375 -2.171875 C 5.4375 -1.722656 5.320312 -1.328125 5.09375 -0.984375 C 4.875 -0.640625 4.550781 -0.375 4.125 -0.1875 C 3.707031 0 3.210938 0.09375 2.640625 0.09375 C 2.160156 0.09375 1.757812 0.0625 1.4375 0 C 1.125 -0.0703125 0.789062 -0.191406 0.4375 -0.359375 L 0.4375 -2.078125 C 0.800781 -1.878906 1.179688 -1.726562 1.578125 -1.625 C 1.984375 -1.519531 2.351562 -1.46875 2.6875 -1.46875 C 2.96875 -1.46875 3.175781 -1.515625 3.3125 -1.609375 C 3.445312 -1.710938 3.515625 -1.84375 3.515625 -2 C 3.515625 -2.101562 3.484375 -2.191406 3.421875 -2.265625 C 3.367188 -2.335938 3.285156 -2.410156 3.171875 -2.484375 C 3.054688 -2.554688 2.738281 -2.707031 2.21875 -2.9375 C 1.757812 -3.144531 1.410156 -3.347656 1.171875 -3.546875 C 0.941406 -3.753906 0.769531 -3.984375 0.65625 -4.234375 C 0.539062 -4.492188 0.484375 -4.800781 0.484375 -5.15625 C 0.484375 -5.8125 0.722656 -6.320312 1.203125 -6.6875 C 1.679688 -7.050781 2.335938 -7.234375 3.171875 -7.234375 C 3.910156 -7.234375 4.664062 -7.066406 5.4375 -6.734375 L 4.84375 -5.234375 C 4.175781 -5.546875 3.601562 -5.703125 3.125 -5.703125 C 2.875 -5.703125 2.691406 -5.65625 2.578125 -5.5625 C 2.460938 -5.476562 2.40625 -5.367188 2.40625 -5.234375 C 2.40625 -5.097656 2.476562 -4.972656 2.625 -4.859375 C 2.769531 -4.753906 3.160156 -4.554688 3.796875 -4.265625 C 4.410156 -3.984375 4.835938 -3.679688 5.078125 -3.359375 C 5.316406 -3.046875 5.4375 -2.648438 5.4375 -2.171875 Z M 5.4375 -2.171875 "/></g></g></g><g fill="rgb(100%, 100%, 100%)" fill-opacity="1"><g transform="translate(27.154093, 15.542763)"><g><path d="M 2.578125 0 L 0.671875 0 L 0.671875 -5.53125 L 2.578125 -5.53125 Z M 0.625 -6.90625 C 0.625 -7.195312 0.703125 -7.410156 0.859375 -7.546875 C 1.015625 -7.691406 1.269531 -7.765625 1.625 -7.765625 C 1.976562 -7.765625 2.238281 -7.691406 2.40625 -7.546875 C 2.570312 -7.398438 2.65625 -7.1875 2.65625 -6.90625 C 2.65625 -6.34375 2.3125 -6.0625 1.625 -6.0625 C 0.957031 -6.0625 0.625 -6.34375 0.625 -6.90625 Z M 0.625 -6.90625 "/></g></g></g><g fill="rgb(100%, 100%, 100%)" fill-opacity="1"><g transform="translate(30.407133, 15.542763)"><g><path d="M 7.453125 0 L 7.453125 -3.015625 C 7.453125 -3.378906 7.398438 -3.65625 7.296875 -3.84375 C 7.191406 -4.03125 7.03125 -4.125 6.8125 -4.125 C 6.519531 -4.125 6.304688 -4 6.171875 -3.75 C 6.035156 -3.5 5.96875 -3.109375 5.96875 -2.578125 L 5.96875 0 L 4.046875 0 L 4.046875 -3.015625 C 4.046875 -3.378906 3.992188 -3.65625 3.890625 -3.84375 C 3.796875 -4.03125 3.640625 -4.125 3.421875 -4.125 C 3.128906 -4.125 2.910156 -3.988281 2.765625 -3.71875 C 2.628906 -3.457031 2.5625 -3.023438 2.5625 -2.421875 L 2.5625 0 L 0.65625 0 L 0.65625 -5.53125 L 2.09375 -5.53125 L 2.34375 -4.84375 L 2.453125 -4.84375 C 2.597656 -5.101562 2.804688 -5.296875 3.078125 -5.421875 C 3.359375 -5.554688 3.675781 -5.625 4.03125 -5.625 C 4.832031 -5.625 5.394531 -5.382812 5.71875 -4.90625 L 5.875 -4.90625 C 6.03125 -5.132812 6.242188 -5.3125 6.515625 -5.4375 C 6.796875 -5.5625 7.101562 -5.625 7.4375 -5.625 C 8.09375 -5.625 8.578125 -5.457031 8.890625 -5.125 C 9.203125 -4.789062 9.359375 -4.28125 9.359375 -3.59375 L 9.359375 0 Z M 7.453125 0 "/></g></g></g><g fill="rgb(100%, 100%, 100%)" fill-opacity="1"><g transform="translate(40.410473, 15.542763)"><g><path d="M 3.984375 0.09375 C 3.703125 0.09375 3.445312 0.046875 3.21875 -0.046875 C 3 -0.140625 2.78125 -0.304688 2.5625 -0.546875 L 2.484375 -0.546875 C 2.535156 -0.148438 2.5625 0.09375 2.5625 0.1875 L 2.5625 2.40625 L 0.65625 2.40625 L 0.65625 -5.53125 L 2.21875 -5.53125 L 2.484375 -4.828125 L 2.5625 -4.828125 C 2.914062 -5.359375 3.40625 -5.625 4.03125 -5.625 C 4.644531 -5.625 5.125 -5.367188 5.46875 -4.859375 C 5.820312 -4.359375 6 -3.664062 6 -2.78125 C 6 -1.882812 5.816406 -1.179688 5.453125 -0.671875 C 5.085938 -0.160156 4.597656 0.09375 3.984375 0.09375 Z M 3.34375 -4.125 C 3.0625 -4.125 2.863281 -4.023438 2.75 -3.828125 C 2.632812 -3.628906 2.570312 -3.332031 2.5625 -2.9375 L 2.5625 -2.78125 C 2.5625 -2.3125 2.625 -1.96875 2.75 -1.75 C 2.882812 -1.539062 3.085938 -1.4375 3.359375 -1.4375 C 3.597656 -1.4375 3.773438 -1.539062 3.890625 -1.75 C 4.003906 -1.96875 4.0625 -2.316406 4.0625 -2.796875 C 4.0625 -3.273438 4.003906 -3.613281 3.890625 -3.8125 C 3.773438 -4.019531 3.59375 -4.125 3.34375 -4.125 Z M 3.34375 -4.125 "/></g></g></g><g fill="rgb(100%, 100%, 100%)" fill-opacity="1"><g transform="translate(46.843291, 15.542763)"><g><path d="M 2.5625 0 L 0.65625 0 L 0.65625 -7.59375 L 2.5625 -7.59375 Z M 2.5625 0 "/></g></g></g><g fill="rgb(100%, 100%, 100%)" fill-opacity="1"><g transform="translate(50.076793, 15.542763)"><g><path d="M 3.328125 0.09375 C 2.410156 0.09375 1.695312 -0.148438 1.1875 -0.640625 C 0.675781 -1.128906 0.421875 -1.828125 0.421875 -2.734375 C 0.421875 -3.660156 0.65625 -4.375 1.125 -4.875 C 1.601562 -5.375 2.28125 -5.625 3.15625 -5.625 C 3.988281 -5.625 4.628906 -5.40625 5.078125 -4.96875 C 5.535156 -4.539062 5.765625 -3.914062 5.765625 -3.09375 L 5.765625 -2.25 L 2.34375 -2.25 C 2.363281 -1.9375 2.476562 -1.691406 2.6875 -1.515625 C 2.90625 -1.347656 3.195312 -1.265625 3.5625 -1.265625 C 3.894531 -1.265625 4.203125 -1.296875 4.484375 -1.359375 C 4.765625 -1.421875 5.070312 -1.53125 5.40625 -1.6875 L 5.40625 -0.3125 C 5.101562 -0.15625 4.789062 -0.0507812 4.46875 0 C 4.15625 0.0625 3.773438 0.09375 3.328125 0.09375 Z M 3.21875 -4.328125 C 2.988281 -4.328125 2.796875 -4.253906 2.640625 -4.109375 C 2.492188 -3.972656 2.410156 -3.753906 2.390625 -3.453125 L 4.03125 -3.453125 C 4.019531 -3.722656 3.941406 -3.9375 3.796875 -4.09375 C 3.648438 -4.25 3.457031 -4.328125 3.21875 -4.328125 Z M 3.21875 -4.328125 "/></g></g></g><g fill="rgb(100%, 100%, 100%)" fill-opacity="1"><g transform="translate(56.260498, 15.542763)"><g><path d="M 4.9375 -1.703125 C 4.9375 -1.109375 4.734375 -0.660156 4.328125 -0.359375 C 3.921875 -0.0546875 3.34375 0.09375 2.59375 0.09375 C 2.175781 0.09375 1.816406 0.0703125 1.515625 0.03125 C 1.210938 -0.0078125 0.90625 -0.0859375 0.59375 -0.203125 L 0.59375 -1.734375 C 0.882812 -1.609375 1.207031 -1.503906 1.5625 -1.421875 C 1.914062 -1.335938 2.234375 -1.296875 2.515625 -1.296875 C 2.921875 -1.296875 3.125 -1.390625 3.125 -1.578125 C 3.125 -1.671875 3.066406 -1.753906 2.953125 -1.828125 C 2.835938 -1.910156 2.503906 -2.0625 1.953125 -2.28125 C 1.441406 -2.488281 1.082031 -2.722656 0.875 -2.984375 C 0.675781 -3.253906 0.578125 -3.59375 0.578125 -4 C 0.578125 -4.507812 0.773438 -4.90625 1.171875 -5.1875 C 1.566406 -5.476562 2.128906 -5.625 2.859375 -5.625 C 3.222656 -5.625 3.566406 -5.582031 3.890625 -5.5 C 4.210938 -5.425781 4.546875 -5.3125 4.890625 -5.15625 L 4.375 -3.9375 C 4.113281 -4.050781 3.84375 -4.144531 3.5625 -4.21875 C 3.28125 -4.300781 3.050781 -4.34375 2.875 -4.34375 C 2.5625 -4.34375 2.40625 -4.265625 2.40625 -4.109375 C 2.40625 -4.015625 2.457031 -3.929688 2.5625 -3.859375 C 2.675781 -3.796875 2.992188 -3.664062 3.515625 -3.46875 C 3.898438 -3.300781 4.1875 -3.140625 4.375 -2.984375 C 4.5625 -2.835938 4.703125 -2.660156 4.796875 -2.453125 C 4.890625 -2.242188 4.9375 -1.992188 4.9375 -1.703125 Z M 4.9375 -1.703125 "/></g></g></g><g fill="rgb(100%, 100%, 100%)" fill-opacity="1"><g transform="translate(61.594311, 15.542763)"><g/></g></g><g fill="rgb(100%, 100%, 100%)" fill-opacity="1"><g transform="translate(64.192835, 15.542763)"><g><path d="M 4.78125 -7.140625 L 6.9375 -7.140625 L 4.59375 0 L 2.328125 0 L 0 -7.140625 L 2.171875 -7.140625 L 3.140625 -3.515625 C 3.335938 -2.710938 3.445312 -2.15625 3.46875 -1.84375 C 3.488281 -2.070312 3.535156 -2.351562 3.609375 -2.6875 C 3.679688 -3.03125 3.742188 -3.300781 3.796875 -3.5 Z M 4.78125 -7.140625 "/></g></g></g><g fill="rgb(100%, 100%, 100%)" fill-opacity="1"><g transform="translate(71.133635, 15.542763)"><g><path d="M 2.578125 0 L 0.671875 0 L 0.671875 -5.53125 L 2.578125 -5.53125 Z M 0.625 -6.90625 C 0.625 -7.195312 0.703125 -7.410156 0.859375 -7.546875 C 1.015625 -7.691406 1.269531 -7.765625 1.625 -7.765625 C 1.976562 -7.765625 2.238281 -7.691406 2.40625 -7.546875 C 2.570312 -7.398438 2.65625 -7.1875 2.65625 -6.90625 C 2.65625 -6.34375 2.3125 -6.0625 1.625 -6.0625 C 0.957031 -6.0625 0.625 -6.34375 0.625 -6.90625 Z M 0.625 -6.90625 "/></g></g></g><g fill="rgb(100%, 100%, 100%)" fill-opacity="1"><g transform="translate(74.386674, 15.542763)"><g><path d="M 3.375 -1.40625 C 3.625 -1.40625 3.929688 -1.472656 4.296875 -1.609375 L 4.296875 -0.203125 C 4.035156 -0.0976562 3.785156 -0.0234375 3.546875 0.015625 C 3.316406 0.0664062 3.046875 0.09375 2.734375 0.09375 C 2.097656 0.09375 1.632812 -0.0625 1.34375 -0.375 C 1.0625 -0.6875 0.921875 -1.171875 0.921875 -1.828125 L 0.921875 -4.109375 L 0.265625 -4.109375 L 0.265625 -4.875 L 1.109375 -5.484375 L 1.609375 -6.640625 L 2.859375 -6.640625 L 2.859375 -5.53125 L 4.203125 -5.53125 L 4.203125 -4.109375 L 2.859375 -4.109375 L 2.859375 -1.953125 C 2.859375 -1.585938 3.03125 -1.40625 3.375 -1.40625 Z M 3.375 -1.40625 "/></g></g></g><g fill="rgb(100%, 100%, 100%)" fill-opacity="1"><g transform="translate(78.98782, 15.542763)"><g><path d="M 4.265625 0 L 3.90625 -0.734375 L 3.859375 -0.734375 C 3.609375 -0.410156 3.347656 -0.191406 3.078125 -0.078125 C 2.804688 0.0351562 2.460938 0.09375 2.046875 0.09375 C 1.523438 0.09375 1.113281 -0.0625 0.8125 -0.375 C 0.507812 -0.6875 0.359375 -1.125 0.359375 -1.6875 C 0.359375 -2.28125 0.5625 -2.71875 0.96875 -3 C 1.382812 -3.289062 1.984375 -3.453125 2.765625 -3.484375 L 3.6875 -3.515625 L 3.6875 -3.59375 C 3.6875 -4.050781 3.460938 -4.28125 3.015625 -4.28125 C 2.609375 -4.28125 2.09375 -4.144531 1.46875 -3.875 L 0.921875 -5.125 C 1.566406 -5.457031 2.378906 -5.625 3.359375 -5.625 C 4.066406 -5.625 4.613281 -5.445312 5 -5.09375 C 5.394531 -4.75 5.59375 -4.257812 5.59375 -3.625 L 5.59375 0 Z M 2.859375 -1.25 C 3.085938 -1.25 3.28125 -1.320312 3.4375 -1.46875 C 3.601562 -1.613281 3.6875 -1.804688 3.6875 -2.046875 L 3.6875 -2.46875 L 3.25 -2.453125 C 2.625 -2.429688 2.3125 -2.203125 2.3125 -1.765625 C 2.3125 -1.421875 2.492188 -1.25 2.859375 -1.25 Z M 2.859375 -1.25 "/></g></g></g><g fill="rgb(100%, 100%, 100%)" fill-opacity="1"><g transform="translate(85.22037, 15.542763)"><g><path d="M 7.453125 0 L 7.453125 -3.015625 C 7.453125 -3.378906 7.398438 -3.65625 7.296875 -3.84375 C 7.191406 -4.03125 7.03125 -4.125 6.8125 -4.125 C 6.519531 -4.125 6.304688 -4 6.171875 -3.75 C 6.035156 -3.5 5.96875 -3.109375 5.96875 -2.578125 L 5.96875 0 L 4.046875 0 L 4.046875 -3.015625 C 4.046875 -3.378906 3.992188 -3.65625 3.890625 -3.84375 C 3.796875 -4.03125 3.640625 -4.125 3.421875 -4.125 C 3.128906 -4.125 2.910156 -3.988281 2.765625 -3.71875 C 2.628906 -3.457031 2.5625 -3.023438 2.5625 -2.421875 L 2.5625 0 L 0.65625 0 L 0.65625 -5.53125 L 2.09375 -5.53125 L 2.34375 -4.84375 L 2.453125 -4.84375 C 2.597656 -5.101562 2.804688 -5.296875 3.078125 -5.421875 C 3.359375 -5.554688 3.675781 -5.625 4.03125 -5.625 C 4.832031 -5.625 5.394531 -5.382812 5.71875 -4.90625 L 5.875 -4.90625 C 6.03125 -5.132812 6.242188 -5.3125 6.515625 -5.4375 C 6.796875 -5.5625 7.101562 -5.625 7.4375 -5.625 C 8.09375 -5.625 8.578125 -5.457031 8.890625 -5.125 C 9.203125 -4.789062 9.359375 -4.28125 9.359375 -3.59375 L 9.359375 0 Z M 7.453125 0 "/></g></g></g><g fill="rgb(100%, 100%, 100%)" fill-opacity="1"><g transform="translate(95.22371, 15.542763)"><g><path d="M 2.578125 0 L 0.671875 0 L 0.671875 -5.53125 L 2.578125 -5.53125 Z M 0.625 -6.90625 C 0.625 -7.195312 0.703125 -7.410156 0.859375 -7.546875 C 1.015625 -7.691406 1.269531 -7.765625 1.625 -7.765625 C 1.976562 -7.765625 2.238281 -7.691406 2.40625 -7.546875 C 2.570312 -7.398438 2.65625 -7.1875 2.65625 -6.90625 C 2.65625 -6.34375 2.3125 -6.0625 1.625 -6.0625 C 0.957031 -6.0625 0.625 -6.34375 0.625 -6.90625 Z M 0.625 -6.90625 "/></g></g></g><g fill="rgb(100%, 100%, 100%)" fill-opacity="1"><g transform="translate(98.47675, 15.542763)"><g><path d="M 4.15625 0 L 4.15625 -3.015625 C 4.15625 -3.378906 4.097656 -3.65625 3.984375 -3.84375 C 3.878906 -4.03125 3.710938 -4.125 3.484375 -4.125 C 3.160156 -4.125 2.925781 -3.992188 2.78125 -3.734375 C 2.632812 -3.484375 2.5625 -3.046875 2.5625 -2.421875 L 2.5625 0 L 0.65625 0 L 0.65625 -5.53125 L 2.09375 -5.53125 L 2.34375 -4.84375 L 2.453125 -4.84375 C 2.617188 -5.101562 2.84375 -5.296875 3.125 -5.421875 C 3.414062 -5.554688 3.75 -5.625 4.125 -5.625 C 4.738281 -5.625 5.210938 -5.445312 5.546875 -5.09375 C 5.890625 -4.738281 6.0625 -4.238281 6.0625 -3.59375 L 6.0625 0 Z M 4.15625 0 "/></g></g></g><g fill="rgb(100%, 100%, 100%)" fill-opacity="1"><g transform="translate(105.178206, 15.542763)"><g><path d="M 4.265625 0 L 3.90625 -0.734375 L 3.859375 -0.734375 C 3.609375 -0.410156 3.347656 -0.191406 3.078125 -0.078125 C 2.804688 0.0351562 2.460938 0.09375 2.046875 0.09375 C 1.523438 0.09375 1.113281 -0.0625 0.8125 -0.375 C 0.507812 -0.6875 0.359375 -1.125 0.359375 -1.6875 C 0.359375 -2.28125 0.5625 -2.71875 0.96875 -3 C 1.382812 -3.289062 1.984375 -3.453125 2.765625 -3.484375 L 3.6875 -3.515625 L 3.6875 -3.59375 C 3.6875 -4.050781 3.460938 -4.28125 3.015625 -4.28125 C 2.609375 -4.28125 2.09375 -4.144531 1.46875 -3.875 L 0.921875 -5.125 C 1.566406 -5.457031 2.378906 -5.625 3.359375 -5.625 C 4.066406 -5.625 4.613281 -5.445312 5 -5.09375 C 5.394531 -4.75 5.59375 -4.257812 5.59375 -3.625 L 5.59375 0 Z M 2.859375 -1.25 C 3.085938 -1.25 3.28125 -1.320312 3.4375 -1.46875 C 3.601562 -1.613281 3.6875 -1.804688 3.6875 -2.046875 L 3.6875 -2.46875 L 3.25 -2.453125 C 2.625 -2.429688 2.3125 -2.203125 2.3125 -1.765625 C 2.3125 -1.421875 2.492188 -1.25 2.859375 -1.25 Z M 2.859375 -1.25 "/></g></g></g><g fill="rgb(100%, 100%, 100%)" fill-opacity="1"><g transform="translate(111.410756, 15.542763)"><g/></g></g><g fill="rgb(100%, 100%, 100%)" fill-opacity="1"><g transform="translate(114.00928, 15.542763)"><g><path d="M 2.375 0.09375 C 1.976562 0.09375 1.632812 -0.015625 1.34375 -0.234375 C 1.050781 -0.460938 0.820312 -0.796875 0.65625 -1.234375 C 0.5 -1.671875 0.421875 -2.179688 0.421875 -2.765625 C 0.421875 -3.660156 0.597656 -4.359375 0.953125 -4.859375 C 1.316406 -5.367188 1.816406 -5.625 2.453125 -5.625 C 2.765625 -5.625 3.035156 -5.5625 3.265625 -5.4375 C 3.492188 -5.320312 3.707031 -5.113281 3.90625 -4.8125 L 3.9375 -4.8125 C 3.875 -5.25 3.84375 -5.6875 3.84375 -6.125 L 3.84375 -7.59375 L 5.765625 -7.59375 L 5.765625 0 L 4.328125 0 L 3.921875 -0.703125 L 3.84375 -0.703125 C 3.519531 -0.171875 3.03125 0.09375 2.375 0.09375 Z M 3.15625 -1.40625 C 3.46875 -1.40625 3.6875 -1.5 3.8125 -1.6875 C 3.9375 -1.882812 4.003906 -2.1875 4.015625 -2.59375 L 4.015625 -2.734375 C 4.015625 -3.222656 3.941406 -3.570312 3.796875 -3.78125 C 3.660156 -3.988281 3.441406 -4.09375 3.140625 -4.09375 C 2.890625 -4.09375 2.691406 -3.972656 2.546875 -3.734375 C 2.410156 -3.503906 2.34375 -3.171875 2.34375 -2.734375 C 2.34375 -2.296875 2.410156 -1.960938 2.546875 -1.734375 C 2.691406 -1.515625 2.894531 -1.40625 3.15625 -1.40625 Z M 3.15625 -1.40625 "/></g></g></g><g fill="rgb(100%, 100%, 100%)" fill-opacity="1"><g transform="translate(120.442098, 15.542763)"><g><path d="M 3.328125 0.09375 C 2.410156 0.09375 1.695312 -0.148438 1.1875 -0.640625 C 0.675781 -1.128906 0.421875 -1.828125 0.421875 -2.734375 C 0.421875 -3.660156 0.65625 -4.375 1.125 -4.875 C 1.601562 -5.375 2.28125 -5.625 3.15625 -5.625 C 3.988281 -5.625 4.628906 -5.40625 5.078125 -4.96875 C 5.535156 -4.539062 5.765625 -3.914062 5.765625 -3.09375 L 5.765625 -2.25 L 2.34375 -2.25 C 2.363281 -1.9375 2.476562 -1.691406 2.6875 -1.515625 C 2.90625 -1.347656 3.195312 -1.265625 3.5625 -1.265625 C 3.894531 -1.265625 4.203125 -1.296875 4.484375 -1.359375 C 4.765625 -1.421875 5.070312 -1.53125 5.40625 -1.6875 L 5.40625 -0.3125 C 5.101562 -0.15625 4.789062 -0.0507812 4.46875 0 C 4.15625 0.0625 3.773438 0.09375 3.328125 0.09375 Z M 3.21875 -4.328125 C 2.988281 -4.328125 2.796875 -4.253906 2.640625 -4.109375 C 2.492188 -3.972656 2.410156 -3.753906 2.390625 -3.453125 L 4.03125 -3.453125 C 4.019531 -3.722656 3.941406 -3.9375 3.796875 -4.09375 C 3.648438 -4.25 3.457031 -4.328125 3.21875 -4.328125 Z M 3.21875 -4.328125 "/></g></g></g><g fill="rgb(100%, 100%, 100%)" fill-opacity="1"><g transform="translate(126.625804, 15.542763)"><g/></g></g><g fill="rgb(100%, 100%, 100%)" fill-opacity="1"><g transform="translate(129.224328, 15.542763)"><g><path d="M 0.34375 -3.015625 C 0.34375 -4.015625 0.484375 -4.820312 0.765625 -5.4375 C 1.054688 -6.050781 1.476562 -6.503906 2.03125 -6.796875 C 2.582031 -7.085938 3.265625 -7.234375 4.078125 -7.234375 C 4.367188 -7.234375 4.707031 -7.207031 5.09375 -7.15625 L 5.09375 -5.65625 C 4.769531 -5.71875 4.414062 -5.75 4.03125 -5.75 C 3.394531 -5.75 2.914062 -5.601562 2.59375 -5.3125 C 2.28125 -5.03125 2.109375 -4.570312 2.078125 -3.9375 L 2.140625 -3.9375 C 2.429688 -4.488281 2.898438 -4.765625 3.546875 -4.765625 C 4.179688 -4.765625 4.671875 -4.554688 5.015625 -4.140625 C 5.367188 -3.734375 5.546875 -3.164062 5.546875 -2.4375 C 5.546875 -1.65625 5.320312 -1.035156 4.875 -0.578125 C 4.4375 -0.128906 3.820312 0.09375 3.03125 0.09375 C 2.1875 0.09375 1.523438 -0.175781 1.046875 -0.71875 C 0.578125 -1.269531 0.34375 -2.035156 0.34375 -3.015625 Z M 2.984375 -1.4375 C 3.191406 -1.4375 3.359375 -1.507812 3.484375 -1.65625 C 3.617188 -1.8125 3.6875 -2.0625 3.6875 -2.40625 C 3.6875 -2.976562 3.460938 -3.265625 3.015625 -3.265625 C 2.785156 -3.265625 2.601562 -3.191406 2.46875 -3.046875 C 2.332031 -2.898438 2.265625 -2.71875 2.265625 -2.5 C 2.265625 -2.1875 2.328125 -1.929688 2.453125 -1.734375 C 2.585938 -1.535156 2.765625 -1.4375 2.984375 -1.4375 Z M 2.984375 -1.4375 "/></g></g></g><g fill="rgb(100%, 100%, 100%)" fill-opacity="1"><g transform="translate(135.08566, 15.542763)"><g/></g></g><g fill="rgb(100%, 100%, 100%)" fill-opacity="1"><g transform="translate(137.684184, 15.542763)"><g><path d="M 0.765625 0 L 0.765625 -7.140625 L 2.703125 -7.140625 L 2.703125 0 Z M 0.765625 0 "/></g></g></g><g fill="rgb(100%, 100%, 100%)" fill-opacity="1"><g transform="translate(141.166798, 15.542763)"><g><path d="M 4.15625 0 L 4.15625 -3.015625 C 4.15625 -3.378906 4.097656 -3.65625 3.984375 -3.84375 C 3.878906 -4.03125 3.710938 -4.125 3.484375 -4.125 C 3.160156 -4.125 2.925781 -3.992188 2.78125 -3.734375 C 2.632812 -3.484375 2.5625 -3.046875 2.5625 -2.421875 L 2.5625 0 L 0.65625 0 L 0.65625 -5.53125 L 2.09375 -5.53125 L 2.34375 -4.84375 L 2.453125 -4.84375 C 2.617188 -5.101562 2.84375 -5.296875 3.125 -5.421875 C 3.414062 -5.554688 3.75 -5.625 4.125 -5.625 C 4.738281 -5.625 5.210938 -5.445312 5.546875 -5.09375 C 5.890625 -4.738281 6.0625 -4.238281 6.0625 -3.59375 L 6.0625 0 Z M 4.15625 0 "/></g></g></g><g fill="rgb(100%, 100%, 100%)" fill-opacity="1"><g transform="translate(147.868254, 15.542763)"><g><path d="M 5.875 -5.53125 L 5.875 -4.609375 L 5.125 -4.328125 C 5.226562 -4.140625 5.28125 -3.921875 5.28125 -3.671875 C 5.28125 -3.078125 5.070312 -2.613281 4.65625 -2.28125 C 4.238281 -1.957031 3.613281 -1.796875 2.78125 -1.796875 C 2.570312 -1.796875 2.410156 -1.804688 2.296875 -1.828125 C 2.242188 -1.742188 2.21875 -1.664062 2.21875 -1.59375 C 2.21875 -1.5 2.296875 -1.425781 2.453125 -1.375 C 2.609375 -1.320312 2.804688 -1.296875 3.046875 -1.296875 L 3.96875 -1.296875 C 5.207031 -1.296875 5.828125 -0.773438 5.828125 0.265625 C 5.828125 0.941406 5.539062 1.46875 4.96875 1.84375 C 4.394531 2.21875 3.585938 2.40625 2.546875 2.40625 C 1.765625 2.40625 1.160156 2.269531 0.734375 2 C 0.304688 1.738281 0.09375 1.363281 0.09375 0.875 C 0.09375 0.21875 0.503906 -0.207031 1.328125 -0.40625 C 1.160156 -0.476562 1.015625 -0.59375 0.890625 -0.75 C 0.765625 -0.90625 0.703125 -1.0625 0.703125 -1.21875 C 0.703125 -1.394531 0.75 -1.546875 0.84375 -1.671875 C 0.9375 -1.804688 1.132812 -1.96875 1.4375 -2.15625 C 1.144531 -2.28125 0.914062 -2.476562 0.75 -2.75 C 0.59375 -3.019531 0.515625 -3.347656 0.515625 -3.734375 C 0.515625 -4.335938 0.71875 -4.800781 1.125 -5.125 C 1.53125 -5.457031 2.113281 -5.625 2.875 -5.625 C 2.976562 -5.625 3.15625 -5.613281 3.40625 -5.59375 C 3.65625 -5.570312 3.835938 -5.550781 3.953125 -5.53125 Z M 1.703125 0.6875 C 1.703125 0.84375 1.785156 0.96875 1.953125 1.0625 C 2.128906 1.164062 2.359375 1.21875 2.640625 1.21875 C 3.097656 1.21875 3.46875 1.15625 3.75 1.03125 C 4.03125 0.914062 4.171875 0.769531 4.171875 0.59375 C 4.171875 0.445312 4.082031 0.34375 3.90625 0.28125 C 3.738281 0.21875 3.5 0.1875 3.1875 0.1875 L 2.4375 0.1875 C 2.238281 0.1875 2.066406 0.234375 1.921875 0.328125 C 1.773438 0.429688 1.703125 0.550781 1.703125 0.6875 Z M 2.3125 -3.71875 C 2.3125 -3.15625 2.507812 -2.875 2.90625 -2.875 C 3.082031 -2.875 3.21875 -2.941406 3.3125 -3.078125 C 3.414062 -3.222656 3.46875 -3.4375 3.46875 -3.71875 C 3.46875 -4.289062 3.28125 -4.578125 2.90625 -4.578125 C 2.507812 -4.578125 2.3125 -4.289062 2.3125 -3.71875 Z M 2.3125 -3.71875 "/></g></g></g><g fill="rgb(100%, 100%, 100%)" fill-opacity="1"><g transform="translate(153.929855, 15.542763)"><g><path d="M 4 -5.625 C 4.164062 -5.625 4.320312 -5.613281 4.46875 -5.59375 L 4.578125 -5.578125 L 4.40625 -3.765625 C 4.25 -3.804688 4.035156 -3.828125 3.765625 -3.828125 C 3.347656 -3.828125 3.039062 -3.726562 2.84375 -3.53125 C 2.65625 -3.34375 2.5625 -3.070312 2.5625 -2.71875 L 2.5625 0 L 0.65625 0 L 0.65625 -5.53125 L 2.078125 -5.53125 L 2.375 -4.65625 L 2.46875 -4.65625 C 2.625 -4.945312 2.84375 -5.179688 3.125 -5.359375 C 3.414062 -5.535156 3.707031 -5.625 4 -5.625 Z M 4 -5.625 "/></g></g></g><g fill="rgb(100%, 100%, 100%)" fill-opacity="1"><g transform="translate(158.623811, 15.542763)"><g><path d="M 3.328125 0.09375 C 2.410156 0.09375 1.695312 -0.148438 1.1875 -0.640625 C 0.675781 -1.128906 0.421875 -1.828125 0.421875 -2.734375 C 0.421875 -3.660156 0.65625 -4.375 1.125 -4.875 C 1.601562 -5.375 2.28125 -5.625 3.15625 -5.625 C 3.988281 -5.625 4.628906 -5.40625 5.078125 -4.96875 C 5.535156 -4.539062 5.765625 -3.914062 5.765625 -3.09375 L 5.765625 -2.25 L 2.34375 -2.25 C 2.363281 -1.9375 2.476562 -1.691406 2.6875 -1.515625 C 2.90625 -1.347656 3.195312 -1.265625 3.5625 -1.265625 C 3.894531 -1.265625 4.203125 -1.296875 4.484375 -1.359375 C 4.765625 -1.421875 5.070312 -1.53125 5.40625 -1.6875 L 5.40625 -0.3125 C 5.101562 -0.15625 4.789062 -0.0507812 4.46875 0 C 4.15625 0.0625 3.773438 0.09375 3.328125 0.09375 Z M 3.21875 -4.328125 C 2.988281 -4.328125 2.796875 -4.253906 2.640625 -4.109375 C 2.492188 -3.972656 2.410156 -3.753906 2.390625 -3.453125 L 4.03125 -3.453125 C 4.019531 -3.722656 3.941406 -3.9375 3.796875 -4.09375 C 3.648438 -4.25 3.457031 -4.328125 3.21875 -4.328125 Z M 3.21875 -4.328125 "/></g></g></g><g fill="rgb(100%, 100%, 100%)" fill-opacity="1"><g transform="translate(164.807516, 15.542763)"><g><path d="M 2.375 0.09375 C 1.976562 0.09375 1.632812 -0.015625 1.34375 -0.234375 C 1.050781 -0.460938 0.820312 -0.796875 0.65625 -1.234375 C 0.5 -1.671875 0.421875 -2.179688 0.421875 -2.765625 C 0.421875 -3.660156 0.597656 -4.359375 0.953125 -4.859375 C 1.316406 -5.367188 1.816406 -5.625 2.453125 -5.625 C 2.765625 -5.625 3.035156 -5.5625 3.265625 -5.4375 C 3.492188 -5.320312 3.707031 -5.113281 3.90625 -4.8125 L 3.9375 -4.8125 C 3.875 -5.25 3.84375 -5.6875 3.84375 -6.125 L 3.84375 -7.59375 L 5.765625 -7.59375 L 5.765625 0 L 4.328125 0 L 3.921875 -0.703125 L 3.84375 -0.703125 C 3.519531 -0.171875 3.03125 0.09375 2.375 0.09375 Z M 3.15625 -1.40625 C 3.46875 -1.40625 3.6875 -1.5 3.8125 -1.6875 C 3.9375 -1.882812 4.003906 -2.1875 4.015625 -2.59375 L 4.015625 -2.734375 C 4.015625 -3.222656 3.941406 -3.570312 3.796875 -3.78125 C 3.660156 -3.988281 3.441406 -4.09375 3.140625 -4.09375 C 2.890625 -4.09375 2.691406 -3.972656 2.546875 -3.734375 C 2.410156 -3.503906 2.34375 -3.171875 2.34375 -2.734375 C 2.34375 -2.296875 2.410156 -1.960938 2.546875 -1.734375 C 2.691406 -1.515625 2.894531 -1.40625 3.15625 -1.40625 Z M 3.15625 -1.40625 "/></g></g></g><g fill="rgb(100%, 100%, 100%)" fill-opacity="1"><g transform="translate(171.240334, 15.542763)"><g><path d="M 2.578125 0 L 0.671875 0 L 0.671875 -5.53125 L 2.578125 -5.53125 Z M 0.625 -6.90625 C 0.625 -7.195312 0.703125 -7.410156 0.859375 -7.546875 C 1.015625 -7.691406 1.269531 -7.765625 1.625 -7.765625 C 1.976562 -7.765625 2.238281 -7.691406 2.40625 -7.546875 C 2.570312 -7.398438 2.65625 -7.1875 2.65625 -6.90625 C 2.65625 -6.34375 2.3125 -6.0625 1.625 -6.0625 C 0.957031 -6.0625 0.625 -6.34375 0.625 -6.90625 Z M 0.625 -6.90625 "/></g></g></g><g fill="rgb(100%, 100%, 100%)" fill-opacity="1"><g transform="translate(174.493373, 15.542763)"><g><path d="M 3.328125 0.09375 C 2.410156 0.09375 1.695312 -0.148438 1.1875 -0.640625 C 0.675781 -1.128906 0.421875 -1.828125 0.421875 -2.734375 C 0.421875 -3.660156 0.65625 -4.375 1.125 -4.875 C 1.601562 -5.375 2.28125 -5.625 3.15625 -5.625 C 3.988281 -5.625 4.628906 -5.40625 5.078125 -4.96875 C 5.535156 -4.539062 5.765625 -3.914062 5.765625 -3.09375 L 5.765625 -2.25 L 2.34375 -2.25 C 2.363281 -1.9375 2.476562 -1.691406 2.6875 -1.515625 C 2.90625 -1.347656 3.195312 -1.265625 3.5625 -1.265625 C 3.894531 -1.265625 4.203125 -1.296875 4.484375 -1.359375 C 4.765625 -1.421875 5.070312 -1.53125 5.40625 -1.6875 L 5.40625 -0.3125 C 5.101562 -0.15625 4.789062 -0.0507812 4.46875 0 C 4.15625 0.0625 3.773438 0.09375 3.328125 0.09375 Z M 3.21875 -4.328125 C 2.988281 -4.328125 2.796875 -4.253906 2.640625 -4.109375 C 2.492188 -3.972656 2.410156 -3.753906 2.390625 -3.453125 L 4.03125 -3.453125 C 4.019531 -3.722656 3.941406 -3.9375 3.796875 -4.09375 C 3.648438 -4.25 3.457031 -4.328125 3.21875 -4.328125 Z M 3.21875 -4.328125 "/></g></g></g><g fill="rgb(100%, 100%, 100%)" fill-opacity="1"><g transform="translate(180.677079, 15.542763)"><g><path d="M 4.15625 0 L 4.15625 -3.015625 C 4.15625 -3.378906 4.097656 -3.65625 3.984375 -3.84375 C 3.878906 -4.03125 3.710938 -4.125 3.484375 -4.125 C 3.160156 -4.125 2.925781 -3.992188 2.78125 -3.734375 C 2.632812 -3.484375 2.5625 -3.046875 2.5625 -2.421875 L 2.5625 0 L 0.65625 0 L 0.65625 -5.53125 L 2.09375 -5.53125 L 2.34375 -4.84375 L 2.453125 -4.84375 C 2.617188 -5.101562 2.84375 -5.296875 3.125 -5.421875 C 3.414062 -5.554688 3.75 -5.625 4.125 -5.625 C 4.738281 -5.625 5.210938 -5.445312 5.546875 -5.09375 C 5.890625 -4.738281 6.0625 -4.238281 6.0625 -3.59375 L 6.0625 0 Z M 4.15625 0 "/></g></g></g><g fill="rgb(100%, 100%, 100%)" fill-opacity="1"><g transform="translate(187.378536, 15.542763)"><g><path d="M 3.375 -1.40625 C 3.625 -1.40625 3.929688 -1.472656 4.296875 -1.609375 L 4.296875 -0.203125 C 4.035156 -0.0976562 3.785156 -0.0234375 3.546875 0.015625 C 3.316406 0.0664062 3.046875 0.09375 2.734375 0.09375 C 2.097656 0.09375 1.632812 -0.0625 1.34375 -0.375 C 1.0625 -0.6875 0.921875 -1.171875 0.921875 -1.828125 L 0.921875 -4.109375 L 0.265625 -4.109375 L 0.265625 -4.875 L 1.109375 -5.484375 L 1.609375 -6.640625 L 2.859375 -6.640625 L 2.859375 -5.53125 L 4.203125 -5.53125 L 4.203125 -4.109375 L 2.859375 -4.109375 L 2.859375 -1.953125 C 2.859375 -1.585938 3.03125 -1.40625 3.375 -1.40625 Z M 3.375 -1.40625 "/></g></g></g><g fill="rgb(100%, 100%, 100%)" fill-opacity="1"><g transform="translate(191.979681, 15.542763)"><g><path d="M 3.328125 0.09375 C 2.410156 0.09375 1.695312 -0.148438 1.1875 -0.640625 C 0.675781 -1.128906 0.421875 -1.828125 0.421875 -2.734375 C 0.421875 -3.660156 0.65625 -4.375 1.125 -4.875 C 1.601562 -5.375 2.28125 -5.625 3.15625 -5.625 C 3.988281 -5.625 4.628906 -5.40625 5.078125 -4.96875 C 5.535156 -4.539062 5.765625 -3.914062 5.765625 -3.09375 L 5.765625 -2.25 L 2.34375 -2.25 C 2.363281 -1.9375 2.476562 -1.691406 2.6875 -1.515625 C 2.90625 -1.347656 3.195312 -1.265625 3.5625 -1.265625 C 3.894531 -1.265625 4.203125 -1.296875 4.484375 -1.359375 C 4.765625 -1.421875 5.070312 -1.53125 5.40625 -1.6875 L 5.40625 -0.3125 C 5.101562 -0.15625 4.789062 -0.0507812 4.46875 0 C 4.15625 0.0625 3.773438 0.09375 3.328125 0.09375 Z M 3.21875 -4.328125 C 2.988281 -4.328125 2.796875 -4.253906 2.640625 -4.109375 C 2.492188 -3.972656 2.410156 -3.753906 2.390625 -3.453125 L 4.03125 -3.453125 C 4.019531 -3.722656 3.941406 -3.9375 3.796875 -4.09375 C 3.648438 -4.25 3.457031 -4.328125 3.21875 -4.328125 Z M 3.21875 -4.328125 "/></g></g></g><g fill="rgb(100%, 100%, 100%)" fill-opacity="1"><g transform="translate(198.163387, 15.542763)"><g><path d="M 4.9375 -1.703125 C 4.9375 -1.109375 4.734375 -0.660156 4.328125 -0.359375 C 3.921875 -0.0546875 3.34375 0.09375 2.59375 0.09375 C 2.175781 0.09375 1.816406 0.0703125 1.515625 0.03125 C 1.210938 -0.0078125 0.90625 -0.0859375 0.59375 -0.203125 L 0.59375 -1.734375 C 0.882812 -1.609375 1.207031 -1.503906 1.5625 -1.421875 C 1.914062 -1.335938 2.234375 -1.296875 2.515625 -1.296875 C 2.921875 -1.296875 3.125 -1.390625 3.125 -1.578125 C 3.125 -1.671875 3.066406 -1.753906 2.953125 -1.828125 C 2.835938 -1.910156 2.503906 -2.0625 1.953125 -2.28125 C 1.441406 -2.488281 1.082031 -2.722656 0.875 -2.984375 C 0.675781 -3.253906 0.578125 -3.59375 0.578125 -4 C 0.578125 -4.507812 0.773438 -4.90625 1.171875 -5.1875 C 1.566406 -5.476562 2.128906 -5.625 2.859375 -5.625 C 3.222656 -5.625 3.566406 -5.582031 3.890625 -5.5 C 4.210938 -5.425781 4.546875 -5.3125 4.890625 -5.15625 L 4.375 -3.9375 C 4.113281 -4.050781 3.84375 -4.144531 3.5625 -4.21875 C 3.28125 -4.300781 3.050781 -4.34375 2.875 -4.34375 C 2.5625 -4.34375 2.40625 -4.265625 2.40625 -4.109375 C 2.40625 -4.015625 2.457031 -3.929688 2.5625 -3.859375 C 2.675781 -3.796875 2.992188 -3.664062 3.515625 -3.46875 C 3.898438 -3.300781 4.1875 -3.140625 4.375 -2.984375 C 4.5625 -2.835938 4.703125 -2.660156 4.796875 -2.453125 C 4.890625 -2.242188 4.9375 -1.992188 4.9375 -1.703125 Z M 4.9375 -1.703125 "/></g></g></g><g fill="rgb(100%, 100%, 100%)" fill-opacity="1"><g transform="translate(75.895995, 28.865131)"><g><path d="M 6.828125 -3.71875 C 6.828125 -2.53125 6.5 -1.613281 5.84375 -0.96875 C 5.1875 -0.320312 4.265625 0 3.078125 0 L 0.765625 0 L 0.765625 -7.140625 L 3.25 -7.140625 C 4.394531 -7.140625 5.273438 -6.84375 5.890625 -6.25 C 6.515625 -5.664062 6.828125 -4.820312 6.828125 -3.71875 Z M 4.828125 -3.65625 C 4.828125 -4.3125 4.695312 -4.796875 4.4375 -5.109375 C 4.175781 -5.421875 3.785156 -5.578125 3.265625 -5.578125 L 2.703125 -5.578125 L 2.703125 -1.578125 L 3.125 -1.578125 C 3.71875 -1.578125 4.148438 -1.75 4.421875 -2.09375 C 4.691406 -2.4375 4.828125 -2.957031 4.828125 -3.65625 Z M 4.828125 -3.65625 "/></g></g></g><g fill="rgb(100%, 100%, 100%)" fill-opacity="1"><g transform="translate(83.23732, 28.865131)"><g><path d="M 3.328125 0.09375 C 2.410156 0.09375 1.695312 -0.148438 1.1875 -0.640625 C 0.675781 -1.128906 0.421875 -1.828125 0.421875 -2.734375 C 0.421875 -3.660156 0.65625 -4.375 1.125 -4.875 C 1.601562 -5.375 2.28125 -5.625 3.15625 -5.625 C 3.988281 -5.625 4.628906 -5.40625 5.078125 -4.96875 C 5.535156 -4.539062 5.765625 -3.914062 5.765625 -3.09375 L 5.765625 -2.25 L 2.34375 -2.25 C 2.363281 -1.9375 2.476562 -1.691406 2.6875 -1.515625 C 2.90625 -1.347656 3.195312 -1.265625 3.5625 -1.265625 C 3.894531 -1.265625 4.203125 -1.296875 4.484375 -1.359375 C 4.765625 -1.421875 5.070312 -1.53125 5.40625 -1.6875 L 5.40625 -0.3125 C 5.101562 -0.15625 4.789062 -0.0507812 4.46875 0 C 4.15625 0.0625 3.773438 0.09375 3.328125 0.09375 Z M 3.21875 -4.328125 C 2.988281 -4.328125 2.796875 -4.253906 2.640625 -4.109375 C 2.492188 -3.972656 2.410156 -3.753906 2.390625 -3.453125 L 4.03125 -3.453125 C 4.019531 -3.722656 3.941406 -3.9375 3.796875 -4.09375 C 3.648438 -4.25 3.457031 -4.328125 3.21875 -4.328125 Z M 3.21875 -4.328125 "/></g></g></g><g fill="rgb(100%, 100%, 100%)" fill-opacity="1"><g transform="translate(89.421025, 28.865131)"><g><path d="M 4 -5.625 C 4.164062 -5.625 4.320312 -5.613281 4.46875 -5.59375 L 4.578125 -5.578125 L 4.40625 -3.765625 C 4.25 -3.804688 4.035156 -3.828125 3.765625 -3.828125 C 3.347656 -3.828125 3.039062 -3.726562 2.84375 -3.53125 C 2.65625 -3.34375 2.5625 -3.070312 2.5625 -2.71875 L 2.5625 0 L 0.65625 0 L 0.65625 -5.53125 L 2.078125 -5.53125 L 2.375 -4.65625 L 2.46875 -4.65625 C 2.625 -4.945312 2.84375 -5.179688 3.125 -5.359375 C 3.414062 -5.535156 3.707031 -5.625 4 -5.625 Z M 4 -5.625 "/></g></g></g><g fill="rgb(100%, 100%, 100%)" fill-opacity="1"><g transform="translate(94.114981, 28.865131)"><g><path d="M 4 -5.625 C 4.164062 -5.625 4.320312 -5.613281 4.46875 -5.59375 L 4.578125 -5.578125 L 4.40625 -3.765625 C 4.25 -3.804688 4.035156 -3.828125 3.765625 -3.828125 C 3.347656 -3.828125 3.039062 -3.726562 2.84375 -3.53125 C 2.65625 -3.34375 2.5625 -3.070312 2.5625 -2.71875 L 2.5625 0 L 0.65625 0 L 0.65625 -5.53125 L 2.078125 -5.53125 L 2.375 -4.65625 L 2.46875 -4.65625 C 2.625 -4.945312 2.84375 -5.179688 3.125 -5.359375 C 3.414062 -5.535156 3.707031 -5.625 4 -5.625 Z M 4 -5.625 "/></g></g></g><g fill="rgb(100%, 100%, 100%)" fill-opacity="1"><g transform="translate(98.808937, 28.865131)"><g><path d="M 3.328125 0.09375 C 2.410156 0.09375 1.695312 -0.148438 1.1875 -0.640625 C 0.675781 -1.128906 0.421875 -1.828125 0.421875 -2.734375 C 0.421875 -3.660156 0.65625 -4.375 1.125 -4.875 C 1.601562 -5.375 2.28125 -5.625 3.15625 -5.625 C 3.988281 -5.625 4.628906 -5.40625 5.078125 -4.96875 C 5.535156 -4.539062 5.765625 -3.914062 5.765625 -3.09375 L 5.765625 -2.25 L 2.34375 -2.25 C 2.363281 -1.9375 2.476562 -1.691406 2.6875 -1.515625 C 2.90625 -1.347656 3.195312 -1.265625 3.5625 -1.265625 C 3.894531 -1.265625 4.203125 -1.296875 4.484375 -1.359375 C 4.765625 -1.421875 5.070312 -1.53125 5.40625 -1.6875 L 5.40625 -0.3125 C 5.101562 -0.15625 4.789062 -0.0507812 4.46875 0 C 4.15625 0.0625 3.773438 0.09375 3.328125 0.09375 Z M 3.21875 -4.328125 C 2.988281 -4.328125 2.796875 -4.253906 2.640625 -4.109375 C 2.492188 -3.972656 2.410156 -3.753906 2.390625 -3.453125 L 4.03125 -3.453125 C 4.019531 -3.722656 3.941406 -3.9375 3.796875 -4.09375 C 3.648438 -4.25 3.457031 -4.328125 3.21875 -4.328125 Z M 3.21875 -4.328125 "/></g></g></g><g fill="rgb(100%, 100%, 100%)" fill-opacity="1"><g transform="translate(104.992643, 28.865131)"><g><path d="M 3.375 -1.40625 C 3.625 -1.40625 3.929688 -1.472656 4.296875 -1.609375 L 4.296875 -0.203125 C 4.035156 -0.0976562 3.785156 -0.0234375 3.546875 0.015625 C 3.316406 0.0664062 3.046875 0.09375 2.734375 0.09375 C 2.097656 0.09375 1.632812 -0.0625 1.34375 -0.375 C 1.0625 -0.6875 0.921875 -1.171875 0.921875 -1.828125 L 0.921875 -4.109375 L 0.265625 -4.109375 L 0.265625 -4.875 L 1.109375 -5.484375 L 1.609375 -6.640625 L 2.859375 -6.640625 L 2.859375 -5.53125 L 4.203125 -5.53125 L 4.203125 -4.109375 L 2.859375 -4.109375 L 2.859375 -1.953125 C 2.859375 -1.585938 3.03125 -1.40625 3.375 -1.40625 Z M 3.375 -1.40625 "/></g></g></g><g fill="rgb(100%, 100%, 100%)" fill-opacity="1"><g transform="translate(109.593788, 28.865131)"><g><path d="M 3.328125 0.09375 C 2.410156 0.09375 1.695312 -0.148438 1.1875 -0.640625 C 0.675781 -1.128906 0.421875 -1.828125 0.421875 -2.734375 C 0.421875 -3.660156 0.65625 -4.375 1.125 -4.875 C 1.601562 -5.375 2.28125 -5.625 3.15625 -5.625 C 3.988281 -5.625 4.628906 -5.40625 5.078125 -4.96875 C 5.535156 -4.539062 5.765625 -3.914062 5.765625 -3.09375 L 5.765625 -2.25 L 2.34375 -2.25 C 2.363281 -1.9375 2.476562 -1.691406 2.6875 -1.515625 C 2.90625 -1.347656 3.195312 -1.265625 3.5625 -1.265625 C 3.894531 -1.265625 4.203125 -1.296875 4.484375 -1.359375 C 4.765625 -1.421875 5.070312 -1.53125 5.40625 -1.6875 L 5.40625 -0.3125 C 5.101562 -0.15625 4.789062 -0.0507812 4.46875 0 C 4.15625 0.0625 3.773438 0.09375 3.328125 0.09375 Z M 3.21875 -4.328125 C 2.988281 -4.328125 2.796875 -4.253906 2.640625 -4.109375 C 2.492188 -3.972656 2.410156 -3.753906 2.390625 -3.453125 L 4.03125 -3.453125 C 4.019531 -3.722656 3.941406 -3.9375 3.796875 -4.09375 C 3.648438 -4.25 3.457031 -4.328125 3.21875 -4.328125 Z M 3.21875 -4.328125 "/></g></g></g><g fill="rgb(100%, 100%, 100%)" fill-opacity="1"><g transform="translate(115.777494, 28.865131)"><g/></g></g><g fill="rgb(100%, 100%, 100%)" fill-opacity="1"><g transform="translate(118.376018, 28.865131)"><g><path d="M 3.875 0 L 2.421875 -5.140625 L 2.375 -5.140625 C 2.445312 -4.265625 2.484375 -3.582031 2.484375 -3.09375 L 2.484375 0 L 0.765625 0 L 0.765625 -7.140625 L 3.34375 -7.140625 L 4.828125 -2.078125 L 4.875 -2.078125 L 6.328125 -7.140625 L 8.90625 -7.140625 L 8.90625 0 L 7.125 0 L 7.125 -3.125 C 7.125 -3.289062 7.125 -3.472656 7.125 -3.671875 C 7.132812 -3.867188 7.160156 -4.351562 7.203125 -5.125 L 7.15625 -5.125 L 5.71875 0 Z M 3.875 0 "/></g></g></g><g fill="rgb(100%, 100%, 100%)" fill-opacity="1"><g transform="translate(128.047216, 28.865131)"><g><path d="M 4.59375 0 L 4.359375 -0.6875 L 4.25 -0.6875 C 4.09375 -0.4375 3.867188 -0.242188 3.578125 -0.109375 C 3.296875 0.0234375 2.960938 0.09375 2.578125 0.09375 C 1.972656 0.09375 1.5 -0.0820312 1.15625 -0.4375 C 0.820312 -0.789062 0.65625 -1.285156 0.65625 -1.921875 L 0.65625 -5.53125 L 2.5625 -5.53125 L 2.5625 -2.515625 C 2.5625 -2.148438 2.609375 -1.875 2.703125 -1.6875 C 2.804688 -1.5 2.976562 -1.40625 3.21875 -1.40625 C 3.550781 -1.40625 3.785156 -1.535156 3.921875 -1.796875 C 4.054688 -2.054688 4.125 -2.492188 4.125 -3.109375 L 4.125 -5.53125 L 6.046875 -5.53125 L 6.046875 0 Z M 4.59375 0 "/></g></g></g><g fill="rgb(100%, 100%, 100%)" fill-opacity="1"><g transform="translate(134.748673, 28.865131)"><g><path d="M 2.578125 0 L 0.671875 0 L 0.671875 -5.53125 L 2.578125 -5.53125 Z M 0.625 -6.90625 C 0.625 -7.195312 0.703125 -7.410156 0.859375 -7.546875 C 1.015625 -7.691406 1.269531 -7.765625 1.625 -7.765625 C 1.976562 -7.765625 2.238281 -7.691406 2.40625 -7.546875 C 2.570312 -7.398438 2.65625 -7.1875 2.65625 -6.90625 C 2.65625 -6.34375 2.3125 -6.0625 1.625 -6.0625 C 0.957031 -6.0625 0.625 -6.34375 0.625 -6.90625 Z M 0.625 -6.90625 "/></g></g></g><g fill="rgb(100%, 100%, 100%)" fill-opacity="1"><g transform="translate(138.001712, 28.865131)"><g><path d="M 3.375 -1.40625 C 3.625 -1.40625 3.929688 -1.472656 4.296875 -1.609375 L 4.296875 -0.203125 C 4.035156 -0.0976562 3.785156 -0.0234375 3.546875 0.015625 C 3.316406 0.0664062 3.046875 0.09375 2.734375 0.09375 C 2.097656 0.09375 1.632812 -0.0625 1.34375 -0.375 C 1.0625 -0.6875 0.921875 -1.171875 0.921875 -1.828125 L 0.921875 -4.109375 L 0.265625 -4.109375 L 0.265625 -4.875 L 1.109375 -5.484375 L 1.609375 -6.640625 L 2.859375 -6.640625 L 2.859375 -5.53125 L 4.203125 -5.53125 L 4.203125 -4.109375 L 2.859375 -4.109375 L 2.859375 -1.953125 C 2.859375 -1.585938 3.03125 -1.40625 3.375 -1.40625 Z M 3.375 -1.40625 "/></g></g></g><g fill="rgb(100%, 100%, 100%)" fill-opacity="1"><g transform="translate(142.602858, 28.865131)"><g><path d="M 5.9375 -2.78125 C 5.9375 -1.875 5.691406 -1.164062 5.203125 -0.65625 C 4.722656 -0.15625 4.046875 0.09375 3.171875 0.09375 C 2.328125 0.09375 1.65625 -0.160156 1.15625 -0.671875 C 0.664062 -1.191406 0.421875 -1.894531 0.421875 -2.78125 C 0.421875 -3.675781 0.660156 -4.375 1.140625 -4.875 C 1.628906 -5.375 2.316406 -5.625 3.203125 -5.625 C 3.742188 -5.625 4.222656 -5.507812 4.640625 -5.28125 C 5.054688 -5.050781 5.375 -4.71875 5.59375 -4.28125 C 5.820312 -3.851562 5.9375 -3.351562 5.9375 -2.78125 Z M 2.359375 -2.78125 C 2.359375 -2.300781 2.421875 -1.9375 2.546875 -1.6875 C 2.671875 -1.4375 2.882812 -1.3125 3.1875 -1.3125 C 3.488281 -1.3125 3.695312 -1.4375 3.8125 -1.6875 C 3.9375 -1.9375 4 -2.300781 4 -2.78125 C 4 -3.25 3.9375 -3.601562 3.8125 -3.84375 C 3.6875 -4.082031 3.472656 -4.203125 3.171875 -4.203125 C 2.878906 -4.203125 2.671875 -4.082031 2.546875 -3.84375 C 2.421875 -3.601562 2.359375 -3.25 2.359375 -2.78125 Z M 2.359375 -2.78125 "/></g></g></g></svg>