<svg xmlns="http://www.w3.org/2000/svg" xmlns:xlink="http://www.w3.org/1999/xlink" width="400" zoomAndPan="magnify" viewBox="0 0 300 30.000001" height="40" preserveAspectRatio="xMidYMid meet" version="1.0"><defs><g><g id="id1"/></g></defs><g fill="rgb(100%, 100%, 100%)" fill-opacity="1"><g transform="translate(6.199592, 13.064518)"><g><path d="M 8.59375 -3.421875 C 8.59375 -2.722656 8.414062 -2.101562 8.0625 -1.5625 C 7.707031 -1.019531 7.191406 -0.597656 6.515625 -0.296875 C 5.847656 0.00390625 5.066406 0.15625 4.171875 0.15625 C 3.421875 0.15625 2.789062 0.101562 2.28125 0 C 1.769531 -0.101562 1.238281 -0.289062 0.6875 -0.5625 L 0.6875 -3.265625 C 1.269531 -2.972656 1.875 -2.742188 2.5 -2.578125 C 3.132812 -2.410156 3.710938 -2.328125 4.234375 -2.328125 C 4.679688 -2.328125 5.007812 -2.40625 5.21875 -2.5625 C 5.4375 -2.71875 5.546875 -2.914062 5.546875 -3.15625 C 5.546875 -3.3125 5.503906 -3.445312 5.421875 -3.5625 C 5.335938 -3.675781 5.203125 -3.789062 5.015625 -3.90625 C 4.828125 -4.03125 4.328125 -4.273438 3.515625 -4.640625 C 2.773438 -4.972656 2.21875 -5.296875 1.84375 -5.609375 C 1.476562 -5.921875 1.207031 -6.28125 1.03125 -6.6875 C 0.851562 -7.09375 0.765625 -7.578125 0.765625 -8.140625 C 0.765625 -9.179688 1.140625 -9.988281 1.890625 -10.5625 C 2.648438 -11.144531 3.691406 -11.4375 5.015625 -11.4375 C 6.179688 -11.4375 7.375 -11.164062 8.59375 -10.625 L 7.65625 -8.28125 C 6.601562 -8.757812 5.691406 -9 4.921875 -9 C 4.523438 -9 4.238281 -8.925781 4.0625 -8.78125 C 3.882812 -8.644531 3.796875 -8.476562 3.796875 -8.28125 C 3.796875 -8.050781 3.910156 -7.847656 4.140625 -7.671875 C 4.367188 -7.503906 4.988281 -7.1875 6 -6.71875 C 6.96875 -6.289062 7.640625 -5.820312 8.015625 -5.3125 C 8.398438 -4.8125 8.59375 -4.179688 8.59375 -3.421875 Z M 8.59375 -3.421875 "/></g></g></g><g fill="rgb(100%, 100%, 100%)" fill-opacity="1"><g transform="translate(15.31717, 13.064518)"><g><path d="M 4.078125 0 L 1.0625 0 L 1.0625 -8.734375 L 4.078125 -8.734375 Z M 0.984375 -10.921875 C 0.984375 -11.367188 1.109375 -11.703125 1.359375 -11.921875 C 1.609375 -12.140625 2.015625 -12.25 2.578125 -12.25 C 3.140625 -12.25 3.546875 -12.132812 3.796875 -11.90625 C 4.054688 -11.6875 4.1875 -11.359375 4.1875 -10.921875 C 4.1875 -10.035156 3.648438 -9.59375 2.578125 -9.59375 C 1.515625 -9.59375 0.984375 -10.035156 0.984375 -10.921875 Z M 0.984375 -10.921875 "/></g></g></g><g fill="rgb(100%, 100%, 100%)" fill-opacity="1"><g transform="translate(20.454485, 13.064518)"><g><path d="M 11.765625 0 L 11.765625 -4.75 C 11.765625 -5.34375 11.679688 -5.785156 11.515625 -6.078125 C 11.359375 -6.378906 11.109375 -6.53125 10.765625 -6.53125 C 10.296875 -6.53125 9.953125 -6.332031 9.734375 -5.9375 C 9.523438 -5.539062 9.421875 -4.921875 9.421875 -4.078125 L 9.421875 0 L 6.390625 0 L 6.390625 -4.75 C 6.390625 -5.34375 6.3125 -5.785156 6.15625 -6.078125 C 6.007812 -6.378906 5.765625 -6.53125 5.421875 -6.53125 C 4.941406 -6.53125 4.59375 -6.316406 4.375 -5.890625 C 4.164062 -5.472656 4.0625 -4.785156 4.0625 -3.828125 L 4.0625 0 L 1.046875 0 L 1.046875 -8.734375 L 3.3125 -8.734375 L 3.6875 -7.65625 L 3.875 -7.65625 C 4.101562 -8.0625 4.4375 -8.367188 4.875 -8.578125 C 5.3125 -8.785156 5.8125 -8.890625 6.375 -8.890625 C 7.632812 -8.890625 8.519531 -8.507812 9.03125 -7.75 L 9.265625 -7.75 C 9.515625 -8.101562 9.859375 -8.378906 10.296875 -8.578125 C 10.734375 -8.785156 11.21875 -8.890625 11.75 -8.890625 C 12.789062 -8.890625 13.554688 -8.625 14.046875 -8.09375 C 14.535156 -7.5625 14.78125 -6.757812 14.78125 -5.6875 L 14.78125 0 Z M 11.765625 0 "/></g></g></g><g fill="rgb(100%, 100%, 100%)" fill-opacity="1"><g transform="translate(36.252116, 13.064518)"><g><path d="M 6.28125 0.15625 C 5.84375 0.15625 5.445312 0.0820312 5.09375 -0.0625 C 4.75 -0.207031 4.40625 -0.472656 4.0625 -0.859375 L 3.921875 -0.859375 C 4.015625 -0.242188 4.0625 0.132812 4.0625 0.28125 L 4.0625 3.796875 L 1.046875 3.796875 L 1.046875 -8.734375 L 3.5 -8.734375 L 3.921875 -7.625 L 4.0625 -7.625 C 4.613281 -8.46875 5.382812 -8.890625 6.375 -8.890625 C 7.34375 -8.890625 8.101562 -8.488281 8.65625 -7.6875 C 9.207031 -6.882812 9.484375 -5.785156 9.484375 -4.390625 C 9.484375 -2.984375 9.195312 -1.875 8.625 -1.0625 C 8.050781 -0.25 7.269531 0.15625 6.28125 0.15625 Z M 5.28125 -6.53125 C 4.832031 -6.53125 4.519531 -6.367188 4.34375 -6.046875 C 4.164062 -5.734375 4.070312 -5.265625 4.0625 -4.640625 L 4.0625 -4.40625 C 4.0625 -3.65625 4.160156 -3.113281 4.359375 -2.78125 C 4.554688 -2.445312 4.875 -2.28125 5.3125 -2.28125 C 5.695312 -2.28125 5.972656 -2.441406 6.140625 -2.765625 C 6.316406 -3.097656 6.40625 -3.648438 6.40625 -4.421875 C 6.40625 -5.171875 6.316406 -5.707031 6.140625 -6.03125 C 5.972656 -6.363281 5.6875 -6.53125 5.28125 -6.53125 Z M 5.28125 -6.53125 "/></g></g></g><g fill="rgb(100%, 100%, 100%)" fill-opacity="1"><g transform="translate(46.411048, 13.064518)"><g><path d="M 4.0625 0 L 1.046875 0 L 1.046875 -12 L 4.0625 -12 Z M 4.0625 0 "/></g></g></g><g fill="rgb(100%, 100%, 100%)" fill-opacity="1"><g transform="translate(51.517508, 13.064518)"><g><path d="M 5.265625 0.15625 C 3.804688 0.15625 2.671875 -0.226562 1.859375 -1 C 1.054688 -1.78125 0.65625 -2.882812 0.65625 -4.3125 C 0.65625 -5.789062 1.03125 -6.921875 1.78125 -7.703125 C 2.53125 -8.492188 3.59375 -8.890625 4.96875 -8.890625 C 6.289062 -8.890625 7.3125 -8.546875 8.03125 -7.859375 C 8.75 -7.171875 9.109375 -6.179688 9.109375 -4.890625 L 9.109375 -3.5625 L 3.703125 -3.5625 C 3.722656 -3.070312 3.898438 -2.6875 4.234375 -2.40625 C 4.578125 -2.125 5.039062 -1.984375 5.625 -1.984375 C 6.15625 -1.984375 6.640625 -2.035156 7.078125 -2.140625 C 7.523438 -2.242188 8.007812 -2.414062 8.53125 -2.65625 L 8.53125 -0.484375 C 8.0625 -0.242188 7.570312 -0.078125 7.0625 0.015625 C 6.5625 0.109375 5.960938 0.15625 5.265625 0.15625 Z M 5.078125 -6.84375 C 4.722656 -6.84375 4.425781 -6.726562 4.1875 -6.5 C 3.945312 -6.28125 3.804688 -5.929688 3.765625 -5.453125 L 6.359375 -5.453125 C 6.347656 -5.867188 6.226562 -6.203125 6 -6.453125 C 5.769531 -6.710938 5.460938 -6.84375 5.078125 -6.84375 Z M 5.078125 -6.84375 "/></g></g></g><g fill="rgb(100%, 100%, 100%)" fill-opacity="1"><g transform="translate(61.283036, 13.064518)"><g><path d="M 7.796875 -2.6875 C 7.796875 -1.75 7.472656 -1.039062 6.828125 -0.5625 C 6.191406 -0.0820312 5.28125 0.15625 4.09375 0.15625 C 3.4375 0.15625 2.867188 0.117188 2.390625 0.046875 C 1.921875 -0.015625 1.4375 -0.140625 0.9375 -0.328125 L 0.9375 -2.75 C 1.40625 -2.539062 1.914062 -2.367188 2.46875 -2.234375 C 3.03125 -2.097656 3.53125 -2.03125 3.96875 -2.03125 C 4.613281 -2.03125 4.9375 -2.179688 4.9375 -2.484375 C 4.9375 -2.640625 4.84375 -2.773438 4.65625 -2.890625 C 4.476562 -3.015625 3.953125 -3.253906 3.078125 -3.609375 C 2.273438 -3.929688 1.710938 -4.300781 1.390625 -4.71875 C 1.078125 -5.144531 0.921875 -5.675781 0.921875 -6.3125 C 0.921875 -7.125 1.234375 -7.753906 1.859375 -8.203125 C 2.484375 -8.660156 3.367188 -8.890625 4.515625 -8.890625 C 5.097656 -8.890625 5.640625 -8.828125 6.140625 -8.703125 C 6.648438 -8.578125 7.175781 -8.394531 7.71875 -8.15625 L 6.90625 -6.203125 C 6.5 -6.390625 6.070312 -6.546875 5.625 -6.671875 C 5.175781 -6.796875 4.8125 -6.859375 4.53125 -6.859375 C 4.039062 -6.859375 3.796875 -6.738281 3.796875 -6.5 C 3.796875 -6.34375 3.878906 -6.210938 4.046875 -6.109375 C 4.222656 -6.003906 4.722656 -5.789062 5.546875 -5.46875 C 6.160156 -5.21875 6.613281 -4.96875 6.90625 -4.71875 C 7.207031 -4.476562 7.429688 -4.195312 7.578125 -3.875 C 7.722656 -3.550781 7.796875 -3.15625 7.796875 -2.6875 Z M 7.796875 -2.6875 "/></g></g></g><g fill="rgb(100%, 100%, 100%)" fill-opacity="1"><g transform="translate(69.706382, 13.064518)"><g/></g></g><g fill="rgb(100%, 100%, 100%)" fill-opacity="1"><g transform="translate(73.810064, 13.064518)"><g><path d="M 7.546875 -11.28125 L 10.953125 -11.28125 L 7.265625 0 L 3.671875 0 L 0 -11.28125 L 3.421875 -11.28125 L 4.953125 -5.5625 C 5.273438 -4.289062 5.453125 -3.40625 5.484375 -2.90625 C 5.515625 -3.269531 5.582031 -3.71875 5.6875 -4.25 C 5.800781 -4.789062 5.898438 -5.21875 5.984375 -5.53125 Z M 7.546875 -11.28125 "/></g></g></g><g fill="rgb(100%, 100%, 100%)" fill-opacity="1"><g transform="translate(84.771219, 13.064518)"><g><path d="M 4.078125 0 L 1.0625 0 L 1.0625 -8.734375 L 4.078125 -8.734375 Z M 0.984375 -10.921875 C 0.984375 -11.367188 1.109375 -11.703125 1.359375 -11.921875 C 1.609375 -12.140625 2.015625 -12.25 2.578125 -12.25 C 3.140625 -12.25 3.546875 -12.132812 3.796875 -11.90625 C 4.054688 -11.6875 4.1875 -11.359375 4.1875 -10.921875 C 4.1875 -10.035156 3.648438 -9.59375 2.578125 -9.59375 C 1.515625 -9.59375 0.984375 -10.035156 0.984375 -10.921875 Z M 0.984375 -10.921875 "/></g></g></g><g fill="rgb(100%, 100%, 100%)" fill-opacity="1"><g transform="translate(89.908534, 13.064518)"><g><path d="M 5.328125 -2.234375 C 5.734375 -2.234375 6.21875 -2.332031 6.78125 -2.53125 L 6.78125 -0.328125 C 6.375 -0.148438 5.984375 -0.0234375 5.609375 0.046875 C 5.242188 0.117188 4.816406 0.15625 4.328125 0.15625 C 3.316406 0.15625 2.585938 -0.0859375 2.140625 -0.578125 C 1.691406 -1.078125 1.46875 -1.84375 1.46875 -2.875 L 1.46875 -6.484375 L 0.40625 -6.484375 L 0.40625 -7.703125 L 1.75 -8.65625 L 2.53125 -10.484375 L 4.5 -10.484375 L 4.5 -8.734375 L 6.65625 -8.734375 L 6.65625 -6.484375 L 4.5 -6.484375 L 4.5 -3.078125 C 4.5 -2.515625 4.773438 -2.234375 5.328125 -2.234375 Z M 5.328125 -2.234375 "/></g></g></g><g fill="rgb(100%, 100%, 100%)" fill-opacity="1"><g transform="translate(97.174827, 13.064518)"><g><path d="M 6.734375 0 L 6.15625 -1.15625 L 6.09375 -1.15625 C 5.6875 -0.65625 5.273438 -0.3125 4.859375 -0.125 C 4.441406 0.0625 3.894531 0.15625 3.21875 0.15625 C 2.394531 0.15625 1.75 -0.0859375 1.28125 -0.578125 C 0.8125 -1.078125 0.578125 -1.773438 0.578125 -2.671875 C 0.578125 -3.597656 0.898438 -4.289062 1.546875 -4.75 C 2.191406 -5.207031 3.128906 -5.460938 4.359375 -5.515625 L 5.8125 -5.5625 L 5.8125 -5.6875 C 5.8125 -6.40625 5.457031 -6.765625 4.75 -6.765625 C 4.113281 -6.765625 3.304688 -6.546875 2.328125 -6.109375 L 1.453125 -8.109375 C 2.472656 -8.628906 3.757812 -8.890625 5.3125 -8.890625 C 6.425781 -8.890625 7.289062 -8.613281 7.90625 -8.0625 C 8.519531 -7.507812 8.828125 -6.734375 8.828125 -5.734375 L 8.828125 0 Z M 4.5 -1.96875 C 4.863281 -1.96875 5.175781 -2.082031 5.4375 -2.3125 C 5.695312 -2.550781 5.828125 -2.851562 5.828125 -3.21875 L 5.828125 -3.90625 L 5.140625 -3.875 C 4.140625 -3.832031 3.640625 -3.46875 3.640625 -2.78125 C 3.640625 -2.238281 3.925781 -1.96875 4.5 -1.96875 Z M 4.5 -1.96875 "/></g></g></g><g fill="rgb(100%, 100%, 100%)" fill-opacity="1"><g transform="translate(107.017492, 13.064518)"><g><path d="M 11.765625 0 L 11.765625 -4.75 C 11.765625 -5.34375 11.679688 -5.785156 11.515625 -6.078125 C 11.359375 -6.378906 11.109375 -6.53125 10.765625 -6.53125 C 10.296875 -6.53125 9.953125 -6.332031 9.734375 -5.9375 C 9.523438 -5.539062 9.421875 -4.921875 9.421875 -4.078125 L 9.421875 0 L 6.390625 0 L 6.390625 -4.75 C 6.390625 -5.34375 6.3125 -5.785156 6.15625 -6.078125 C 6.007812 -6.378906 5.765625 -6.53125 5.421875 -6.53125 C 4.941406 -6.53125 4.59375 -6.316406 4.375 -5.890625 C 4.164062 -5.472656 4.0625 -4.785156 4.0625 -3.828125 L 4.0625 0 L 1.046875 0 L 1.046875 -8.734375 L 3.3125 -8.734375 L 3.6875 -7.65625 L 3.875 -7.65625 C 4.101562 -8.0625 4.4375 -8.367188 4.875 -8.578125 C 5.3125 -8.785156 5.8125 -8.890625 6.375 -8.890625 C 7.632812 -8.890625 8.519531 -8.507812 9.03125 -7.75 L 9.265625 -7.75 C 9.515625 -8.101562 9.859375 -8.378906 10.296875 -8.578125 C 10.734375 -8.785156 11.21875 -8.890625 11.75 -8.890625 C 12.789062 -8.890625 13.554688 -8.625 14.046875 -8.09375 C 14.535156 -7.5625 14.78125 -6.757812 14.78125 -5.6875 L 14.78125 0 Z M 11.765625 0 "/></g></g></g><g fill="rgb(100%, 100%, 100%)" fill-opacity="1"><g transform="translate(122.815123, 13.064518)"><g><path d="M 4.078125 0 L 1.0625 0 L 1.0625 -8.734375 L 4.078125 -8.734375 Z M 0.984375 -10.921875 C 0.984375 -11.367188 1.109375 -11.703125 1.359375 -11.921875 C 1.609375 -12.140625 2.015625 -12.25 2.578125 -12.25 C 3.140625 -12.25 3.546875 -12.132812 3.796875 -11.90625 C 4.054688 -11.6875 4.1875 -11.359375 4.1875 -10.921875 C 4.1875 -10.035156 3.648438 -9.59375 2.578125 -9.59375 C 1.515625 -9.59375 0.984375 -10.035156 0.984375 -10.921875 Z M 0.984375 -10.921875 "/></g></g></g><g fill="rgb(100%, 100%, 100%)" fill-opacity="1"><g transform="translate(127.952438, 13.064518)"><g><path d="M 6.5625 0 L 6.5625 -4.765625 C 6.5625 -5.347656 6.476562 -5.785156 6.3125 -6.078125 C 6.144531 -6.378906 5.875 -6.53125 5.5 -6.53125 C 4.988281 -6.53125 4.617188 -6.328125 4.390625 -5.921875 C 4.171875 -5.515625 4.0625 -4.816406 4.0625 -3.828125 L 4.0625 0 L 1.046875 0 L 1.046875 -8.734375 L 3.3125 -8.734375 L 3.6875 -7.65625 L 3.875 -7.65625 C 4.125 -8.070312 4.476562 -8.378906 4.9375 -8.578125 C 5.394531 -8.785156 5.921875 -8.890625 6.515625 -8.890625 C 7.472656 -8.890625 8.222656 -8.609375 8.765625 -8.046875 C 9.304688 -7.492188 9.578125 -6.707031 9.578125 -5.6875 L 9.578125 0 Z M 6.5625 0 "/></g></g></g><g fill="rgb(100%, 100%, 100%)" fill-opacity="1"><g transform="translate(138.535617, 13.064518)"><g><path d="M 6.734375 0 L 6.15625 -1.15625 L 6.09375 -1.15625 C 5.6875 -0.65625 5.273438 -0.3125 4.859375 -0.125 C 4.441406 0.0625 3.894531 0.15625 3.21875 0.15625 C 2.394531 0.15625 1.75 -0.0859375 1.28125 -0.578125 C 0.8125 -1.078125 0.578125 -1.773438 0.578125 -2.671875 C 0.578125 -3.597656 0.898438 -4.289062 1.546875 -4.75 C 2.191406 -5.207031 3.128906 -5.460938 4.359375 -5.515625 L 5.8125 -5.5625 L 5.8125 -5.6875 C 5.8125 -6.40625 5.457031 -6.765625 4.75 -6.765625 C 4.113281 -6.765625 3.304688 -6.546875 2.328125 -6.109375 L 1.453125 -8.109375 C 2.472656 -8.628906 3.757812 -8.890625 5.3125 -8.890625 C 6.425781 -8.890625 7.289062 -8.613281 7.90625 -8.0625 C 8.519531 -7.507812 8.828125 -6.734375 8.828125 -5.734375 L 8.828125 0 Z M 4.5 -1.96875 C 4.863281 -1.96875 5.175781 -2.082031 5.4375 -2.3125 C 5.695312 -2.550781 5.828125 -2.851562 5.828125 -3.21875 L 5.828125 -3.90625 L 5.140625 -3.875 C 4.140625 -3.832031 3.640625 -3.46875 3.640625 -2.78125 C 3.640625 -2.238281 3.925781 -1.96875 4.5 -1.96875 Z M 4.5 -1.96875 "/></g></g></g><g fill="rgb(100%, 100%, 100%)" fill-opacity="1"><g transform="translate(148.378281, 13.064518)"><g/></g></g><g fill="rgb(100%, 100%, 100%)" fill-opacity="1"><g transform="translate(152.481963, 13.064518)"><g><path d="M 3.75 0.15625 C 3.132812 0.15625 2.59375 -0.0195312 2.125 -0.375 C 1.65625 -0.726562 1.289062 -1.25 1.03125 -1.9375 C 0.78125 -2.632812 0.65625 -3.441406 0.65625 -4.359375 C 0.65625 -5.773438 0.941406 -6.882812 1.515625 -7.6875 C 2.085938 -8.488281 2.875 -8.890625 3.875 -8.890625 C 4.363281 -8.890625 4.789062 -8.789062 5.15625 -8.59375 C 5.519531 -8.40625 5.851562 -8.078125 6.15625 -7.609375 L 6.21875 -7.609375 C 6.125 -8.296875 6.078125 -8.984375 6.078125 -9.671875 L 6.078125 -12 L 9.109375 -12 L 9.109375 0 L 6.84375 0 L 6.1875 -1.109375 L 6.078125 -1.109375 C 5.554688 -0.265625 4.78125 0.15625 3.75 0.15625 Z M 4.984375 -2.234375 C 5.472656 -2.234375 5.816406 -2.382812 6.015625 -2.6875 C 6.210938 -2.988281 6.316406 -3.457031 6.328125 -4.09375 L 6.328125 -4.328125 C 6.328125 -5.097656 6.21875 -5.644531 6 -5.96875 C 5.78125 -6.300781 5.429688 -6.46875 4.953125 -6.46875 C 4.554688 -6.46875 4.25 -6.28125 4.03125 -5.90625 C 3.8125 -5.53125 3.703125 -5 3.703125 -4.3125 C 3.703125 -3.632812 3.8125 -3.117188 4.03125 -2.765625 C 4.257812 -2.410156 4.578125 -2.234375 4.984375 -2.234375 Z M 4.984375 -2.234375 "/></g></g></g><g fill="rgb(100%, 100%, 100%)" fill-opacity="1"><g transform="translate(162.640894, 13.064518)"><g><path d="M 5.265625 0.15625 C 3.804688 0.15625 2.671875 -0.226562 1.859375 -1 C 1.054688 -1.78125 0.65625 -2.882812 0.65625 -4.3125 C 0.65625 -5.789062 1.03125 -6.921875 1.78125 -7.703125 C 2.53125 -8.492188 3.59375 -8.890625 4.96875 -8.890625 C 6.289062 -8.890625 7.3125 -8.546875 8.03125 -7.859375 C 8.75 -7.171875 9.109375 -6.179688 9.109375 -4.890625 L 9.109375 -3.5625 L 3.703125 -3.5625 C 3.722656 -3.070312 3.898438 -2.6875 4.234375 -2.40625 C 4.578125 -2.125 5.039062 -1.984375 5.625 -1.984375 C 6.15625 -1.984375 6.640625 -2.035156 7.078125 -2.140625 C 7.523438 -2.242188 8.007812 -2.414062 8.53125 -2.65625 L 8.53125 -0.484375 C 8.0625 -0.242188 7.570312 -0.078125 7.0625 0.015625 C 6.5625 0.109375 5.960938 0.15625 5.265625 0.15625 Z M 5.078125 -6.84375 C 4.722656 -6.84375 4.425781 -6.726562 4.1875 -6.5 C 3.945312 -6.28125 3.804688 -5.929688 3.765625 -5.453125 L 6.359375 -5.453125 C 6.347656 -5.867188 6.226562 -6.203125 6 -6.453125 C 5.769531 -6.710938 5.460938 -6.84375 5.078125 -6.84375 Z M 5.078125 -6.84375 "/></g></g></g><g fill="rgb(100%, 100%, 100%)" fill-opacity="1"><g transform="translate(172.406422, 13.064518)"><g/></g></g><g fill="rgb(100%, 100%, 100%)" fill-opacity="1"><g transform="translate(176.510103, 13.064518)"><g><path d="M 0.546875 -4.765625 C 0.546875 -6.335938 0.769531 -7.609375 1.21875 -8.578125 C 1.664062 -9.554688 2.328125 -10.273438 3.203125 -10.734375 C 4.078125 -11.203125 5.160156 -11.4375 6.453125 -11.4375 C 6.910156 -11.4375 7.441406 -11.394531 8.046875 -11.3125 L 8.046875 -8.921875 C 7.535156 -9.023438 6.976562 -9.078125 6.375 -9.078125 C 5.363281 -9.078125 4.609375 -8.851562 4.109375 -8.40625 C 3.609375 -7.957031 3.332031 -7.222656 3.28125 -6.203125 L 3.375 -6.203125 C 3.84375 -7.078125 4.585938 -7.515625 5.609375 -7.515625 C 6.609375 -7.515625 7.382812 -7.191406 7.9375 -6.546875 C 8.488281 -5.898438 8.765625 -5.003906 8.765625 -3.859375 C 8.765625 -2.617188 8.414062 -1.640625 7.71875 -0.921875 C 7.019531 -0.203125 6.046875 0.15625 4.796875 0.15625 C 3.460938 0.15625 2.421875 -0.273438 1.671875 -1.140625 C 0.921875 -2.003906 0.546875 -3.210938 0.546875 -4.765625 Z M 4.71875 -2.265625 C 5.039062 -2.265625 5.300781 -2.382812 5.5 -2.625 C 5.707031 -2.875 5.8125 -3.265625 5.8125 -3.796875 C 5.8125 -4.710938 5.457031 -5.171875 4.75 -5.171875 C 4.40625 -5.171875 4.125 -5.050781 3.90625 -4.8125 C 3.6875 -4.570312 3.578125 -4.285156 3.578125 -3.953125 C 3.578125 -3.453125 3.679688 -3.046875 3.890625 -2.734375 C 4.097656 -2.421875 4.375 -2.265625 4.71875 -2.265625 Z M 4.71875 -2.265625 "/></g></g></g><g fill="rgb(100%, 100%, 100%)" fill-opacity="1"><g transform="translate(185.766528, 13.064518)"><g/></g></g><g fill="rgb(100%, 100%, 100%)" fill-opacity="1"><g transform="translate(189.870209, 13.064518)"><g><path d="M 1.21875 0 L 1.21875 -11.28125 L 4.28125 -11.28125 L 4.28125 0 Z M 1.21875 0 "/></g></g></g><g fill="rgb(100%, 100%, 100%)" fill-opacity="1"><g transform="translate(195.370073, 13.064518)"><g><path d="M 6.5625 0 L 6.5625 -4.765625 C 6.5625 -5.347656 6.476562 -5.785156 6.3125 -6.078125 C 6.144531 -6.378906 5.875 -6.53125 5.5 -6.53125 C 4.988281 -6.53125 4.617188 -6.328125 4.390625 -5.921875 C 4.171875 -5.515625 4.0625 -4.816406 4.0625 -3.828125 L 4.0625 0 L 1.046875 0 L 1.046875 -8.734375 L 3.3125 -8.734375 L 3.6875 -7.65625 L 3.875 -7.65625 C 4.125 -8.070312 4.476562 -8.378906 4.9375 -8.578125 C 5.394531 -8.785156 5.921875 -8.890625 6.515625 -8.890625 C 7.472656 -8.890625 8.222656 -8.609375 8.765625 -8.046875 C 9.304688 -7.492188 9.578125 -6.707031 9.578125 -5.6875 L 9.578125 0 Z M 6.5625 0 "/></g></g></g><g fill="rgb(100%, 100%, 100%)" fill-opacity="1"><g transform="translate(205.953252, 13.064518)"><g><path d="M 9.28125 -8.734375 L 9.28125 -7.28125 L 8.09375 -6.84375 C 8.257812 -6.539062 8.34375 -6.191406 8.34375 -5.796875 C 8.34375 -4.859375 8.007812 -4.128906 7.34375 -3.609375 C 6.6875 -3.085938 5.703125 -2.828125 4.390625 -2.828125 C 4.066406 -2.828125 3.8125 -2.847656 3.625 -2.890625 C 3.550781 -2.753906 3.515625 -2.628906 3.515625 -2.515625 C 3.515625 -2.367188 3.632812 -2.253906 3.875 -2.171875 C 4.113281 -2.085938 4.429688 -2.046875 4.828125 -2.046875 L 6.265625 -2.046875 C 8.222656 -2.046875 9.203125 -1.222656 9.203125 0.421875 C 9.203125 1.484375 8.75 2.3125 7.84375 2.90625 C 6.9375 3.5 5.664062 3.796875 4.03125 3.796875 C 2.789062 3.796875 1.832031 3.585938 1.15625 3.171875 C 0.488281 2.753906 0.15625 2.160156 0.15625 1.390625 C 0.15625 0.347656 0.800781 -0.320312 2.09375 -0.625 C 1.832031 -0.738281 1.601562 -0.921875 1.40625 -1.171875 C 1.207031 -1.429688 1.109375 -1.679688 1.109375 -1.921875 C 1.109375 -2.203125 1.179688 -2.445312 1.328125 -2.65625 C 1.472656 -2.863281 1.785156 -3.109375 2.265625 -3.390625 C 1.804688 -3.585938 1.445312 -3.898438 1.1875 -4.328125 C 0.925781 -4.753906 0.796875 -5.273438 0.796875 -5.890625 C 0.796875 -6.835938 1.117188 -7.570312 1.765625 -8.09375 C 2.421875 -8.625 3.347656 -8.890625 4.546875 -8.890625 C 4.710938 -8.890625 4.988281 -8.867188 5.375 -8.828125 C 5.769531 -8.796875 6.054688 -8.765625 6.234375 -8.734375 Z M 2.703125 1.09375 C 2.703125 1.332031 2.832031 1.523438 3.09375 1.671875 C 3.363281 1.828125 3.722656 1.90625 4.171875 1.90625 C 4.898438 1.90625 5.484375 1.8125 5.921875 1.625 C 6.367188 1.445312 6.59375 1.21875 6.59375 0.9375 C 6.59375 0.707031 6.457031 0.539062 6.1875 0.4375 C 5.914062 0.34375 5.53125 0.296875 5.03125 0.296875 L 3.859375 0.296875 C 3.535156 0.296875 3.257812 0.367188 3.03125 0.515625 C 2.8125 0.671875 2.703125 0.863281 2.703125 1.09375 Z M 3.640625 -5.875 C 3.640625 -4.976562 3.953125 -4.53125 4.578125 -4.53125 C 4.867188 -4.53125 5.09375 -4.640625 5.25 -4.859375 C 5.40625 -5.085938 5.484375 -5.421875 5.484375 -5.859375 C 5.484375 -6.765625 5.179688 -7.21875 4.578125 -7.21875 C 3.953125 -7.21875 3.640625 -6.769531 3.640625 -5.875 Z M 3.640625 -5.875 "/></g></g></g><g fill="rgb(100%, 100%, 100%)" fill-opacity="1"><g transform="translate(215.525954, 13.064518)"><g><path d="M 6.3125 -8.890625 C 6.570312 -8.890625 6.820312 -8.867188 7.0625 -8.828125 L 7.234375 -8.796875 L 6.96875 -5.953125 C 6.71875 -6.015625 6.375 -6.046875 5.9375 -6.046875 C 5.28125 -6.046875 4.800781 -5.894531 4.5 -5.59375 C 4.207031 -5.289062 4.0625 -4.859375 4.0625 -4.296875 L 4.0625 0 L 1.046875 0 L 1.046875 -8.734375 L 3.28125 -8.734375 L 3.75 -7.34375 L 3.90625 -7.34375 C 4.15625 -7.800781 4.503906 -8.171875 4.953125 -8.453125 C 5.398438 -8.742188 5.851562 -8.890625 6.3125 -8.890625 Z M 6.3125 -8.890625 "/></g></g></g><g fill="rgb(100%, 100%, 100%)" fill-opacity="1"><g transform="translate(222.938802, 13.064518)"><g><path d="M 5.265625 0.15625 C 3.804688 0.15625 2.671875 -0.226562 1.859375 -1 C 1.054688 -1.78125 0.65625 -2.882812 0.65625 -4.3125 C 0.65625 -5.789062 1.03125 -6.921875 1.78125 -7.703125 C 2.53125 -8.492188 3.59375 -8.890625 4.96875 -8.890625 C 6.289062 -8.890625 7.3125 -8.546875 8.03125 -7.859375 C 8.75 -7.171875 9.109375 -6.179688 9.109375 -4.890625 L 9.109375 -3.5625 L 3.703125 -3.5625 C 3.722656 -3.070312 3.898438 -2.6875 4.234375 -2.40625 C 4.578125 -2.125 5.039062 -1.984375 5.625 -1.984375 C 6.15625 -1.984375 6.640625 -2.035156 7.078125 -2.140625 C 7.523438 -2.242188 8.007812 -2.414062 8.53125 -2.65625 L 8.53125 -0.484375 C 8.0625 -0.242188 7.570312 -0.078125 7.0625 0.015625 C 6.5625 0.109375 5.960938 0.15625 5.265625 0.15625 Z M 5.078125 -6.84375 C 4.722656 -6.84375 4.425781 -6.726562 4.1875 -6.5 C 3.945312 -6.28125 3.804688 -5.929688 3.765625 -5.453125 L 6.359375 -5.453125 C 6.347656 -5.867188 6.226562 -6.203125 6 -6.453125 C 5.769531 -6.710938 5.460938 -6.84375 5.078125 -6.84375 Z M 5.078125 -6.84375 "/></g></g></g><g fill="rgb(100%, 100%, 100%)" fill-opacity="1"><g transform="translate(232.704318, 13.064518)"><g><path d="M 3.75 0.15625 C 3.132812 0.15625 2.59375 -0.0195312 2.125 -0.375 C 1.65625 -0.726562 1.289062 -1.25 1.03125 -1.9375 C 0.78125 -2.632812 0.65625 -3.441406 0.65625 -4.359375 C 0.65625 -5.773438 0.941406 -6.882812 1.515625 -7.6875 C 2.085938 -8.488281 2.875 -8.890625 3.875 -8.890625 C 4.363281 -8.890625 4.789062 -8.789062 5.15625 -8.59375 C 5.519531 -8.40625 5.851562 -8.078125 6.15625 -7.609375 L 6.21875 -7.609375 C 6.125 -8.296875 6.078125 -8.984375 6.078125 -9.671875 L 6.078125 -12 L 9.109375 -12 L 9.109375 0 L 6.84375 0 L 6.1875 -1.109375 L 6.078125 -1.109375 C 5.554688 -0.265625 4.78125 0.15625 3.75 0.15625 Z M 4.984375 -2.234375 C 5.472656 -2.234375 5.816406 -2.382812 6.015625 -2.6875 C 6.210938 -2.988281 6.316406 -3.457031 6.328125 -4.09375 L 6.328125 -4.328125 C 6.328125 -5.097656 6.21875 -5.644531 6 -5.96875 C 5.78125 -6.300781 5.429688 -6.46875 4.953125 -6.46875 C 4.554688 -6.46875 4.25 -6.28125 4.03125 -5.90625 C 3.8125 -5.53125 3.703125 -5 3.703125 -4.3125 C 3.703125 -3.632812 3.8125 -3.117188 4.03125 -2.765625 C 4.257812 -2.410156 4.578125 -2.234375 4.984375 -2.234375 Z M 4.984375 -2.234375 "/></g></g></g><g fill="rgb(100%, 100%, 100%)" fill-opacity="1"><g transform="translate(242.863261, 13.064518)"><g><path d="M 4.078125 0 L 1.0625 0 L 1.0625 -8.734375 L 4.078125 -8.734375 Z M 0.984375 -10.921875 C 0.984375 -11.367188 1.109375 -11.703125 1.359375 -11.921875 C 1.609375 -12.140625 2.015625 -12.25 2.578125 -12.25 C 3.140625 -12.25 3.546875 -12.132812 3.796875 -11.90625 C 4.054688 -11.6875 4.1875 -11.359375 4.1875 -10.921875 C 4.1875 -10.035156 3.648438 -9.59375 2.578125 -9.59375 C 1.515625 -9.59375 0.984375 -10.035156 0.984375 -10.921875 Z M 0.984375 -10.921875 "/></g></g></g><g fill="rgb(100%, 100%, 100%)" fill-opacity="1"><g transform="translate(248.000565, 13.064518)"><g><path d="M 5.265625 0.15625 C 3.804688 0.15625 2.671875 -0.226562 1.859375 -1 C 1.054688 -1.78125 0.65625 -2.882812 0.65625 -4.3125 C 0.65625 -5.789062 1.03125 -6.921875 1.78125 -7.703125 C 2.53125 -8.492188 3.59375 -8.890625 4.96875 -8.890625 C 6.289062 -8.890625 7.3125 -8.546875 8.03125 -7.859375 C 8.75 -7.171875 9.109375 -6.179688 9.109375 -4.890625 L 9.109375 -3.5625 L 3.703125 -3.5625 C 3.722656 -3.070312 3.898438 -2.6875 4.234375 -2.40625 C 4.578125 -2.125 5.039062 -1.984375 5.625 -1.984375 C 6.15625 -1.984375 6.640625 -2.035156 7.078125 -2.140625 C 7.523438 -2.242188 8.007812 -2.414062 8.53125 -2.65625 L 8.53125 -0.484375 C 8.0625 -0.242188 7.570312 -0.078125 7.0625 0.015625 C 6.5625 0.109375 5.960938 0.15625 5.265625 0.15625 Z M 5.078125 -6.84375 C 4.722656 -6.84375 4.425781 -6.726562 4.1875 -6.5 C 3.945312 -6.28125 3.804688 -5.929688 3.765625 -5.453125 L 6.359375 -5.453125 C 6.347656 -5.867188 6.226562 -6.203125 6 -6.453125 C 5.769531 -6.710938 5.460938 -6.84375 5.078125 -6.84375 Z M 5.078125 -6.84375 "/></g></g></g><g fill="rgb(100%, 100%, 100%)" fill-opacity="1"><g transform="translate(257.766082, 13.064518)"><g><path d="M 6.5625 0 L 6.5625 -4.765625 C 6.5625 -5.347656 6.476562 -5.785156 6.3125 -6.078125 C 6.144531 -6.378906 5.875 -6.53125 5.5 -6.53125 C 4.988281 -6.53125 4.617188 -6.328125 4.390625 -5.921875 C 4.171875 -5.515625 4.0625 -4.816406 4.0625 -3.828125 L 4.0625 0 L 1.046875 0 L 1.046875 -8.734375 L 3.3125 -8.734375 L 3.6875 -7.65625 L 3.875 -7.65625 C 4.125 -8.070312 4.476562 -8.378906 4.9375 -8.578125 C 5.394531 -8.785156 5.921875 -8.890625 6.515625 -8.890625 C 7.472656 -8.890625 8.222656 -8.609375 8.765625 -8.046875 C 9.304688 -7.492188 9.578125 -6.707031 9.578125 -5.6875 L 9.578125 0 Z M 6.5625 0 "/></g></g></g><g fill="rgb(100%, 100%, 100%)" fill-opacity="1"><g transform="translate(268.34926, 13.064518)"><g><path d="M 5.328125 -2.234375 C 5.734375 -2.234375 6.21875 -2.332031 6.78125 -2.53125 L 6.78125 -0.328125 C 6.375 -0.148438 5.984375 -0.0234375 5.609375 0.046875 C 5.242188 0.117188 4.816406 0.15625 4.328125 0.15625 C 3.316406 0.15625 2.585938 -0.0859375 2.140625 -0.578125 C 1.691406 -1.078125 1.46875 -1.84375 1.46875 -2.875 L 1.46875 -6.484375 L 0.40625 -6.484375 L 0.40625 -7.703125 L 1.75 -8.65625 L 2.53125 -10.484375 L 4.5 -10.484375 L 4.5 -8.734375 L 6.65625 -8.734375 L 6.65625 -6.484375 L 4.5 -6.484375 L 4.5 -3.078125 C 4.5 -2.515625 4.773438 -2.234375 5.328125 -2.234375 Z M 5.328125 -2.234375 "/></g></g></g><g fill="rgb(100%, 100%, 100%)" fill-opacity="1"><g transform="translate(275.615542, 13.064518)"><g><path d="M 5.265625 0.15625 C 3.804688 0.15625 2.671875 -0.226562 1.859375 -1 C 1.054688 -1.78125 0.65625 -2.882812 0.65625 -4.3125 C 0.65625 -5.789062 1.03125 -6.921875 1.78125 -7.703125 C 2.53125 -8.492188 3.59375 -8.890625 4.96875 -8.890625 C 6.289062 -8.890625 7.3125 -8.546875 8.03125 -7.859375 C 8.75 -7.171875 9.109375 -6.179688 9.109375 -4.890625 L 9.109375 -3.5625 L 3.703125 -3.5625 C 3.722656 -3.070312 3.898438 -2.6875 4.234375 -2.40625 C 4.578125 -2.125 5.039062 -1.984375 5.625 -1.984375 C 6.15625 -1.984375 6.640625 -2.035156 7.078125 -2.140625 C 7.523438 -2.242188 8.007812 -2.414062 8.53125 -2.65625 L 8.53125 -0.484375 C 8.0625 -0.242188 7.570312 -0.078125 7.0625 0.015625 C 6.5625 0.109375 5.960938 0.15625 5.265625 0.15625 Z M 5.078125 -6.84375 C 4.722656 -6.84375 4.425781 -6.726562 4.1875 -6.5 C 3.945312 -6.28125 3.804688 -5.929688 3.765625 -5.453125 L 6.359375 -5.453125 C 6.347656 -5.867188 6.226562 -6.203125 6 -6.453125 C 5.769531 -6.710938 5.460938 -6.84375 5.078125 -6.84375 Z M 5.078125 -6.84375 "/></g></g></g><g fill="rgb(100%, 100%, 100%)" fill-opacity="1"><g transform="translate(285.381059, 13.064518)"><g><path d="M 7.796875 -2.6875 C 7.796875 -1.75 7.472656 -1.039062 6.828125 -0.5625 C 6.191406 -0.0820312 5.28125 0.15625 4.09375 0.15625 C 3.4375 0.15625 2.867188 0.117188 2.390625 0.046875 C 1.921875 -0.015625 1.4375 -0.140625 0.9375 -0.328125 L 0.9375 -2.75 C 1.40625 -2.539062 1.914062 -2.367188 2.46875 -2.234375 C 3.03125 -2.097656 3.53125 -2.03125 3.96875 -2.03125 C 4.613281 -2.03125 4.9375 -2.179688 4.9375 -2.484375 C 4.9375 -2.640625 4.84375 -2.773438 4.65625 -2.890625 C 4.476562 -3.015625 3.953125 -3.253906 3.078125 -3.609375 C 2.273438 -3.929688 1.710938 -4.300781 1.390625 -4.71875 C 1.078125 -5.144531 0.921875 -5.675781 0.921875 -6.3125 C 0.921875 -7.125 1.234375 -7.753906 1.859375 -8.203125 C 2.484375 -8.660156 3.367188 -8.890625 4.515625 -8.890625 C 5.097656 -8.890625 5.640625 -8.828125 6.140625 -8.703125 C 6.648438 -8.578125 7.175781 -8.394531 7.71875 -8.15625 L 6.90625 -6.203125 C 6.5 -6.390625 6.070312 -6.546875 5.625 -6.671875 C 5.175781 -6.796875 4.8125 -6.859375 4.53125 -6.859375 C 4.039062 -6.859375 3.796875 -6.738281 3.796875 -6.5 C 3.796875 -6.34375 3.878906 -6.210938 4.046875 -6.109375 C 4.222656 -6.003906 4.722656 -5.789062 5.546875 -5.46875 C 6.160156 -5.21875 6.613281 -4.96875 6.90625 -4.71875 C 7.207031 -4.476562 7.429688 -4.195312 7.578125 -3.875 C 7.722656 -3.550781 7.796875 -3.15625 7.796875 -2.6875 Z M 7.796875 -2.6875 "/></g></g></g><g fill="rgb(100%, 100%, 100%)" fill-opacity="1"><g transform="translate(92.298382, 27.580647)"><g><path d="M 10.796875 -5.875 C 10.796875 -3.988281 10.273438 -2.535156 9.234375 -1.515625 C 8.203125 -0.503906 6.742188 0 4.859375 0 L 1.21875 0 L 1.21875 -11.28125 L 5.125 -11.28125 C 6.9375 -11.28125 8.332031 -10.816406 9.3125 -9.890625 C 10.300781 -8.960938 10.796875 -7.625 10.796875 -5.875 Z M 7.625 -5.765625 C 7.625 -6.796875 7.421875 -7.5625 7.015625 -8.0625 C 6.609375 -8.5625 5.988281 -8.8125 5.15625 -8.8125 L 4.265625 -8.8125 L 4.265625 -2.5 L 4.9375 -2.5 C 5.863281 -2.5 6.539062 -2.765625 6.96875 -3.296875 C 7.40625 -3.835938 7.625 -4.660156 7.625 -5.765625 Z M 7.625 -5.765625 "/></g></g></g><g fill="rgb(100%, 100%, 100%)" fill-opacity="1"><g transform="translate(103.892059, 27.580647)"><g><path d="M 5.265625 0.15625 C 3.804688 0.15625 2.671875 -0.226562 1.859375 -1 C 1.054688 -1.78125 0.65625 -2.882812 0.65625 -4.3125 C 0.65625 -5.789062 1.03125 -6.921875 1.78125 -7.703125 C 2.53125 -8.492188 3.59375 -8.890625 4.96875 -8.890625 C 6.289062 -8.890625 7.3125 -8.546875 8.03125 -7.859375 C 8.75 -7.171875 9.109375 -6.179688 9.109375 -4.890625 L 9.109375 -3.5625 L 3.703125 -3.5625 C 3.722656 -3.070312 3.898438 -2.6875 4.234375 -2.40625 C 4.578125 -2.125 5.039062 -1.984375 5.625 -1.984375 C 6.15625 -1.984375 6.640625 -2.035156 7.078125 -2.140625 C 7.523438 -2.242188 8.007812 -2.414062 8.53125 -2.65625 L 8.53125 -0.484375 C 8.0625 -0.242188 7.570312 -0.078125 7.0625 0.015625 C 6.5625 0.109375 5.960938 0.15625 5.265625 0.15625 Z M 5.078125 -6.84375 C 4.722656 -6.84375 4.425781 -6.726562 4.1875 -6.5 C 3.945312 -6.28125 3.804688 -5.929688 3.765625 -5.453125 L 6.359375 -5.453125 C 6.347656 -5.867188 6.226562 -6.203125 6 -6.453125 C 5.769531 -6.710938 5.460938 -6.84375 5.078125 -6.84375 Z M 5.078125 -6.84375 "/></g></g></g><g fill="rgb(100%, 100%, 100%)" fill-opacity="1"><g transform="translate(113.657586, 27.580647)"><g><path d="M 6.3125 -8.890625 C 6.570312 -8.890625 6.820312 -8.867188 7.0625 -8.828125 L 7.234375 -8.796875 L 6.96875 -5.953125 C 6.71875 -6.015625 6.375 -6.046875 5.9375 -6.046875 C 5.28125 -6.046875 4.800781 -5.894531 4.5 -5.59375 C 4.207031 -5.289062 4.0625 -4.859375 4.0625 -4.296875 L 4.0625 0 L 1.046875 0 L 1.046875 -8.734375 L 3.28125 -8.734375 L 3.75 -7.34375 L 3.90625 -7.34375 C 4.15625 -7.800781 4.503906 -8.171875 4.953125 -8.453125 C 5.398438 -8.742188 5.851562 -8.890625 6.3125 -8.890625 Z M 6.3125 -8.890625 "/></g></g></g><g fill="rgb(100%, 100%, 100%)" fill-opacity="1"><g transform="translate(121.070445, 27.580647)"><g><path d="M 6.3125 -8.890625 C 6.570312 -8.890625 6.820312 -8.867188 7.0625 -8.828125 L 7.234375 -8.796875 L 6.96875 -5.953125 C 6.71875 -6.015625 6.375 -6.046875 5.9375 -6.046875 C 5.28125 -6.046875 4.800781 -5.894531 4.5 -5.59375 C 4.207031 -5.289062 4.0625 -4.859375 4.0625 -4.296875 L 4.0625 0 L 1.046875 0 L 1.046875 -8.734375 L 3.28125 -8.734375 L 3.75 -7.34375 L 3.90625 -7.34375 C 4.15625 -7.800781 4.503906 -8.171875 4.953125 -8.453125 C 5.398438 -8.742188 5.851562 -8.890625 6.3125 -8.890625 Z M 6.3125 -8.890625 "/></g></g></g><g fill="rgb(100%, 100%, 100%)" fill-opacity="1"><g transform="translate(128.483304, 27.580647)"><g><path d="M 5.265625 0.15625 C 3.804688 0.15625 2.671875 -0.226562 1.859375 -1 C 1.054688 -1.78125 0.65625 -2.882812 0.65625 -4.3125 C 0.65625 -5.789062 1.03125 -6.921875 1.78125 -7.703125 C 2.53125 -8.492188 3.59375 -8.890625 4.96875 -8.890625 C 6.289062 -8.890625 7.3125 -8.546875 8.03125 -7.859375 C 8.75 -7.171875 9.109375 -6.179688 9.109375 -4.890625 L 9.109375 -3.5625 L 3.703125 -3.5625 C 3.722656 -3.070312 3.898438 -2.6875 4.234375 -2.40625 C 4.578125 -2.125 5.039062 -1.984375 5.625 -1.984375 C 6.15625 -1.984375 6.640625 -2.035156 7.078125 -2.140625 C 7.523438 -2.242188 8.007812 -2.414062 8.53125 -2.65625 L 8.53125 -0.484375 C 8.0625 -0.242188 7.570312 -0.078125 7.0625 0.015625 C 6.5625 0.109375 5.960938 0.15625 5.265625 0.15625 Z M 5.078125 -6.84375 C 4.722656 -6.84375 4.425781 -6.726562 4.1875 -6.5 C 3.945312 -6.28125 3.804688 -5.929688 3.765625 -5.453125 L 6.359375 -5.453125 C 6.347656 -5.867188 6.226562 -6.203125 6 -6.453125 C 5.769531 -6.710938 5.460938 -6.84375 5.078125 -6.84375 Z M 5.078125 -6.84375 "/></g></g></g><g fill="rgb(100%, 100%, 100%)" fill-opacity="1"><g transform="translate(138.248831, 27.580647)"><g><path d="M 5.328125 -2.234375 C 5.734375 -2.234375 6.21875 -2.332031 6.78125 -2.53125 L 6.78125 -0.328125 C 6.375 -0.148438 5.984375 -0.0234375 5.609375 0.046875 C 5.242188 0.117188 4.816406 0.15625 4.328125 0.15625 C 3.316406 0.15625 2.585938 -0.0859375 2.140625 -0.578125 C 1.691406 -1.078125 1.46875 -1.84375 1.46875 -2.875 L 1.46875 -6.484375 L 0.40625 -6.484375 L 0.40625 -7.703125 L 1.75 -8.65625 L 2.53125 -10.484375 L 4.5 -10.484375 L 4.5 -8.734375 L 6.65625 -8.734375 L 6.65625 -6.484375 L 4.5 -6.484375 L 4.5 -3.078125 C 4.5 -2.515625 4.773438 -2.234375 5.328125 -2.234375 Z M 5.328125 -2.234375 "/></g></g></g><g fill="rgb(100%, 100%, 100%)" fill-opacity="1"><g transform="translate(145.515125, 27.580647)"><g><path d="M 5.265625 0.15625 C 3.804688 0.15625 2.671875 -0.226562 1.859375 -1 C 1.054688 -1.78125 0.65625 -2.882812 0.65625 -4.3125 C 0.65625 -5.789062 1.03125 -6.921875 1.78125 -7.703125 C 2.53125 -8.492188 3.59375 -8.890625 4.96875 -8.890625 C 6.289062 -8.890625 7.3125 -8.546875 8.03125 -7.859375 C 8.75 -7.171875 9.109375 -6.179688 9.109375 -4.890625 L 9.109375 -3.5625 L 3.703125 -3.5625 C 3.722656 -3.070312 3.898438 -2.6875 4.234375 -2.40625 C 4.578125 -2.125 5.039062 -1.984375 5.625 -1.984375 C 6.15625 -1.984375 6.640625 -2.035156 7.078125 -2.140625 C 7.523438 -2.242188 8.007812 -2.414062 8.53125 -2.65625 L 8.53125 -0.484375 C 8.0625 -0.242188 7.570312 -0.078125 7.0625 0.015625 C 6.5625 0.109375 5.960938 0.15625 5.265625 0.15625 Z M 5.078125 -6.84375 C 4.722656 -6.84375 4.425781 -6.726562 4.1875 -6.5 C 3.945312 -6.28125 3.804688 -5.929688 3.765625 -5.453125 L 6.359375 -5.453125 C 6.347656 -5.867188 6.226562 -6.203125 6 -6.453125 C 5.769531 -6.710938 5.460938 -6.84375 5.078125 -6.84375 Z M 5.078125 -6.84375 "/></g></g></g><g fill="rgb(100%, 100%, 100%)" fill-opacity="1"><g transform="translate(155.280652, 27.580647)"><g/></g></g><g fill="rgb(100%, 100%, 100%)" fill-opacity="1"><g transform="translate(159.384334, 27.580647)"><g><path d="M 6.125 0 L 3.828125 -8.125 L 3.75 -8.125 C 3.863281 -6.738281 3.921875 -5.660156 3.921875 -4.890625 L 3.921875 0 L 1.21875 0 L 1.21875 -11.28125 L 5.28125 -11.28125 L 7.625 -3.265625 L 7.6875 -3.265625 L 10 -11.28125 L 14.0625 -11.28125 L 14.0625 0 L 11.265625 0 L 11.265625 -4.9375 C 11.265625 -5.195312 11.265625 -5.484375 11.265625 -5.796875 C 11.273438 -6.109375 11.3125 -6.878906 11.375 -8.109375 L 11.3125 -8.109375 L 9.03125 0 Z M 6.125 0 "/></g></g></g><g fill="rgb(100%, 100%, 100%)" fill-opacity="1"><g transform="translate(174.657434, 27.580647)"><g><path d="M 7.265625 0 L 6.890625 -1.09375 L 6.703125 -1.09375 C 6.453125 -0.6875 6.101562 -0.375 5.65625 -0.15625 C 5.207031 0.0507812 4.679688 0.15625 4.078125 0.15625 C 3.109375 0.15625 2.359375 -0.117188 1.828125 -0.671875 C 1.296875 -1.234375 1.03125 -2.023438 1.03125 -3.046875 L 1.03125 -8.734375 L 4.046875 -8.734375 L 4.046875 -3.96875 C 4.046875 -3.394531 4.125 -2.960938 4.28125 -2.671875 C 4.445312 -2.378906 4.710938 -2.234375 5.078125 -2.234375 C 5.597656 -2.234375 5.96875 -2.4375 6.1875 -2.84375 C 6.414062 -3.25 6.53125 -3.9375 6.53125 -4.90625 L 6.53125 -8.734375 L 9.546875 -8.734375 L 9.546875 0 Z M 7.265625 0 "/></g></g></g><g fill="rgb(100%, 100%, 100%)" fill-opacity="1"><g transform="translate(185.240612, 27.580647)"><g><path d="M 4.078125 0 L 1.0625 0 L 1.0625 -8.734375 L 4.078125 -8.734375 Z M 0.984375 -10.921875 C 0.984375 -11.367188 1.109375 -11.703125 1.359375 -11.921875 C 1.609375 -12.140625 2.015625 -12.25 2.578125 -12.25 C 3.140625 -12.25 3.546875 -12.132812 3.796875 -11.90625 C 4.054688 -11.6875 4.1875 -11.359375 4.1875 -10.921875 C 4.1875 -10.035156 3.648438 -9.59375 2.578125 -9.59375 C 1.515625 -9.59375 0.984375 -10.035156 0.984375 -10.921875 Z M 0.984375 -10.921875 "/></g></g></g><g fill="rgb(100%, 100%, 100%)" fill-opacity="1"><g transform="translate(190.377928, 27.580647)"><g><path d="M 5.328125 -2.234375 C 5.734375 -2.234375 6.21875 -2.332031 6.78125 -2.53125 L 6.78125 -0.328125 C 6.375 -0.148438 5.984375 -0.0234375 5.609375 0.046875 C 5.242188 0.117188 4.816406 0.15625 4.328125 0.15625 C 3.316406 0.15625 2.585938 -0.0859375 2.140625 -0.578125 C 1.691406 -1.078125 1.46875 -1.84375 1.46875 -2.875 L 1.46875 -6.484375 L 0.40625 -6.484375 L 0.40625 -7.703125 L 1.75 -8.65625 L 2.53125 -10.484375 L 4.5 -10.484375 L 4.5 -8.734375 L 6.65625 -8.734375 L 6.65625 -6.484375 L 4.5 -6.484375 L 4.5 -3.078125 C 4.5 -2.515625 4.773438 -2.234375 5.328125 -2.234375 Z M 5.328125 -2.234375 "/></g></g></g><g fill="rgb(100%, 100%, 100%)" fill-opacity="1"><g transform="translate(197.644221, 27.580647)"><g><path d="M 9.390625 -4.390625 C 9.390625 -2.960938 9.003906 -1.847656 8.234375 -1.046875 C 7.460938 -0.242188 6.382812 0.15625 5 0.15625 C 3.675781 0.15625 2.617188 -0.25 1.828125 -1.0625 C 1.046875 -1.882812 0.65625 -2.992188 0.65625 -4.390625 C 0.65625 -5.816406 1.039062 -6.921875 1.8125 -7.703125 C 2.582031 -8.492188 3.660156 -8.890625 5.046875 -8.890625 C 5.910156 -8.890625 6.671875 -8.707031 7.328125 -8.34375 C 7.984375 -7.976562 8.488281 -7.453125 8.84375 -6.765625 C 9.207031 -6.085938 9.390625 -5.296875 9.390625 -4.390625 Z M 3.71875 -4.390625 C 3.71875 -3.640625 3.816406 -3.066406 4.015625 -2.671875 C 4.222656 -2.273438 4.5625 -2.078125 5.03125 -2.078125 C 5.5 -2.078125 5.828125 -2.273438 6.015625 -2.671875 C 6.210938 -3.066406 6.3125 -3.640625 6.3125 -4.390625 C 6.3125 -5.128906 6.210938 -5.691406 6.015625 -6.078125 C 5.828125 -6.460938 5.492188 -6.65625 5.015625 -6.65625 C 4.554688 -6.65625 4.222656 -6.460938 4.015625 -6.078125 C 3.816406 -5.703125 3.71875 -5.140625 3.71875 -4.390625 Z M 3.71875 -4.390625 "/></g></g></g></svg>