<svg xmlns="http://www.w3.org/2000/svg" xmlns:xlink="http://www.w3.org/1999/xlink" width="1920" zoomAndPan="magnify" viewBox="0 0 1440 359.999987" height="480" preserveAspectRatio="xMidYMid meet" version="1.0"><defs><g><g id="id1"/></g></defs><g fill="rgb(100%, 100%, 100%)" fill-opacity="1"><g transform="translate(113.858649, 193.966339)"><g><path d="M 23.265625 -9.265625 C 23.265625 -7.378906 22.78125 -5.703125 21.8125 -4.234375 C 20.851562 -2.765625 19.46875 -1.617188 17.65625 -0.796875 C 15.851562 0.015625 13.734375 0.421875 11.296875 0.421875 C 9.265625 0.421875 7.554688 0.28125 6.171875 0 C 4.796875 -0.289062 3.363281 -0.789062 1.875 -1.5 L 1.875 -8.859375 C 3.445312 -8.046875 5.082031 -7.410156 6.78125 -6.953125 C 8.476562 -6.503906 10.039062 -6.28125 11.46875 -6.28125 C 12.6875 -6.28125 13.582031 -6.492188 14.15625 -6.921875 C 14.726562 -7.347656 15.015625 -7.894531 15.015625 -8.5625 C 15.015625 -8.976562 14.898438 -9.34375 14.671875 -9.65625 C 14.441406 -9.96875 14.070312 -10.285156 13.5625 -10.609375 C 13.050781 -10.929688 11.695312 -11.585938 9.5 -12.578125 C 7.507812 -13.472656 6.015625 -14.34375 5.015625 -15.1875 C 4.023438 -16.039062 3.289062 -17.019531 2.8125 -18.125 C 2.332031 -19.226562 2.09375 -20.53125 2.09375 -22.03125 C 2.09375 -24.84375 3.113281 -27.035156 5.15625 -28.609375 C 7.207031 -30.179688 10.019531 -30.96875 13.59375 -30.96875 C 16.75 -30.96875 19.972656 -30.238281 23.265625 -28.78125 L 20.734375 -22.40625 C 17.878906 -23.71875 15.414062 -24.375 13.34375 -24.375 C 12.269531 -24.375 11.488281 -24.179688 11 -23.796875 C 10.519531 -23.421875 10.28125 -22.957031 10.28125 -22.40625 C 10.28125 -21.8125 10.585938 -21.273438 11.203125 -20.796875 C 11.816406 -20.328125 13.5 -19.460938 16.25 -18.203125 C 18.875 -17.023438 20.695312 -15.753906 21.71875 -14.390625 C 22.75 -13.035156 23.265625 -11.328125 23.265625 -9.265625 Z M 23.265625 -9.265625 "/></g></g></g><g fill="rgb(100%, 100%, 100%)" fill-opacity="1"><g transform="translate(138.540206, 193.966339)"><g><path d="M 11.03125 0 L 2.859375 0 L 2.859375 -23.65625 L 11.03125 -23.65625 Z M 2.65625 -29.546875 C 2.65625 -30.773438 2.992188 -31.6875 3.671875 -32.28125 C 4.359375 -32.882812 5.457031 -33.1875 6.96875 -33.1875 C 8.488281 -33.1875 9.597656 -32.878906 10.296875 -32.265625 C 10.992188 -31.648438 11.34375 -30.742188 11.34375 -29.546875 C 11.34375 -27.148438 9.882812 -25.953125 6.96875 -25.953125 C 4.09375 -25.953125 2.65625 -27.148438 2.65625 -29.546875 Z M 2.65625 -29.546875 "/></g></g></g><g fill="rgb(100%, 100%, 100%)" fill-opacity="1"><g transform="translate(152.447072, 193.966339)"><g><path d="M 31.859375 0 L 31.859375 -12.859375 C 31.859375 -14.460938 31.640625 -15.664062 31.203125 -16.46875 C 30.765625 -17.269531 30.070312 -17.671875 29.125 -17.671875 C 27.875 -17.671875 26.957031 -17.132812 26.375 -16.0625 C 25.789062 -14.988281 25.5 -13.3125 25.5 -11.03125 L 25.5 0 L 17.3125 0 L 17.3125 -12.859375 C 17.3125 -14.460938 17.101562 -15.664062 16.6875 -16.46875 C 16.269531 -17.269531 15.59375 -17.671875 14.65625 -17.671875 C 13.375 -17.671875 12.441406 -17.097656 11.859375 -15.953125 C 11.273438 -14.804688 10.984375 -12.941406 10.984375 -10.359375 L 10.984375 0 L 2.8125 0 L 2.8125 -23.65625 L 8.984375 -23.65625 L 10 -20.734375 L 10.484375 -20.734375 C 11.109375 -21.816406 12.015625 -22.644531 13.203125 -23.21875 C 14.398438 -23.789062 15.753906 -24.078125 17.265625 -24.078125 C 20.679688 -24.078125 23.078125 -23.039062 24.453125 -20.96875 L 25.09375 -20.96875 C 25.769531 -21.9375 26.703125 -22.695312 27.890625 -23.25 C 29.078125 -23.800781 30.390625 -24.078125 31.828125 -24.078125 C 34.617188 -24.078125 36.679688 -23.359375 38.015625 -21.921875 C 39.359375 -20.492188 40.03125 -18.316406 40.03125 -15.390625 L 40.03125 0 Z M 31.859375 0 "/></g></g></g><g fill="rgb(100%, 100%, 100%)" fill-opacity="1"><g transform="translate(195.211731, 193.966339)"><g><path d="M 17.015625 0.421875 C 15.816406 0.421875 14.742188 0.222656 13.796875 -0.171875 C 12.859375 -0.566406 11.921875 -1.28125 10.984375 -2.3125 L 10.609375 -2.3125 C 10.859375 -0.65625 10.984375 0.367188 10.984375 0.765625 L 10.984375 10.28125 L 2.8125 10.28125 L 2.8125 -23.65625 L 9.453125 -23.65625 L 10.609375 -20.65625 L 10.984375 -20.65625 C 12.503906 -22.9375 14.597656 -24.078125 17.265625 -24.078125 C 19.878906 -24.078125 21.929688 -22.988281 23.421875 -20.8125 C 24.910156 -18.644531 25.65625 -15.664062 25.65625 -11.875 C 25.65625 -8.0625 24.878906 -5.054688 23.328125 -2.859375 C 21.773438 -0.671875 19.671875 0.421875 17.015625 0.421875 Z M 14.28125 -17.671875 C 13.082031 -17.671875 12.242188 -17.238281 11.765625 -16.375 C 11.285156 -15.519531 11.023438 -14.253906 10.984375 -12.578125 L 10.984375 -11.921875 C 10.984375 -9.890625 11.253906 -8.421875 11.796875 -7.515625 C 12.335938 -6.609375 13.191406 -6.15625 14.359375 -6.15625 C 15.410156 -6.15625 16.171875 -6.601562 16.640625 -7.5 C 17.117188 -8.40625 17.359375 -9.894531 17.359375 -11.96875 C 17.359375 -14 17.117188 -15.457031 16.640625 -16.34375 C 16.171875 -17.226562 15.382812 -17.671875 14.28125 -17.671875 Z M 14.28125 -17.671875 "/></g></g></g><g fill="rgb(100%, 100%, 100%)" fill-opacity="1"><g transform="translate(222.712254, 193.966339)"><g><path d="M 10.984375 0 L 2.8125 0 L 2.8125 -32.484375 L 10.984375 -32.484375 Z M 10.984375 0 "/></g></g></g><g fill="rgb(100%, 100%, 100%)" fill-opacity="1"><g transform="translate(236.535596, 193.966339)"><g><path d="M 14.234375 0.421875 C 10.296875 0.421875 7.238281 -0.625 5.0625 -2.71875 C 2.882812 -4.820312 1.796875 -7.804688 1.796875 -11.671875 C 1.796875 -15.671875 2.800781 -18.738281 4.8125 -20.875 C 6.832031 -23.007812 9.71875 -24.078125 13.46875 -24.078125 C 17.03125 -24.078125 19.78125 -23.144531 21.71875 -21.28125 C 23.664062 -19.425781 24.640625 -16.753906 24.640625 -13.265625 L 24.640625 -9.625 L 10.046875 -9.625 C 10.097656 -8.300781 10.578125 -7.265625 11.484375 -6.515625 C 12.398438 -5.765625 13.644531 -5.390625 15.21875 -5.390625 C 16.65625 -5.390625 17.972656 -5.523438 19.171875 -5.796875 C 20.378906 -6.066406 21.6875 -6.53125 23.09375 -7.1875 L 23.09375 -1.3125 C 21.8125 -0.65625 20.488281 -0.203125 19.125 0.046875 C 17.757812 0.296875 16.128906 0.421875 14.234375 0.421875 Z M 13.765625 -18.515625 C 12.796875 -18.515625 11.988281 -18.210938 11.34375 -17.609375 C 10.695312 -17.003906 10.320312 -16.054688 10.21875 -14.765625 L 17.234375 -14.765625 C 17.203125 -15.898438 16.875 -16.804688 16.25 -17.484375 C 15.632812 -18.171875 14.804688 -18.515625 13.765625 -18.515625 Z M 13.765625 -18.515625 "/></g></g></g><g fill="rgb(100%, 100%, 100%)" fill-opacity="1"><g transform="translate(262.971171, 193.966339)"><g><path d="M 21.09375 -7.265625 C 21.09375 -4.734375 20.226562 -2.816406 18.5 -1.515625 C 16.769531 -0.222656 14.289062 0.421875 11.0625 0.421875 C 9.3125 0.421875 7.785156 0.328125 6.484375 0.140625 C 5.191406 -0.046875 3.875 -0.390625 2.53125 -0.890625 L 2.53125 -7.4375 C 3.789062 -6.875 5.175781 -6.410156 6.6875 -6.046875 C 8.195312 -5.691406 9.546875 -5.515625 10.734375 -5.515625 C 12.503906 -5.515625 13.390625 -5.914062 13.390625 -6.71875 C 13.390625 -7.132812 13.140625 -7.503906 12.640625 -7.828125 C 12.148438 -8.160156 10.710938 -8.800781 8.328125 -9.75 C 6.160156 -10.644531 4.644531 -11.65625 3.78125 -12.78125 C 2.914062 -13.914062 2.484375 -15.359375 2.484375 -17.109375 C 2.484375 -19.304688 3.332031 -21.015625 5.03125 -22.234375 C 6.726562 -23.460938 9.128906 -24.078125 12.234375 -24.078125 C 13.796875 -24.078125 15.257812 -23.90625 16.625 -23.5625 C 18 -23.21875 19.425781 -22.722656 20.90625 -22.078125 L 18.6875 -16.8125 C 17.601562 -17.300781 16.453125 -17.710938 15.234375 -18.046875 C 14.023438 -18.390625 13.039062 -18.5625 12.28125 -18.5625 C 10.945312 -18.5625 10.28125 -18.234375 10.28125 -17.578125 C 10.28125 -17.179688 10.507812 -16.835938 10.96875 -16.546875 C 11.4375 -16.265625 12.785156 -15.6875 15.015625 -14.8125 C 16.671875 -14.125 17.90625 -13.453125 18.71875 -12.796875 C 19.53125 -12.140625 20.128906 -11.367188 20.515625 -10.484375 C 20.898438 -9.609375 21.09375 -8.535156 21.09375 -7.265625 Z M 21.09375 -7.265625 "/></g></g></g><g fill="rgb(100%, 100%, 100%)" fill-opacity="1"><g transform="translate(285.773421, 193.966339)"><g/></g></g><g fill="rgb(100%, 100%, 100%)" fill-opacity="1"><g transform="translate(296.882209, 193.966339)"><g><path d="M 20.4375 -30.53125 L 29.671875 -30.53125 L 19.671875 0 L 9.953125 0 L 0 -30.53125 L 9.265625 -30.53125 L 13.421875 -15.0625 C 14.285156 -11.613281 14.757812 -9.21875 14.84375 -7.875 C 14.945312 -8.84375 15.144531 -10.054688 15.4375 -11.515625 C 15.726562 -12.984375 15.984375 -14.132812 16.203125 -14.96875 Z M 20.4375 -30.53125 "/></g></g></g><g fill="rgb(100%, 100%, 100%)" fill-opacity="1"><g transform="translate(326.554375, 193.966339)"><g><path d="M 11.03125 0 L 2.859375 0 L 2.859375 -23.65625 L 11.03125 -23.65625 Z M 2.65625 -29.546875 C 2.65625 -30.773438 2.992188 -31.6875 3.671875 -32.28125 C 4.359375 -32.882812 5.457031 -33.1875 6.96875 -33.1875 C 8.488281 -33.1875 9.597656 -32.878906 10.296875 -32.265625 C 10.992188 -31.648438 11.34375 -30.742188 11.34375 -29.546875 C 11.34375 -27.148438 9.882812 -25.953125 6.96875 -25.953125 C 4.09375 -25.953125 2.65625 -27.148438 2.65625 -29.546875 Z M 2.65625 -29.546875 "/></g></g></g><g fill="rgb(100%, 100%, 100%)" fill-opacity="1"><g transform="translate(340.461241, 193.966339)"><g><path d="M 14.40625 -6.03125 C 15.507812 -6.03125 16.828125 -6.300781 18.359375 -6.84375 L 18.359375 -0.890625 C 17.253906 -0.421875 16.203125 -0.0859375 15.203125 0.109375 C 14.210938 0.316406 13.050781 0.421875 11.71875 0.421875 C 8.96875 0.421875 6.988281 -0.25 5.78125 -1.59375 C 4.570312 -2.9375 3.96875 -5 3.96875 -7.78125 L 3.96875 -17.546875 L 1.109375 -17.546875 L 1.109375 -20.859375 L 4.734375 -23.421875 L 6.84375 -28.40625 L 12.1875 -28.40625 L 12.1875 -23.65625 L 18 -23.65625 L 18 -17.546875 L 12.1875 -17.546875 L 12.1875 -8.328125 C 12.1875 -6.796875 12.925781 -6.03125 14.40625 -6.03125 Z M 14.40625 -6.03125 "/></g></g></g><g fill="rgb(100%, 100%, 100%)" fill-opacity="1"><g transform="translate(360.131314, 193.966339)"><g><path d="M 18.25 0 L 16.6875 -3.125 L 16.515625 -3.125 C 15.421875 -1.757812 14.300781 -0.828125 13.15625 -0.328125 C 12.007812 0.171875 10.535156 0.421875 8.734375 0.421875 C 6.503906 0.421875 4.75 -0.242188 3.46875 -1.578125 C 2.1875 -2.921875 1.546875 -4.800781 1.546875 -7.21875 C 1.546875 -9.738281 2.421875 -11.613281 4.171875 -12.84375 C 5.929688 -14.082031 8.472656 -14.78125 11.796875 -14.9375 L 15.75 -15.0625 L 15.75 -15.390625 C 15.75 -17.335938 14.785156 -18.3125 12.859375 -18.3125 C 11.140625 -18.3125 8.945312 -17.726562 6.28125 -16.5625 L 3.921875 -21.953125 C 6.679688 -23.367188 10.160156 -24.078125 14.359375 -24.078125 C 17.398438 -24.078125 19.75 -23.320312 21.40625 -21.8125 C 23.070312 -20.3125 23.90625 -18.210938 23.90625 -15.515625 L 23.90625 0 Z M 12.1875 -5.34375 C 13.175781 -5.34375 14.019531 -5.65625 14.71875 -6.28125 C 15.425781 -6.90625 15.78125 -7.722656 15.78125 -8.734375 L 15.78125 -10.5625 L 13.90625 -10.484375 C 11.21875 -10.390625 9.875 -9.398438 9.875 -7.515625 C 9.875 -6.066406 10.644531 -5.34375 12.1875 -5.34375 Z M 12.1875 -5.34375 "/></g></g></g><g fill="rgb(100%, 100%, 100%)" fill-opacity="1"><g transform="translate(386.775701, 193.966339)"><g><path d="M 31.859375 0 L 31.859375 -12.859375 C 31.859375 -14.460938 31.640625 -15.664062 31.203125 -16.46875 C 30.765625 -17.269531 30.070312 -17.671875 29.125 -17.671875 C 27.875 -17.671875 26.957031 -17.132812 26.375 -16.0625 C 25.789062 -14.988281 25.5 -13.3125 25.5 -11.03125 L 25.5 0 L 17.3125 0 L 17.3125 -12.859375 C 17.3125 -14.460938 17.101562 -15.664062 16.6875 -16.46875 C 16.269531 -17.269531 15.59375 -17.671875 14.65625 -17.671875 C 13.375 -17.671875 12.441406 -17.097656 11.859375 -15.953125 C 11.273438 -14.804688 10.984375 -12.941406 10.984375 -10.359375 L 10.984375 0 L 2.8125 0 L 2.8125 -23.65625 L 8.984375 -23.65625 L 10 -20.734375 L 10.484375 -20.734375 C 11.109375 -21.816406 12.015625 -22.644531 13.203125 -23.21875 C 14.398438 -23.789062 15.753906 -24.078125 17.265625 -24.078125 C 20.679688 -24.078125 23.078125 -23.039062 24.453125 -20.96875 L 25.09375 -20.96875 C 25.769531 -21.9375 26.703125 -22.695312 27.890625 -23.25 C 29.078125 -23.800781 30.390625 -24.078125 31.828125 -24.078125 C 34.617188 -24.078125 36.679688 -23.359375 38.015625 -21.921875 C 39.359375 -20.492188 40.03125 -18.316406 40.03125 -15.390625 L 40.03125 0 Z M 31.859375 0 "/></g></g></g><g fill="rgb(100%, 100%, 100%)" fill-opacity="1"><g transform="translate(429.54036, 193.966339)"><g><path d="M 11.03125 0 L 2.859375 0 L 2.859375 -23.65625 L 11.03125 -23.65625 Z M 2.65625 -29.546875 C 2.65625 -30.773438 2.992188 -31.6875 3.671875 -32.28125 C 4.359375 -32.882812 5.457031 -33.1875 6.96875 -33.1875 C 8.488281 -33.1875 9.597656 -32.878906 10.296875 -32.265625 C 10.992188 -31.648438 11.34375 -30.742188 11.34375 -29.546875 C 11.34375 -27.148438 9.882812 -25.953125 6.96875 -25.953125 C 4.09375 -25.953125 2.65625 -27.148438 2.65625 -29.546875 Z M 2.65625 -29.546875 "/></g></g></g><g fill="rgb(100%, 100%, 100%)" fill-opacity="1"><g transform="translate(443.447212, 193.966339)"><g><path d="M 17.75 0 L 17.75 -12.90625 C 17.75 -14.476562 17.519531 -15.664062 17.0625 -16.46875 C 16.613281 -17.269531 15.890625 -17.671875 14.890625 -17.671875 C 13.515625 -17.671875 12.519531 -17.117188 11.90625 -16.015625 C 11.289062 -14.910156 10.984375 -13.023438 10.984375 -10.359375 L 10.984375 0 L 2.8125 0 L 2.8125 -23.65625 L 8.984375 -23.65625 L 10 -20.734375 L 10.484375 -20.734375 C 11.179688 -21.847656 12.144531 -22.679688 13.375 -23.234375 C 14.601562 -23.796875 16.019531 -24.078125 17.625 -24.078125 C 20.238281 -24.078125 22.273438 -23.316406 23.734375 -21.796875 C 25.191406 -20.285156 25.921875 -18.148438 25.921875 -15.390625 L 25.921875 0 Z M 17.75 0 "/></g></g></g><g fill="rgb(100%, 100%, 100%)" fill-opacity="1"><g transform="translate(472.096192, 193.966339)"><g><path d="M 18.25 0 L 16.6875 -3.125 L 16.515625 -3.125 C 15.421875 -1.757812 14.300781 -0.828125 13.15625 -0.328125 C 12.007812 0.171875 10.535156 0.421875 8.734375 0.421875 C 6.503906 0.421875 4.75 -0.242188 3.46875 -1.578125 C 2.1875 -2.921875 1.546875 -4.800781 1.546875 -7.21875 C 1.546875 -9.738281 2.421875 -11.613281 4.171875 -12.84375 C 5.929688 -14.082031 8.472656 -14.78125 11.796875 -14.9375 L 15.75 -15.0625 L 15.75 -15.390625 C 15.75 -17.335938 14.785156 -18.3125 12.859375 -18.3125 C 11.140625 -18.3125 8.945312 -17.726562 6.28125 -16.5625 L 3.921875 -21.953125 C 6.679688 -23.367188 10.160156 -24.078125 14.359375 -24.078125 C 17.398438 -24.078125 19.75 -23.320312 21.40625 -21.8125 C 23.070312 -20.3125 23.90625 -18.210938 23.90625 -15.515625 L 23.90625 0 Z M 12.1875 -5.34375 C 13.175781 -5.34375 14.019531 -5.65625 14.71875 -6.28125 C 15.425781 -6.90625 15.78125 -7.722656 15.78125 -8.734375 L 15.78125 -10.5625 L 13.90625 -10.484375 C 11.21875 -10.390625 9.875 -9.398438 9.875 -7.515625 C 9.875 -6.066406 10.644531 -5.34375 12.1875 -5.34375 Z M 12.1875 -5.34375 "/></g></g></g><g fill="rgb(100%, 100%, 100%)" fill-opacity="1"><g transform="translate(498.740579, 193.966339)"><g/></g></g><g fill="rgb(100%, 100%, 100%)" fill-opacity="1"><g transform="translate(509.849368, 193.966339)"><g><path d="M 10.171875 0.421875 C 8.484375 0.421875 7.007812 -0.0546875 5.75 -1.015625 C 4.488281 -1.984375 3.515625 -3.398438 2.828125 -5.265625 C 2.140625 -7.128906 1.796875 -9.304688 1.796875 -11.796875 C 1.796875 -15.640625 2.566406 -18.644531 4.109375 -20.8125 C 5.660156 -22.988281 7.785156 -24.078125 10.484375 -24.078125 C 11.804688 -24.078125 12.960938 -23.8125 13.953125 -23.28125 C 14.953125 -22.75 15.863281 -21.859375 16.6875 -20.609375 L 16.84375 -20.609375 C 16.582031 -22.460938 16.453125 -24.316406 16.453125 -26.171875 L 16.453125 -32.484375 L 24.6875 -32.484375 L 24.6875 0 L 18.515625 0 L 16.765625 -2.984375 L 16.453125 -2.984375 C 15.046875 -0.710938 12.953125 0.421875 10.171875 0.421875 Z M 13.515625 -6.03125 C 14.816406 -6.03125 15.734375 -6.441406 16.265625 -7.265625 C 16.804688 -8.085938 17.097656 -9.351562 17.140625 -11.0625 L 17.140625 -11.71875 C 17.140625 -13.800781 16.835938 -15.285156 16.234375 -16.171875 C 15.640625 -17.054688 14.703125 -17.5 13.421875 -17.5 C 12.347656 -17.5 11.515625 -16.992188 10.921875 -15.984375 C 10.335938 -14.972656 10.046875 -13.535156 10.046875 -11.671875 C 10.046875 -9.835938 10.34375 -8.4375 10.9375 -7.46875 C 11.539062 -6.507812 12.398438 -6.03125 13.515625 -6.03125 Z M 13.515625 -6.03125 "/></g></g></g><g fill="rgb(100%, 100%, 100%)" fill-opacity="1"><g transform="translate(537.349904, 193.966339)"><g><path d="M 14.234375 0.421875 C 10.296875 0.421875 7.238281 -0.625 5.0625 -2.71875 C 2.882812 -4.820312 1.796875 -7.804688 1.796875 -11.671875 C 1.796875 -15.671875 2.800781 -18.738281 4.8125 -20.875 C 6.832031 -23.007812 9.71875 -24.078125 13.46875 -24.078125 C 17.03125 -24.078125 19.78125 -23.144531 21.71875 -21.28125 C 23.664062 -19.425781 24.640625 -16.753906 24.640625 -13.265625 L 24.640625 -9.625 L 10.046875 -9.625 C 10.097656 -8.300781 10.578125 -7.265625 11.484375 -6.515625 C 12.398438 -5.765625 13.644531 -5.390625 15.21875 -5.390625 C 16.65625 -5.390625 17.972656 -5.523438 19.171875 -5.796875 C 20.378906 -6.066406 21.6875 -6.53125 23.09375 -7.1875 L 23.09375 -1.3125 C 21.8125 -0.65625 20.488281 -0.203125 19.125 0.046875 C 17.757812 0.296875 16.128906 0.421875 14.234375 0.421875 Z M 13.765625 -18.515625 C 12.796875 -18.515625 11.988281 -18.210938 11.34375 -17.609375 C 10.695312 -17.003906 10.320312 -16.054688 10.21875 -14.765625 L 17.234375 -14.765625 C 17.203125 -15.898438 16.875 -16.804688 16.25 -17.484375 C 15.632812 -18.171875 14.804688 -18.515625 13.765625 -18.515625 Z M 13.765625 -18.515625 "/></g></g></g><g fill="rgb(100%, 100%, 100%)" fill-opacity="1"><g transform="translate(563.785466, 193.966339)"><g/></g></g><g fill="rgb(100%, 100%, 100%)" fill-opacity="1"><g transform="translate(574.894254, 193.966339)"><g><path d="M 1.46875 -12.90625 C 1.46875 -17.164062 2.070312 -20.613281 3.28125 -23.25 C 4.5 -25.882812 6.296875 -27.828125 8.671875 -29.078125 C 11.046875 -30.335938 13.972656 -30.96875 17.453125 -30.96875 C 18.691406 -30.96875 20.140625 -30.847656 21.796875 -30.609375 L 21.796875 -24.15625 C 20.410156 -24.425781 18.898438 -24.5625 17.265625 -24.5625 C 14.515625 -24.5625 12.460938 -23.953125 11.109375 -22.734375 C 9.753906 -21.523438 9.015625 -19.550781 8.890625 -16.8125 L 9.140625 -16.8125 C 10.398438 -19.175781 12.414062 -20.359375 15.1875 -20.359375 C 17.894531 -20.359375 20 -19.484375 21.5 -17.734375 C 23 -15.992188 23.75 -13.5625 23.75 -10.4375 C 23.75 -7.082031 22.800781 -4.429688 20.90625 -2.484375 C 19.007812 -0.546875 16.363281 0.421875 12.96875 0.421875 C 9.363281 0.421875 6.546875 -0.742188 4.515625 -3.078125 C 2.484375 -5.421875 1.46875 -8.695312 1.46875 -12.90625 Z M 12.78125 -6.125 C 13.65625 -6.125 14.367188 -6.453125 14.921875 -7.109375 C 15.472656 -7.773438 15.75 -8.832031 15.75 -10.28125 C 15.75 -12.75 14.785156 -13.984375 12.859375 -13.984375 C 11.910156 -13.984375 11.140625 -13.660156 10.546875 -13.015625 C 9.960938 -12.378906 9.671875 -11.601562 9.671875 -10.6875 C 9.671875 -9.351562 9.953125 -8.257812 10.515625 -7.40625 C 11.085938 -6.550781 11.84375 -6.125 12.78125 -6.125 Z M 12.78125 -6.125 "/></g></g></g><g fill="rgb(100%, 100%, 100%)" fill-opacity="1"><g transform="translate(599.9517, 193.966339)"><g/></g></g><g fill="rgb(100%, 100%, 100%)" fill-opacity="1"><g transform="translate(611.06046, 193.966339)"><g><path d="M 3.296875 0 L 3.296875 -30.53125 L 11.59375 -30.53125 L 11.59375 0 Z M 3.296875 0 "/></g></g></g><g fill="rgb(100%, 100%, 100%)" fill-opacity="1"><g transform="translate(625.948763, 193.966339)"><g><path d="M 17.75 0 L 17.75 -12.90625 C 17.75 -14.476562 17.519531 -15.664062 17.0625 -16.46875 C 16.613281 -17.269531 15.890625 -17.671875 14.890625 -17.671875 C 13.515625 -17.671875 12.519531 -17.117188 11.90625 -16.015625 C 11.289062 -14.910156 10.984375 -13.023438 10.984375 -10.359375 L 10.984375 0 L 2.8125 0 L 2.8125 -23.65625 L 8.984375 -23.65625 L 10 -20.734375 L 10.484375 -20.734375 C 11.179688 -21.847656 12.144531 -22.679688 13.375 -23.234375 C 14.601562 -23.796875 16.019531 -24.078125 17.625 -24.078125 C 20.238281 -24.078125 22.273438 -23.316406 23.734375 -21.796875 C 25.191406 -20.285156 25.921875 -18.148438 25.921875 -15.390625 L 25.921875 0 Z M 17.75 0 "/></g></g></g><g fill="rgb(100%, 100%, 100%)" fill-opacity="1"><g transform="translate(654.597772, 193.966339)"><g><path d="M 25.140625 -23.65625 L 25.140625 -19.71875 L 21.90625 -18.515625 C 22.351562 -17.710938 22.578125 -16.773438 22.578125 -15.703125 C 22.578125 -13.148438 21.679688 -11.171875 19.890625 -9.765625 C 18.097656 -8.359375 15.425781 -7.65625 11.875 -7.65625 C 11 -7.65625 10.304688 -7.710938 9.796875 -7.828125 C 9.597656 -7.460938 9.5 -7.125 9.5 -6.8125 C 9.5 -6.40625 9.828125 -6.09375 10.484375 -5.875 C 11.140625 -5.65625 11.992188 -5.546875 13.046875 -5.546875 L 16.984375 -5.546875 C 22.285156 -5.546875 24.9375 -3.3125 24.9375 1.15625 C 24.9375 4.03125 23.707031 6.269531 21.25 7.875 C 18.789062 9.476562 15.34375 10.28125 10.90625 10.28125 C 7.550781 10.28125 4.960938 9.71875 3.140625 8.59375 C 1.328125 7.46875 0.421875 5.859375 0.421875 3.765625 C 0.421875 0.929688 2.175781 -0.894531 5.6875 -1.71875 C 4.957031 -2.019531 4.320312 -2.507812 3.78125 -3.1875 C 3.25 -3.875 2.984375 -4.550781 2.984375 -5.21875 C 2.984375 -5.957031 3.1875 -6.609375 3.59375 -7.171875 C 4 -7.734375 4.84375 -8.40625 6.125 -9.1875 C 4.894531 -9.726562 3.925781 -10.578125 3.21875 -11.734375 C 2.519531 -12.890625 2.171875 -14.296875 2.171875 -15.953125 C 2.171875 -18.523438 3.046875 -20.519531 4.796875 -21.9375 C 6.554688 -23.363281 9.0625 -24.078125 12.3125 -24.078125 C 12.75 -24.078125 13.492188 -24.023438 14.546875 -23.921875 C 15.609375 -23.828125 16.390625 -23.738281 16.890625 -23.65625 Z M 7.3125 2.9375 C 7.3125 3.613281 7.671875 4.15625 8.390625 4.5625 C 9.117188 4.96875 10.085938 5.171875 11.296875 5.171875 C 13.273438 5.171875 14.859375 4.925781 16.046875 4.4375 C 17.234375 3.945312 17.828125 3.3125 17.828125 2.53125 C 17.828125 1.90625 17.460938 1.460938 16.734375 1.203125 C 16.015625 0.941406 14.984375 0.8125 13.640625 0.8125 L 10.4375 0.8125 C 9.5625 0.8125 8.820312 1.015625 8.21875 1.421875 C 7.613281 1.835938 7.3125 2.34375 7.3125 2.9375 Z M 9.875 -15.90625 C 9.875 -13.488281 10.71875 -12.28125 12.40625 -12.28125 C 13.1875 -12.28125 13.785156 -12.578125 14.203125 -13.171875 C 14.628906 -13.773438 14.84375 -14.675781 14.84375 -15.875 C 14.84375 -18.320312 14.03125 -19.546875 12.40625 -19.546875 C 10.71875 -19.546875 9.875 -18.332031 9.875 -15.90625 Z M 9.875 -15.90625 "/></g></g></g><g fill="rgb(100%, 100%, 100%)" fill-opacity="1"><g transform="translate(680.51134, 193.966339)"><g><path d="M 17.109375 -24.078125 C 17.816406 -24.078125 18.488281 -24.019531 19.125 -23.90625 L 19.59375 -23.828125 L 18.859375 -16.125 C 18.191406 -16.289062 17.265625 -16.375 16.078125 -16.375 C 14.296875 -16.375 13 -15.960938 12.1875 -15.140625 C 11.382812 -14.328125 10.984375 -13.15625 10.984375 -11.625 L 10.984375 0 L 2.8125 0 L 2.8125 -23.65625 L 8.890625 -23.65625 L 10.171875 -19.875 L 10.5625 -19.875 C 11.25 -21.132812 12.203125 -22.148438 13.421875 -22.921875 C 14.640625 -23.691406 15.867188 -24.078125 17.109375 -24.078125 Z M 17.109375 -24.078125 "/></g></g></g><g fill="rgb(100%, 100%, 100%)" fill-opacity="1"><g transform="translate(700.578176, 193.966339)"><g><path d="M 14.234375 0.421875 C 10.296875 0.421875 7.238281 -0.625 5.0625 -2.71875 C 2.882812 -4.820312 1.796875 -7.804688 1.796875 -11.671875 C 1.796875 -15.671875 2.800781 -18.738281 4.8125 -20.875 C 6.832031 -23.007812 9.71875 -24.078125 13.46875 -24.078125 C 17.03125 -24.078125 19.78125 -23.144531 21.71875 -21.28125 C 23.664062 -19.425781 24.640625 -16.753906 24.640625 -13.265625 L 24.640625 -9.625 L 10.046875 -9.625 C 10.097656 -8.300781 10.578125 -7.265625 11.484375 -6.515625 C 12.398438 -5.765625 13.644531 -5.390625 15.21875 -5.390625 C 16.65625 -5.390625 17.972656 -5.523438 19.171875 -5.796875 C 20.378906 -6.066406 21.6875 -6.53125 23.09375 -7.1875 L 23.09375 -1.3125 C 21.8125 -0.65625 20.488281 -0.203125 19.125 0.046875 C 17.757812 0.296875 16.128906 0.421875 14.234375 0.421875 Z M 13.765625 -18.515625 C 12.796875 -18.515625 11.988281 -18.210938 11.34375 -17.609375 C 10.695312 -17.003906 10.320312 -16.054688 10.21875 -14.765625 L 17.234375 -14.765625 C 17.203125 -15.898438 16.875 -16.804688 16.25 -17.484375 C 15.632812 -18.171875 14.804688 -18.515625 13.765625 -18.515625 Z M 13.765625 -18.515625 "/></g></g></g><g fill="rgb(100%, 100%, 100%)" fill-opacity="1"><g transform="translate(727.013737, 193.966339)"><g><path d="M 10.171875 0.421875 C 8.484375 0.421875 7.007812 -0.0546875 5.75 -1.015625 C 4.488281 -1.984375 3.515625 -3.398438 2.828125 -5.265625 C 2.140625 -7.128906 1.796875 -9.304688 1.796875 -11.796875 C 1.796875 -15.640625 2.566406 -18.644531 4.109375 -20.8125 C 5.660156 -22.988281 7.785156 -24.078125 10.484375 -24.078125 C 11.804688 -24.078125 12.960938 -23.8125 13.953125 -23.28125 C 14.953125 -22.75 15.863281 -21.859375 16.6875 -20.609375 L 16.84375 -20.609375 C 16.582031 -22.460938 16.453125 -24.316406 16.453125 -26.171875 L 16.453125 -32.484375 L 24.6875 -32.484375 L 24.6875 0 L 18.515625 0 L 16.765625 -2.984375 L 16.453125 -2.984375 C 15.046875 -0.710938 12.953125 0.421875 10.171875 0.421875 Z M 13.515625 -6.03125 C 14.816406 -6.03125 15.734375 -6.441406 16.265625 -7.265625 C 16.804688 -8.085938 17.097656 -9.351562 17.140625 -11.0625 L 17.140625 -11.71875 C 17.140625 -13.800781 16.835938 -15.285156 16.234375 -16.171875 C 15.640625 -17.054688 14.703125 -17.5 13.421875 -17.5 C 12.347656 -17.5 11.515625 -16.992188 10.921875 -15.984375 C 10.335938 -14.972656 10.046875 -13.535156 10.046875 -11.671875 C 10.046875 -9.835938 10.34375 -8.4375 10.9375 -7.46875 C 11.539062 -6.507812 12.398438 -6.03125 13.515625 -6.03125 Z M 13.515625 -6.03125 "/></g></g></g><g fill="rgb(100%, 100%, 100%)" fill-opacity="1"><g transform="translate(754.514246, 193.966339)"><g><path d="M 11.03125 0 L 2.859375 0 L 2.859375 -23.65625 L 11.03125 -23.65625 Z M 2.65625 -29.546875 C 2.65625 -30.773438 2.992188 -31.6875 3.671875 -32.28125 C 4.359375 -32.882812 5.457031 -33.1875 6.96875 -33.1875 C 8.488281 -33.1875 9.597656 -32.878906 10.296875 -32.265625 C 10.992188 -31.648438 11.34375 -30.742188 11.34375 -29.546875 C 11.34375 -27.148438 9.882812 -25.953125 6.96875 -25.953125 C 4.09375 -25.953125 2.65625 -27.148438 2.65625 -29.546875 Z M 2.65625 -29.546875 "/></g></g></g><g fill="rgb(100%, 100%, 100%)" fill-opacity="1"><g transform="translate(768.421098, 193.966339)"><g><path d="M 14.234375 0.421875 C 10.296875 0.421875 7.238281 -0.625 5.0625 -2.71875 C 2.882812 -4.820312 1.796875 -7.804688 1.796875 -11.671875 C 1.796875 -15.671875 2.800781 -18.738281 4.8125 -20.875 C 6.832031 -23.007812 9.71875 -24.078125 13.46875 -24.078125 C 17.03125 -24.078125 19.78125 -23.144531 21.71875 -21.28125 C 23.664062 -19.425781 24.640625 -16.753906 24.640625 -13.265625 L 24.640625 -9.625 L 10.046875 -9.625 C 10.097656 -8.300781 10.578125 -7.265625 11.484375 -6.515625 C 12.398438 -5.765625 13.644531 -5.390625 15.21875 -5.390625 C 16.65625 -5.390625 17.972656 -5.523438 19.171875 -5.796875 C 20.378906 -6.066406 21.6875 -6.53125 23.09375 -7.1875 L 23.09375 -1.3125 C 21.8125 -0.65625 20.488281 -0.203125 19.125 0.046875 C 17.757812 0.296875 16.128906 0.421875 14.234375 0.421875 Z M 13.765625 -18.515625 C 12.796875 -18.515625 11.988281 -18.210938 11.34375 -17.609375 C 10.695312 -17.003906 10.320312 -16.054688 10.21875 -14.765625 L 17.234375 -14.765625 C 17.203125 -15.898438 16.875 -16.804688 16.25 -17.484375 C 15.632812 -18.171875 14.804688 -18.515625 13.765625 -18.515625 Z M 13.765625 -18.515625 "/></g></g></g><g fill="rgb(100%, 100%, 100%)" fill-opacity="1"><g transform="translate(794.856659, 193.966339)"><g><path d="M 17.75 0 L 17.75 -12.90625 C 17.75 -14.476562 17.519531 -15.664062 17.0625 -16.46875 C 16.613281 -17.269531 15.890625 -17.671875 14.890625 -17.671875 C 13.515625 -17.671875 12.519531 -17.117188 11.90625 -16.015625 C 11.289062 -14.910156 10.984375 -13.023438 10.984375 -10.359375 L 10.984375 0 L 2.8125 0 L 2.8125 -23.65625 L 8.984375 -23.65625 L 10 -20.734375 L 10.484375 -20.734375 C 11.179688 -21.847656 12.144531 -22.679688 13.375 -23.234375 C 14.601562 -23.796875 16.019531 -24.078125 17.625 -24.078125 C 20.238281 -24.078125 22.273438 -23.316406 23.734375 -21.796875 C 25.191406 -20.285156 25.921875 -18.148438 25.921875 -15.390625 L 25.921875 0 Z M 17.75 0 "/></g></g></g><g fill="rgb(100%, 100%, 100%)" fill-opacity="1"><g transform="translate(823.505668, 193.966339)"><g><path d="M 14.40625 -6.03125 C 15.507812 -6.03125 16.828125 -6.300781 18.359375 -6.84375 L 18.359375 -0.890625 C 17.253906 -0.421875 16.203125 -0.0859375 15.203125 0.109375 C 14.210938 0.316406 13.050781 0.421875 11.71875 0.421875 C 8.96875 0.421875 6.988281 -0.25 5.78125 -1.59375 C 4.570312 -2.9375 3.96875 -5 3.96875 -7.78125 L 3.96875 -17.546875 L 1.109375 -17.546875 L 1.109375 -20.859375 L 4.734375 -23.421875 L 6.84375 -28.40625 L 12.1875 -28.40625 L 12.1875 -23.65625 L 18 -23.65625 L 18 -17.546875 L 12.1875 -17.546875 L 12.1875 -8.328125 C 12.1875 -6.796875 12.925781 -6.03125 14.40625 -6.03125 Z M 14.40625 -6.03125 "/></g></g></g><g fill="rgb(100%, 100%, 100%)" fill-opacity="1"><g transform="translate(843.175755, 193.966339)"><g><path d="M 14.234375 0.421875 C 10.296875 0.421875 7.238281 -0.625 5.0625 -2.71875 C 2.882812 -4.820312 1.796875 -7.804688 1.796875 -11.671875 C 1.796875 -15.671875 2.800781 -18.738281 4.8125 -20.875 C 6.832031 -23.007812 9.71875 -24.078125 13.46875 -24.078125 C 17.03125 -24.078125 19.78125 -23.144531 21.71875 -21.28125 C 23.664062 -19.425781 24.640625 -16.753906 24.640625 -13.265625 L 24.640625 -9.625 L 10.046875 -9.625 C 10.097656 -8.300781 10.578125 -7.265625 11.484375 -6.515625 C 12.398438 -5.765625 13.644531 -5.390625 15.21875 -5.390625 C 16.65625 -5.390625 17.972656 -5.523438 19.171875 -5.796875 C 20.378906 -6.066406 21.6875 -6.53125 23.09375 -7.1875 L 23.09375 -1.3125 C 21.8125 -0.65625 20.488281 -0.203125 19.125 0.046875 C 17.757812 0.296875 16.128906 0.421875 14.234375 0.421875 Z M 13.765625 -18.515625 C 12.796875 -18.515625 11.988281 -18.210938 11.34375 -17.609375 C 10.695312 -17.003906 10.320312 -16.054688 10.21875 -14.765625 L 17.234375 -14.765625 C 17.203125 -15.898438 16.875 -16.804688 16.25 -17.484375 C 15.632812 -18.171875 14.804688 -18.515625 13.765625 -18.515625 Z M 13.765625 -18.515625 "/></g></g></g><g fill="rgb(100%, 100%, 100%)" fill-opacity="1"><g transform="translate(869.611316, 193.966339)"><g><path d="M 21.09375 -7.265625 C 21.09375 -4.734375 20.226562 -2.816406 18.5 -1.515625 C 16.769531 -0.222656 14.289062 0.421875 11.0625 0.421875 C 9.3125 0.421875 7.785156 0.328125 6.484375 0.140625 C 5.191406 -0.046875 3.875 -0.390625 2.53125 -0.890625 L 2.53125 -7.4375 C 3.789062 -6.875 5.175781 -6.410156 6.6875 -6.046875 C 8.195312 -5.691406 9.546875 -5.515625 10.734375 -5.515625 C 12.503906 -5.515625 13.390625 -5.914062 13.390625 -6.71875 C 13.390625 -7.132812 13.140625 -7.503906 12.640625 -7.828125 C 12.148438 -8.160156 10.710938 -8.800781 8.328125 -9.75 C 6.160156 -10.644531 4.644531 -11.65625 3.78125 -12.78125 C 2.914062 -13.914062 2.484375 -15.359375 2.484375 -17.109375 C 2.484375 -19.304688 3.332031 -21.015625 5.03125 -22.234375 C 6.726562 -23.460938 9.128906 -24.078125 12.234375 -24.078125 C 13.796875 -24.078125 15.257812 -23.90625 16.625 -23.5625 C 18 -23.21875 19.425781 -22.722656 20.90625 -22.078125 L 18.6875 -16.8125 C 17.601562 -17.300781 16.453125 -17.710938 15.234375 -18.046875 C 14.023438 -18.390625 13.039062 -18.5625 12.28125 -18.5625 C 10.945312 -18.5625 10.28125 -18.234375 10.28125 -17.578125 C 10.28125 -17.179688 10.507812 -16.835938 10.96875 -16.546875 C 11.4375 -16.265625 12.785156 -15.6875 15.015625 -14.8125 C 16.671875 -14.125 17.90625 -13.453125 18.71875 -12.796875 C 19.53125 -12.140625 20.128906 -11.367188 20.515625 -10.484375 C 20.898438 -9.609375 21.09375 -8.535156 21.09375 -7.265625 Z M 21.09375 -7.265625 "/></g></g></g><g fill="rgb(100%, 100%, 100%)" fill-opacity="1"><g transform="translate(892.413537, 193.966339)"><g/></g></g><g fill="rgb(100%, 100%, 100%)" fill-opacity="1"><g transform="translate(903.522296, 193.966339)"><g><path d="M 29.21875 -15.90625 C 29.21875 -10.8125 27.8125 -6.882812 25 -4.125 C 22.195312 -1.375 18.253906 0 13.171875 0 L 3.296875 0 L 3.296875 -30.53125 L 13.859375 -30.53125 C 18.765625 -30.53125 22.550781 -29.273438 25.21875 -26.765625 C 27.882812 -24.265625 29.21875 -20.644531 29.21875 -15.90625 Z M 20.65625 -15.625 C 20.65625 -18.414062 20.097656 -20.488281 18.984375 -21.84375 C 17.878906 -23.195312 16.203125 -23.875 13.953125 -23.875 L 11.546875 -23.875 L 11.546875 -6.765625 L 13.390625 -6.765625 C 15.890625 -6.765625 17.722656 -7.488281 18.890625 -8.9375 C 20.066406 -10.394531 20.65625 -12.625 20.65625 -15.625 Z M 20.65625 -15.625 "/></g></g></g><g fill="rgb(100%, 100%, 100%)" fill-opacity="1"><g transform="translate(934.906747, 193.966339)"><g><path d="M 14.234375 0.421875 C 10.296875 0.421875 7.238281 -0.625 5.0625 -2.71875 C 2.882812 -4.820312 1.796875 -7.804688 1.796875 -11.671875 C 1.796875 -15.671875 2.800781 -18.738281 4.8125 -20.875 C 6.832031 -23.007812 9.71875 -24.078125 13.46875 -24.078125 C 17.03125 -24.078125 19.78125 -23.144531 21.71875 -21.28125 C 23.664062 -19.425781 24.640625 -16.753906 24.640625 -13.265625 L 24.640625 -9.625 L 10.046875 -9.625 C 10.097656 -8.300781 10.578125 -7.265625 11.484375 -6.515625 C 12.398438 -5.765625 13.644531 -5.390625 15.21875 -5.390625 C 16.65625 -5.390625 17.972656 -5.523438 19.171875 -5.796875 C 20.378906 -6.066406 21.6875 -6.53125 23.09375 -7.1875 L 23.09375 -1.3125 C 21.8125 -0.65625 20.488281 -0.203125 19.125 0.046875 C 17.757812 0.296875 16.128906 0.421875 14.234375 0.421875 Z M 13.765625 -18.515625 C 12.796875 -18.515625 11.988281 -18.210938 11.34375 -17.609375 C 10.695312 -17.003906 10.320312 -16.054688 10.21875 -14.765625 L 17.234375 -14.765625 C 17.203125 -15.898438 16.875 -16.804688 16.25 -17.484375 C 15.632812 -18.171875 14.804688 -18.515625 13.765625 -18.515625 Z M 13.765625 -18.515625 "/></g></g></g><g fill="rgb(100%, 100%, 100%)" fill-opacity="1"><g transform="translate(961.342308, 193.966339)"><g><path d="M 17.109375 -24.078125 C 17.816406 -24.078125 18.488281 -24.019531 19.125 -23.90625 L 19.59375 -23.828125 L 18.859375 -16.125 C 18.191406 -16.289062 17.265625 -16.375 16.078125 -16.375 C 14.296875 -16.375 13 -15.960938 12.1875 -15.140625 C 11.382812 -14.328125 10.984375 -13.15625 10.984375 -11.625 L 10.984375 0 L 2.8125 0 L 2.8125 -23.65625 L 8.890625 -23.65625 L 10.171875 -19.875 L 10.5625 -19.875 C 11.25 -21.132812 12.203125 -22.148438 13.421875 -22.921875 C 14.640625 -23.691406 15.867188 -24.078125 17.109375 -24.078125 Z M 17.109375 -24.078125 "/></g></g></g><g fill="rgb(100%, 100%, 100%)" fill-opacity="1"><g transform="translate(981.409145, 193.966339)"><g><path d="M 17.109375 -24.078125 C 17.816406 -24.078125 18.488281 -24.019531 19.125 -23.90625 L 19.59375 -23.828125 L 18.859375 -16.125 C 18.191406 -16.289062 17.265625 -16.375 16.078125 -16.375 C 14.296875 -16.375 13 -15.960938 12.1875 -15.140625 C 11.382812 -14.328125 10.984375 -13.15625 10.984375 -11.625 L 10.984375 0 L 2.8125 0 L 2.8125 -23.65625 L 8.890625 -23.65625 L 10.171875 -19.875 L 10.5625 -19.875 C 11.25 -21.132812 12.203125 -22.148438 13.421875 -22.921875 C 14.640625 -23.691406 15.867188 -24.078125 17.109375 -24.078125 Z M 17.109375 -24.078125 "/></g></g></g><g fill="rgb(100%, 100%, 100%)" fill-opacity="1"><g transform="translate(1001.475981, 193.966339)"><g><path d="M 14.234375 0.421875 C 10.296875 0.421875 7.238281 -0.625 5.0625 -2.71875 C 2.882812 -4.820312 1.796875 -7.804688 1.796875 -11.671875 C 1.796875 -15.671875 2.800781 -18.738281 4.8125 -20.875 C 6.832031 -23.007812 9.71875 -24.078125 13.46875 -24.078125 C 17.03125 -24.078125 19.78125 -23.144531 21.71875 -21.28125 C 23.664062 -19.425781 24.640625 -16.753906 24.640625 -13.265625 L 24.640625 -9.625 L 10.046875 -9.625 C 10.097656 -8.300781 10.578125 -7.265625 11.484375 -6.515625 C 12.398438 -5.765625 13.644531 -5.390625 15.21875 -5.390625 C 16.65625 -5.390625 17.972656 -5.523438 19.171875 -5.796875 C 20.378906 -6.066406 21.6875 -6.53125 23.09375 -7.1875 L 23.09375 -1.3125 C 21.8125 -0.65625 20.488281 -0.203125 19.125 0.046875 C 17.757812 0.296875 16.128906 0.421875 14.234375 0.421875 Z M 13.765625 -18.515625 C 12.796875 -18.515625 11.988281 -18.210938 11.34375 -17.609375 C 10.695312 -17.003906 10.320312 -16.054688 10.21875 -14.765625 L 17.234375 -14.765625 C 17.203125 -15.898438 16.875 -16.804688 16.25 -17.484375 C 15.632812 -18.171875 14.804688 -18.515625 13.765625 -18.515625 Z M 13.765625 -18.515625 "/></g></g></g><g fill="rgb(100%, 100%, 100%)" fill-opacity="1"><g transform="translate(1027.911542, 193.966339)"><g><path d="M 14.40625 -6.03125 C 15.507812 -6.03125 16.828125 -6.300781 18.359375 -6.84375 L 18.359375 -0.890625 C 17.253906 -0.421875 16.203125 -0.0859375 15.203125 0.109375 C 14.210938 0.316406 13.050781 0.421875 11.71875 0.421875 C 8.96875 0.421875 6.988281 -0.25 5.78125 -1.59375 C 4.570312 -2.9375 3.96875 -5 3.96875 -7.78125 L 3.96875 -17.546875 L 1.109375 -17.546875 L 1.109375 -20.859375 L 4.734375 -23.421875 L 6.84375 -28.40625 L 12.1875 -28.40625 L 12.1875 -23.65625 L 18 -23.65625 L 18 -17.546875 L 12.1875 -17.546875 L 12.1875 -8.328125 C 12.1875 -6.796875 12.925781 -6.03125 14.40625 -6.03125 Z M 14.40625 -6.03125 "/></g></g></g><g fill="rgb(100%, 100%, 100%)" fill-opacity="1"><g transform="translate(1047.581629, 193.966339)"><g><path d="M 14.234375 0.421875 C 10.296875 0.421875 7.238281 -0.625 5.0625 -2.71875 C 2.882812 -4.820312 1.796875 -7.804688 1.796875 -11.671875 C 1.796875 -15.671875 2.800781 -18.738281 4.8125 -20.875 C 6.832031 -23.007812 9.71875 -24.078125 13.46875 -24.078125 C 17.03125 -24.078125 19.78125 -23.144531 21.71875 -21.28125 C 23.664062 -19.425781 24.640625 -16.753906 24.640625 -13.265625 L 24.640625 -9.625 L 10.046875 -9.625 C 10.097656 -8.300781 10.578125 -7.265625 11.484375 -6.515625 C 12.398438 -5.765625 13.644531 -5.390625 15.21875 -5.390625 C 16.65625 -5.390625 17.972656 -5.523438 19.171875 -5.796875 C 20.378906 -6.066406 21.6875 -6.53125 23.09375 -7.1875 L 23.09375 -1.3125 C 21.8125 -0.65625 20.488281 -0.203125 19.125 0.046875 C 17.757812 0.296875 16.128906 0.421875 14.234375 0.421875 Z M 13.765625 -18.515625 C 12.796875 -18.515625 11.988281 -18.210938 11.34375 -17.609375 C 10.695312 -17.003906 10.320312 -16.054688 10.21875 -14.765625 L 17.234375 -14.765625 C 17.203125 -15.898438 16.875 -16.804688 16.25 -17.484375 C 15.632812 -18.171875 14.804688 -18.515625 13.765625 -18.515625 Z M 13.765625 -18.515625 "/></g></g></g><g fill="rgb(100%, 100%, 100%)" fill-opacity="1"><g transform="translate(1074.01719, 193.966339)"><g/></g></g><g fill="rgb(100%, 100%, 100%)" fill-opacity="1"><g transform="translate(1085.125949, 193.966339)"><g><path d="M 16.59375 0 L 10.359375 -21.984375 L 10.171875 -21.984375 C 10.460938 -18.242188 10.609375 -15.335938 10.609375 -13.265625 L 10.609375 0 L 3.296875 0 L 3.296875 -30.53125 L 14.28125 -30.53125 L 20.65625 -8.859375 L 20.8125 -8.859375 L 27.0625 -30.53125 L 38.0625 -30.53125 L 38.0625 0 L 30.484375 0 L 30.484375 -13.390625 C 30.484375 -14.078125 30.492188 -14.847656 30.515625 -15.703125 C 30.535156 -16.554688 30.628906 -18.640625 30.796875 -21.953125 L 30.609375 -21.953125 L 24.453125 0 Z M 16.59375 0 "/></g></g></g><g fill="rgb(100%, 100%, 100%)" fill-opacity="1"><g transform="translate(1126.470717, 193.966339)"><g><path d="M 19.671875 0 L 18.640625 -2.9375 L 18.171875 -2.9375 C 17.484375 -1.851562 16.53125 -1.019531 15.3125 -0.4375 C 14.09375 0.132812 12.664062 0.421875 11.03125 0.421875 C 8.425781 0.421875 6.398438 -0.332031 4.953125 -1.84375 C 3.503906 -3.351562 2.78125 -5.488281 2.78125 -8.25 L 2.78125 -23.65625 L 10.9375 -23.65625 L 10.9375 -10.734375 C 10.9375 -9.191406 11.15625 -8.019531 11.59375 -7.21875 C 12.03125 -6.425781 12.753906 -6.03125 13.765625 -6.03125 C 15.171875 -6.03125 16.171875 -6.582031 16.765625 -7.6875 C 17.367188 -8.800781 17.671875 -10.671875 17.671875 -13.296875 L 17.671875 -23.65625 L 25.828125 -23.65625 L 25.828125 0 Z M 19.671875 0 "/></g></g></g><g fill="rgb(100%, 100%, 100%)" fill-opacity="1"><g transform="translate(1155.119726, 193.966339)"><g><path d="M 11.03125 0 L 2.859375 0 L 2.859375 -23.65625 L 11.03125 -23.65625 Z M 2.65625 -29.546875 C 2.65625 -30.773438 2.992188 -31.6875 3.671875 -32.28125 C 4.359375 -32.882812 5.457031 -33.1875 6.96875 -33.1875 C 8.488281 -33.1875 9.597656 -32.878906 10.296875 -32.265625 C 10.992188 -31.648438 11.34375 -30.742188 11.34375 -29.546875 C 11.34375 -27.148438 9.882812 -25.953125 6.96875 -25.953125 C 4.09375 -25.953125 2.65625 -27.148438 2.65625 -29.546875 Z M 2.65625 -29.546875 "/></g></g></g><g fill="rgb(100%, 100%, 100%)" fill-opacity="1"><g transform="translate(1169.026578, 193.966339)"><g><path d="M 14.40625 -6.03125 C 15.507812 -6.03125 16.828125 -6.300781 18.359375 -6.84375 L 18.359375 -0.890625 C 17.253906 -0.421875 16.203125 -0.0859375 15.203125 0.109375 C 14.210938 0.316406 13.050781 0.421875 11.71875 0.421875 C 8.96875 0.421875 6.988281 -0.25 5.78125 -1.59375 C 4.570312 -2.9375 3.96875 -5 3.96875 -7.78125 L 3.96875 -17.546875 L 1.109375 -17.546875 L 1.109375 -20.859375 L 4.734375 -23.421875 L 6.84375 -28.40625 L 12.1875 -28.40625 L 12.1875 -23.65625 L 18 -23.65625 L 18 -17.546875 L 12.1875 -17.546875 L 12.1875 -8.328125 C 12.1875 -6.796875 12.925781 -6.03125 14.40625 -6.03125 Z M 14.40625 -6.03125 "/></g></g></g><g fill="rgb(100%, 100%, 100%)" fill-opacity="1"><g transform="translate(1188.696607, 193.966339)"><g><path d="M 25.40625 -11.875 C 25.40625 -8.007812 24.363281 -4.992188 22.28125 -2.828125 C 20.207031 -0.660156 17.296875 0.421875 13.546875 0.421875 C 9.960938 0.421875 7.109375 -0.679688 4.984375 -2.890625 C 2.859375 -5.109375 1.796875 -8.101562 1.796875 -11.875 C 1.796875 -15.738281 2.835938 -18.738281 4.921875 -20.875 C 7.003906 -23.007812 9.921875 -24.078125 13.671875 -24.078125 C 16.003906 -24.078125 18.0625 -23.582031 19.84375 -22.59375 C 21.625 -21.601562 22.992188 -20.1875 23.953125 -18.34375 C 24.921875 -16.5 25.40625 -14.34375 25.40625 -11.875 Z M 10.078125 -11.875 C 10.078125 -9.84375 10.347656 -8.296875 10.890625 -7.234375 C 11.441406 -6.171875 12.359375 -5.640625 13.640625 -5.640625 C 14.898438 -5.640625 15.789062 -6.171875 16.3125 -7.234375 C 16.84375 -8.296875 17.109375 -9.84375 17.109375 -11.875 C 17.109375 -13.894531 16.84375 -15.421875 16.3125 -16.453125 C 15.78125 -17.484375 14.875 -18 13.59375 -18 C 12.34375 -18 11.441406 -17.488281 10.890625 -16.46875 C 10.347656 -15.445312 10.078125 -13.914062 10.078125 -11.875 Z M 10.078125 -11.875 "/></g></g></g></svg>