<svg xmlns="http://www.w3.org/2000/svg" xmlns:xlink="http://www.w3.org/1999/xlink" width="900" zoomAndPan="magnify" viewBox="0 0 675 52.499999" height="70" preserveAspectRatio="xMidYMid meet" version="1.0"><defs><g><g id="id1"/></g></defs><g fill="rgb(100%, 100%, 100%)" fill-opacity="1"><g transform="translate(5.737774, 42.941075)"><g><path d="M 14 -5.578125 C 14 -4.441406 13.707031 -3.429688 13.125 -2.546875 C 12.550781 -1.660156 11.71875 -0.972656 10.625 -0.484375 C 9.539062 0.00390625 8.265625 0.25 6.796875 0.25 C 5.578125 0.25 4.550781 0.164062 3.71875 0 C 2.894531 -0.175781 2.03125 -0.476562 1.125 -0.90625 L 1.125 -5.328125 C 2.070312 -4.847656 3.054688 -4.46875 4.078125 -4.1875 C 5.109375 -3.914062 6.050781 -3.78125 6.90625 -3.78125 C 7.644531 -3.78125 8.1875 -3.90625 8.53125 -4.15625 C 8.875 -4.414062 9.046875 -4.75 9.046875 -5.15625 C 9.046875 -5.40625 8.972656 -5.625 8.828125 -5.8125 C 8.691406 -6 8.46875 -6.1875 8.15625 -6.375 C 7.851562 -6.570312 7.039062 -6.96875 5.71875 -7.5625 C 4.519531 -8.113281 3.617188 -8.644531 3.015625 -9.15625 C 2.421875 -9.664062 1.976562 -10.25 1.6875 -10.90625 C 1.394531 -11.570312 1.25 -12.359375 1.25 -13.265625 C 1.25 -14.953125 1.863281 -16.269531 3.09375 -17.21875 C 4.332031 -18.164062 6.03125 -18.640625 8.1875 -18.640625 C 10.09375 -18.640625 12.03125 -18.203125 14 -17.328125 L 12.484375 -13.484375 C 10.765625 -14.273438 9.28125 -14.671875 8.03125 -14.671875 C 7.382812 -14.671875 6.914062 -14.554688 6.625 -14.328125 C 6.332031 -14.109375 6.1875 -13.828125 6.1875 -13.484375 C 6.1875 -13.128906 6.375 -12.804688 6.75 -12.515625 C 7.125 -12.234375 8.132812 -11.71875 9.78125 -10.96875 C 11.363281 -10.25 12.460938 -9.476562 13.078125 -8.65625 C 13.691406 -7.84375 14 -6.816406 14 -5.578125 Z M 14 -5.578125 "/></g></g></g><g fill="rgb(100%, 100%, 100%)" fill-opacity="1"><g transform="translate(20.597602, 42.941075)"><g><path d="M 6.640625 0 L 1.71875 0 L 1.71875 -14.25 L 6.640625 -14.25 Z M 1.59375 -17.796875 C 1.59375 -18.523438 1.796875 -19.070312 2.203125 -19.4375 C 2.617188 -19.800781 3.285156 -19.984375 4.203125 -19.984375 C 5.109375 -19.984375 5.769531 -19.796875 6.1875 -19.421875 C 6.613281 -19.054688 6.828125 -18.515625 6.828125 -17.796875 C 6.828125 -16.347656 5.953125 -15.625 4.203125 -15.625 C 2.460938 -15.625 1.59375 -16.347656 1.59375 -17.796875 Z M 1.59375 -17.796875 "/></g></g></g><g fill="rgb(100%, 100%, 100%)" fill-opacity="1"><g transform="translate(28.970398, 42.941075)"><g><path d="M 19.1875 0 L 19.1875 -7.75 C 19.1875 -8.707031 19.050781 -9.425781 18.78125 -9.90625 C 18.519531 -10.394531 18.109375 -10.640625 17.546875 -10.640625 C 16.785156 -10.640625 16.226562 -10.316406 15.875 -9.671875 C 15.53125 -9.023438 15.359375 -8.015625 15.359375 -6.640625 L 15.359375 0 L 10.421875 0 L 10.421875 -7.75 C 10.421875 -8.707031 10.296875 -9.425781 10.046875 -9.90625 C 9.796875 -10.394531 9.390625 -10.640625 8.828125 -10.640625 C 8.054688 -10.640625 7.492188 -10.296875 7.140625 -9.609375 C 6.785156 -8.921875 6.609375 -7.796875 6.609375 -6.234375 L 6.609375 0 L 1.703125 0 L 1.703125 -14.25 L 5.40625 -14.25 L 6.015625 -12.484375 L 6.3125 -12.484375 C 6.6875 -13.140625 7.234375 -13.640625 7.953125 -13.984375 C 8.671875 -14.328125 9.484375 -14.5 10.390625 -14.5 C 12.453125 -14.5 13.894531 -13.875 14.71875 -12.625 L 15.109375 -12.625 C 15.515625 -13.207031 16.070312 -13.664062 16.78125 -14 C 17.5 -14.332031 18.289062 -14.5 19.15625 -14.5 C 20.84375 -14.5 22.085938 -14.066406 22.890625 -13.203125 C 23.703125 -12.335938 24.109375 -11.023438 24.109375 -9.265625 L 24.109375 0 Z M 19.1875 0 "/></g></g></g><g fill="rgb(100%, 100%, 100%)" fill-opacity="1"><g transform="translate(54.717374, 42.941075)"><g><path d="M 10.25 0.25 C 9.53125 0.25 8.882812 0.128906 8.3125 -0.109375 C 7.738281 -0.347656 7.171875 -0.773438 6.609375 -1.390625 L 6.390625 -1.390625 C 6.535156 -0.398438 6.609375 0.21875 6.609375 0.46875 L 6.609375 6.1875 L 1.703125 6.1875 L 1.703125 -14.25 L 5.703125 -14.25 L 6.390625 -12.4375 L 6.609375 -12.4375 C 7.523438 -13.8125 8.785156 -14.5 10.390625 -14.5 C 11.972656 -14.5 13.210938 -13.84375 14.109375 -12.53125 C 15.003906 -11.226562 15.453125 -9.4375 15.453125 -7.15625 C 15.453125 -4.851562 14.984375 -3.039062 14.046875 -1.71875 C 13.117188 -0.40625 11.851562 0.25 10.25 0.25 Z M 8.59375 -10.640625 C 7.875 -10.640625 7.367188 -10.378906 7.078125 -9.859375 C 6.796875 -9.347656 6.640625 -8.582031 6.609375 -7.5625 L 6.609375 -7.171875 C 6.609375 -5.953125 6.769531 -5.066406 7.09375 -4.515625 C 7.425781 -3.972656 7.945312 -3.703125 8.65625 -3.703125 C 9.28125 -3.703125 9.734375 -3.972656 10.015625 -4.515625 C 10.304688 -5.054688 10.453125 -5.953125 10.453125 -7.203125 C 10.453125 -8.429688 10.304688 -9.3125 10.015625 -9.84375 C 9.734375 -10.375 9.257812 -10.640625 8.59375 -10.640625 Z M 8.59375 -10.640625 "/></g></g></g><g fill="rgb(100%, 100%, 100%)" fill-opacity="1"><g transform="translate(71.27439, 42.941075)"><g><path d="M 6.609375 0 L 1.703125 0 L 1.703125 -19.5625 L 6.609375 -19.5625 Z M 6.609375 0 "/></g></g></g><g fill="rgb(100%, 100%, 100%)" fill-opacity="1"><g transform="translate(79.596899, 42.941075)"><g><path d="M 8.578125 0.25 C 6.203125 0.25 4.359375 -0.378906 3.046875 -1.640625 C 1.734375 -2.898438 1.078125 -4.695312 1.078125 -7.03125 C 1.078125 -9.4375 1.6875 -11.28125 2.90625 -12.5625 C 4.125 -13.851562 5.859375 -14.5 8.109375 -14.5 C 10.253906 -14.5 11.910156 -13.9375 13.078125 -12.8125 C 14.253906 -11.695312 14.84375 -10.085938 14.84375 -7.984375 L 14.84375 -5.796875 L 6.046875 -5.796875 C 6.078125 -5.003906 6.367188 -4.378906 6.921875 -3.921875 C 7.472656 -3.472656 8.222656 -3.25 9.171875 -3.25 C 10.035156 -3.25 10.828125 -3.328125 11.546875 -3.484375 C 12.273438 -3.648438 13.0625 -3.929688 13.90625 -4.328125 L 13.90625 -0.796875 C 13.132812 -0.398438 12.335938 -0.128906 11.515625 0.015625 C 10.691406 0.171875 9.710938 0.25 8.578125 0.25 Z M 8.28125 -11.15625 C 7.707031 -11.15625 7.222656 -10.972656 6.828125 -10.609375 C 6.441406 -10.242188 6.210938 -9.671875 6.140625 -8.890625 L 10.375 -8.890625 C 10.351562 -9.578125 10.15625 -10.125 9.78125 -10.53125 C 9.414062 -10.945312 8.914062 -11.15625 8.28125 -11.15625 Z M 8.28125 -11.15625 "/></g></g></g><g fill="rgb(100%, 100%, 100%)" fill-opacity="1"><g transform="translate(95.512754, 42.941075)"><g><path d="M 12.703125 -4.375 C 12.703125 -2.851562 12.179688 -1.703125 11.140625 -0.921875 C 10.097656 -0.140625 8.601562 0.25 6.65625 0.25 C 5.601562 0.25 4.6875 0.191406 3.90625 0.078125 C 3.125 -0.0351562 2.328125 -0.242188 1.515625 -0.546875 L 1.515625 -4.46875 C 2.285156 -4.132812 3.125 -3.859375 4.03125 -3.640625 C 4.9375 -3.421875 5.75 -3.3125 6.46875 -3.3125 C 7.53125 -3.3125 8.0625 -3.554688 8.0625 -4.046875 C 8.0625 -4.296875 7.910156 -4.519531 7.609375 -4.71875 C 7.316406 -4.914062 6.453125 -5.300781 5.015625 -5.875 C 3.710938 -6.40625 2.800781 -7.007812 2.28125 -7.6875 C 1.757812 -8.375 1.5 -9.242188 1.5 -10.296875 C 1.5 -11.617188 2.007812 -12.648438 3.03125 -13.390625 C 4.050781 -14.128906 5.5 -14.5 7.375 -14.5 C 8.3125 -14.5 9.191406 -14.394531 10.015625 -14.1875 C 10.835938 -13.976562 11.691406 -13.679688 12.578125 -13.296875 L 11.25 -10.125 C 10.59375 -10.414062 9.898438 -10.660156 9.171875 -10.859375 C 8.441406 -11.066406 7.847656 -11.171875 7.390625 -11.171875 C 6.585938 -11.171875 6.1875 -10.976562 6.1875 -10.59375 C 6.1875 -10.34375 6.328125 -10.128906 6.609375 -9.953125 C 6.890625 -9.785156 7.703125 -9.441406 9.046875 -8.921875 C 10.035156 -8.503906 10.773438 -8.097656 11.265625 -7.703125 C 11.753906 -7.304688 12.113281 -6.84375 12.34375 -6.3125 C 12.582031 -5.78125 12.703125 -5.132812 12.703125 -4.375 Z M 12.703125 -4.375 "/></g></g></g><g fill="rgb(100%, 100%, 100%)" fill-opacity="1"><g transform="translate(109.241122, 42.941075)"><g/></g></g><g fill="rgb(100%, 100%, 100%)" fill-opacity="1"><g transform="translate(115.929302, 42.941075)"><g><path d="M 12.3125 -18.375 L 17.859375 -18.375 L 11.84375 0 L 6 0 L 0 -18.375 L 5.578125 -18.375 L 8.078125 -9.0625 C 8.597656 -6.988281 8.882812 -5.546875 8.9375 -4.734375 C 9 -5.328125 9.117188 -6.0625 9.296875 -6.9375 C 9.472656 -7.820312 9.625 -8.515625 9.75 -9.015625 Z M 12.3125 -18.375 "/></g></g></g><g fill="rgb(100%, 100%, 100%)" fill-opacity="1"><g transform="translate(133.793781, 42.941075)"><g><path d="M 6.640625 0 L 1.71875 0 L 1.71875 -14.25 L 6.640625 -14.25 Z M 1.59375 -17.796875 C 1.59375 -18.523438 1.796875 -19.070312 2.203125 -19.4375 C 2.617188 -19.800781 3.285156 -19.984375 4.203125 -19.984375 C 5.109375 -19.984375 5.769531 -19.796875 6.1875 -19.421875 C 6.613281 -19.054688 6.828125 -18.515625 6.828125 -17.796875 C 6.828125 -16.347656 5.953125 -15.625 4.203125 -15.625 C 2.460938 -15.625 1.59375 -16.347656 1.59375 -17.796875 Z M 1.59375 -17.796875 "/></g></g></g><g fill="rgb(100%, 100%, 100%)" fill-opacity="1"><g transform="translate(142.166577, 42.941075)"><g><path d="M 8.671875 -3.640625 C 9.335938 -3.640625 10.128906 -3.800781 11.046875 -4.125 L 11.046875 -0.546875 C 10.390625 -0.253906 9.757812 -0.0507812 9.15625 0.0625 C 8.5625 0.1875 7.859375 0.25 7.046875 0.25 C 5.398438 0.25 4.210938 -0.148438 3.484375 -0.953125 C 2.753906 -1.765625 2.390625 -3.007812 2.390625 -4.6875 L 2.390625 -10.5625 L 0.671875 -10.5625 L 0.671875 -12.5625 L 2.859375 -14.109375 L 4.125 -17.09375 L 7.34375 -17.09375 L 7.34375 -14.25 L 10.84375 -14.25 L 10.84375 -10.5625 L 7.34375 -10.5625 L 7.34375 -5.015625 C 7.34375 -4.097656 7.785156 -3.640625 8.671875 -3.640625 Z M 8.671875 -3.640625 "/></g></g></g><g fill="rgb(100%, 100%, 100%)" fill-opacity="1"><g transform="translate(154.00918, 42.941075)"><g><path d="M 10.984375 0 L 10.046875 -1.890625 L 9.953125 -1.890625 C 9.285156 -1.066406 8.609375 -0.503906 7.921875 -0.203125 C 7.234375 0.0976562 6.34375 0.25 5.25 0.25 C 3.914062 0.25 2.863281 -0.148438 2.09375 -0.953125 C 1.320312 -1.753906 0.9375 -2.882812 0.9375 -4.34375 C 0.9375 -5.863281 1.460938 -6.992188 2.515625 -7.734375 C 3.566406 -8.484375 5.097656 -8.898438 7.109375 -8.984375 L 9.484375 -9.0625 L 9.484375 -9.265625 C 9.484375 -10.441406 8.90625 -11.03125 7.75 -11.03125 C 6.707031 -11.03125 5.382812 -10.675781 3.78125 -9.96875 L 2.359375 -13.21875 C 4.023438 -14.070312 6.125 -14.5 8.65625 -14.5 C 10.476562 -14.5 11.890625 -14.046875 12.890625 -13.140625 C 13.890625 -12.234375 14.390625 -10.96875 14.390625 -9.34375 L 14.390625 0 Z M 7.34375 -3.21875 C 7.9375 -3.21875 8.441406 -3.40625 8.859375 -3.78125 C 9.285156 -4.15625 9.5 -4.644531 9.5 -5.25 L 9.5 -6.359375 L 8.375 -6.3125 C 6.757812 -6.25 5.953125 -5.65625 5.953125 -4.53125 C 5.953125 -3.65625 6.414062 -3.21875 7.34375 -3.21875 Z M 7.34375 -3.21875 "/></g></g></g><g fill="rgb(100%, 100%, 100%)" fill-opacity="1"><g transform="translate(170.050753, 42.941075)"><g><path d="M 19.1875 0 L 19.1875 -7.75 C 19.1875 -8.707031 19.050781 -9.425781 18.78125 -9.90625 C 18.519531 -10.394531 18.109375 -10.640625 17.546875 -10.640625 C 16.785156 -10.640625 16.226562 -10.316406 15.875 -9.671875 C 15.53125 -9.023438 15.359375 -8.015625 15.359375 -6.640625 L 15.359375 0 L 10.421875 0 L 10.421875 -7.75 C 10.421875 -8.707031 10.296875 -9.425781 10.046875 -9.90625 C 9.796875 -10.394531 9.390625 -10.640625 8.828125 -10.640625 C 8.054688 -10.640625 7.492188 -10.296875 7.140625 -9.609375 C 6.785156 -8.921875 6.609375 -7.796875 6.609375 -6.234375 L 6.609375 0 L 1.703125 0 L 1.703125 -14.25 L 5.40625 -14.25 L 6.015625 -12.484375 L 6.3125 -12.484375 C 6.6875 -13.140625 7.234375 -13.640625 7.953125 -13.984375 C 8.671875 -14.328125 9.484375 -14.5 10.390625 -14.5 C 12.453125 -14.5 13.894531 -13.875 14.71875 -12.625 L 15.109375 -12.625 C 15.515625 -13.207031 16.070312 -13.664062 16.78125 -14 C 17.5 -14.332031 18.289062 -14.5 19.15625 -14.5 C 20.84375 -14.5 22.085938 -14.066406 22.890625 -13.203125 C 23.703125 -12.335938 24.109375 -11.023438 24.109375 -9.265625 L 24.109375 0 Z M 19.1875 0 "/></g></g></g><g fill="rgb(100%, 100%, 100%)" fill-opacity="1"><g transform="translate(195.79773, 42.941075)"><g><path d="M 6.640625 0 L 1.71875 0 L 1.71875 -14.25 L 6.640625 -14.25 Z M 1.59375 -17.796875 C 1.59375 -18.523438 1.796875 -19.070312 2.203125 -19.4375 C 2.617188 -19.800781 3.285156 -19.984375 4.203125 -19.984375 C 5.109375 -19.984375 5.769531 -19.796875 6.1875 -19.421875 C 6.613281 -19.054688 6.828125 -18.515625 6.828125 -17.796875 C 6.828125 -16.347656 5.953125 -15.625 4.203125 -15.625 C 2.460938 -15.625 1.59375 -16.347656 1.59375 -17.796875 Z M 1.59375 -17.796875 "/></g></g></g><g fill="rgb(100%, 100%, 100%)" fill-opacity="1"><g transform="translate(204.170526, 42.941075)"><g><path d="M 10.6875 0 L 10.6875 -7.765625 C 10.6875 -8.710938 10.550781 -9.425781 10.28125 -9.90625 C 10.007812 -10.394531 9.570312 -10.640625 8.96875 -10.640625 C 8.132812 -10.640625 7.53125 -10.304688 7.15625 -9.640625 C 6.789062 -8.984375 6.609375 -7.847656 6.609375 -6.234375 L 6.609375 0 L 1.703125 0 L 1.703125 -14.25 L 5.40625 -14.25 L 6.015625 -12.484375 L 6.3125 -12.484375 C 6.726562 -13.148438 7.304688 -13.648438 8.046875 -13.984375 C 8.796875 -14.328125 9.648438 -14.5 10.609375 -14.5 C 12.179688 -14.5 13.40625 -14.039062 14.28125 -13.125 C 15.164062 -12.207031 15.609375 -10.921875 15.609375 -9.265625 L 15.609375 0 Z M 10.6875 0 "/></g></g></g><g fill="rgb(100%, 100%, 100%)" fill-opacity="1"><g transform="translate(221.418989, 42.941075)"><g><path d="M 10.984375 0 L 10.046875 -1.890625 L 9.953125 -1.890625 C 9.285156 -1.066406 8.609375 -0.503906 7.921875 -0.203125 C 7.234375 0.0976562 6.34375 0.25 5.25 0.25 C 3.914062 0.25 2.863281 -0.148438 2.09375 -0.953125 C 1.320312 -1.753906 0.9375 -2.882812 0.9375 -4.34375 C 0.9375 -5.863281 1.460938 -6.992188 2.515625 -7.734375 C 3.566406 -8.484375 5.097656 -8.898438 7.109375 -8.984375 L 9.484375 -9.0625 L 9.484375 -9.265625 C 9.484375 -10.441406 8.90625 -11.03125 7.75 -11.03125 C 6.707031 -11.03125 5.382812 -10.675781 3.78125 -9.96875 L 2.359375 -13.21875 C 4.023438 -14.070312 6.125 -14.5 8.65625 -14.5 C 10.476562 -14.5 11.890625 -14.046875 12.890625 -13.140625 C 13.890625 -12.234375 14.390625 -10.96875 14.390625 -9.34375 L 14.390625 0 Z M 7.34375 -3.21875 C 7.9375 -3.21875 8.441406 -3.40625 8.859375 -3.78125 C 9.285156 -4.15625 9.5 -4.644531 9.5 -5.25 L 9.5 -6.359375 L 8.375 -6.3125 C 6.757812 -6.25 5.953125 -5.65625 5.953125 -4.53125 C 5.953125 -3.65625 6.414062 -3.21875 7.34375 -3.21875 Z M 7.34375 -3.21875 "/></g></g></g><g fill="rgb(100%, 100%, 100%)" fill-opacity="1"><g transform="translate(237.460562, 42.941075)"><g/></g></g><g fill="rgb(100%, 100%, 100%)" fill-opacity="1"><g transform="translate(244.148741, 42.941075)"><g><path d="M 6.125 0.25 C 5.113281 0.25 4.226562 -0.0351562 3.46875 -0.609375 C 2.707031 -1.191406 2.117188 -2.046875 1.703125 -3.171875 C 1.285156 -4.296875 1.078125 -5.609375 1.078125 -7.109375 C 1.078125 -9.421875 1.539062 -11.226562 2.46875 -12.53125 C 3.40625 -13.84375 4.6875 -14.5 6.3125 -14.5 C 7.101562 -14.5 7.796875 -14.335938 8.390625 -14.015625 C 8.992188 -13.703125 9.546875 -13.164062 10.046875 -12.40625 L 10.140625 -12.40625 C 9.984375 -13.519531 9.90625 -14.632812 9.90625 -15.75 L 9.90625 -19.5625 L 14.859375 -19.5625 L 14.859375 0 L 11.15625 0 L 10.09375 -1.796875 L 9.90625 -1.796875 C 9.0625 -0.429688 7.800781 0.25 6.125 0.25 Z M 8.140625 -3.640625 C 8.921875 -3.640625 9.472656 -3.882812 9.796875 -4.375 C 10.117188 -4.875 10.296875 -5.632812 10.328125 -6.65625 L 10.328125 -7.046875 C 10.328125 -8.304688 10.144531 -9.203125 9.78125 -9.734375 C 9.414062 -10.265625 8.847656 -10.53125 8.078125 -10.53125 C 7.429688 -10.53125 6.929688 -10.226562 6.578125 -9.625 C 6.222656 -9.019531 6.046875 -8.15625 6.046875 -7.03125 C 6.046875 -5.925781 6.222656 -5.082031 6.578125 -4.5 C 6.941406 -3.925781 7.460938 -3.640625 8.140625 -3.640625 Z M 8.140625 -3.640625 "/></g></g></g><g fill="rgb(100%, 100%, 100%)" fill-opacity="1"><g transform="translate(260.705745, 42.941075)"><g><path d="M 8.578125 0.25 C 6.203125 0.25 4.359375 -0.378906 3.046875 -1.640625 C 1.734375 -2.898438 1.078125 -4.695312 1.078125 -7.03125 C 1.078125 -9.4375 1.6875 -11.28125 2.90625 -12.5625 C 4.125 -13.851562 5.859375 -14.5 8.109375 -14.5 C 10.253906 -14.5 11.910156 -13.9375 13.078125 -12.8125 C 14.253906 -11.695312 14.84375 -10.085938 14.84375 -7.984375 L 14.84375 -5.796875 L 6.046875 -5.796875 C 6.078125 -5.003906 6.367188 -4.378906 6.921875 -3.921875 C 7.472656 -3.472656 8.222656 -3.25 9.171875 -3.25 C 10.035156 -3.25 10.828125 -3.328125 11.546875 -3.484375 C 12.273438 -3.648438 13.0625 -3.929688 13.90625 -4.328125 L 13.90625 -0.796875 C 13.132812 -0.398438 12.335938 -0.128906 11.515625 0.015625 C 10.691406 0.171875 9.710938 0.25 8.578125 0.25 Z M 8.28125 -11.15625 C 7.707031 -11.15625 7.222656 -10.972656 6.828125 -10.609375 C 6.441406 -10.242188 6.210938 -9.671875 6.140625 -8.890625 L 10.375 -8.890625 C 10.351562 -9.578125 10.15625 -10.125 9.78125 -10.53125 C 9.414062 -10.945312 8.914062 -11.15625 8.28125 -11.15625 Z M 8.28125 -11.15625 "/></g></g></g><g fill="rgb(100%, 100%, 100%)" fill-opacity="1"><g transform="translate(276.621601, 42.941075)"><g/></g></g><g fill="rgb(100%, 100%, 100%)" fill-opacity="1"><g transform="translate(283.30978, 42.941075)"><g><path d="M 0.875 -7.765625 C 0.875 -10.335938 1.238281 -12.414062 1.96875 -14 C 2.707031 -15.59375 3.789062 -16.765625 5.21875 -17.515625 C 6.65625 -18.265625 8.421875 -18.640625 10.515625 -18.640625 C 11.253906 -18.640625 12.125 -18.570312 13.125 -18.4375 L 13.125 -14.546875 C 12.289062 -14.703125 11.378906 -14.78125 10.390625 -14.78125 C 8.734375 -14.78125 7.5 -14.414062 6.6875 -13.6875 C 5.875 -12.957031 5.429688 -11.769531 5.359375 -10.125 L 5.5 -10.125 C 6.257812 -11.550781 7.472656 -12.265625 9.140625 -12.265625 C 10.773438 -12.265625 12.039062 -11.738281 12.9375 -10.6875 C 13.84375 -9.632812 14.296875 -8.164062 14.296875 -6.28125 C 14.296875 -4.257812 13.722656 -2.664062 12.578125 -1.5 C 11.441406 -0.332031 9.851562 0.25 7.8125 0.25 C 5.632812 0.25 3.929688 -0.453125 2.703125 -1.859375 C 1.484375 -3.265625 0.875 -5.234375 0.875 -7.765625 Z M 7.6875 -3.6875 C 8.21875 -3.6875 8.648438 -3.882812 8.984375 -4.28125 C 9.316406 -4.675781 9.484375 -5.3125 9.484375 -6.1875 C 9.484375 -7.675781 8.90625 -8.421875 7.75 -8.421875 C 7.175781 -8.421875 6.710938 -8.226562 6.359375 -7.84375 C 6.003906 -7.457031 5.828125 -6.988281 5.828125 -6.4375 C 5.828125 -5.632812 6 -4.972656 6.34375 -4.453125 C 6.6875 -3.941406 7.132812 -3.6875 7.6875 -3.6875 Z M 7.6875 -3.6875 "/></g></g></g><g fill="rgb(100%, 100%, 100%)" fill-opacity="1"><g transform="translate(298.395899, 42.941075)"><g/></g></g><g fill="rgb(100%, 100%, 100%)" fill-opacity="1"><g transform="translate(305.084078, 42.941075)"><g><path d="M 1.984375 0 L 1.984375 -18.375 L 6.984375 -18.375 L 6.984375 0 Z M 1.984375 0 "/></g></g></g><g fill="rgb(100%, 100%, 100%)" fill-opacity="1"><g transform="translate(314.047759, 42.941075)"><g><path d="M 10.6875 0 L 10.6875 -7.765625 C 10.6875 -8.710938 10.550781 -9.425781 10.28125 -9.90625 C 10.007812 -10.394531 9.570312 -10.640625 8.96875 -10.640625 C 8.132812 -10.640625 7.53125 -10.304688 7.15625 -9.640625 C 6.789062 -8.984375 6.609375 -7.847656 6.609375 -6.234375 L 6.609375 0 L 1.703125 0 L 1.703125 -14.25 L 5.40625 -14.25 L 6.015625 -12.484375 L 6.3125 -12.484375 C 6.726562 -13.148438 7.304688 -13.648438 8.046875 -13.984375 C 8.796875 -14.328125 9.648438 -14.5 10.609375 -14.5 C 12.179688 -14.5 13.40625 -14.039062 14.28125 -13.125 C 15.164062 -12.207031 15.609375 -10.921875 15.609375 -9.265625 L 15.609375 0 Z M 10.6875 0 "/></g></g></g><g fill="rgb(100%, 100%, 100%)" fill-opacity="1"><g transform="translate(331.296221, 42.941075)"><g><path d="M 15.140625 -14.25 L 15.140625 -11.875 L 13.1875 -11.15625 C 13.457031 -10.664062 13.59375 -10.097656 13.59375 -9.453125 C 13.59375 -7.921875 13.050781 -6.726562 11.96875 -5.875 C 10.894531 -5.03125 9.289062 -4.609375 7.15625 -4.609375 C 6.625 -4.609375 6.203125 -4.644531 5.890625 -4.71875 C 5.773438 -4.5 5.71875 -4.289062 5.71875 -4.09375 C 5.71875 -3.851562 5.914062 -3.664062 6.3125 -3.53125 C 6.707031 -3.40625 7.222656 -3.34375 7.859375 -3.34375 L 10.21875 -3.34375 C 13.414062 -3.34375 15.015625 -2 15.015625 0.6875 C 15.015625 2.425781 14.273438 3.773438 12.796875 4.734375 C 11.316406 5.703125 9.238281 6.1875 6.5625 6.1875 C 4.539062 6.1875 2.984375 5.847656 1.890625 5.171875 C 0.796875 4.492188 0.25 3.523438 0.25 2.265625 C 0.25 0.554688 1.304688 -0.539062 3.421875 -1.03125 C 2.984375 -1.21875 2.601562 -1.515625 2.28125 -1.921875 C 1.957031 -2.335938 1.796875 -2.742188 1.796875 -3.140625 C 1.796875 -3.585938 1.914062 -3.976562 2.15625 -4.3125 C 2.40625 -4.65625 2.914062 -5.0625 3.6875 -5.53125 C 2.945312 -5.851562 2.363281 -6.363281 1.9375 -7.0625 C 1.519531 -7.757812 1.3125 -8.609375 1.3125 -9.609375 C 1.3125 -11.160156 1.835938 -12.363281 2.890625 -13.21875 C 3.941406 -14.070312 5.453125 -14.5 7.421875 -14.5 C 7.679688 -14.5 8.128906 -14.46875 8.765625 -14.40625 C 9.398438 -14.351562 9.867188 -14.300781 10.171875 -14.25 Z M 4.40625 1.765625 C 4.40625 2.171875 4.617188 2.5 5.046875 2.75 C 5.484375 3 6.066406 3.125 6.796875 3.125 C 7.992188 3.125 8.945312 2.972656 9.65625 2.671875 C 10.375 2.367188 10.734375 1.984375 10.734375 1.515625 C 10.734375 1.140625 10.515625 0.875 10.078125 0.71875 C 9.648438 0.5625 9.023438 0.484375 8.203125 0.484375 L 6.28125 0.484375 C 5.757812 0.484375 5.316406 0.609375 4.953125 0.859375 C 4.585938 1.109375 4.40625 1.410156 4.40625 1.765625 Z M 5.953125 -9.578125 C 5.953125 -8.117188 6.457031 -7.390625 7.46875 -7.390625 C 7.9375 -7.390625 8.296875 -7.566406 8.546875 -7.921875 C 8.804688 -8.285156 8.9375 -8.832031 8.9375 -9.5625 C 8.9375 -11.03125 8.445312 -11.765625 7.46875 -11.765625 C 6.457031 -11.765625 5.953125 -11.035156 5.953125 -9.578125 Z M 5.953125 -9.578125 "/></g></g></g><g fill="rgb(100%, 100%, 100%)" fill-opacity="1"><g transform="translate(346.897771, 42.941075)"><g><path d="M 10.296875 -14.5 C 10.722656 -14.5 11.128906 -14.460938 11.515625 -14.390625 L 11.796875 -14.34375 L 11.359375 -9.703125 C 10.953125 -9.804688 10.394531 -9.859375 9.6875 -9.859375 C 8.613281 -9.859375 7.832031 -9.613281 7.34375 -9.125 C 6.851562 -8.632812 6.609375 -7.925781 6.609375 -7 L 6.609375 0 L 1.703125 0 L 1.703125 -14.25 L 5.359375 -14.25 L 6.125 -11.96875 L 6.359375 -11.96875 C 6.773438 -12.71875 7.347656 -13.328125 8.078125 -13.796875 C 8.804688 -14.265625 9.546875 -14.5 10.296875 -14.5 Z M 10.296875 -14.5 "/></g></g></g><g fill="rgb(100%, 100%, 100%)" fill-opacity="1"><g transform="translate(358.979227, 42.941075)"><g><path d="M 8.578125 0.25 C 6.203125 0.25 4.359375 -0.378906 3.046875 -1.640625 C 1.734375 -2.898438 1.078125 -4.695312 1.078125 -7.03125 C 1.078125 -9.4375 1.6875 -11.28125 2.90625 -12.5625 C 4.125 -13.851562 5.859375 -14.5 8.109375 -14.5 C 10.253906 -14.5 11.910156 -13.9375 13.078125 -12.8125 C 14.253906 -11.695312 14.84375 -10.085938 14.84375 -7.984375 L 14.84375 -5.796875 L 6.046875 -5.796875 C 6.078125 -5.003906 6.367188 -4.378906 6.921875 -3.921875 C 7.472656 -3.472656 8.222656 -3.25 9.171875 -3.25 C 10.035156 -3.25 10.828125 -3.328125 11.546875 -3.484375 C 12.273438 -3.648438 13.0625 -3.929688 13.90625 -4.328125 L 13.90625 -0.796875 C 13.132812 -0.398438 12.335938 -0.128906 11.515625 0.015625 C 10.691406 0.171875 9.710938 0.25 8.578125 0.25 Z M 8.28125 -11.15625 C 7.707031 -11.15625 7.222656 -10.972656 6.828125 -10.609375 C 6.441406 -10.242188 6.210938 -9.671875 6.140625 -8.890625 L 10.375 -8.890625 C 10.351562 -9.578125 10.15625 -10.125 9.78125 -10.53125 C 9.414062 -10.945312 8.914062 -11.15625 8.28125 -11.15625 Z M 8.28125 -11.15625 "/></g></g></g><g fill="rgb(100%, 100%, 100%)" fill-opacity="1"><g transform="translate(374.895082, 42.941075)"><g><path d="M 6.125 0.25 C 5.113281 0.25 4.226562 -0.0351562 3.46875 -0.609375 C 2.707031 -1.191406 2.117188 -2.046875 1.703125 -3.171875 C 1.285156 -4.296875 1.078125 -5.609375 1.078125 -7.109375 C 1.078125 -9.421875 1.539062 -11.226562 2.46875 -12.53125 C 3.40625 -13.84375 4.6875 -14.5 6.3125 -14.5 C 7.101562 -14.5 7.796875 -14.335938 8.390625 -14.015625 C 8.992188 -13.703125 9.546875 -13.164062 10.046875 -12.40625 L 10.140625 -12.40625 C 9.984375 -13.519531 9.90625 -14.632812 9.90625 -15.75 L 9.90625 -19.5625 L 14.859375 -19.5625 L 14.859375 0 L 11.15625 0 L 10.09375 -1.796875 L 9.90625 -1.796875 C 9.0625 -0.429688 7.800781 0.25 6.125 0.25 Z M 8.140625 -3.640625 C 8.921875 -3.640625 9.472656 -3.882812 9.796875 -4.375 C 10.117188 -4.875 10.296875 -5.632812 10.328125 -6.65625 L 10.328125 -7.046875 C 10.328125 -8.304688 10.144531 -9.203125 9.78125 -9.734375 C 9.414062 -10.265625 8.847656 -10.53125 8.078125 -10.53125 C 7.429688 -10.53125 6.929688 -10.226562 6.578125 -9.625 C 6.222656 -9.019531 6.046875 -8.15625 6.046875 -7.03125 C 6.046875 -5.925781 6.222656 -5.082031 6.578125 -4.5 C 6.941406 -3.925781 7.460938 -3.640625 8.140625 -3.640625 Z M 8.140625 -3.640625 "/></g></g></g><g fill="rgb(100%, 100%, 100%)" fill-opacity="1"><g transform="translate(391.452109, 42.941075)"><g><path d="M 6.640625 0 L 1.71875 0 L 1.71875 -14.25 L 6.640625 -14.25 Z M 1.59375 -17.796875 C 1.59375 -18.523438 1.796875 -19.070312 2.203125 -19.4375 C 2.617188 -19.800781 3.285156 -19.984375 4.203125 -19.984375 C 5.109375 -19.984375 5.769531 -19.796875 6.1875 -19.421875 C 6.613281 -19.054688 6.828125 -18.515625 6.828125 -17.796875 C 6.828125 -16.347656 5.953125 -15.625 4.203125 -15.625 C 2.460938 -15.625 1.59375 -16.347656 1.59375 -17.796875 Z M 1.59375 -17.796875 "/></g></g></g><g fill="rgb(100%, 100%, 100%)" fill-opacity="1"><g transform="translate(399.824928, 42.941075)"><g><path d="M 8.578125 0.25 C 6.203125 0.25 4.359375 -0.378906 3.046875 -1.640625 C 1.734375 -2.898438 1.078125 -4.695312 1.078125 -7.03125 C 1.078125 -9.4375 1.6875 -11.28125 2.90625 -12.5625 C 4.125 -13.851562 5.859375 -14.5 8.109375 -14.5 C 10.253906 -14.5 11.910156 -13.9375 13.078125 -12.8125 C 14.253906 -11.695312 14.84375 -10.085938 14.84375 -7.984375 L 14.84375 -5.796875 L 6.046875 -5.796875 C 6.078125 -5.003906 6.367188 -4.378906 6.921875 -3.921875 C 7.472656 -3.472656 8.222656 -3.25 9.171875 -3.25 C 10.035156 -3.25 10.828125 -3.328125 11.546875 -3.484375 C 12.273438 -3.648438 13.0625 -3.929688 13.90625 -4.328125 L 13.90625 -0.796875 C 13.132812 -0.398438 12.335938 -0.128906 11.515625 0.015625 C 10.691406 0.171875 9.710938 0.25 8.578125 0.25 Z M 8.28125 -11.15625 C 7.707031 -11.15625 7.222656 -10.972656 6.828125 -10.609375 C 6.441406 -10.242188 6.210938 -9.671875 6.140625 -8.890625 L 10.375 -8.890625 C 10.351562 -9.578125 10.15625 -10.125 9.78125 -10.53125 C 9.414062 -10.945312 8.914062 -11.15625 8.28125 -11.15625 Z M 8.28125 -11.15625 "/></g></g></g><g fill="rgb(100%, 100%, 100%)" fill-opacity="1"><g transform="translate(415.740761, 42.941075)"><g><path d="M 10.6875 0 L 10.6875 -7.765625 C 10.6875 -8.710938 10.550781 -9.425781 10.28125 -9.90625 C 10.007812 -10.394531 9.570312 -10.640625 8.96875 -10.640625 C 8.132812 -10.640625 7.53125 -10.304688 7.15625 -9.640625 C 6.789062 -8.984375 6.609375 -7.847656 6.609375 -6.234375 L 6.609375 0 L 1.703125 0 L 1.703125 -14.25 L 5.40625 -14.25 L 6.015625 -12.484375 L 6.3125 -12.484375 C 6.726562 -13.148438 7.304688 -13.648438 8.046875 -13.984375 C 8.796875 -14.328125 9.648438 -14.5 10.609375 -14.5 C 12.179688 -14.5 13.40625 -14.039062 14.28125 -13.125 C 15.164062 -12.207031 15.609375 -10.921875 15.609375 -9.265625 L 15.609375 0 Z M 10.6875 0 "/></g></g></g><g fill="rgb(100%, 100%, 100%)" fill-opacity="1"><g transform="translate(432.989223, 42.941075)"><g><path d="M 8.671875 -3.640625 C 9.335938 -3.640625 10.128906 -3.800781 11.046875 -4.125 L 11.046875 -0.546875 C 10.390625 -0.253906 9.757812 -0.0507812 9.15625 0.0625 C 8.5625 0.1875 7.859375 0.25 7.046875 0.25 C 5.398438 0.25 4.210938 -0.148438 3.484375 -0.953125 C 2.753906 -1.765625 2.390625 -3.007812 2.390625 -4.6875 L 2.390625 -10.5625 L 0.671875 -10.5625 L 0.671875 -12.5625 L 2.859375 -14.109375 L 4.125 -17.09375 L 7.34375 -17.09375 L 7.34375 -14.25 L 10.84375 -14.25 L 10.84375 -10.5625 L 7.34375 -10.5625 L 7.34375 -5.015625 C 7.34375 -4.097656 7.785156 -3.640625 8.671875 -3.640625 Z M 8.671875 -3.640625 "/></g></g></g><g fill="rgb(100%, 100%, 100%)" fill-opacity="1"><g transform="translate(444.831804, 42.941075)"><g><path d="M 8.578125 0.25 C 6.203125 0.25 4.359375 -0.378906 3.046875 -1.640625 C 1.734375 -2.898438 1.078125 -4.695312 1.078125 -7.03125 C 1.078125 -9.4375 1.6875 -11.28125 2.90625 -12.5625 C 4.125 -13.851562 5.859375 -14.5 8.109375 -14.5 C 10.253906 -14.5 11.910156 -13.9375 13.078125 -12.8125 C 14.253906 -11.695312 14.84375 -10.085938 14.84375 -7.984375 L 14.84375 -5.796875 L 6.046875 -5.796875 C 6.078125 -5.003906 6.367188 -4.378906 6.921875 -3.921875 C 7.472656 -3.472656 8.222656 -3.25 9.171875 -3.25 C 10.035156 -3.25 10.828125 -3.328125 11.546875 -3.484375 C 12.273438 -3.648438 13.0625 -3.929688 13.90625 -4.328125 L 13.90625 -0.796875 C 13.132812 -0.398438 12.335938 -0.128906 11.515625 0.015625 C 10.691406 0.171875 9.710938 0.25 8.578125 0.25 Z M 8.28125 -11.15625 C 7.707031 -11.15625 7.222656 -10.972656 6.828125 -10.609375 C 6.441406 -10.242188 6.210938 -9.671875 6.140625 -8.890625 L 10.375 -8.890625 C 10.351562 -9.578125 10.15625 -10.125 9.78125 -10.53125 C 9.414062 -10.945312 8.914062 -11.15625 8.28125 -11.15625 Z M 8.28125 -11.15625 "/></g></g></g><g fill="rgb(100%, 100%, 100%)" fill-opacity="1"><g transform="translate(460.747637, 42.941075)"><g><path d="M 12.703125 -4.375 C 12.703125 -2.851562 12.179688 -1.703125 11.140625 -0.921875 C 10.097656 -0.140625 8.601562 0.25 6.65625 0.25 C 5.601562 0.25 4.6875 0.191406 3.90625 0.078125 C 3.125 -0.0351562 2.328125 -0.242188 1.515625 -0.546875 L 1.515625 -4.46875 C 2.285156 -4.132812 3.125 -3.859375 4.03125 -3.640625 C 4.9375 -3.421875 5.75 -3.3125 6.46875 -3.3125 C 7.53125 -3.3125 8.0625 -3.554688 8.0625 -4.046875 C 8.0625 -4.296875 7.910156 -4.519531 7.609375 -4.71875 C 7.316406 -4.914062 6.453125 -5.300781 5.015625 -5.875 C 3.710938 -6.40625 2.800781 -7.007812 2.28125 -7.6875 C 1.757812 -8.375 1.5 -9.242188 1.5 -10.296875 C 1.5 -11.617188 2.007812 -12.648438 3.03125 -13.390625 C 4.050781 -14.128906 5.5 -14.5 7.375 -14.5 C 8.3125 -14.5 9.191406 -14.394531 10.015625 -14.1875 C 10.835938 -13.976562 11.691406 -13.679688 12.578125 -13.296875 L 11.25 -10.125 C 10.59375 -10.414062 9.898438 -10.660156 9.171875 -10.859375 C 8.441406 -11.066406 7.847656 -11.171875 7.390625 -11.171875 C 6.585938 -11.171875 6.1875 -10.976562 6.1875 -10.59375 C 6.1875 -10.34375 6.328125 -10.128906 6.609375 -9.953125 C 6.890625 -9.785156 7.703125 -9.441406 9.046875 -8.921875 C 10.035156 -8.503906 10.773438 -8.097656 11.265625 -7.703125 C 11.753906 -7.304688 12.113281 -6.84375 12.34375 -6.3125 C 12.582031 -5.78125 12.703125 -5.132812 12.703125 -4.375 Z M 12.703125 -4.375 "/></g></g></g><g fill="rgb(100%, 100%, 100%)" fill-opacity="1"><g transform="translate(474.476006, 42.941075)"><g/></g></g><g fill="rgb(100%, 100%, 100%)" fill-opacity="1"><g transform="translate(481.164185, 42.941075)"><g><path d="M 17.59375 -9.578125 C 17.59375 -6.515625 16.742188 -4.148438 15.046875 -2.484375 C 13.359375 -0.828125 10.988281 0 7.9375 0 L 1.984375 0 L 1.984375 -18.375 L 8.34375 -18.375 C 11.300781 -18.375 13.582031 -17.617188 15.1875 -16.109375 C 16.789062 -14.609375 17.59375 -12.429688 17.59375 -9.578125 Z M 12.4375 -9.40625 C 12.4375 -11.09375 12.101562 -12.34375 11.4375 -13.15625 C 10.769531 -13.96875 9.757812 -14.375 8.40625 -14.375 L 6.953125 -14.375 L 6.953125 -4.078125 L 8.0625 -4.078125 C 9.570312 -4.078125 10.675781 -4.515625 11.375 -5.390625 C 12.082031 -6.265625 12.4375 -7.601562 12.4375 -9.40625 Z M 12.4375 -9.40625 "/></g></g></g><g fill="rgb(100%, 100%, 100%)" fill-opacity="1"><g transform="translate(500.05956, 42.941075)"><g><path d="M 8.578125 0.25 C 6.203125 0.25 4.359375 -0.378906 3.046875 -1.640625 C 1.734375 -2.898438 1.078125 -4.695312 1.078125 -7.03125 C 1.078125 -9.4375 1.6875 -11.28125 2.90625 -12.5625 C 4.125 -13.851562 5.859375 -14.5 8.109375 -14.5 C 10.253906 -14.5 11.910156 -13.9375 13.078125 -12.8125 C 14.253906 -11.695312 14.84375 -10.085938 14.84375 -7.984375 L 14.84375 -5.796875 L 6.046875 -5.796875 C 6.078125 -5.003906 6.367188 -4.378906 6.921875 -3.921875 C 7.472656 -3.472656 8.222656 -3.25 9.171875 -3.25 C 10.035156 -3.25 10.828125 -3.328125 11.546875 -3.484375 C 12.273438 -3.648438 13.0625 -3.929688 13.90625 -4.328125 L 13.90625 -0.796875 C 13.132812 -0.398438 12.335938 -0.128906 11.515625 0.015625 C 10.691406 0.171875 9.710938 0.25 8.578125 0.25 Z M 8.28125 -11.15625 C 7.707031 -11.15625 7.222656 -10.972656 6.828125 -10.609375 C 6.441406 -10.242188 6.210938 -9.671875 6.140625 -8.890625 L 10.375 -8.890625 C 10.351562 -9.578125 10.15625 -10.125 9.78125 -10.53125 C 9.414062 -10.945312 8.914062 -11.15625 8.28125 -11.15625 Z M 8.28125 -11.15625 "/></g></g></g><g fill="rgb(100%, 100%, 100%)" fill-opacity="1"><g transform="translate(515.975439, 42.941075)"><g><path d="M 10.296875 -14.5 C 10.722656 -14.5 11.128906 -14.460938 11.515625 -14.390625 L 11.796875 -14.34375 L 11.359375 -9.703125 C 10.953125 -9.804688 10.394531 -9.859375 9.6875 -9.859375 C 8.613281 -9.859375 7.832031 -9.613281 7.34375 -9.125 C 6.851562 -8.632812 6.609375 -7.925781 6.609375 -7 L 6.609375 0 L 1.703125 0 L 1.703125 -14.25 L 5.359375 -14.25 L 6.125 -11.96875 L 6.359375 -11.96875 C 6.773438 -12.71875 7.347656 -13.328125 8.078125 -13.796875 C 8.804688 -14.265625 9.546875 -14.5 10.296875 -14.5 Z M 10.296875 -14.5 "/></g></g></g><g fill="rgb(100%, 100%, 100%)" fill-opacity="1"><g transform="translate(528.056894, 42.941075)"><g><path d="M 10.296875 -14.5 C 10.722656 -14.5 11.128906 -14.460938 11.515625 -14.390625 L 11.796875 -14.34375 L 11.359375 -9.703125 C 10.953125 -9.804688 10.394531 -9.859375 9.6875 -9.859375 C 8.613281 -9.859375 7.832031 -9.613281 7.34375 -9.125 C 6.851562 -8.632812 6.609375 -7.925781 6.609375 -7 L 6.609375 0 L 1.703125 0 L 1.703125 -14.25 L 5.359375 -14.25 L 6.125 -11.96875 L 6.359375 -11.96875 C 6.773438 -12.71875 7.347656 -13.328125 8.078125 -13.796875 C 8.804688 -14.265625 9.546875 -14.5 10.296875 -14.5 Z M 10.296875 -14.5 "/></g></g></g><g fill="rgb(100%, 100%, 100%)" fill-opacity="1"><g transform="translate(540.13835, 42.941075)"><g><path d="M 8.578125 0.25 C 6.203125 0.25 4.359375 -0.378906 3.046875 -1.640625 C 1.734375 -2.898438 1.078125 -4.695312 1.078125 -7.03125 C 1.078125 -9.4375 1.6875 -11.28125 2.90625 -12.5625 C 4.125 -13.851562 5.859375 -14.5 8.109375 -14.5 C 10.253906 -14.5 11.910156 -13.9375 13.078125 -12.8125 C 14.253906 -11.695312 14.84375 -10.085938 14.84375 -7.984375 L 14.84375 -5.796875 L 6.046875 -5.796875 C 6.078125 -5.003906 6.367188 -4.378906 6.921875 -3.921875 C 7.472656 -3.472656 8.222656 -3.25 9.171875 -3.25 C 10.035156 -3.25 10.828125 -3.328125 11.546875 -3.484375 C 12.273438 -3.648438 13.0625 -3.929688 13.90625 -4.328125 L 13.90625 -0.796875 C 13.132812 -0.398438 12.335938 -0.128906 11.515625 0.015625 C 10.691406 0.171875 9.710938 0.25 8.578125 0.25 Z M 8.28125 -11.15625 C 7.707031 -11.15625 7.222656 -10.972656 6.828125 -10.609375 C 6.441406 -10.242188 6.210938 -9.671875 6.140625 -8.890625 L 10.375 -8.890625 C 10.351562 -9.578125 10.15625 -10.125 9.78125 -10.53125 C 9.414062 -10.945312 8.914062 -11.15625 8.28125 -11.15625 Z M 8.28125 -11.15625 "/></g></g></g><g fill="rgb(100%, 100%, 100%)" fill-opacity="1"><g transform="translate(556.054183, 42.941075)"><g><path d="M 8.671875 -3.640625 C 9.335938 -3.640625 10.128906 -3.800781 11.046875 -4.125 L 11.046875 -0.546875 C 10.390625 -0.253906 9.757812 -0.0507812 9.15625 0.0625 C 8.5625 0.1875 7.859375 0.25 7.046875 0.25 C 5.398438 0.25 4.210938 -0.148438 3.484375 -0.953125 C 2.753906 -1.765625 2.390625 -3.007812 2.390625 -4.6875 L 2.390625 -10.5625 L 0.671875 -10.5625 L 0.671875 -12.5625 L 2.859375 -14.109375 L 4.125 -17.09375 L 7.34375 -17.09375 L 7.34375 -14.25 L 10.84375 -14.25 L 10.84375 -10.5625 L 7.34375 -10.5625 L 7.34375 -5.015625 C 7.34375 -4.097656 7.785156 -3.640625 8.671875 -3.640625 Z M 8.671875 -3.640625 "/></g></g></g><g fill="rgb(100%, 100%, 100%)" fill-opacity="1"><g transform="translate(567.896809, 42.941075)"><g><path d="M 8.578125 0.25 C 6.203125 0.25 4.359375 -0.378906 3.046875 -1.640625 C 1.734375 -2.898438 1.078125 -4.695312 1.078125 -7.03125 C 1.078125 -9.4375 1.6875 -11.28125 2.90625 -12.5625 C 4.125 -13.851562 5.859375 -14.5 8.109375 -14.5 C 10.253906 -14.5 11.910156 -13.9375 13.078125 -12.8125 C 14.253906 -11.695312 14.84375 -10.085938 14.84375 -7.984375 L 14.84375 -5.796875 L 6.046875 -5.796875 C 6.078125 -5.003906 6.367188 -4.378906 6.921875 -3.921875 C 7.472656 -3.472656 8.222656 -3.25 9.171875 -3.25 C 10.035156 -3.25 10.828125 -3.328125 11.546875 -3.484375 C 12.273438 -3.648438 13.0625 -3.929688 13.90625 -4.328125 L 13.90625 -0.796875 C 13.132812 -0.398438 12.335938 -0.128906 11.515625 0.015625 C 10.691406 0.171875 9.710938 0.25 8.578125 0.25 Z M 8.28125 -11.15625 C 7.707031 -11.15625 7.222656 -10.972656 6.828125 -10.609375 C 6.441406 -10.242188 6.210938 -9.671875 6.140625 -8.890625 L 10.375 -8.890625 C 10.351562 -9.578125 10.15625 -10.125 9.78125 -10.53125 C 9.414062 -10.945312 8.914062 -11.15625 8.28125 -11.15625 Z M 8.28125 -11.15625 "/></g></g></g><g fill="rgb(100%, 100%, 100%)" fill-opacity="1"><g transform="translate(583.812642, 42.941075)"><g/></g></g><g fill="rgb(100%, 100%, 100%)" fill-opacity="1"><g transform="translate(590.500822, 42.941075)"><g><path d="M 10 0 L 6.234375 -13.234375 L 6.125 -13.234375 C 6.300781 -10.984375 6.390625 -9.234375 6.390625 -7.984375 L 6.390625 0 L 1.984375 0 L 1.984375 -18.375 L 8.59375 -18.375 L 12.4375 -5.328125 L 12.53125 -5.328125 L 16.296875 -18.375 L 22.921875 -18.375 L 22.921875 0 L 18.359375 0 L 18.359375 -8.0625 C 18.359375 -8.476562 18.363281 -8.941406 18.375 -9.453125 C 18.382812 -9.960938 18.441406 -11.21875 18.546875 -13.21875 L 18.4375 -13.21875 L 14.71875 0 Z M 10 0 "/></g></g></g><g fill="rgb(100%, 100%, 100%)" fill-opacity="1"><g transform="translate(615.392918, 42.941075)"><g><path d="M 11.84375 0 L 11.234375 -1.765625 L 10.9375 -1.765625 C 10.53125 -1.117188 9.957031 -0.617188 9.21875 -0.265625 C 8.488281 0.078125 7.628906 0.25 6.640625 0.25 C 5.066406 0.25 3.84375 -0.203125 2.96875 -1.109375 C 2.101562 -2.023438 1.671875 -3.3125 1.671875 -4.96875 L 1.671875 -14.25 L 6.59375 -14.25 L 6.59375 -6.46875 C 6.59375 -5.53125 6.722656 -4.820312 6.984375 -4.34375 C 7.242188 -3.875 7.675781 -3.640625 8.28125 -3.640625 C 9.132812 -3.640625 9.738281 -3.972656 10.09375 -4.640625 C 10.457031 -5.304688 10.640625 -6.429688 10.640625 -8.015625 L 10.640625 -14.25 L 15.546875 -14.25 L 15.546875 0 Z M 11.84375 0 "/></g></g></g><g fill="rgb(100%, 100%, 100%)" fill-opacity="1"><g transform="translate(632.641381, 42.941075)"><g><path d="M 6.640625 0 L 1.71875 0 L 1.71875 -14.25 L 6.640625 -14.25 Z M 1.59375 -17.796875 C 1.59375 -18.523438 1.796875 -19.070312 2.203125 -19.4375 C 2.617188 -19.800781 3.285156 -19.984375 4.203125 -19.984375 C 5.109375 -19.984375 5.769531 -19.796875 6.1875 -19.421875 C 6.613281 -19.054688 6.828125 -18.515625 6.828125 -17.796875 C 6.828125 -16.347656 5.953125 -15.625 4.203125 -15.625 C 2.460938 -15.625 1.59375 -16.347656 1.59375 -17.796875 Z M 1.59375 -17.796875 "/></g></g></g><g fill="rgb(100%, 100%, 100%)" fill-opacity="1"><g transform="translate(641.014199, 42.941075)"><g><path d="M 8.671875 -3.640625 C 9.335938 -3.640625 10.128906 -3.800781 11.046875 -4.125 L 11.046875 -0.546875 C 10.390625 -0.253906 9.757812 -0.0507812 9.15625 0.0625 C 8.5625 0.1875 7.859375 0.25 7.046875 0.25 C 5.398438 0.25 4.210938 -0.148438 3.484375 -0.953125 C 2.753906 -1.765625 2.390625 -3.007812 2.390625 -4.6875 L 2.390625 -10.5625 L 0.671875 -10.5625 L 0.671875 -12.5625 L 2.859375 -14.109375 L 4.125 -17.09375 L 7.34375 -17.09375 L 7.34375 -14.25 L 10.84375 -14.25 L 10.84375 -10.5625 L 7.34375 -10.5625 L 7.34375 -5.015625 C 7.34375 -4.097656 7.785156 -3.640625 8.671875 -3.640625 Z M 8.671875 -3.640625 "/></g></g></g><g fill="rgb(100%, 100%, 100%)" fill-opacity="1"><g transform="translate(652.856825, 42.941075)"><g><path d="M 15.296875 -7.15625 C 15.296875 -4.820312 14.671875 -3.003906 13.421875 -1.703125 C 12.171875 -0.398438 10.414062 0.25 8.15625 0.25 C 6 0.25 4.28125 -0.414062 3 -1.75 C 1.71875 -3.082031 1.078125 -4.882812 1.078125 -7.15625 C 1.078125 -9.476562 1.703125 -11.28125 2.953125 -12.5625 C 4.210938 -13.851562 5.972656 -14.5 8.234375 -14.5 C 9.628906 -14.5 10.863281 -14.203125 11.9375 -13.609375 C 13.007812 -13.015625 13.835938 -12.160156 14.421875 -11.046875 C 15.003906 -9.929688 15.296875 -8.632812 15.296875 -7.15625 Z M 6.078125 -7.15625 C 6.078125 -5.925781 6.238281 -4.988281 6.5625 -4.34375 C 6.882812 -3.707031 7.429688 -3.390625 8.203125 -3.390625 C 8.972656 -3.390625 9.515625 -3.707031 9.828125 -4.34375 C 10.140625 -4.988281 10.296875 -5.925781 10.296875 -7.15625 C 10.296875 -8.375 10.132812 -9.289062 9.8125 -9.90625 C 9.5 -10.53125 8.957031 -10.84375 8.1875 -10.84375 C 7.425781 -10.84375 6.882812 -10.53125 6.5625 -9.90625 C 6.238281 -9.289062 6.078125 -8.375 6.078125 -7.15625 Z M 6.078125 -7.15625 "/></g></g></g></svg>