<svg xmlns="http://www.w3.org/2000/svg" xmlns:xlink="http://www.w3.org/1999/xlink" width="300" zoomAndPan="magnify" viewBox="0 0 224.87999 37.5" height="50" preserveAspectRatio="xMidYMid meet" version="1.0"><defs><g><g id="id1"/></g></defs><g fill="rgb(100%, 100%, 100%)" fill-opacity="1"><g transform="translate(25.555485, 14.521383)"><g><path d="M 8.328125 -3.3125 C 8.328125 -2.632812 8.15625 -2.03125 7.8125 -1.5 C 7.46875 -0.976562 6.96875 -0.570312 6.3125 -0.28125 C 5.664062 0.0078125 4.910156 0.15625 4.046875 0.15625 C 3.316406 0.15625 2.703125 0.101562 2.203125 0 C 1.710938 -0.101562 1.203125 -0.28125 0.671875 -0.53125 L 0.671875 -3.171875 C 1.234375 -2.878906 1.816406 -2.648438 2.421875 -2.484375 C 3.035156 -2.328125 3.59375 -2.25 4.09375 -2.25 C 4.539062 -2.25 4.863281 -2.320312 5.0625 -2.46875 C 5.269531 -2.625 5.375 -2.820312 5.375 -3.0625 C 5.375 -3.207031 5.332031 -3.335938 5.25 -3.453125 C 5.164062 -3.566406 5.03125 -3.679688 4.84375 -3.796875 C 4.664062 -3.910156 4.1875 -4.144531 3.40625 -4.5 C 2.6875 -4.820312 2.148438 -5.132812 1.796875 -5.4375 C 1.441406 -5.738281 1.175781 -6.085938 1 -6.484375 C 0.832031 -6.878906 0.75 -7.34375 0.75 -7.875 C 0.75 -8.882812 1.113281 -9.671875 1.84375 -10.234375 C 2.570312 -10.796875 3.578125 -11.078125 4.859375 -11.078125 C 5.992188 -11.078125 7.148438 -10.816406 8.328125 -10.296875 L 7.421875 -8.015625 C 6.398438 -8.484375 5.515625 -8.71875 4.765625 -8.71875 C 4.390625 -8.71875 4.113281 -8.648438 3.9375 -8.515625 C 3.757812 -8.378906 3.671875 -8.210938 3.671875 -8.015625 C 3.671875 -7.796875 3.78125 -7.601562 4 -7.4375 C 4.226562 -7.269531 4.832031 -6.960938 5.8125 -6.515625 C 6.75 -6.085938 7.398438 -5.628906 7.765625 -5.140625 C 8.140625 -4.660156 8.328125 -4.050781 8.328125 -3.3125 Z M 8.328125 -3.3125 "/></g></g></g><g fill="rgb(100%, 100%, 100%)" fill-opacity="1"><g transform="translate(34.379128, 14.521383)"><g><path d="M 3.9375 0 L 1.015625 0 L 1.015625 -8.46875 L 3.9375 -8.46875 Z M 0.953125 -10.5625 C 0.953125 -11 1.070312 -11.328125 1.3125 -11.546875 C 1.5625 -11.765625 1.957031 -11.875 2.5 -11.875 C 3.039062 -11.875 3.4375 -11.765625 3.6875 -11.546875 C 3.9375 -11.328125 4.0625 -11 4.0625 -10.5625 C 4.0625 -9.707031 3.539062 -9.28125 2.5 -9.28125 C 1.46875 -9.28125 0.953125 -9.707031 0.953125 -10.5625 Z M 0.953125 -10.5625 "/></g></g></g><g fill="rgb(100%, 100%, 100%)" fill-opacity="1"><g transform="translate(39.350825, 14.521383)"><g><path d="M 11.390625 0 L 11.390625 -4.59375 C 11.390625 -5.164062 11.3125 -5.59375 11.15625 -5.875 C 11 -6.164062 10.753906 -6.3125 10.421875 -6.3125 C 9.972656 -6.3125 9.644531 -6.117188 9.4375 -5.734375 C 9.226562 -5.359375 9.125 -4.757812 9.125 -3.9375 L 9.125 0 L 6.1875 0 L 6.1875 -4.59375 C 6.1875 -5.164062 6.113281 -5.59375 5.96875 -5.875 C 5.820312 -6.164062 5.582031 -6.3125 5.25 -6.3125 C 4.789062 -6.3125 4.453125 -6.109375 4.234375 -5.703125 C 4.023438 -5.296875 3.921875 -4.628906 3.921875 -3.703125 L 3.921875 0 L 1.015625 0 L 1.015625 -8.46875 L 3.21875 -8.46875 L 3.578125 -7.421875 L 3.75 -7.421875 C 3.96875 -7.804688 4.289062 -8.097656 4.71875 -8.296875 C 5.144531 -8.503906 5.628906 -8.609375 6.171875 -8.609375 C 7.390625 -8.609375 8.25 -8.238281 8.75 -7.5 L 8.984375 -7.5 C 9.222656 -7.84375 9.550781 -8.113281 9.96875 -8.3125 C 10.394531 -8.507812 10.867188 -8.609375 11.390625 -8.609375 C 12.390625 -8.609375 13.125 -8.351562 13.59375 -7.84375 C 14.070312 -7.332031 14.3125 -6.550781 14.3125 -5.5 L 14.3125 0 Z M 11.390625 0 "/></g></g></g><g fill="rgb(100%, 100%, 100%)" fill-opacity="1"><g transform="translate(54.639168, 14.521383)"><g><path d="M 6.09375 0.15625 C 5.65625 0.15625 5.265625 0.0820312 4.921875 -0.0625 C 4.585938 -0.207031 4.253906 -0.460938 3.921875 -0.828125 L 3.796875 -0.828125 C 3.878906 -0.234375 3.921875 0.132812 3.921875 0.28125 L 3.921875 3.671875 L 1.015625 3.671875 L 1.015625 -8.46875 L 3.390625 -8.46875 L 3.796875 -7.390625 L 3.921875 -7.390625 C 4.472656 -8.203125 5.222656 -8.609375 6.171875 -8.609375 C 7.109375 -8.609375 7.84375 -8.21875 8.375 -7.4375 C 8.90625 -6.664062 9.171875 -5.601562 9.171875 -4.25 C 9.171875 -2.882812 8.894531 -1.804688 8.34375 -1.015625 C 7.789062 -0.234375 7.039062 0.15625 6.09375 0.15625 Z M 5.109375 -6.3125 C 4.679688 -6.3125 4.378906 -6.160156 4.203125 -5.859375 C 4.035156 -5.554688 3.941406 -5.101562 3.921875 -4.5 L 3.921875 -4.265625 C 3.921875 -3.535156 4.019531 -3.007812 4.21875 -2.6875 C 4.414062 -2.363281 4.722656 -2.203125 5.140625 -2.203125 C 5.515625 -2.203125 5.785156 -2.363281 5.953125 -2.6875 C 6.117188 -3.007812 6.203125 -3.539062 6.203125 -4.28125 C 6.203125 -5.007812 6.117188 -5.53125 5.953125 -5.84375 C 5.785156 -6.15625 5.503906 -6.3125 5.109375 -6.3125 Z M 5.109375 -6.3125 "/></g></g></g><g fill="rgb(100%, 100%, 100%)" fill-opacity="1"><g transform="translate(64.470587, 14.521383)"><g><path d="M 3.921875 0 L 1.015625 0 L 1.015625 -11.625 L 3.921875 -11.625 Z M 3.921875 0 "/></g></g></g><g fill="rgb(100%, 100%, 100%)" fill-opacity="1"><g transform="translate(69.412424, 14.521383)"><g><path d="M 5.09375 0.15625 C 3.6875 0.15625 2.59375 -0.21875 1.8125 -0.96875 C 1.03125 -1.71875 0.640625 -2.785156 0.640625 -4.171875 C 0.640625 -5.597656 1 -6.691406 1.71875 -7.453125 C 2.445312 -8.222656 3.476562 -8.609375 4.8125 -8.609375 C 6.09375 -8.609375 7.078125 -8.273438 7.765625 -7.609375 C 8.460938 -6.953125 8.8125 -6 8.8125 -4.75 L 8.8125 -3.4375 L 3.59375 -3.4375 C 3.613281 -2.96875 3.785156 -2.597656 4.109375 -2.328125 C 4.429688 -2.054688 4.875 -1.921875 5.4375 -1.921875 C 5.957031 -1.921875 6.429688 -1.96875 6.859375 -2.0625 C 7.285156 -2.164062 7.753906 -2.332031 8.265625 -2.5625 L 8.265625 -0.46875 C 7.804688 -0.238281 7.332031 -0.078125 6.84375 0.015625 C 6.351562 0.109375 5.769531 0.15625 5.09375 0.15625 Z M 4.921875 -6.625 C 4.578125 -6.625 4.289062 -6.515625 4.0625 -6.296875 C 3.832031 -6.078125 3.695312 -5.738281 3.65625 -5.28125 L 6.15625 -5.28125 C 6.144531 -5.6875 6.03125 -6.007812 5.8125 -6.25 C 5.59375 -6.5 5.296875 -6.625 4.921875 -6.625 Z M 4.921875 -6.625 "/></g></g></g><g fill="rgb(100%, 100%, 100%)" fill-opacity="1"><g transform="translate(78.863128, 14.521383)"><g><path d="M 7.546875 -2.59375 C 7.546875 -1.6875 7.234375 -1 6.609375 -0.53125 C 5.992188 -0.0703125 5.109375 0.15625 3.953125 0.15625 C 3.328125 0.15625 2.78125 0.117188 2.3125 0.046875 C 1.851562 -0.015625 1.382812 -0.140625 0.90625 -0.328125 L 0.90625 -2.65625 C 1.351562 -2.457031 1.847656 -2.289062 2.390625 -2.15625 C 2.929688 -2.03125 3.414062 -1.96875 3.84375 -1.96875 C 4.46875 -1.96875 4.78125 -2.113281 4.78125 -2.40625 C 4.78125 -2.550781 4.691406 -2.679688 4.515625 -2.796875 C 4.335938 -2.921875 3.828125 -3.148438 2.984375 -3.484375 C 2.203125 -3.804688 1.65625 -4.171875 1.34375 -4.578125 C 1.039062 -4.984375 0.890625 -5.5 0.890625 -6.125 C 0.890625 -6.90625 1.191406 -7.515625 1.796875 -7.953125 C 2.410156 -8.390625 3.269531 -8.609375 4.375 -8.609375 C 4.9375 -8.609375 5.460938 -8.546875 5.953125 -8.421875 C 6.441406 -8.304688 6.953125 -8.128906 7.484375 -7.890625 L 6.6875 -6.015625 C 6.300781 -6.191406 5.890625 -6.335938 5.453125 -6.453125 C 5.015625 -6.578125 4.660156 -6.640625 4.390625 -6.640625 C 3.910156 -6.640625 3.671875 -6.519531 3.671875 -6.28125 C 3.671875 -6.144531 3.753906 -6.023438 3.921875 -5.921875 C 4.085938 -5.816406 4.570312 -5.609375 5.375 -5.296875 C 5.96875 -5.046875 6.410156 -4.804688 6.703125 -4.578125 C 6.992188 -4.347656 7.207031 -4.070312 7.34375 -3.75 C 7.476562 -3.4375 7.546875 -3.050781 7.546875 -2.59375 Z M 7.546875 -2.59375 "/></g></g></g><g fill="rgb(100%, 100%, 100%)" fill-opacity="1"><g transform="translate(87.01492, 14.521383)"><g/></g></g><g fill="rgb(100%, 100%, 100%)" fill-opacity="1"><g transform="translate(90.986306, 14.521383)"><g><path d="M 7.3125 -10.921875 L 10.609375 -10.921875 L 7.03125 0 L 3.5625 0 L 0 -10.921875 L 3.3125 -10.921875 L 4.796875 -5.390625 C 5.109375 -4.160156 5.28125 -3.300781 5.3125 -2.8125 C 5.34375 -3.164062 5.410156 -3.601562 5.515625 -4.125 C 5.617188 -4.644531 5.710938 -5.054688 5.796875 -5.359375 Z M 7.3125 -10.921875 "/></g></g></g><g fill="rgb(100%, 100%, 100%)" fill-opacity="1"><g transform="translate(101.594086, 14.521383)"><g><path d="M 3.9375 0 L 1.015625 0 L 1.015625 -8.46875 L 3.9375 -8.46875 Z M 0.953125 -10.5625 C 0.953125 -11 1.070312 -11.328125 1.3125 -11.546875 C 1.5625 -11.765625 1.957031 -11.875 2.5 -11.875 C 3.039062 -11.875 3.4375 -11.765625 3.6875 -11.546875 C 3.9375 -11.328125 4.0625 -11 4.0625 -10.5625 C 4.0625 -9.707031 3.539062 -9.28125 2.5 -9.28125 C 1.46875 -9.28125 0.953125 -9.707031 0.953125 -10.5625 Z M 0.953125 -10.5625 "/></g></g></g><g fill="rgb(100%, 100%, 100%)" fill-opacity="1"><g transform="translate(106.565784, 14.521383)"><g><path d="M 5.15625 -2.15625 C 5.550781 -2.15625 6.019531 -2.253906 6.5625 -2.453125 L 6.5625 -0.328125 C 6.164062 -0.148438 5.789062 -0.0234375 5.4375 0.046875 C 5.082031 0.117188 4.664062 0.15625 4.1875 0.15625 C 3.207031 0.15625 2.5 -0.0820312 2.0625 -0.5625 C 1.632812 -1.050781 1.421875 -1.789062 1.421875 -2.78125 L 1.421875 -6.28125 L 0.390625 -6.28125 L 0.390625 -7.46875 L 1.703125 -8.375 L 2.453125 -10.15625 L 4.359375 -10.15625 L 4.359375 -8.46875 L 6.4375 -8.46875 L 6.4375 -6.28125 L 4.359375 -6.28125 L 4.359375 -2.984375 C 4.359375 -2.429688 4.625 -2.15625 5.15625 -2.15625 Z M 5.15625 -2.15625 "/></g></g></g><g fill="rgb(100%, 100%, 100%)" fill-opacity="1"><g transform="translate(113.597824, 14.521383)"><g><path d="M 6.53125 0 L 5.96875 -1.125 L 5.90625 -1.125 C 5.507812 -0.632812 5.109375 -0.296875 4.703125 -0.109375 C 4.296875 0.0664062 3.769531 0.15625 3.125 0.15625 C 2.320312 0.15625 1.691406 -0.0820312 1.234375 -0.5625 C 0.773438 -1.039062 0.546875 -1.710938 0.546875 -2.578125 C 0.546875 -3.484375 0.859375 -4.15625 1.484375 -4.59375 C 2.117188 -5.039062 3.03125 -5.289062 4.21875 -5.34375 L 5.625 -5.390625 L 5.625 -5.5 C 5.625 -6.195312 5.28125 -6.546875 4.59375 -6.546875 C 3.976562 -6.546875 3.195312 -6.335938 2.25 -5.921875 L 1.40625 -7.84375 C 2.394531 -8.351562 3.640625 -8.609375 5.140625 -8.609375 C 6.222656 -8.609375 7.0625 -8.335938 7.65625 -7.796875 C 8.25 -7.265625 8.546875 -6.515625 8.546875 -5.546875 L 8.546875 0 Z M 4.359375 -1.90625 C 4.710938 -1.90625 5.015625 -2.015625 5.265625 -2.234375 C 5.515625 -2.460938 5.640625 -2.757812 5.640625 -3.125 L 5.640625 -3.78125 L 4.96875 -3.75 C 4.007812 -3.71875 3.53125 -3.363281 3.53125 -2.6875 C 3.53125 -2.164062 3.804688 -1.90625 4.359375 -1.90625 Z M 4.359375 -1.90625 "/></g></g></g><g fill="rgb(100%, 100%, 100%)" fill-opacity="1"><g transform="translate(123.123178, 14.521383)"><g><path d="M 11.390625 0 L 11.390625 -4.59375 C 11.390625 -5.164062 11.3125 -5.59375 11.15625 -5.875 C 11 -6.164062 10.753906 -6.3125 10.421875 -6.3125 C 9.972656 -6.3125 9.644531 -6.117188 9.4375 -5.734375 C 9.226562 -5.359375 9.125 -4.757812 9.125 -3.9375 L 9.125 0 L 6.1875 0 L 6.1875 -4.59375 C 6.1875 -5.164062 6.113281 -5.59375 5.96875 -5.875 C 5.820312 -6.164062 5.582031 -6.3125 5.25 -6.3125 C 4.789062 -6.3125 4.453125 -6.109375 4.234375 -5.703125 C 4.023438 -5.296875 3.921875 -4.628906 3.921875 -3.703125 L 3.921875 0 L 1.015625 0 L 1.015625 -8.46875 L 3.21875 -8.46875 L 3.578125 -7.421875 L 3.75 -7.421875 C 3.96875 -7.804688 4.289062 -8.097656 4.71875 -8.296875 C 5.144531 -8.503906 5.628906 -8.609375 6.171875 -8.609375 C 7.390625 -8.609375 8.25 -8.238281 8.75 -7.5 L 8.984375 -7.5 C 9.222656 -7.84375 9.550781 -8.113281 9.96875 -8.3125 C 10.394531 -8.507812 10.867188 -8.609375 11.390625 -8.609375 C 12.390625 -8.609375 13.125 -8.351562 13.59375 -7.84375 C 14.070312 -7.332031 14.3125 -6.550781 14.3125 -5.5 L 14.3125 0 Z M 11.390625 0 "/></g></g></g><g fill="rgb(100%, 100%, 100%)" fill-opacity="1"><g transform="translate(138.41152, 14.521383)"><g><path d="M 3.9375 0 L 1.015625 0 L 1.015625 -8.46875 L 3.9375 -8.46875 Z M 0.953125 -10.5625 C 0.953125 -11 1.070312 -11.328125 1.3125 -11.546875 C 1.5625 -11.765625 1.957031 -11.875 2.5 -11.875 C 3.039062 -11.875 3.4375 -11.765625 3.6875 -11.546875 C 3.9375 -11.328125 4.0625 -11 4.0625 -10.5625 C 4.0625 -9.707031 3.539062 -9.28125 2.5 -9.28125 C 1.46875 -9.28125 0.953125 -9.707031 0.953125 -10.5625 Z M 0.953125 -10.5625 "/></g></g></g><g fill="rgb(100%, 100%, 100%)" fill-opacity="1"><g transform="translate(143.383217, 14.521383)"><g><path d="M 6.34375 0 L 6.34375 -4.609375 C 6.34375 -5.171875 6.257812 -5.59375 6.09375 -5.875 C 5.9375 -6.164062 5.679688 -6.3125 5.328125 -6.3125 C 4.835938 -6.3125 4.476562 -6.113281 4.25 -5.71875 C 4.03125 -5.332031 3.921875 -4.660156 3.921875 -3.703125 L 3.921875 0 L 1.015625 0 L 1.015625 -8.46875 L 3.21875 -8.46875 L 3.578125 -7.421875 L 3.75 -7.421875 C 4 -7.816406 4.34375 -8.113281 4.78125 -8.3125 C 5.21875 -8.507812 5.722656 -8.609375 6.296875 -8.609375 C 7.234375 -8.609375 7.960938 -8.335938 8.484375 -7.796875 C 9.003906 -7.253906 9.265625 -6.488281 9.265625 -5.5 L 9.265625 0 Z M 6.34375 0 "/></g></g></g><g fill="rgb(100%, 100%, 100%)" fill-opacity="1"><g transform="translate(153.625212, 14.521383)"><g><path d="M 6.53125 0 L 5.96875 -1.125 L 5.90625 -1.125 C 5.507812 -0.632812 5.109375 -0.296875 4.703125 -0.109375 C 4.296875 0.0664062 3.769531 0.15625 3.125 0.15625 C 2.320312 0.15625 1.691406 -0.0820312 1.234375 -0.5625 C 0.773438 -1.039062 0.546875 -1.710938 0.546875 -2.578125 C 0.546875 -3.484375 0.859375 -4.15625 1.484375 -4.59375 C 2.117188 -5.039062 3.03125 -5.289062 4.21875 -5.34375 L 5.625 -5.390625 L 5.625 -5.5 C 5.625 -6.195312 5.28125 -6.546875 4.59375 -6.546875 C 3.976562 -6.546875 3.195312 -6.335938 2.25 -5.921875 L 1.40625 -7.84375 C 2.394531 -8.351562 3.640625 -8.609375 5.140625 -8.609375 C 6.222656 -8.609375 7.0625 -8.335938 7.65625 -7.796875 C 8.25 -7.265625 8.546875 -6.515625 8.546875 -5.546875 L 8.546875 0 Z M 4.359375 -1.90625 C 4.710938 -1.90625 5.015625 -2.015625 5.265625 -2.234375 C 5.515625 -2.460938 5.640625 -2.757812 5.640625 -3.125 L 5.640625 -3.78125 L 4.96875 -3.75 C 4.007812 -3.71875 3.53125 -3.363281 3.53125 -2.6875 C 3.53125 -2.164062 3.804688 -1.90625 4.359375 -1.90625 Z M 4.359375 -1.90625 "/></g></g></g><g fill="rgb(100%, 100%, 100%)" fill-opacity="1"><g transform="translate(163.150566, 14.521383)"><g/></g></g><g fill="rgb(100%, 100%, 100%)" fill-opacity="1"><g transform="translate(167.121952, 14.521383)"><g><path d="M 3.640625 0.15625 C 3.035156 0.15625 2.503906 -0.015625 2.046875 -0.359375 C 1.597656 -0.703125 1.25 -1.207031 1 -1.875 C 0.757812 -2.550781 0.640625 -3.332031 0.640625 -4.21875 C 0.640625 -5.59375 0.914062 -6.664062 1.46875 -7.4375 C 2.019531 -8.21875 2.78125 -8.609375 3.75 -8.609375 C 4.21875 -8.609375 4.628906 -8.515625 4.984375 -8.328125 C 5.347656 -8.140625 5.675781 -7.820312 5.96875 -7.375 L 6.03125 -7.375 C 5.9375 -8.03125 5.890625 -8.691406 5.890625 -9.359375 L 5.890625 -11.625 L 8.828125 -11.625 L 8.828125 0 L 6.625 0 L 6 -1.0625 L 5.890625 -1.0625 C 5.378906 -0.25 4.628906 0.15625 3.640625 0.15625 Z M 4.828125 -2.15625 C 5.296875 -2.15625 5.625 -2.300781 5.8125 -2.59375 C 6.007812 -2.894531 6.113281 -3.347656 6.125 -3.953125 L 6.125 -4.1875 C 6.125 -4.9375 6.015625 -5.46875 5.796875 -5.78125 C 5.585938 -6.101562 5.253906 -6.265625 4.796875 -6.265625 C 4.421875 -6.265625 4.125 -6.082031 3.90625 -5.71875 C 3.695312 -5.351562 3.59375 -4.835938 3.59375 -4.171875 C 3.59375 -3.515625 3.695312 -3.015625 3.90625 -2.671875 C 4.125 -2.328125 4.429688 -2.15625 4.828125 -2.15625 Z M 4.828125 -2.15625 "/></g></g></g><g fill="rgb(100%, 100%, 100%)" fill-opacity="1"><g transform="translate(176.953371, 14.521383)"><g><path d="M 5.09375 0.15625 C 3.6875 0.15625 2.59375 -0.21875 1.8125 -0.96875 C 1.03125 -1.71875 0.640625 -2.785156 0.640625 -4.171875 C 0.640625 -5.597656 1 -6.691406 1.71875 -7.453125 C 2.445312 -8.222656 3.476562 -8.609375 4.8125 -8.609375 C 6.09375 -8.609375 7.078125 -8.273438 7.765625 -7.609375 C 8.460938 -6.953125 8.8125 -6 8.8125 -4.75 L 8.8125 -3.4375 L 3.59375 -3.4375 C 3.613281 -2.96875 3.785156 -2.597656 4.109375 -2.328125 C 4.429688 -2.054688 4.875 -1.921875 5.4375 -1.921875 C 5.957031 -1.921875 6.429688 -1.96875 6.859375 -2.0625 C 7.285156 -2.164062 7.753906 -2.332031 8.265625 -2.5625 L 8.265625 -0.46875 C 7.804688 -0.238281 7.332031 -0.078125 6.84375 0.015625 C 6.351562 0.109375 5.769531 0.15625 5.09375 0.15625 Z M 4.921875 -6.625 C 4.578125 -6.625 4.289062 -6.515625 4.0625 -6.296875 C 3.832031 -6.078125 3.695312 -5.738281 3.65625 -5.28125 L 6.15625 -5.28125 C 6.144531 -5.6875 6.03125 -6.007812 5.8125 -6.25 C 5.59375 -6.5 5.296875 -6.625 4.921875 -6.625 Z M 4.921875 -6.625 "/></g></g></g><g fill="rgb(100%, 100%, 100%)" fill-opacity="1"><g transform="translate(186.404075, 14.521383)"><g/></g></g><g fill="rgb(100%, 100%, 100%)" fill-opacity="1"><g transform="translate(190.375461, 14.521383)"><g><path d="M 0.515625 -4.609375 C 0.515625 -6.140625 0.734375 -7.375 1.171875 -8.3125 C 1.609375 -9.257812 2.25 -9.957031 3.09375 -10.40625 C 3.945312 -10.851562 5 -11.078125 6.25 -11.078125 C 6.6875 -11.078125 7.203125 -11.035156 7.796875 -10.953125 L 7.796875 -8.640625 C 7.296875 -8.734375 6.753906 -8.78125 6.171875 -8.78125 C 5.191406 -8.78125 4.457031 -8.5625 3.96875 -8.125 C 3.488281 -7.695312 3.226562 -6.992188 3.1875 -6.015625 L 3.265625 -6.015625 C 3.710938 -6.859375 4.4375 -7.28125 5.4375 -7.28125 C 6.40625 -7.28125 7.15625 -6.96875 7.6875 -6.34375 C 8.226562 -5.71875 8.5 -4.847656 8.5 -3.734375 C 8.5 -2.535156 8.15625 -1.585938 7.46875 -0.890625 C 6.789062 -0.191406 5.847656 0.15625 4.640625 0.15625 C 3.347656 0.15625 2.335938 -0.257812 1.609375 -1.09375 C 0.878906 -1.9375 0.515625 -3.109375 0.515625 -4.609375 Z M 4.578125 -2.1875 C 4.890625 -2.1875 5.140625 -2.300781 5.328125 -2.53125 C 5.523438 -2.769531 5.625 -3.148438 5.625 -3.671875 C 5.625 -4.554688 5.28125 -5 4.59375 -5 C 4.257812 -5 3.984375 -4.882812 3.765625 -4.65625 C 3.554688 -4.425781 3.453125 -4.148438 3.453125 -3.828125 C 3.453125 -3.347656 3.554688 -2.953125 3.765625 -2.640625 C 3.972656 -2.335938 4.242188 -2.1875 4.578125 -2.1875 Z M 4.578125 -2.1875 "/></g></g></g><g fill="rgb(100%, 100%, 100%)" fill-opacity="1"><g transform="translate(4.311397, 31.544408)"><g><path d="M 1.1875 0 L 1.1875 -10.921875 L 4.140625 -10.921875 L 4.140625 0 Z M 1.1875 0 "/></g></g></g><g fill="rgb(100%, 100%, 100%)" fill-opacity="1"><g transform="translate(9.63395, 31.544408)"><g><path d="M 6.34375 0 L 6.34375 -4.609375 C 6.34375 -5.171875 6.257812 -5.59375 6.09375 -5.875 C 5.9375 -6.164062 5.679688 -6.3125 5.328125 -6.3125 C 4.835938 -6.3125 4.476562 -6.113281 4.25 -5.71875 C 4.03125 -5.332031 3.921875 -4.660156 3.921875 -3.703125 L 3.921875 0 L 1.015625 0 L 1.015625 -8.46875 L 3.21875 -8.46875 L 3.578125 -7.421875 L 3.75 -7.421875 C 4 -7.816406 4.34375 -8.113281 4.78125 -8.3125 C 5.21875 -8.507812 5.722656 -8.609375 6.296875 -8.609375 C 7.234375 -8.609375 7.960938 -8.335938 8.484375 -7.796875 C 9.003906 -7.253906 9.265625 -6.488281 9.265625 -5.5 L 9.265625 0 Z M 6.34375 0 "/></g></g></g><g fill="rgb(100%, 100%, 100%)" fill-opacity="1"><g transform="translate(19.875945, 31.544408)"><g><path d="M 9 -8.46875 L 9 -7.046875 L 7.828125 -6.625 C 7.992188 -6.332031 8.078125 -5.992188 8.078125 -5.609375 C 8.078125 -4.703125 7.753906 -3.992188 7.109375 -3.484375 C 6.472656 -2.984375 5.519531 -2.734375 4.25 -2.734375 C 3.9375 -2.734375 3.6875 -2.753906 3.5 -2.796875 C 3.4375 -2.671875 3.40625 -2.550781 3.40625 -2.4375 C 3.40625 -2.289062 3.519531 -2.175781 3.75 -2.09375 C 3.976562 -2.019531 4.285156 -1.984375 4.671875 -1.984375 L 6.078125 -1.984375 C 7.972656 -1.984375 8.921875 -1.1875 8.921875 0.40625 C 8.921875 1.4375 8.476562 2.238281 7.59375 2.8125 C 6.71875 3.382812 5.488281 3.671875 3.90625 3.671875 C 2.695312 3.671875 1.769531 3.46875 1.125 3.0625 C 0.476562 2.664062 0.15625 2.09375 0.15625 1.34375 C 0.15625 0.332031 0.78125 -0.316406 2.03125 -0.609375 C 1.769531 -0.722656 1.539062 -0.898438 1.34375 -1.140625 C 1.15625 -1.390625 1.0625 -1.632812 1.0625 -1.875 C 1.0625 -2.132812 1.132812 -2.363281 1.28125 -2.5625 C 1.425781 -2.769531 1.726562 -3.007812 2.1875 -3.28125 C 1.75 -3.476562 1.40625 -3.78125 1.15625 -4.1875 C 0.90625 -4.601562 0.78125 -5.109375 0.78125 -5.703125 C 0.78125 -6.628906 1.09375 -7.34375 1.71875 -7.84375 C 2.34375 -8.351562 3.238281 -8.609375 4.40625 -8.609375 C 4.5625 -8.609375 4.828125 -8.585938 5.203125 -8.546875 C 5.585938 -8.515625 5.867188 -8.488281 6.046875 -8.46875 Z M 2.609375 1.046875 C 2.609375 1.285156 2.738281 1.476562 3 1.625 C 3.257812 1.78125 3.609375 1.859375 4.046875 1.859375 C 4.742188 1.859375 5.304688 1.769531 5.734375 1.59375 C 6.160156 1.414062 6.375 1.1875 6.375 0.90625 C 6.375 0.675781 6.242188 0.515625 5.984375 0.421875 C 5.734375 0.335938 5.363281 0.296875 4.875 0.296875 L 3.734375 0.296875 C 3.421875 0.296875 3.15625 0.367188 2.9375 0.515625 C 2.71875 0.660156 2.609375 0.835938 2.609375 1.046875 Z M 3.53125 -5.6875 C 3.53125 -4.820312 3.832031 -4.390625 4.4375 -4.390625 C 4.71875 -4.390625 4.929688 -4.492188 5.078125 -4.703125 C 5.234375 -4.921875 5.3125 -5.242188 5.3125 -5.671875 C 5.3125 -6.546875 5.019531 -6.984375 4.4375 -6.984375 C 3.832031 -6.984375 3.53125 -6.550781 3.53125 -5.6875 Z M 3.53125 -5.6875 "/></g></g></g><g fill="rgb(100%, 100%, 100%)" fill-opacity="1"><g transform="translate(29.140023, 31.544408)"><g><path d="M 6.125 -8.609375 C 6.375 -8.609375 6.613281 -8.585938 6.84375 -8.546875 L 7 -8.515625 L 6.75 -5.765625 C 6.507812 -5.828125 6.175781 -5.859375 5.75 -5.859375 C 5.113281 -5.859375 4.648438 -5.710938 4.359375 -5.421875 C 4.066406 -5.128906 3.921875 -4.707031 3.921875 -4.15625 L 3.921875 0 L 1.015625 0 L 1.015625 -8.46875 L 3.1875 -8.46875 L 3.640625 -7.109375 L 3.78125 -7.109375 C 4.019531 -7.554688 4.359375 -7.914062 4.796875 -8.1875 C 5.234375 -8.46875 5.675781 -8.609375 6.125 -8.609375 Z M 6.125 -8.609375 "/></g></g></g><g fill="rgb(100%, 100%, 100%)" fill-opacity="1"><g transform="translate(36.313899, 31.544408)"><g><path d="M 5.09375 0.15625 C 3.6875 0.15625 2.59375 -0.21875 1.8125 -0.96875 C 1.03125 -1.71875 0.640625 -2.785156 0.640625 -4.171875 C 0.640625 -5.597656 1 -6.691406 1.71875 -7.453125 C 2.445312 -8.222656 3.476562 -8.609375 4.8125 -8.609375 C 6.09375 -8.609375 7.078125 -8.273438 7.765625 -7.609375 C 8.460938 -6.953125 8.8125 -6 8.8125 -4.75 L 8.8125 -3.4375 L 3.59375 -3.4375 C 3.613281 -2.96875 3.785156 -2.597656 4.109375 -2.328125 C 4.429688 -2.054688 4.875 -1.921875 5.4375 -1.921875 C 5.957031 -1.921875 6.429688 -1.96875 6.859375 -2.0625 C 7.285156 -2.164062 7.753906 -2.332031 8.265625 -2.5625 L 8.265625 -0.46875 C 7.804688 -0.238281 7.332031 -0.078125 6.84375 0.015625 C 6.351562 0.109375 5.769531 0.15625 5.09375 0.15625 Z M 4.921875 -6.625 C 4.578125 -6.625 4.289062 -6.515625 4.0625 -6.296875 C 3.832031 -6.078125 3.695312 -5.738281 3.65625 -5.28125 L 6.15625 -5.28125 C 6.144531 -5.6875 6.03125 -6.007812 5.8125 -6.25 C 5.59375 -6.5 5.296875 -6.625 4.921875 -6.625 Z M 4.921875 -6.625 "/></g></g></g><g fill="rgb(100%, 100%, 100%)" fill-opacity="1"><g transform="translate(45.764602, 31.544408)"><g><path d="M 3.640625 0.15625 C 3.035156 0.15625 2.503906 -0.015625 2.046875 -0.359375 C 1.597656 -0.703125 1.25 -1.207031 1 -1.875 C 0.757812 -2.550781 0.640625 -3.332031 0.640625 -4.21875 C 0.640625 -5.59375 0.914062 -6.664062 1.46875 -7.4375 C 2.019531 -8.21875 2.78125 -8.609375 3.75 -8.609375 C 4.21875 -8.609375 4.628906 -8.515625 4.984375 -8.328125 C 5.347656 -8.140625 5.675781 -7.820312 5.96875 -7.375 L 6.03125 -7.375 C 5.9375 -8.03125 5.890625 -8.691406 5.890625 -9.359375 L 5.890625 -11.625 L 8.828125 -11.625 L 8.828125 0 L 6.625 0 L 6 -1.0625 L 5.890625 -1.0625 C 5.378906 -0.25 4.628906 0.15625 3.640625 0.15625 Z M 4.828125 -2.15625 C 5.296875 -2.15625 5.625 -2.300781 5.8125 -2.59375 C 6.007812 -2.894531 6.113281 -3.347656 6.125 -3.953125 L 6.125 -4.1875 C 6.125 -4.9375 6.015625 -5.46875 5.796875 -5.78125 C 5.585938 -6.101562 5.253906 -6.265625 4.796875 -6.265625 C 4.421875 -6.265625 4.125 -6.082031 3.90625 -5.71875 C 3.695312 -5.351562 3.59375 -4.835938 3.59375 -4.171875 C 3.59375 -3.515625 3.695312 -3.015625 3.90625 -2.671875 C 4.125 -2.328125 4.429688 -2.15625 4.828125 -2.15625 Z M 4.828125 -2.15625 "/></g></g></g><g fill="rgb(100%, 100%, 100%)" fill-opacity="1"><g transform="translate(55.596022, 31.544408)"><g><path d="M 3.9375 0 L 1.015625 0 L 1.015625 -8.46875 L 3.9375 -8.46875 Z M 0.953125 -10.5625 C 0.953125 -11 1.070312 -11.328125 1.3125 -11.546875 C 1.5625 -11.765625 1.957031 -11.875 2.5 -11.875 C 3.039062 -11.875 3.4375 -11.765625 3.6875 -11.546875 C 3.9375 -11.328125 4.0625 -11 4.0625 -10.5625 C 4.0625 -9.707031 3.539062 -9.28125 2.5 -9.28125 C 1.46875 -9.28125 0.953125 -9.707031 0.953125 -10.5625 Z M 0.953125 -10.5625 "/></g></g></g><g fill="rgb(100%, 100%, 100%)" fill-opacity="1"><g transform="translate(60.567719, 31.544408)"><g><path d="M 5.09375 0.15625 C 3.6875 0.15625 2.59375 -0.21875 1.8125 -0.96875 C 1.03125 -1.71875 0.640625 -2.785156 0.640625 -4.171875 C 0.640625 -5.597656 1 -6.691406 1.71875 -7.453125 C 2.445312 -8.222656 3.476562 -8.609375 4.8125 -8.609375 C 6.09375 -8.609375 7.078125 -8.273438 7.765625 -7.609375 C 8.460938 -6.953125 8.8125 -6 8.8125 -4.75 L 8.8125 -3.4375 L 3.59375 -3.4375 C 3.613281 -2.96875 3.785156 -2.597656 4.109375 -2.328125 C 4.429688 -2.054688 4.875 -1.921875 5.4375 -1.921875 C 5.957031 -1.921875 6.429688 -1.96875 6.859375 -2.0625 C 7.285156 -2.164062 7.753906 -2.332031 8.265625 -2.5625 L 8.265625 -0.46875 C 7.804688 -0.238281 7.332031 -0.078125 6.84375 0.015625 C 6.351562 0.109375 5.769531 0.15625 5.09375 0.15625 Z M 4.921875 -6.625 C 4.578125 -6.625 4.289062 -6.515625 4.0625 -6.296875 C 3.832031 -6.078125 3.695312 -5.738281 3.65625 -5.28125 L 6.15625 -5.28125 C 6.144531 -5.6875 6.03125 -6.007812 5.8125 -6.25 C 5.59375 -6.5 5.296875 -6.625 4.921875 -6.625 Z M 4.921875 -6.625 "/></g></g></g><g fill="rgb(100%, 100%, 100%)" fill-opacity="1"><g transform="translate(70.018423, 31.544408)"><g><path d="M 6.34375 0 L 6.34375 -4.609375 C 6.34375 -5.171875 6.257812 -5.59375 6.09375 -5.875 C 5.9375 -6.164062 5.679688 -6.3125 5.328125 -6.3125 C 4.835938 -6.3125 4.476562 -6.113281 4.25 -5.71875 C 4.03125 -5.332031 3.921875 -4.660156 3.921875 -3.703125 L 3.921875 0 L 1.015625 0 L 1.015625 -8.46875 L 3.21875 -8.46875 L 3.578125 -7.421875 L 3.75 -7.421875 C 4 -7.816406 4.34375 -8.113281 4.78125 -8.3125 C 5.21875 -8.507812 5.722656 -8.609375 6.296875 -8.609375 C 7.234375 -8.609375 7.960938 -8.335938 8.484375 -7.796875 C 9.003906 -7.253906 9.265625 -6.488281 9.265625 -5.5 L 9.265625 0 Z M 6.34375 0 "/></g></g></g><g fill="rgb(100%, 100%, 100%)" fill-opacity="1"><g transform="translate(80.260418, 31.544408)"><g><path d="M 5.15625 -2.15625 C 5.550781 -2.15625 6.019531 -2.253906 6.5625 -2.453125 L 6.5625 -0.328125 C 6.164062 -0.148438 5.789062 -0.0234375 5.4375 0.046875 C 5.082031 0.117188 4.664062 0.15625 4.1875 0.15625 C 3.207031 0.15625 2.5 -0.0820312 2.0625 -0.5625 C 1.632812 -1.050781 1.421875 -1.789062 1.421875 -2.78125 L 1.421875 -6.28125 L 0.390625 -6.28125 L 0.390625 -7.46875 L 1.703125 -8.375 L 2.453125 -10.15625 L 4.359375 -10.15625 L 4.359375 -8.46875 L 6.4375 -8.46875 L 6.4375 -6.28125 L 4.359375 -6.28125 L 4.359375 -2.984375 C 4.359375 -2.429688 4.625 -2.15625 5.15625 -2.15625 Z M 5.15625 -2.15625 "/></g></g></g><g fill="rgb(100%, 100%, 100%)" fill-opacity="1"><g transform="translate(87.292458, 31.544408)"><g><path d="M 5.09375 0.15625 C 3.6875 0.15625 2.59375 -0.21875 1.8125 -0.96875 C 1.03125 -1.71875 0.640625 -2.785156 0.640625 -4.171875 C 0.640625 -5.597656 1 -6.691406 1.71875 -7.453125 C 2.445312 -8.222656 3.476562 -8.609375 4.8125 -8.609375 C 6.09375 -8.609375 7.078125 -8.273438 7.765625 -7.609375 C 8.460938 -6.953125 8.8125 -6 8.8125 -4.75 L 8.8125 -3.4375 L 3.59375 -3.4375 C 3.613281 -2.96875 3.785156 -2.597656 4.109375 -2.328125 C 4.429688 -2.054688 4.875 -1.921875 5.4375 -1.921875 C 5.957031 -1.921875 6.429688 -1.96875 6.859375 -2.0625 C 7.285156 -2.164062 7.753906 -2.332031 8.265625 -2.5625 L 8.265625 -0.46875 C 7.804688 -0.238281 7.332031 -0.078125 6.84375 0.015625 C 6.351562 0.109375 5.769531 0.15625 5.09375 0.15625 Z M 4.921875 -6.625 C 4.578125 -6.625 4.289062 -6.515625 4.0625 -6.296875 C 3.832031 -6.078125 3.695312 -5.738281 3.65625 -5.28125 L 6.15625 -5.28125 C 6.144531 -5.6875 6.03125 -6.007812 5.8125 -6.25 C 5.59375 -6.5 5.296875 -6.625 4.921875 -6.625 Z M 4.921875 -6.625 "/></g></g></g><g fill="rgb(100%, 100%, 100%)" fill-opacity="1"><g transform="translate(96.743162, 31.544408)"><g><path d="M 7.546875 -2.59375 C 7.546875 -1.6875 7.234375 -1 6.609375 -0.53125 C 5.992188 -0.0703125 5.109375 0.15625 3.953125 0.15625 C 3.328125 0.15625 2.78125 0.117188 2.3125 0.046875 C 1.851562 -0.015625 1.382812 -0.140625 0.90625 -0.328125 L 0.90625 -2.65625 C 1.351562 -2.457031 1.847656 -2.289062 2.390625 -2.15625 C 2.929688 -2.03125 3.414062 -1.96875 3.84375 -1.96875 C 4.46875 -1.96875 4.78125 -2.113281 4.78125 -2.40625 C 4.78125 -2.550781 4.691406 -2.679688 4.515625 -2.796875 C 4.335938 -2.921875 3.828125 -3.148438 2.984375 -3.484375 C 2.203125 -3.804688 1.65625 -4.171875 1.34375 -4.578125 C 1.039062 -4.984375 0.890625 -5.5 0.890625 -6.125 C 0.890625 -6.90625 1.191406 -7.515625 1.796875 -7.953125 C 2.410156 -8.390625 3.269531 -8.609375 4.375 -8.609375 C 4.9375 -8.609375 5.460938 -8.546875 5.953125 -8.421875 C 6.441406 -8.304688 6.953125 -8.128906 7.484375 -7.890625 L 6.6875 -6.015625 C 6.300781 -6.191406 5.890625 -6.335938 5.453125 -6.453125 C 5.015625 -6.578125 4.660156 -6.640625 4.390625 -6.640625 C 3.910156 -6.640625 3.671875 -6.519531 3.671875 -6.28125 C 3.671875 -6.144531 3.753906 -6.023438 3.921875 -5.921875 C 4.085938 -5.816406 4.570312 -5.609375 5.375 -5.296875 C 5.96875 -5.046875 6.410156 -4.804688 6.703125 -4.578125 C 6.992188 -4.347656 7.207031 -4.070312 7.34375 -3.75 C 7.476562 -3.4375 7.546875 -3.050781 7.546875 -2.59375 Z M 7.546875 -2.59375 "/></g></g></g><g fill="rgb(100%, 100%, 100%)" fill-opacity="1"><g transform="translate(104.894954, 31.544408)"><g/></g></g><g fill="rgb(100%, 100%, 100%)" fill-opacity="1"><g transform="translate(108.866339, 31.544408)"><g><path d="M 10.453125 -5.6875 C 10.453125 -3.863281 9.945312 -2.457031 8.9375 -1.46875 C 7.9375 -0.488281 6.53125 0 4.71875 0 L 1.1875 0 L 1.1875 -10.921875 L 4.953125 -10.921875 C 6.710938 -10.921875 8.066406 -10.472656 9.015625 -9.578125 C 9.972656 -8.679688 10.453125 -7.382812 10.453125 -5.6875 Z M 7.390625 -5.59375 C 7.390625 -6.59375 7.191406 -7.332031 6.796875 -7.8125 C 6.398438 -8.289062 5.796875 -8.53125 4.984375 -8.53125 L 4.125 -8.53125 L 4.125 -2.421875 L 4.78125 -2.421875 C 5.675781 -2.421875 6.332031 -2.679688 6.75 -3.203125 C 7.175781 -3.722656 7.390625 -4.519531 7.390625 -5.59375 Z M 7.390625 -5.59375 "/></g></g></g><g fill="rgb(100%, 100%, 100%)" fill-opacity="1"><g transform="translate(120.086251, 31.544408)"><g><path d="M 5.09375 0.15625 C 3.6875 0.15625 2.59375 -0.21875 1.8125 -0.96875 C 1.03125 -1.71875 0.640625 -2.785156 0.640625 -4.171875 C 0.640625 -5.597656 1 -6.691406 1.71875 -7.453125 C 2.445312 -8.222656 3.476562 -8.609375 4.8125 -8.609375 C 6.09375 -8.609375 7.078125 -8.273438 7.765625 -7.609375 C 8.460938 -6.953125 8.8125 -6 8.8125 -4.75 L 8.8125 -3.4375 L 3.59375 -3.4375 C 3.613281 -2.96875 3.785156 -2.597656 4.109375 -2.328125 C 4.429688 -2.054688 4.875 -1.921875 5.4375 -1.921875 C 5.957031 -1.921875 6.429688 -1.96875 6.859375 -2.0625 C 7.285156 -2.164062 7.753906 -2.332031 8.265625 -2.5625 L 8.265625 -0.46875 C 7.804688 -0.238281 7.332031 -0.078125 6.84375 0.015625 C 6.351562 0.109375 5.769531 0.15625 5.09375 0.15625 Z M 4.921875 -6.625 C 4.578125 -6.625 4.289062 -6.515625 4.0625 -6.296875 C 3.832031 -6.078125 3.695312 -5.738281 3.65625 -5.28125 L 6.15625 -5.28125 C 6.144531 -5.6875 6.03125 -6.007812 5.8125 -6.25 C 5.59375 -6.5 5.296875 -6.625 4.921875 -6.625 Z M 4.921875 -6.625 "/></g></g></g><g fill="rgb(100%, 100%, 100%)" fill-opacity="1"><g transform="translate(129.536955, 31.544408)"><g><path d="M 6.125 -8.609375 C 6.375 -8.609375 6.613281 -8.585938 6.84375 -8.546875 L 7 -8.515625 L 6.75 -5.765625 C 6.507812 -5.828125 6.175781 -5.859375 5.75 -5.859375 C 5.113281 -5.859375 4.648438 -5.710938 4.359375 -5.421875 C 4.066406 -5.128906 3.921875 -4.707031 3.921875 -4.15625 L 3.921875 0 L 1.015625 0 L 1.015625 -8.46875 L 3.1875 -8.46875 L 3.640625 -7.109375 L 3.78125 -7.109375 C 4.019531 -7.554688 4.359375 -7.914062 4.796875 -8.1875 C 5.234375 -8.46875 5.675781 -8.609375 6.125 -8.609375 Z M 6.125 -8.609375 "/></g></g></g><g fill="rgb(100%, 100%, 100%)" fill-opacity="1"><g transform="translate(136.71083, 31.544408)"><g><path d="M 6.125 -8.609375 C 6.375 -8.609375 6.613281 -8.585938 6.84375 -8.546875 L 7 -8.515625 L 6.75 -5.765625 C 6.507812 -5.828125 6.175781 -5.859375 5.75 -5.859375 C 5.113281 -5.859375 4.648438 -5.710938 4.359375 -5.421875 C 4.066406 -5.128906 3.921875 -4.707031 3.921875 -4.15625 L 3.921875 0 L 1.015625 0 L 1.015625 -8.46875 L 3.1875 -8.46875 L 3.640625 -7.109375 L 3.78125 -7.109375 C 4.019531 -7.554688 4.359375 -7.914062 4.796875 -8.1875 C 5.234375 -8.46875 5.675781 -8.609375 6.125 -8.609375 Z M 6.125 -8.609375 "/></g></g></g><g fill="rgb(100%, 100%, 100%)" fill-opacity="1"><g transform="translate(143.884705, 31.544408)"><g><path d="M 5.09375 0.15625 C 3.6875 0.15625 2.59375 -0.21875 1.8125 -0.96875 C 1.03125 -1.71875 0.640625 -2.785156 0.640625 -4.171875 C 0.640625 -5.597656 1 -6.691406 1.71875 -7.453125 C 2.445312 -8.222656 3.476562 -8.609375 4.8125 -8.609375 C 6.09375 -8.609375 7.078125 -8.273438 7.765625 -7.609375 C 8.460938 -6.953125 8.8125 -6 8.8125 -4.75 L 8.8125 -3.4375 L 3.59375 -3.4375 C 3.613281 -2.96875 3.785156 -2.597656 4.109375 -2.328125 C 4.429688 -2.054688 4.875 -1.921875 5.4375 -1.921875 C 5.957031 -1.921875 6.429688 -1.96875 6.859375 -2.0625 C 7.285156 -2.164062 7.753906 -2.332031 8.265625 -2.5625 L 8.265625 -0.46875 C 7.804688 -0.238281 7.332031 -0.078125 6.84375 0.015625 C 6.351562 0.109375 5.769531 0.15625 5.09375 0.15625 Z M 4.921875 -6.625 C 4.578125 -6.625 4.289062 -6.515625 4.0625 -6.296875 C 3.832031 -6.078125 3.695312 -5.738281 3.65625 -5.28125 L 6.15625 -5.28125 C 6.144531 -5.6875 6.03125 -6.007812 5.8125 -6.25 C 5.59375 -6.5 5.296875 -6.625 4.921875 -6.625 Z M 4.921875 -6.625 "/></g></g></g><g fill="rgb(100%, 100%, 100%)" fill-opacity="1"><g transform="translate(153.335409, 31.544408)"><g><path d="M 5.15625 -2.15625 C 5.550781 -2.15625 6.019531 -2.253906 6.5625 -2.453125 L 6.5625 -0.328125 C 6.164062 -0.148438 5.789062 -0.0234375 5.4375 0.046875 C 5.082031 0.117188 4.664062 0.15625 4.1875 0.15625 C 3.207031 0.15625 2.5 -0.0820312 2.0625 -0.5625 C 1.632812 -1.050781 1.421875 -1.789062 1.421875 -2.78125 L 1.421875 -6.28125 L 0.390625 -6.28125 L 0.390625 -7.46875 L 1.703125 -8.375 L 2.453125 -10.15625 L 4.359375 -10.15625 L 4.359375 -8.46875 L 6.4375 -8.46875 L 6.4375 -6.28125 L 4.359375 -6.28125 L 4.359375 -2.984375 C 4.359375 -2.429688 4.625 -2.15625 5.15625 -2.15625 Z M 5.15625 -2.15625 "/></g></g></g><g fill="rgb(100%, 100%, 100%)" fill-opacity="1"><g transform="translate(160.367449, 31.544408)"><g><path d="M 5.09375 0.15625 C 3.6875 0.15625 2.59375 -0.21875 1.8125 -0.96875 C 1.03125 -1.71875 0.640625 -2.785156 0.640625 -4.171875 C 0.640625 -5.597656 1 -6.691406 1.71875 -7.453125 C 2.445312 -8.222656 3.476562 -8.609375 4.8125 -8.609375 C 6.09375 -8.609375 7.078125 -8.273438 7.765625 -7.609375 C 8.460938 -6.953125 8.8125 -6 8.8125 -4.75 L 8.8125 -3.4375 L 3.59375 -3.4375 C 3.613281 -2.96875 3.785156 -2.597656 4.109375 -2.328125 C 4.429688 -2.054688 4.875 -1.921875 5.4375 -1.921875 C 5.957031 -1.921875 6.429688 -1.96875 6.859375 -2.0625 C 7.285156 -2.164062 7.753906 -2.332031 8.265625 -2.5625 L 8.265625 -0.46875 C 7.804688 -0.238281 7.332031 -0.078125 6.84375 0.015625 C 6.351562 0.109375 5.769531 0.15625 5.09375 0.15625 Z M 4.921875 -6.625 C 4.578125 -6.625 4.289062 -6.515625 4.0625 -6.296875 C 3.832031 -6.078125 3.695312 -5.738281 3.65625 -5.28125 L 6.15625 -5.28125 C 6.144531 -5.6875 6.03125 -6.007812 5.8125 -6.25 C 5.59375 -6.5 5.296875 -6.625 4.921875 -6.625 Z M 4.921875 -6.625 "/></g></g></g><g fill="rgb(100%, 100%, 100%)" fill-opacity="1"><g transform="translate(169.818153, 31.544408)"><g/></g></g><g fill="rgb(100%, 100%, 100%)" fill-opacity="1"><g transform="translate(173.789539, 31.544408)"><g><path d="M 5.9375 0 L 3.703125 -7.859375 L 3.640625 -7.859375 C 3.742188 -6.523438 3.796875 -5.488281 3.796875 -4.75 L 3.796875 0 L 1.1875 0 L 1.1875 -10.921875 L 5.109375 -10.921875 L 7.390625 -3.171875 L 7.453125 -3.171875 L 9.6875 -10.921875 L 13.609375 -10.921875 L 13.609375 0 L 10.90625 0 L 10.90625 -4.78125 C 10.90625 -5.03125 10.90625 -5.304688 10.90625 -5.609375 C 10.914062 -5.921875 10.953125 -6.664062 11.015625 -7.84375 L 10.953125 -7.84375 L 8.75 0 Z M 5.9375 0 "/></g></g></g><g fill="rgb(100%, 100%, 100%)" fill-opacity="1"><g transform="translate(188.570261, 31.544408)"><g><path d="M 7.03125 0 L 6.671875 -1.046875 L 6.5 -1.046875 C 6.25 -0.660156 5.90625 -0.363281 5.46875 -0.15625 C 5.039062 0.0507812 4.53125 0.15625 3.9375 0.15625 C 3.007812 0.15625 2.285156 -0.113281 1.765625 -0.65625 C 1.253906 -1.195312 1 -1.960938 1 -2.953125 L 1 -8.46875 L 3.90625 -8.46875 L 3.90625 -3.84375 C 3.90625 -3.289062 3.984375 -2.867188 4.140625 -2.578125 C 4.304688 -2.296875 4.566406 -2.15625 4.921875 -2.15625 C 5.421875 -2.15625 5.773438 -2.351562 5.984375 -2.75 C 6.203125 -3.144531 6.3125 -3.816406 6.3125 -4.765625 L 6.3125 -8.46875 L 9.234375 -8.46875 L 9.234375 0 Z M 7.03125 0 "/></g></g></g><g fill="rgb(100%, 100%, 100%)" fill-opacity="1"><g transform="translate(198.812267, 31.544408)"><g><path d="M 3.9375 0 L 1.015625 0 L 1.015625 -8.46875 L 3.9375 -8.46875 Z M 0.953125 -10.5625 C 0.953125 -11 1.070312 -11.328125 1.3125 -11.546875 C 1.5625 -11.765625 1.957031 -11.875 2.5 -11.875 C 3.039062 -11.875 3.4375 -11.765625 3.6875 -11.546875 C 3.9375 -11.328125 4.0625 -11 4.0625 -10.5625 C 4.0625 -9.707031 3.539062 -9.28125 2.5 -9.28125 C 1.46875 -9.28125 0.953125 -9.707031 0.953125 -10.5625 Z M 0.953125 -10.5625 "/></g></g></g><g fill="rgb(100%, 100%, 100%)" fill-opacity="1"><g transform="translate(203.783964, 31.544408)"><g><path d="M 5.15625 -2.15625 C 5.550781 -2.15625 6.019531 -2.253906 6.5625 -2.453125 L 6.5625 -0.328125 C 6.164062 -0.148438 5.789062 -0.0234375 5.4375 0.046875 C 5.082031 0.117188 4.664062 0.15625 4.1875 0.15625 C 3.207031 0.15625 2.5 -0.0820312 2.0625 -0.5625 C 1.632812 -1.050781 1.421875 -1.789062 1.421875 -2.78125 L 1.421875 -6.28125 L 0.390625 -6.28125 L 0.390625 -7.46875 L 1.703125 -8.375 L 2.453125 -10.15625 L 4.359375 -10.15625 L 4.359375 -8.46875 L 6.4375 -8.46875 L 6.4375 -6.28125 L 4.359375 -6.28125 L 4.359375 -2.984375 C 4.359375 -2.429688 4.625 -2.15625 5.15625 -2.15625 Z M 5.15625 -2.15625 "/></g></g></g><g fill="rgb(100%, 100%, 100%)" fill-opacity="1"><g transform="translate(210.816004, 31.544408)"><g><path d="M 9.09375 -4.25 C 9.09375 -2.863281 8.71875 -1.78125 7.96875 -1 C 7.226562 -0.226562 6.1875 0.15625 4.84375 0.15625 C 3.5625 0.15625 2.539062 -0.238281 1.78125 -1.03125 C 1.019531 -1.820312 0.640625 -2.894531 0.640625 -4.25 C 0.640625 -5.625 1.007812 -6.691406 1.75 -7.453125 C 2.5 -8.222656 3.546875 -8.609375 4.890625 -8.609375 C 5.722656 -8.609375 6.457031 -8.429688 7.09375 -8.078125 C 7.726562 -7.722656 8.21875 -7.21875 8.5625 -6.5625 C 8.914062 -5.90625 9.09375 -5.132812 9.09375 -4.25 Z M 3.609375 -4.25 C 3.609375 -3.519531 3.703125 -2.960938 3.890625 -2.578125 C 4.085938 -2.203125 4.414062 -2.015625 4.875 -2.015625 C 5.332031 -2.015625 5.65625 -2.203125 5.84375 -2.578125 C 6.03125 -2.960938 6.125 -3.519531 6.125 -4.25 C 6.125 -4.96875 6.023438 -5.507812 5.828125 -5.875 C 5.640625 -6.25 5.316406 -6.4375 4.859375 -6.4375 C 4.410156 -6.4375 4.085938 -6.253906 3.890625 -5.890625 C 3.703125 -5.523438 3.609375 -4.976562 3.609375 -4.25 Z M 3.609375 -4.25 "/></g></g></g></svg>