<svg xmlns="http://www.w3.org/2000/svg" xmlns:xlink="http://www.w3.org/1999/xlink" width="250" zoomAndPan="magnify" viewBox="0 0 187.5 30.000001" height="40" preserveAspectRatio="xMidYMid meet" version="1.0"><defs><g><g id="id1"/></g></defs><g fill="rgb(100%, 100%, 100%)" fill-opacity="1"><g transform="translate(6.222613, 25.393841)"><g><path d="M 3.703125 -1.46875 C 3.703125 -1.164062 3.625 -0.898438 3.46875 -0.671875 C 3.3125 -0.441406 3.085938 -0.257812 2.796875 -0.125 C 2.515625 0 2.179688 0.0625 1.796875 0.0625 C 1.472656 0.0625 1.203125 0.0390625 0.984375 0 C 0.765625 -0.0390625 0.535156 -0.117188 0.296875 -0.234375 L 0.296875 -1.40625 C 0.546875 -1.28125 0.804688 -1.179688 1.078125 -1.109375 C 1.347656 -1.035156 1.597656 -1 1.828125 -1 C 2.015625 -1 2.15625 -1.03125 2.25 -1.09375 C 2.34375 -1.164062 2.390625 -1.253906 2.390625 -1.359375 C 2.390625 -1.421875 2.367188 -1.476562 2.328125 -1.53125 C 2.296875 -1.582031 2.238281 -1.632812 2.15625 -1.6875 C 2.070312 -1.738281 1.859375 -1.84375 1.515625 -2 C 1.191406 -2.144531 0.953125 -2.285156 0.796875 -2.421875 C 0.640625 -2.554688 0.519531 -2.707031 0.4375 -2.875 C 0.363281 -3.050781 0.328125 -3.257812 0.328125 -3.5 C 0.328125 -3.945312 0.488281 -4.296875 0.8125 -4.546875 C 1.144531 -4.796875 1.59375 -4.921875 2.15625 -4.921875 C 2.65625 -4.921875 3.171875 -4.804688 3.703125 -4.578125 L 3.296875 -3.5625 C 2.835938 -3.769531 2.445312 -3.875 2.125 -3.875 C 1.945312 -3.875 1.820312 -3.84375 1.75 -3.78125 C 1.675781 -3.71875 1.640625 -3.644531 1.640625 -3.5625 C 1.640625 -3.46875 1.6875 -3.378906 1.78125 -3.296875 C 1.875 -3.222656 2.140625 -3.085938 2.578125 -2.890625 C 2.992188 -2.703125 3.285156 -2.5 3.453125 -2.28125 C 3.617188 -2.070312 3.703125 -1.800781 3.703125 -1.46875 Z M 3.703125 -1.46875 "/></g></g><g transform="translate(10.142765, 25.393841)"><g><path d="M 1.75 0 L 0.453125 0 L 0.453125 -3.765625 L 1.75 -3.765625 Z M 0.421875 -4.703125 C 0.421875 -4.890625 0.472656 -5.03125 0.578125 -5.125 C 0.691406 -5.226562 0.867188 -5.28125 1.109375 -5.28125 C 1.347656 -5.28125 1.519531 -5.226562 1.625 -5.125 C 1.738281 -5.03125 1.796875 -4.890625 1.796875 -4.703125 C 1.796875 -4.316406 1.566406 -4.125 1.109375 -4.125 C 0.648438 -4.125 0.421875 -4.316406 0.421875 -4.703125 Z M 0.421875 -4.703125 "/></g></g><g transform="translate(12.351581, 25.393841)"><g><path d="M 5.0625 0 L 5.0625 -2.046875 C 5.0625 -2.296875 5.023438 -2.484375 4.953125 -2.609375 C 4.890625 -2.742188 4.78125 -2.8125 4.625 -2.8125 C 4.425781 -2.8125 4.28125 -2.722656 4.1875 -2.546875 C 4.09375 -2.378906 4.046875 -2.113281 4.046875 -1.75 L 4.046875 0 L 2.75 0 L 2.75 -2.046875 C 2.75 -2.296875 2.710938 -2.484375 2.640625 -2.609375 C 2.578125 -2.742188 2.472656 -2.8125 2.328125 -2.8125 C 2.128906 -2.8125 1.984375 -2.71875 1.890625 -2.53125 C 1.796875 -2.351562 1.75 -2.054688 1.75 -1.640625 L 1.75 0 L 0.453125 0 L 0.453125 -3.765625 L 1.421875 -3.765625 L 1.59375 -3.296875 L 1.671875 -3.296875 C 1.765625 -3.460938 1.90625 -3.59375 2.09375 -3.6875 C 2.289062 -3.78125 2.507812 -3.828125 2.75 -3.828125 C 3.289062 -3.828125 3.671875 -3.660156 3.890625 -3.328125 L 3.984375 -3.328125 C 4.097656 -3.484375 4.25 -3.601562 4.4375 -3.6875 C 4.625 -3.78125 4.832031 -3.828125 5.0625 -3.828125 C 5.5 -3.828125 5.820312 -3.710938 6.03125 -3.484375 C 6.25 -3.253906 6.359375 -2.910156 6.359375 -2.453125 L 6.359375 0 Z M 5.0625 0 "/></g></g><g transform="translate(19.143857, 25.393841)"><g><path d="M 2.703125 0.0625 C 2.515625 0.0625 2.34375 0.03125 2.1875 -0.03125 C 2.039062 -0.09375 1.894531 -0.207031 1.75 -0.375 L 1.6875 -0.375 C 1.726562 -0.101562 1.75 0.0625 1.75 0.125 L 1.75 1.640625 L 0.453125 1.640625 L 0.453125 -3.765625 L 1.5 -3.765625 L 1.6875 -3.28125 L 1.75 -3.28125 C 1.988281 -3.644531 2.320312 -3.828125 2.75 -3.828125 C 3.164062 -3.828125 3.488281 -3.65625 3.71875 -3.3125 C 3.957031 -2.96875 4.078125 -2.492188 4.078125 -1.890625 C 4.078125 -1.285156 3.953125 -0.804688 3.703125 -0.453125 C 3.460938 -0.109375 3.128906 0.0625 2.703125 0.0625 Z M 2.265625 -2.8125 C 2.078125 -2.8125 1.941406 -2.742188 1.859375 -2.609375 C 1.785156 -2.472656 1.75 -2.269531 1.75 -2 L 1.75 -1.890625 C 1.75 -1.566406 1.789062 -1.332031 1.875 -1.1875 C 1.957031 -1.050781 2.09375 -0.984375 2.28125 -0.984375 C 2.445312 -0.984375 2.566406 -1.050781 2.640625 -1.1875 C 2.722656 -1.332031 2.765625 -1.570312 2.765625 -1.90625 C 2.765625 -2.226562 2.722656 -2.457031 2.640625 -2.59375 C 2.566406 -2.738281 2.441406 -2.8125 2.265625 -2.8125 Z M 2.265625 -2.8125 "/></g></g><g transform="translate(23.511741, 25.393841)"><g><path d="M 1.75 0 L 0.453125 0 L 0.453125 -5.15625 L 1.75 -5.15625 Z M 1.75 0 "/></g></g><g transform="translate(25.707291, 25.393841)"><g><path d="M 2.265625 0.0625 C 1.640625 0.0625 1.148438 -0.101562 0.796875 -0.4375 C 0.453125 -0.769531 0.28125 -1.242188 0.28125 -1.859375 C 0.28125 -2.492188 0.441406 -2.976562 0.765625 -3.3125 C 1.085938 -3.65625 1.546875 -3.828125 2.140625 -3.828125 C 2.703125 -3.828125 3.140625 -3.675781 3.453125 -3.375 C 3.765625 -3.082031 3.921875 -2.660156 3.921875 -2.109375 L 3.921875 -1.53125 L 1.59375 -1.53125 C 1.601562 -1.320312 1.679688 -1.15625 1.828125 -1.03125 C 1.972656 -0.914062 2.171875 -0.859375 2.421875 -0.859375 C 2.648438 -0.859375 2.859375 -0.878906 3.046875 -0.921875 C 3.234375 -0.960938 3.441406 -1.035156 3.671875 -1.140625 L 3.671875 -0.203125 C 3.460938 -0.0976562 3.25 -0.03125 3.03125 0 C 2.820312 0.0390625 2.566406 0.0625 2.265625 0.0625 Z M 2.1875 -2.9375 C 2.03125 -2.9375 1.898438 -2.890625 1.796875 -2.796875 C 1.703125 -2.703125 1.644531 -2.550781 1.625 -2.34375 L 2.734375 -2.34375 C 2.734375 -2.53125 2.679688 -2.675781 2.578125 -2.78125 C 2.484375 -2.882812 2.351562 -2.9375 2.1875 -2.9375 Z M 2.1875 -2.9375 "/></g></g><g transform="translate(29.906032, 25.393841)"><g><path d="M 3.359375 -1.15625 C 3.359375 -0.75 3.21875 -0.441406 2.9375 -0.234375 C 2.664062 -0.0351562 2.273438 0.0625 1.765625 0.0625 C 1.484375 0.0625 1.238281 0.046875 1.03125 0.015625 C 0.820312 -0.00390625 0.613281 -0.0546875 0.40625 -0.140625 L 0.40625 -1.1875 C 0.601562 -1.09375 0.820312 -1.015625 1.0625 -0.953125 C 1.300781 -0.898438 1.515625 -0.875 1.703125 -0.875 C 1.984375 -0.875 2.125 -0.9375 2.125 -1.0625 C 2.125 -1.132812 2.082031 -1.195312 2 -1.25 C 1.925781 -1.300781 1.703125 -1.398438 1.328125 -1.546875 C 0.984375 -1.691406 0.738281 -1.851562 0.59375 -2.03125 C 0.457031 -2.207031 0.390625 -2.4375 0.390625 -2.71875 C 0.390625 -3.070312 0.523438 -3.34375 0.796875 -3.53125 C 1.066406 -3.726562 1.445312 -3.828125 1.9375 -3.828125 C 2.1875 -3.828125 2.421875 -3.796875 2.640625 -3.734375 C 2.859375 -3.679688 3.085938 -3.609375 3.328125 -3.515625 L 2.96875 -2.671875 C 2.800781 -2.742188 2.617188 -2.804688 2.421875 -2.859375 C 2.234375 -2.921875 2.078125 -2.953125 1.953125 -2.953125 C 1.742188 -2.953125 1.640625 -2.898438 1.640625 -2.796875 C 1.640625 -2.734375 1.675781 -2.675781 1.75 -2.625 C 1.820312 -2.582031 2.035156 -2.492188 2.390625 -2.359375 C 2.648438 -2.242188 2.84375 -2.132812 2.96875 -2.03125 C 3.101562 -1.925781 3.203125 -1.800781 3.265625 -1.65625 C 3.328125 -1.519531 3.359375 -1.351562 3.359375 -1.15625 Z M 3.359375 -1.15625 "/></g></g><g transform="translate(33.527695, 25.393841)"><g/></g><g transform="translate(35.292094, 25.393841)"><g><path d="M 3.25 -4.859375 L 4.71875 -4.859375 L 3.125 0 L 1.578125 0 L 0 -4.859375 L 1.46875 -4.859375 L 2.140625 -2.390625 C 2.273438 -1.847656 2.347656 -1.46875 2.359375 -1.25 C 2.378906 -1.40625 2.410156 -1.597656 2.453125 -1.828125 C 2.492188 -2.066406 2.535156 -2.25 2.578125 -2.375 Z M 3.25 -4.859375 "/></g></g><g transform="translate(40.004899, 25.393841)"><g><path d="M 1.75 0 L 0.453125 0 L 0.453125 -3.765625 L 1.75 -3.765625 Z M 0.421875 -4.703125 C 0.421875 -4.890625 0.472656 -5.03125 0.578125 -5.125 C 0.691406 -5.226562 0.867188 -5.28125 1.109375 -5.28125 C 1.347656 -5.28125 1.519531 -5.226562 1.625 -5.125 C 1.738281 -5.03125 1.796875 -4.890625 1.796875 -4.703125 C 1.796875 -4.316406 1.566406 -4.125 1.109375 -4.125 C 0.648438 -4.125 0.421875 -4.316406 0.421875 -4.703125 Z M 0.421875 -4.703125 "/></g></g><g transform="translate(42.213715, 25.393841)"><g><path d="M 2.296875 -0.953125 C 2.460938 -0.953125 2.671875 -1 2.921875 -1.09375 L 2.921875 -0.140625 C 2.742188 -0.0664062 2.578125 -0.015625 2.421875 0.015625 C 2.265625 0.046875 2.078125 0.0625 1.859375 0.0625 C 1.421875 0.0625 1.101562 -0.0390625 0.90625 -0.25 C 0.71875 -0.46875 0.625 -0.796875 0.625 -1.234375 L 0.625 -2.78125 L 0.171875 -2.78125 L 0.171875 -3.3125 L 0.75 -3.71875 L 1.09375 -4.515625 L 1.9375 -4.515625 L 1.9375 -3.765625 L 2.859375 -3.765625 L 2.859375 -2.78125 L 1.9375 -2.78125 L 1.9375 -1.328125 C 1.9375 -1.078125 2.054688 -0.953125 2.296875 -0.953125 Z M 2.296875 -0.953125 "/></g></g><g transform="translate(45.337897, 25.393841)"><g><path d="M 2.90625 0 L 2.65625 -0.5 L 2.625 -0.5 C 2.445312 -0.28125 2.265625 -0.128906 2.078125 -0.046875 C 1.898438 0.0234375 1.671875 0.0625 1.390625 0.0625 C 1.035156 0.0625 0.753906 -0.0390625 0.546875 -0.25 C 0.347656 -0.46875 0.25 -0.765625 0.25 -1.140625 C 0.25 -1.546875 0.382812 -1.847656 0.65625 -2.046875 C 0.9375 -2.242188 1.34375 -2.351562 1.875 -2.375 L 2.5 -2.390625 L 2.5 -2.453125 C 2.5 -2.753906 2.347656 -2.90625 2.046875 -2.90625 C 1.773438 -2.90625 1.425781 -2.8125 1 -2.625 L 0.625 -3.484375 C 1.0625 -3.710938 1.613281 -3.828125 2.28125 -3.828125 C 2.757812 -3.828125 3.128906 -3.707031 3.390625 -3.46875 C 3.660156 -3.226562 3.796875 -2.894531 3.796875 -2.46875 L 3.796875 0 Z M 1.9375 -0.84375 C 2.09375 -0.84375 2.226562 -0.890625 2.34375 -0.984375 C 2.457031 -1.085938 2.515625 -1.222656 2.515625 -1.390625 L 2.515625 -1.671875 L 2.203125 -1.671875 C 1.773438 -1.648438 1.5625 -1.488281 1.5625 -1.1875 C 1.5625 -0.957031 1.6875 -0.84375 1.9375 -0.84375 Z M 1.9375 -0.84375 "/></g></g><g transform="translate(49.569803, 25.393841)"><g><path d="M 5.0625 0 L 5.0625 -2.046875 C 5.0625 -2.296875 5.023438 -2.484375 4.953125 -2.609375 C 4.890625 -2.742188 4.78125 -2.8125 4.625 -2.8125 C 4.425781 -2.8125 4.28125 -2.722656 4.1875 -2.546875 C 4.09375 -2.378906 4.046875 -2.113281 4.046875 -1.75 L 4.046875 0 L 2.75 0 L 2.75 -2.046875 C 2.75 -2.296875 2.710938 -2.484375 2.640625 -2.609375 C 2.578125 -2.742188 2.472656 -2.8125 2.328125 -2.8125 C 2.128906 -2.8125 1.984375 -2.71875 1.890625 -2.53125 C 1.796875 -2.351562 1.75 -2.054688 1.75 -1.640625 L 1.75 0 L 0.453125 0 L 0.453125 -3.765625 L 1.421875 -3.765625 L 1.59375 -3.296875 L 1.671875 -3.296875 C 1.765625 -3.460938 1.90625 -3.59375 2.09375 -3.6875 C 2.289062 -3.78125 2.507812 -3.828125 2.75 -3.828125 C 3.289062 -3.828125 3.671875 -3.660156 3.890625 -3.328125 L 3.984375 -3.328125 C 4.097656 -3.484375 4.25 -3.601562 4.4375 -3.6875 C 4.625 -3.78125 4.832031 -3.828125 5.0625 -3.828125 C 5.5 -3.828125 5.820312 -3.710938 6.03125 -3.484375 C 6.25 -3.253906 6.359375 -2.910156 6.359375 -2.453125 L 6.359375 0 Z M 5.0625 0 "/></g></g><g transform="translate(56.362079, 25.393841)"><g><path d="M 1.75 0 L 0.453125 0 L 0.453125 -3.765625 L 1.75 -3.765625 Z M 0.421875 -4.703125 C 0.421875 -4.890625 0.472656 -5.03125 0.578125 -5.125 C 0.691406 -5.226562 0.867188 -5.28125 1.109375 -5.28125 C 1.347656 -5.28125 1.519531 -5.226562 1.625 -5.125 C 1.738281 -5.03125 1.796875 -4.890625 1.796875 -4.703125 C 1.796875 -4.316406 1.566406 -4.125 1.109375 -4.125 C 0.648438 -4.125 0.421875 -4.316406 0.421875 -4.703125 Z M 0.421875 -4.703125 "/></g></g><g transform="translate(58.570895, 25.393841)"><g><path d="M 2.828125 0 L 2.828125 -2.046875 C 2.828125 -2.296875 2.789062 -2.484375 2.71875 -2.609375 C 2.644531 -2.742188 2.523438 -2.8125 2.359375 -2.8125 C 2.140625 -2.8125 1.984375 -2.722656 1.890625 -2.546875 C 1.796875 -2.367188 1.75 -2.066406 1.75 -1.640625 L 1.75 0 L 0.453125 0 L 0.453125 -3.765625 L 1.421875 -3.765625 L 1.59375 -3.296875 L 1.671875 -3.296875 C 1.773438 -3.472656 1.925781 -3.601562 2.125 -3.6875 C 2.320312 -3.78125 2.546875 -3.828125 2.796875 -3.828125 C 3.210938 -3.828125 3.535156 -3.707031 3.765625 -3.46875 C 4.003906 -3.226562 4.125 -2.890625 4.125 -2.453125 L 4.125 0 Z M 2.828125 0 "/></g></g><g transform="translate(63.121189, 25.393841)"><g><path d="M 2.90625 0 L 2.65625 -0.5 L 2.625 -0.5 C 2.445312 -0.28125 2.265625 -0.128906 2.078125 -0.046875 C 1.898438 0.0234375 1.671875 0.0625 1.390625 0.0625 C 1.035156 0.0625 0.753906 -0.0390625 0.546875 -0.25 C 0.347656 -0.46875 0.25 -0.765625 0.25 -1.140625 C 0.25 -1.546875 0.382812 -1.847656 0.65625 -2.046875 C 0.9375 -2.242188 1.34375 -2.351562 1.875 -2.375 L 2.5 -2.390625 L 2.5 -2.453125 C 2.5 -2.753906 2.347656 -2.90625 2.046875 -2.90625 C 1.773438 -2.90625 1.425781 -2.8125 1 -2.625 L 0.625 -3.484375 C 1.0625 -3.710938 1.613281 -3.828125 2.28125 -3.828125 C 2.757812 -3.828125 3.128906 -3.707031 3.390625 -3.46875 C 3.660156 -3.226562 3.796875 -2.894531 3.796875 -2.46875 L 3.796875 0 Z M 1.9375 -0.84375 C 2.09375 -0.84375 2.226562 -0.890625 2.34375 -0.984375 C 2.457031 -1.085938 2.515625 -1.222656 2.515625 -1.390625 L 2.515625 -1.671875 L 2.203125 -1.671875 C 1.773438 -1.648438 1.5625 -1.488281 1.5625 -1.1875 C 1.5625 -0.957031 1.6875 -0.84375 1.9375 -0.84375 Z M 1.9375 -0.84375 "/></g></g><g transform="translate(67.353095, 25.393841)"><g/></g><g transform="translate(69.117495, 25.393841)"><g><path d="M 1.609375 0.0625 C 1.347656 0.0625 1.113281 -0.0078125 0.90625 -0.15625 C 0.707031 -0.3125 0.550781 -0.535156 0.4375 -0.828125 C 0.332031 -1.128906 0.28125 -1.476562 0.28125 -1.875 C 0.28125 -2.488281 0.398438 -2.96875 0.640625 -3.3125 C 0.890625 -3.65625 1.234375 -3.828125 1.671875 -3.828125 C 1.878906 -3.828125 2.0625 -3.785156 2.21875 -3.703125 C 2.375 -3.617188 2.519531 -3.476562 2.65625 -3.28125 L 2.671875 -3.28125 C 2.628906 -3.570312 2.609375 -3.863281 2.609375 -4.15625 L 2.609375 -5.15625 L 3.921875 -5.15625 L 3.921875 0 L 2.9375 0 L 2.671875 -0.46875 L 2.609375 -0.46875 C 2.390625 -0.113281 2.054688 0.0625 1.609375 0.0625 Z M 2.140625 -0.953125 C 2.347656 -0.953125 2.492188 -1.015625 2.578125 -1.140625 C 2.671875 -1.273438 2.71875 -1.484375 2.71875 -1.765625 L 2.71875 -1.859375 C 2.71875 -2.191406 2.671875 -2.425781 2.578125 -2.5625 C 2.484375 -2.707031 2.335938 -2.78125 2.140625 -2.78125 C 1.960938 -2.78125 1.828125 -2.695312 1.734375 -2.53125 C 1.640625 -2.375 1.59375 -2.148438 1.59375 -1.859375 C 1.59375 -1.566406 1.640625 -1.34375 1.734375 -1.1875 C 1.828125 -1.03125 1.960938 -0.953125 2.140625 -0.953125 Z M 2.140625 -0.953125 "/></g></g><g transform="translate(73.485379, 25.393841)"><g><path d="M 2.265625 0.0625 C 1.640625 0.0625 1.148438 -0.101562 0.796875 -0.4375 C 0.453125 -0.769531 0.28125 -1.242188 0.28125 -1.859375 C 0.28125 -2.492188 0.441406 -2.976562 0.765625 -3.3125 C 1.085938 -3.65625 1.546875 -3.828125 2.140625 -3.828125 C 2.703125 -3.828125 3.140625 -3.675781 3.453125 -3.375 C 3.765625 -3.082031 3.921875 -2.660156 3.921875 -2.109375 L 3.921875 -1.53125 L 1.59375 -1.53125 C 1.601562 -1.320312 1.679688 -1.15625 1.828125 -1.03125 C 1.972656 -0.914062 2.171875 -0.859375 2.421875 -0.859375 C 2.648438 -0.859375 2.859375 -0.878906 3.046875 -0.921875 C 3.234375 -0.960938 3.441406 -1.035156 3.671875 -1.140625 L 3.671875 -0.203125 C 3.460938 -0.0976562 3.25 -0.03125 3.03125 0 C 2.820312 0.0390625 2.566406 0.0625 2.265625 0.0625 Z M 2.1875 -2.9375 C 2.03125 -2.9375 1.898438 -2.890625 1.796875 -2.796875 C 1.703125 -2.703125 1.644531 -2.550781 1.625 -2.34375 L 2.734375 -2.34375 C 2.734375 -2.53125 2.679688 -2.675781 2.578125 -2.78125 C 2.484375 -2.882812 2.351562 -2.9375 2.1875 -2.9375 Z M 2.1875 -2.9375 "/></g></g><g transform="translate(77.68412, 25.393841)"><g/></g><g transform="translate(79.44852, 25.393841)"><g><path d="M 0.234375 -2.046875 C 0.234375 -2.722656 0.328125 -3.269531 0.515625 -3.6875 C 0.710938 -4.113281 1 -4.425781 1.375 -4.625 C 1.75 -4.820312 2.21875 -4.921875 2.78125 -4.921875 C 2.96875 -4.921875 3.195312 -4.898438 3.46875 -4.859375 L 3.46875 -3.84375 C 3.25 -3.882812 3.007812 -3.90625 2.75 -3.90625 C 2.3125 -3.90625 1.984375 -3.804688 1.765625 -3.609375 C 1.546875 -3.421875 1.425781 -3.109375 1.40625 -2.671875 L 1.453125 -2.671875 C 1.648438 -3.046875 1.96875 -3.234375 2.40625 -3.234375 C 2.84375 -3.234375 3.179688 -3.09375 3.421875 -2.8125 C 3.660156 -2.539062 3.78125 -2.15625 3.78125 -1.65625 C 3.78125 -1.125 3.628906 -0.703125 3.328125 -0.390625 C 3.023438 -0.0859375 2.601562 0.0625 2.0625 0.0625 C 1.488281 0.0625 1.039062 -0.117188 0.71875 -0.484375 C 0.394531 -0.859375 0.234375 -1.378906 0.234375 -2.046875 Z M 2.03125 -0.96875 C 2.164062 -0.96875 2.273438 -1.019531 2.359375 -1.125 C 2.453125 -1.226562 2.5 -1.398438 2.5 -1.640625 C 2.5 -2.023438 2.347656 -2.21875 2.046875 -2.21875 C 1.890625 -2.21875 1.765625 -2.164062 1.671875 -2.0625 C 1.578125 -1.96875 1.53125 -1.847656 1.53125 -1.703125 C 1.53125 -1.484375 1.578125 -1.304688 1.671875 -1.171875 C 1.765625 -1.035156 1.882812 -0.96875 2.03125 -0.96875 Z M 2.03125 -0.96875 "/></g></g><g transform="translate(83.428369, 25.393841)"><g/></g><g transform="translate(85.192769, 25.393841)"><g><path d="M 0.53125 0 L 0.53125 -4.859375 L 1.84375 -4.859375 L 1.84375 0 Z M 0.53125 0 "/></g></g><g transform="translate(87.557463, 25.393841)"><g><path d="M 2.828125 0 L 2.828125 -2.046875 C 2.828125 -2.296875 2.789062 -2.484375 2.71875 -2.609375 C 2.644531 -2.742188 2.523438 -2.8125 2.359375 -2.8125 C 2.140625 -2.8125 1.984375 -2.722656 1.890625 -2.546875 C 1.796875 -2.367188 1.75 -2.066406 1.75 -1.640625 L 1.75 0 L 0.453125 0 L 0.453125 -3.765625 L 1.421875 -3.765625 L 1.59375 -3.296875 L 1.671875 -3.296875 C 1.773438 -3.472656 1.925781 -3.601562 2.125 -3.6875 C 2.320312 -3.78125 2.546875 -3.828125 2.796875 -3.828125 C 3.210938 -3.828125 3.535156 -3.707031 3.765625 -3.46875 C 4.003906 -3.226562 4.125 -2.890625 4.125 -2.453125 L 4.125 0 Z M 2.828125 0 "/></g></g><g transform="translate(92.107757, 25.393841)"><g><path d="M 4 -3.765625 L 4 -3.140625 L 3.484375 -2.9375 C 3.554688 -2.8125 3.59375 -2.664062 3.59375 -2.5 C 3.59375 -2.09375 3.445312 -1.773438 3.15625 -1.546875 C 2.875 -1.328125 2.453125 -1.21875 1.890625 -1.21875 C 1.742188 -1.21875 1.632812 -1.226562 1.5625 -1.25 C 1.53125 -1.1875 1.515625 -1.128906 1.515625 -1.078125 C 1.515625 -1.015625 1.566406 -0.960938 1.671875 -0.921875 C 1.773438 -0.890625 1.910156 -0.875 2.078125 -0.875 L 2.703125 -0.875 C 3.546875 -0.875 3.96875 -0.519531 3.96875 0.1875 C 3.96875 0.644531 3.769531 1 3.375 1.25 C 2.988281 1.507812 2.441406 1.640625 1.734375 1.640625 C 1.203125 1.640625 0.789062 1.546875 0.5 1.359375 C 0.207031 1.179688 0.0625 0.925781 0.0625 0.59375 C 0.0625 0.144531 0.34375 -0.140625 0.90625 -0.265625 C 0.789062 -0.316406 0.6875 -0.394531 0.59375 -0.5 C 0.507812 -0.613281 0.46875 -0.722656 0.46875 -0.828125 C 0.46875 -0.941406 0.5 -1.046875 0.5625 -1.140625 C 0.632812 -1.234375 0.769531 -1.335938 0.96875 -1.453125 C 0.78125 -1.546875 0.628906 -1.679688 0.515625 -1.859375 C 0.398438 -2.046875 0.34375 -2.269531 0.34375 -2.53125 C 0.34375 -2.945312 0.484375 -3.265625 0.765625 -3.484375 C 1.046875 -3.710938 1.441406 -3.828125 1.953125 -3.828125 C 2.023438 -3.828125 2.144531 -3.816406 2.3125 -3.796875 C 2.476562 -3.785156 2.601562 -3.773438 2.6875 -3.765625 Z M 1.15625 0.46875 C 1.15625 0.570312 1.210938 0.65625 1.328125 0.71875 C 1.441406 0.789062 1.597656 0.828125 1.796875 0.828125 C 2.109375 0.828125 2.359375 0.785156 2.546875 0.703125 C 2.734375 0.628906 2.828125 0.53125 2.828125 0.40625 C 2.828125 0.300781 2.769531 0.226562 2.65625 0.1875 C 2.539062 0.144531 2.378906 0.125 2.171875 0.125 L 1.65625 0.125 C 1.519531 0.125 1.398438 0.15625 1.296875 0.21875 C 1.203125 0.289062 1.15625 0.375 1.15625 0.46875 Z M 1.5625 -2.53125 C 1.5625 -2.144531 1.695312 -1.953125 1.96875 -1.953125 C 2.09375 -1.953125 2.1875 -2 2.25 -2.09375 C 2.320312 -2.1875 2.359375 -2.328125 2.359375 -2.515625 C 2.359375 -2.910156 2.226562 -3.109375 1.96875 -3.109375 C 1.695312 -3.109375 1.5625 -2.914062 1.5625 -2.53125 Z M 1.5625 -2.53125 "/></g></g><g transform="translate(96.223584, 25.393841)"><g><path d="M 2.71875 -3.828125 C 2.832031 -3.828125 2.941406 -3.816406 3.046875 -3.796875 L 3.109375 -3.78125 L 3 -2.5625 C 2.894531 -2.59375 2.75 -2.609375 2.5625 -2.609375 C 2.269531 -2.609375 2.0625 -2.539062 1.9375 -2.40625 C 1.8125 -2.28125 1.75 -2.09375 1.75 -1.84375 L 1.75 0 L 0.453125 0 L 0.453125 -3.765625 L 1.40625 -3.765625 L 1.609375 -3.15625 L 1.671875 -3.15625 C 1.785156 -3.351562 1.9375 -3.515625 2.125 -3.640625 C 2.320312 -3.765625 2.519531 -3.828125 2.71875 -3.828125 Z M 2.71875 -3.828125 "/></g></g><g transform="translate(99.41078, 25.393841)"><g><path d="M 2.265625 0.0625 C 1.640625 0.0625 1.148438 -0.101562 0.796875 -0.4375 C 0.453125 -0.769531 0.28125 -1.242188 0.28125 -1.859375 C 0.28125 -2.492188 0.441406 -2.976562 0.765625 -3.3125 C 1.085938 -3.65625 1.546875 -3.828125 2.140625 -3.828125 C 2.703125 -3.828125 3.140625 -3.675781 3.453125 -3.375 C 3.765625 -3.082031 3.921875 -2.660156 3.921875 -2.109375 L 3.921875 -1.53125 L 1.59375 -1.53125 C 1.601562 -1.320312 1.679688 -1.15625 1.828125 -1.03125 C 1.972656 -0.914062 2.171875 -0.859375 2.421875 -0.859375 C 2.648438 -0.859375 2.859375 -0.878906 3.046875 -0.921875 C 3.234375 -0.960938 3.441406 -1.035156 3.671875 -1.140625 L 3.671875 -0.203125 C 3.460938 -0.0976562 3.25 -0.03125 3.03125 0 C 2.820312 0.0390625 2.566406 0.0625 2.265625 0.0625 Z M 2.1875 -2.9375 C 2.03125 -2.9375 1.898438 -2.890625 1.796875 -2.796875 C 1.703125 -2.703125 1.644531 -2.550781 1.625 -2.34375 L 2.734375 -2.34375 C 2.734375 -2.53125 2.679688 -2.675781 2.578125 -2.78125 C 2.484375 -2.882812 2.351562 -2.9375 2.1875 -2.9375 Z M 2.1875 -2.9375 "/></g></g><g transform="translate(103.60952, 25.393841)"><g><path d="M 1.609375 0.0625 C 1.347656 0.0625 1.113281 -0.0078125 0.90625 -0.15625 C 0.707031 -0.3125 0.550781 -0.535156 0.4375 -0.828125 C 0.332031 -1.128906 0.28125 -1.476562 0.28125 -1.875 C 0.28125 -2.488281 0.398438 -2.96875 0.640625 -3.3125 C 0.890625 -3.65625 1.234375 -3.828125 1.671875 -3.828125 C 1.878906 -3.828125 2.0625 -3.785156 2.21875 -3.703125 C 2.375 -3.617188 2.519531 -3.476562 2.65625 -3.28125 L 2.671875 -3.28125 C 2.628906 -3.570312 2.609375 -3.863281 2.609375 -4.15625 L 2.609375 -5.15625 L 3.921875 -5.15625 L 3.921875 0 L 2.9375 0 L 2.671875 -0.46875 L 2.609375 -0.46875 C 2.390625 -0.113281 2.054688 0.0625 1.609375 0.0625 Z M 2.140625 -0.953125 C 2.347656 -0.953125 2.492188 -1.015625 2.578125 -1.140625 C 2.671875 -1.273438 2.71875 -1.484375 2.71875 -1.765625 L 2.71875 -1.859375 C 2.71875 -2.191406 2.671875 -2.425781 2.578125 -2.5625 C 2.484375 -2.707031 2.335938 -2.78125 2.140625 -2.78125 C 1.960938 -2.78125 1.828125 -2.695312 1.734375 -2.53125 C 1.640625 -2.375 1.59375 -2.148438 1.59375 -1.859375 C 1.59375 -1.566406 1.640625 -1.34375 1.734375 -1.1875 C 1.828125 -1.03125 1.960938 -0.953125 2.140625 -0.953125 Z M 2.140625 -0.953125 "/></g></g><g transform="translate(107.977405, 25.393841)"><g><path d="M 1.75 0 L 0.453125 0 L 0.453125 -3.765625 L 1.75 -3.765625 Z M 0.421875 -4.703125 C 0.421875 -4.890625 0.472656 -5.03125 0.578125 -5.125 C 0.691406 -5.226562 0.867188 -5.28125 1.109375 -5.28125 C 1.347656 -5.28125 1.519531 -5.226562 1.625 -5.125 C 1.738281 -5.03125 1.796875 -4.890625 1.796875 -4.703125 C 1.796875 -4.316406 1.566406 -4.125 1.109375 -4.125 C 0.648438 -4.125 0.421875 -4.316406 0.421875 -4.703125 Z M 0.421875 -4.703125 "/></g></g><g transform="translate(110.186221, 25.393841)"><g><path d="M 2.265625 0.0625 C 1.640625 0.0625 1.148438 -0.101562 0.796875 -0.4375 C 0.453125 -0.769531 0.28125 -1.242188 0.28125 -1.859375 C 0.28125 -2.492188 0.441406 -2.976562 0.765625 -3.3125 C 1.085938 -3.65625 1.546875 -3.828125 2.140625 -3.828125 C 2.703125 -3.828125 3.140625 -3.675781 3.453125 -3.375 C 3.765625 -3.082031 3.921875 -2.660156 3.921875 -2.109375 L 3.921875 -1.53125 L 1.59375 -1.53125 C 1.601562 -1.320312 1.679688 -1.15625 1.828125 -1.03125 C 1.972656 -0.914062 2.171875 -0.859375 2.421875 -0.859375 C 2.648438 -0.859375 2.859375 -0.878906 3.046875 -0.921875 C 3.234375 -0.960938 3.441406 -1.035156 3.671875 -1.140625 L 3.671875 -0.203125 C 3.460938 -0.0976562 3.25 -0.03125 3.03125 0 C 2.820312 0.0390625 2.566406 0.0625 2.265625 0.0625 Z M 2.1875 -2.9375 C 2.03125 -2.9375 1.898438 -2.890625 1.796875 -2.796875 C 1.703125 -2.703125 1.644531 -2.550781 1.625 -2.34375 L 2.734375 -2.34375 C 2.734375 -2.53125 2.679688 -2.675781 2.578125 -2.78125 C 2.484375 -2.882812 2.351562 -2.9375 2.1875 -2.9375 Z M 2.1875 -2.9375 "/></g></g><g transform="translate(114.384962, 25.393841)"><g><path d="M 2.828125 0 L 2.828125 -2.046875 C 2.828125 -2.296875 2.789062 -2.484375 2.71875 -2.609375 C 2.644531 -2.742188 2.523438 -2.8125 2.359375 -2.8125 C 2.140625 -2.8125 1.984375 -2.722656 1.890625 -2.546875 C 1.796875 -2.367188 1.75 -2.066406 1.75 -1.640625 L 1.75 0 L 0.453125 0 L 0.453125 -3.765625 L 1.421875 -3.765625 L 1.59375 -3.296875 L 1.671875 -3.296875 C 1.773438 -3.472656 1.925781 -3.601562 2.125 -3.6875 C 2.320312 -3.78125 2.546875 -3.828125 2.796875 -3.828125 C 3.210938 -3.828125 3.535156 -3.707031 3.765625 -3.46875 C 4.003906 -3.226562 4.125 -2.890625 4.125 -2.453125 L 4.125 0 Z M 2.828125 0 "/></g></g><g transform="translate(118.935256, 25.393841)"><g><path d="M 2.296875 -0.953125 C 2.460938 -0.953125 2.671875 -1 2.921875 -1.09375 L 2.921875 -0.140625 C 2.742188 -0.0664062 2.578125 -0.015625 2.421875 0.015625 C 2.265625 0.046875 2.078125 0.0625 1.859375 0.0625 C 1.421875 0.0625 1.101562 -0.0390625 0.90625 -0.25 C 0.71875 -0.46875 0.625 -0.796875 0.625 -1.234375 L 0.625 -2.78125 L 0.171875 -2.78125 L 0.171875 -3.3125 L 0.75 -3.71875 L 1.09375 -4.515625 L 1.9375 -4.515625 L 1.9375 -3.765625 L 2.859375 -3.765625 L 2.859375 -2.78125 L 1.9375 -2.78125 L 1.9375 -1.328125 C 1.9375 -1.078125 2.054688 -0.953125 2.296875 -0.953125 Z M 2.296875 -0.953125 "/></g></g><g transform="translate(122.059437, 25.393841)"><g><path d="M 2.265625 0.0625 C 1.640625 0.0625 1.148438 -0.101562 0.796875 -0.4375 C 0.453125 -0.769531 0.28125 -1.242188 0.28125 -1.859375 C 0.28125 -2.492188 0.441406 -2.976562 0.765625 -3.3125 C 1.085938 -3.65625 1.546875 -3.828125 2.140625 -3.828125 C 2.703125 -3.828125 3.140625 -3.675781 3.453125 -3.375 C 3.765625 -3.082031 3.921875 -2.660156 3.921875 -2.109375 L 3.921875 -1.53125 L 1.59375 -1.53125 C 1.601562 -1.320312 1.679688 -1.15625 1.828125 -1.03125 C 1.972656 -0.914062 2.171875 -0.859375 2.421875 -0.859375 C 2.648438 -0.859375 2.859375 -0.878906 3.046875 -0.921875 C 3.234375 -0.960938 3.441406 -1.035156 3.671875 -1.140625 L 3.671875 -0.203125 C 3.460938 -0.0976562 3.25 -0.03125 3.03125 0 C 2.820312 0.0390625 2.566406 0.0625 2.265625 0.0625 Z M 2.1875 -2.9375 C 2.03125 -2.9375 1.898438 -2.890625 1.796875 -2.796875 C 1.703125 -2.703125 1.644531 -2.550781 1.625 -2.34375 L 2.734375 -2.34375 C 2.734375 -2.53125 2.679688 -2.675781 2.578125 -2.78125 C 2.484375 -2.882812 2.351562 -2.9375 2.1875 -2.9375 Z M 2.1875 -2.9375 "/></g></g><g transform="translate(126.258178, 25.393841)"><g><path d="M 3.359375 -1.15625 C 3.359375 -0.75 3.21875 -0.441406 2.9375 -0.234375 C 2.664062 -0.0351562 2.273438 0.0625 1.765625 0.0625 C 1.484375 0.0625 1.238281 0.046875 1.03125 0.015625 C 0.820312 -0.00390625 0.613281 -0.0546875 0.40625 -0.140625 L 0.40625 -1.1875 C 0.601562 -1.09375 0.820312 -1.015625 1.0625 -0.953125 C 1.300781 -0.898438 1.515625 -0.875 1.703125 -0.875 C 1.984375 -0.875 2.125 -0.9375 2.125 -1.0625 C 2.125 -1.132812 2.082031 -1.195312 2 -1.25 C 1.925781 -1.300781 1.703125 -1.398438 1.328125 -1.546875 C 0.984375 -1.691406 0.738281 -1.851562 0.59375 -2.03125 C 0.457031 -2.207031 0.390625 -2.4375 0.390625 -2.71875 C 0.390625 -3.070312 0.523438 -3.34375 0.796875 -3.53125 C 1.066406 -3.726562 1.445312 -3.828125 1.9375 -3.828125 C 2.1875 -3.828125 2.421875 -3.796875 2.640625 -3.734375 C 2.859375 -3.679688 3.085938 -3.609375 3.328125 -3.515625 L 2.96875 -2.671875 C 2.800781 -2.742188 2.617188 -2.804688 2.421875 -2.859375 C 2.234375 -2.921875 2.078125 -2.953125 1.953125 -2.953125 C 1.742188 -2.953125 1.640625 -2.898438 1.640625 -2.796875 C 1.640625 -2.734375 1.675781 -2.675781 1.75 -2.625 C 1.820312 -2.582031 2.035156 -2.492188 2.390625 -2.359375 C 2.648438 -2.242188 2.84375 -2.132812 2.96875 -2.03125 C 3.101562 -1.925781 3.203125 -1.800781 3.265625 -1.65625 C 3.328125 -1.519531 3.359375 -1.351562 3.359375 -1.15625 Z M 3.359375 -1.15625 "/></g></g><g transform="translate(129.879841, 25.393841)"><g/></g><g transform="translate(131.644241, 25.393841)"><g><path d="M 4.640625 -2.53125 C 4.640625 -1.71875 4.414062 -1.09375 3.96875 -0.65625 C 3.53125 -0.21875 2.90625 0 2.09375 0 L 0.53125 0 L 0.53125 -4.859375 L 2.203125 -4.859375 C 2.984375 -4.859375 3.582031 -4.65625 4 -4.25 C 4.425781 -3.851562 4.640625 -3.28125 4.640625 -2.53125 Z M 3.28125 -2.484375 C 3.28125 -2.929688 3.191406 -3.257812 3.015625 -3.46875 C 2.835938 -3.6875 2.570312 -3.796875 2.21875 -3.796875 L 1.828125 -3.796875 L 1.828125 -1.078125 L 2.125 -1.078125 C 2.519531 -1.078125 2.8125 -1.191406 3 -1.421875 C 3.1875 -1.648438 3.28125 -2.003906 3.28125 -2.484375 Z M 3.28125 -2.484375 "/></g></g><g transform="translate(136.629002, 25.393841)"><g><path d="M 2.265625 0.0625 C 1.640625 0.0625 1.148438 -0.101562 0.796875 -0.4375 C 0.453125 -0.769531 0.28125 -1.242188 0.28125 -1.859375 C 0.28125 -2.492188 0.441406 -2.976562 0.765625 -3.3125 C 1.085938 -3.65625 1.546875 -3.828125 2.140625 -3.828125 C 2.703125 -3.828125 3.140625 -3.675781 3.453125 -3.375 C 3.765625 -3.082031 3.921875 -2.660156 3.921875 -2.109375 L 3.921875 -1.53125 L 1.59375 -1.53125 C 1.601562 -1.320312 1.679688 -1.15625 1.828125 -1.03125 C 1.972656 -0.914062 2.171875 -0.859375 2.421875 -0.859375 C 2.648438 -0.859375 2.859375 -0.878906 3.046875 -0.921875 C 3.234375 -0.960938 3.441406 -1.035156 3.671875 -1.140625 L 3.671875 -0.203125 C 3.460938 -0.0976562 3.25 -0.03125 3.03125 0 C 2.820312 0.0390625 2.566406 0.0625 2.265625 0.0625 Z M 2.1875 -2.9375 C 2.03125 -2.9375 1.898438 -2.890625 1.796875 -2.796875 C 1.703125 -2.703125 1.644531 -2.550781 1.625 -2.34375 L 2.734375 -2.34375 C 2.734375 -2.53125 2.679688 -2.675781 2.578125 -2.78125 C 2.484375 -2.882812 2.351562 -2.9375 2.1875 -2.9375 Z M 2.1875 -2.9375 "/></g></g><g transform="translate(140.827742, 25.393841)"><g><path d="M 2.71875 -3.828125 C 2.832031 -3.828125 2.941406 -3.816406 3.046875 -3.796875 L 3.109375 -3.78125 L 3 -2.5625 C 2.894531 -2.59375 2.75 -2.609375 2.5625 -2.609375 C 2.269531 -2.609375 2.0625 -2.539062 1.9375 -2.40625 C 1.8125 -2.28125 1.75 -2.09375 1.75 -1.84375 L 1.75 0 L 0.453125 0 L 0.453125 -3.765625 L 1.40625 -3.765625 L 1.609375 -3.15625 L 1.671875 -3.15625 C 1.785156 -3.351562 1.9375 -3.515625 2.125 -3.640625 C 2.320312 -3.765625 2.519531 -3.828125 2.71875 -3.828125 Z M 2.71875 -3.828125 "/></g></g><g transform="translate(144.014938, 25.393841)"><g><path d="M 2.71875 -3.828125 C 2.832031 -3.828125 2.941406 -3.816406 3.046875 -3.796875 L 3.109375 -3.78125 L 3 -2.5625 C 2.894531 -2.59375 2.75 -2.609375 2.5625 -2.609375 C 2.269531 -2.609375 2.0625 -2.539062 1.9375 -2.40625 C 1.8125 -2.28125 1.75 -2.09375 1.75 -1.84375 L 1.75 0 L 0.453125 0 L 0.453125 -3.765625 L 1.40625 -3.765625 L 1.609375 -3.15625 L 1.671875 -3.15625 C 1.785156 -3.351562 1.9375 -3.515625 2.125 -3.640625 C 2.320312 -3.765625 2.519531 -3.828125 2.71875 -3.828125 Z M 2.71875 -3.828125 "/></g></g><g transform="translate(147.202134, 25.393841)"><g><path d="M 2.265625 0.0625 C 1.640625 0.0625 1.148438 -0.101562 0.796875 -0.4375 C 0.453125 -0.769531 0.28125 -1.242188 0.28125 -1.859375 C 0.28125 -2.492188 0.441406 -2.976562 0.765625 -3.3125 C 1.085938 -3.65625 1.546875 -3.828125 2.140625 -3.828125 C 2.703125 -3.828125 3.140625 -3.675781 3.453125 -3.375 C 3.765625 -3.082031 3.921875 -2.660156 3.921875 -2.109375 L 3.921875 -1.53125 L 1.59375 -1.53125 C 1.601562 -1.320312 1.679688 -1.15625 1.828125 -1.03125 C 1.972656 -0.914062 2.171875 -0.859375 2.421875 -0.859375 C 2.648438 -0.859375 2.859375 -0.878906 3.046875 -0.921875 C 3.234375 -0.960938 3.441406 -1.035156 3.671875 -1.140625 L 3.671875 -0.203125 C 3.460938 -0.0976562 3.25 -0.03125 3.03125 0 C 2.820312 0.0390625 2.566406 0.0625 2.265625 0.0625 Z M 2.1875 -2.9375 C 2.03125 -2.9375 1.898438 -2.890625 1.796875 -2.796875 C 1.703125 -2.703125 1.644531 -2.550781 1.625 -2.34375 L 2.734375 -2.34375 C 2.734375 -2.53125 2.679688 -2.675781 2.578125 -2.78125 C 2.484375 -2.882812 2.351562 -2.9375 2.1875 -2.9375 Z M 2.1875 -2.9375 "/></g></g><g transform="translate(151.400875, 25.393841)"><g><path d="M 2.296875 -0.953125 C 2.460938 -0.953125 2.671875 -1 2.921875 -1.09375 L 2.921875 -0.140625 C 2.742188 -0.0664062 2.578125 -0.015625 2.421875 0.015625 C 2.265625 0.046875 2.078125 0.0625 1.859375 0.0625 C 1.421875 0.0625 1.101562 -0.0390625 0.90625 -0.25 C 0.71875 -0.46875 0.625 -0.796875 0.625 -1.234375 L 0.625 -2.78125 L 0.171875 -2.78125 L 0.171875 -3.3125 L 0.75 -3.71875 L 1.09375 -4.515625 L 1.9375 -4.515625 L 1.9375 -3.765625 L 2.859375 -3.765625 L 2.859375 -2.78125 L 1.9375 -2.78125 L 1.9375 -1.328125 C 1.9375 -1.078125 2.054688 -0.953125 2.296875 -0.953125 Z M 2.296875 -0.953125 "/></g></g><g transform="translate(154.525056, 25.393841)"><g><path d="M 2.265625 0.0625 C 1.640625 0.0625 1.148438 -0.101562 0.796875 -0.4375 C 0.453125 -0.769531 0.28125 -1.242188 0.28125 -1.859375 C 0.28125 -2.492188 0.441406 -2.976562 0.765625 -3.3125 C 1.085938 -3.65625 1.546875 -3.828125 2.140625 -3.828125 C 2.703125 -3.828125 3.140625 -3.675781 3.453125 -3.375 C 3.765625 -3.082031 3.921875 -2.660156 3.921875 -2.109375 L 3.921875 -1.53125 L 1.59375 -1.53125 C 1.601562 -1.320312 1.679688 -1.15625 1.828125 -1.03125 C 1.972656 -0.914062 2.171875 -0.859375 2.421875 -0.859375 C 2.648438 -0.859375 2.859375 -0.878906 3.046875 -0.921875 C 3.234375 -0.960938 3.441406 -1.035156 3.671875 -1.140625 L 3.671875 -0.203125 C 3.460938 -0.0976562 3.25 -0.03125 3.03125 0 C 2.820312 0.0390625 2.566406 0.0625 2.265625 0.0625 Z M 2.1875 -2.9375 C 2.03125 -2.9375 1.898438 -2.890625 1.796875 -2.796875 C 1.703125 -2.703125 1.644531 -2.550781 1.625 -2.34375 L 2.734375 -2.34375 C 2.734375 -2.53125 2.679688 -2.675781 2.578125 -2.78125 C 2.484375 -2.882812 2.351562 -2.9375 2.1875 -2.9375 Z M 2.1875 -2.9375 "/></g></g><g transform="translate(158.723797, 25.393841)"><g/></g><g transform="translate(160.488197, 25.393841)"><g><path d="M 2.640625 0 L 1.640625 -3.5 L 1.609375 -3.5 C 1.660156 -2.90625 1.6875 -2.441406 1.6875 -2.109375 L 1.6875 0 L 0.53125 0 L 0.53125 -4.859375 L 2.265625 -4.859375 L 3.28125 -1.40625 L 3.3125 -1.40625 L 4.296875 -4.859375 L 6.046875 -4.859375 L 6.046875 0 L 4.84375 0 L 4.84375 -2.125 C 4.84375 -2.238281 4.84375 -2.363281 4.84375 -2.5 C 4.851562 -2.632812 4.867188 -2.960938 4.890625 -3.484375 L 4.859375 -3.484375 L 3.890625 0 Z M 2.640625 0 "/></g></g><g transform="translate(167.054948, 25.393841)"><g><path d="M 3.125 0 L 2.96875 -0.46875 L 2.890625 -0.46875 C 2.773438 -0.289062 2.617188 -0.15625 2.421875 -0.0625 C 2.234375 0.0195312 2.007812 0.0625 1.75 0.0625 C 1.332031 0.0625 1.007812 -0.0546875 0.78125 -0.296875 C 0.550781 -0.535156 0.4375 -0.875 0.4375 -1.3125 L 0.4375 -3.765625 L 1.734375 -3.765625 L 1.734375 -1.703125 C 1.734375 -1.460938 1.769531 -1.273438 1.84375 -1.140625 C 1.914062 -1.015625 2.03125 -0.953125 2.1875 -0.953125 C 2.40625 -0.953125 2.5625 -1.039062 2.65625 -1.21875 C 2.757812 -1.394531 2.8125 -1.691406 2.8125 -2.109375 L 2.8125 -3.765625 L 4.109375 -3.765625 L 4.109375 0 Z M 3.125 0 "/></g></g><g transform="translate(171.605242, 25.393841)"><g><path d="M 1.75 0 L 0.453125 0 L 0.453125 -3.765625 L 1.75 -3.765625 Z M 0.421875 -4.703125 C 0.421875 -4.890625 0.472656 -5.03125 0.578125 -5.125 C 0.691406 -5.226562 0.867188 -5.28125 1.109375 -5.28125 C 1.347656 -5.28125 1.519531 -5.226562 1.625 -5.125 C 1.738281 -5.03125 1.796875 -4.890625 1.796875 -4.703125 C 1.796875 -4.316406 1.566406 -4.125 1.109375 -4.125 C 0.648438 -4.125 0.421875 -4.316406 0.421875 -4.703125 Z M 0.421875 -4.703125 "/></g></g><g transform="translate(173.814058, 25.393841)"><g><path d="M 2.296875 -0.953125 C 2.460938 -0.953125 2.671875 -1 2.921875 -1.09375 L 2.921875 -0.140625 C 2.742188 -0.0664062 2.578125 -0.015625 2.421875 0.015625 C 2.265625 0.046875 2.078125 0.0625 1.859375 0.0625 C 1.421875 0.0625 1.101562 -0.0390625 0.90625 -0.25 C 0.71875 -0.46875 0.625 -0.796875 0.625 -1.234375 L 0.625 -2.78125 L 0.171875 -2.78125 L 0.171875 -3.3125 L 0.75 -3.71875 L 1.09375 -4.515625 L 1.9375 -4.515625 L 1.9375 -3.765625 L 2.859375 -3.765625 L 2.859375 -2.78125 L 1.9375 -2.78125 L 1.9375 -1.328125 C 1.9375 -1.078125 2.054688 -0.953125 2.296875 -0.953125 Z M 2.296875 -0.953125 "/></g></g><g transform="translate(176.93824, 25.393841)"><g><path d="M 4.03125 -1.890625 C 4.03125 -1.273438 3.863281 -0.796875 3.53125 -0.453125 C 3.207031 -0.109375 2.75 0.0625 2.15625 0.0625 C 1.582031 0.0625 1.125 -0.109375 0.78125 -0.453125 C 0.445312 -0.804688 0.28125 -1.285156 0.28125 -1.890625 C 0.28125 -2.503906 0.445312 -2.976562 0.78125 -3.3125 C 1.113281 -3.65625 1.578125 -3.828125 2.171875 -3.828125 C 2.546875 -3.828125 2.875 -3.75 3.15625 -3.59375 C 3.4375 -3.4375 3.648438 -3.207031 3.796875 -2.90625 C 3.953125 -2.613281 4.03125 -2.273438 4.03125 -1.890625 Z M 1.609375 -1.890625 C 1.609375 -1.566406 1.648438 -1.316406 1.734375 -1.140625 C 1.816406 -0.972656 1.960938 -0.890625 2.171875 -0.890625 C 2.367188 -0.890625 2.507812 -0.972656 2.59375 -1.140625 C 2.675781 -1.316406 2.71875 -1.566406 2.71875 -1.890625 C 2.71875 -2.210938 2.675781 -2.453125 2.59375 -2.609375 C 2.507812 -2.773438 2.363281 -2.859375 2.15625 -2.859375 C 1.957031 -2.859375 1.816406 -2.773438 1.734375 -2.609375 C 1.648438 -2.453125 1.609375 -2.210938 1.609375 -1.890625 Z M 1.609375 -1.890625 "/></g></g></g></svg>