<svg xmlns="http://www.w3.org/2000/svg" xmlns:xlink="http://www.w3.org/1999/xlink" width="300" zoomAndPan="magnify" viewBox="0 0 224.87999 37.5" height="50" preserveAspectRatio="xMidYMid meet" version="1.0"><defs><g><g id="id1"/></g></defs><g fill="rgb(100%, 100%, 100%)" fill-opacity="1"><g transform="translate(28.30785, 15.542763)"><g><path d="M 8.046875 -3.203125 C 8.046875 -2.546875 7.878906 -1.960938 7.546875 -1.453125 C 7.210938 -0.953125 6.734375 -0.5625 6.109375 -0.28125 C 5.484375 0 4.75 0.140625 3.90625 0.140625 C 3.207031 0.140625 2.617188 0.09375 2.140625 0 C 1.660156 -0.101562 1.164062 -0.273438 0.65625 -0.515625 L 0.65625 -3.0625 C 1.195312 -2.78125 1.757812 -2.5625 2.34375 -2.40625 C 2.9375 -2.25 3.476562 -2.171875 3.96875 -2.171875 C 4.394531 -2.171875 4.703125 -2.242188 4.890625 -2.390625 C 5.085938 -2.535156 5.1875 -2.726562 5.1875 -2.96875 C 5.1875 -3.101562 5.144531 -3.222656 5.0625 -3.328125 C 4.988281 -3.441406 4.863281 -3.554688 4.6875 -3.671875 C 4.507812 -3.785156 4.039062 -4.007812 3.28125 -4.34375 C 2.59375 -4.65625 2.078125 -4.957031 1.734375 -5.25 C 1.390625 -5.550781 1.132812 -5.890625 0.96875 -6.265625 C 0.800781 -6.648438 0.71875 -7.101562 0.71875 -7.625 C 0.71875 -8.59375 1.070312 -9.347656 1.78125 -9.890625 C 2.488281 -10.441406 3.460938 -10.71875 4.703125 -10.71875 C 5.796875 -10.71875 6.910156 -10.460938 8.046875 -9.953125 L 7.171875 -7.75 C 6.179688 -8.207031 5.328125 -8.4375 4.609375 -8.4375 C 4.242188 -8.4375 3.976562 -8.367188 3.8125 -8.234375 C 3.644531 -8.109375 3.5625 -7.945312 3.5625 -7.75 C 3.5625 -7.539062 3.664062 -7.351562 3.875 -7.1875 C 4.09375 -7.03125 4.675781 -6.734375 5.625 -6.296875 C 6.53125 -5.890625 7.160156 -5.453125 7.515625 -4.984375 C 7.867188 -4.515625 8.046875 -3.921875 8.046875 -3.203125 Z M 8.046875 -3.203125 "/></g></g><g transform="translate(36.851165, 15.542763)"><g><path d="M 3.8125 0 L 0.984375 0 L 0.984375 -8.1875 L 3.8125 -8.1875 Z M 0.921875 -10.21875 C 0.921875 -10.644531 1.035156 -10.960938 1.265625 -11.171875 C 1.503906 -11.378906 1.882812 -11.484375 2.40625 -11.484375 C 2.9375 -11.484375 3.320312 -11.375 3.5625 -11.15625 C 3.800781 -10.945312 3.921875 -10.632812 3.921875 -10.21875 C 3.921875 -9.394531 3.414062 -8.984375 2.40625 -8.984375 C 1.414062 -8.984375 0.921875 -9.394531 0.921875 -10.21875 Z M 0.921875 -10.21875 "/></g></g><g transform="translate(41.664911, 15.542763)"><g><path d="M 11.03125 0 L 11.03125 -4.453125 C 11.03125 -5.003906 10.953125 -5.414062 10.796875 -5.6875 C 10.640625 -5.96875 10.398438 -6.109375 10.078125 -6.109375 C 9.640625 -6.109375 9.320312 -5.921875 9.125 -5.546875 C 8.925781 -5.179688 8.828125 -4.601562 8.828125 -3.8125 L 8.828125 0 L 5.984375 0 L 5.984375 -4.453125 C 5.984375 -5.003906 5.910156 -5.414062 5.765625 -5.6875 C 5.628906 -5.96875 5.398438 -6.109375 5.078125 -6.109375 C 4.628906 -6.109375 4.300781 -5.910156 4.09375 -5.515625 C 3.894531 -5.117188 3.796875 -4.472656 3.796875 -3.578125 L 3.796875 0 L 0.96875 0 L 0.96875 -8.1875 L 3.109375 -8.1875 L 3.453125 -7.171875 L 3.625 -7.171875 C 3.84375 -7.546875 4.15625 -7.832031 4.5625 -8.03125 C 4.976562 -8.226562 5.445312 -8.328125 5.96875 -8.328125 C 7.15625 -8.328125 7.984375 -7.96875 8.453125 -7.25 L 8.6875 -7.25 C 8.914062 -7.59375 9.234375 -7.859375 9.640625 -8.046875 C 10.054688 -8.234375 10.515625 -8.328125 11.015625 -8.328125 C 11.984375 -8.328125 12.695312 -8.078125 13.15625 -7.578125 C 13.613281 -7.085938 13.84375 -6.335938 13.84375 -5.328125 L 13.84375 0 Z M 11.03125 0 "/></g></g><g transform="translate(56.467542, 15.542763)"><g><path d="M 5.890625 0.140625 C 5.472656 0.140625 5.097656 0.0703125 4.765625 -0.0625 C 4.441406 -0.195312 4.117188 -0.441406 3.796875 -0.796875 L 3.671875 -0.796875 C 3.753906 -0.222656 3.796875 0.128906 3.796875 0.265625 L 3.796875 3.5625 L 0.96875 3.5625 L 0.96875 -8.1875 L 3.265625 -8.1875 L 3.671875 -7.140625 L 3.796875 -7.140625 C 4.328125 -7.929688 5.050781 -8.328125 5.96875 -8.328125 C 6.875 -8.328125 7.582031 -7.953125 8.09375 -7.203125 C 8.613281 -6.453125 8.875 -5.421875 8.875 -4.109375 C 8.875 -2.785156 8.601562 -1.742188 8.0625 -0.984375 C 7.53125 -0.234375 6.804688 0.140625 5.890625 0.140625 Z M 4.9375 -6.109375 C 4.53125 -6.109375 4.242188 -5.957031 4.078125 -5.65625 C 3.910156 -5.363281 3.816406 -4.925781 3.796875 -4.34375 L 3.796875 -4.125 C 3.796875 -3.425781 3.890625 -2.914062 4.078125 -2.59375 C 4.265625 -2.28125 4.5625 -2.125 4.96875 -2.125 C 5.332031 -2.125 5.59375 -2.28125 5.75 -2.59375 C 5.914062 -2.90625 6 -3.421875 6 -4.140625 C 6 -4.835938 5.914062 -5.335938 5.75 -5.640625 C 5.59375 -5.953125 5.320312 -6.109375 4.9375 -6.109375 Z M 4.9375 -6.109375 "/></g></g><g transform="translate(65.986617, 15.542763)"><g><path d="M 3.796875 0 L 0.96875 0 L 0.96875 -11.234375 L 3.796875 -11.234375 Z M 3.796875 0 "/></g></g><g transform="translate(70.771452, 15.542763)"><g><path d="M 4.921875 0.140625 C 3.554688 0.140625 2.5 -0.21875 1.75 -0.9375 C 1 -1.664062 0.625 -2.695312 0.625 -4.03125 C 0.625 -5.414062 0.972656 -6.476562 1.671875 -7.21875 C 2.367188 -7.957031 3.363281 -8.328125 4.65625 -8.328125 C 5.894531 -8.328125 6.847656 -8.003906 7.515625 -7.359375 C 8.191406 -6.722656 8.53125 -5.800781 8.53125 -4.59375 L 8.53125 -3.328125 L 3.46875 -3.328125 C 3.488281 -2.867188 3.65625 -2.507812 3.96875 -2.25 C 4.289062 -1.988281 4.722656 -1.859375 5.265625 -1.859375 C 5.765625 -1.859375 6.222656 -1.90625 6.640625 -2 C 7.054688 -2.09375 7.503906 -2.253906 7.984375 -2.484375 L 7.984375 -0.453125 C 7.546875 -0.222656 7.085938 -0.0664062 6.609375 0.015625 C 6.140625 0.0976562 5.578125 0.140625 4.921875 0.140625 Z M 4.765625 -6.40625 C 4.429688 -6.40625 4.148438 -6.300781 3.921875 -6.09375 C 3.703125 -5.882812 3.570312 -5.554688 3.53125 -5.109375 L 5.953125 -5.109375 C 5.953125 -5.503906 5.84375 -5.816406 5.625 -6.046875 C 5.40625 -6.285156 5.117188 -6.40625 4.765625 -6.40625 Z M 4.765625 -6.40625 "/></g></g><g transform="translate(79.921906, 15.542763)"><g><path d="M 7.296875 -2.515625 C 7.296875 -1.640625 6.992188 -0.976562 6.390625 -0.53125 C 5.796875 -0.0820312 4.941406 0.140625 3.828125 0.140625 C 3.222656 0.140625 2.695312 0.109375 2.25 0.046875 C 1.800781 -0.015625 1.34375 -0.132812 0.875 -0.3125 L 0.875 -2.578125 C 1.3125 -2.378906 1.789062 -2.21875 2.3125 -2.09375 C 2.832031 -1.96875 3.300781 -1.90625 3.71875 -1.90625 C 4.320312 -1.90625 4.625 -2.046875 4.625 -2.328125 C 4.625 -2.472656 4.539062 -2.597656 4.375 -2.703125 C 4.207031 -2.816406 3.707031 -3.039062 2.875 -3.375 C 2.125 -3.6875 1.597656 -4.035156 1.296875 -4.421875 C 1.003906 -4.816406 0.859375 -5.316406 0.859375 -5.921875 C 0.859375 -6.679688 1.148438 -7.269531 1.734375 -7.6875 C 2.328125 -8.113281 3.160156 -8.328125 4.234375 -8.328125 C 4.773438 -8.328125 5.28125 -8.265625 5.75 -8.140625 C 6.226562 -8.023438 6.722656 -7.859375 7.234375 -7.640625 L 6.46875 -5.8125 C 6.09375 -5.976562 5.691406 -6.117188 5.265625 -6.234375 C 4.847656 -6.359375 4.507812 -6.421875 4.25 -6.421875 C 3.789062 -6.421875 3.5625 -6.304688 3.5625 -6.078125 C 3.5625 -5.941406 3.640625 -5.820312 3.796875 -5.71875 C 3.953125 -5.625 4.414062 -5.425781 5.1875 -5.125 C 5.757812 -4.882812 6.1875 -4.648438 6.46875 -4.421875 C 6.757812 -4.203125 6.96875 -3.9375 7.09375 -3.625 C 7.226562 -3.320312 7.296875 -2.953125 7.296875 -2.515625 Z M 7.296875 -2.515625 "/></g></g><g transform="translate(87.814715, 15.542763)"><g/></g><g transform="translate(91.65993, 15.542763)"><g><path d="M 7.078125 -10.5625 L 10.265625 -10.5625 L 6.8125 0 L 3.453125 0 L 0 -10.5625 L 3.203125 -10.5625 L 4.640625 -5.203125 C 4.941406 -4.015625 5.109375 -3.1875 5.140625 -2.71875 C 5.171875 -3.0625 5.234375 -3.484375 5.328125 -3.984375 C 5.429688 -4.492188 5.523438 -4.894531 5.609375 -5.1875 Z M 7.078125 -10.5625 "/></g></g><g transform="translate(101.930701, 15.542763)"><g><path d="M 3.8125 0 L 0.984375 0 L 0.984375 -8.1875 L 3.8125 -8.1875 Z M 0.921875 -10.21875 C 0.921875 -10.644531 1.035156 -10.960938 1.265625 -11.171875 C 1.503906 -11.378906 1.882812 -11.484375 2.40625 -11.484375 C 2.9375 -11.484375 3.320312 -11.375 3.5625 -11.15625 C 3.800781 -10.945312 3.921875 -10.632812 3.921875 -10.21875 C 3.921875 -9.394531 3.414062 -8.984375 2.40625 -8.984375 C 1.414062 -8.984375 0.921875 -9.394531 0.921875 -10.21875 Z M 0.921875 -10.21875 "/></g></g><g transform="translate(106.744447, 15.542763)"><g><path d="M 4.984375 -2.09375 C 5.367188 -2.09375 5.820312 -2.1875 6.34375 -2.375 L 6.34375 -0.3125 C 5.96875 -0.144531 5.609375 -0.03125 5.265625 0.03125 C 4.921875 0.101562 4.515625 0.140625 4.046875 0.140625 C 3.097656 0.140625 2.414062 -0.0859375 2 -0.546875 C 1.582031 -1.015625 1.375 -1.726562 1.375 -2.6875 L 1.375 -6.0625 L 0.390625 -6.0625 L 0.390625 -7.21875 L 1.640625 -8.109375 L 2.375 -9.828125 L 4.21875 -9.828125 L 4.21875 -8.1875 L 6.234375 -8.1875 L 6.234375 -6.0625 L 4.21875 -6.0625 L 4.21875 -2.875 C 4.21875 -2.351562 4.472656 -2.09375 4.984375 -2.09375 Z M 4.984375 -2.09375 "/></g></g><g transform="translate(113.553079, 15.542763)"><g><path d="M 6.3125 0 L 5.765625 -1.078125 L 5.71875 -1.078125 C 5.332031 -0.609375 4.941406 -0.285156 4.546875 -0.109375 C 4.148438 0.0546875 3.640625 0.140625 3.015625 0.140625 C 2.242188 0.140625 1.632812 -0.0859375 1.1875 -0.546875 C 0.75 -1.015625 0.53125 -1.664062 0.53125 -2.5 C 0.53125 -3.375 0.832031 -4.023438 1.4375 -4.453125 C 2.050781 -4.878906 2.929688 -5.117188 4.078125 -5.171875 L 5.453125 -5.203125 L 5.453125 -5.328125 C 5.453125 -6.003906 5.117188 -6.34375 4.453125 -6.34375 C 3.859375 -6.34375 3.097656 -6.140625 2.171875 -5.734375 L 1.359375 -7.59375 C 2.304688 -8.082031 3.507812 -8.328125 4.96875 -8.328125 C 6.019531 -8.328125 6.832031 -8.066406 7.40625 -7.546875 C 7.976562 -7.023438 8.265625 -6.300781 8.265625 -5.375 L 8.265625 0 Z M 4.21875 -1.84375 C 4.5625 -1.84375 4.851562 -1.953125 5.09375 -2.171875 C 5.34375 -2.390625 5.46875 -2.671875 5.46875 -3.015625 L 5.46875 -3.65625 L 4.8125 -3.625 C 3.882812 -3.59375 3.421875 -3.25 3.421875 -2.59375 C 3.421875 -2.09375 3.6875 -1.84375 4.21875 -1.84375 Z M 4.21875 -1.84375 "/></g></g><g transform="translate(122.775812, 15.542763)"><g><path d="M 11.03125 0 L 11.03125 -4.453125 C 11.03125 -5.003906 10.953125 -5.414062 10.796875 -5.6875 C 10.640625 -5.96875 10.398438 -6.109375 10.078125 -6.109375 C 9.640625 -6.109375 9.320312 -5.921875 9.125 -5.546875 C 8.925781 -5.179688 8.828125 -4.601562 8.828125 -3.8125 L 8.828125 0 L 5.984375 0 L 5.984375 -4.453125 C 5.984375 -5.003906 5.910156 -5.414062 5.765625 -5.6875 C 5.628906 -5.96875 5.398438 -6.109375 5.078125 -6.109375 C 4.628906 -6.109375 4.300781 -5.910156 4.09375 -5.515625 C 3.894531 -5.117188 3.796875 -4.472656 3.796875 -3.578125 L 3.796875 0 L 0.96875 0 L 0.96875 -8.1875 L 3.109375 -8.1875 L 3.453125 -7.171875 L 3.625 -7.171875 C 3.84375 -7.546875 4.15625 -7.832031 4.5625 -8.03125 C 4.976562 -8.226562 5.445312 -8.328125 5.96875 -8.328125 C 7.15625 -8.328125 7.984375 -7.96875 8.453125 -7.25 L 8.6875 -7.25 C 8.914062 -7.59375 9.234375 -7.859375 9.640625 -8.046875 C 10.054688 -8.234375 10.515625 -8.328125 11.015625 -8.328125 C 11.984375 -8.328125 12.695312 -8.078125 13.15625 -7.578125 C 13.613281 -7.085938 13.84375 -6.335938 13.84375 -5.328125 L 13.84375 0 Z M 11.03125 0 "/></g></g><g transform="translate(137.578443, 15.542763)"><g><path d="M 3.8125 0 L 0.984375 0 L 0.984375 -8.1875 L 3.8125 -8.1875 Z M 0.921875 -10.21875 C 0.921875 -10.644531 1.035156 -10.960938 1.265625 -11.171875 C 1.503906 -11.378906 1.882812 -11.484375 2.40625 -11.484375 C 2.9375 -11.484375 3.320312 -11.375 3.5625 -11.15625 C 3.800781 -10.945312 3.921875 -10.632812 3.921875 -10.21875 C 3.921875 -9.394531 3.414062 -8.984375 2.40625 -8.984375 C 1.414062 -8.984375 0.921875 -9.394531 0.921875 -10.21875 Z M 0.921875 -10.21875 "/></g></g><g transform="translate(142.392189, 15.542763)"><g><path d="M 6.140625 0 L 6.140625 -4.46875 C 6.140625 -5.007812 6.0625 -5.414062 5.90625 -5.6875 C 5.75 -5.96875 5.5 -6.109375 5.15625 -6.109375 C 4.675781 -6.109375 4.328125 -5.914062 4.109375 -5.53125 C 3.898438 -5.15625 3.796875 -4.503906 3.796875 -3.578125 L 3.796875 0 L 0.96875 0 L 0.96875 -8.1875 L 3.109375 -8.1875 L 3.453125 -7.171875 L 3.625 -7.171875 C 3.863281 -7.554688 4.195312 -7.84375 4.625 -8.03125 C 5.050781 -8.226562 5.539062 -8.328125 6.09375 -8.328125 C 7 -8.328125 7.703125 -8.0625 8.203125 -7.53125 C 8.710938 -7.007812 8.96875 -6.273438 8.96875 -5.328125 L 8.96875 0 Z M 6.140625 0 "/></g></g><g transform="translate(152.308796, 15.542763)"><g><path d="M 6.3125 0 L 5.765625 -1.078125 L 5.71875 -1.078125 C 5.332031 -0.609375 4.941406 -0.285156 4.546875 -0.109375 C 4.148438 0.0546875 3.640625 0.140625 3.015625 0.140625 C 2.242188 0.140625 1.632812 -0.0859375 1.1875 -0.546875 C 0.75 -1.015625 0.53125 -1.664062 0.53125 -2.5 C 0.53125 -3.375 0.832031 -4.023438 1.4375 -4.453125 C 2.050781 -4.878906 2.929688 -5.117188 4.078125 -5.171875 L 5.453125 -5.203125 L 5.453125 -5.328125 C 5.453125 -6.003906 5.117188 -6.34375 4.453125 -6.34375 C 3.859375 -6.34375 3.097656 -6.140625 2.171875 -5.734375 L 1.359375 -7.59375 C 2.304688 -8.082031 3.507812 -8.328125 4.96875 -8.328125 C 6.019531 -8.328125 6.832031 -8.066406 7.40625 -7.546875 C 7.976562 -7.023438 8.265625 -6.300781 8.265625 -5.375 L 8.265625 0 Z M 4.21875 -1.84375 C 4.5625 -1.84375 4.851562 -1.953125 5.09375 -2.171875 C 5.34375 -2.390625 5.46875 -2.671875 5.46875 -3.015625 L 5.46875 -3.65625 L 4.8125 -3.625 C 3.882812 -3.59375 3.421875 -3.25 3.421875 -2.59375 C 3.421875 -2.09375 3.6875 -1.84375 4.21875 -1.84375 Z M 4.21875 -1.84375 "/></g></g><g transform="translate(161.531529, 15.542763)"><g/></g><g transform="translate(165.376743, 15.542763)"><g><path d="M 3.515625 0.140625 C 2.929688 0.140625 2.421875 -0.0234375 1.984375 -0.359375 C 1.554688 -0.691406 1.222656 -1.175781 0.984375 -1.8125 C 0.742188 -2.457031 0.625 -3.210938 0.625 -4.078125 C 0.625 -5.410156 0.890625 -6.453125 1.421875 -7.203125 C 1.953125 -7.953125 2.6875 -8.328125 3.625 -8.328125 C 4.082031 -8.328125 4.484375 -8.234375 4.828125 -8.046875 C 5.171875 -7.867188 5.484375 -7.5625 5.765625 -7.125 L 5.828125 -7.125 C 5.734375 -7.769531 5.6875 -8.410156 5.6875 -9.046875 L 5.6875 -11.234375 L 8.546875 -11.234375 L 8.546875 0 L 6.40625 0 L 5.796875 -1.03125 L 5.6875 -1.03125 C 5.207031 -0.25 4.484375 0.140625 3.515625 0.140625 Z M 4.671875 -2.09375 C 5.128906 -2.09375 5.445312 -2.234375 5.625 -2.515625 C 5.8125 -2.796875 5.914062 -3.234375 5.9375 -3.828125 L 5.9375 -4.046875 C 5.9375 -4.773438 5.832031 -5.289062 5.625 -5.59375 C 5.414062 -5.894531 5.085938 -6.046875 4.640625 -6.046875 C 4.273438 -6.046875 3.988281 -5.867188 3.78125 -5.515625 C 3.570312 -5.171875 3.46875 -4.675781 3.46875 -4.03125 C 3.46875 -3.394531 3.570312 -2.910156 3.78125 -2.578125 C 3.988281 -2.253906 4.285156 -2.09375 4.671875 -2.09375 Z M 4.671875 -2.09375 "/></g></g><g transform="translate(174.895818, 15.542763)"><g><path d="M 4.921875 0.140625 C 3.554688 0.140625 2.5 -0.21875 1.75 -0.9375 C 1 -1.664062 0.625 -2.695312 0.625 -4.03125 C 0.625 -5.414062 0.972656 -6.476562 1.671875 -7.21875 C 2.367188 -7.957031 3.363281 -8.328125 4.65625 -8.328125 C 5.894531 -8.328125 6.847656 -8.003906 7.515625 -7.359375 C 8.191406 -6.722656 8.53125 -5.800781 8.53125 -4.59375 L 8.53125 -3.328125 L 3.46875 -3.328125 C 3.488281 -2.867188 3.65625 -2.507812 3.96875 -2.25 C 4.289062 -1.988281 4.722656 -1.859375 5.265625 -1.859375 C 5.765625 -1.859375 6.222656 -1.90625 6.640625 -2 C 7.054688 -2.09375 7.503906 -2.253906 7.984375 -2.484375 L 7.984375 -0.453125 C 7.546875 -0.222656 7.085938 -0.0664062 6.609375 0.015625 C 6.140625 0.0976562 5.578125 0.140625 4.921875 0.140625 Z M 4.765625 -6.40625 C 4.429688 -6.40625 4.148438 -6.300781 3.921875 -6.09375 C 3.703125 -5.882812 3.570312 -5.554688 3.53125 -5.109375 L 5.953125 -5.109375 C 5.953125 -5.503906 5.84375 -5.816406 5.625 -6.046875 C 5.40625 -6.285156 5.117188 -6.40625 4.765625 -6.40625 Z M 4.765625 -6.40625 "/></g></g><g transform="translate(184.046273, 15.542763)"><g/></g><g transform="translate(187.891487, 15.542763)"><g><path d="M 0.5 -4.46875 C 0.5 -5.9375 0.707031 -7.128906 1.125 -8.046875 C 1.550781 -8.960938 2.175781 -9.632812 3 -10.0625 C 3.820312 -10.5 4.835938 -10.71875 6.046875 -10.71875 C 6.472656 -10.71875 6.972656 -10.675781 7.546875 -10.59375 L 7.546875 -8.359375 C 7.066406 -8.453125 6.539062 -8.5 5.96875 -8.5 C 5.019531 -8.5 4.3125 -8.285156 3.84375 -7.859375 C 3.375 -7.441406 3.117188 -6.757812 3.078125 -5.8125 L 3.171875 -5.8125 C 3.597656 -6.632812 4.289062 -7.046875 5.25 -7.046875 C 6.1875 -7.046875 6.914062 -6.742188 7.4375 -6.140625 C 7.957031 -5.535156 8.21875 -4.691406 8.21875 -3.609375 C 8.21875 -2.453125 7.890625 -1.535156 7.234375 -0.859375 C 6.578125 -0.191406 5.660156 0.140625 4.484375 0.140625 C 3.234375 0.140625 2.253906 -0.257812 1.546875 -1.0625 C 0.847656 -1.875 0.5 -3.007812 0.5 -4.46875 Z M 4.421875 -2.109375 C 4.722656 -2.109375 4.96875 -2.222656 5.15625 -2.453125 C 5.351562 -2.679688 5.453125 -3.050781 5.453125 -3.5625 C 5.453125 -4.414062 5.117188 -4.84375 4.453125 -4.84375 C 4.117188 -4.84375 3.847656 -4.726562 3.640625 -4.5 C 3.441406 -4.28125 3.34375 -4.015625 3.34375 -3.703125 C 3.34375 -3.234375 3.441406 -2.847656 3.640625 -2.546875 C 3.835938 -2.253906 4.097656 -2.109375 4.421875 -2.109375 Z M 4.421875 -2.109375 "/></g></g></g><g fill="rgb(100%, 100%, 100%)" fill-opacity="1"><g transform="translate(7.74607, 32.565789)"><g><path d="M 1.140625 0 L 1.140625 -10.5625 L 4.015625 -10.5625 L 4.015625 0 Z M 1.140625 0 "/></g></g><g transform="translate(12.899525, 32.565789)"><g><path d="M 6.140625 0 L 6.140625 -4.46875 C 6.140625 -5.007812 6.0625 -5.414062 5.90625 -5.6875 C 5.75 -5.96875 5.5 -6.109375 5.15625 -6.109375 C 4.675781 -6.109375 4.328125 -5.914062 4.109375 -5.53125 C 3.898438 -5.15625 3.796875 -4.503906 3.796875 -3.578125 L 3.796875 0 L 0.96875 0 L 0.96875 -8.1875 L 3.109375 -8.1875 L 3.453125 -7.171875 L 3.625 -7.171875 C 3.863281 -7.554688 4.195312 -7.84375 4.625 -8.03125 C 5.050781 -8.226562 5.539062 -8.328125 6.09375 -8.328125 C 7 -8.328125 7.703125 -8.0625 8.203125 -7.53125 C 8.710938 -7.007812 8.96875 -6.273438 8.96875 -5.328125 L 8.96875 0 Z M 6.140625 0 "/></g></g><g transform="translate(22.816131, 32.565789)"><g><path d="M 8.703125 -8.1875 L 8.703125 -6.828125 L 7.578125 -6.40625 C 7.734375 -6.125 7.8125 -5.800781 7.8125 -5.4375 C 7.8125 -4.550781 7.5 -3.863281 6.875 -3.375 C 6.257812 -2.894531 5.335938 -2.65625 4.109375 -2.65625 C 3.804688 -2.65625 3.566406 -2.671875 3.390625 -2.703125 C 3.316406 -2.578125 3.28125 -2.460938 3.28125 -2.359375 C 3.28125 -2.210938 3.394531 -2.101562 3.625 -2.03125 C 3.851562 -1.957031 4.148438 -1.921875 4.515625 -1.921875 L 5.875 -1.921875 C 7.707031 -1.921875 8.625 -1.148438 8.625 0.390625 C 8.625 1.390625 8.195312 2.164062 7.34375 2.71875 C 6.5 3.28125 5.304688 3.5625 3.765625 3.5625 C 2.609375 3.5625 1.710938 3.363281 1.078125 2.96875 C 0.453125 2.582031 0.140625 2.023438 0.140625 1.296875 C 0.140625 0.316406 0.75 -0.3125 1.96875 -0.59375 C 1.71875 -0.695312 1.5 -0.863281 1.3125 -1.09375 C 1.125 -1.332031 1.03125 -1.570312 1.03125 -1.8125 C 1.03125 -2.0625 1.097656 -2.285156 1.234375 -2.484375 C 1.378906 -2.679688 1.671875 -2.910156 2.109375 -3.171875 C 1.691406 -3.359375 1.359375 -3.648438 1.109375 -4.046875 C 0.867188 -4.453125 0.75 -4.941406 0.75 -5.515625 C 0.75 -6.410156 1.050781 -7.101562 1.65625 -7.59375 C 2.269531 -8.082031 3.140625 -8.328125 4.265625 -8.328125 C 4.410156 -8.328125 4.664062 -8.3125 5.03125 -8.28125 C 5.394531 -8.25 5.664062 -8.21875 5.84375 -8.1875 Z M 2.53125 1.015625 C 2.53125 1.242188 2.65625 1.429688 2.90625 1.578125 C 3.15625 1.722656 3.488281 1.796875 3.90625 1.796875 C 4.59375 1.796875 5.140625 1.707031 5.546875 1.53125 C 5.960938 1.363281 6.171875 1.144531 6.171875 0.875 C 6.171875 0.65625 6.046875 0.5 5.796875 0.40625 C 5.546875 0.320312 5.1875 0.28125 4.71875 0.28125 L 3.609375 0.28125 C 3.304688 0.28125 3.050781 0.347656 2.84375 0.484375 C 2.632812 0.628906 2.53125 0.804688 2.53125 1.015625 Z M 3.421875 -5.5 C 3.421875 -4.664062 3.710938 -4.25 4.296875 -4.25 C 4.566406 -4.25 4.773438 -4.351562 4.921875 -4.5625 C 5.066406 -4.769531 5.140625 -5.078125 5.140625 -5.484375 C 5.140625 -6.335938 4.859375 -6.765625 4.296875 -6.765625 C 3.710938 -6.765625 3.421875 -6.34375 3.421875 -5.5 Z M 3.421875 -5.5 "/></g></g><g transform="translate(31.78589, 32.565789)"><g><path d="M 5.921875 -8.328125 C 6.160156 -8.328125 6.394531 -8.304688 6.625 -8.265625 L 6.78125 -8.25 L 6.53125 -5.578125 C 6.289062 -5.640625 5.96875 -5.671875 5.5625 -5.671875 C 4.945312 -5.671875 4.5 -5.523438 4.21875 -5.234375 C 3.9375 -4.953125 3.796875 -4.550781 3.796875 -4.03125 L 3.796875 0 L 0.96875 0 L 0.96875 -8.1875 L 3.078125 -8.1875 L 3.515625 -6.875 L 3.65625 -6.875 C 3.894531 -7.3125 4.222656 -7.660156 4.640625 -7.921875 C 5.066406 -8.191406 5.492188 -8.328125 5.921875 -8.328125 Z M 5.921875 -8.328125 "/></g></g><g transform="translate(38.731851, 32.565789)"><g><path d="M 4.921875 0.140625 C 3.554688 0.140625 2.5 -0.21875 1.75 -0.9375 C 1 -1.664062 0.625 -2.695312 0.625 -4.03125 C 0.625 -5.414062 0.972656 -6.476562 1.671875 -7.21875 C 2.367188 -7.957031 3.363281 -8.328125 4.65625 -8.328125 C 5.894531 -8.328125 6.847656 -8.003906 7.515625 -7.359375 C 8.191406 -6.722656 8.53125 -5.800781 8.53125 -4.59375 L 8.53125 -3.328125 L 3.46875 -3.328125 C 3.488281 -2.867188 3.65625 -2.507812 3.96875 -2.25 C 4.289062 -1.988281 4.722656 -1.859375 5.265625 -1.859375 C 5.765625 -1.859375 6.222656 -1.90625 6.640625 -2 C 7.054688 -2.09375 7.503906 -2.253906 7.984375 -2.484375 L 7.984375 -0.453125 C 7.546875 -0.222656 7.085938 -0.0664062 6.609375 0.015625 C 6.140625 0.0976562 5.578125 0.140625 4.921875 0.140625 Z M 4.765625 -6.40625 C 4.429688 -6.40625 4.148438 -6.300781 3.921875 -6.09375 C 3.703125 -5.882812 3.570312 -5.554688 3.53125 -5.109375 L 5.953125 -5.109375 C 5.953125 -5.503906 5.84375 -5.816406 5.625 -6.046875 C 5.40625 -6.285156 5.117188 -6.40625 4.765625 -6.40625 Z M 4.765625 -6.40625 "/></g></g><g transform="translate(47.882305, 32.565789)"><g><path d="M 3.515625 0.140625 C 2.929688 0.140625 2.421875 -0.0234375 1.984375 -0.359375 C 1.554688 -0.691406 1.222656 -1.175781 0.984375 -1.8125 C 0.742188 -2.457031 0.625 -3.210938 0.625 -4.078125 C 0.625 -5.410156 0.890625 -6.453125 1.421875 -7.203125 C 1.953125 -7.953125 2.6875 -8.328125 3.625 -8.328125 C 4.082031 -8.328125 4.484375 -8.234375 4.828125 -8.046875 C 5.171875 -7.867188 5.484375 -7.5625 5.765625 -7.125 L 5.828125 -7.125 C 5.734375 -7.769531 5.6875 -8.410156 5.6875 -9.046875 L 5.6875 -11.234375 L 8.546875 -11.234375 L 8.546875 0 L 6.40625 0 L 5.796875 -1.03125 L 5.6875 -1.03125 C 5.207031 -0.25 4.484375 0.140625 3.515625 0.140625 Z M 4.671875 -2.09375 C 5.128906 -2.09375 5.445312 -2.234375 5.625 -2.515625 C 5.8125 -2.796875 5.914062 -3.234375 5.9375 -3.828125 L 5.9375 -4.046875 C 5.9375 -4.773438 5.832031 -5.289062 5.625 -5.59375 C 5.414062 -5.894531 5.085938 -6.046875 4.640625 -6.046875 C 4.273438 -6.046875 3.988281 -5.867188 3.78125 -5.515625 C 3.570312 -5.171875 3.46875 -4.675781 3.46875 -4.03125 C 3.46875 -3.394531 3.570312 -2.910156 3.78125 -2.578125 C 3.988281 -2.253906 4.285156 -2.09375 4.671875 -2.09375 Z M 4.671875 -2.09375 "/></g></g><g transform="translate(57.40138, 32.565789)"><g><path d="M 3.8125 0 L 0.984375 0 L 0.984375 -8.1875 L 3.8125 -8.1875 Z M 0.921875 -10.21875 C 0.921875 -10.644531 1.035156 -10.960938 1.265625 -11.171875 C 1.503906 -11.378906 1.882812 -11.484375 2.40625 -11.484375 C 2.9375 -11.484375 3.320312 -11.375 3.5625 -11.15625 C 3.800781 -10.945312 3.921875 -10.632812 3.921875 -10.21875 C 3.921875 -9.394531 3.414062 -8.984375 2.40625 -8.984375 C 1.414062 -8.984375 0.921875 -9.394531 0.921875 -10.21875 Z M 0.921875 -10.21875 "/></g></g><g transform="translate(62.215126, 32.565789)"><g><path d="M 4.921875 0.140625 C 3.554688 0.140625 2.5 -0.21875 1.75 -0.9375 C 1 -1.664062 0.625 -2.695312 0.625 -4.03125 C 0.625 -5.414062 0.972656 -6.476562 1.671875 -7.21875 C 2.367188 -7.957031 3.363281 -8.328125 4.65625 -8.328125 C 5.894531 -8.328125 6.847656 -8.003906 7.515625 -7.359375 C 8.191406 -6.722656 8.53125 -5.800781 8.53125 -4.59375 L 8.53125 -3.328125 L 3.46875 -3.328125 C 3.488281 -2.867188 3.65625 -2.507812 3.96875 -2.25 C 4.289062 -1.988281 4.722656 -1.859375 5.265625 -1.859375 C 5.765625 -1.859375 6.222656 -1.90625 6.640625 -2 C 7.054688 -2.09375 7.503906 -2.253906 7.984375 -2.484375 L 7.984375 -0.453125 C 7.546875 -0.222656 7.085938 -0.0664062 6.609375 0.015625 C 6.140625 0.0976562 5.578125 0.140625 4.921875 0.140625 Z M 4.765625 -6.40625 C 4.429688 -6.40625 4.148438 -6.300781 3.921875 -6.09375 C 3.703125 -5.882812 3.570312 -5.554688 3.53125 -5.109375 L 5.953125 -5.109375 C 5.953125 -5.503906 5.84375 -5.816406 5.625 -6.046875 C 5.40625 -6.285156 5.117188 -6.40625 4.765625 -6.40625 Z M 4.765625 -6.40625 "/></g></g><g transform="translate(71.365581, 32.565789)"><g><path d="M 6.140625 0 L 6.140625 -4.46875 C 6.140625 -5.007812 6.0625 -5.414062 5.90625 -5.6875 C 5.75 -5.96875 5.5 -6.109375 5.15625 -6.109375 C 4.675781 -6.109375 4.328125 -5.914062 4.109375 -5.53125 C 3.898438 -5.15625 3.796875 -4.503906 3.796875 -3.578125 L 3.796875 0 L 0.96875 0 L 0.96875 -8.1875 L 3.109375 -8.1875 L 3.453125 -7.171875 L 3.625 -7.171875 C 3.863281 -7.554688 4.195312 -7.84375 4.625 -8.03125 C 5.050781 -8.226562 5.539062 -8.328125 6.09375 -8.328125 C 7 -8.328125 7.703125 -8.0625 8.203125 -7.53125 C 8.710938 -7.007812 8.96875 -6.273438 8.96875 -5.328125 L 8.96875 0 Z M 6.140625 0 "/></g></g><g transform="translate(81.282187, 32.565789)"><g><path d="M 4.984375 -2.09375 C 5.367188 -2.09375 5.820312 -2.1875 6.34375 -2.375 L 6.34375 -0.3125 C 5.96875 -0.144531 5.609375 -0.03125 5.265625 0.03125 C 4.921875 0.101562 4.515625 0.140625 4.046875 0.140625 C 3.097656 0.140625 2.414062 -0.0859375 2 -0.546875 C 1.582031 -1.015625 1.375 -1.726562 1.375 -2.6875 L 1.375 -6.0625 L 0.390625 -6.0625 L 0.390625 -7.21875 L 1.640625 -8.109375 L 2.375 -9.828125 L 4.21875 -9.828125 L 4.21875 -8.1875 L 6.234375 -8.1875 L 6.234375 -6.0625 L 4.21875 -6.0625 L 4.21875 -2.875 C 4.21875 -2.351562 4.472656 -2.09375 4.984375 -2.09375 Z M 4.984375 -2.09375 "/></g></g><g transform="translate(88.090819, 32.565789)"><g><path d="M 4.921875 0.140625 C 3.554688 0.140625 2.5 -0.21875 1.75 -0.9375 C 1 -1.664062 0.625 -2.695312 0.625 -4.03125 C 0.625 -5.414062 0.972656 -6.476562 1.671875 -7.21875 C 2.367188 -7.957031 3.363281 -8.328125 4.65625 -8.328125 C 5.894531 -8.328125 6.847656 -8.003906 7.515625 -7.359375 C 8.191406 -6.722656 8.53125 -5.800781 8.53125 -4.59375 L 8.53125 -3.328125 L 3.46875 -3.328125 C 3.488281 -2.867188 3.65625 -2.507812 3.96875 -2.25 C 4.289062 -1.988281 4.722656 -1.859375 5.265625 -1.859375 C 5.765625 -1.859375 6.222656 -1.90625 6.640625 -2 C 7.054688 -2.09375 7.503906 -2.253906 7.984375 -2.484375 L 7.984375 -0.453125 C 7.546875 -0.222656 7.085938 -0.0664062 6.609375 0.015625 C 6.140625 0.0976562 5.578125 0.140625 4.921875 0.140625 Z M 4.765625 -6.40625 C 4.429688 -6.40625 4.148438 -6.300781 3.921875 -6.09375 C 3.703125 -5.882812 3.570312 -5.554688 3.53125 -5.109375 L 5.953125 -5.109375 C 5.953125 -5.503906 5.84375 -5.816406 5.625 -6.046875 C 5.40625 -6.285156 5.117188 -6.40625 4.765625 -6.40625 Z M 4.765625 -6.40625 "/></g></g><g transform="translate(97.241273, 32.565789)"><g><path d="M 7.296875 -2.515625 C 7.296875 -1.640625 6.992188 -0.976562 6.390625 -0.53125 C 5.796875 -0.0820312 4.941406 0.140625 3.828125 0.140625 C 3.222656 0.140625 2.695312 0.109375 2.25 0.046875 C 1.800781 -0.015625 1.34375 -0.132812 0.875 -0.3125 L 0.875 -2.578125 C 1.3125 -2.378906 1.789062 -2.21875 2.3125 -2.09375 C 2.832031 -1.96875 3.300781 -1.90625 3.71875 -1.90625 C 4.320312 -1.90625 4.625 -2.046875 4.625 -2.328125 C 4.625 -2.472656 4.539062 -2.597656 4.375 -2.703125 C 4.207031 -2.816406 3.707031 -3.039062 2.875 -3.375 C 2.125 -3.6875 1.597656 -4.035156 1.296875 -4.421875 C 1.003906 -4.816406 0.859375 -5.316406 0.859375 -5.921875 C 0.859375 -6.679688 1.148438 -7.269531 1.734375 -7.6875 C 2.328125 -8.113281 3.160156 -8.328125 4.234375 -8.328125 C 4.773438 -8.328125 5.28125 -8.265625 5.75 -8.140625 C 6.226562 -8.023438 6.722656 -7.859375 7.234375 -7.640625 L 6.46875 -5.8125 C 6.09375 -5.976562 5.691406 -6.117188 5.265625 -6.234375 C 4.847656 -6.359375 4.507812 -6.421875 4.25 -6.421875 C 3.789062 -6.421875 3.5625 -6.304688 3.5625 -6.078125 C 3.5625 -5.941406 3.640625 -5.820312 3.796875 -5.71875 C 3.953125 -5.625 4.414062 -5.425781 5.1875 -5.125 C 5.757812 -4.882812 6.1875 -4.648438 6.46875 -4.421875 C 6.757812 -4.203125 6.96875 -3.9375 7.09375 -3.625 C 7.226562 -3.320312 7.296875 -2.953125 7.296875 -2.515625 Z M 7.296875 -2.515625 "/></g></g><g transform="translate(105.134083, 32.565789)"><g/></g><g transform="translate(108.979297, 32.565789)"><g><path d="M 10.109375 -5.5 C 10.109375 -3.738281 9.625 -2.378906 8.65625 -1.421875 C 7.6875 -0.472656 6.320312 0 4.5625 0 L 1.140625 0 L 1.140625 -10.5625 L 4.796875 -10.5625 C 6.492188 -10.5625 7.800781 -10.128906 8.71875 -9.265625 C 9.644531 -8.398438 10.109375 -7.144531 10.109375 -5.5 Z M 7.140625 -5.40625 C 7.140625 -6.375 6.945312 -7.09375 6.5625 -7.5625 C 6.1875 -8.03125 5.609375 -8.265625 4.828125 -8.265625 L 4 -8.265625 L 4 -2.34375 L 4.625 -2.34375 C 5.5 -2.34375 6.132812 -2.59375 6.53125 -3.09375 C 6.9375 -3.59375 7.140625 -4.363281 7.140625 -5.40625 Z M 7.140625 -5.40625 "/></g></g><g transform="translate(119.842752, 32.565789)"><g><path d="M 4.921875 0.140625 C 3.554688 0.140625 2.5 -0.21875 1.75 -0.9375 C 1 -1.664062 0.625 -2.695312 0.625 -4.03125 C 0.625 -5.414062 0.972656 -6.476562 1.671875 -7.21875 C 2.367188 -7.957031 3.363281 -8.328125 4.65625 -8.328125 C 5.894531 -8.328125 6.847656 -8.003906 7.515625 -7.359375 C 8.191406 -6.722656 8.53125 -5.800781 8.53125 -4.59375 L 8.53125 -3.328125 L 3.46875 -3.328125 C 3.488281 -2.867188 3.65625 -2.507812 3.96875 -2.25 C 4.289062 -1.988281 4.722656 -1.859375 5.265625 -1.859375 C 5.765625 -1.859375 6.222656 -1.90625 6.640625 -2 C 7.054688 -2.09375 7.503906 -2.253906 7.984375 -2.484375 L 7.984375 -0.453125 C 7.546875 -0.222656 7.085938 -0.0664062 6.609375 0.015625 C 6.140625 0.0976562 5.578125 0.140625 4.921875 0.140625 Z M 4.765625 -6.40625 C 4.429688 -6.40625 4.148438 -6.300781 3.921875 -6.09375 C 3.703125 -5.882812 3.570312 -5.554688 3.53125 -5.109375 L 5.953125 -5.109375 C 5.953125 -5.503906 5.84375 -5.816406 5.625 -6.046875 C 5.40625 -6.285156 5.117188 -6.40625 4.765625 -6.40625 Z M 4.765625 -6.40625 "/></g></g><g transform="translate(128.993206, 32.565789)"><g><path d="M 5.921875 -8.328125 C 6.160156 -8.328125 6.394531 -8.304688 6.625 -8.265625 L 6.78125 -8.25 L 6.53125 -5.578125 C 6.289062 -5.640625 5.96875 -5.671875 5.5625 -5.671875 C 4.945312 -5.671875 4.5 -5.523438 4.21875 -5.234375 C 3.9375 -4.953125 3.796875 -4.550781 3.796875 -4.03125 L 3.796875 0 L 0.96875 0 L 0.96875 -8.1875 L 3.078125 -8.1875 L 3.515625 -6.875 L 3.65625 -6.875 C 3.894531 -7.3125 4.222656 -7.660156 4.640625 -7.921875 C 5.066406 -8.191406 5.492188 -8.328125 5.921875 -8.328125 Z M 5.921875 -8.328125 "/></g></g><g transform="translate(135.939167, 32.565789)"><g><path d="M 5.921875 -8.328125 C 6.160156 -8.328125 6.394531 -8.304688 6.625 -8.265625 L 6.78125 -8.25 L 6.53125 -5.578125 C 6.289062 -5.640625 5.96875 -5.671875 5.5625 -5.671875 C 4.945312 -5.671875 4.5 -5.523438 4.21875 -5.234375 C 3.9375 -4.953125 3.796875 -4.550781 3.796875 -4.03125 L 3.796875 0 L 0.96875 0 L 0.96875 -8.1875 L 3.078125 -8.1875 L 3.515625 -6.875 L 3.65625 -6.875 C 3.894531 -7.3125 4.222656 -7.660156 4.640625 -7.921875 C 5.066406 -8.191406 5.492188 -8.328125 5.921875 -8.328125 Z M 5.921875 -8.328125 "/></g></g><g transform="translate(142.885128, 32.565789)"><g><path d="M 4.921875 0.140625 C 3.554688 0.140625 2.5 -0.21875 1.75 -0.9375 C 1 -1.664062 0.625 -2.695312 0.625 -4.03125 C 0.625 -5.414062 0.972656 -6.476562 1.671875 -7.21875 C 2.367188 -7.957031 3.363281 -8.328125 4.65625 -8.328125 C 5.894531 -8.328125 6.847656 -8.003906 7.515625 -7.359375 C 8.191406 -6.722656 8.53125 -5.800781 8.53125 -4.59375 L 8.53125 -3.328125 L 3.46875 -3.328125 C 3.488281 -2.867188 3.65625 -2.507812 3.96875 -2.25 C 4.289062 -1.988281 4.722656 -1.859375 5.265625 -1.859375 C 5.765625 -1.859375 6.222656 -1.90625 6.640625 -2 C 7.054688 -2.09375 7.503906 -2.253906 7.984375 -2.484375 L 7.984375 -0.453125 C 7.546875 -0.222656 7.085938 -0.0664062 6.609375 0.015625 C 6.140625 0.0976562 5.578125 0.140625 4.921875 0.140625 Z M 4.765625 -6.40625 C 4.429688 -6.40625 4.148438 -6.300781 3.921875 -6.09375 C 3.703125 -5.882812 3.570312 -5.554688 3.53125 -5.109375 L 5.953125 -5.109375 C 5.953125 -5.503906 5.84375 -5.816406 5.625 -6.046875 C 5.40625 -6.285156 5.117188 -6.40625 4.765625 -6.40625 Z M 4.765625 -6.40625 "/></g></g><g transform="translate(152.035583, 32.565789)"><g><path d="M 4.984375 -2.09375 C 5.367188 -2.09375 5.820312 -2.1875 6.34375 -2.375 L 6.34375 -0.3125 C 5.96875 -0.144531 5.609375 -0.03125 5.265625 0.03125 C 4.921875 0.101562 4.515625 0.140625 4.046875 0.140625 C 3.097656 0.140625 2.414062 -0.0859375 2 -0.546875 C 1.582031 -1.015625 1.375 -1.726562 1.375 -2.6875 L 1.375 -6.0625 L 0.390625 -6.0625 L 0.390625 -7.21875 L 1.640625 -8.109375 L 2.375 -9.828125 L 4.21875 -9.828125 L 4.21875 -8.1875 L 6.234375 -8.1875 L 6.234375 -6.0625 L 4.21875 -6.0625 L 4.21875 -2.875 C 4.21875 -2.351562 4.472656 -2.09375 4.984375 -2.09375 Z M 4.984375 -2.09375 "/></g></g><g transform="translate(158.844215, 32.565789)"><g><path d="M 4.921875 0.140625 C 3.554688 0.140625 2.5 -0.21875 1.75 -0.9375 C 1 -1.664062 0.625 -2.695312 0.625 -4.03125 C 0.625 -5.414062 0.972656 -6.476562 1.671875 -7.21875 C 2.367188 -7.957031 3.363281 -8.328125 4.65625 -8.328125 C 5.894531 -8.328125 6.847656 -8.003906 7.515625 -7.359375 C 8.191406 -6.722656 8.53125 -5.800781 8.53125 -4.59375 L 8.53125 -3.328125 L 3.46875 -3.328125 C 3.488281 -2.867188 3.65625 -2.507812 3.96875 -2.25 C 4.289062 -1.988281 4.722656 -1.859375 5.265625 -1.859375 C 5.765625 -1.859375 6.222656 -1.90625 6.640625 -2 C 7.054688 -2.09375 7.503906 -2.253906 7.984375 -2.484375 L 7.984375 -0.453125 C 7.546875 -0.222656 7.085938 -0.0664062 6.609375 0.015625 C 6.140625 0.0976562 5.578125 0.140625 4.921875 0.140625 Z M 4.765625 -6.40625 C 4.429688 -6.40625 4.148438 -6.300781 3.921875 -6.09375 C 3.703125 -5.882812 3.570312 -5.554688 3.53125 -5.109375 L 5.953125 -5.109375 C 5.953125 -5.503906 5.84375 -5.816406 5.625 -6.046875 C 5.40625 -6.285156 5.117188 -6.40625 4.765625 -6.40625 Z M 4.765625 -6.40625 "/></g></g><g transform="translate(167.994669, 32.565789)"><g/></g><g transform="translate(171.839884, 32.565789)"><g><path d="M 5.75 0 L 3.578125 -7.609375 L 3.515625 -7.609375 C 3.617188 -6.316406 3.671875 -5.3125 3.671875 -4.59375 L 3.671875 0 L 1.140625 0 L 1.140625 -10.5625 L 4.9375 -10.5625 L 7.140625 -3.0625 L 7.203125 -3.0625 L 9.359375 -10.5625 L 13.171875 -10.5625 L 13.171875 0 L 10.546875 0 L 10.546875 -4.625 C 10.546875 -4.875 10.546875 -5.144531 10.546875 -5.4375 C 10.554688 -5.726562 10.59375 -6.445312 10.65625 -7.59375 L 10.59375 -7.59375 L 8.453125 0 Z M 5.75 0 "/></g></g><g transform="translate(186.151021, 32.565789)"><g><path d="M 6.8125 0 L 6.453125 -1.015625 L 6.28125 -1.015625 C 6.050781 -0.640625 5.722656 -0.351562 5.296875 -0.15625 C 4.878906 0.0390625 4.382812 0.140625 3.8125 0.140625 C 2.914062 0.140625 2.210938 -0.117188 1.703125 -0.640625 C 1.203125 -1.160156 0.953125 -1.898438 0.953125 -2.859375 L 0.953125 -8.1875 L 3.78125 -8.1875 L 3.78125 -3.71875 C 3.78125 -3.175781 3.851562 -2.769531 4 -2.5 C 4.15625 -2.226562 4.410156 -2.09375 4.765625 -2.09375 C 5.242188 -2.09375 5.585938 -2.28125 5.796875 -2.65625 C 6.003906 -3.039062 6.109375 -3.691406 6.109375 -4.609375 L 6.109375 -8.1875 L 8.9375 -8.1875 L 8.9375 0 Z M 6.8125 0 "/></g></g><g transform="translate(196.067628, 32.565789)"><g><path d="M 3.8125 0 L 0.984375 0 L 0.984375 -8.1875 L 3.8125 -8.1875 Z M 0.921875 -10.21875 C 0.921875 -10.644531 1.035156 -10.960938 1.265625 -11.171875 C 1.503906 -11.378906 1.882812 -11.484375 2.40625 -11.484375 C 2.9375 -11.484375 3.320312 -11.375 3.5625 -11.15625 C 3.800781 -10.945312 3.921875 -10.632812 3.921875 -10.21875 C 3.921875 -9.394531 3.414062 -8.984375 2.40625 -8.984375 C 1.414062 -8.984375 0.921875 -9.394531 0.921875 -10.21875 Z M 0.921875 -10.21875 "/></g></g><g transform="translate(200.881374, 32.565789)"><g><path d="M 4.984375 -2.09375 C 5.367188 -2.09375 5.820312 -2.1875 6.34375 -2.375 L 6.34375 -0.3125 C 5.96875 -0.144531 5.609375 -0.03125 5.265625 0.03125 C 4.921875 0.101562 4.515625 0.140625 4.046875 0.140625 C 3.097656 0.140625 2.414062 -0.0859375 2 -0.546875 C 1.582031 -1.015625 1.375 -1.726562 1.375 -2.6875 L 1.375 -6.0625 L 0.390625 -6.0625 L 0.390625 -7.21875 L 1.640625 -8.109375 L 2.375 -9.828125 L 4.21875 -9.828125 L 4.21875 -8.1875 L 6.234375 -8.1875 L 6.234375 -6.0625 L 4.21875 -6.0625 L 4.21875 -2.875 C 4.21875 -2.351562 4.472656 -2.09375 4.984375 -2.09375 Z M 4.984375 -2.09375 "/></g></g><g transform="translate(207.690006, 32.565789)"><g><path d="M 8.796875 -4.109375 C 8.796875 -2.773438 8.429688 -1.734375 7.703125 -0.984375 C 6.984375 -0.234375 5.976562 0.140625 4.6875 0.140625 C 3.445312 0.140625 2.457031 -0.238281 1.71875 -1 C 0.988281 -1.769531 0.625 -2.804688 0.625 -4.109375 C 0.625 -5.441406 0.984375 -6.476562 1.703125 -7.21875 C 2.421875 -7.957031 3.429688 -8.328125 4.734375 -8.328125 C 5.535156 -8.328125 6.242188 -8.15625 6.859375 -7.8125 C 7.472656 -7.46875 7.945312 -6.976562 8.28125 -6.34375 C 8.625 -5.707031 8.796875 -4.960938 8.796875 -4.109375 Z M 3.484375 -4.109375 C 3.484375 -3.410156 3.578125 -2.875 3.765625 -2.5 C 3.953125 -2.132812 4.269531 -1.953125 4.71875 -1.953125 C 5.15625 -1.953125 5.460938 -2.132812 5.640625 -2.5 C 5.828125 -2.875 5.921875 -3.410156 5.921875 -4.109375 C 5.921875 -4.804688 5.828125 -5.332031 5.640625 -5.6875 C 5.460938 -6.050781 5.148438 -6.234375 4.703125 -6.234375 C 4.265625 -6.234375 3.953125 -6.054688 3.765625 -5.703125 C 3.578125 -5.347656 3.484375 -4.816406 3.484375 -4.109375 Z M 3.484375 -4.109375 "/></g></g></g></svg>