<svg xmlns="http://www.w3.org/2000/svg" xmlns:xlink="http://www.w3.org/1999/xlink" width="100" zoomAndPan="magnify" viewBox="0 0 75 37.5" height="50" preserveAspectRatio="xMidYMid meet" version="1.0"><defs><g><g id="id1"/></g></defs><g fill="rgb(100%, 100%, 100%)" fill-opacity="1"><g transform="translate(3.045471, 12.123164)"><g><path d="M 4.171875 -1.65625 C 4.171875 -1.320312 4.082031 -1.019531 3.90625 -0.75 C 3.738281 -0.488281 3.488281 -0.285156 3.15625 -0.140625 C 2.832031 0.00390625 2.453125 0.078125 2.015625 0.078125 C 1.660156 0.078125 1.359375 0.0507812 1.109375 0 C 0.859375 -0.0507812 0.601562 -0.140625 0.34375 -0.265625 L 0.34375 -1.578125 C 0.625 -1.441406 0.914062 -1.332031 1.21875 -1.25 C 1.519531 -1.164062 1.796875 -1.125 2.046875 -1.125 C 2.265625 -1.125 2.425781 -1.160156 2.53125 -1.234375 C 2.632812 -1.316406 2.6875 -1.414062 2.6875 -1.53125 C 2.6875 -1.601562 2.664062 -1.664062 2.625 -1.71875 C 2.582031 -1.78125 2.515625 -1.835938 2.421875 -1.890625 C 2.335938 -1.953125 2.097656 -2.070312 1.703125 -2.25 C 1.347656 -2.414062 1.078125 -2.570312 0.890625 -2.71875 C 0.710938 -2.875 0.582031 -3.050781 0.5 -3.25 C 0.414062 -3.445312 0.375 -3.675781 0.375 -3.9375 C 0.375 -4.445312 0.554688 -4.84375 0.921875 -5.125 C 1.285156 -5.40625 1.789062 -5.546875 2.4375 -5.546875 C 3 -5.546875 3.578125 -5.414062 4.171875 -5.15625 L 3.71875 -4.015625 C 3.207031 -4.242188 2.765625 -4.359375 2.390625 -4.359375 C 2.191406 -4.359375 2.050781 -4.320312 1.96875 -4.25 C 1.882812 -4.1875 1.84375 -4.109375 1.84375 -4.015625 C 1.84375 -3.898438 1.894531 -3.800781 2 -3.71875 C 2.113281 -3.632812 2.414062 -3.484375 2.90625 -3.265625 C 3.375 -3.046875 3.703125 -2.816406 3.890625 -2.578125 C 4.078125 -2.335938 4.171875 -2.03125 4.171875 -1.65625 Z M 4.171875 -1.65625 "/></g></g><g transform="translate(7.464206, 12.123164)"><g><path d="M 1.96875 0 L 0.515625 0 L 0.515625 -4.234375 L 1.96875 -4.234375 Z M 0.46875 -5.296875 C 0.46875 -5.515625 0.53125 -5.675781 0.65625 -5.78125 C 0.78125 -5.882812 0.976562 -5.9375 1.25 -5.9375 C 1.519531 -5.9375 1.71875 -5.878906 1.84375 -5.765625 C 1.96875 -5.660156 2.03125 -5.503906 2.03125 -5.296875 C 2.03125 -4.859375 1.769531 -4.640625 1.25 -4.640625 C 0.726562 -4.640625 0.46875 -4.859375 0.46875 -5.296875 Z M 0.46875 -5.296875 "/></g></g><g transform="translate(9.95395, 12.123164)"><g><path d="M 5.703125 0 L 5.703125 -2.296875 C 5.703125 -2.585938 5.660156 -2.800781 5.578125 -2.9375 C 5.503906 -3.082031 5.382812 -3.15625 5.21875 -3.15625 C 4.988281 -3.15625 4.820312 -3.0625 4.71875 -2.875 C 4.613281 -2.6875 4.5625 -2.382812 4.5625 -1.96875 L 4.5625 0 L 3.09375 0 L 3.09375 -2.296875 C 3.09375 -2.585938 3.054688 -2.800781 2.984375 -2.9375 C 2.910156 -3.082031 2.789062 -3.15625 2.625 -3.15625 C 2.394531 -3.15625 2.226562 -3.050781 2.125 -2.84375 C 2.019531 -2.644531 1.96875 -2.316406 1.96875 -1.859375 L 1.96875 0 L 0.5 0 L 0.5 -4.234375 L 1.609375 -4.234375 L 1.796875 -3.71875 L 1.875 -3.71875 C 1.988281 -3.90625 2.148438 -4.050781 2.359375 -4.15625 C 2.578125 -4.257812 2.820312 -4.3125 3.09375 -4.3125 C 3.695312 -4.3125 4.125 -4.125 4.375 -3.75 L 4.5 -3.75 C 4.613281 -3.925781 4.773438 -4.0625 4.984375 -4.15625 C 5.203125 -4.257812 5.441406 -4.3125 5.703125 -4.3125 C 6.203125 -4.3125 6.570312 -4.179688 6.8125 -3.921875 C 7.050781 -3.671875 7.171875 -3.28125 7.171875 -2.75 L 7.171875 0 Z M 5.703125 0 "/></g></g><g transform="translate(17.6101, 12.123164)"><g><path d="M 3.046875 0.078125 C 2.828125 0.078125 2.632812 0.0390625 2.46875 -0.03125 C 2.300781 -0.101562 2.132812 -0.234375 1.96875 -0.421875 L 1.90625 -0.421875 C 1.945312 -0.117188 1.96875 0.0664062 1.96875 0.140625 L 1.96875 1.84375 L 0.5 1.84375 L 0.5 -4.234375 L 1.6875 -4.234375 L 1.90625 -3.703125 L 1.96875 -3.703125 C 2.238281 -4.109375 2.613281 -4.3125 3.09375 -4.3125 C 3.5625 -4.3125 3.925781 -4.113281 4.1875 -3.71875 C 4.457031 -3.332031 4.59375 -2.800781 4.59375 -2.125 C 4.59375 -1.445312 4.453125 -0.910156 4.171875 -0.515625 C 3.898438 -0.117188 3.523438 0.078125 3.046875 0.078125 Z M 2.5625 -3.15625 C 2.34375 -3.15625 2.191406 -3.078125 2.109375 -2.921875 C 2.023438 -2.773438 1.976562 -2.550781 1.96875 -2.25 L 1.96875 -2.140625 C 1.96875 -1.773438 2.015625 -1.507812 2.109375 -1.34375 C 2.210938 -1.1875 2.367188 -1.109375 2.578125 -1.109375 C 2.765625 -1.109375 2.898438 -1.1875 2.984375 -1.34375 C 3.066406 -1.5 3.109375 -1.765625 3.109375 -2.140625 C 3.109375 -2.503906 3.066406 -2.765625 2.984375 -2.921875 C 2.898438 -3.078125 2.757812 -3.15625 2.5625 -3.15625 Z M 2.5625 -3.15625 "/></g></g><g transform="translate(22.533513, 12.123164)"><g><path d="M 1.96875 0 L 0.5 0 L 0.5 -5.8125 L 1.96875 -5.8125 Z M 1.96875 0 "/></g></g><g transform="translate(25.008304, 12.123164)"><g><path d="M 2.546875 0.078125 C 1.835938 0.078125 1.289062 -0.109375 0.90625 -0.484375 C 0.519531 -0.859375 0.328125 -1.394531 0.328125 -2.09375 C 0.328125 -2.800781 0.503906 -3.347656 0.859375 -3.734375 C 1.222656 -4.117188 1.738281 -4.3125 2.40625 -4.3125 C 3.050781 -4.3125 3.546875 -4.144531 3.890625 -3.8125 C 4.234375 -3.476562 4.40625 -3 4.40625 -2.375 L 4.40625 -1.71875 L 1.796875 -1.71875 C 1.804688 -1.488281 1.890625 -1.304688 2.046875 -1.171875 C 2.210938 -1.035156 2.4375 -0.96875 2.71875 -0.96875 C 2.976562 -0.96875 3.210938 -0.988281 3.421875 -1.03125 C 3.640625 -1.082031 3.878906 -1.164062 4.140625 -1.28125 L 4.140625 -0.234375 C 3.910156 -0.117188 3.671875 -0.0390625 3.421875 0 C 3.179688 0.0507812 2.890625 0.078125 2.546875 0.078125 Z M 2.46875 -3.3125 C 2.289062 -3.3125 2.144531 -3.253906 2.03125 -3.140625 C 1.914062 -3.035156 1.847656 -2.867188 1.828125 -2.640625 L 3.078125 -2.640625 C 3.078125 -2.847656 3.019531 -3.007812 2.90625 -3.125 C 2.800781 -3.25 2.65625 -3.3125 2.46875 -3.3125 Z M 2.46875 -3.3125 "/></g></g><g transform="translate(29.741061, 12.123164)"><g><path d="M 3.78125 -1.296875 C 3.78125 -0.847656 3.625 -0.503906 3.3125 -0.265625 C 3 -0.0351562 2.554688 0.078125 1.984375 0.078125 C 1.671875 0.078125 1.394531 0.0546875 1.15625 0.015625 C 0.925781 -0.015625 0.691406 -0.0703125 0.453125 -0.15625 L 0.453125 -1.328125 C 0.679688 -1.234375 0.929688 -1.148438 1.203125 -1.078125 C 1.472656 -1.015625 1.710938 -0.984375 1.921875 -0.984375 C 2.234375 -0.984375 2.390625 -1.054688 2.390625 -1.203125 C 2.390625 -1.273438 2.34375 -1.335938 2.25 -1.390625 C 2.164062 -1.453125 1.910156 -1.570312 1.484375 -1.75 C 1.097656 -1.90625 0.828125 -2.082031 0.671875 -2.28125 C 0.515625 -2.488281 0.4375 -2.75 0.4375 -3.0625 C 0.4375 -3.457031 0.585938 -3.765625 0.890625 -3.984375 C 1.203125 -4.203125 1.632812 -4.3125 2.1875 -4.3125 C 2.46875 -4.3125 2.726562 -4.28125 2.96875 -4.21875 C 3.21875 -4.15625 3.472656 -4.066406 3.734375 -3.953125 L 3.34375 -3.015625 C 3.144531 -3.097656 2.9375 -3.171875 2.71875 -3.234375 C 2.507812 -3.296875 2.335938 -3.328125 2.203125 -3.328125 C 1.960938 -3.328125 1.84375 -3.265625 1.84375 -3.140625 C 1.84375 -3.078125 1.882812 -3.019531 1.96875 -2.96875 C 2.050781 -2.914062 2.289062 -2.8125 2.6875 -2.65625 C 2.976562 -2.53125 3.195312 -2.40625 3.34375 -2.28125 C 3.488281 -2.164062 3.597656 -2.03125 3.671875 -1.875 C 3.742188 -1.71875 3.78125 -1.523438 3.78125 -1.296875 Z M 3.78125 -1.296875 "/></g></g><g transform="translate(33.823344, 12.123164)"><g/></g><g transform="translate(35.812149, 12.123164)"><g><path d="M 3.65625 -5.46875 L 5.3125 -5.46875 L 3.515625 0 L 1.78125 0 L 0 -5.46875 L 1.65625 -5.46875 L 2.40625 -2.703125 C 2.5625 -2.078125 2.644531 -1.644531 2.65625 -1.40625 C 2.675781 -1.582031 2.710938 -1.800781 2.765625 -2.0625 C 2.816406 -2.320312 2.863281 -2.53125 2.90625 -2.6875 Z M 3.65625 -5.46875 "/></g></g><g transform="translate(41.124351, 12.123164)"><g><path d="M 1.96875 0 L 0.515625 0 L 0.515625 -4.234375 L 1.96875 -4.234375 Z M 0.46875 -5.296875 C 0.46875 -5.515625 0.53125 -5.675781 0.65625 -5.78125 C 0.78125 -5.882812 0.976562 -5.9375 1.25 -5.9375 C 1.519531 -5.9375 1.71875 -5.878906 1.84375 -5.765625 C 1.96875 -5.660156 2.03125 -5.503906 2.03125 -5.296875 C 2.03125 -4.859375 1.769531 -4.640625 1.25 -4.640625 C 0.726562 -4.640625 0.46875 -4.859375 0.46875 -5.296875 Z M 0.46875 -5.296875 "/></g></g><g transform="translate(43.614095, 12.123164)"><g><path d="M 2.578125 -1.078125 C 2.773438 -1.078125 3.007812 -1.125 3.28125 -1.21875 L 3.28125 -0.15625 C 3.082031 -0.0703125 2.894531 -0.015625 2.71875 0.015625 C 2.539062 0.0546875 2.332031 0.078125 2.09375 0.078125 C 1.601562 0.078125 1.25 -0.0390625 1.03125 -0.28125 C 0.8125 -0.519531 0.703125 -0.890625 0.703125 -1.390625 L 0.703125 -3.140625 L 0.203125 -3.140625 L 0.203125 -3.734375 L 0.84375 -4.1875 L 1.21875 -5.078125 L 2.1875 -5.078125 L 2.1875 -4.234375 L 3.21875 -4.234375 L 3.21875 -3.140625 L 2.1875 -3.140625 L 2.1875 -1.484375 C 2.1875 -1.210938 2.316406 -1.078125 2.578125 -1.078125 Z M 2.578125 -1.078125 "/></g></g><g transform="translate(47.135625, 12.123164)"><g><path d="M 3.265625 0 L 2.984375 -0.5625 L 2.953125 -0.5625 C 2.753906 -0.3125 2.550781 -0.140625 2.34375 -0.046875 C 2.144531 0.0351562 1.882812 0.078125 1.5625 0.078125 C 1.164062 0.078125 0.851562 -0.0390625 0.625 -0.28125 C 0.394531 -0.519531 0.28125 -0.859375 0.28125 -1.296875 C 0.28125 -1.742188 0.4375 -2.078125 0.75 -2.296875 C 1.0625 -2.515625 1.515625 -2.640625 2.109375 -2.671875 L 2.8125 -2.703125 L 2.8125 -2.75 C 2.8125 -3.101562 2.640625 -3.28125 2.296875 -3.28125 C 1.992188 -3.28125 1.601562 -3.175781 1.125 -2.96875 L 0.703125 -3.921875 C 1.191406 -4.179688 1.816406 -4.3125 2.578125 -4.3125 C 3.117188 -4.3125 3.535156 -4.175781 3.828125 -3.90625 C 4.128906 -3.632812 4.28125 -3.257812 4.28125 -2.78125 L 4.28125 0 Z M 2.1875 -0.953125 C 2.363281 -0.953125 2.515625 -1.007812 2.640625 -1.125 C 2.765625 -1.238281 2.828125 -1.382812 2.828125 -1.5625 L 2.828125 -1.890625 L 2.484375 -1.875 C 2.003906 -1.851562 1.765625 -1.675781 1.765625 -1.34375 C 1.765625 -1.082031 1.90625 -0.953125 2.1875 -0.953125 Z M 2.1875 -0.953125 "/></g></g><g transform="translate(51.905765, 12.123164)"><g><path d="M 5.703125 0 L 5.703125 -2.296875 C 5.703125 -2.585938 5.660156 -2.800781 5.578125 -2.9375 C 5.503906 -3.082031 5.382812 -3.15625 5.21875 -3.15625 C 4.988281 -3.15625 4.820312 -3.0625 4.71875 -2.875 C 4.613281 -2.6875 4.5625 -2.382812 4.5625 -1.96875 L 4.5625 0 L 3.09375 0 L 3.09375 -2.296875 C 3.09375 -2.585938 3.054688 -2.800781 2.984375 -2.9375 C 2.910156 -3.082031 2.789062 -3.15625 2.625 -3.15625 C 2.394531 -3.15625 2.226562 -3.050781 2.125 -2.84375 C 2.019531 -2.644531 1.96875 -2.316406 1.96875 -1.859375 L 1.96875 0 L 0.5 0 L 0.5 -4.234375 L 1.609375 -4.234375 L 1.796875 -3.71875 L 1.875 -3.71875 C 1.988281 -3.90625 2.148438 -4.050781 2.359375 -4.15625 C 2.578125 -4.257812 2.820312 -4.3125 3.09375 -4.3125 C 3.695312 -4.3125 4.125 -4.125 4.375 -3.75 L 4.5 -3.75 C 4.613281 -3.925781 4.773438 -4.0625 4.984375 -4.15625 C 5.203125 -4.257812 5.441406 -4.3125 5.703125 -4.3125 C 6.203125 -4.3125 6.570312 -4.179688 6.8125 -3.921875 C 7.050781 -3.671875 7.171875 -3.28125 7.171875 -2.75 L 7.171875 0 Z M 5.703125 0 "/></g></g><g transform="translate(59.561915, 12.123164)"><g><path d="M 1.96875 0 L 0.515625 0 L 0.515625 -4.234375 L 1.96875 -4.234375 Z M 0.46875 -5.296875 C 0.46875 -5.515625 0.53125 -5.675781 0.65625 -5.78125 C 0.78125 -5.882812 0.976562 -5.9375 1.25 -5.9375 C 1.519531 -5.9375 1.71875 -5.878906 1.84375 -5.765625 C 1.96875 -5.660156 2.03125 -5.503906 2.03125 -5.296875 C 2.03125 -4.859375 1.769531 -4.640625 1.25 -4.640625 C 0.726562 -4.640625 0.46875 -4.859375 0.46875 -5.296875 Z M 0.46875 -5.296875 "/></g></g><g transform="translate(62.051659, 12.123164)"><g><path d="M 3.171875 0 L 3.171875 -2.3125 C 3.171875 -2.59375 3.128906 -2.800781 3.046875 -2.9375 C 2.972656 -3.082031 2.847656 -3.15625 2.671875 -3.15625 C 2.421875 -3.15625 2.238281 -3.054688 2.125 -2.859375 C 2.019531 -2.671875 1.96875 -2.335938 1.96875 -1.859375 L 1.96875 0 L 0.5 0 L 0.5 -4.234375 L 1.609375 -4.234375 L 1.796875 -3.71875 L 1.875 -3.71875 C 2 -3.914062 2.171875 -4.0625 2.390625 -4.15625 C 2.609375 -4.257812 2.863281 -4.3125 3.15625 -4.3125 C 3.625 -4.3125 3.988281 -4.175781 4.25 -3.90625 C 4.507812 -3.632812 4.640625 -3.25 4.640625 -2.75 L 4.640625 0 Z M 3.171875 0 "/></g></g><g transform="translate(67.180682, 12.123164)"><g><path d="M 3.265625 0 L 2.984375 -0.5625 L 2.953125 -0.5625 C 2.753906 -0.3125 2.550781 -0.140625 2.34375 -0.046875 C 2.144531 0.0351562 1.882812 0.078125 1.5625 0.078125 C 1.164062 0.078125 0.851562 -0.0390625 0.625 -0.28125 C 0.394531 -0.519531 0.28125 -0.859375 0.28125 -1.296875 C 0.28125 -1.742188 0.4375 -2.078125 0.75 -2.296875 C 1.0625 -2.515625 1.515625 -2.640625 2.109375 -2.671875 L 2.8125 -2.703125 L 2.8125 -2.75 C 2.8125 -3.101562 2.640625 -3.28125 2.296875 -3.28125 C 1.992188 -3.28125 1.601562 -3.175781 1.125 -2.96875 L 0.703125 -3.921875 C 1.191406 -4.179688 1.816406 -4.3125 2.578125 -4.3125 C 3.117188 -4.3125 3.535156 -4.175781 3.828125 -3.90625 C 4.128906 -3.632812 4.28125 -3.257812 4.28125 -2.78125 L 4.28125 0 Z M 2.1875 -0.953125 C 2.363281 -0.953125 2.515625 -1.007812 2.640625 -1.125 C 2.765625 -1.238281 2.828125 -1.382812 2.828125 -1.5625 L 2.828125 -1.890625 L 2.484375 -1.875 C 2.003906 -1.851562 1.765625 -1.675781 1.765625 -1.34375 C 1.765625 -1.082031 1.90625 -0.953125 2.1875 -0.953125 Z M 2.1875 -0.953125 "/></g></g></g><g fill="rgb(100%, 100%, 100%)" fill-opacity="1"><g transform="translate(3.254819, 21.055339)"><g><path d="M 1.828125 0.078125 C 1.523438 0.078125 1.257812 -0.00390625 1.03125 -0.171875 C 0.800781 -0.347656 0.625 -0.601562 0.5 -0.9375 C 0.382812 -1.269531 0.328125 -1.660156 0.328125 -2.109375 C 0.328125 -2.796875 0.460938 -3.332031 0.734375 -3.71875 C 1.015625 -4.113281 1.394531 -4.3125 1.875 -4.3125 C 2.113281 -4.3125 2.320312 -4.265625 2.5 -4.171875 C 2.675781 -4.078125 2.835938 -3.914062 2.984375 -3.6875 L 3.015625 -3.6875 C 2.972656 -4.019531 2.953125 -4.351562 2.953125 -4.6875 L 2.953125 -5.8125 L 4.421875 -5.8125 L 4.421875 0 L 3.3125 0 L 3 -0.53125 L 2.953125 -0.53125 C 2.691406 -0.125 2.316406 0.078125 1.828125 0.078125 Z M 2.421875 -1.078125 C 2.648438 -1.078125 2.8125 -1.148438 2.90625 -1.296875 C 3.007812 -1.441406 3.0625 -1.671875 3.0625 -1.984375 L 3.0625 -2.09375 C 3.0625 -2.46875 3.007812 -2.734375 2.90625 -2.890625 C 2.800781 -3.046875 2.632812 -3.125 2.40625 -3.125 C 2.207031 -3.125 2.054688 -3.035156 1.953125 -2.859375 C 1.847656 -2.679688 1.796875 -2.425781 1.796875 -2.09375 C 1.796875 -1.757812 1.847656 -1.503906 1.953125 -1.328125 C 2.066406 -1.160156 2.222656 -1.078125 2.421875 -1.078125 Z M 2.421875 -1.078125 "/></g></g><g transform="translate(8.178232, 21.055339)"><g><path d="M 2.546875 0.078125 C 1.835938 0.078125 1.289062 -0.109375 0.90625 -0.484375 C 0.519531 -0.859375 0.328125 -1.394531 0.328125 -2.09375 C 0.328125 -2.800781 0.503906 -3.347656 0.859375 -3.734375 C 1.222656 -4.117188 1.738281 -4.3125 2.40625 -4.3125 C 3.050781 -4.3125 3.546875 -4.144531 3.890625 -3.8125 C 4.234375 -3.476562 4.40625 -3 4.40625 -2.375 L 4.40625 -1.71875 L 1.796875 -1.71875 C 1.804688 -1.488281 1.890625 -1.304688 2.046875 -1.171875 C 2.210938 -1.035156 2.4375 -0.96875 2.71875 -0.96875 C 2.976562 -0.96875 3.210938 -0.988281 3.421875 -1.03125 C 3.640625 -1.082031 3.878906 -1.164062 4.140625 -1.28125 L 4.140625 -0.234375 C 3.910156 -0.117188 3.671875 -0.0390625 3.421875 0 C 3.179688 0.0507812 2.890625 0.078125 2.546875 0.078125 Z M 2.46875 -3.3125 C 2.289062 -3.3125 2.144531 -3.253906 2.03125 -3.140625 C 1.914062 -3.035156 1.847656 -2.867188 1.828125 -2.640625 L 3.078125 -2.640625 C 3.078125 -2.847656 3.019531 -3.007812 2.90625 -3.125 C 2.800781 -3.25 2.65625 -3.3125 2.46875 -3.3125 Z M 2.46875 -3.3125 "/></g></g><g transform="translate(12.910989, 21.055339)"><g/></g><g transform="translate(14.899793, 21.055339)"><g><path d="M 0.265625 -2.3125 C 0.265625 -3.070312 0.375 -3.6875 0.59375 -4.15625 C 0.8125 -4.632812 1.128906 -4.984375 1.546875 -5.203125 C 1.972656 -5.429688 2.5 -5.546875 3.125 -5.546875 C 3.34375 -5.546875 3.601562 -5.523438 3.90625 -5.484375 L 3.90625 -4.328125 C 3.65625 -4.367188 3.382812 -4.390625 3.09375 -4.390625 C 2.59375 -4.390625 2.222656 -4.28125 1.984375 -4.0625 C 1.742188 -3.851562 1.613281 -3.503906 1.59375 -3.015625 L 1.640625 -3.015625 C 1.859375 -3.429688 2.21875 -3.640625 2.71875 -3.640625 C 3.207031 -3.640625 3.582031 -3.484375 3.84375 -3.171875 C 4.113281 -2.859375 4.25 -2.425781 4.25 -1.875 C 4.25 -1.269531 4.078125 -0.789062 3.734375 -0.4375 C 3.398438 -0.09375 2.929688 0.078125 2.328125 0.078125 C 1.679688 0.078125 1.175781 -0.128906 0.8125 -0.546875 C 0.445312 -0.972656 0.265625 -1.5625 0.265625 -2.3125 Z M 2.28125 -1.09375 C 2.4375 -1.09375 2.5625 -1.148438 2.65625 -1.265625 C 2.757812 -1.390625 2.8125 -1.582031 2.8125 -1.84375 C 2.8125 -2.28125 2.640625 -2.5 2.296875 -2.5 C 2.128906 -2.5 1.992188 -2.441406 1.890625 -2.328125 C 1.785156 -2.210938 1.734375 -2.078125 1.734375 -1.921875 C 1.734375 -1.679688 1.78125 -1.484375 1.875 -1.328125 C 1.976562 -1.171875 2.113281 -1.09375 2.28125 -1.09375 Z M 2.28125 -1.09375 "/></g></g><g transform="translate(19.385819, 21.055339)"><g/></g><g transform="translate(21.374623, 21.055339)"><g><path d="M 0.59375 0 L 0.59375 -5.46875 L 2.078125 -5.46875 L 2.078125 0 Z M 0.59375 0 "/></g></g><g transform="translate(24.04007, 21.055339)"><g><path d="M 3.171875 0 L 3.171875 -2.3125 C 3.171875 -2.59375 3.128906 -2.800781 3.046875 -2.9375 C 2.972656 -3.082031 2.847656 -3.15625 2.671875 -3.15625 C 2.421875 -3.15625 2.238281 -3.054688 2.125 -2.859375 C 2.019531 -2.671875 1.96875 -2.335938 1.96875 -1.859375 L 1.96875 0 L 0.5 0 L 0.5 -4.234375 L 1.609375 -4.234375 L 1.796875 -3.71875 L 1.875 -3.71875 C 2 -3.914062 2.171875 -4.0625 2.390625 -4.15625 C 2.609375 -4.257812 2.863281 -4.3125 3.15625 -4.3125 C 3.625 -4.3125 3.988281 -4.175781 4.25 -3.90625 C 4.507812 -3.632812 4.640625 -3.25 4.640625 -2.75 L 4.640625 0 Z M 3.171875 0 "/></g></g><g transform="translate(29.169093, 21.055339)"><g><path d="M 4.5 -4.234375 L 4.5 -3.53125 L 3.921875 -3.3125 C 4.003906 -3.164062 4.046875 -3 4.046875 -2.8125 C 4.046875 -2.351562 3.882812 -2 3.5625 -1.75 C 3.238281 -1.5 2.757812 -1.375 2.125 -1.375 C 1.96875 -1.375 1.84375 -1.382812 1.75 -1.40625 C 1.71875 -1.34375 1.703125 -1.28125 1.703125 -1.21875 C 1.703125 -1.144531 1.757812 -1.085938 1.875 -1.046875 C 1.988281 -1.015625 2.144531 -1 2.34375 -1 L 3.046875 -1 C 3.992188 -1 4.46875 -0.597656 4.46875 0.203125 C 4.46875 0.722656 4.242188 1.125 3.796875 1.40625 C 3.359375 1.695312 2.742188 1.84375 1.953125 1.84375 C 1.347656 1.84375 0.882812 1.738281 0.5625 1.53125 C 0.238281 1.332031 0.078125 1.046875 0.078125 0.671875 C 0.078125 0.160156 0.390625 -0.164062 1.015625 -0.3125 C 0.890625 -0.363281 0.773438 -0.445312 0.671875 -0.5625 C 0.578125 -0.6875 0.53125 -0.8125 0.53125 -0.9375 C 0.53125 -1.0625 0.566406 -1.175781 0.640625 -1.28125 C 0.710938 -1.382812 0.863281 -1.503906 1.09375 -1.640625 C 0.875 -1.742188 0.703125 -1.894531 0.578125 -2.09375 C 0.453125 -2.300781 0.390625 -2.554688 0.390625 -2.859375 C 0.390625 -3.316406 0.546875 -3.671875 0.859375 -3.921875 C 1.171875 -4.179688 1.617188 -4.3125 2.203125 -4.3125 C 2.285156 -4.3125 2.421875 -4.300781 2.609375 -4.28125 C 2.796875 -4.269531 2.9375 -4.253906 3.03125 -4.234375 Z M 1.3125 0.53125 C 1.3125 0.644531 1.375 0.738281 1.5 0.8125 C 1.632812 0.882812 1.804688 0.921875 2.015625 0.921875 C 2.367188 0.921875 2.648438 0.875 2.859375 0.78125 C 3.078125 0.695312 3.1875 0.585938 3.1875 0.453125 C 3.1875 0.335938 3.117188 0.253906 2.984375 0.203125 C 2.859375 0.160156 2.675781 0.140625 2.4375 0.140625 L 1.875 0.140625 C 1.71875 0.140625 1.582031 0.175781 1.46875 0.25 C 1.363281 0.320312 1.3125 0.414062 1.3125 0.53125 Z M 1.765625 -2.84375 C 1.765625 -2.414062 1.914062 -2.203125 2.21875 -2.203125 C 2.363281 -2.203125 2.472656 -2.253906 2.546875 -2.359375 C 2.617188 -2.460938 2.65625 -2.625 2.65625 -2.84375 C 2.65625 -3.28125 2.507812 -3.5 2.21875 -3.5 C 1.914062 -3.5 1.765625 -3.28125 1.765625 -2.84375 Z M 1.765625 -2.84375 "/></g></g><g transform="translate(33.808391, 21.055339)"><g><path d="M 3.0625 -4.3125 C 3.1875 -4.3125 3.304688 -4.300781 3.421875 -4.28125 L 3.5 -4.265625 L 3.375 -2.890625 C 3.257812 -2.921875 3.09375 -2.9375 2.875 -2.9375 C 2.5625 -2.9375 2.332031 -2.863281 2.1875 -2.71875 C 2.039062 -2.570312 1.96875 -2.359375 1.96875 -2.078125 L 1.96875 0 L 0.5 0 L 0.5 -4.234375 L 1.59375 -4.234375 L 1.828125 -3.5625 L 1.890625 -3.5625 C 2.015625 -3.78125 2.1875 -3.957031 2.40625 -4.09375 C 2.625 -4.238281 2.84375 -4.3125 3.0625 -4.3125 Z M 3.0625 -4.3125 "/></g></g><g transform="translate(37.400949, 21.055339)"><g><path d="M 2.546875 0.078125 C 1.835938 0.078125 1.289062 -0.109375 0.90625 -0.484375 C 0.519531 -0.859375 0.328125 -1.394531 0.328125 -2.09375 C 0.328125 -2.800781 0.503906 -3.347656 0.859375 -3.734375 C 1.222656 -4.117188 1.738281 -4.3125 2.40625 -4.3125 C 3.050781 -4.3125 3.546875 -4.144531 3.890625 -3.8125 C 4.234375 -3.476562 4.40625 -3 4.40625 -2.375 L 4.40625 -1.71875 L 1.796875 -1.71875 C 1.804688 -1.488281 1.890625 -1.304688 2.046875 -1.171875 C 2.210938 -1.035156 2.4375 -0.96875 2.71875 -0.96875 C 2.976562 -0.96875 3.210938 -0.988281 3.421875 -1.03125 C 3.640625 -1.082031 3.878906 -1.164062 4.140625 -1.28125 L 4.140625 -0.234375 C 3.910156 -0.117188 3.671875 -0.0390625 3.421875 0 C 3.179688 0.0507812 2.890625 0.078125 2.546875 0.078125 Z M 2.46875 -3.3125 C 2.289062 -3.3125 2.144531 -3.253906 2.03125 -3.140625 C 1.914062 -3.035156 1.847656 -2.867188 1.828125 -2.640625 L 3.078125 -2.640625 C 3.078125 -2.847656 3.019531 -3.007812 2.90625 -3.125 C 2.800781 -3.25 2.65625 -3.3125 2.46875 -3.3125 Z M 2.46875 -3.3125 "/></g></g><g transform="translate(42.133706, 21.055339)"><g><path d="M 1.828125 0.078125 C 1.523438 0.078125 1.257812 -0.00390625 1.03125 -0.171875 C 0.800781 -0.347656 0.625 -0.601562 0.5 -0.9375 C 0.382812 -1.269531 0.328125 -1.660156 0.328125 -2.109375 C 0.328125 -2.796875 0.460938 -3.332031 0.734375 -3.71875 C 1.015625 -4.113281 1.394531 -4.3125 1.875 -4.3125 C 2.113281 -4.3125 2.320312 -4.265625 2.5 -4.171875 C 2.675781 -4.078125 2.835938 -3.914062 2.984375 -3.6875 L 3.015625 -3.6875 C 2.972656 -4.019531 2.953125 -4.351562 2.953125 -4.6875 L 2.953125 -5.8125 L 4.421875 -5.8125 L 4.421875 0 L 3.3125 0 L 3 -0.53125 L 2.953125 -0.53125 C 2.691406 -0.125 2.316406 0.078125 1.828125 0.078125 Z M 2.421875 -1.078125 C 2.648438 -1.078125 2.8125 -1.148438 2.90625 -1.296875 C 3.007812 -1.441406 3.0625 -1.671875 3.0625 -1.984375 L 3.0625 -2.09375 C 3.0625 -2.46875 3.007812 -2.734375 2.90625 -2.890625 C 2.800781 -3.046875 2.632812 -3.125 2.40625 -3.125 C 2.207031 -3.125 2.054688 -3.035156 1.953125 -2.859375 C 1.847656 -2.679688 1.796875 -2.425781 1.796875 -2.09375 C 1.796875 -1.757812 1.847656 -1.503906 1.953125 -1.328125 C 2.066406 -1.160156 2.222656 -1.078125 2.421875 -1.078125 Z M 2.421875 -1.078125 "/></g></g><g transform="translate(47.057119, 21.055339)"><g><path d="M 1.96875 0 L 0.515625 0 L 0.515625 -4.234375 L 1.96875 -4.234375 Z M 0.46875 -5.296875 C 0.46875 -5.515625 0.53125 -5.675781 0.65625 -5.78125 C 0.78125 -5.882812 0.976562 -5.9375 1.25 -5.9375 C 1.519531 -5.9375 1.71875 -5.878906 1.84375 -5.765625 C 1.96875 -5.660156 2.03125 -5.503906 2.03125 -5.296875 C 2.03125 -4.859375 1.769531 -4.640625 1.25 -4.640625 C 0.726562 -4.640625 0.46875 -4.859375 0.46875 -5.296875 Z M 0.46875 -5.296875 "/></g></g><g transform="translate(49.546863, 21.055339)"><g><path d="M 2.546875 0.078125 C 1.835938 0.078125 1.289062 -0.109375 0.90625 -0.484375 C 0.519531 -0.859375 0.328125 -1.394531 0.328125 -2.09375 C 0.328125 -2.800781 0.503906 -3.347656 0.859375 -3.734375 C 1.222656 -4.117188 1.738281 -4.3125 2.40625 -4.3125 C 3.050781 -4.3125 3.546875 -4.144531 3.890625 -3.8125 C 4.234375 -3.476562 4.40625 -3 4.40625 -2.375 L 4.40625 -1.71875 L 1.796875 -1.71875 C 1.804688 -1.488281 1.890625 -1.304688 2.046875 -1.171875 C 2.210938 -1.035156 2.4375 -0.96875 2.71875 -0.96875 C 2.976562 -0.96875 3.210938 -0.988281 3.421875 -1.03125 C 3.640625 -1.082031 3.878906 -1.164062 4.140625 -1.28125 L 4.140625 -0.234375 C 3.910156 -0.117188 3.671875 -0.0390625 3.421875 0 C 3.179688 0.0507812 2.890625 0.078125 2.546875 0.078125 Z M 2.46875 -3.3125 C 2.289062 -3.3125 2.144531 -3.253906 2.03125 -3.140625 C 1.914062 -3.035156 1.847656 -2.867188 1.828125 -2.640625 L 3.078125 -2.640625 C 3.078125 -2.847656 3.019531 -3.007812 2.90625 -3.125 C 2.800781 -3.25 2.65625 -3.3125 2.46875 -3.3125 Z M 2.46875 -3.3125 "/></g></g><g transform="translate(54.27962, 21.055339)"><g><path d="M 3.171875 0 L 3.171875 -2.3125 C 3.171875 -2.59375 3.128906 -2.800781 3.046875 -2.9375 C 2.972656 -3.082031 2.847656 -3.15625 2.671875 -3.15625 C 2.421875 -3.15625 2.238281 -3.054688 2.125 -2.859375 C 2.019531 -2.671875 1.96875 -2.335938 1.96875 -1.859375 L 1.96875 0 L 0.5 0 L 0.5 -4.234375 L 1.609375 -4.234375 L 1.796875 -3.71875 L 1.875 -3.71875 C 2 -3.914062 2.171875 -4.0625 2.390625 -4.15625 C 2.609375 -4.257812 2.863281 -4.3125 3.15625 -4.3125 C 3.625 -4.3125 3.988281 -4.175781 4.25 -3.90625 C 4.507812 -3.632812 4.640625 -3.25 4.640625 -2.75 L 4.640625 0 Z M 3.171875 0 "/></g></g><g transform="translate(59.408643, 21.055339)"><g><path d="M 2.578125 -1.078125 C 2.773438 -1.078125 3.007812 -1.125 3.28125 -1.21875 L 3.28125 -0.15625 C 3.082031 -0.0703125 2.894531 -0.015625 2.71875 0.015625 C 2.539062 0.0546875 2.332031 0.078125 2.09375 0.078125 C 1.601562 0.078125 1.25 -0.0390625 1.03125 -0.28125 C 0.8125 -0.519531 0.703125 -0.890625 0.703125 -1.390625 L 0.703125 -3.140625 L 0.203125 -3.140625 L 0.203125 -3.734375 L 0.84375 -4.1875 L 1.21875 -5.078125 L 2.1875 -5.078125 L 2.1875 -4.234375 L 3.21875 -4.234375 L 3.21875 -3.140625 L 2.1875 -3.140625 L 2.1875 -1.484375 C 2.1875 -1.210938 2.316406 -1.078125 2.578125 -1.078125 Z M 2.578125 -1.078125 "/></g></g><g transform="translate(62.930173, 21.055339)"><g><path d="M 2.546875 0.078125 C 1.835938 0.078125 1.289062 -0.109375 0.90625 -0.484375 C 0.519531 -0.859375 0.328125 -1.394531 0.328125 -2.09375 C 0.328125 -2.800781 0.503906 -3.347656 0.859375 -3.734375 C 1.222656 -4.117188 1.738281 -4.3125 2.40625 -4.3125 C 3.050781 -4.3125 3.546875 -4.144531 3.890625 -3.8125 C 4.234375 -3.476562 4.40625 -3 4.40625 -2.375 L 4.40625 -1.71875 L 1.796875 -1.71875 C 1.804688 -1.488281 1.890625 -1.304688 2.046875 -1.171875 C 2.210938 -1.035156 2.4375 -0.96875 2.71875 -0.96875 C 2.976562 -0.96875 3.210938 -0.988281 3.421875 -1.03125 C 3.640625 -1.082031 3.878906 -1.164062 4.140625 -1.28125 L 4.140625 -0.234375 C 3.910156 -0.117188 3.671875 -0.0390625 3.421875 0 C 3.179688 0.0507812 2.890625 0.078125 2.546875 0.078125 Z M 2.46875 -3.3125 C 2.289062 -3.3125 2.144531 -3.253906 2.03125 -3.140625 C 1.914062 -3.035156 1.847656 -2.867188 1.828125 -2.640625 L 3.078125 -2.640625 C 3.078125 -2.847656 3.019531 -3.007812 2.90625 -3.125 C 2.800781 -3.25 2.65625 -3.3125 2.46875 -3.3125 Z M 2.46875 -3.3125 "/></g></g><g transform="translate(67.662929, 21.055339)"><g><path d="M 3.78125 -1.296875 C 3.78125 -0.847656 3.625 -0.503906 3.3125 -0.265625 C 3 -0.0351562 2.554688 0.078125 1.984375 0.078125 C 1.671875 0.078125 1.394531 0.0546875 1.15625 0.015625 C 0.925781 -0.015625 0.691406 -0.0703125 0.453125 -0.15625 L 0.453125 -1.328125 C 0.679688 -1.234375 0.929688 -1.148438 1.203125 -1.078125 C 1.472656 -1.015625 1.710938 -0.984375 1.921875 -0.984375 C 2.234375 -0.984375 2.390625 -1.054688 2.390625 -1.203125 C 2.390625 -1.273438 2.34375 -1.335938 2.25 -1.390625 C 2.164062 -1.453125 1.910156 -1.570312 1.484375 -1.75 C 1.097656 -1.90625 0.828125 -2.082031 0.671875 -2.28125 C 0.515625 -2.488281 0.4375 -2.75 0.4375 -3.0625 C 0.4375 -3.457031 0.585938 -3.765625 0.890625 -3.984375 C 1.203125 -4.203125 1.632812 -4.3125 2.1875 -4.3125 C 2.46875 -4.3125 2.726562 -4.28125 2.96875 -4.21875 C 3.21875 -4.15625 3.472656 -4.066406 3.734375 -3.953125 L 3.34375 -3.015625 C 3.144531 -3.097656 2.9375 -3.171875 2.71875 -3.234375 C 2.507812 -3.296875 2.335938 -3.328125 2.203125 -3.328125 C 1.960938 -3.328125 1.84375 -3.265625 1.84375 -3.140625 C 1.84375 -3.078125 1.882812 -3.019531 1.96875 -2.96875 C 2.050781 -2.914062 2.289062 -2.8125 2.6875 -2.65625 C 2.976562 -2.53125 3.195312 -2.40625 3.34375 -2.28125 C 3.488281 -2.164062 3.597656 -2.03125 3.671875 -1.875 C 3.742188 -1.71875 3.78125 -1.523438 3.78125 -1.296875 Z M 3.78125 -1.296875 "/></g></g></g><g fill="rgb(100%, 100%, 100%)" fill-opacity="1"><g transform="translate(9.535255, 29.987515)"><g><path d="M 5.234375 -2.84375 C 5.234375 -1.9375 4.976562 -1.234375 4.46875 -0.734375 C 3.96875 -0.242188 3.265625 0 2.359375 0 L 0.59375 0 L 0.59375 -5.46875 L 2.484375 -5.46875 C 3.359375 -5.46875 4.035156 -5.242188 4.515625 -4.796875 C 4.992188 -4.347656 5.234375 -3.695312 5.234375 -2.84375 Z M 3.703125 -2.796875 C 3.703125 -3.296875 3.601562 -3.664062 3.40625 -3.90625 C 3.207031 -4.144531 2.90625 -4.265625 2.5 -4.265625 L 2.0625 -4.265625 L 2.0625 -1.21875 L 2.390625 -1.21875 C 2.835938 -1.21875 3.164062 -1.347656 3.375 -1.609375 C 3.59375 -1.867188 3.703125 -2.265625 3.703125 -2.796875 Z M 3.703125 -2.796875 "/></g></g><g transform="translate(15.154001, 29.987515)"><g><path d="M 2.546875 0.078125 C 1.835938 0.078125 1.289062 -0.109375 0.90625 -0.484375 C 0.519531 -0.859375 0.328125 -1.394531 0.328125 -2.09375 C 0.328125 -2.800781 0.503906 -3.347656 0.859375 -3.734375 C 1.222656 -4.117188 1.738281 -4.3125 2.40625 -4.3125 C 3.050781 -4.3125 3.546875 -4.144531 3.890625 -3.8125 C 4.234375 -3.476562 4.40625 -3 4.40625 -2.375 L 4.40625 -1.71875 L 1.796875 -1.71875 C 1.804688 -1.488281 1.890625 -1.304688 2.046875 -1.171875 C 2.210938 -1.035156 2.4375 -0.96875 2.71875 -0.96875 C 2.976562 -0.96875 3.210938 -0.988281 3.421875 -1.03125 C 3.640625 -1.082031 3.878906 -1.164062 4.140625 -1.28125 L 4.140625 -0.234375 C 3.910156 -0.117188 3.671875 -0.0390625 3.421875 0 C 3.179688 0.0507812 2.890625 0.078125 2.546875 0.078125 Z M 2.46875 -3.3125 C 2.289062 -3.3125 2.144531 -3.253906 2.03125 -3.140625 C 1.914062 -3.035156 1.847656 -2.867188 1.828125 -2.640625 L 3.078125 -2.640625 C 3.078125 -2.847656 3.019531 -3.007812 2.90625 -3.125 C 2.800781 -3.25 2.65625 -3.3125 2.46875 -3.3125 Z M 2.46875 -3.3125 "/></g></g><g transform="translate(19.886758, 29.987515)"><g><path d="M 3.0625 -4.3125 C 3.1875 -4.3125 3.304688 -4.300781 3.421875 -4.28125 L 3.5 -4.265625 L 3.375 -2.890625 C 3.257812 -2.921875 3.09375 -2.9375 2.875 -2.9375 C 2.5625 -2.9375 2.332031 -2.863281 2.1875 -2.71875 C 2.039062 -2.570312 1.96875 -2.359375 1.96875 -2.078125 L 1.96875 0 L 0.5 0 L 0.5 -4.234375 L 1.59375 -4.234375 L 1.828125 -3.5625 L 1.890625 -3.5625 C 2.015625 -3.78125 2.1875 -3.957031 2.40625 -4.09375 C 2.625 -4.238281 2.84375 -4.3125 3.0625 -4.3125 Z M 3.0625 -4.3125 "/></g></g><g transform="translate(23.479317, 29.987515)"><g><path d="M 3.0625 -4.3125 C 3.1875 -4.3125 3.304688 -4.300781 3.421875 -4.28125 L 3.5 -4.265625 L 3.375 -2.890625 C 3.257812 -2.921875 3.09375 -2.9375 2.875 -2.9375 C 2.5625 -2.9375 2.332031 -2.863281 2.1875 -2.71875 C 2.039062 -2.570312 1.96875 -2.359375 1.96875 -2.078125 L 1.96875 0 L 0.5 0 L 0.5 -4.234375 L 1.59375 -4.234375 L 1.828125 -3.5625 L 1.890625 -3.5625 C 2.015625 -3.78125 2.1875 -3.957031 2.40625 -4.09375 C 2.625 -4.238281 2.84375 -4.3125 3.0625 -4.3125 Z M 3.0625 -4.3125 "/></g></g><g transform="translate(27.071876, 29.987515)"><g><path d="M 2.546875 0.078125 C 1.835938 0.078125 1.289062 -0.109375 0.90625 -0.484375 C 0.519531 -0.859375 0.328125 -1.394531 0.328125 -2.09375 C 0.328125 -2.800781 0.503906 -3.347656 0.859375 -3.734375 C 1.222656 -4.117188 1.738281 -4.3125 2.40625 -4.3125 C 3.050781 -4.3125 3.546875 -4.144531 3.890625 -3.8125 C 4.234375 -3.476562 4.40625 -3 4.40625 -2.375 L 4.40625 -1.71875 L 1.796875 -1.71875 C 1.804688 -1.488281 1.890625 -1.304688 2.046875 -1.171875 C 2.210938 -1.035156 2.4375 -0.96875 2.71875 -0.96875 C 2.976562 -0.96875 3.210938 -0.988281 3.421875 -1.03125 C 3.640625 -1.082031 3.878906 -1.164062 4.140625 -1.28125 L 4.140625 -0.234375 C 3.910156 -0.117188 3.671875 -0.0390625 3.421875 0 C 3.179688 0.0507812 2.890625 0.078125 2.546875 0.078125 Z M 2.46875 -3.3125 C 2.289062 -3.3125 2.144531 -3.253906 2.03125 -3.140625 C 1.914062 -3.035156 1.847656 -2.867188 1.828125 -2.640625 L 3.078125 -2.640625 C 3.078125 -2.847656 3.019531 -3.007812 2.90625 -3.125 C 2.800781 -3.25 2.65625 -3.3125 2.46875 -3.3125 Z M 2.46875 -3.3125 "/></g></g><g transform="translate(31.804632, 29.987515)"><g><path d="M 2.578125 -1.078125 C 2.773438 -1.078125 3.007812 -1.125 3.28125 -1.21875 L 3.28125 -0.15625 C 3.082031 -0.0703125 2.894531 -0.015625 2.71875 0.015625 C 2.539062 0.0546875 2.332031 0.078125 2.09375 0.078125 C 1.601562 0.078125 1.25 -0.0390625 1.03125 -0.28125 C 0.8125 -0.519531 0.703125 -0.890625 0.703125 -1.390625 L 0.703125 -3.140625 L 0.203125 -3.140625 L 0.203125 -3.734375 L 0.84375 -4.1875 L 1.21875 -5.078125 L 2.1875 -5.078125 L 2.1875 -4.234375 L 3.21875 -4.234375 L 3.21875 -3.140625 L 2.1875 -3.140625 L 2.1875 -1.484375 C 2.1875 -1.210938 2.316406 -1.078125 2.578125 -1.078125 Z M 2.578125 -1.078125 "/></g></g><g transform="translate(35.326162, 29.987515)"><g><path d="M 2.546875 0.078125 C 1.835938 0.078125 1.289062 -0.109375 0.90625 -0.484375 C 0.519531 -0.859375 0.328125 -1.394531 0.328125 -2.09375 C 0.328125 -2.800781 0.503906 -3.347656 0.859375 -3.734375 C 1.222656 -4.117188 1.738281 -4.3125 2.40625 -4.3125 C 3.050781 -4.3125 3.546875 -4.144531 3.890625 -3.8125 C 4.234375 -3.476562 4.40625 -3 4.40625 -2.375 L 4.40625 -1.71875 L 1.796875 -1.71875 C 1.804688 -1.488281 1.890625 -1.304688 2.046875 -1.171875 C 2.210938 -1.035156 2.4375 -0.96875 2.71875 -0.96875 C 2.976562 -0.96875 3.210938 -0.988281 3.421875 -1.03125 C 3.640625 -1.082031 3.878906 -1.164062 4.140625 -1.28125 L 4.140625 -0.234375 C 3.910156 -0.117188 3.671875 -0.0390625 3.421875 0 C 3.179688 0.0507812 2.890625 0.078125 2.546875 0.078125 Z M 2.46875 -3.3125 C 2.289062 -3.3125 2.144531 -3.253906 2.03125 -3.140625 C 1.914062 -3.035156 1.847656 -2.867188 1.828125 -2.640625 L 3.078125 -2.640625 C 3.078125 -2.847656 3.019531 -3.007812 2.90625 -3.125 C 2.800781 -3.25 2.65625 -3.3125 2.46875 -3.3125 Z M 2.46875 -3.3125 "/></g></g><g transform="translate(40.058919, 29.987515)"><g/></g><g transform="translate(42.047724, 29.987515)"><g><path d="M 2.96875 0 L 1.859375 -3.9375 L 1.828125 -3.9375 C 1.878906 -3.269531 1.90625 -2.75 1.90625 -2.375 L 1.90625 0 L 0.59375 0 L 0.59375 -5.46875 L 2.5625 -5.46875 L 3.703125 -1.578125 L 3.734375 -1.578125 L 4.84375 -5.46875 L 6.8125 -5.46875 L 6.8125 0 L 5.453125 0 L 5.453125 -2.390625 C 5.453125 -2.515625 5.453125 -2.65625 5.453125 -2.8125 C 5.460938 -2.96875 5.484375 -3.335938 5.515625 -3.921875 L 5.484375 -3.921875 L 4.375 0 Z M 2.96875 0 "/></g></g><g transform="translate(49.449666, 29.987515)"><g><path d="M 3.515625 0 L 3.34375 -0.53125 L 3.25 -0.53125 C 3.125 -0.332031 2.953125 -0.179688 2.734375 -0.078125 C 2.523438 0.0234375 2.269531 0.078125 1.96875 0.078125 C 1.507812 0.078125 1.148438 -0.0546875 0.890625 -0.328125 C 0.628906 -0.597656 0.5 -0.984375 0.5 -1.484375 L 0.5 -4.234375 L 1.953125 -4.234375 L 1.953125 -1.921875 C 1.953125 -1.640625 1.988281 -1.425781 2.0625 -1.28125 C 2.144531 -1.144531 2.28125 -1.078125 2.46875 -1.078125 C 2.71875 -1.078125 2.894531 -1.175781 3 -1.375 C 3.101562 -1.570312 3.15625 -1.90625 3.15625 -2.375 L 3.15625 -4.234375 L 4.625 -4.234375 L 4.625 0 Z M 3.515625 0 "/></g></g><g transform="translate(54.578688, 29.987515)"><g><path d="M 1.96875 0 L 0.515625 0 L 0.515625 -4.234375 L 1.96875 -4.234375 Z M 0.46875 -5.296875 C 0.46875 -5.515625 0.53125 -5.675781 0.65625 -5.78125 C 0.78125 -5.882812 0.976562 -5.9375 1.25 -5.9375 C 1.519531 -5.9375 1.71875 -5.878906 1.84375 -5.765625 C 1.96875 -5.660156 2.03125 -5.503906 2.03125 -5.296875 C 2.03125 -4.859375 1.769531 -4.640625 1.25 -4.640625 C 0.726562 -4.640625 0.46875 -4.859375 0.46875 -5.296875 Z M 0.46875 -5.296875 "/></g></g><g transform="translate(57.068433, 29.987515)"><g><path d="M 2.578125 -1.078125 C 2.773438 -1.078125 3.007812 -1.125 3.28125 -1.21875 L 3.28125 -0.15625 C 3.082031 -0.0703125 2.894531 -0.015625 2.71875 0.015625 C 2.539062 0.0546875 2.332031 0.078125 2.09375 0.078125 C 1.601562 0.078125 1.25 -0.0390625 1.03125 -0.28125 C 0.8125 -0.519531 0.703125 -0.890625 0.703125 -1.390625 L 0.703125 -3.140625 L 0.203125 -3.140625 L 0.203125 -3.734375 L 0.84375 -4.1875 L 1.21875 -5.078125 L 2.1875 -5.078125 L 2.1875 -4.234375 L 3.21875 -4.234375 L 3.21875 -3.140625 L 2.1875 -3.140625 L 2.1875 -1.484375 C 2.1875 -1.210938 2.316406 -1.078125 2.578125 -1.078125 Z M 2.578125 -1.078125 "/></g></g><g transform="translate(60.589963, 29.987515)"><g><path d="M 4.546875 -2.125 C 4.546875 -1.4375 4.359375 -0.894531 3.984375 -0.5 C 3.617188 -0.113281 3.097656 0.078125 2.421875 0.078125 C 1.785156 0.078125 1.273438 -0.117188 0.890625 -0.515625 C 0.515625 -0.910156 0.328125 -1.445312 0.328125 -2.125 C 0.328125 -2.8125 0.507812 -3.347656 0.875 -3.734375 C 1.25 -4.117188 1.773438 -4.3125 2.453125 -4.3125 C 2.867188 -4.3125 3.234375 -4.222656 3.546875 -4.046875 C 3.867188 -3.867188 4.113281 -3.613281 4.28125 -3.28125 C 4.457031 -2.945312 4.546875 -2.5625 4.546875 -2.125 Z M 1.8125 -2.125 C 1.8125 -1.757812 1.859375 -1.484375 1.953125 -1.296875 C 2.046875 -1.109375 2.207031 -1.015625 2.4375 -1.015625 C 2.664062 -1.015625 2.828125 -1.109375 2.921875 -1.296875 C 3.015625 -1.484375 3.0625 -1.757812 3.0625 -2.125 C 3.0625 -2.488281 3.015625 -2.757812 2.921875 -2.9375 C 2.828125 -3.125 2.664062 -3.21875 2.4375 -3.21875 C 2.207031 -3.21875 2.046875 -3.125 1.953125 -2.9375 C 1.859375 -2.757812 1.8125 -2.488281 1.8125 -2.125 Z M 1.8125 -2.125 "/></g></g></g></svg>