<svg xmlns="http://www.w3.org/2000/svg" xmlns:xlink="http://www.w3.org/1999/xlink" width="100" zoomAndPan="magnify" viewBox="0 0 75 30.000001" height="40" preserveAspectRatio="xMidYMid meet" version="1.0"><defs><g><g id="id1"/></g></defs><g fill="rgb(100%, 100%, 100%)" fill-opacity="1"><g transform="translate(3.712332, 8.259492)"><g><path d="M 4.09375 -1.625 C 4.09375 -1.289062 4.003906 -0.992188 3.828125 -0.734375 C 3.660156 -0.484375 3.414062 -0.285156 3.09375 -0.140625 C 2.78125 0.00390625 2.410156 0.078125 1.984375 0.078125 C 1.628906 0.078125 1.328125 0.0507812 1.078125 0 C 0.835938 -0.0507812 0.585938 -0.140625 0.328125 -0.265625 L 0.328125 -1.5625 C 0.609375 -1.414062 0.894531 -1.300781 1.1875 -1.21875 C 1.488281 -1.144531 1.765625 -1.109375 2.015625 -1.109375 C 2.234375 -1.109375 2.390625 -1.144531 2.484375 -1.21875 C 2.585938 -1.289062 2.640625 -1.382812 2.640625 -1.5 C 2.640625 -1.570312 2.617188 -1.632812 2.578125 -1.6875 C 2.535156 -1.75 2.46875 -1.804688 2.375 -1.859375 C 2.289062 -1.921875 2.054688 -2.035156 1.671875 -2.203125 C 1.316406 -2.367188 1.050781 -2.523438 0.875 -2.671875 C 0.707031 -2.816406 0.578125 -2.984375 0.484375 -3.171875 C 0.398438 -3.367188 0.359375 -3.601562 0.359375 -3.875 C 0.359375 -4.363281 0.539062 -4.742188 0.90625 -5.015625 C 1.269531 -5.296875 1.765625 -5.4375 2.390625 -5.4375 C 2.941406 -5.4375 3.507812 -5.3125 4.09375 -5.0625 L 3.640625 -3.9375 C 3.140625 -4.164062 2.707031 -4.28125 2.34375 -4.28125 C 2.15625 -4.28125 2.019531 -4.242188 1.9375 -4.171875 C 1.851562 -4.109375 1.8125 -4.03125 1.8125 -3.9375 C 1.8125 -3.832031 1.863281 -3.738281 1.96875 -3.65625 C 2.070312 -3.570312 2.367188 -3.421875 2.859375 -3.203125 C 3.316406 -2.992188 3.632812 -2.769531 3.8125 -2.53125 C 4 -2.289062 4.09375 -1.988281 4.09375 -1.625 Z M 4.09375 -1.625 "/></g></g><g transform="translate(8.045543, 8.259492)"><g><path d="M 1.9375 0 L 0.5 0 L 0.5 -4.15625 L 1.9375 -4.15625 Z M 0.46875 -5.1875 C 0.46875 -5.40625 0.523438 -5.566406 0.640625 -5.671875 C 0.765625 -5.773438 0.957031 -5.828125 1.21875 -5.828125 C 1.488281 -5.828125 1.6875 -5.773438 1.8125 -5.671875 C 1.9375 -5.566406 2 -5.40625 2 -5.1875 C 2 -4.769531 1.738281 -4.5625 1.21875 -4.5625 C 0.71875 -4.5625 0.46875 -4.769531 0.46875 -5.1875 Z M 0.46875 -5.1875 "/></g></g><g transform="translate(10.487099, 8.259492)"><g><path d="M 5.59375 0 L 5.59375 -2.265625 C 5.59375 -2.546875 5.554688 -2.753906 5.484375 -2.890625 C 5.410156 -3.035156 5.289062 -3.109375 5.125 -3.109375 C 4.894531 -3.109375 4.726562 -3.015625 4.625 -2.828125 C 4.53125 -2.640625 4.484375 -2.34375 4.484375 -1.9375 L 4.484375 0 L 3.046875 0 L 3.046875 -2.265625 C 3.046875 -2.546875 3.007812 -2.753906 2.9375 -2.890625 C 2.863281 -3.035156 2.742188 -3.109375 2.578125 -3.109375 C 2.347656 -3.109375 2.179688 -3.003906 2.078125 -2.796875 C 1.984375 -2.597656 1.9375 -2.269531 1.9375 -1.8125 L 1.9375 0 L 0.5 0 L 0.5 -4.15625 L 1.578125 -4.15625 L 1.75 -3.640625 L 1.84375 -3.640625 C 1.945312 -3.835938 2.101562 -3.984375 2.3125 -4.078125 C 2.53125 -4.179688 2.769531 -4.234375 3.03125 -4.234375 C 3.632812 -4.234375 4.054688 -4.050781 4.296875 -3.6875 L 4.40625 -3.6875 C 4.53125 -3.851562 4.695312 -3.984375 4.90625 -4.078125 C 5.113281 -4.179688 5.34375 -4.234375 5.59375 -4.234375 C 6.082031 -4.234375 6.441406 -4.101562 6.671875 -3.84375 C 6.910156 -3.59375 7.03125 -3.210938 7.03125 -2.703125 L 7.03125 0 Z M 5.59375 0 "/></g></g><g transform="translate(17.995066, 8.259492)"><g><path d="M 2.984375 0.078125 C 2.773438 0.078125 2.585938 0.0390625 2.421875 -0.03125 C 2.253906 -0.101562 2.09375 -0.226562 1.9375 -0.40625 L 1.859375 -0.40625 C 1.910156 -0.113281 1.9375 0.0664062 1.9375 0.140625 L 1.9375 1.8125 L 0.5 1.8125 L 0.5 -4.15625 L 1.65625 -4.15625 L 1.859375 -3.625 L 1.9375 -3.625 C 2.195312 -4.03125 2.5625 -4.234375 3.03125 -4.234375 C 3.488281 -4.234375 3.847656 -4.039062 4.109375 -3.65625 C 4.378906 -3.28125 4.515625 -2.757812 4.515625 -2.09375 C 4.515625 -1.414062 4.375 -0.882812 4.09375 -0.5 C 3.820312 -0.113281 3.453125 0.078125 2.984375 0.078125 Z M 2.515625 -3.109375 C 2.296875 -3.109375 2.144531 -3.03125 2.0625 -2.875 C 1.976562 -2.726562 1.9375 -2.503906 1.9375 -2.203125 L 1.9375 -2.09375 C 1.9375 -1.738281 1.984375 -1.476562 2.078125 -1.3125 C 2.171875 -1.15625 2.320312 -1.078125 2.53125 -1.078125 C 2.707031 -1.078125 2.835938 -1.15625 2.921875 -1.3125 C 3.003906 -1.476562 3.046875 -1.742188 3.046875 -2.109375 C 3.046875 -2.460938 3.003906 -2.71875 2.921875 -2.875 C 2.835938 -3.03125 2.703125 -3.109375 2.515625 -3.109375 Z M 2.515625 -3.109375 "/></g></g><g transform="translate(22.823187, 8.259492)"><g><path d="M 1.9375 0 L 0.5 0 L 0.5 -5.703125 L 1.9375 -5.703125 Z M 1.9375 0 "/></g></g><g transform="translate(25.250078, 8.259492)"><g><path d="M 2.5 0.078125 C 1.8125 0.078125 1.273438 -0.101562 0.890625 -0.46875 C 0.503906 -0.84375 0.3125 -1.367188 0.3125 -2.046875 C 0.3125 -2.753906 0.488281 -3.296875 0.84375 -3.671875 C 1.195312 -4.046875 1.703125 -4.234375 2.359375 -4.234375 C 2.992188 -4.234375 3.476562 -4.066406 3.8125 -3.734375 C 4.15625 -3.410156 4.328125 -2.941406 4.328125 -2.328125 L 4.328125 -1.6875 L 1.765625 -1.6875 C 1.773438 -1.457031 1.859375 -1.273438 2.015625 -1.140625 C 2.179688 -1.015625 2.398438 -0.953125 2.671875 -0.953125 C 2.921875 -0.953125 3.148438 -0.972656 3.359375 -1.015625 C 3.578125 -1.066406 3.8125 -1.148438 4.0625 -1.265625 L 4.0625 -0.234375 C 3.832031 -0.117188 3.597656 -0.0390625 3.359375 0 C 3.117188 0.0507812 2.832031 0.078125 2.5 0.078125 Z M 2.421875 -3.25 C 2.253906 -3.25 2.113281 -3.195312 2 -3.09375 C 1.882812 -2.988281 1.816406 -2.820312 1.796875 -2.59375 L 3.03125 -2.59375 C 3.019531 -2.789062 2.957031 -2.945312 2.84375 -3.0625 C 2.738281 -3.1875 2.597656 -3.25 2.421875 -3.25 Z M 2.421875 -3.25 "/></g></g><g transform="translate(29.891234, 8.259492)"><g><path d="M 3.703125 -1.28125 C 3.703125 -0.832031 3.550781 -0.492188 3.25 -0.265625 C 2.945312 -0.0351562 2.507812 0.078125 1.9375 0.078125 C 1.632812 0.078125 1.367188 0.0546875 1.140625 0.015625 C 0.910156 -0.015625 0.675781 -0.0703125 0.4375 -0.15625 L 0.4375 -1.3125 C 0.664062 -1.207031 0.910156 -1.125 1.171875 -1.0625 C 1.441406 -1 1.679688 -0.96875 1.890625 -0.96875 C 2.203125 -0.96875 2.359375 -1.039062 2.359375 -1.1875 C 2.359375 -1.257812 2.3125 -1.320312 2.21875 -1.375 C 2.132812 -1.4375 1.882812 -1.550781 1.46875 -1.71875 C 1.082031 -1.875 0.8125 -2.050781 0.65625 -2.25 C 0.507812 -2.445312 0.4375 -2.695312 0.4375 -3 C 0.4375 -3.382812 0.582031 -3.6875 0.875 -3.90625 C 1.175781 -4.125 1.601562 -4.234375 2.15625 -4.234375 C 2.425781 -4.234375 2.679688 -4.203125 2.921875 -4.140625 C 3.160156 -4.078125 3.410156 -3.988281 3.671875 -3.875 L 3.28125 -2.953125 C 3.09375 -3.035156 2.890625 -3.109375 2.671875 -3.171875 C 2.460938 -3.234375 2.289062 -3.265625 2.15625 -3.265625 C 1.925781 -3.265625 1.8125 -3.207031 1.8125 -3.09375 C 1.8125 -3.019531 1.847656 -2.957031 1.921875 -2.90625 C 2.003906 -2.851562 2.242188 -2.753906 2.640625 -2.609375 C 2.929688 -2.484375 3.144531 -2.363281 3.28125 -2.25 C 3.425781 -2.132812 3.53125 -2 3.59375 -1.84375 C 3.664062 -1.6875 3.703125 -1.5 3.703125 -1.28125 Z M 3.703125 -1.28125 "/></g></g><g transform="translate(33.894505, 8.259492)"><g/></g><g transform="translate(35.844817, 8.259492)"><g><path d="M 3.59375 -5.359375 L 5.21875 -5.359375 L 3.453125 0 L 1.75 0 L 0 -5.359375 L 1.625 -5.359375 L 2.359375 -2.640625 C 2.515625 -2.035156 2.597656 -1.617188 2.609375 -1.390625 C 2.628906 -1.554688 2.660156 -1.765625 2.703125 -2.015625 C 2.753906 -2.273438 2.800781 -2.476562 2.84375 -2.625 Z M 3.59375 -5.359375 "/></g></g><g transform="translate(41.054202, 8.259492)"><g><path d="M 1.9375 0 L 0.5 0 L 0.5 -4.15625 L 1.9375 -4.15625 Z M 0.46875 -5.1875 C 0.46875 -5.40625 0.523438 -5.566406 0.640625 -5.671875 C 0.765625 -5.773438 0.957031 -5.828125 1.21875 -5.828125 C 1.488281 -5.828125 1.6875 -5.773438 1.8125 -5.671875 C 1.9375 -5.566406 2 -5.40625 2 -5.1875 C 2 -4.769531 1.738281 -4.5625 1.21875 -4.5625 C 0.71875 -4.5625 0.46875 -4.769531 0.46875 -5.1875 Z M 0.46875 -5.1875 "/></g></g><g transform="translate(43.495758, 8.259492)"><g><path d="M 2.53125 -1.0625 C 2.726562 -1.0625 2.957031 -1.109375 3.21875 -1.203125 L 3.21875 -0.15625 C 3.03125 -0.0703125 2.847656 -0.015625 2.671875 0.015625 C 2.492188 0.0546875 2.289062 0.078125 2.0625 0.078125 C 1.570312 0.078125 1.222656 -0.0390625 1.015625 -0.28125 C 0.804688 -0.519531 0.703125 -0.882812 0.703125 -1.375 L 0.703125 -3.078125 L 0.1875 -3.078125 L 0.1875 -3.671875 L 0.828125 -4.125 L 1.203125 -4.984375 L 2.140625 -4.984375 L 2.140625 -4.15625 L 3.15625 -4.15625 L 3.15625 -3.078125 L 2.140625 -3.078125 L 2.140625 -1.46875 C 2.140625 -1.195312 2.269531 -1.0625 2.53125 -1.0625 Z M 2.53125 -1.0625 "/></g></g><g transform="translate(46.949129, 8.259492)"><g><path d="M 3.203125 0 L 2.9375 -0.546875 L 2.90625 -0.546875 C 2.707031 -0.304688 2.507812 -0.140625 2.3125 -0.046875 C 2.113281 0.0351562 1.851562 0.078125 1.53125 0.078125 C 1.144531 0.078125 0.835938 -0.0351562 0.609375 -0.265625 C 0.378906 -0.503906 0.265625 -0.835938 0.265625 -1.265625 C 0.265625 -1.710938 0.421875 -2.039062 0.734375 -2.25 C 1.046875 -2.46875 1.492188 -2.59375 2.078125 -2.625 L 2.765625 -2.640625 L 2.765625 -2.703125 C 2.765625 -3.046875 2.597656 -3.21875 2.265625 -3.21875 C 1.960938 -3.21875 1.578125 -3.113281 1.109375 -2.90625 L 0.6875 -3.859375 C 1.175781 -4.109375 1.789062 -4.234375 2.53125 -4.234375 C 3.0625 -4.234375 3.472656 -4.097656 3.765625 -3.828125 C 4.054688 -3.566406 4.203125 -3.203125 4.203125 -2.734375 L 4.203125 0 Z M 2.140625 -0.9375 C 2.316406 -0.9375 2.46875 -0.988281 2.59375 -1.09375 C 2.71875 -1.207031 2.78125 -1.351562 2.78125 -1.53125 L 2.78125 -1.859375 L 2.4375 -1.84375 C 1.96875 -1.820312 1.734375 -1.648438 1.734375 -1.328125 C 1.734375 -1.066406 1.867188 -0.9375 2.140625 -0.9375 Z M 2.140625 -0.9375 "/></g></g><g transform="translate(51.626944, 8.259492)"><g><path d="M 5.59375 0 L 5.59375 -2.265625 C 5.59375 -2.546875 5.554688 -2.753906 5.484375 -2.890625 C 5.410156 -3.035156 5.289062 -3.109375 5.125 -3.109375 C 4.894531 -3.109375 4.726562 -3.015625 4.625 -2.828125 C 4.53125 -2.640625 4.484375 -2.34375 4.484375 -1.9375 L 4.484375 0 L 3.046875 0 L 3.046875 -2.265625 C 3.046875 -2.546875 3.007812 -2.753906 2.9375 -2.890625 C 2.863281 -3.035156 2.742188 -3.109375 2.578125 -3.109375 C 2.347656 -3.109375 2.179688 -3.003906 2.078125 -2.796875 C 1.984375 -2.597656 1.9375 -2.269531 1.9375 -1.8125 L 1.9375 0 L 0.5 0 L 0.5 -4.15625 L 1.578125 -4.15625 L 1.75 -3.640625 L 1.84375 -3.640625 C 1.945312 -3.835938 2.101562 -3.984375 2.3125 -4.078125 C 2.53125 -4.179688 2.769531 -4.234375 3.03125 -4.234375 C 3.632812 -4.234375 4.054688 -4.050781 4.296875 -3.6875 L 4.40625 -3.6875 C 4.53125 -3.851562 4.695312 -3.984375 4.90625 -4.078125 C 5.113281 -4.179688 5.34375 -4.234375 5.59375 -4.234375 C 6.082031 -4.234375 6.441406 -4.101562 6.671875 -3.84375 C 6.910156 -3.59375 7.03125 -3.210938 7.03125 -2.703125 L 7.03125 0 Z M 5.59375 0 "/></g></g><g transform="translate(59.134911, 8.259492)"><g><path d="M 1.9375 0 L 0.5 0 L 0.5 -4.15625 L 1.9375 -4.15625 Z M 0.46875 -5.1875 C 0.46875 -5.40625 0.523438 -5.566406 0.640625 -5.671875 C 0.765625 -5.773438 0.957031 -5.828125 1.21875 -5.828125 C 1.488281 -5.828125 1.6875 -5.773438 1.8125 -5.671875 C 1.9375 -5.566406 2 -5.40625 2 -5.1875 C 2 -4.769531 1.738281 -4.5625 1.21875 -4.5625 C 0.71875 -4.5625 0.46875 -4.769531 0.46875 -5.1875 Z M 0.46875 -5.1875 "/></g></g><g transform="translate(61.576467, 8.259492)"><g><path d="M 3.125 0 L 3.125 -2.265625 C 3.125 -2.546875 3.082031 -2.753906 3 -2.890625 C 2.914062 -3.035156 2.785156 -3.109375 2.609375 -3.109375 C 2.367188 -3.109375 2.195312 -3.007812 2.09375 -2.8125 C 1.988281 -2.625 1.9375 -2.289062 1.9375 -1.8125 L 1.9375 0 L 0.5 0 L 0.5 -4.15625 L 1.578125 -4.15625 L 1.75 -3.640625 L 1.84375 -3.640625 C 1.96875 -3.835938 2.132812 -3.984375 2.34375 -4.078125 C 2.5625 -4.179688 2.8125 -4.234375 3.09375 -4.234375 C 3.550781 -4.234375 3.90625 -4.097656 4.15625 -3.828125 C 4.414062 -3.566406 4.546875 -3.191406 4.546875 -2.703125 L 4.546875 0 Z M 3.125 0 "/></g></g><g transform="translate(66.606218, 8.259492)"><g><path d="M 3.203125 0 L 2.9375 -0.546875 L 2.90625 -0.546875 C 2.707031 -0.304688 2.507812 -0.140625 2.3125 -0.046875 C 2.113281 0.0351562 1.851562 0.078125 1.53125 0.078125 C 1.144531 0.078125 0.835938 -0.0351562 0.609375 -0.265625 C 0.378906 -0.503906 0.265625 -0.835938 0.265625 -1.265625 C 0.265625 -1.710938 0.421875 -2.039062 0.734375 -2.25 C 1.046875 -2.46875 1.492188 -2.59375 2.078125 -2.625 L 2.765625 -2.640625 L 2.765625 -2.703125 C 2.765625 -3.046875 2.597656 -3.21875 2.265625 -3.21875 C 1.960938 -3.21875 1.578125 -3.113281 1.109375 -2.90625 L 0.6875 -3.859375 C 1.175781 -4.109375 1.789062 -4.234375 2.53125 -4.234375 C 3.0625 -4.234375 3.472656 -4.097656 3.765625 -3.828125 C 4.054688 -3.566406 4.203125 -3.203125 4.203125 -2.734375 L 4.203125 0 Z M 2.140625 -0.9375 C 2.316406 -0.9375 2.46875 -0.988281 2.59375 -1.09375 C 2.71875 -1.207031 2.78125 -1.351562 2.78125 -1.53125 L 2.78125 -1.859375 L 2.4375 -1.84375 C 1.96875 -1.820312 1.734375 -1.648438 1.734375 -1.328125 C 1.734375 -1.066406 1.867188 -0.9375 2.140625 -0.9375 Z M 2.140625 -0.9375 "/></g></g></g><g fill="rgb(100%, 100%, 100%)" fill-opacity="1"><g transform="translate(3.917628, 17.018786)"><g><path d="M 1.78125 0.078125 C 1.488281 0.078125 1.226562 -0.00390625 1 -0.171875 C 0.78125 -0.347656 0.609375 -0.597656 0.484375 -0.921875 C 0.367188 -1.253906 0.3125 -1.640625 0.3125 -2.078125 C 0.3125 -2.753906 0.445312 -3.28125 0.71875 -3.65625 C 0.988281 -4.039062 1.363281 -4.234375 1.84375 -4.234375 C 2.070312 -4.234375 2.273438 -4.1875 2.453125 -4.09375 C 2.628906 -4 2.789062 -3.84375 2.9375 -3.625 L 2.96875 -3.625 C 2.914062 -3.945312 2.890625 -4.269531 2.890625 -4.59375 L 2.890625 -5.703125 L 4.34375 -5.703125 L 4.34375 0 L 3.25 0 L 2.953125 -0.53125 L 2.890625 -0.53125 C 2.640625 -0.125 2.269531 0.078125 1.78125 0.078125 Z M 2.375 -1.0625 C 2.601562 -1.0625 2.765625 -1.132812 2.859375 -1.28125 C 2.953125 -1.425781 3.003906 -1.644531 3.015625 -1.9375 L 3.015625 -2.0625 C 3.015625 -2.425781 2.960938 -2.6875 2.859375 -2.84375 C 2.753906 -3 2.585938 -3.078125 2.359375 -3.078125 C 2.171875 -3.078125 2.023438 -2.988281 1.921875 -2.8125 C 1.816406 -2.632812 1.765625 -2.378906 1.765625 -2.046875 C 1.765625 -1.722656 1.816406 -1.476562 1.921875 -1.3125 C 2.023438 -1.144531 2.175781 -1.0625 2.375 -1.0625 Z M 2.375 -1.0625 "/></g></g><g transform="translate(8.745749, 17.018786)"><g><path d="M 2.5 0.078125 C 1.8125 0.078125 1.273438 -0.101562 0.890625 -0.46875 C 0.503906 -0.84375 0.3125 -1.367188 0.3125 -2.046875 C 0.3125 -2.753906 0.488281 -3.296875 0.84375 -3.671875 C 1.195312 -4.046875 1.703125 -4.234375 2.359375 -4.234375 C 2.992188 -4.234375 3.476562 -4.066406 3.8125 -3.734375 C 4.15625 -3.410156 4.328125 -2.941406 4.328125 -2.328125 L 4.328125 -1.6875 L 1.765625 -1.6875 C 1.773438 -1.457031 1.859375 -1.273438 2.015625 -1.140625 C 2.179688 -1.015625 2.398438 -0.953125 2.671875 -0.953125 C 2.921875 -0.953125 3.148438 -0.972656 3.359375 -1.015625 C 3.578125 -1.066406 3.8125 -1.148438 4.0625 -1.265625 L 4.0625 -0.234375 C 3.832031 -0.117188 3.597656 -0.0390625 3.359375 0 C 3.117188 0.0507812 2.832031 0.078125 2.5 0.078125 Z M 2.421875 -3.25 C 2.253906 -3.25 2.113281 -3.195312 2 -3.09375 C 1.882812 -2.988281 1.816406 -2.820312 1.796875 -2.59375 L 3.03125 -2.59375 C 3.019531 -2.789062 2.957031 -2.945312 2.84375 -3.0625 C 2.738281 -3.1875 2.597656 -3.25 2.421875 -3.25 Z M 2.421875 -3.25 "/></g></g><g transform="translate(13.386904, 17.018786)"><g/></g><g transform="translate(15.337216, 17.018786)"><g><path d="M 0.25 -2.265625 C 0.25 -3.015625 0.359375 -3.617188 0.578125 -4.078125 C 0.796875 -4.546875 1.113281 -4.890625 1.53125 -5.109375 C 1.945312 -5.328125 2.457031 -5.4375 3.0625 -5.4375 C 3.28125 -5.4375 3.535156 -5.414062 3.828125 -5.375 L 3.828125 -4.25 C 3.585938 -4.289062 3.320312 -4.3125 3.03125 -4.3125 C 2.550781 -4.3125 2.191406 -4.203125 1.953125 -3.984375 C 1.710938 -3.773438 1.582031 -3.429688 1.5625 -2.953125 L 1.609375 -2.953125 C 1.828125 -3.367188 2.179688 -3.578125 2.671875 -3.578125 C 3.148438 -3.578125 3.519531 -3.421875 3.78125 -3.109375 C 4.039062 -2.804688 4.171875 -2.378906 4.171875 -1.828125 C 4.171875 -1.242188 4.003906 -0.78125 3.671875 -0.4375 C 3.335938 -0.09375 2.875 0.078125 2.28125 0.078125 C 1.644531 0.078125 1.144531 -0.125 0.78125 -0.53125 C 0.425781 -0.945312 0.25 -1.523438 0.25 -2.265625 Z M 2.25 -1.078125 C 2.40625 -1.078125 2.53125 -1.132812 2.625 -1.25 C 2.71875 -1.363281 2.765625 -1.550781 2.765625 -1.8125 C 2.765625 -2.238281 2.597656 -2.453125 2.265625 -2.453125 C 2.097656 -2.453125 1.960938 -2.394531 1.859375 -2.28125 C 1.753906 -2.175781 1.703125 -2.039062 1.703125 -1.875 C 1.703125 -1.644531 1.75 -1.453125 1.84375 -1.296875 C 1.945312 -1.148438 2.082031 -1.078125 2.25 -1.078125 Z M 2.25 -1.078125 "/></g></g><g transform="translate(19.736415, 17.018786)"><g/></g><g transform="translate(21.686727, 17.018786)"><g><path d="M 0.578125 0 L 0.578125 -5.359375 L 2.03125 -5.359375 L 2.03125 0 Z M 0.578125 0 "/></g></g><g transform="translate(24.300585, 17.018786)"><g><path d="M 3.125 0 L 3.125 -2.265625 C 3.125 -2.546875 3.082031 -2.753906 3 -2.890625 C 2.914062 -3.035156 2.785156 -3.109375 2.609375 -3.109375 C 2.367188 -3.109375 2.195312 -3.007812 2.09375 -2.8125 C 1.988281 -2.625 1.9375 -2.289062 1.9375 -1.8125 L 1.9375 0 L 0.5 0 L 0.5 -4.15625 L 1.578125 -4.15625 L 1.75 -3.640625 L 1.84375 -3.640625 C 1.96875 -3.835938 2.132812 -3.984375 2.34375 -4.078125 C 2.5625 -4.179688 2.8125 -4.234375 3.09375 -4.234375 C 3.550781 -4.234375 3.90625 -4.097656 4.15625 -3.828125 C 4.414062 -3.566406 4.546875 -3.191406 4.546875 -2.703125 L 4.546875 0 Z M 3.125 0 "/></g></g><g transform="translate(29.330336, 17.018786)"><g><path d="M 4.421875 -4.15625 L 4.421875 -3.46875 L 3.84375 -3.25 C 3.925781 -3.113281 3.96875 -2.953125 3.96875 -2.765625 C 3.96875 -2.316406 3.8125 -1.96875 3.5 -1.71875 C 3.1875 -1.46875 2.71875 -1.34375 2.09375 -1.34375 C 1.9375 -1.34375 1.8125 -1.351562 1.71875 -1.375 C 1.6875 -1.3125 1.671875 -1.253906 1.671875 -1.203125 C 1.671875 -1.128906 1.726562 -1.070312 1.84375 -1.03125 C 1.957031 -0.988281 2.109375 -0.96875 2.296875 -0.96875 L 2.984375 -0.96875 C 3.910156 -0.96875 4.375 -0.578125 4.375 0.203125 C 4.375 0.710938 4.160156 1.109375 3.734375 1.390625 C 3.304688 1.671875 2.703125 1.8125 1.921875 1.8125 C 1.328125 1.8125 0.867188 1.710938 0.546875 1.515625 C 0.234375 1.316406 0.078125 1.03125 0.078125 0.65625 C 0.078125 0.164062 0.382812 -0.148438 1 -0.296875 C 0.875 -0.347656 0.765625 -0.429688 0.671875 -0.546875 C 0.578125 -0.671875 0.53125 -0.796875 0.53125 -0.921875 C 0.53125 -1.046875 0.5625 -1.15625 0.625 -1.25 C 0.695312 -1.351562 0.847656 -1.472656 1.078125 -1.609375 C 0.859375 -1.703125 0.6875 -1.847656 0.5625 -2.046875 C 0.4375 -2.253906 0.375 -2.503906 0.375 -2.796875 C 0.375 -3.253906 0.53125 -3.609375 0.84375 -3.859375 C 1.15625 -4.109375 1.597656 -4.234375 2.171875 -4.234375 C 2.242188 -4.234375 2.375 -4.222656 2.5625 -4.203125 C 2.75 -4.191406 2.882812 -4.175781 2.96875 -4.15625 Z M 1.28125 0.515625 C 1.28125 0.628906 1.34375 0.722656 1.46875 0.796875 C 1.601562 0.867188 1.773438 0.90625 1.984375 0.90625 C 2.328125 0.90625 2.601562 0.863281 2.8125 0.78125 C 3.03125 0.695312 3.140625 0.582031 3.140625 0.4375 C 3.140625 0.332031 3.070312 0.253906 2.9375 0.203125 C 2.8125 0.160156 2.628906 0.140625 2.390625 0.140625 L 1.828125 0.140625 C 1.679688 0.140625 1.550781 0.175781 1.4375 0.25 C 1.332031 0.320312 1.28125 0.410156 1.28125 0.515625 Z M 1.734375 -2.796875 C 1.734375 -2.367188 1.882812 -2.15625 2.1875 -2.15625 C 2.320312 -2.15625 2.425781 -2.207031 2.5 -2.3125 C 2.570312 -2.414062 2.609375 -2.570312 2.609375 -2.78125 C 2.609375 -3.21875 2.46875 -3.4375 2.1875 -3.4375 C 1.882812 -3.4375 1.734375 -3.222656 1.734375 -2.796875 Z M 1.734375 -2.796875 "/></g></g><g transform="translate(33.879841, 17.018786)"><g><path d="M 3 -4.234375 C 3.125 -4.234375 3.242188 -4.222656 3.359375 -4.203125 L 3.4375 -4.1875 L 3.3125 -2.828125 C 3.195312 -2.859375 3.035156 -2.875 2.828125 -2.875 C 2.515625 -2.875 2.285156 -2.800781 2.140625 -2.65625 C 2.003906 -2.519531 1.9375 -2.316406 1.9375 -2.046875 L 1.9375 0 L 0.5 0 L 0.5 -4.15625 L 1.5625 -4.15625 L 1.78125 -3.5 L 1.859375 -3.5 C 1.972656 -3.71875 2.132812 -3.894531 2.34375 -4.03125 C 2.5625 -4.164062 2.78125 -4.234375 3 -4.234375 Z M 3 -4.234375 "/></g></g><g transform="translate(37.402866, 17.018786)"><g><path d="M 2.5 0.078125 C 1.8125 0.078125 1.273438 -0.101562 0.890625 -0.46875 C 0.503906 -0.84375 0.3125 -1.367188 0.3125 -2.046875 C 0.3125 -2.753906 0.488281 -3.296875 0.84375 -3.671875 C 1.195312 -4.046875 1.703125 -4.234375 2.359375 -4.234375 C 2.992188 -4.234375 3.476562 -4.066406 3.8125 -3.734375 C 4.15625 -3.410156 4.328125 -2.941406 4.328125 -2.328125 L 4.328125 -1.6875 L 1.765625 -1.6875 C 1.773438 -1.457031 1.859375 -1.273438 2.015625 -1.140625 C 2.179688 -1.015625 2.398438 -0.953125 2.671875 -0.953125 C 2.921875 -0.953125 3.148438 -0.972656 3.359375 -1.015625 C 3.578125 -1.066406 3.8125 -1.148438 4.0625 -1.265625 L 4.0625 -0.234375 C 3.832031 -0.117188 3.597656 -0.0390625 3.359375 0 C 3.117188 0.0507812 2.832031 0.078125 2.5 0.078125 Z M 2.421875 -3.25 C 2.253906 -3.25 2.113281 -3.195312 2 -3.09375 C 1.882812 -2.988281 1.816406 -2.820312 1.796875 -2.59375 L 3.03125 -2.59375 C 3.019531 -2.789062 2.957031 -2.945312 2.84375 -3.0625 C 2.738281 -3.1875 2.597656 -3.25 2.421875 -3.25 Z M 2.421875 -3.25 "/></g></g><g transform="translate(42.044022, 17.018786)"><g><path d="M 1.78125 0.078125 C 1.488281 0.078125 1.226562 -0.00390625 1 -0.171875 C 0.78125 -0.347656 0.609375 -0.597656 0.484375 -0.921875 C 0.367188 -1.253906 0.3125 -1.640625 0.3125 -2.078125 C 0.3125 -2.753906 0.445312 -3.28125 0.71875 -3.65625 C 0.988281 -4.039062 1.363281 -4.234375 1.84375 -4.234375 C 2.070312 -4.234375 2.273438 -4.1875 2.453125 -4.09375 C 2.628906 -4 2.789062 -3.84375 2.9375 -3.625 L 2.96875 -3.625 C 2.914062 -3.945312 2.890625 -4.269531 2.890625 -4.59375 L 2.890625 -5.703125 L 4.34375 -5.703125 L 4.34375 0 L 3.25 0 L 2.953125 -0.53125 L 2.890625 -0.53125 C 2.640625 -0.125 2.269531 0.078125 1.78125 0.078125 Z M 2.375 -1.0625 C 2.601562 -1.0625 2.765625 -1.132812 2.859375 -1.28125 C 2.953125 -1.425781 3.003906 -1.644531 3.015625 -1.9375 L 3.015625 -2.0625 C 3.015625 -2.425781 2.960938 -2.6875 2.859375 -2.84375 C 2.753906 -3 2.585938 -3.078125 2.359375 -3.078125 C 2.171875 -3.078125 2.023438 -2.988281 1.921875 -2.8125 C 1.816406 -2.632812 1.765625 -2.378906 1.765625 -2.046875 C 1.765625 -1.722656 1.816406 -1.476562 1.921875 -1.3125 C 2.023438 -1.144531 2.175781 -1.0625 2.375 -1.0625 Z M 2.375 -1.0625 "/></g></g><g transform="translate(46.872143, 17.018786)"><g><path d="M 1.9375 0 L 0.5 0 L 0.5 -4.15625 L 1.9375 -4.15625 Z M 0.46875 -5.1875 C 0.46875 -5.40625 0.523438 -5.566406 0.640625 -5.671875 C 0.765625 -5.773438 0.957031 -5.828125 1.21875 -5.828125 C 1.488281 -5.828125 1.6875 -5.773438 1.8125 -5.671875 C 1.9375 -5.566406 2 -5.40625 2 -5.1875 C 2 -4.769531 1.738281 -4.5625 1.21875 -4.5625 C 0.71875 -4.5625 0.46875 -4.769531 0.46875 -5.1875 Z M 0.46875 -5.1875 "/></g></g><g transform="translate(49.313699, 17.018786)"><g><path d="M 2.5 0.078125 C 1.8125 0.078125 1.273438 -0.101562 0.890625 -0.46875 C 0.503906 -0.84375 0.3125 -1.367188 0.3125 -2.046875 C 0.3125 -2.753906 0.488281 -3.296875 0.84375 -3.671875 C 1.195312 -4.046875 1.703125 -4.234375 2.359375 -4.234375 C 2.992188 -4.234375 3.476562 -4.066406 3.8125 -3.734375 C 4.15625 -3.410156 4.328125 -2.941406 4.328125 -2.328125 L 4.328125 -1.6875 L 1.765625 -1.6875 C 1.773438 -1.457031 1.859375 -1.273438 2.015625 -1.140625 C 2.179688 -1.015625 2.398438 -0.953125 2.671875 -0.953125 C 2.921875 -0.953125 3.148438 -0.972656 3.359375 -1.015625 C 3.578125 -1.066406 3.8125 -1.148438 4.0625 -1.265625 L 4.0625 -0.234375 C 3.832031 -0.117188 3.597656 -0.0390625 3.359375 0 C 3.117188 0.0507812 2.832031 0.078125 2.5 0.078125 Z M 2.421875 -3.25 C 2.253906 -3.25 2.113281 -3.195312 2 -3.09375 C 1.882812 -2.988281 1.816406 -2.820312 1.796875 -2.59375 L 3.03125 -2.59375 C 3.019531 -2.789062 2.957031 -2.945312 2.84375 -3.0625 C 2.738281 -3.1875 2.597656 -3.25 2.421875 -3.25 Z M 2.421875 -3.25 "/></g></g><g transform="translate(53.954854, 17.018786)"><g><path d="M 3.125 0 L 3.125 -2.265625 C 3.125 -2.546875 3.082031 -2.753906 3 -2.890625 C 2.914062 -3.035156 2.785156 -3.109375 2.609375 -3.109375 C 2.367188 -3.109375 2.195312 -3.007812 2.09375 -2.8125 C 1.988281 -2.625 1.9375 -2.289062 1.9375 -1.8125 L 1.9375 0 L 0.5 0 L 0.5 -4.15625 L 1.578125 -4.15625 L 1.75 -3.640625 L 1.84375 -3.640625 C 1.96875 -3.835938 2.132812 -3.984375 2.34375 -4.078125 C 2.5625 -4.179688 2.8125 -4.234375 3.09375 -4.234375 C 3.550781 -4.234375 3.90625 -4.097656 4.15625 -3.828125 C 4.414062 -3.566406 4.546875 -3.191406 4.546875 -2.703125 L 4.546875 0 Z M 3.125 0 "/></g></g><g transform="translate(58.984605, 17.018786)"><g><path d="M 2.53125 -1.0625 C 2.726562 -1.0625 2.957031 -1.109375 3.21875 -1.203125 L 3.21875 -0.15625 C 3.03125 -0.0703125 2.847656 -0.015625 2.671875 0.015625 C 2.492188 0.0546875 2.289062 0.078125 2.0625 0.078125 C 1.570312 0.078125 1.222656 -0.0390625 1.015625 -0.28125 C 0.804688 -0.519531 0.703125 -0.882812 0.703125 -1.375 L 0.703125 -3.078125 L 0.1875 -3.078125 L 0.1875 -3.671875 L 0.828125 -4.125 L 1.203125 -4.984375 L 2.140625 -4.984375 L 2.140625 -4.15625 L 3.15625 -4.15625 L 3.15625 -3.078125 L 2.140625 -3.078125 L 2.140625 -1.46875 C 2.140625 -1.195312 2.269531 -1.0625 2.53125 -1.0625 Z M 2.53125 -1.0625 "/></g></g><g transform="translate(62.437976, 17.018786)"><g><path d="M 2.5 0.078125 C 1.8125 0.078125 1.273438 -0.101562 0.890625 -0.46875 C 0.503906 -0.84375 0.3125 -1.367188 0.3125 -2.046875 C 0.3125 -2.753906 0.488281 -3.296875 0.84375 -3.671875 C 1.195312 -4.046875 1.703125 -4.234375 2.359375 -4.234375 C 2.992188 -4.234375 3.476562 -4.066406 3.8125 -3.734375 C 4.15625 -3.410156 4.328125 -2.941406 4.328125 -2.328125 L 4.328125 -1.6875 L 1.765625 -1.6875 C 1.773438 -1.457031 1.859375 -1.273438 2.015625 -1.140625 C 2.179688 -1.015625 2.398438 -0.953125 2.671875 -0.953125 C 2.921875 -0.953125 3.148438 -0.972656 3.359375 -1.015625 C 3.578125 -1.066406 3.8125 -1.148438 4.0625 -1.265625 L 4.0625 -0.234375 C 3.832031 -0.117188 3.597656 -0.0390625 3.359375 0 C 3.117188 0.0507812 2.832031 0.078125 2.5 0.078125 Z M 2.421875 -3.25 C 2.253906 -3.25 2.113281 -3.195312 2 -3.09375 C 1.882812 -2.988281 1.816406 -2.820312 1.796875 -2.59375 L 3.03125 -2.59375 C 3.019531 -2.789062 2.957031 -2.945312 2.84375 -3.0625 C 2.738281 -3.1875 2.597656 -3.25 2.421875 -3.25 Z M 2.421875 -3.25 "/></g></g><g transform="translate(67.079132, 17.018786)"><g><path d="M 3.703125 -1.28125 C 3.703125 -0.832031 3.550781 -0.492188 3.25 -0.265625 C 2.945312 -0.0351562 2.507812 0.078125 1.9375 0.078125 C 1.632812 0.078125 1.367188 0.0546875 1.140625 0.015625 C 0.910156 -0.015625 0.675781 -0.0703125 0.4375 -0.15625 L 0.4375 -1.3125 C 0.664062 -1.207031 0.910156 -1.125 1.171875 -1.0625 C 1.441406 -1 1.679688 -0.96875 1.890625 -0.96875 C 2.203125 -0.96875 2.359375 -1.039062 2.359375 -1.1875 C 2.359375 -1.257812 2.3125 -1.320312 2.21875 -1.375 C 2.132812 -1.4375 1.882812 -1.550781 1.46875 -1.71875 C 1.082031 -1.875 0.8125 -2.050781 0.65625 -2.25 C 0.507812 -2.445312 0.4375 -2.695312 0.4375 -3 C 0.4375 -3.382812 0.582031 -3.6875 0.875 -3.90625 C 1.175781 -4.125 1.601562 -4.234375 2.15625 -4.234375 C 2.425781 -4.234375 2.679688 -4.203125 2.921875 -4.140625 C 3.160156 -4.078125 3.410156 -3.988281 3.671875 -3.875 L 3.28125 -2.953125 C 3.09375 -3.035156 2.890625 -3.109375 2.671875 -3.171875 C 2.460938 -3.234375 2.289062 -3.265625 2.15625 -3.265625 C 1.925781 -3.265625 1.8125 -3.207031 1.8125 -3.09375 C 1.8125 -3.019531 1.847656 -2.957031 1.921875 -2.90625 C 2.003906 -2.851562 2.242188 -2.753906 2.640625 -2.609375 C 2.929688 -2.484375 3.144531 -2.363281 3.28125 -2.25 C 3.425781 -2.132812 3.53125 -2 3.59375 -1.84375 C 3.664062 -1.6875 3.703125 -1.5 3.703125 -1.28125 Z M 3.703125 -1.28125 "/></g></g></g><g fill="rgb(100%, 100%, 100%)" fill-opacity="1"><g transform="translate(10.076507, 25.778081)"><g><path d="M 5.140625 -2.796875 C 5.140625 -1.898438 4.890625 -1.207031 4.390625 -0.71875 C 3.898438 -0.238281 3.207031 0 2.3125 0 L 0.578125 0 L 0.578125 -5.359375 L 2.4375 -5.359375 C 3.300781 -5.359375 3.96875 -5.140625 4.4375 -4.703125 C 4.90625 -4.265625 5.140625 -3.628906 5.140625 -2.796875 Z M 3.625 -2.75 C 3.625 -3.238281 3.523438 -3.597656 3.328125 -3.828125 C 3.140625 -4.066406 2.847656 -4.1875 2.453125 -4.1875 L 2.03125 -4.1875 L 2.03125 -1.1875 L 2.359375 -1.1875 C 2.796875 -1.1875 3.113281 -1.3125 3.3125 -1.5625 C 3.519531 -1.820312 3.625 -2.21875 3.625 -2.75 Z M 3.625 -2.75 "/></g></g><g transform="translate(15.586504, 25.778081)"><g><path d="M 2.5 0.078125 C 1.8125 0.078125 1.273438 -0.101562 0.890625 -0.46875 C 0.503906 -0.84375 0.3125 -1.367188 0.3125 -2.046875 C 0.3125 -2.753906 0.488281 -3.296875 0.84375 -3.671875 C 1.195312 -4.046875 1.703125 -4.234375 2.359375 -4.234375 C 2.992188 -4.234375 3.476562 -4.066406 3.8125 -3.734375 C 4.15625 -3.410156 4.328125 -2.941406 4.328125 -2.328125 L 4.328125 -1.6875 L 1.765625 -1.6875 C 1.773438 -1.457031 1.859375 -1.273438 2.015625 -1.140625 C 2.179688 -1.015625 2.398438 -0.953125 2.671875 -0.953125 C 2.921875 -0.953125 3.148438 -0.972656 3.359375 -1.015625 C 3.578125 -1.066406 3.8125 -1.148438 4.0625 -1.265625 L 4.0625 -0.234375 C 3.832031 -0.117188 3.597656 -0.0390625 3.359375 0 C 3.117188 0.0507812 2.832031 0.078125 2.5 0.078125 Z M 2.421875 -3.25 C 2.253906 -3.25 2.113281 -3.195312 2 -3.09375 C 1.882812 -2.988281 1.816406 -2.820312 1.796875 -2.59375 L 3.03125 -2.59375 C 3.019531 -2.789062 2.957031 -2.945312 2.84375 -3.0625 C 2.738281 -3.1875 2.597656 -3.25 2.421875 -3.25 Z M 2.421875 -3.25 "/></g></g><g transform="translate(20.227659, 25.778081)"><g><path d="M 3 -4.234375 C 3.125 -4.234375 3.242188 -4.222656 3.359375 -4.203125 L 3.4375 -4.1875 L 3.3125 -2.828125 C 3.195312 -2.859375 3.035156 -2.875 2.828125 -2.875 C 2.515625 -2.875 2.285156 -2.800781 2.140625 -2.65625 C 2.003906 -2.519531 1.9375 -2.316406 1.9375 -2.046875 L 1.9375 0 L 0.5 0 L 0.5 -4.15625 L 1.5625 -4.15625 L 1.78125 -3.5 L 1.859375 -3.5 C 1.972656 -3.71875 2.132812 -3.894531 2.34375 -4.03125 C 2.5625 -4.164062 2.78125 -4.234375 3 -4.234375 Z M 3 -4.234375 "/></g></g><g transform="translate(23.750685, 25.778081)"><g><path d="M 3 -4.234375 C 3.125 -4.234375 3.242188 -4.222656 3.359375 -4.203125 L 3.4375 -4.1875 L 3.3125 -2.828125 C 3.195312 -2.859375 3.035156 -2.875 2.828125 -2.875 C 2.515625 -2.875 2.285156 -2.800781 2.140625 -2.65625 C 2.003906 -2.519531 1.9375 -2.316406 1.9375 -2.046875 L 1.9375 0 L 0.5 0 L 0.5 -4.15625 L 1.5625 -4.15625 L 1.78125 -3.5 L 1.859375 -3.5 C 1.972656 -3.71875 2.132812 -3.894531 2.34375 -4.03125 C 2.5625 -4.164062 2.78125 -4.234375 3 -4.234375 Z M 3 -4.234375 "/></g></g><g transform="translate(27.27371, 25.778081)"><g><path d="M 2.5 0.078125 C 1.8125 0.078125 1.273438 -0.101562 0.890625 -0.46875 C 0.503906 -0.84375 0.3125 -1.367188 0.3125 -2.046875 C 0.3125 -2.753906 0.488281 -3.296875 0.84375 -3.671875 C 1.195312 -4.046875 1.703125 -4.234375 2.359375 -4.234375 C 2.992188 -4.234375 3.476562 -4.066406 3.8125 -3.734375 C 4.15625 -3.410156 4.328125 -2.941406 4.328125 -2.328125 L 4.328125 -1.6875 L 1.765625 -1.6875 C 1.773438 -1.457031 1.859375 -1.273438 2.015625 -1.140625 C 2.179688 -1.015625 2.398438 -0.953125 2.671875 -0.953125 C 2.921875 -0.953125 3.148438 -0.972656 3.359375 -1.015625 C 3.578125 -1.066406 3.8125 -1.148438 4.0625 -1.265625 L 4.0625 -0.234375 C 3.832031 -0.117188 3.597656 -0.0390625 3.359375 0 C 3.117188 0.0507812 2.832031 0.078125 2.5 0.078125 Z M 2.421875 -3.25 C 2.253906 -3.25 2.113281 -3.195312 2 -3.09375 C 1.882812 -2.988281 1.816406 -2.820312 1.796875 -2.59375 L 3.03125 -2.59375 C 3.019531 -2.789062 2.957031 -2.945312 2.84375 -3.0625 C 2.738281 -3.1875 2.597656 -3.25 2.421875 -3.25 Z M 2.421875 -3.25 "/></g></g><g transform="translate(31.914865, 25.778081)"><g><path d="M 2.53125 -1.0625 C 2.726562 -1.0625 2.957031 -1.109375 3.21875 -1.203125 L 3.21875 -0.15625 C 3.03125 -0.0703125 2.847656 -0.015625 2.671875 0.015625 C 2.492188 0.0546875 2.289062 0.078125 2.0625 0.078125 C 1.570312 0.078125 1.222656 -0.0390625 1.015625 -0.28125 C 0.804688 -0.519531 0.703125 -0.882812 0.703125 -1.375 L 0.703125 -3.078125 L 0.1875 -3.078125 L 0.1875 -3.671875 L 0.828125 -4.125 L 1.203125 -4.984375 L 2.140625 -4.984375 L 2.140625 -4.15625 L 3.15625 -4.15625 L 3.15625 -3.078125 L 2.140625 -3.078125 L 2.140625 -1.46875 C 2.140625 -1.195312 2.269531 -1.0625 2.53125 -1.0625 Z M 2.53125 -1.0625 "/></g></g><g transform="translate(35.368237, 25.778081)"><g><path d="M 2.5 0.078125 C 1.8125 0.078125 1.273438 -0.101562 0.890625 -0.46875 C 0.503906 -0.84375 0.3125 -1.367188 0.3125 -2.046875 C 0.3125 -2.753906 0.488281 -3.296875 0.84375 -3.671875 C 1.195312 -4.046875 1.703125 -4.234375 2.359375 -4.234375 C 2.992188 -4.234375 3.476562 -4.066406 3.8125 -3.734375 C 4.15625 -3.410156 4.328125 -2.941406 4.328125 -2.328125 L 4.328125 -1.6875 L 1.765625 -1.6875 C 1.773438 -1.457031 1.859375 -1.273438 2.015625 -1.140625 C 2.179688 -1.015625 2.398438 -0.953125 2.671875 -0.953125 C 2.921875 -0.953125 3.148438 -0.972656 3.359375 -1.015625 C 3.578125 -1.066406 3.8125 -1.148438 4.0625 -1.265625 L 4.0625 -0.234375 C 3.832031 -0.117188 3.597656 -0.0390625 3.359375 0 C 3.117188 0.0507812 2.832031 0.078125 2.5 0.078125 Z M 2.421875 -3.25 C 2.253906 -3.25 2.113281 -3.195312 2 -3.09375 C 1.882812 -2.988281 1.816406 -2.820312 1.796875 -2.59375 L 3.03125 -2.59375 C 3.019531 -2.789062 2.957031 -2.945312 2.84375 -3.0625 C 2.738281 -3.1875 2.597656 -3.25 2.421875 -3.25 Z M 2.421875 -3.25 "/></g></g><g transform="translate(40.009392, 25.778081)"><g/></g><g transform="translate(41.959704, 25.778081)"><g><path d="M 2.921875 0 L 1.8125 -3.859375 L 1.78125 -3.859375 C 1.832031 -3.203125 1.859375 -2.691406 1.859375 -2.328125 L 1.859375 0 L 0.578125 0 L 0.578125 -5.359375 L 2.515625 -5.359375 L 3.625 -1.5625 L 3.65625 -1.5625 L 4.75 -5.359375 L 6.6875 -5.359375 L 6.6875 0 L 5.359375 0 L 5.359375 -2.359375 C 5.359375 -2.472656 5.359375 -2.601562 5.359375 -2.75 C 5.367188 -2.90625 5.382812 -3.273438 5.40625 -3.859375 L 5.375 -3.859375 L 4.296875 0 Z M 2.921875 0 "/></g></g><g transform="translate(49.218383, 25.778081)"><g><path d="M 3.453125 0 L 3.28125 -0.515625 L 3.1875 -0.515625 C 3.070312 -0.328125 2.90625 -0.179688 2.6875 -0.078125 C 2.476562 0.0234375 2.226562 0.078125 1.9375 0.078125 C 1.476562 0.078125 1.117188 -0.0507812 0.859375 -0.3125 C 0.609375 -0.582031 0.484375 -0.960938 0.484375 -1.453125 L 0.484375 -4.15625 L 1.921875 -4.15625 L 1.921875 -1.890625 C 1.921875 -1.617188 1.957031 -1.410156 2.03125 -1.265625 C 2.113281 -1.128906 2.242188 -1.0625 2.421875 -1.0625 C 2.660156 -1.0625 2.832031 -1.15625 2.9375 -1.34375 C 3.050781 -1.539062 3.109375 -1.875 3.109375 -2.34375 L 3.109375 -4.15625 L 4.546875 -4.15625 L 4.546875 0 Z M 3.453125 0 "/></g></g><g transform="translate(54.248134, 25.778081)"><g><path d="M 1.9375 0 L 0.5 0 L 0.5 -4.15625 L 1.9375 -4.15625 Z M 0.46875 -5.1875 C 0.46875 -5.40625 0.523438 -5.566406 0.640625 -5.671875 C 0.765625 -5.773438 0.957031 -5.828125 1.21875 -5.828125 C 1.488281 -5.828125 1.6875 -5.773438 1.8125 -5.671875 C 1.9375 -5.566406 2 -5.40625 2 -5.1875 C 2 -4.769531 1.738281 -4.5625 1.21875 -4.5625 C 0.71875 -4.5625 0.46875 -4.769531 0.46875 -5.1875 Z M 0.46875 -5.1875 "/></g></g><g transform="translate(56.689689, 25.778081)"><g><path d="M 2.53125 -1.0625 C 2.726562 -1.0625 2.957031 -1.109375 3.21875 -1.203125 L 3.21875 -0.15625 C 3.03125 -0.0703125 2.847656 -0.015625 2.671875 0.015625 C 2.492188 0.0546875 2.289062 0.078125 2.0625 0.078125 C 1.570312 0.078125 1.222656 -0.0390625 1.015625 -0.28125 C 0.804688 -0.519531 0.703125 -0.882812 0.703125 -1.375 L 0.703125 -3.078125 L 0.1875 -3.078125 L 0.1875 -3.671875 L 0.828125 -4.125 L 1.203125 -4.984375 L 2.140625 -4.984375 L 2.140625 -4.15625 L 3.15625 -4.15625 L 3.15625 -3.078125 L 2.140625 -3.078125 L 2.140625 -1.46875 C 2.140625 -1.195312 2.269531 -1.0625 2.53125 -1.0625 Z M 2.53125 -1.0625 "/></g></g><g transform="translate(60.143061, 25.778081)"><g><path d="M 4.46875 -2.09375 C 4.46875 -1.40625 4.285156 -0.867188 3.921875 -0.484375 C 3.554688 -0.109375 3.039062 0.078125 2.375 0.078125 C 1.75 0.078125 1.25 -0.113281 0.875 -0.5 C 0.5 -0.894531 0.3125 -1.425781 0.3125 -2.09375 C 0.3125 -2.769531 0.492188 -3.296875 0.859375 -3.671875 C 1.222656 -4.046875 1.738281 -4.234375 2.40625 -4.234375 C 2.8125 -4.234375 3.171875 -4.144531 3.484375 -3.96875 C 3.796875 -3.789062 4.035156 -3.539062 4.203125 -3.21875 C 4.378906 -2.894531 4.46875 -2.519531 4.46875 -2.09375 Z M 1.765625 -2.09375 C 1.765625 -1.726562 1.8125 -1.453125 1.90625 -1.265625 C 2.007812 -1.078125 2.171875 -0.984375 2.390625 -0.984375 C 2.617188 -0.984375 2.773438 -1.078125 2.859375 -1.265625 C 2.953125 -1.453125 3 -1.726562 3 -2.09375 C 3 -2.445312 2.953125 -2.710938 2.859375 -2.890625 C 2.773438 -3.066406 2.617188 -3.15625 2.390625 -3.15625 C 2.171875 -3.15625 2.007812 -3.066406 1.90625 -2.890625 C 1.8125 -2.710938 1.765625 -2.445312 1.765625 -2.09375 Z M 1.765625 -2.09375 "/></g></g></g></svg>