<svg xmlns="http://www.w3.org/2000/svg" xmlns:xlink="http://www.w3.org/1999/xlink" width="500" zoomAndPan="magnify" viewBox="0 0 375 37.5" height="50" preserveAspectRatio="xMidYMid meet" version="1.0"><defs><g><g id="id1"/></g></defs><g fill="rgb(0%, 0%, 0%)" fill-opacity="1"><g transform="translate(7.914011, 16.490116)"><g><path d="M 10.734375 -4.28125 C 10.734375 -3.40625 10.507812 -2.628906 10.0625 -1.953125 C 9.625 -1.273438 8.988281 -0.75 8.15625 -0.375 C 7.320312 0 6.34375 0.1875 5.21875 0.1875 C 4.28125 0.1875 3.488281 0.125 2.84375 0 C 2.207031 -0.132812 1.550781 -0.363281 0.875 -0.6875 L 0.875 -4.078125 C 1.59375 -3.710938 2.34375 -3.425781 3.125 -3.21875 C 3.914062 -3.007812 4.640625 -2.90625 5.296875 -2.90625 C 5.859375 -2.90625 6.269531 -3 6.53125 -3.1875 C 6.789062 -3.382812 6.921875 -3.640625 6.921875 -3.953125 C 6.921875 -4.140625 6.867188 -4.304688 6.765625 -4.453125 C 6.660156 -4.597656 6.488281 -4.742188 6.25 -4.890625 C 6.019531 -5.035156 5.398438 -5.335938 4.390625 -5.796875 C 3.460938 -6.210938 2.769531 -6.617188 2.3125 -7.015625 C 1.851562 -7.410156 1.515625 -7.859375 1.296875 -8.359375 C 1.078125 -8.867188 0.96875 -9.472656 0.96875 -10.171875 C 0.96875 -11.460938 1.4375 -12.472656 2.375 -13.203125 C 3.320312 -13.929688 4.617188 -14.296875 6.265625 -14.296875 C 7.722656 -14.296875 9.210938 -13.957031 10.734375 -13.28125 L 9.5625 -10.34375 C 8.25 -10.945312 7.113281 -11.25 6.15625 -11.25 C 5.664062 -11.25 5.304688 -11.160156 5.078125 -10.984375 C 4.847656 -10.804688 4.734375 -10.59375 4.734375 -10.34375 C 4.734375 -10.0625 4.875 -9.8125 5.15625 -9.59375 C 5.445312 -9.375 6.226562 -8.976562 7.5 -8.40625 C 8.707031 -7.851562 9.546875 -7.265625 10.015625 -6.640625 C 10.492188 -6.015625 10.734375 -5.226562 10.734375 -4.28125 Z M 10.734375 -4.28125 "/></g></g></g><g fill="rgb(0%, 0%, 0%)" fill-opacity="1"><g transform="translate(19.300648, 16.490116)"><g><path d="M 5.09375 0 L 1.3125 0 L 1.3125 -10.921875 L 5.09375 -10.921875 Z M 1.21875 -13.640625 C 1.21875 -14.203125 1.375 -14.617188 1.6875 -14.890625 C 2.007812 -15.171875 2.519531 -15.3125 3.21875 -15.3125 C 3.914062 -15.3125 4.425781 -15.171875 4.75 -14.890625 C 5.070312 -14.609375 5.234375 -14.191406 5.234375 -13.640625 C 5.234375 -12.535156 4.5625 -11.984375 3.21875 -11.984375 C 1.882812 -11.984375 1.21875 -12.535156 1.21875 -13.640625 Z M 1.21875 -13.640625 "/></g></g></g><g fill="rgb(0%, 0%, 0%)" fill-opacity="1"><g transform="translate(25.716469, 16.490116)"><g><path d="M 14.703125 0 L 14.703125 -5.9375 C 14.703125 -6.675781 14.597656 -7.226562 14.390625 -7.59375 C 14.191406 -7.96875 13.875 -8.15625 13.4375 -8.15625 C 12.863281 -8.15625 12.441406 -7.90625 12.171875 -7.40625 C 11.898438 -6.914062 11.765625 -6.144531 11.765625 -5.09375 L 11.765625 0 L 7.984375 0 L 7.984375 -5.9375 C 7.984375 -6.675781 7.882812 -7.226562 7.6875 -7.59375 C 7.5 -7.96875 7.191406 -8.15625 6.765625 -8.15625 C 6.171875 -8.15625 5.738281 -7.890625 5.46875 -7.359375 C 5.195312 -6.835938 5.0625 -5.976562 5.0625 -4.78125 L 5.0625 0 L 1.296875 0 L 1.296875 -10.921875 L 4.140625 -10.921875 L 4.609375 -9.5625 L 4.84375 -9.5625 C 5.125 -10.0625 5.539062 -10.441406 6.09375 -10.703125 C 6.644531 -10.972656 7.269531 -11.109375 7.96875 -11.109375 C 9.539062 -11.109375 10.644531 -10.628906 11.28125 -9.671875 L 11.578125 -9.671875 C 11.890625 -10.117188 12.316406 -10.46875 12.859375 -10.71875 C 13.410156 -10.976562 14.019531 -11.109375 14.6875 -11.109375 C 15.976562 -11.109375 16.929688 -10.773438 17.546875 -10.109375 C 18.160156 -9.453125 18.46875 -8.453125 18.46875 -7.109375 L 18.46875 0 Z M 14.703125 0 "/></g></g></g><g fill="rgb(0%, 0%, 0%)" fill-opacity="1"><g transform="translate(45.445601, 16.490116)"><g><path d="M 7.859375 0.1875 C 7.304688 0.1875 6.8125 0.0976562 6.375 -0.078125 C 5.9375 -0.265625 5.5 -0.59375 5.0625 -1.0625 L 4.890625 -1.0625 C 5.003906 -0.300781 5.0625 0.171875 5.0625 0.359375 L 5.0625 4.734375 L 1.296875 4.734375 L 1.296875 -10.921875 L 4.359375 -10.921875 L 4.890625 -9.53125 L 5.0625 -9.53125 C 5.769531 -10.582031 6.738281 -11.109375 7.96875 -11.109375 C 9.175781 -11.109375 10.125 -10.609375 10.8125 -9.609375 C 11.5 -8.609375 11.84375 -7.234375 11.84375 -5.484375 C 11.84375 -3.722656 11.484375 -2.335938 10.765625 -1.328125 C 10.046875 -0.316406 9.078125 0.1875 7.859375 0.1875 Z M 6.59375 -8.15625 C 6.039062 -8.15625 5.648438 -7.957031 5.421875 -7.5625 C 5.203125 -7.164062 5.082031 -6.578125 5.0625 -5.796875 L 5.0625 -5.5 C 5.0625 -4.5625 5.1875 -3.882812 5.4375 -3.46875 C 5.6875 -3.050781 6.082031 -2.84375 6.625 -2.84375 C 7.113281 -2.84375 7.460938 -3.046875 7.671875 -3.453125 C 7.890625 -3.867188 8 -4.554688 8 -5.515625 C 8 -6.453125 7.890625 -7.125 7.671875 -7.53125 C 7.460938 -7.945312 7.101562 -8.15625 6.59375 -8.15625 Z M 6.59375 -8.15625 "/></g></g></g><g fill="rgb(0%, 0%, 0%)" fill-opacity="1"><g transform="translate(58.132743, 16.490116)"><g><path d="M 5.0625 0 L 1.296875 0 L 1.296875 -15 L 5.0625 -15 Z M 5.0625 0 "/></g></g></g><g fill="rgb(0%, 0%, 0%)" fill-opacity="1"><g transform="translate(64.51003, 16.490116)"><g><path d="M 6.578125 0.1875 C 4.753906 0.1875 3.335938 -0.289062 2.328125 -1.25 C 1.328125 -2.21875 0.828125 -3.597656 0.828125 -5.390625 C 0.828125 -7.234375 1.289062 -8.644531 2.21875 -9.625 C 3.15625 -10.613281 4.488281 -11.109375 6.21875 -11.109375 C 7.863281 -11.109375 9.132812 -10.675781 10.03125 -9.8125 C 10.925781 -8.957031 11.375 -7.726562 11.375 -6.125 L 11.375 -4.4375 L 4.640625 -4.4375 C 4.660156 -3.832031 4.878906 -3.351562 5.296875 -3 C 5.722656 -2.65625 6.300781 -2.484375 7.03125 -2.484375 C 7.6875 -2.484375 8.289062 -2.546875 8.84375 -2.671875 C 9.40625 -2.796875 10.007812 -3.007812 10.65625 -3.3125 L 10.65625 -0.609375 C 10.0625 -0.304688 9.445312 -0.0976562 8.8125 0.015625 C 8.1875 0.128906 7.441406 0.1875 6.578125 0.1875 Z M 6.34375 -8.546875 C 5.90625 -8.546875 5.535156 -8.40625 5.234375 -8.125 C 4.929688 -7.84375 4.757812 -7.40625 4.71875 -6.8125 L 7.953125 -6.8125 C 7.941406 -7.34375 7.789062 -7.765625 7.5 -8.078125 C 7.21875 -8.390625 6.832031 -8.546875 6.34375 -8.546875 Z M 6.34375 -8.546875 "/></g></g></g><g fill="rgb(0%, 0%, 0%)" fill-opacity="1"><g transform="translate(76.705871, 16.490116)"><g><path d="M 9.734375 -3.359375 C 9.734375 -2.179688 9.332031 -1.296875 8.53125 -0.703125 C 7.738281 -0.109375 6.597656 0.1875 5.109375 0.1875 C 4.296875 0.1875 3.585938 0.144531 2.984375 0.0625 C 2.390625 -0.0195312 1.785156 -0.179688 1.171875 -0.421875 L 1.171875 -3.4375 C 1.753906 -3.175781 2.394531 -2.960938 3.09375 -2.796875 C 3.789062 -2.628906 4.410156 -2.546875 4.953125 -2.546875 C 5.765625 -2.546875 6.171875 -2.734375 6.171875 -3.109375 C 6.171875 -3.296875 6.054688 -3.460938 5.828125 -3.609375 C 5.609375 -3.765625 4.945312 -4.0625 3.84375 -4.5 C 2.84375 -4.90625 2.140625 -5.367188 1.734375 -5.890625 C 1.335938 -6.421875 1.140625 -7.085938 1.140625 -7.890625 C 1.140625 -8.910156 1.53125 -9.703125 2.3125 -10.265625 C 3.101562 -10.828125 4.210938 -11.109375 5.640625 -11.109375 C 6.359375 -11.109375 7.035156 -11.03125 7.671875 -10.875 C 8.304688 -10.71875 8.960938 -10.488281 9.640625 -10.1875 L 8.625 -7.75 C 8.125 -7.976562 7.59375 -8.171875 7.03125 -8.328125 C 6.476562 -8.484375 6.023438 -8.5625 5.671875 -8.5625 C 5.046875 -8.5625 4.734375 -8.410156 4.734375 -8.109375 C 4.734375 -7.921875 4.84375 -7.757812 5.0625 -7.625 C 5.28125 -7.5 5.898438 -7.234375 6.921875 -6.828125 C 7.691406 -6.515625 8.265625 -6.207031 8.640625 -5.90625 C 9.015625 -5.601562 9.289062 -5.25 9.46875 -4.84375 C 9.644531 -4.4375 9.734375 -3.941406 9.734375 -3.359375 Z M 9.734375 -3.359375 "/></g></g></g><g fill="rgb(0%, 0%, 0%)" fill-opacity="1"><g transform="translate(87.225505, 16.490116)"><g/></g></g><g fill="rgb(0%, 0%, 0%)" fill-opacity="1"><g transform="translate(92.350455, 16.490116)"><g><path d="M 9.4375 -14.09375 L 13.6875 -14.09375 L 9.078125 0 L 4.59375 0 L 0 -14.09375 L 4.28125 -14.09375 L 6.203125 -6.953125 C 6.597656 -5.359375 6.8125 -4.25 6.84375 -3.625 C 6.894531 -4.082031 6.988281 -4.644531 7.125 -5.3125 C 7.257812 -5.988281 7.378906 -6.519531 7.484375 -6.90625 Z M 9.4375 -14.09375 "/></g></g></g><g fill="rgb(0%, 0%, 0%)" fill-opacity="1"><g transform="translate(106.039467, 16.490116)"><g><path d="M 5.09375 0 L 1.3125 0 L 1.3125 -10.921875 L 5.09375 -10.921875 Z M 1.21875 -13.640625 C 1.21875 -14.203125 1.375 -14.617188 1.6875 -14.890625 C 2.007812 -15.171875 2.519531 -15.3125 3.21875 -15.3125 C 3.914062 -15.3125 4.425781 -15.171875 4.75 -14.890625 C 5.070312 -14.609375 5.234375 -14.191406 5.234375 -13.640625 C 5.234375 -12.535156 4.5625 -11.984375 3.21875 -11.984375 C 1.882812 -11.984375 1.21875 -12.535156 1.21875 -13.640625 Z M 1.21875 -13.640625 "/></g></g></g><g fill="rgb(0%, 0%, 0%)" fill-opacity="1"><g transform="translate(112.455288, 16.490116)"><g><path d="M 6.65625 -2.78125 C 7.15625 -2.78125 7.757812 -2.90625 8.46875 -3.15625 L 8.46875 -0.421875 C 7.957031 -0.203125 7.472656 -0.046875 7.015625 0.046875 C 6.554688 0.140625 6.019531 0.1875 5.40625 0.1875 C 4.132812 0.1875 3.21875 -0.117188 2.65625 -0.734375 C 2.101562 -1.359375 1.828125 -2.3125 1.828125 -3.59375 L 1.828125 -8.09375 L 0.515625 -8.09375 L 0.515625 -9.625 L 2.1875 -10.8125 L 3.15625 -13.109375 L 5.625 -13.109375 L 5.625 -10.921875 L 8.3125 -10.921875 L 8.3125 -8.09375 L 5.625 -8.09375 L 5.625 -3.84375 C 5.625 -3.132812 5.96875 -2.78125 6.65625 -2.78125 Z M 6.65625 -2.78125 "/></g></g></g><g fill="rgb(0%, 0%, 0%)" fill-opacity="1"><g transform="translate(121.529918, 16.490116)"><g><path d="M 8.421875 0 L 7.703125 -1.453125 L 7.625 -1.453125 C 7.113281 -0.816406 6.59375 -0.382812 6.0625 -0.15625 C 5.539062 0.0703125 4.863281 0.1875 4.03125 0.1875 C 3 0.1875 2.1875 -0.117188 1.59375 -0.734375 C 1.007812 -1.347656 0.71875 -2.210938 0.71875 -3.328125 C 0.71875 -4.492188 1.117188 -5.359375 1.921875 -5.921875 C 2.734375 -6.492188 3.90625 -6.816406 5.4375 -6.890625 L 7.265625 -6.953125 L 7.265625 -7.109375 C 7.265625 -8.003906 6.820312 -8.453125 5.9375 -8.453125 C 5.132812 -8.453125 4.125 -8.179688 2.90625 -7.640625 L 1.8125 -10.125 C 3.082031 -10.78125 4.6875 -11.109375 6.625 -11.109375 C 8.03125 -11.109375 9.113281 -10.757812 9.875 -10.0625 C 10.644531 -9.375 11.03125 -8.40625 11.03125 -7.15625 L 11.03125 0 Z M 5.625 -2.46875 C 6.082031 -2.46875 6.472656 -2.609375 6.796875 -2.890625 C 7.117188 -3.179688 7.28125 -3.5625 7.28125 -4.03125 L 7.28125 -4.875 L 6.421875 -4.84375 C 5.179688 -4.789062 4.5625 -4.332031 4.5625 -3.46875 C 4.5625 -2.800781 4.914062 -2.46875 5.625 -2.46875 Z M 5.625 -2.46875 "/></g></g></g><g fill="rgb(0%, 0%, 0%)" fill-opacity="1"><g transform="translate(133.822092, 16.490116)"><g><path d="M 14.703125 0 L 14.703125 -5.9375 C 14.703125 -6.675781 14.597656 -7.226562 14.390625 -7.59375 C 14.191406 -7.96875 13.875 -8.15625 13.4375 -8.15625 C 12.863281 -8.15625 12.441406 -7.90625 12.171875 -7.40625 C 11.898438 -6.914062 11.765625 -6.144531 11.765625 -5.09375 L 11.765625 0 L 7.984375 0 L 7.984375 -5.9375 C 7.984375 -6.675781 7.882812 -7.226562 7.6875 -7.59375 C 7.5 -7.96875 7.191406 -8.15625 6.765625 -8.15625 C 6.171875 -8.15625 5.738281 -7.890625 5.46875 -7.359375 C 5.195312 -6.835938 5.0625 -5.976562 5.0625 -4.78125 L 5.0625 0 L 1.296875 0 L 1.296875 -10.921875 L 4.140625 -10.921875 L 4.609375 -9.5625 L 4.84375 -9.5625 C 5.125 -10.0625 5.539062 -10.441406 6.09375 -10.703125 C 6.644531 -10.972656 7.269531 -11.109375 7.96875 -11.109375 C 9.539062 -11.109375 10.644531 -10.628906 11.28125 -9.671875 L 11.578125 -9.671875 C 11.890625 -10.117188 12.316406 -10.46875 12.859375 -10.71875 C 13.410156 -10.976562 14.019531 -11.109375 14.6875 -11.109375 C 15.976562 -11.109375 16.929688 -10.773438 17.546875 -10.109375 C 18.160156 -9.453125 18.46875 -8.453125 18.46875 -7.109375 L 18.46875 0 Z M 14.703125 0 "/></g></g></g><g fill="rgb(0%, 0%, 0%)" fill-opacity="1"><g transform="translate(153.551224, 16.490116)"><g><path d="M 5.09375 0 L 1.3125 0 L 1.3125 -10.921875 L 5.09375 -10.921875 Z M 1.21875 -13.640625 C 1.21875 -14.203125 1.375 -14.617188 1.6875 -14.890625 C 2.007812 -15.171875 2.519531 -15.3125 3.21875 -15.3125 C 3.914062 -15.3125 4.425781 -15.171875 4.75 -14.890625 C 5.070312 -14.609375 5.234375 -14.191406 5.234375 -13.640625 C 5.234375 -12.535156 4.5625 -11.984375 3.21875 -11.984375 C 1.882812 -11.984375 1.21875 -12.535156 1.21875 -13.640625 Z M 1.21875 -13.640625 "/></g></g></g><g fill="rgb(0%, 0%, 0%)" fill-opacity="1"><g transform="translate(159.967045, 16.490116)"><g><path d="M 8.1875 0 L 8.1875 -5.953125 C 8.1875 -6.679688 8.082031 -7.226562 7.875 -7.59375 C 7.664062 -7.96875 7.332031 -8.15625 6.875 -8.15625 C 6.238281 -8.15625 5.773438 -7.898438 5.484375 -7.390625 C 5.203125 -6.878906 5.0625 -6.007812 5.0625 -4.78125 L 5.0625 0 L 1.296875 0 L 1.296875 -10.921875 L 4.140625 -10.921875 L 4.609375 -9.5625 L 4.84375 -9.5625 C 5.15625 -10.082031 5.597656 -10.46875 6.171875 -10.71875 C 6.742188 -10.976562 7.394531 -11.109375 8.125 -11.109375 C 9.332031 -11.109375 10.269531 -10.757812 10.9375 -10.0625 C 11.613281 -9.363281 11.953125 -8.378906 11.953125 -7.109375 L 11.953125 0 Z M 8.1875 0 "/></g></g></g><g fill="rgb(0%, 0%, 0%)" fill-opacity="1"><g transform="translate(173.184022, 16.490116)"><g><path d="M 8.421875 0 L 7.703125 -1.453125 L 7.625 -1.453125 C 7.113281 -0.816406 6.59375 -0.382812 6.0625 -0.15625 C 5.539062 0.0703125 4.863281 0.1875 4.03125 0.1875 C 3 0.1875 2.1875 -0.117188 1.59375 -0.734375 C 1.007812 -1.347656 0.71875 -2.210938 0.71875 -3.328125 C 0.71875 -4.492188 1.117188 -5.359375 1.921875 -5.921875 C 2.734375 -6.492188 3.90625 -6.816406 5.4375 -6.890625 L 7.265625 -6.953125 L 7.265625 -7.109375 C 7.265625 -8.003906 6.820312 -8.453125 5.9375 -8.453125 C 5.132812 -8.453125 4.125 -8.179688 2.90625 -7.640625 L 1.8125 -10.125 C 3.082031 -10.78125 4.6875 -11.109375 6.625 -11.109375 C 8.03125 -11.109375 9.113281 -10.757812 9.875 -10.0625 C 10.644531 -9.375 11.03125 -8.40625 11.03125 -7.15625 L 11.03125 0 Z M 5.625 -2.46875 C 6.082031 -2.46875 6.472656 -2.609375 6.796875 -2.890625 C 7.117188 -3.179688 7.28125 -3.5625 7.28125 -4.03125 L 7.28125 -4.875 L 6.421875 -4.84375 C 5.179688 -4.789062 4.5625 -4.332031 4.5625 -3.46875 C 4.5625 -2.800781 4.914062 -2.46875 5.625 -2.46875 Z M 5.625 -2.46875 "/></g></g></g><g fill="rgb(0%, 0%, 0%)" fill-opacity="1"><g transform="translate(185.476195, 16.490116)"><g/></g></g><g fill="rgb(0%, 0%, 0%)" fill-opacity="1"><g transform="translate(190.601146, 16.490116)"><g><path d="M 4.6875 0.1875 C 3.914062 0.1875 3.238281 -0.03125 2.65625 -0.46875 C 2.070312 -0.914062 1.617188 -1.566406 1.296875 -2.421875 C 0.984375 -3.285156 0.828125 -4.289062 0.828125 -5.4375 C 0.828125 -7.21875 1.179688 -8.609375 1.890625 -9.609375 C 2.609375 -10.609375 3.59375 -11.109375 4.84375 -11.109375 C 5.445312 -11.109375 5.976562 -10.984375 6.4375 -10.734375 C 6.894531 -10.492188 7.316406 -10.085938 7.703125 -9.515625 L 7.78125 -9.515625 C 7.65625 -10.367188 7.59375 -11.222656 7.59375 -12.078125 L 7.59375 -15 L 11.390625 -15 L 11.390625 0 L 8.546875 0 L 7.734375 -1.375 L 7.59375 -1.375 C 6.945312 -0.332031 5.976562 0.1875 4.6875 0.1875 Z M 6.234375 -2.78125 C 6.835938 -2.78125 7.257812 -2.96875 7.5 -3.34375 C 7.75 -3.726562 7.882812 -4.316406 7.90625 -5.109375 L 7.90625 -5.40625 C 7.90625 -6.363281 7.765625 -7.046875 7.484375 -7.453125 C 7.210938 -7.867188 6.785156 -8.078125 6.203125 -8.078125 C 5.703125 -8.078125 5.316406 -7.84375 5.046875 -7.375 C 4.773438 -6.90625 4.640625 -6.242188 4.640625 -5.390625 C 4.640625 -4.535156 4.773438 -3.882812 5.046875 -3.4375 C 5.328125 -3 5.722656 -2.78125 6.234375 -2.78125 Z M 6.234375 -2.78125 "/></g></g></g><g fill="rgb(0%, 0%, 0%)" fill-opacity="1"><g transform="translate(203.288276, 16.490116)"><g><path d="M 6.578125 0.1875 C 4.753906 0.1875 3.335938 -0.289062 2.328125 -1.25 C 1.328125 -2.21875 0.828125 -3.597656 0.828125 -5.390625 C 0.828125 -7.234375 1.289062 -8.644531 2.21875 -9.625 C 3.15625 -10.613281 4.488281 -11.109375 6.21875 -11.109375 C 7.863281 -11.109375 9.132812 -10.675781 10.03125 -9.8125 C 10.925781 -8.957031 11.375 -7.726562 11.375 -6.125 L 11.375 -4.4375 L 4.640625 -4.4375 C 4.660156 -3.832031 4.878906 -3.351562 5.296875 -3 C 5.722656 -2.65625 6.300781 -2.484375 7.03125 -2.484375 C 7.6875 -2.484375 8.289062 -2.546875 8.84375 -2.671875 C 9.40625 -2.796875 10.007812 -3.007812 10.65625 -3.3125 L 10.65625 -0.609375 C 10.0625 -0.304688 9.445312 -0.0976562 8.8125 0.015625 C 8.1875 0.128906 7.441406 0.1875 6.578125 0.1875 Z M 6.34375 -8.546875 C 5.90625 -8.546875 5.535156 -8.40625 5.234375 -8.125 C 4.929688 -7.84375 4.757812 -7.40625 4.71875 -6.8125 L 7.953125 -6.8125 C 7.941406 -7.34375 7.789062 -7.765625 7.5 -8.078125 C 7.21875 -8.390625 6.832031 -8.546875 6.34375 -8.546875 Z M 6.34375 -8.546875 "/></g></g></g><g fill="rgb(0%, 0%, 0%)" fill-opacity="1"><g transform="translate(215.484116, 16.490116)"><g/></g></g><g fill="rgb(0%, 0%, 0%)" fill-opacity="1"><g transform="translate(220.609067, 16.490116)"><g><path d="M 0.671875 -5.953125 C 0.671875 -7.921875 0.953125 -9.515625 1.515625 -10.734375 C 2.078125 -11.953125 2.90625 -12.847656 4 -13.421875 C 5.09375 -14.003906 6.445312 -14.296875 8.0625 -14.296875 C 8.625 -14.296875 9.289062 -14.238281 10.0625 -14.125 L 10.0625 -11.15625 C 9.414062 -11.269531 8.71875 -11.328125 7.96875 -11.328125 C 6.695312 -11.328125 5.75 -11.046875 5.125 -10.484375 C 4.5 -9.929688 4.160156 -9.019531 4.109375 -7.75 L 4.21875 -7.75 C 4.800781 -8.84375 5.726562 -9.390625 7 -9.390625 C 8.257812 -9.390625 9.234375 -8.984375 9.921875 -8.171875 C 10.609375 -7.367188 10.953125 -6.25 10.953125 -4.8125 C 10.953125 -3.269531 10.515625 -2.050781 9.640625 -1.15625 C 8.765625 -0.257812 7.546875 0.1875 5.984375 0.1875 C 4.316406 0.1875 3.015625 -0.347656 2.078125 -1.421875 C 1.140625 -2.503906 0.671875 -4.015625 0.671875 -5.953125 Z M 5.890625 -2.828125 C 6.296875 -2.828125 6.625 -2.976562 6.875 -3.28125 C 7.132812 -3.582031 7.265625 -4.066406 7.265625 -4.734375 C 7.265625 -5.878906 6.820312 -6.453125 5.9375 -6.453125 C 5.5 -6.453125 5.144531 -6.300781 4.875 -6 C 4.601562 -5.707031 4.46875 -5.351562 4.46875 -4.9375 C 4.46875 -4.320312 4.597656 -3.816406 4.859375 -3.421875 C 5.117188 -3.023438 5.460938 -2.828125 5.890625 -2.828125 Z M 5.890625 -2.828125 "/></g></g></g><g fill="rgb(0%, 0%, 0%)" fill-opacity="1"><g transform="translate(232.169105, 16.490116)"><g/></g></g><g fill="rgb(0%, 0%, 0%)" fill-opacity="1"><g transform="translate(237.294055, 16.490116)"><g><path d="M 1.515625 0 L 1.515625 -14.09375 L 5.34375 -14.09375 L 5.34375 0 Z M 1.515625 0 "/></g></g></g><g fill="rgb(0%, 0%, 0%)" fill-opacity="1"><g transform="translate(244.162655, 16.490116)"><g><path d="M 8.1875 0 L 8.1875 -5.953125 C 8.1875 -6.679688 8.082031 -7.226562 7.875 -7.59375 C 7.664062 -7.96875 7.332031 -8.15625 6.875 -8.15625 C 6.238281 -8.15625 5.773438 -7.898438 5.484375 -7.390625 C 5.203125 -6.878906 5.0625 -6.007812 5.0625 -4.78125 L 5.0625 0 L 1.296875 0 L 1.296875 -10.921875 L 4.140625 -10.921875 L 4.609375 -9.5625 L 4.84375 -9.5625 C 5.15625 -10.082031 5.597656 -10.46875 6.171875 -10.71875 C 6.742188 -10.976562 7.394531 -11.109375 8.125 -11.109375 C 9.332031 -11.109375 10.269531 -10.757812 10.9375 -10.0625 C 11.613281 -9.363281 11.953125 -8.378906 11.953125 -7.109375 L 11.953125 0 Z M 8.1875 0 "/></g></g></g><g fill="rgb(0%, 0%, 0%)" fill-opacity="1"><g transform="translate(257.379632, 16.490116)"><g><path d="M 11.609375 -10.921875 L 11.609375 -9.09375 L 10.109375 -8.546875 C 10.316406 -8.171875 10.421875 -7.738281 10.421875 -7.25 C 10.421875 -6.070312 10.003906 -5.15625 9.171875 -4.5 C 8.347656 -3.851562 7.117188 -3.53125 5.484375 -3.53125 C 5.078125 -3.53125 4.753906 -3.554688 4.515625 -3.609375 C 4.429688 -3.441406 4.390625 -3.285156 4.390625 -3.140625 C 4.390625 -2.953125 4.539062 -2.804688 4.84375 -2.703125 C 5.144531 -2.609375 5.535156 -2.5625 6.015625 -2.5625 L 7.828125 -2.5625 C 10.273438 -2.5625 11.5 -1.53125 11.5 0.53125 C 11.5 1.863281 10.929688 2.894531 9.796875 3.625 C 8.671875 4.363281 7.082031 4.734375 5.03125 4.734375 C 3.476562 4.734375 2.28125 4.472656 1.4375 3.953125 C 0.601562 3.441406 0.1875 2.703125 0.1875 1.734375 C 0.1875 0.429688 1 -0.410156 2.625 -0.796875 C 2.289062 -0.929688 2 -1.15625 1.75 -1.46875 C 1.5 -1.789062 1.375 -2.101562 1.375 -2.40625 C 1.375 -2.75 1.46875 -3.050781 1.65625 -3.3125 C 1.84375 -3.570312 2.234375 -3.878906 2.828125 -4.234375 C 2.253906 -4.484375 1.804688 -4.875 1.484375 -5.40625 C 1.160156 -5.945312 1 -6.597656 1 -7.359375 C 1 -8.546875 1.40625 -9.46875 2.21875 -10.125 C 3.03125 -10.78125 4.1875 -11.109375 5.6875 -11.109375 C 5.882812 -11.109375 6.226562 -11.082031 6.71875 -11.03125 C 7.207031 -10.988281 7.566406 -10.953125 7.796875 -10.921875 Z M 3.375 1.359375 C 3.375 1.671875 3.539062 1.921875 3.875 2.109375 C 4.207031 2.296875 4.65625 2.390625 5.21875 2.390625 C 6.125 2.390625 6.851562 2.273438 7.40625 2.046875 C 7.957031 1.816406 8.234375 1.523438 8.234375 1.171875 C 8.234375 0.878906 8.066406 0.671875 7.734375 0.546875 C 7.398438 0.429688 6.921875 0.375 6.296875 0.375 L 4.8125 0.375 C 4.40625 0.375 4.0625 0.46875 3.78125 0.65625 C 3.507812 0.84375 3.375 1.078125 3.375 1.359375 Z M 4.5625 -7.34375 C 4.5625 -6.226562 4.945312 -5.671875 5.71875 -5.671875 C 6.082031 -5.671875 6.359375 -5.804688 6.546875 -6.078125 C 6.742188 -6.359375 6.84375 -6.773438 6.84375 -7.328125 C 6.84375 -8.453125 6.46875 -9.015625 5.71875 -9.015625 C 4.945312 -9.015625 4.5625 -8.457031 4.5625 -7.34375 Z M 4.5625 -7.34375 "/></g></g></g><g fill="rgb(0%, 0%, 0%)" fill-opacity="1"><g transform="translate(269.334627, 16.490116)"><g><path d="M 7.890625 -11.109375 C 8.222656 -11.109375 8.535156 -11.082031 8.828125 -11.03125 L 9.03125 -11 L 8.703125 -7.4375 C 8.390625 -7.507812 7.960938 -7.546875 7.421875 -7.546875 C 6.597656 -7.546875 6 -7.359375 5.625 -6.984375 C 5.25 -6.609375 5.0625 -6.070312 5.0625 -5.375 L 5.0625 0 L 1.296875 0 L 1.296875 -10.921875 L 4.109375 -10.921875 L 4.6875 -9.171875 L 4.875 -9.171875 C 5.1875 -9.753906 5.625 -10.222656 6.1875 -10.578125 C 6.75 -10.929688 7.316406 -11.109375 7.890625 -11.109375 Z M 7.890625 -11.109375 "/></g></g></g><g fill="rgb(0%, 0%, 0%)" fill-opacity="1"><g transform="translate(278.592279, 16.490116)"><g><path d="M 6.578125 0.1875 C 4.753906 0.1875 3.335938 -0.289062 2.328125 -1.25 C 1.328125 -2.21875 0.828125 -3.597656 0.828125 -5.390625 C 0.828125 -7.234375 1.289062 -8.644531 2.21875 -9.625 C 3.15625 -10.613281 4.488281 -11.109375 6.21875 -11.109375 C 7.863281 -11.109375 9.132812 -10.675781 10.03125 -9.8125 C 10.925781 -8.957031 11.375 -7.726562 11.375 -6.125 L 11.375 -4.4375 L 4.640625 -4.4375 C 4.660156 -3.832031 4.878906 -3.351562 5.296875 -3 C 5.722656 -2.65625 6.300781 -2.484375 7.03125 -2.484375 C 7.6875 -2.484375 8.289062 -2.546875 8.84375 -2.671875 C 9.40625 -2.796875 10.007812 -3.007812 10.65625 -3.3125 L 10.65625 -0.609375 C 10.0625 -0.304688 9.445312 -0.0976562 8.8125 0.015625 C 8.1875 0.128906 7.441406 0.1875 6.578125 0.1875 Z M 6.34375 -8.546875 C 5.90625 -8.546875 5.535156 -8.40625 5.234375 -8.125 C 4.929688 -7.84375 4.757812 -7.40625 4.71875 -6.8125 L 7.953125 -6.8125 C 7.941406 -7.34375 7.789062 -7.765625 7.5 -8.078125 C 7.21875 -8.390625 6.832031 -8.546875 6.34375 -8.546875 Z M 6.34375 -8.546875 "/></g></g></g><g fill="rgb(0%, 0%, 0%)" fill-opacity="1"><g transform="translate(290.78812, 16.490116)"><g><path d="M 4.6875 0.1875 C 3.914062 0.1875 3.238281 -0.03125 2.65625 -0.46875 C 2.070312 -0.914062 1.617188 -1.566406 1.296875 -2.421875 C 0.984375 -3.285156 0.828125 -4.289062 0.828125 -5.4375 C 0.828125 -7.21875 1.179688 -8.609375 1.890625 -9.609375 C 2.609375 -10.609375 3.59375 -11.109375 4.84375 -11.109375 C 5.445312 -11.109375 5.976562 -10.984375 6.4375 -10.734375 C 6.894531 -10.492188 7.316406 -10.085938 7.703125 -9.515625 L 7.78125 -9.515625 C 7.65625 -10.367188 7.59375 -11.222656 7.59375 -12.078125 L 7.59375 -15 L 11.390625 -15 L 11.390625 0 L 8.546875 0 L 7.734375 -1.375 L 7.59375 -1.375 C 6.945312 -0.332031 5.976562 0.1875 4.6875 0.1875 Z M 6.234375 -2.78125 C 6.835938 -2.78125 7.257812 -2.96875 7.5 -3.34375 C 7.75 -3.726562 7.882812 -4.316406 7.90625 -5.109375 L 7.90625 -5.40625 C 7.90625 -6.363281 7.765625 -7.046875 7.484375 -7.453125 C 7.210938 -7.867188 6.785156 -8.078125 6.203125 -8.078125 C 5.703125 -8.078125 5.316406 -7.84375 5.046875 -7.375 C 4.773438 -6.90625 4.640625 -6.242188 4.640625 -5.390625 C 4.640625 -4.535156 4.773438 -3.882812 5.046875 -3.4375 C 5.328125 -3 5.722656 -2.78125 6.234375 -2.78125 Z M 6.234375 -2.78125 "/></g></g></g><g fill="rgb(0%, 0%, 0%)" fill-opacity="1"><g transform="translate(303.475272, 16.490116)"><g><path d="M 5.09375 0 L 1.3125 0 L 1.3125 -10.921875 L 5.09375 -10.921875 Z M 1.21875 -13.640625 C 1.21875 -14.203125 1.375 -14.617188 1.6875 -14.890625 C 2.007812 -15.171875 2.519531 -15.3125 3.21875 -15.3125 C 3.914062 -15.3125 4.425781 -15.171875 4.75 -14.890625 C 5.070312 -14.609375 5.234375 -14.191406 5.234375 -13.640625 C 5.234375 -12.535156 4.5625 -11.984375 3.21875 -11.984375 C 1.882812 -11.984375 1.21875 -12.535156 1.21875 -13.640625 Z M 1.21875 -13.640625 "/></g></g></g><g fill="rgb(0%, 0%, 0%)" fill-opacity="1"><g transform="translate(309.891094, 16.490116)"><g><path d="M 6.578125 0.1875 C 4.753906 0.1875 3.335938 -0.289062 2.328125 -1.25 C 1.328125 -2.21875 0.828125 -3.597656 0.828125 -5.390625 C 0.828125 -7.234375 1.289062 -8.644531 2.21875 -9.625 C 3.15625 -10.613281 4.488281 -11.109375 6.21875 -11.109375 C 7.863281 -11.109375 9.132812 -10.675781 10.03125 -9.8125 C 10.925781 -8.957031 11.375 -7.726562 11.375 -6.125 L 11.375 -4.4375 L 4.640625 -4.4375 C 4.660156 -3.832031 4.878906 -3.351562 5.296875 -3 C 5.722656 -2.65625 6.300781 -2.484375 7.03125 -2.484375 C 7.6875 -2.484375 8.289062 -2.546875 8.84375 -2.671875 C 9.40625 -2.796875 10.007812 -3.007812 10.65625 -3.3125 L 10.65625 -0.609375 C 10.0625 -0.304688 9.445312 -0.0976562 8.8125 0.015625 C 8.1875 0.128906 7.441406 0.1875 6.578125 0.1875 Z M 6.34375 -8.546875 C 5.90625 -8.546875 5.535156 -8.40625 5.234375 -8.125 C 4.929688 -7.84375 4.757812 -7.40625 4.71875 -6.8125 L 7.953125 -6.8125 C 7.941406 -7.34375 7.789062 -7.765625 7.5 -8.078125 C 7.21875 -8.390625 6.832031 -8.546875 6.34375 -8.546875 Z M 6.34375 -8.546875 "/></g></g></g><g fill="rgb(0%, 0%, 0%)" fill-opacity="1"><g transform="translate(322.086934, 16.490116)"><g><path d="M 8.1875 0 L 8.1875 -5.953125 C 8.1875 -6.679688 8.082031 -7.226562 7.875 -7.59375 C 7.664062 -7.96875 7.332031 -8.15625 6.875 -8.15625 C 6.238281 -8.15625 5.773438 -7.898438 5.484375 -7.390625 C 5.203125 -6.878906 5.0625 -6.007812 5.0625 -4.78125 L 5.0625 0 L 1.296875 0 L 1.296875 -10.921875 L 4.140625 -10.921875 L 4.609375 -9.5625 L 4.84375 -9.5625 C 5.15625 -10.082031 5.597656 -10.46875 6.171875 -10.71875 C 6.742188 -10.976562 7.394531 -11.109375 8.125 -11.109375 C 9.332031 -11.109375 10.269531 -10.757812 10.9375 -10.0625 C 11.613281 -9.363281 11.953125 -8.378906 11.953125 -7.109375 L 11.953125 0 Z M 8.1875 0 "/></g></g></g><g fill="rgb(0%, 0%, 0%)" fill-opacity="1"><g transform="translate(335.303911, 16.490116)"><g><path d="M 6.65625 -2.78125 C 7.15625 -2.78125 7.757812 -2.90625 8.46875 -3.15625 L 8.46875 -0.421875 C 7.957031 -0.203125 7.472656 -0.046875 7.015625 0.046875 C 6.554688 0.140625 6.019531 0.1875 5.40625 0.1875 C 4.132812 0.1875 3.21875 -0.117188 2.65625 -0.734375 C 2.101562 -1.359375 1.828125 -2.3125 1.828125 -3.59375 L 1.828125 -8.09375 L 0.515625 -8.09375 L 0.515625 -9.625 L 2.1875 -10.8125 L 3.15625 -13.109375 L 5.625 -13.109375 L 5.625 -10.921875 L 8.3125 -10.921875 L 8.3125 -8.09375 L 5.625 -8.09375 L 5.625 -3.84375 C 5.625 -3.132812 5.96875 -2.78125 6.65625 -2.78125 Z M 6.65625 -2.78125 "/></g></g></g><g fill="rgb(0%, 0%, 0%)" fill-opacity="1"><g transform="translate(344.37854, 16.490116)"><g><path d="M 6.578125 0.1875 C 4.753906 0.1875 3.335938 -0.289062 2.328125 -1.25 C 1.328125 -2.21875 0.828125 -3.597656 0.828125 -5.390625 C 0.828125 -7.234375 1.289062 -8.644531 2.21875 -9.625 C 3.15625 -10.613281 4.488281 -11.109375 6.21875 -11.109375 C 7.863281 -11.109375 9.132812 -10.675781 10.03125 -9.8125 C 10.925781 -8.957031 11.375 -7.726562 11.375 -6.125 L 11.375 -4.4375 L 4.640625 -4.4375 C 4.660156 -3.832031 4.878906 -3.351562 5.296875 -3 C 5.722656 -2.65625 6.300781 -2.484375 7.03125 -2.484375 C 7.6875 -2.484375 8.289062 -2.546875 8.84375 -2.671875 C 9.40625 -2.796875 10.007812 -3.007812 10.65625 -3.3125 L 10.65625 -0.609375 C 10.0625 -0.304688 9.445312 -0.0976562 8.8125 0.015625 C 8.1875 0.128906 7.441406 0.1875 6.578125 0.1875 Z M 6.34375 -8.546875 C 5.90625 -8.546875 5.535156 -8.40625 5.234375 -8.125 C 4.929688 -7.84375 4.757812 -7.40625 4.71875 -6.8125 L 7.953125 -6.8125 C 7.941406 -7.34375 7.789062 -7.765625 7.5 -8.078125 C 7.21875 -8.390625 6.832031 -8.546875 6.34375 -8.546875 Z M 6.34375 -8.546875 "/></g></g></g><g fill="rgb(0%, 0%, 0%)" fill-opacity="1"><g transform="translate(356.57438, 16.490116)"><g><path d="M 9.734375 -3.359375 C 9.734375 -2.179688 9.332031 -1.296875 8.53125 -0.703125 C 7.738281 -0.109375 6.597656 0.1875 5.109375 0.1875 C 4.296875 0.1875 3.585938 0.144531 2.984375 0.0625 C 2.390625 -0.0195312 1.785156 -0.179688 1.171875 -0.421875 L 1.171875 -3.4375 C 1.753906 -3.175781 2.394531 -2.960938 3.09375 -2.796875 C 3.789062 -2.628906 4.410156 -2.546875 4.953125 -2.546875 C 5.765625 -2.546875 6.171875 -2.734375 6.171875 -3.109375 C 6.171875 -3.296875 6.054688 -3.460938 5.828125 -3.609375 C 5.609375 -3.765625 4.945312 -4.0625 3.84375 -4.5 C 2.84375 -4.90625 2.140625 -5.367188 1.734375 -5.890625 C 1.335938 -6.421875 1.140625 -7.085938 1.140625 -7.890625 C 1.140625 -8.910156 1.53125 -9.703125 2.3125 -10.265625 C 3.101562 -10.828125 4.210938 -11.109375 5.640625 -11.109375 C 6.359375 -11.109375 7.035156 -11.03125 7.671875 -10.875 C 8.304688 -10.71875 8.960938 -10.488281 9.640625 -10.1875 L 8.625 -7.75 C 8.125 -7.976562 7.59375 -8.171875 7.03125 -8.328125 C 6.476562 -8.484375 6.023438 -8.5625 5.671875 -8.5625 C 5.046875 -8.5625 4.734375 -8.410156 4.734375 -8.109375 C 4.734375 -7.921875 4.84375 -7.757812 5.0625 -7.625 C 5.28125 -7.5 5.898438 -7.234375 6.921875 -6.828125 C 7.691406 -6.515625 8.265625 -6.207031 8.640625 -5.90625 C 9.015625 -5.601562 9.289062 -5.25 9.46875 -4.84375 C 9.644531 -4.4375 9.734375 -3.941406 9.734375 -3.359375 Z M 9.734375 -3.359375 "/></g></g></g><g fill="rgb(0%, 0%, 0%)" fill-opacity="1"><g transform="translate(115.429683, 33.513141)"><g><path d="M 13.484375 -7.34375 C 13.484375 -4.988281 12.832031 -3.175781 11.53125 -1.90625 C 10.238281 -0.632812 8.421875 0 6.078125 0 L 1.515625 0 L 1.515625 -14.09375 L 6.390625 -14.09375 C 8.660156 -14.09375 10.410156 -13.515625 11.640625 -12.359375 C 12.867188 -11.203125 13.484375 -9.53125 13.484375 -7.34375 Z M 9.53125 -7.203125 C 9.53125 -8.492188 9.273438 -9.453125 8.765625 -10.078125 C 8.253906 -10.703125 7.476562 -11.015625 6.4375 -11.015625 L 5.328125 -11.015625 L 5.328125 -3.125 L 6.171875 -3.125 C 7.328125 -3.125 8.175781 -3.457031 8.71875 -4.125 C 9.257812 -4.800781 9.53125 -5.828125 9.53125 -7.203125 Z M 9.53125 -7.203125 "/></g></g></g><g fill="rgb(0%, 0%, 0%)" fill-opacity="1"><g transform="translate(129.908631, 33.513141)"><g><path d="M 6.578125 0.1875 C 4.753906 0.1875 3.335938 -0.289062 2.328125 -1.25 C 1.328125 -2.21875 0.828125 -3.597656 0.828125 -5.390625 C 0.828125 -7.234375 1.289062 -8.644531 2.21875 -9.625 C 3.15625 -10.613281 4.488281 -11.109375 6.21875 -11.109375 C 7.863281 -11.109375 9.132812 -10.675781 10.03125 -9.8125 C 10.925781 -8.957031 11.375 -7.726562 11.375 -6.125 L 11.375 -4.4375 L 4.640625 -4.4375 C 4.660156 -3.832031 4.878906 -3.351562 5.296875 -3 C 5.722656 -2.65625 6.300781 -2.484375 7.03125 -2.484375 C 7.6875 -2.484375 8.289062 -2.546875 8.84375 -2.671875 C 9.40625 -2.796875 10.007812 -3.007812 10.65625 -3.3125 L 10.65625 -0.609375 C 10.0625 -0.304688 9.445312 -0.0976562 8.8125 0.015625 C 8.1875 0.128906 7.441406 0.1875 6.578125 0.1875 Z M 6.34375 -8.546875 C 5.90625 -8.546875 5.535156 -8.40625 5.234375 -8.125 C 4.929688 -7.84375 4.757812 -7.40625 4.71875 -6.8125 L 7.953125 -6.8125 C 7.941406 -7.34375 7.789062 -7.765625 7.5 -8.078125 C 7.21875 -8.390625 6.832031 -8.546875 6.34375 -8.546875 Z M 6.34375 -8.546875 "/></g></g></g><g fill="rgb(0%, 0%, 0%)" fill-opacity="1"><g transform="translate(142.104471, 33.513141)"><g><path d="M 7.890625 -11.109375 C 8.222656 -11.109375 8.535156 -11.082031 8.828125 -11.03125 L 9.03125 -11 L 8.703125 -7.4375 C 8.390625 -7.507812 7.960938 -7.546875 7.421875 -7.546875 C 6.597656 -7.546875 6 -7.359375 5.625 -6.984375 C 5.25 -6.609375 5.0625 -6.070312 5.0625 -5.375 L 5.0625 0 L 1.296875 0 L 1.296875 -10.921875 L 4.109375 -10.921875 L 4.6875 -9.171875 L 4.875 -9.171875 C 5.1875 -9.753906 5.625 -10.222656 6.1875 -10.578125 C 6.75 -10.929688 7.316406 -11.109375 7.890625 -11.109375 Z M 7.890625 -11.109375 "/></g></g></g><g fill="rgb(0%, 0%, 0%)" fill-opacity="1"><g transform="translate(151.362134, 33.513141)"><g><path d="M 7.890625 -11.109375 C 8.222656 -11.109375 8.535156 -11.082031 8.828125 -11.03125 L 9.03125 -11 L 8.703125 -7.4375 C 8.390625 -7.507812 7.960938 -7.546875 7.421875 -7.546875 C 6.597656 -7.546875 6 -7.359375 5.625 -6.984375 C 5.25 -6.609375 5.0625 -6.070312 5.0625 -5.375 L 5.0625 0 L 1.296875 0 L 1.296875 -10.921875 L 4.109375 -10.921875 L 4.6875 -9.171875 L 4.875 -9.171875 C 5.1875 -9.753906 5.625 -10.222656 6.1875 -10.578125 C 6.75 -10.929688 7.316406 -11.109375 7.890625 -11.109375 Z M 7.890625 -11.109375 "/></g></g></g><g fill="rgb(0%, 0%, 0%)" fill-opacity="1"><g transform="translate(160.619798, 33.513141)"><g><path d="M 6.578125 0.1875 C 4.753906 0.1875 3.335938 -0.289062 2.328125 -1.25 C 1.328125 -2.21875 0.828125 -3.597656 0.828125 -5.390625 C 0.828125 -7.234375 1.289062 -8.644531 2.21875 -9.625 C 3.15625 -10.613281 4.488281 -11.109375 6.21875 -11.109375 C 7.863281 -11.109375 9.132812 -10.675781 10.03125 -9.8125 C 10.925781 -8.957031 11.375 -7.726562 11.375 -6.125 L 11.375 -4.4375 L 4.640625 -4.4375 C 4.660156 -3.832031 4.878906 -3.351562 5.296875 -3 C 5.722656 -2.65625 6.300781 -2.484375 7.03125 -2.484375 C 7.6875 -2.484375 8.289062 -2.546875 8.84375 -2.671875 C 9.40625 -2.796875 10.007812 -3.007812 10.65625 -3.3125 L 10.65625 -0.609375 C 10.0625 -0.304688 9.445312 -0.0976562 8.8125 0.015625 C 8.1875 0.128906 7.441406 0.1875 6.578125 0.1875 Z M 6.34375 -8.546875 C 5.90625 -8.546875 5.535156 -8.40625 5.234375 -8.125 C 4.929688 -7.84375 4.757812 -7.40625 4.71875 -6.8125 L 7.953125 -6.8125 C 7.941406 -7.34375 7.789062 -7.765625 7.5 -8.078125 C 7.21875 -8.390625 6.832031 -8.546875 6.34375 -8.546875 Z M 6.34375 -8.546875 "/></g></g></g><g fill="rgb(0%, 0%, 0%)" fill-opacity="1"><g transform="translate(172.815638, 33.513141)"><g><path d="M 6.65625 -2.78125 C 7.15625 -2.78125 7.757812 -2.90625 8.46875 -3.15625 L 8.46875 -0.421875 C 7.957031 -0.203125 7.472656 -0.046875 7.015625 0.046875 C 6.554688 0.140625 6.019531 0.1875 5.40625 0.1875 C 4.132812 0.1875 3.21875 -0.117188 2.65625 -0.734375 C 2.101562 -1.359375 1.828125 -2.3125 1.828125 -3.59375 L 1.828125 -8.09375 L 0.515625 -8.09375 L 0.515625 -9.625 L 2.1875 -10.8125 L 3.15625 -13.109375 L 5.625 -13.109375 L 5.625 -10.921875 L 8.3125 -10.921875 L 8.3125 -8.09375 L 5.625 -8.09375 L 5.625 -3.84375 C 5.625 -3.132812 5.96875 -2.78125 6.65625 -2.78125 Z M 6.65625 -2.78125 "/></g></g></g><g fill="rgb(0%, 0%, 0%)" fill-opacity="1"><g transform="translate(181.890268, 33.513141)"><g><path d="M 6.578125 0.1875 C 4.753906 0.1875 3.335938 -0.289062 2.328125 -1.25 C 1.328125 -2.21875 0.828125 -3.597656 0.828125 -5.390625 C 0.828125 -7.234375 1.289062 -8.644531 2.21875 -9.625 C 3.15625 -10.613281 4.488281 -11.109375 6.21875 -11.109375 C 7.863281 -11.109375 9.132812 -10.675781 10.03125 -9.8125 C 10.925781 -8.957031 11.375 -7.726562 11.375 -6.125 L 11.375 -4.4375 L 4.640625 -4.4375 C 4.660156 -3.832031 4.878906 -3.351562 5.296875 -3 C 5.722656 -2.65625 6.300781 -2.484375 7.03125 -2.484375 C 7.6875 -2.484375 8.289062 -2.546875 8.84375 -2.671875 C 9.40625 -2.796875 10.007812 -3.007812 10.65625 -3.3125 L 10.65625 -0.609375 C 10.0625 -0.304688 9.445312 -0.0976562 8.8125 0.015625 C 8.1875 0.128906 7.441406 0.1875 6.578125 0.1875 Z M 6.34375 -8.546875 C 5.90625 -8.546875 5.535156 -8.40625 5.234375 -8.125 C 4.929688 -7.84375 4.757812 -7.40625 4.71875 -6.8125 L 7.953125 -6.8125 C 7.941406 -7.34375 7.789062 -7.765625 7.5 -8.078125 C 7.21875 -8.390625 6.832031 -8.546875 6.34375 -8.546875 Z M 6.34375 -8.546875 "/></g></g></g><g fill="rgb(0%, 0%, 0%)" fill-opacity="1"><g transform="translate(194.086108, 33.513141)"><g/></g></g><g fill="rgb(0%, 0%, 0%)" fill-opacity="1"><g transform="translate(199.211058, 33.513141)"><g><path d="M 7.65625 0 L 4.78125 -10.140625 L 4.6875 -10.140625 C 4.820312 -8.410156 4.890625 -7.070312 4.890625 -6.125 L 4.890625 0 L 1.515625 0 L 1.515625 -14.09375 L 6.59375 -14.09375 L 9.53125 -4.078125 L 9.609375 -4.078125 L 12.484375 -14.09375 L 17.5625 -14.09375 L 17.5625 0 L 14.0625 0 L 14.0625 -6.171875 C 14.0625 -6.492188 14.066406 -6.847656 14.078125 -7.234375 C 14.085938 -7.628906 14.132812 -8.59375 14.21875 -10.125 L 14.125 -10.125 L 11.28125 0 Z M 7.65625 0 "/></g></g></g><g fill="rgb(0%, 0%, 0%)" fill-opacity="1"><g transform="translate(218.285121, 33.513141)"><g><path d="M 9.078125 0 L 8.609375 -1.359375 L 8.390625 -1.359375 C 8.066406 -0.859375 7.625 -0.472656 7.0625 -0.203125 C 6.5 0.0546875 5.84375 0.1875 5.09375 0.1875 C 3.882812 0.1875 2.945312 -0.15625 2.28125 -0.84375 C 1.613281 -1.539062 1.28125 -2.53125 1.28125 -3.8125 L 1.28125 -10.921875 L 5.046875 -10.921875 L 5.046875 -4.953125 C 5.046875 -4.242188 5.144531 -3.703125 5.34375 -3.328125 C 5.550781 -2.960938 5.882812 -2.78125 6.34375 -2.78125 C 7 -2.78125 7.460938 -3.035156 7.734375 -3.546875 C 8.015625 -4.054688 8.15625 -4.921875 8.15625 -6.140625 L 8.15625 -10.921875 L 11.921875 -10.921875 L 11.921875 0 Z M 9.078125 0 "/></g></g></g><g fill="rgb(0%, 0%, 0%)" fill-opacity="1"><g transform="translate(231.502098, 33.513141)"><g><path d="M 5.09375 0 L 1.3125 0 L 1.3125 -10.921875 L 5.09375 -10.921875 Z M 1.21875 -13.640625 C 1.21875 -14.203125 1.375 -14.617188 1.6875 -14.890625 C 2.007812 -15.171875 2.519531 -15.3125 3.21875 -15.3125 C 3.914062 -15.3125 4.425781 -15.171875 4.75 -14.890625 C 5.070312 -14.609375 5.234375 -14.191406 5.234375 -13.640625 C 5.234375 -12.535156 4.5625 -11.984375 3.21875 -11.984375 C 1.882812 -11.984375 1.21875 -12.535156 1.21875 -13.640625 Z M 1.21875 -13.640625 "/></g></g></g><g fill="rgb(0%, 0%, 0%)" fill-opacity="1"><g transform="translate(237.917919, 33.513141)"><g><path d="M 6.65625 -2.78125 C 7.15625 -2.78125 7.757812 -2.90625 8.46875 -3.15625 L 8.46875 -0.421875 C 7.957031 -0.203125 7.472656 -0.046875 7.015625 0.046875 C 6.554688 0.140625 6.019531 0.1875 5.40625 0.1875 C 4.132812 0.1875 3.21875 -0.117188 2.65625 -0.734375 C 2.101562 -1.359375 1.828125 -2.3125 1.828125 -3.59375 L 1.828125 -8.09375 L 0.515625 -8.09375 L 0.515625 -9.625 L 2.1875 -10.8125 L 3.15625 -13.109375 L 5.625 -13.109375 L 5.625 -10.921875 L 8.3125 -10.921875 L 8.3125 -8.09375 L 5.625 -8.09375 L 5.625 -3.84375 C 5.625 -3.132812 5.96875 -2.78125 6.65625 -2.78125 Z M 6.65625 -2.78125 "/></g></g></g><g fill="rgb(0%, 0%, 0%)" fill-opacity="1"><g transform="translate(246.992549, 33.513141)"><g><path d="M 11.734375 -5.484375 C 11.734375 -3.691406 11.25 -2.296875 10.28125 -1.296875 C 9.320312 -0.304688 7.976562 0.1875 6.25 0.1875 C 4.59375 0.1875 3.273438 -0.320312 2.296875 -1.34375 C 1.316406 -2.363281 0.828125 -3.742188 0.828125 -5.484375 C 0.828125 -7.265625 1.304688 -8.644531 2.265625 -9.625 C 3.222656 -10.613281 4.570312 -11.109375 6.3125 -11.109375 C 7.382812 -11.109375 8.332031 -10.878906 9.15625 -10.421875 C 9.976562 -9.960938 10.613281 -9.304688 11.0625 -8.453125 C 11.507812 -7.609375 11.734375 -6.617188 11.734375 -5.484375 Z M 4.65625 -5.484375 C 4.65625 -4.546875 4.78125 -3.832031 5.03125 -3.34375 C 5.28125 -2.851562 5.703125 -2.609375 6.296875 -2.609375 C 6.878906 -2.609375 7.289062 -2.851562 7.53125 -3.34375 C 7.769531 -3.832031 7.890625 -4.546875 7.890625 -5.484375 C 7.890625 -6.410156 7.765625 -7.113281 7.515625 -7.59375 C 7.273438 -8.070312 6.859375 -8.3125 6.265625 -8.3125 C 5.691406 -8.3125 5.28125 -8.070312 5.03125 -7.59375 C 4.78125 -7.125 4.65625 -6.421875 4.65625 -5.484375 Z M 4.65625 -5.484375 "/></g></g></g></svg>