<svg xmlns="http://www.w3.org/2000/svg" xmlns:xlink="http://www.w3.org/1999/xlink" width="600" zoomAndPan="magnify" viewBox="0 0 450 30.000001" height="40" preserveAspectRatio="xMidYMid meet" version="1.0"><defs><g><g id="id1"/></g></defs><g fill="rgb(100%, 100%, 100%)" fill-opacity="1"><g transform="translate(13.109872, 20.685486)"><g><path d="M 8.953125 -3.5625 C 8.953125 -2.832031 8.765625 -2.1875 8.390625 -1.625 C 8.023438 -1.0625 7.492188 -0.625 6.796875 -0.3125 C 6.097656 0 5.28125 0.15625 4.34375 0.15625 C 3.5625 0.15625 2.90625 0.101562 2.375 0 C 1.84375 -0.113281 1.289062 -0.304688 0.71875 -0.578125 L 0.71875 -3.40625 C 1.320312 -3.09375 1.953125 -2.847656 2.609375 -2.671875 C 3.265625 -2.503906 3.863281 -2.421875 4.40625 -2.421875 C 4.882812 -2.421875 5.234375 -2.5 5.453125 -2.65625 C 5.671875 -2.820312 5.78125 -3.035156 5.78125 -3.296875 C 5.78125 -3.453125 5.734375 -3.585938 5.640625 -3.703125 C 5.554688 -3.828125 5.414062 -3.953125 5.21875 -4.078125 C 5.019531 -4.203125 4.5 -4.457031 3.65625 -4.84375 C 2.882812 -5.1875 2.304688 -5.519531 1.921875 -5.84375 C 1.546875 -6.175781 1.265625 -6.550781 1.078125 -6.96875 C 0.890625 -7.394531 0.796875 -7.894531 0.796875 -8.46875 C 0.796875 -9.550781 1.191406 -10.394531 1.984375 -11 C 2.773438 -11.601562 3.859375 -11.90625 5.234375 -11.90625 C 6.441406 -11.90625 7.679688 -11.628906 8.953125 -11.078125 L 7.984375 -8.625 C 6.878906 -9.125 5.929688 -9.375 5.140625 -9.375 C 4.722656 -9.375 4.421875 -9.300781 4.234375 -9.15625 C 4.046875 -9.007812 3.953125 -8.832031 3.953125 -8.625 C 3.953125 -8.394531 4.070312 -8.1875 4.3125 -8 C 4.550781 -7.820312 5.195312 -7.488281 6.25 -7 C 7.257812 -6.550781 7.960938 -6.0625 8.359375 -5.53125 C 8.753906 -5.007812 8.953125 -4.351562 8.953125 -3.5625 Z M 8.953125 -3.5625 "/></g></g></g><g fill="rgb(100%, 100%, 100%)" fill-opacity="1"><g transform="translate(22.600531, 20.685486)"><g><path d="M 4.234375 0 L 1.09375 0 L 1.09375 -9.109375 L 4.234375 -9.109375 Z M 1.015625 -11.375 C 1.015625 -11.84375 1.144531 -12.191406 1.40625 -12.421875 C 1.675781 -12.648438 2.101562 -12.765625 2.6875 -12.765625 C 3.269531 -12.765625 3.691406 -12.644531 3.953125 -12.40625 C 4.222656 -12.175781 4.359375 -11.832031 4.359375 -11.375 C 4.359375 -10.445312 3.800781 -9.984375 2.6875 -9.984375 C 1.570312 -9.984375 1.015625 -10.445312 1.015625 -11.375 Z M 1.015625 -11.375 "/></g></g></g><g fill="rgb(100%, 100%, 100%)" fill-opacity="1"><g transform="translate(27.94806, 20.685486)"><g><path d="M 12.265625 0 L 12.265625 -4.953125 C 12.265625 -5.566406 12.175781 -6.023438 12 -6.328125 C 11.832031 -6.640625 11.566406 -6.796875 11.203125 -6.796875 C 10.722656 -6.796875 10.367188 -6.585938 10.140625 -6.171875 C 9.921875 -5.765625 9.8125 -5.117188 9.8125 -4.234375 L 9.8125 0 L 6.65625 0 L 6.65625 -4.953125 C 6.65625 -5.566406 6.570312 -6.023438 6.40625 -6.328125 C 6.25 -6.640625 5.992188 -6.796875 5.640625 -6.796875 C 5.148438 -6.796875 4.789062 -6.578125 4.5625 -6.140625 C 4.332031 -5.703125 4.21875 -4.984375 4.21875 -3.984375 L 4.21875 0 L 1.078125 0 L 1.078125 -9.109375 L 3.453125 -9.109375 L 3.84375 -7.984375 L 4.03125 -7.984375 C 4.269531 -8.398438 4.617188 -8.71875 5.078125 -8.9375 C 5.535156 -9.15625 6.054688 -9.265625 6.640625 -9.265625 C 7.953125 -9.265625 8.875 -8.863281 9.40625 -8.0625 L 9.65625 -8.0625 C 9.914062 -8.4375 10.273438 -8.726562 10.734375 -8.9375 C 11.191406 -9.15625 11.695312 -9.265625 12.25 -9.265625 C 13.320312 -9.265625 14.113281 -8.988281 14.625 -8.4375 C 15.144531 -7.882812 15.40625 -7.046875 15.40625 -5.921875 L 15.40625 0 Z M 12.265625 0 "/></g></g></g><g fill="rgb(100%, 100%, 100%)" fill-opacity="1"><g transform="translate(44.392112, 20.685486)"><g><path d="M 6.546875 0.15625 C 6.085938 0.15625 5.675781 0.0820312 5.3125 -0.0625 C 4.945312 -0.21875 4.582031 -0.492188 4.21875 -0.890625 L 4.078125 -0.890625 C 4.171875 -0.253906 4.21875 0.140625 4.21875 0.296875 L 4.21875 3.953125 L 1.078125 3.953125 L 1.078125 -9.109375 L 3.640625 -9.109375 L 4.078125 -7.953125 L 4.21875 -7.953125 C 4.800781 -8.828125 5.609375 -9.265625 6.640625 -9.265625 C 7.648438 -9.265625 8.441406 -8.84375 9.015625 -8 C 9.585938 -7.164062 9.875 -6.023438 9.875 -4.578125 C 9.875 -3.109375 9.570312 -1.953125 8.96875 -1.109375 C 8.375 -0.265625 7.566406 0.15625 6.546875 0.15625 Z M 5.5 -6.796875 C 5.03125 -6.796875 4.703125 -6.628906 4.515625 -6.296875 C 4.335938 -5.972656 4.238281 -5.488281 4.21875 -4.84375 L 4.21875 -4.59375 C 4.21875 -3.8125 4.320312 -3.242188 4.53125 -2.890625 C 4.75 -2.546875 5.082031 -2.375 5.53125 -2.375 C 5.925781 -2.375 6.210938 -2.546875 6.390625 -2.890625 C 6.578125 -3.234375 6.671875 -3.804688 6.671875 -4.609375 C 6.671875 -5.390625 6.578125 -5.945312 6.390625 -6.28125 C 6.210938 -6.625 5.914062 -6.796875 5.5 -6.796875 Z M 5.5 -6.796875 "/></g></g></g><g fill="rgb(100%, 100%, 100%)" fill-opacity="1"><g transform="translate(54.966729, 20.685486)"><g><path d="M 4.21875 0 L 1.078125 0 L 1.078125 -12.5 L 4.21875 -12.5 Z M 4.21875 0 "/></g></g></g><g fill="rgb(100%, 100%, 100%)" fill-opacity="1"><g transform="translate(60.282141, 20.685486)"><g><path d="M 5.484375 0.15625 C 3.960938 0.15625 2.78125 -0.242188 1.9375 -1.046875 C 1.101562 -1.847656 0.6875 -2.992188 0.6875 -4.484375 C 0.6875 -6.023438 1.070312 -7.207031 1.84375 -8.03125 C 2.625 -8.851562 3.738281 -9.265625 5.1875 -9.265625 C 6.550781 -9.265625 7.609375 -8.90625 8.359375 -8.1875 C 9.109375 -7.476562 9.484375 -6.445312 9.484375 -5.09375 L 9.484375 -3.703125 L 3.859375 -3.703125 C 3.878906 -3.191406 4.066406 -2.789062 4.421875 -2.5 C 4.773438 -2.21875 5.253906 -2.078125 5.859375 -2.078125 C 6.410156 -2.078125 6.914062 -2.128906 7.375 -2.234375 C 7.84375 -2.335938 8.347656 -2.515625 8.890625 -2.765625 L 8.890625 -0.5 C 8.390625 -0.25 7.878906 -0.078125 7.359375 0.015625 C 6.835938 0.109375 6.210938 0.15625 5.484375 0.15625 Z M 5.296875 -7.125 C 4.921875 -7.125 4.609375 -7.003906 4.359375 -6.765625 C 4.117188 -6.535156 3.972656 -6.175781 3.921875 -5.6875 L 6.625 -5.6875 C 6.613281 -6.125 6.488281 -6.472656 6.25 -6.734375 C 6.007812 -6.992188 5.691406 -7.125 5.296875 -7.125 Z M 5.296875 -7.125 "/></g></g></g><g fill="rgb(100%, 100%, 100%)" fill-opacity="1"><g transform="translate(70.447263, 20.685486)"><g><path d="M 8.109375 -2.796875 C 8.109375 -1.816406 7.773438 -1.078125 7.109375 -0.578125 C 6.453125 -0.0859375 5.503906 0.15625 4.265625 0.15625 C 3.585938 0.15625 3 0.117188 2.5 0.046875 C 2 -0.0234375 1.488281 -0.15625 0.96875 -0.34375 L 0.96875 -2.859375 C 1.457031 -2.640625 1.992188 -2.460938 2.578125 -2.328125 C 3.160156 -2.191406 3.675781 -2.125 4.125 -2.125 C 4.8125 -2.125 5.15625 -2.28125 5.15625 -2.59375 C 5.15625 -2.75 5.054688 -2.890625 4.859375 -3.015625 C 4.671875 -3.140625 4.117188 -3.382812 3.203125 -3.75 C 2.367188 -4.09375 1.785156 -4.484375 1.453125 -4.921875 C 1.117188 -5.359375 0.953125 -5.910156 0.953125 -6.578125 C 0.953125 -7.421875 1.28125 -8.078125 1.9375 -8.546875 C 2.59375 -9.023438 3.515625 -9.265625 4.703125 -9.265625 C 5.304688 -9.265625 5.867188 -9.195312 6.390625 -9.0625 C 6.921875 -8.9375 7.472656 -8.742188 8.046875 -8.484375 L 7.1875 -6.46875 C 6.769531 -6.65625 6.328125 -6.8125 5.859375 -6.9375 C 5.398438 -7.070312 5.019531 -7.140625 4.71875 -7.140625 C 4.207031 -7.140625 3.953125 -7.015625 3.953125 -6.765625 C 3.953125 -6.609375 4.039062 -6.472656 4.21875 -6.359375 C 4.394531 -6.253906 4.914062 -6.035156 5.78125 -5.703125 C 6.414062 -5.429688 6.890625 -5.171875 7.203125 -4.921875 C 7.515625 -4.671875 7.742188 -4.375 7.890625 -4.03125 C 8.035156 -3.695312 8.109375 -3.285156 8.109375 -2.796875 Z M 8.109375 -2.796875 "/></g></g></g><g fill="rgb(100%, 100%, 100%)" fill-opacity="1"><g transform="translate(79.215283, 20.685486)"><g/></g></g><g fill="rgb(100%, 100%, 100%)" fill-opacity="1"><g transform="translate(83.486883, 20.685486)"><g><path d="M 7.859375 -11.75 L 11.421875 -11.75 L 7.5625 0 L 3.828125 0 L 0 -11.75 L 3.5625 -11.75 L 5.171875 -5.796875 C 5.492188 -4.472656 5.675781 -3.550781 5.71875 -3.03125 C 5.75 -3.40625 5.820312 -3.875 5.9375 -4.4375 C 6.050781 -5 6.148438 -5.441406 6.234375 -5.765625 Z M 7.859375 -11.75 "/></g></g></g><g fill="rgb(100%, 100%, 100%)" fill-opacity="1"><g transform="translate(94.89655, 20.685486)"><g><path d="M 4.234375 0 L 1.09375 0 L 1.09375 -9.109375 L 4.234375 -9.109375 Z M 1.015625 -11.375 C 1.015625 -11.84375 1.144531 -12.191406 1.40625 -12.421875 C 1.675781 -12.648438 2.101562 -12.765625 2.6875 -12.765625 C 3.269531 -12.765625 3.691406 -12.644531 3.953125 -12.40625 C 4.222656 -12.175781 4.359375 -11.832031 4.359375 -11.375 C 4.359375 -10.445312 3.800781 -9.984375 2.6875 -9.984375 C 1.570312 -9.984375 1.015625 -10.445312 1.015625 -11.375 Z M 1.015625 -11.375 "/></g></g></g><g fill="rgb(100%, 100%, 100%)" fill-opacity="1"><g transform="translate(100.244078, 20.685486)"><g><path d="M 5.546875 -2.328125 C 5.960938 -2.328125 6.46875 -2.429688 7.0625 -2.640625 L 7.0625 -0.34375 C 6.632812 -0.164062 6.226562 -0.0390625 5.84375 0.03125 C 5.46875 0.113281 5.019531 0.15625 4.5 0.15625 C 3.445312 0.15625 2.6875 -0.0976562 2.21875 -0.609375 C 1.757812 -1.128906 1.53125 -1.925781 1.53125 -3 L 1.53125 -6.75 L 0.421875 -6.75 L 0.421875 -8.03125 L 1.828125 -9.015625 L 2.640625 -10.921875 L 4.6875 -10.921875 L 4.6875 -9.109375 L 6.921875 -9.109375 L 6.921875 -6.75 L 4.6875 -6.75 L 4.6875 -3.203125 C 4.6875 -2.617188 4.972656 -2.328125 5.546875 -2.328125 Z M 5.546875 -2.328125 "/></g></g></g><g fill="rgb(100%, 100%, 100%)" fill-opacity="1"><g transform="translate(107.8077, 20.685486)"><g><path d="M 7.015625 0 L 6.421875 -1.203125 L 6.359375 -1.203125 C 5.929688 -0.679688 5.5 -0.320312 5.0625 -0.125 C 4.625 0.0625 4.054688 0.15625 3.359375 0.15625 C 2.503906 0.15625 1.828125 -0.0976562 1.328125 -0.609375 C 0.835938 -1.117188 0.59375 -1.84375 0.59375 -2.78125 C 0.59375 -3.75 0.929688 -4.46875 1.609375 -4.9375 C 2.285156 -5.414062 3.265625 -5.6875 4.546875 -5.75 L 6.0625 -5.796875 L 6.0625 -5.921875 C 6.0625 -6.671875 5.691406 -7.046875 4.953125 -7.046875 C 4.285156 -7.046875 3.441406 -6.820312 2.421875 -6.375 L 1.515625 -8.4375 C 2.566406 -8.988281 3.90625 -9.265625 5.53125 -9.265625 C 6.695312 -9.265625 7.597656 -8.972656 8.234375 -8.390625 C 8.878906 -7.816406 9.203125 -7.007812 9.203125 -5.96875 L 9.203125 0 Z M 4.6875 -2.0625 C 5.070312 -2.0625 5.398438 -2.179688 5.671875 -2.421875 C 5.941406 -2.660156 6.078125 -2.972656 6.078125 -3.359375 L 6.078125 -4.0625 L 5.34375 -4.03125 C 4.3125 -4 3.796875 -3.617188 3.796875 -2.890625 C 3.796875 -2.335938 4.09375 -2.0625 4.6875 -2.0625 Z M 4.6875 -2.0625 "/></g></g></g><g fill="rgb(100%, 100%, 100%)" fill-opacity="1"><g transform="translate(118.053116, 20.685486)"><g><path d="M 12.265625 0 L 12.265625 -4.953125 C 12.265625 -5.566406 12.175781 -6.023438 12 -6.328125 C 11.832031 -6.640625 11.566406 -6.796875 11.203125 -6.796875 C 10.722656 -6.796875 10.367188 -6.585938 10.140625 -6.171875 C 9.921875 -5.765625 9.8125 -5.117188 9.8125 -4.234375 L 9.8125 0 L 6.65625 0 L 6.65625 -4.953125 C 6.65625 -5.566406 6.570312 -6.023438 6.40625 -6.328125 C 6.25 -6.640625 5.992188 -6.796875 5.640625 -6.796875 C 5.148438 -6.796875 4.789062 -6.578125 4.5625 -6.140625 C 4.332031 -5.703125 4.21875 -4.984375 4.21875 -3.984375 L 4.21875 0 L 1.078125 0 L 1.078125 -9.109375 L 3.453125 -9.109375 L 3.84375 -7.984375 L 4.03125 -7.984375 C 4.269531 -8.398438 4.617188 -8.71875 5.078125 -8.9375 C 5.535156 -9.15625 6.054688 -9.265625 6.640625 -9.265625 C 7.953125 -9.265625 8.875 -8.863281 9.40625 -8.0625 L 9.65625 -8.0625 C 9.914062 -8.4375 10.273438 -8.726562 10.734375 -8.9375 C 11.191406 -9.15625 11.695312 -9.265625 12.25 -9.265625 C 13.320312 -9.265625 14.113281 -8.988281 14.625 -8.4375 C 15.144531 -7.882812 15.40625 -7.046875 15.40625 -5.921875 L 15.40625 0 Z M 12.265625 0 "/></g></g></g><g fill="rgb(100%, 100%, 100%)" fill-opacity="1"><g transform="translate(134.497168, 20.685486)"><g><path d="M 4.234375 0 L 1.09375 0 L 1.09375 -9.109375 L 4.234375 -9.109375 Z M 1.015625 -11.375 C 1.015625 -11.84375 1.144531 -12.191406 1.40625 -12.421875 C 1.675781 -12.648438 2.101562 -12.765625 2.6875 -12.765625 C 3.269531 -12.765625 3.691406 -12.644531 3.953125 -12.40625 C 4.222656 -12.175781 4.359375 -11.832031 4.359375 -11.375 C 4.359375 -10.445312 3.800781 -9.984375 2.6875 -9.984375 C 1.570312 -9.984375 1.015625 -10.445312 1.015625 -11.375 Z M 1.015625 -11.375 "/></g></g></g><g fill="rgb(100%, 100%, 100%)" fill-opacity="1"><g transform="translate(139.844697, 20.685486)"><g><path d="M 6.828125 0 L 6.828125 -4.96875 C 6.828125 -5.570312 6.738281 -6.023438 6.5625 -6.328125 C 6.394531 -6.640625 6.117188 -6.796875 5.734375 -6.796875 C 5.203125 -6.796875 4.816406 -6.582031 4.578125 -6.15625 C 4.335938 -5.738281 4.21875 -5.015625 4.21875 -3.984375 L 4.21875 0 L 1.078125 0 L 1.078125 -9.109375 L 3.453125 -9.109375 L 3.84375 -7.984375 L 4.03125 -7.984375 C 4.300781 -8.410156 4.671875 -8.726562 5.140625 -8.9375 C 5.617188 -9.15625 6.164062 -9.265625 6.78125 -9.265625 C 7.789062 -9.265625 8.570312 -8.972656 9.125 -8.390625 C 9.6875 -7.804688 9.96875 -6.984375 9.96875 -5.921875 L 9.96875 0 Z M 6.828125 0 "/></g></g></g><g fill="rgb(100%, 100%, 100%)" fill-opacity="1"><g transform="translate(150.860927, 20.685486)"><g><path d="M 7.015625 0 L 6.421875 -1.203125 L 6.359375 -1.203125 C 5.929688 -0.679688 5.5 -0.320312 5.0625 -0.125 C 4.625 0.0625 4.054688 0.15625 3.359375 0.15625 C 2.503906 0.15625 1.828125 -0.0976562 1.328125 -0.609375 C 0.835938 -1.117188 0.59375 -1.84375 0.59375 -2.78125 C 0.59375 -3.75 0.929688 -4.46875 1.609375 -4.9375 C 2.285156 -5.414062 3.265625 -5.6875 4.546875 -5.75 L 6.0625 -5.796875 L 6.0625 -5.921875 C 6.0625 -6.671875 5.691406 -7.046875 4.953125 -7.046875 C 4.285156 -7.046875 3.441406 -6.820312 2.421875 -6.375 L 1.515625 -8.4375 C 2.566406 -8.988281 3.90625 -9.265625 5.53125 -9.265625 C 6.695312 -9.265625 7.597656 -8.972656 8.234375 -8.390625 C 8.878906 -7.816406 9.203125 -7.007812 9.203125 -5.96875 L 9.203125 0 Z M 4.6875 -2.0625 C 5.070312 -2.0625 5.398438 -2.179688 5.671875 -2.421875 C 5.941406 -2.660156 6.078125 -2.972656 6.078125 -3.359375 L 6.078125 -4.0625 L 5.34375 -4.03125 C 4.3125 -4 3.796875 -3.617188 3.796875 -2.890625 C 3.796875 -2.335938 4.09375 -2.0625 4.6875 -2.0625 Z M 4.6875 -2.0625 "/></g></g></g><g fill="rgb(100%, 100%, 100%)" fill-opacity="1"><g transform="translate(161.106342, 20.685486)"><g/></g></g><g fill="rgb(100%, 100%, 100%)" fill-opacity="1"><g transform="translate(165.377942, 20.685486)"><g><path d="M 3.90625 0.15625 C 3.257812 0.15625 2.691406 -0.0234375 2.203125 -0.390625 C 1.722656 -0.765625 1.347656 -1.304688 1.078125 -2.015625 C 0.816406 -2.734375 0.6875 -3.578125 0.6875 -4.546875 C 0.6875 -6.015625 0.984375 -7.164062 1.578125 -8 C 2.171875 -8.84375 2.988281 -9.265625 4.03125 -9.265625 C 4.539062 -9.265625 4.984375 -9.160156 5.359375 -8.953125 C 5.742188 -8.753906 6.097656 -8.410156 6.421875 -7.921875 L 6.484375 -7.921875 C 6.378906 -8.640625 6.328125 -9.351562 6.328125 -10.0625 L 6.328125 -12.5 L 9.5 -12.5 L 9.5 0 L 7.125 0 L 6.453125 -1.15625 L 6.328125 -1.15625 C 5.785156 -0.28125 4.976562 0.15625 3.90625 0.15625 Z M 5.203125 -2.328125 C 5.703125 -2.328125 6.054688 -2.484375 6.265625 -2.796875 C 6.472656 -3.109375 6.582031 -3.597656 6.59375 -4.265625 L 6.59375 -4.5 C 6.59375 -5.3125 6.476562 -5.882812 6.25 -6.21875 C 6.019531 -6.5625 5.660156 -6.734375 5.171875 -6.734375 C 4.753906 -6.734375 4.429688 -6.535156 4.203125 -6.140625 C 3.972656 -5.753906 3.859375 -5.203125 3.859375 -4.484375 C 3.859375 -3.785156 3.972656 -3.25 4.203125 -2.875 C 4.441406 -2.507812 4.773438 -2.328125 5.203125 -2.328125 Z M 5.203125 -2.328125 "/></g></g></g><g fill="rgb(100%, 100%, 100%)" fill-opacity="1"><g transform="translate(175.952559, 20.685486)"><g><path d="M 5.484375 0.15625 C 3.960938 0.15625 2.78125 -0.242188 1.9375 -1.046875 C 1.101562 -1.847656 0.6875 -2.992188 0.6875 -4.484375 C 0.6875 -6.023438 1.070312 -7.207031 1.84375 -8.03125 C 2.625 -8.851562 3.738281 -9.265625 5.1875 -9.265625 C 6.550781 -9.265625 7.609375 -8.90625 8.359375 -8.1875 C 9.109375 -7.476562 9.484375 -6.445312 9.484375 -5.09375 L 9.484375 -3.703125 L 3.859375 -3.703125 C 3.878906 -3.191406 4.066406 -2.789062 4.421875 -2.5 C 4.773438 -2.21875 5.253906 -2.078125 5.859375 -2.078125 C 6.410156 -2.078125 6.914062 -2.128906 7.375 -2.234375 C 7.84375 -2.335938 8.347656 -2.515625 8.890625 -2.765625 L 8.890625 -0.5 C 8.390625 -0.25 7.878906 -0.078125 7.359375 0.015625 C 6.835938 0.109375 6.210938 0.15625 5.484375 0.15625 Z M 5.296875 -7.125 C 4.921875 -7.125 4.609375 -7.003906 4.359375 -6.765625 C 4.117188 -6.535156 3.972656 -6.175781 3.921875 -5.6875 L 6.625 -5.6875 C 6.613281 -6.125 6.488281 -6.472656 6.25 -6.734375 C 6.007812 -6.992188 5.691406 -7.125 5.296875 -7.125 Z M 5.296875 -7.125 "/></g></g></g><g fill="rgb(100%, 100%, 100%)" fill-opacity="1"><g transform="translate(186.117682, 20.685486)"><g/></g></g><g fill="rgb(100%, 100%, 100%)" fill-opacity="1"><g transform="translate(190.389281, 20.685486)"><g><path d="M 0.5625 -4.96875 C 0.5625 -6.601562 0.796875 -7.925781 1.265625 -8.9375 C 1.734375 -9.957031 2.421875 -10.707031 3.328125 -11.1875 C 4.242188 -11.664062 5.375 -11.90625 6.71875 -11.90625 C 7.195312 -11.90625 7.753906 -11.863281 8.390625 -11.78125 L 8.390625 -9.296875 C 7.847656 -9.398438 7.265625 -9.453125 6.640625 -9.453125 C 5.578125 -9.453125 4.785156 -9.21875 4.265625 -8.75 C 3.753906 -8.28125 3.472656 -7.519531 3.421875 -6.46875 L 3.515625 -6.46875 C 3.992188 -7.375 4.769531 -7.828125 5.84375 -7.828125 C 6.882812 -7.828125 7.691406 -7.488281 8.265625 -6.8125 C 8.847656 -6.144531 9.140625 -5.210938 9.140625 -4.015625 C 9.140625 -2.722656 8.773438 -1.703125 8.046875 -0.953125 C 7.316406 -0.210938 6.296875 0.15625 4.984375 0.15625 C 3.597656 0.15625 2.515625 -0.289062 1.734375 -1.1875 C 0.953125 -2.082031 0.5625 -3.34375 0.5625 -4.96875 Z M 4.921875 -2.359375 C 5.253906 -2.359375 5.523438 -2.484375 5.734375 -2.734375 C 5.953125 -2.984375 6.0625 -3.390625 6.0625 -3.953125 C 6.0625 -4.898438 5.691406 -5.375 4.953125 -5.375 C 4.585938 -5.375 4.289062 -5.25 4.0625 -5 C 3.832031 -4.757812 3.71875 -4.460938 3.71875 -4.109375 C 3.71875 -3.597656 3.828125 -3.175781 4.046875 -2.84375 C 4.265625 -2.519531 4.554688 -2.359375 4.921875 -2.359375 Z M 4.921875 -2.359375 "/></g></g></g><g fill="rgb(100%, 100%, 100%)" fill-opacity="1"><g transform="translate(200.024479, 20.685486)"><g/></g></g><g fill="rgb(100%, 100%, 100%)" fill-opacity="1"><g transform="translate(204.296078, 20.685486)"><g><path d="M 1.265625 0 L 1.265625 -11.75 L 4.453125 -11.75 L 4.453125 0 Z M 1.265625 0 "/></g></g></g><g fill="rgb(100%, 100%, 100%)" fill-opacity="1"><g transform="translate(210.020974, 20.685486)"><g><path d="M 6.828125 0 L 6.828125 -4.96875 C 6.828125 -5.570312 6.738281 -6.023438 6.5625 -6.328125 C 6.394531 -6.640625 6.117188 -6.796875 5.734375 -6.796875 C 5.203125 -6.796875 4.816406 -6.582031 4.578125 -6.15625 C 4.335938 -5.738281 4.21875 -5.015625 4.21875 -3.984375 L 4.21875 0 L 1.078125 0 L 1.078125 -9.109375 L 3.453125 -9.109375 L 3.84375 -7.984375 L 4.03125 -7.984375 C 4.300781 -8.410156 4.671875 -8.726562 5.140625 -8.9375 C 5.617188 -9.15625 6.164062 -9.265625 6.78125 -9.265625 C 7.789062 -9.265625 8.570312 -8.972656 9.125 -8.390625 C 9.6875 -7.804688 9.96875 -6.984375 9.96875 -5.921875 L 9.96875 0 Z M 6.828125 0 "/></g></g></g><g fill="rgb(100%, 100%, 100%)" fill-opacity="1"><g transform="translate(221.037205, 20.685486)"><g><path d="M 9.671875 -9.109375 L 9.671875 -7.578125 L 8.421875 -7.125 C 8.597656 -6.8125 8.6875 -6.453125 8.6875 -6.046875 C 8.6875 -5.066406 8.34375 -4.304688 7.65625 -3.765625 C 6.96875 -3.222656 5.941406 -2.953125 4.578125 -2.953125 C 4.234375 -2.953125 3.960938 -2.972656 3.765625 -3.015625 C 3.691406 -2.867188 3.65625 -2.738281 3.65625 -2.625 C 3.65625 -2.46875 3.78125 -2.347656 4.03125 -2.265625 C 4.28125 -2.179688 4.609375 -2.140625 5.015625 -2.140625 L 6.53125 -2.140625 C 8.570312 -2.140625 9.59375 -1.28125 9.59375 0.4375 C 9.59375 1.550781 9.117188 2.414062 8.171875 3.03125 C 7.222656 3.644531 5.894531 3.953125 4.1875 3.953125 C 2.894531 3.953125 1.898438 3.734375 1.203125 3.296875 C 0.503906 2.867188 0.15625 2.253906 0.15625 1.453125 C 0.15625 0.359375 0.832031 -0.34375 2.1875 -0.65625 C 1.90625 -0.769531 1.660156 -0.957031 1.453125 -1.21875 C 1.253906 -1.488281 1.15625 -1.753906 1.15625 -2.015625 C 1.15625 -2.296875 1.226562 -2.539062 1.375 -2.75 C 1.53125 -2.96875 1.859375 -3.226562 2.359375 -3.53125 C 1.878906 -3.738281 1.503906 -4.066406 1.234375 -4.515625 C 0.960938 -4.960938 0.828125 -5.503906 0.828125 -6.140625 C 0.828125 -7.128906 1.164062 -7.894531 1.84375 -8.4375 C 2.519531 -8.988281 3.484375 -9.265625 4.734375 -9.265625 C 4.898438 -9.265625 5.1875 -9.242188 5.59375 -9.203125 C 6 -9.171875 6.300781 -9.140625 6.5 -9.109375 Z M 2.8125 1.125 C 2.8125 1.382812 2.945312 1.59375 3.21875 1.75 C 3.5 1.914062 3.875 2 4.34375 2 C 5.101562 2 5.710938 1.898438 6.171875 1.703125 C 6.628906 1.515625 6.859375 1.269531 6.859375 0.96875 C 6.859375 0.726562 6.71875 0.554688 6.4375 0.453125 C 6.164062 0.359375 5.769531 0.3125 5.25 0.3125 L 4.015625 0.3125 C 3.679688 0.3125 3.394531 0.390625 3.15625 0.546875 C 2.925781 0.703125 2.8125 0.894531 2.8125 1.125 Z M 3.796875 -6.125 C 3.796875 -5.1875 4.117188 -4.71875 4.765625 -4.71875 C 5.066406 -4.71875 5.300781 -4.832031 5.46875 -5.0625 C 5.632812 -5.300781 5.71875 -5.648438 5.71875 -6.109375 C 5.71875 -7.046875 5.398438 -7.515625 4.765625 -7.515625 C 4.117188 -7.515625 3.796875 -7.050781 3.796875 -6.125 Z M 3.796875 -6.125 "/></g></g></g><g fill="rgb(100%, 100%, 100%)" fill-opacity="1"><g transform="translate(231.001583, 20.685486)"><g><path d="M 6.578125 -9.265625 C 6.847656 -9.265625 7.109375 -9.242188 7.359375 -9.203125 L 7.53125 -9.171875 L 7.25 -6.203125 C 7 -6.265625 6.644531 -6.296875 6.1875 -6.296875 C 5.5 -6.296875 5 -6.140625 4.6875 -5.828125 C 4.375 -5.515625 4.21875 -5.0625 4.21875 -4.46875 L 4.21875 0 L 1.078125 0 L 1.078125 -9.109375 L 3.421875 -9.109375 L 3.90625 -7.640625 L 4.0625 -7.640625 C 4.320312 -8.128906 4.6875 -8.519531 5.15625 -8.8125 C 5.625 -9.113281 6.097656 -9.265625 6.578125 -9.265625 Z M 6.578125 -9.265625 "/></g></g></g><g fill="rgb(100%, 100%, 100%)" fill-opacity="1"><g transform="translate(238.71775, 20.685486)"><g><path d="M 5.484375 0.15625 C 3.960938 0.15625 2.78125 -0.242188 1.9375 -1.046875 C 1.101562 -1.847656 0.6875 -2.992188 0.6875 -4.484375 C 0.6875 -6.023438 1.070312 -7.207031 1.84375 -8.03125 C 2.625 -8.851562 3.738281 -9.265625 5.1875 -9.265625 C 6.550781 -9.265625 7.609375 -8.90625 8.359375 -8.1875 C 9.109375 -7.476562 9.484375 -6.445312 9.484375 -5.09375 L 9.484375 -3.703125 L 3.859375 -3.703125 C 3.878906 -3.191406 4.066406 -2.789062 4.421875 -2.5 C 4.773438 -2.21875 5.253906 -2.078125 5.859375 -2.078125 C 6.410156 -2.078125 6.914062 -2.128906 7.375 -2.234375 C 7.84375 -2.335938 8.347656 -2.515625 8.890625 -2.765625 L 8.890625 -0.5 C 8.390625 -0.25 7.878906 -0.078125 7.359375 0.015625 C 6.835938 0.109375 6.210938 0.15625 5.484375 0.15625 Z M 5.296875 -7.125 C 4.921875 -7.125 4.609375 -7.003906 4.359375 -6.765625 C 4.117188 -6.535156 3.972656 -6.175781 3.921875 -5.6875 L 6.625 -5.6875 C 6.613281 -6.125 6.488281 -6.472656 6.25 -6.734375 C 6.007812 -6.992188 5.691406 -7.125 5.296875 -7.125 Z M 5.296875 -7.125 "/></g></g></g><g fill="rgb(100%, 100%, 100%)" fill-opacity="1"><g transform="translate(248.882873, 20.685486)"><g><path d="M 3.90625 0.15625 C 3.257812 0.15625 2.691406 -0.0234375 2.203125 -0.390625 C 1.722656 -0.765625 1.347656 -1.304688 1.078125 -2.015625 C 0.816406 -2.734375 0.6875 -3.578125 0.6875 -4.546875 C 0.6875 -6.015625 0.984375 -7.164062 1.578125 -8 C 2.171875 -8.84375 2.988281 -9.265625 4.03125 -9.265625 C 4.539062 -9.265625 4.984375 -9.160156 5.359375 -8.953125 C 5.742188 -8.753906 6.097656 -8.410156 6.421875 -7.921875 L 6.484375 -7.921875 C 6.378906 -8.640625 6.328125 -9.351562 6.328125 -10.0625 L 6.328125 -12.5 L 9.5 -12.5 L 9.5 0 L 7.125 0 L 6.453125 -1.15625 L 6.328125 -1.15625 C 5.785156 -0.28125 4.976562 0.15625 3.90625 0.15625 Z M 5.203125 -2.328125 C 5.703125 -2.328125 6.054688 -2.484375 6.265625 -2.796875 C 6.472656 -3.109375 6.582031 -3.597656 6.59375 -4.265625 L 6.59375 -4.5 C 6.59375 -5.3125 6.476562 -5.882812 6.25 -6.21875 C 6.019531 -6.5625 5.660156 -6.734375 5.171875 -6.734375 C 4.753906 -6.734375 4.429688 -6.535156 4.203125 -6.140625 C 3.972656 -5.753906 3.859375 -5.203125 3.859375 -4.484375 C 3.859375 -3.785156 3.972656 -3.25 4.203125 -2.875 C 4.441406 -2.507812 4.773438 -2.328125 5.203125 -2.328125 Z M 5.203125 -2.328125 "/></g></g></g><g fill="rgb(100%, 100%, 100%)" fill-opacity="1"><g transform="translate(259.457501, 20.685486)"><g><path d="M 4.234375 0 L 1.09375 0 L 1.09375 -9.109375 L 4.234375 -9.109375 Z M 1.015625 -11.375 C 1.015625 -11.84375 1.144531 -12.191406 1.40625 -12.421875 C 1.675781 -12.648438 2.101562 -12.765625 2.6875 -12.765625 C 3.269531 -12.765625 3.691406 -12.644531 3.953125 -12.40625 C 4.222656 -12.175781 4.359375 -11.832031 4.359375 -11.375 C 4.359375 -10.445312 3.800781 -9.984375 2.6875 -9.984375 C 1.570312 -9.984375 1.015625 -10.445312 1.015625 -11.375 Z M 1.015625 -11.375 "/></g></g></g><g fill="rgb(100%, 100%, 100%)" fill-opacity="1"><g transform="translate(264.80503, 20.685486)"><g><path d="M 5.484375 0.15625 C 3.960938 0.15625 2.78125 -0.242188 1.9375 -1.046875 C 1.101562 -1.847656 0.6875 -2.992188 0.6875 -4.484375 C 0.6875 -6.023438 1.070312 -7.207031 1.84375 -8.03125 C 2.625 -8.851562 3.738281 -9.265625 5.1875 -9.265625 C 6.550781 -9.265625 7.609375 -8.90625 8.359375 -8.1875 C 9.109375 -7.476562 9.484375 -6.445312 9.484375 -5.09375 L 9.484375 -3.703125 L 3.859375 -3.703125 C 3.878906 -3.191406 4.066406 -2.789062 4.421875 -2.5 C 4.773438 -2.21875 5.253906 -2.078125 5.859375 -2.078125 C 6.410156 -2.078125 6.914062 -2.128906 7.375 -2.234375 C 7.84375 -2.335938 8.347656 -2.515625 8.890625 -2.765625 L 8.890625 -0.5 C 8.390625 -0.25 7.878906 -0.078125 7.359375 0.015625 C 6.835938 0.109375 6.210938 0.15625 5.484375 0.15625 Z M 5.296875 -7.125 C 4.921875 -7.125 4.609375 -7.003906 4.359375 -6.765625 C 4.117188 -6.535156 3.972656 -6.175781 3.921875 -5.6875 L 6.625 -5.6875 C 6.613281 -6.125 6.488281 -6.472656 6.25 -6.734375 C 6.007812 -6.992188 5.691406 -7.125 5.296875 -7.125 Z M 5.296875 -7.125 "/></g></g></g><g fill="rgb(100%, 100%, 100%)" fill-opacity="1"><g transform="translate(274.970152, 20.685486)"><g><path d="M 6.828125 0 L 6.828125 -4.96875 C 6.828125 -5.570312 6.738281 -6.023438 6.5625 -6.328125 C 6.394531 -6.640625 6.117188 -6.796875 5.734375 -6.796875 C 5.203125 -6.796875 4.816406 -6.582031 4.578125 -6.15625 C 4.335938 -5.738281 4.21875 -5.015625 4.21875 -3.984375 L 4.21875 0 L 1.078125 0 L 1.078125 -9.109375 L 3.453125 -9.109375 L 3.84375 -7.984375 L 4.03125 -7.984375 C 4.300781 -8.410156 4.671875 -8.726562 5.140625 -8.9375 C 5.617188 -9.15625 6.164062 -9.265625 6.78125 -9.265625 C 7.789062 -9.265625 8.570312 -8.972656 9.125 -8.390625 C 9.6875 -7.804688 9.96875 -6.984375 9.96875 -5.921875 L 9.96875 0 Z M 6.828125 0 "/></g></g></g><g fill="rgb(100%, 100%, 100%)" fill-opacity="1"><g transform="translate(285.986382, 20.685486)"><g><path d="M 5.546875 -2.328125 C 5.960938 -2.328125 6.46875 -2.429688 7.0625 -2.640625 L 7.0625 -0.34375 C 6.632812 -0.164062 6.226562 -0.0390625 5.84375 0.03125 C 5.46875 0.113281 5.019531 0.15625 4.5 0.15625 C 3.445312 0.15625 2.6875 -0.0976562 2.21875 -0.609375 C 1.757812 -1.128906 1.53125 -1.925781 1.53125 -3 L 1.53125 -6.75 L 0.421875 -6.75 L 0.421875 -8.03125 L 1.828125 -9.015625 L 2.640625 -10.921875 L 4.6875 -10.921875 L 4.6875 -9.109375 L 6.921875 -9.109375 L 6.921875 -6.75 L 4.6875 -6.75 L 4.6875 -3.203125 C 4.6875 -2.617188 4.972656 -2.328125 5.546875 -2.328125 Z M 5.546875 -2.328125 "/></g></g></g><g fill="rgb(100%, 100%, 100%)" fill-opacity="1"><g transform="translate(293.550004, 20.685486)"><g><path d="M 5.484375 0.15625 C 3.960938 0.15625 2.78125 -0.242188 1.9375 -1.046875 C 1.101562 -1.847656 0.6875 -2.992188 0.6875 -4.484375 C 0.6875 -6.023438 1.070312 -7.207031 1.84375 -8.03125 C 2.625 -8.851562 3.738281 -9.265625 5.1875 -9.265625 C 6.550781 -9.265625 7.609375 -8.90625 8.359375 -8.1875 C 9.109375 -7.476562 9.484375 -6.445312 9.484375 -5.09375 L 9.484375 -3.703125 L 3.859375 -3.703125 C 3.878906 -3.191406 4.066406 -2.789062 4.421875 -2.5 C 4.773438 -2.21875 5.253906 -2.078125 5.859375 -2.078125 C 6.410156 -2.078125 6.914062 -2.128906 7.375 -2.234375 C 7.84375 -2.335938 8.347656 -2.515625 8.890625 -2.765625 L 8.890625 -0.5 C 8.390625 -0.25 7.878906 -0.078125 7.359375 0.015625 C 6.835938 0.109375 6.210938 0.15625 5.484375 0.15625 Z M 5.296875 -7.125 C 4.921875 -7.125 4.609375 -7.003906 4.359375 -6.765625 C 4.117188 -6.535156 3.972656 -6.175781 3.921875 -5.6875 L 6.625 -5.6875 C 6.613281 -6.125 6.488281 -6.472656 6.25 -6.734375 C 6.007812 -6.992188 5.691406 -7.125 5.296875 -7.125 Z M 5.296875 -7.125 "/></g></g></g><g fill="rgb(100%, 100%, 100%)" fill-opacity="1"><g transform="translate(303.715126, 20.685486)"><g><path d="M 8.109375 -2.796875 C 8.109375 -1.816406 7.773438 -1.078125 7.109375 -0.578125 C 6.453125 -0.0859375 5.503906 0.15625 4.265625 0.15625 C 3.585938 0.15625 3 0.117188 2.5 0.046875 C 2 -0.0234375 1.488281 -0.15625 0.96875 -0.34375 L 0.96875 -2.859375 C 1.457031 -2.640625 1.992188 -2.460938 2.578125 -2.328125 C 3.160156 -2.191406 3.675781 -2.125 4.125 -2.125 C 4.8125 -2.125 5.15625 -2.28125 5.15625 -2.59375 C 5.15625 -2.75 5.054688 -2.890625 4.859375 -3.015625 C 4.671875 -3.140625 4.117188 -3.382812 3.203125 -3.75 C 2.367188 -4.09375 1.785156 -4.484375 1.453125 -4.921875 C 1.117188 -5.359375 0.953125 -5.910156 0.953125 -6.578125 C 0.953125 -7.421875 1.28125 -8.078125 1.9375 -8.546875 C 2.59375 -9.023438 3.515625 -9.265625 4.703125 -9.265625 C 5.304688 -9.265625 5.867188 -9.195312 6.390625 -9.0625 C 6.921875 -8.9375 7.472656 -8.742188 8.046875 -8.484375 L 7.1875 -6.46875 C 6.769531 -6.65625 6.328125 -6.8125 5.859375 -6.9375 C 5.398438 -7.070312 5.019531 -7.140625 4.71875 -7.140625 C 4.207031 -7.140625 3.953125 -7.015625 3.953125 -6.765625 C 3.953125 -6.609375 4.039062 -6.472656 4.21875 -6.359375 C 4.394531 -6.253906 4.914062 -6.035156 5.78125 -5.703125 C 6.414062 -5.429688 6.890625 -5.171875 7.203125 -4.921875 C 7.515625 -4.671875 7.742188 -4.375 7.890625 -4.03125 C 8.035156 -3.695312 8.109375 -3.285156 8.109375 -2.796875 Z M 8.109375 -2.796875 "/></g></g></g><g fill="rgb(100%, 100%, 100%)" fill-opacity="1"><g transform="translate(312.483146, 20.685486)"><g/></g></g><g fill="rgb(100%, 100%, 100%)" fill-opacity="1"><g transform="translate(316.754746, 20.685486)"><g><path d="M 11.234375 -6.125 C 11.234375 -4.164062 10.691406 -2.65625 9.609375 -1.59375 C 8.535156 -0.53125 7.019531 0 5.0625 0 L 1.265625 0 L 1.265625 -11.75 L 5.328125 -11.75 C 7.210938 -11.75 8.664062 -11.265625 9.6875 -10.296875 C 10.71875 -9.335938 11.234375 -7.945312 11.234375 -6.125 Z M 7.953125 -6.015625 C 7.953125 -7.085938 7.738281 -7.882812 7.3125 -8.40625 C 6.882812 -8.925781 6.234375 -9.1875 5.359375 -9.1875 L 4.4375 -9.1875 L 4.4375 -2.609375 L 5.15625 -2.609375 C 6.113281 -2.609375 6.816406 -2.882812 7.265625 -3.4375 C 7.722656 -4 7.953125 -4.859375 7.953125 -6.015625 Z M 7.953125 -6.015625 "/></g></g></g><g fill="rgb(100%, 100%, 100%)" fill-opacity="1"><g transform="translate(328.822828, 20.685486)"><g><path d="M 5.484375 0.15625 C 3.960938 0.15625 2.78125 -0.242188 1.9375 -1.046875 C 1.101562 -1.847656 0.6875 -2.992188 0.6875 -4.484375 C 0.6875 -6.023438 1.070312 -7.207031 1.84375 -8.03125 C 2.625 -8.851562 3.738281 -9.265625 5.1875 -9.265625 C 6.550781 -9.265625 7.609375 -8.90625 8.359375 -8.1875 C 9.109375 -7.476562 9.484375 -6.445312 9.484375 -5.09375 L 9.484375 -3.703125 L 3.859375 -3.703125 C 3.878906 -3.191406 4.066406 -2.789062 4.421875 -2.5 C 4.773438 -2.21875 5.253906 -2.078125 5.859375 -2.078125 C 6.410156 -2.078125 6.914062 -2.128906 7.375 -2.234375 C 7.84375 -2.335938 8.347656 -2.515625 8.890625 -2.765625 L 8.890625 -0.5 C 8.390625 -0.25 7.878906 -0.078125 7.359375 0.015625 C 6.835938 0.109375 6.210938 0.15625 5.484375 0.15625 Z M 5.296875 -7.125 C 4.921875 -7.125 4.609375 -7.003906 4.359375 -6.765625 C 4.117188 -6.535156 3.972656 -6.175781 3.921875 -5.6875 L 6.625 -5.6875 C 6.613281 -6.125 6.488281 -6.472656 6.25 -6.734375 C 6.007812 -6.992188 5.691406 -7.125 5.296875 -7.125 Z M 5.296875 -7.125 "/></g></g></g><g fill="rgb(100%, 100%, 100%)" fill-opacity="1"><g transform="translate(338.987951, 20.685486)"><g><path d="M 6.578125 -9.265625 C 6.847656 -9.265625 7.109375 -9.242188 7.359375 -9.203125 L 7.53125 -9.171875 L 7.25 -6.203125 C 7 -6.265625 6.644531 -6.296875 6.1875 -6.296875 C 5.5 -6.296875 5 -6.140625 4.6875 -5.828125 C 4.375 -5.515625 4.21875 -5.0625 4.21875 -4.46875 L 4.21875 0 L 1.078125 0 L 1.078125 -9.109375 L 3.421875 -9.109375 L 3.90625 -7.640625 L 4.0625 -7.640625 C 4.320312 -8.128906 4.6875 -8.519531 5.15625 -8.8125 C 5.625 -9.113281 6.097656 -9.265625 6.578125 -9.265625 Z M 6.578125 -9.265625 "/></g></g></g><g fill="rgb(100%, 100%, 100%)" fill-opacity="1"><g transform="translate(346.704141, 20.685486)"><g><path d="M 6.578125 -9.265625 C 6.847656 -9.265625 7.109375 -9.242188 7.359375 -9.203125 L 7.53125 -9.171875 L 7.25 -6.203125 C 7 -6.265625 6.644531 -6.296875 6.1875 -6.296875 C 5.5 -6.296875 5 -6.140625 4.6875 -5.828125 C 4.375 -5.515625 4.21875 -5.0625 4.21875 -4.46875 L 4.21875 0 L 1.078125 0 L 1.078125 -9.109375 L 3.421875 -9.109375 L 3.90625 -7.640625 L 4.0625 -7.640625 C 4.320312 -8.128906 4.6875 -8.519531 5.15625 -8.8125 C 5.625 -9.113281 6.097656 -9.265625 6.578125 -9.265625 Z M 6.578125 -9.265625 "/></g></g></g><g fill="rgb(100%, 100%, 100%)" fill-opacity="1"><g transform="translate(354.420308, 20.685486)"><g><path d="M 5.484375 0.15625 C 3.960938 0.15625 2.78125 -0.242188 1.9375 -1.046875 C 1.101562 -1.847656 0.6875 -2.992188 0.6875 -4.484375 C 0.6875 -6.023438 1.070312 -7.207031 1.84375 -8.03125 C 2.625 -8.851562 3.738281 -9.265625 5.1875 -9.265625 C 6.550781 -9.265625 7.609375 -8.90625 8.359375 -8.1875 C 9.109375 -7.476562 9.484375 -6.445312 9.484375 -5.09375 L 9.484375 -3.703125 L 3.859375 -3.703125 C 3.878906 -3.191406 4.066406 -2.789062 4.421875 -2.5 C 4.773438 -2.21875 5.253906 -2.078125 5.859375 -2.078125 C 6.410156 -2.078125 6.914062 -2.128906 7.375 -2.234375 C 7.84375 -2.335938 8.347656 -2.515625 8.890625 -2.765625 L 8.890625 -0.5 C 8.390625 -0.25 7.878906 -0.078125 7.359375 0.015625 C 6.835938 0.109375 6.210938 0.15625 5.484375 0.15625 Z M 5.296875 -7.125 C 4.921875 -7.125 4.609375 -7.003906 4.359375 -6.765625 C 4.117188 -6.535156 3.972656 -6.175781 3.921875 -5.6875 L 6.625 -5.6875 C 6.613281 -6.125 6.488281 -6.472656 6.25 -6.734375 C 6.007812 -6.992188 5.691406 -7.125 5.296875 -7.125 Z M 5.296875 -7.125 "/></g></g></g><g fill="rgb(100%, 100%, 100%)" fill-opacity="1"><g transform="translate(364.58543, 20.685486)"><g><path d="M 5.546875 -2.328125 C 5.960938 -2.328125 6.46875 -2.429688 7.0625 -2.640625 L 7.0625 -0.34375 C 6.632812 -0.164062 6.226562 -0.0390625 5.84375 0.03125 C 5.46875 0.113281 5.019531 0.15625 4.5 0.15625 C 3.445312 0.15625 2.6875 -0.0976562 2.21875 -0.609375 C 1.757812 -1.128906 1.53125 -1.925781 1.53125 -3 L 1.53125 -6.75 L 0.421875 -6.75 L 0.421875 -8.03125 L 1.828125 -9.015625 L 2.640625 -10.921875 L 4.6875 -10.921875 L 4.6875 -9.109375 L 6.921875 -9.109375 L 6.921875 -6.75 L 4.6875 -6.75 L 4.6875 -3.203125 C 4.6875 -2.617188 4.972656 -2.328125 5.546875 -2.328125 Z M 5.546875 -2.328125 "/></g></g></g><g fill="rgb(100%, 100%, 100%)" fill-opacity="1"><g transform="translate(372.149052, 20.685486)"><g><path d="M 5.484375 0.15625 C 3.960938 0.15625 2.78125 -0.242188 1.9375 -1.046875 C 1.101562 -1.847656 0.6875 -2.992188 0.6875 -4.484375 C 0.6875 -6.023438 1.070312 -7.207031 1.84375 -8.03125 C 2.625 -8.851562 3.738281 -9.265625 5.1875 -9.265625 C 6.550781 -9.265625 7.609375 -8.90625 8.359375 -8.1875 C 9.109375 -7.476562 9.484375 -6.445312 9.484375 -5.09375 L 9.484375 -3.703125 L 3.859375 -3.703125 C 3.878906 -3.191406 4.066406 -2.789062 4.421875 -2.5 C 4.773438 -2.21875 5.253906 -2.078125 5.859375 -2.078125 C 6.410156 -2.078125 6.914062 -2.128906 7.375 -2.234375 C 7.84375 -2.335938 8.347656 -2.515625 8.890625 -2.765625 L 8.890625 -0.5 C 8.390625 -0.25 7.878906 -0.078125 7.359375 0.015625 C 6.835938 0.109375 6.210938 0.15625 5.484375 0.15625 Z M 5.296875 -7.125 C 4.921875 -7.125 4.609375 -7.003906 4.359375 -6.765625 C 4.117188 -6.535156 3.972656 -6.175781 3.921875 -5.6875 L 6.625 -5.6875 C 6.613281 -6.125 6.488281 -6.472656 6.25 -6.734375 C 6.007812 -6.992188 5.691406 -7.125 5.296875 -7.125 Z M 5.296875 -7.125 "/></g></g></g><g fill="rgb(100%, 100%, 100%)" fill-opacity="1"><g transform="translate(382.314174, 20.685486)"><g/></g></g><g fill="rgb(100%, 100%, 100%)" fill-opacity="1"><g transform="translate(386.585752, 20.685486)"><g><path d="M 6.390625 0 L 3.984375 -8.453125 L 3.90625 -8.453125 C 4.019531 -7.015625 4.078125 -5.894531 4.078125 -5.09375 L 4.078125 0 L 1.265625 0 L 1.265625 -11.75 L 5.5 -11.75 L 7.953125 -3.40625 L 8.015625 -3.40625 L 10.40625 -11.75 L 14.640625 -11.75 L 14.640625 0 L 11.734375 0 L 11.734375 -5.15625 C 11.734375 -5.414062 11.734375 -5.707031 11.734375 -6.03125 C 11.742188 -6.363281 11.78125 -7.164062 11.84375 -8.4375 L 11.78125 -8.4375 L 9.40625 0 Z M 6.390625 0 "/></g></g></g><g fill="rgb(100%, 100%, 100%)" fill-opacity="1"><g transform="translate(402.48381, 20.685486)"><g><path d="M 7.5625 0 L 7.171875 -1.125 L 6.984375 -1.125 C 6.722656 -0.707031 6.359375 -0.390625 5.890625 -0.171875 C 5.421875 0.046875 4.867188 0.15625 4.234375 0.15625 C 3.234375 0.15625 2.453125 -0.128906 1.890625 -0.703125 C 1.335938 -1.285156 1.0625 -2.109375 1.0625 -3.171875 L 1.0625 -9.109375 L 4.203125 -9.109375 L 4.203125 -4.125 C 4.203125 -3.53125 4.285156 -3.082031 4.453125 -2.78125 C 4.628906 -2.476562 4.910156 -2.328125 5.296875 -2.328125 C 5.835938 -2.328125 6.222656 -2.535156 6.453125 -2.953125 C 6.679688 -3.378906 6.796875 -4.101562 6.796875 -5.125 L 6.796875 -9.109375 L 9.9375 -9.109375 L 9.9375 0 Z M 7.5625 0 "/></g></g></g><g fill="rgb(100%, 100%, 100%)" fill-opacity="1"><g transform="translate(413.500041, 20.685486)"><g><path d="M 4.234375 0 L 1.09375 0 L 1.09375 -9.109375 L 4.234375 -9.109375 Z M 1.015625 -11.375 C 1.015625 -11.84375 1.144531 -12.191406 1.40625 -12.421875 C 1.675781 -12.648438 2.101562 -12.765625 2.6875 -12.765625 C 3.269531 -12.765625 3.691406 -12.644531 3.953125 -12.40625 C 4.222656 -12.175781 4.359375 -11.832031 4.359375 -11.375 C 4.359375 -10.445312 3.800781 -9.984375 2.6875 -9.984375 C 1.570312 -9.984375 1.015625 -10.445312 1.015625 -11.375 Z M 1.015625 -11.375 "/></g></g></g><g fill="rgb(100%, 100%, 100%)" fill-opacity="1"><g transform="translate(418.847547, 20.685486)"><g><path d="M 5.546875 -2.328125 C 5.960938 -2.328125 6.46875 -2.429688 7.0625 -2.640625 L 7.0625 -0.34375 C 6.632812 -0.164062 6.226562 -0.0390625 5.84375 0.03125 C 5.46875 0.113281 5.019531 0.15625 4.5 0.15625 C 3.445312 0.15625 2.6875 -0.0976562 2.21875 -0.609375 C 1.757812 -1.128906 1.53125 -1.925781 1.53125 -3 L 1.53125 -6.75 L 0.421875 -6.75 L 0.421875 -8.03125 L 1.828125 -9.015625 L 2.640625 -10.921875 L 4.6875 -10.921875 L 4.6875 -9.109375 L 6.921875 -9.109375 L 6.921875 -6.75 L 4.6875 -6.75 L 4.6875 -3.203125 C 4.6875 -2.617188 4.972656 -2.328125 5.546875 -2.328125 Z M 5.546875 -2.328125 "/></g></g></g><g fill="rgb(100%, 100%, 100%)" fill-opacity="1"><g transform="translate(426.411191, 20.685486)"><g><path d="M 9.78125 -4.578125 C 9.78125 -3.085938 9.378906 -1.925781 8.578125 -1.09375 C 7.773438 -0.257812 6.65625 0.15625 5.21875 0.15625 C 3.832031 0.15625 2.726562 -0.265625 1.90625 -1.109375 C 1.09375 -1.960938 0.6875 -3.117188 0.6875 -4.578125 C 0.6875 -6.054688 1.085938 -7.207031 1.890625 -8.03125 C 2.691406 -8.851562 3.816406 -9.265625 5.265625 -9.265625 C 6.160156 -9.265625 6.945312 -9.070312 7.625 -8.6875 C 8.3125 -8.3125 8.84375 -7.769531 9.21875 -7.0625 C 9.59375 -6.351562 9.78125 -5.523438 9.78125 -4.578125 Z M 3.875 -4.578125 C 3.875 -3.785156 3.976562 -3.1875 4.1875 -2.78125 C 4.394531 -2.375 4.75 -2.171875 5.25 -2.171875 C 5.738281 -2.171875 6.082031 -2.375 6.28125 -2.78125 C 6.476562 -3.1875 6.578125 -3.785156 6.578125 -4.578125 C 6.578125 -5.347656 6.472656 -5.929688 6.265625 -6.328125 C 6.066406 -6.722656 5.722656 -6.921875 5.234375 -6.921875 C 4.742188 -6.921875 4.394531 -6.722656 4.1875 -6.328125 C 3.976562 -5.941406 3.875 -5.359375 3.875 -4.578125 Z M 3.875 -4.578125 "/></g></g></g></svg>